<svg width="157" height="173" viewBox="0 0 157 173" fill="none" xmlns="http://www.w3.org/2000/svg">
<path d="M108.51 9.71542C108.679 8.69275 108.679 8.18143 108.679 8.18143C108.51 8.18143 96.8112 6.30655 82.3997 4.26123L56.2896 0.511475L48.4904 53.3489L40.8608 106.186L67.1405 110.107L93.4202 114.027L101.05 61.1893C104.78 36.475 107.832 15.5105 108.51 9.71542ZM95.6243 25.2258L90.7075 59.6553L85.7906 94.0849L95.6243 25.2258ZM64.0887 20.6238L54.0855 89.3125L59.0023 54.8829L64.0887 20.6238Z" fill="#297A60"/>
<path d="M110.375 7.66995C110.205 7.66995 98.5066 5.79507 84.0951 3.74975L57.8154 0L50.0163 52.8374L42.3867 105.675L68.6664 109.595L94.9461 113.515L102.576 60.6778C106.984 31.532 110.375 7.84039 110.375 7.66995ZM85.9602 93.5734C83.417 93.7438 81.3824 94.5961 79.8565 96.6414C79.3478 97.3232 78.8392 98.1754 78.6697 98.8571C78.5001 99.5389 78.3306 100.05 78.161 100.05C77.6524 100.221 62.7323 98.0049 62.5627 97.8345C62.5627 97.664 62.3932 97.1527 62.3932 96.4709C62.3932 95.1074 61.5455 92.7212 60.5282 91.6985C59.5109 90.5054 57.985 89.6532 56.6286 89.1419L55.6113 88.801L60.6977 54.5419L65.6146 20.1123H66.971C67.8187 20.1123 68.836 19.9419 69.1751 19.7714C71.2096 19.0897 73.5833 16.8739 74.0919 14.999C74.431 14.4877 74.6005 13.8059 74.6005 13.6355L74.7701 13.1241L82.5692 14.3172C91.2161 15.5103 90.3684 15.3399 90.3684 17.2148C90.3684 18.5783 91.0465 20.2828 92.0638 21.6463C93.0811 23.1803 95.1157 24.5438 96.6416 24.7143L97.3198 24.8847L92.4029 59.3143L87.4861 93.7438L85.9602 93.5734Z" fill="#297A60"/>
<path d="M89.69 56.4168C89.5205 54.0306 88.6727 51.3035 87.3164 49.4286C85.96 47.5537 84.6036 46.3606 82.5691 45.1675C81.0431 44.3153 80.704 44.3153 78.3304 43.9744C75.9567 43.6335 75.4481 43.6335 74.0917 43.9744C70.8703 44.3153 68.1576 46.0197 66.123 48.4059C62.393 52.8375 62.2235 59.6552 65.4449 64.2572C69.1749 69.7114 76.1263 71.7567 82.0604 68.8591C86.8077 66.6434 89.8596 61.5301 89.69 56.4168Z" fill="#297A60"/>
<path d="M89.69 58.6327C89.0119 63.0642 86.1296 66.9844 82.23 68.8593C76.2959 71.7568 69.3445 69.7115 65.6145 64.2573C63.7494 61.5302 63.0713 58.1213 63.5799 54.8829C63.919 52.4967 64.9363 50.2809 66.4622 48.4061C68.3272 46.0199 71.0399 44.4859 74.2613 43.8041C75.7872 43.4632 76.1263 43.4632 78.5 43.8041C80.8736 44.145 81.2127 44.3154 82.7386 44.9972C84.7732 46.1903 86.2991 47.3834 87.4859 49.2583C88.8423 51.3036 89.69 53.8603 89.8596 56.2465C89.8596 57.0987 89.69 57.9509 89.69 58.6327ZM97.3196 24.7144L96.6414 24.544C95.2851 24.3736 93.2505 23.01 92.0637 21.476C91.0464 20.1125 90.3682 18.408 90.3682 17.0445C90.3682 15.1696 91.216 15.5105 82.5691 14.147L74.77 12.9539L74.6004 13.6356C74.4309 13.8061 74.2613 14.4878 74.2613 14.9992C73.5831 16.8741 71.379 19.0898 69.3445 19.7716C68.8358 19.942 67.8186 20.1125 67.1404 20.1125H65.784L55.7808 88.8011L56.798 89.142C58.1544 89.4829 59.6803 90.5056 60.6976 91.6987C61.7149 92.8918 62.5626 95.1075 62.5626 96.4711C62.5626 96.9824 62.5626 97.6642 62.7322 97.8346C62.9017 98.1755 77.8218 100.221 78.3304 100.05C78.5 100.05 78.6695 99.3686 78.8391 98.8573C79.0086 98.1755 79.5173 97.3233 80.0259 96.6415C81.5518 94.5962 83.5864 93.5736 86.1296 93.5736H87.3164L97.3196 24.7144Z" fill="#2BAE86"/>
<path d="M49.8467 5.79498C49.5076 4.77232 49.1685 4.26099 49.1685 4.26099C48.9989 4.26099 37.9784 8.69251 24.4147 14.1467L0 24.0324L19.6674 73.8019L39.3348 123.571L64.0886 113.686L88.8423 103.8L69.0054 54.0304C59.8499 30.8502 52.0508 11.2492 49.8467 5.79498ZM46.4557 25.5664L59.1717 57.9506L71.8877 90.1644L46.4557 25.5664ZM32.0443 69.0295C32.0443 68.859 32.0443 68.859 32.0443 69.0295V69.0295ZM16.7851 37.6679L42.3866 102.266L29.5011 69.8817L16.7851 37.6679Z" fill="#297A60"/>
<path d="M50.3552 3.06812C50.1857 3.06812 39.1652 7.49964 25.6015 12.9538L1.18677 22.8395L20.8542 72.609L40.5215 122.378L65.2753 112.493L89.8596 102.437L70.1922 52.8376C59.3412 25.3962 50.5248 3.06812 50.3552 3.06812ZM72.0572 89.6533C69.8531 91.0169 68.6663 92.8918 68.3272 95.4484C68.1576 96.3006 68.1576 97.3233 68.3272 98.0051C68.4967 98.6868 68.4967 99.1982 68.4967 99.3686C68.1576 99.7095 54.2548 105.334 53.9157 105.164C53.7462 104.993 53.4071 104.652 53.068 104.141C52.3898 102.948 50.5248 101.414 48.9989 100.903C47.4729 100.391 45.7775 100.391 44.4211 100.732L43.2343 101.073L30.5183 68.8593L17.8023 36.6455L18.9891 35.7932C19.6673 35.4524 20.5151 34.7706 20.6846 34.4297C22.2105 32.7253 23.0583 29.8277 22.5496 27.7824C22.3801 27.2711 22.3801 26.7597 22.2105 26.4189L22.041 25.9075L29.3315 23.01C37.4697 19.7716 36.622 19.942 37.6393 21.476C38.3174 22.6691 39.6738 23.6918 41.1997 24.3735C42.8952 25.0553 45.2688 25.2258 46.6252 24.7144L47.1339 24.544L59.8498 56.7578L72.5658 88.9716L72.0572 89.6533Z" fill="#297A60"/>
<path d="M56.798 55.5645C55.4417 53.5191 53.4071 51.6443 51.203 50.6216C49.1685 49.5989 47.3034 49.2581 44.9298 49.2581C43.2343 49.2581 42.8952 49.4285 40.6911 50.2807C38.487 51.1329 38.1479 51.4738 36.9611 52.4965C34.4179 54.7122 32.892 57.4393 32.5529 60.5073C31.5356 66.3024 34.757 72.2679 39.8434 74.6541C45.9471 77.5517 52.8985 75.6768 56.6285 70.393C59.3412 65.9615 59.5108 59.996 56.798 55.5645Z" fill="#297A60"/>
<path d="M57.8152 57.61C59.5107 61.7006 59.002 66.6435 56.4588 70.2228C52.7288 75.677 45.7774 77.3814 39.6738 74.4839C36.6219 73.1204 34.4178 70.3933 33.231 67.3253C32.3833 65.1095 32.0442 62.7233 32.3833 60.3371C32.8919 57.2691 34.4178 54.542 36.7915 52.3263C37.9783 51.3036 38.3174 51.1332 40.5215 50.1105C42.7256 49.2583 43.2342 49.0878 44.7601 49.0878C47.1338 49.0878 48.9988 49.4287 51.0334 50.4514C53.2375 51.4741 55.272 53.3489 56.6284 55.3942C57.137 56.2465 57.4761 56.9282 57.8152 57.61ZM47.4729 24.3736L46.9643 24.544C45.6079 25.0553 43.2342 24.8849 41.5388 24.2031C40.0128 23.5213 38.6565 22.4987 37.9783 21.3056C36.961 19.6011 37.9783 19.4307 29.6705 22.8396L22.38 25.7371L22.5496 26.2484C22.5496 26.5893 22.7191 27.1006 22.8887 27.612C23.3973 29.6573 22.5496 32.5548 21.0236 34.2593C20.6846 34.6002 19.8368 35.2819 19.3282 35.6228L18.1414 36.475L43.7429 101.073L44.9297 100.732C46.2861 100.391 47.9815 100.562 49.5074 100.903C50.8638 101.414 52.8984 102.948 53.5766 104.141C53.9157 104.652 54.2547 105.164 54.4243 105.164C54.7634 105.334 68.6662 99.7095 69.0053 99.3686C69.0053 99.1982 69.0053 98.6869 68.8357 98.0051C68.6662 97.3233 68.6662 96.3007 68.8357 95.4484C69.1748 92.8918 70.5312 91.0169 72.5658 89.6534L73.583 88.9716L47.4729 24.3736Z" fill="#2BAE86"/>
<path d="M129.364 2.55664L45.0994 50.4512L72.905 99.5389L157 51.6443L129.364 2.55664Z" fill="#62AADD"/>
<path d="M58.4934 59.1438L61.0366 64.2571L70.1921 59.6551L67.6489 54.3713L58.4934 59.1438Z" fill="#FED900"/>
<path d="M64.7667 66.473L63.5798 68.007L63.7494 68.1774L63.9189 68.3479L64.5971 67.4957L65.9535 70.0523L65.1058 70.5636C65.1058 70.7341 65.1058 70.7341 65.2753 70.9045C65.2753 71.075 65.4448 71.075 65.4448 71.075L67.8185 69.8819C67.8185 69.7114 67.8185 69.7114 67.649 69.541L67.4794 69.3705L66.4621 69.8819L64.7667 66.473ZM67.649 64.939C67.4794 65.1094 67.3099 65.1094 67.1403 65.2799C66.9708 65.4503 66.8012 65.6208 66.8012 65.6208L66.9708 65.7912L67.1403 65.9617C67.3099 65.7912 67.3099 65.7912 67.4794 65.6208C67.6489 65.4503 67.6489 65.4503 67.988 65.2799C68.1576 65.1094 68.4967 65.1094 68.6662 65.1094C68.8358 65.1094 69.0053 65.2799 69.1749 65.4503C69.1749 65.6208 69.3444 65.6208 69.3444 65.7912C69.3444 65.9617 69.3444 65.9617 69.3444 66.1321C69.3444 66.3025 69.3444 66.473 69.3444 66.6434C69.3444 66.8139 69.3444 66.9843 69.1749 67.1548L68.6662 69.2001L71.2094 68.1774V68.007V67.8365V67.6661C71.2094 67.6661 71.2094 67.6661 71.2094 67.4957L69.6835 68.3479L69.8531 67.3252C70.0226 66.8139 70.0226 66.473 70.0226 66.1321C70.0226 65.7912 70.0226 65.4503 69.8531 65.2799C69.6835 65.1094 69.6835 64.939 69.514 64.7686C69.0053 64.7686 68.8358 64.7686 68.6662 64.7686C68.4967 64.7686 68.3271 64.7686 68.1576 64.7686C67.988 64.7686 67.8185 64.939 67.649 64.939ZM75.109 61.0188V65.2799L77.1436 64.2572L77.4826 65.1094H77.6522H77.8217H77.9913H78.1608L77.8217 64.2572L78.3304 63.9163V63.7459V63.5755V63.405C78.3304 63.405 78.3304 63.405 78.3304 63.2346L77.8217 63.5755L77.3131 62.3823H77.1436H76.974C76.974 62.3823 76.974 62.3823 76.8045 62.3823C76.8045 62.3823 76.6349 62.3823 76.6349 62.5528L77.1436 63.7459L75.9567 64.4277V61.0188C75.7872 61.0188 75.7872 61.0188 75.6176 61.0188C75.2785 61.0188 75.2785 61.0188 75.109 61.0188ZM70.1921 63.7459C70.1921 63.9163 70.3617 63.9163 70.3617 64.0868C70.3617 64.2572 70.5312 64.2572 70.5312 64.2572L72.0572 63.405L71.8876 65.4503H72.0572L72.2267 65.2799C72.2267 65.2799 72.3963 65.2799 72.3963 65.1094C72.7353 64.939 72.9049 64.939 73.0744 64.939C73.244 64.939 73.4135 65.1094 73.5831 65.2799C73.5831 65.4503 73.7526 65.6208 73.7526 65.7912C73.7526 65.9617 73.7526 66.1321 73.5831 66.1321C73.5831 66.3025 73.4135 66.3025 73.244 66.473C73.0744 66.6434 73.0744 66.6434 72.9049 66.8139C72.7353 66.9843 72.5658 66.9843 72.3963 66.9843C72.2267 66.9843 72.0572 66.9843 71.8876 66.9843C71.8876 67.1548 71.8876 67.1548 71.8876 67.3252C71.8876 67.4957 71.8876 67.4957 71.8876 67.6661C72.0572 67.6661 72.2267 67.6661 72.3963 67.4957C72.5658 67.4957 72.7353 67.3252 72.9049 67.3252C73.0744 67.1548 73.244 67.1548 73.4135 66.9843C73.5831 66.8139 73.7526 66.6434 73.7526 66.473C73.9222 66.3025 73.9222 66.1321 73.9222 65.7912C73.9222 65.6208 73.9222 65.2799 73.7526 65.1094C73.7526 64.939 73.5831 64.939 73.4135 64.7686C73.244 64.5981 73.244 64.5981 73.0744 64.5981C72.9049 64.5981 72.7353 64.4277 72.5658 64.5981C72.3962 64.5981 72.2267 64.5981 72.0572 64.7686L72.2267 62.5528L70.1921 63.7459Z" fill="white"/>
<path d="M94.607 49.7695C94.7766 49.599 95.1157 49.599 95.2852 49.599C95.4548 49.599 95.6243 49.7695 95.6243 49.9399C95.6243 50.1103 95.6243 50.1103 95.6243 50.2808C95.6243 50.4512 95.6243 50.4512 95.6243 50.6217C95.6243 50.7921 95.4548 50.7921 95.4548 50.9626L95.2852 51.133C95.1157 51.133 95.1157 51.133 94.9461 51.133C94.7766 51.133 94.7766 51.133 94.607 51.133C94.4375 51.133 94.4375 51.133 94.2679 50.9626L94.0984 50.7921C93.9288 50.6217 93.9288 50.4512 94.0984 50.2808C94.2679 50.1103 94.4375 49.9399 94.607 49.7695ZM88.3338 55.2236C88.5034 55.2236 88.5034 55.0532 88.6729 55.0532C88.8424 55.0532 88.8424 55.0532 89.012 55.0532C89.1815 55.0532 89.1815 55.2236 89.3511 55.2236C89.5206 55.3941 89.5206 55.3941 89.6902 55.5645C89.6902 55.735 89.8597 55.9054 89.8597 56.0759C89.8597 56.2463 89.8597 56.4167 89.8597 56.4167C89.8597 56.5872 89.6902 56.5872 89.6902 56.7576C89.6902 56.9281 89.5206 56.9281 89.3511 56.9281C89.1815 57.0985 88.8424 57.0985 88.6729 57.0985C88.5034 57.0985 88.3338 56.7576 88.1643 56.5872C88.1643 56.4167 87.9947 56.2463 87.9947 56.2463C87.9947 56.0759 87.9947 55.9054 87.9947 55.9054C87.9947 55.735 88.1643 55.735 88.1643 55.5645C88.1643 55.3941 88.1643 55.2236 88.3338 55.2236ZM95.6243 51.6443C95.7939 51.6443 95.9634 51.6443 95.9634 51.6443C96.1329 51.6443 96.1329 51.6443 96.3025 51.6443C96.472 51.6443 96.472 51.6443 96.6416 51.8148C96.8111 51.8148 96.8111 51.9852 96.8111 52.1557C96.9807 52.3261 96.9807 52.667 96.8111 52.8374C96.8111 53.0079 96.6416 53.1783 96.3025 53.3488C95.9634 53.5192 95.7939 53.5192 95.6243 53.5192C95.4548 53.5192 95.2852 53.3488 95.1157 53.1783C95.1157 53.0079 94.9461 53.0079 94.9461 52.8374C94.9461 52.667 94.9461 52.667 94.9461 52.4965C94.9461 52.3261 95.1157 52.3261 95.1157 52.1557C95.4548 51.8148 95.4548 51.8148 95.6243 51.6443ZM87.9947 52.667C87.6556 52.8374 87.3165 53.1783 87.147 53.5192C86.9774 53.8601 86.8079 54.201 86.8079 54.5419C86.8079 54.8828 86.8079 55.2236 86.8079 55.5645C86.8079 55.9054 86.9774 56.2463 87.147 56.5872C87.3165 56.9281 87.4861 57.0985 87.6556 57.269C87.8252 57.4394 87.9947 57.6098 88.1643 57.6098C88.3338 57.6098 88.5034 57.7803 88.8424 57.6098C89.012 57.6098 89.3511 57.4394 89.5206 57.4394C89.6902 57.269 89.8597 57.269 90.0293 57.0985C90.1988 56.9281 90.1988 56.7576 90.3684 56.5872C90.3684 56.4167 90.5379 56.2463 90.5379 55.9054C90.5379 55.735 90.5379 55.3941 90.3684 55.2236C90.1988 55.0532 90.0293 54.7123 89.8597 54.7123C89.6902 54.5419 89.5206 54.5419 89.3511 54.3714C89.1815 54.3714 89.012 54.3714 88.8424 54.3714C88.6729 54.3714 88.5034 54.3714 88.3338 54.5419C88.1643 54.7123 87.8252 54.8828 87.8252 55.0532C87.6556 55.2236 87.6556 55.3941 87.6556 55.5645C87.6556 55.3941 87.4861 55.0532 87.4861 54.8828C87.4861 54.7123 87.4861 54.3714 87.4861 54.201C87.4861 54.0305 87.6556 53.6897 87.8252 53.5192C87.9947 53.3488 88.1643 53.1783 88.3338 53.0079C88.3338 53.0079 88.3338 53.0079 88.3338 52.8374C88.3338 52.8374 88.3338 52.8374 88.3338 52.667C88.1643 52.8374 87.9947 52.667 87.9947 52.667ZM94.4375 49.2581C94.2679 49.4286 94.0984 49.4286 93.9288 49.599C93.7593 49.7695 93.7593 49.9399 93.5898 50.1103C93.5898 50.2808 93.4202 50.4512 93.4202 50.6217C93.4202 50.7921 93.4202 50.9626 93.5898 51.133C93.7593 51.3034 93.9288 51.4739 94.0984 51.6443C94.2679 51.8148 94.607 51.8148 94.7766 51.8148C94.7766 51.9852 94.607 51.9852 94.607 52.1557C94.607 52.3261 94.4375 52.3261 94.4375 52.4965C94.4375 52.667 94.4375 52.8374 94.4375 53.0079C94.4375 53.1783 94.4375 53.3488 94.607 53.5192C94.7766 53.6897 94.7766 53.8601 94.9461 54.0305C95.1157 54.201 95.2852 54.201 95.4548 54.201C95.6243 54.201 95.7939 54.201 95.9634 54.201C96.1329 54.201 96.3025 54.0305 96.472 54.0305C96.6416 53.8601 96.8111 53.8601 96.9807 53.6897C97.1502 53.5192 97.3198 53.3488 97.3198 53.1783C97.4893 53.0079 97.4893 52.8374 97.4893 52.667C97.4893 52.4965 97.4893 52.3261 97.3198 51.9852C97.1502 51.8148 97.1502 51.6443 96.9807 51.6443C96.8111 51.4739 96.8111 51.4739 96.6416 51.4739C96.6416 51.133 96.6416 51.133 96.472 51.133C96.3025 51.133 96.1329 51.133 96.1329 51.133C96.3025 50.9626 96.3025 50.7921 96.472 50.4512C96.472 50.2808 96.472 49.9399 96.3025 49.7695C96.3025 49.599 96.1329 49.4286 95.9634 49.4286C95.7939 49.2581 95.6243 49.2581 95.4548 49.2581C95.2852 49.2581 95.1157 49.2581 94.9461 49.2581C94.7766 49.0877 94.607 49.2581 94.4375 49.2581ZM82.7388 55.9054C82.9083 56.2463 83.0779 56.5872 83.2474 56.9281C83.417 57.269 83.5865 57.6099 83.7561 57.9507H83.9256C83.9256 57.9507 84.0951 57.7803 84.2647 57.7803C84.4342 57.7803 84.4342 57.6098 84.6038 57.6098C84.7733 57.4394 84.9429 57.4394 85.1124 57.4394C85.282 57.4394 85.4515 57.4394 85.4515 57.4394C85.6211 57.4394 85.6211 57.6098 85.7906 57.6098C85.9602 57.6098 85.9602 57.7803 85.9602 57.9507C86.1297 58.2916 86.1297 58.4621 85.9602 58.803C85.7906 58.9734 85.6211 59.3143 85.282 59.4847C85.1124 59.6552 84.9429 59.6552 84.7733 59.6552C84.6038 59.6552 84.4342 59.6552 84.4342 59.8256C84.4342 59.9961 84.4342 59.9961 84.4342 60.1665C84.4342 60.3369 84.4342 60.3369 84.4342 60.5074C84.6038 60.5074 84.7733 60.5074 84.9429 60.3369C85.1124 60.3369 85.282 60.1665 85.4515 60.1665C85.6211 59.9961 85.9602 59.8256 86.1297 59.6552C86.2992 59.4847 86.4688 59.3143 86.4688 59.1438C86.6383 58.9734 86.6383 58.803 86.6383 58.4621C86.6383 58.2916 86.6383 57.9507 86.4688 57.7803C86.2992 57.6099 86.2992 57.4394 86.1297 57.269C85.9602 57.0985 85.7906 57.0985 85.6211 56.9281C85.4515 56.9281 85.282 56.9281 85.1124 56.9281C84.9429 56.9281 84.7733 57.0985 84.4342 57.0985C84.4342 57.0985 84.2647 57.0985 84.2647 57.269L84.0951 57.4394L83.5865 56.2463L85.1124 55.3941V55.2236V55.0532V54.8828C85.1124 54.8828 85.1124 54.8828 85.1124 54.7123L82.7388 55.9054ZM89.5206 52.3261C89.6902 52.4966 89.6902 52.4966 89.5206 52.3261C89.5206 52.4966 89.6902 52.4965 89.6902 52.667V52.8374C89.6902 52.8374 89.6902 52.8374 89.6902 53.0079L91.7247 51.9852L92.0638 56.4167C92.2334 56.4167 92.2334 56.4167 92.4029 56.4167C92.5725 56.4167 92.5725 56.4167 92.742 56.4167L92.4029 51.133L89.5206 52.3261Z" fill="white"/>
<path d="M131.738 29.998C131.907 29.998 131.907 29.998 132.077 29.8275C132.246 29.8275 132.246 29.8275 132.416 29.8275C132.585 29.8275 132.585 29.998 132.755 29.998C132.924 30.1684 132.924 30.1684 133.094 30.3389C133.263 30.5093 133.263 30.6797 133.263 30.8502C133.263 31.0206 133.263 31.1911 133.263 31.1911C133.263 31.3615 133.094 31.3615 133.094 31.532C133.094 31.7024 132.924 31.7024 132.755 31.8728C132.755 31.8728 132.755 31.8728 132.585 31.8728C132.416 32.0433 132.077 32.0433 131.907 31.8728C131.738 31.8728 131.398 31.7024 131.229 31.3615C131.059 31.1911 131.059 31.0206 131.059 30.8502C131.059 30.6797 131.059 30.5093 131.059 30.5093C131.059 30.3389 131.229 30.3389 131.229 30.1684C131.398 30.1684 131.568 30.1684 131.738 29.998ZM128.177 32.2137C128.347 32.2137 128.347 32.2137 128.516 32.0433C128.686 32.0433 128.686 32.0433 128.855 32.0433C129.025 32.0433 129.025 32.2137 129.194 32.2137C129.364 32.3842 129.364 32.3842 129.533 32.5546C129.703 32.7251 129.703 32.8955 129.703 33.0659C129.703 33.2364 129.703 33.4068 129.703 33.4068C129.703 33.5773 129.533 33.5773 129.533 33.7477C129.533 33.9182 129.364 33.9182 129.194 34.0886C129.194 34.0886 129.194 34.0886 129.025 34.0886C128.855 34.2591 128.516 34.2591 128.347 34.0886C128.177 34.0886 127.838 33.7477 127.668 33.5773C127.499 33.4068 127.499 33.2364 127.499 33.0659C127.499 32.8955 127.499 32.7251 127.499 32.7251C127.499 32.5546 127.668 32.5546 127.668 32.3842C127.838 32.3842 127.838 32.2137 128.177 32.2137C128.008 32.2137 128.008 32.2137 128.177 32.2137ZM131.229 27.4413C130.89 27.7822 130.551 27.9526 130.381 28.2935C130.212 28.6344 130.042 28.9753 130.042 29.3162C130.042 29.6571 130.042 29.998 130.042 30.5093C130.212 30.8502 130.212 31.1911 130.551 31.532C130.72 31.8728 130.89 32.0433 131.059 32.2137C131.229 32.3842 131.398 32.5546 131.738 32.5546C131.907 32.5546 132.246 32.7251 132.416 32.5546C132.585 32.5546 132.755 32.5546 132.924 32.3842C132.924 32.3842 133.094 32.3842 133.094 32.2137C133.263 32.0433 133.433 32.0433 133.603 31.8728C133.772 31.7024 133.772 31.532 133.942 31.3615C133.942 31.1911 134.111 31.0206 133.942 30.6797C133.942 30.5093 133.772 30.1684 133.772 29.998C133.603 29.8275 133.433 29.4866 133.263 29.4866C133.094 29.3162 132.924 29.3162 132.755 29.1458C132.585 29.1458 132.416 29.1458 132.246 29.1458C132.077 29.1458 131.907 29.1458 131.907 29.3162H131.738C131.398 29.4866 131.229 29.6571 131.229 29.8275C131.059 29.998 131.059 30.1684 131.059 30.5093C130.89 30.3389 130.89 29.998 130.89 29.8275C130.89 29.6571 130.89 29.3162 130.89 29.1458C130.89 28.9753 131.059 28.6344 131.229 28.464C131.398 28.2935 131.568 28.1231 131.738 27.9526C131.738 27.9526 131.738 27.9526 131.738 27.7822V27.6118C131.398 27.6118 131.398 27.4413 131.229 27.4413ZM135.807 25.396L132.924 27.1004V27.2709V27.4413C132.924 27.4413 132.924 27.6118 133.094 27.6118C133.094 27.6118 133.094 27.6118 133.263 27.7822L135.298 26.5891L135.807 31.1911C135.976 31.1911 135.976 31.1911 136.146 31.1911C136.315 31.1911 136.315 31.1911 136.485 31.1911L135.807 25.396ZM127.499 29.4866C127.16 29.8275 126.821 29.998 126.651 30.3389C126.482 30.6797 126.312 31.0206 126.312 31.3615C126.312 31.7024 126.312 32.0433 126.312 32.5546C126.482 32.8955 126.482 33.2364 126.821 33.5773C126.99 33.9182 127.16 34.0886 127.329 34.2591C127.499 34.4295 127.668 34.5999 128.008 34.5999C128.177 34.5999 128.516 34.7704 128.686 34.5999C128.855 34.5999 129.025 34.5999 129.194 34.4295C129.194 34.4295 129.364 34.4295 129.364 34.2591C129.533 34.0886 129.703 34.0886 129.873 33.9182C130.042 33.7477 130.042 33.5773 130.212 33.4068C130.212 33.2364 130.381 33.0659 130.212 32.7251C130.212 32.5546 130.042 32.2137 130.042 32.0433C129.873 31.8728 129.703 31.532 129.533 31.532C129.364 31.3615 129.194 31.3615 129.025 31.1911C128.855 31.1911 128.686 31.1911 128.516 31.1911C128.347 31.1911 128.177 31.1911 128.177 31.3615C128.177 31.3615 128.177 31.3615 128.008 31.3615C127.668 31.532 127.499 31.7024 127.499 31.8728C127.16 32.3842 127.16 32.5546 127.16 32.7251C126.99 32.5546 126.99 32.2137 126.99 32.0433C126.99 31.8728 126.99 31.532 126.99 31.3615C126.99 31.1911 127.16 30.8502 127.329 30.6797C127.499 30.5093 127.668 30.3389 127.838 30.1684C127.838 30.1684 127.838 30.1684 127.838 29.998V29.8275C127.668 29.6571 127.668 29.6571 127.499 29.4866ZM116.309 39.0315C116.478 39.0315 116.478 39.0315 116.648 38.861C116.817 38.861 116.817 38.861 116.987 38.861C117.157 38.861 117.157 39.0315 117.326 39.0315C117.496 39.2019 117.496 39.2019 117.665 39.3724C117.835 39.5428 117.835 39.7132 117.835 39.8837C117.835 40.0541 117.835 40.2246 117.835 40.2246C117.835 40.395 117.665 40.395 117.665 40.5655C117.665 40.7359 117.496 40.7359 117.326 40.9063C117.326 40.9063 117.326 40.9063 117.157 40.9063C116.987 41.0768 116.648 41.0768 116.478 40.9063C116.309 40.9063 115.97 40.5655 115.8 40.395C115.631 40.2246 115.631 40.0541 115.631 39.8837C115.631 39.7132 115.631 39.5428 115.631 39.5428C115.631 39.3724 115.8 39.3724 115.8 39.2019C115.97 39.2019 116.139 39.2019 116.309 39.0315ZM123.43 32.5546L123.769 37.1566H123.938L125.973 35.9635L126.482 36.8157H126.651C126.651 36.8157 126.821 36.8157 126.821 36.6453C126.821 36.6453 126.99 36.6453 126.99 36.4748C126.99 36.4748 127.16 36.4748 127.16 36.3044L126.651 35.4522L127.16 35.1113V34.9408V34.7704V34.5999C127.16 34.5999 127.16 34.5999 126.99 34.4295L126.482 34.7704L125.464 33.9182H125.295C125.295 33.9182 125.125 33.9182 125.125 34.0886C125.125 34.0886 124.956 34.0886 124.956 34.2591C124.956 34.2591 124.786 34.2591 124.786 34.4295L125.464 35.6226L124.278 36.3044L123.938 32.3842C123.769 32.3842 123.769 32.3842 123.599 32.3842C123.599 32.5546 123.43 32.5546 123.43 32.5546ZM115.8 36.4748C115.461 36.8157 115.122 36.9861 114.952 37.327C114.783 37.6679 114.613 38.0088 114.613 38.3497C114.613 38.6906 114.613 39.0315 114.613 39.5428C114.783 39.8837 114.783 40.2246 115.122 40.5655C115.292 40.9063 115.461 41.0768 115.631 41.2472C115.8 41.4177 115.97 41.5881 116.309 41.5881C116.478 41.5881 116.817 41.5881 116.987 41.5881C117.157 41.5881 117.326 41.4177 117.496 41.4177C117.496 41.4177 117.665 41.4177 117.665 41.2472C117.835 41.0768 118.004 41.0768 118.174 40.9063C118.343 40.7359 118.343 40.5655 118.513 40.395C118.513 40.2246 118.682 40.0541 118.513 39.7132C118.513 39.5428 118.343 39.2019 118.343 39.0315C118.174 38.861 118.004 38.5201 117.835 38.5201C117.665 38.3497 117.496 38.3497 117.326 38.1792C117.157 38.1792 116.987 38.1792 116.817 38.1792C116.648 38.1792 116.478 38.1792 116.478 38.3497H116.309C115.97 38.5201 115.8 38.6906 115.8 38.861C115.631 39.0315 115.631 39.2019 115.631 39.5428C115.292 39.3724 115.292 39.2019 115.292 38.861C115.292 38.6906 115.292 38.3497 115.292 38.1792C115.292 38.0088 115.461 37.6679 115.631 37.4975C115.8 37.327 115.97 37.1566 116.139 36.9861C116.139 36.9861 116.139 36.9861 116.139 36.8157C116.139 36.8157 116.139 36.8157 116.139 36.6453C115.97 36.6453 115.97 36.4748 115.8 36.4748ZM112.579 39.0315L110.544 40.2246C110.714 40.5655 110.883 40.9063 111.053 41.4177C111.222 41.7586 111.392 42.0994 111.562 42.4403H111.731C111.731 42.2699 111.901 42.2699 112.07 42.0994C112.24 41.929 112.24 41.929 112.409 41.929H112.579C112.748 41.929 112.748 41.7586 112.918 41.7586C113.087 41.7586 113.257 41.7586 113.257 41.7586C113.427 41.7586 113.427 41.7586 113.596 41.929C113.766 41.929 113.766 42.0994 113.766 42.2699C113.935 42.6108 113.935 42.9517 113.935 43.1221C113.766 43.463 113.596 43.6334 113.257 43.8039C113.257 43.8039 113.087 43.8039 113.087 43.9743C112.918 43.9743 112.918 43.9743 112.918 44.1448C112.748 44.1448 112.579 44.1448 112.409 44.3152C112.409 44.4857 112.409 44.4857 112.409 44.6561C112.409 44.8265 112.409 44.8265 112.579 44.997C112.748 44.997 112.918 44.997 113.087 44.8265C113.257 44.8265 113.257 44.8265 113.427 44.6561C113.596 44.6561 113.596 44.6561 113.596 44.4857C113.766 44.3152 114.105 44.1448 114.274 43.9743C114.444 43.8039 114.613 43.6334 114.613 43.2925C114.783 43.1221 114.783 42.7812 114.783 42.6108C114.783 42.4403 114.613 42.0994 114.613 41.929C114.444 41.7586 114.274 41.5881 114.274 41.4177C114.105 41.2472 113.935 41.2472 113.766 41.2472C113.596 41.2472 113.427 41.2472 113.257 41.2472C113.087 41.2472 112.918 41.2472 112.748 41.4177C112.748 41.4177 112.579 41.4177 112.579 41.5881C112.579 41.5881 112.409 41.5881 112.409 41.7586L112.24 41.929L111.562 40.7359L113.087 39.8837V39.7132V39.5428C112.748 39.2019 112.748 39.2019 112.579 39.0315ZM107.832 41.5881L108.001 46.1901H108.171L110.205 44.997L110.714 45.8492H110.883H111.053C111.053 45.8492 111.222 45.8492 111.222 45.6788C111.222 45.6788 111.392 45.6788 111.392 45.5083L110.883 44.6561L111.392 44.3152V44.1448V43.9743C111.392 43.9743 111.392 43.8039 111.222 43.8039C111.222 43.8039 111.222 43.8039 111.053 43.6334L110.544 43.9743L109.866 42.7812H109.697H109.527C109.527 42.7812 109.357 42.7812 109.357 42.9517C109.357 42.9517 109.188 42.9517 109.188 43.1221L109.866 44.3152L108.679 44.997L108.51 41.4177C108.34 41.4177 108.34 41.4177 108.171 41.4177C108.171 41.5881 108.001 41.5881 107.832 41.5881ZM105.288 43.2925L102.745 44.8265V44.997V45.1674C102.745 45.3379 102.915 45.3379 102.915 45.3379L104.441 44.4857L104.271 46.7014H104.441L104.61 46.531L104.78 46.3605H104.949C105.119 46.1901 105.458 46.1901 105.627 46.1901C105.797 46.1901 106.136 46.3605 106.136 46.531C106.306 46.7014 106.306 46.8719 106.306 47.0423C106.306 47.2127 106.306 47.3832 106.306 47.3832C106.306 47.5536 106.136 47.7241 105.967 47.7241C105.797 47.8945 105.797 47.8945 105.627 48.065L105.458 48.2354C105.288 48.2354 105.288 48.4058 105.119 48.4058C104.949 48.4058 104.78 48.5763 104.61 48.5763C104.61 48.7467 104.61 48.7467 104.61 48.9172C104.61 49.0876 104.61 49.0876 104.78 49.2581C104.949 49.2581 105.288 49.0876 105.458 49.0876C105.627 49.0876 105.627 49.0876 105.797 48.9172C105.967 48.9172 105.966 48.7467 106.136 48.7467C106.306 48.5763 106.645 48.4058 106.814 48.2354C106.984 48.065 107.153 47.8945 107.153 47.5536C107.153 47.3832 107.323 47.0423 107.323 46.8719C107.323 46.7014 107.153 46.3605 106.984 46.1901C106.984 46.0196 106.814 46.0196 106.645 45.8492C106.475 45.6788 106.306 45.6788 106.306 45.6788C106.136 45.6788 105.967 45.6788 105.797 45.6788C105.627 45.6788 105.458 45.6788 105.458 45.8492H105.288V43.2925Z" fill="white"/>
<path d="M1.35645 74.4838L4.74737 169.591H5.08647L134.959 164.989L131.568 72.7794V69.8818L1.69554 74.4838" fill="#F5AA57"/>
<path d="M1.52588 78.0629L4.91681 173H5.08635L135.128 168.398L131.568 73.2905L1.52588 78.0629Z" fill="#F5AA57"/>
<g opacity="0.1608">
<g opacity="0.1608">
<g opacity="0.1608">
<path opacity="0.1608" d="M15.2593 88.46L17.972 161.58H18.1416L121.226 157.83L118.683 84.7102L15.2593 88.46Z" fill="#C87A29"/>
</g>
</g>
</g>
<g opacity="0.1176">
<g opacity="0.1176">
<g opacity="0.1176">
<path opacity="0.1176" d="M1.35645 74.4839L4.74737 169.591L4.91692 173L12.7161 172.83L9.15558 74.3135L1.35645 74.4839Z" fill="#472C16"/>
</g>
</g>
</g>
<path d="M107.492 108.061L108.34 130.389L133.433 129.537L132.585 107.209L107.492 108.061Z" fill="#C87A29"/>
<path d="M115.97 111.3C114.105 111.47 112.579 112.152 111.222 113.686C110.036 115.049 109.357 116.754 109.527 118.629C109.697 120.503 110.375 122.037 111.901 123.401C113.257 124.594 114.952 125.276 116.817 125.105C118.683 124.935 120.208 124.253 121.565 122.89C122.752 121.526 123.43 119.822 123.26 117.947C123.091 116.072 122.413 114.538 120.887 113.174C119.53 111.811 117.835 111.3 115.97 111.3Z" fill="#AEA196"/>
<g opacity="0.0666656">
<g opacity="0.0666656">
<g opacity="0.0666656">
<path opacity="0.0666656" d="M108.171 118.969L108.51 130.56L114.444 130.389L134.45 129.537L133.942 117.947L108.171 118.969Z" fill="#472C16"/>
</g>
</g>
</g>
</svg>
