<svg width="187" height="135" viewBox="0 0 187 135" fill="none" xmlns="http://www.w3.org/2000/svg">
<g clip-path="url(#clip0)">
<path d="M82.8968 39.2216C83.7731 40.0971 83.9484 41.4978 83.2473 42.1982L76.5876 48.8519C75.8865 49.5523 74.6597 49.3772 73.6082 48.5017L71.8556 46.7508C70.9793 45.8753 70.804 44.4745 71.5051 43.7741L78.1649 37.1204C78.8659 36.42 80.0927 36.5951 81.1443 37.4706L82.8968 39.2216Z" fill="#E7BA82"/>
<path d="M31.0208 85.097L35.0517 77.918C35.0517 77.918 34.0002 69.6885 34.8764 64.0854C35.928 58.3071 35.4022 50.9531 34.7012 48.1515C34.0002 45.3499 35.227 41.4978 37.3301 41.4978C39.4331 41.4978 42.763 47.1009 42.763 47.1009L70.2785 66.3616L73.2579 74.9414C73.2579 74.9414 69.227 83.6963 62.0414 88.2488C56.9589 91.4005 52.5775 91.9258 50.4744 94.5523C48.3713 97.1787 43.8146 108.035 43.8146 108.035L25.062 96.1282L31.0208 85.097Z" fill="#E7BA82"/>
<path d="M41.0103 43.774C41.0103 43.774 39.6083 42.5483 38.9072 42.5483L39.0825 75.6417C39.0825 75.6417 39.2577 78.4433 41.7113 78.4433C44.165 78.4433 70.9794 79.1437 70.9794 79.1437L72.9072 76.5172L41.0103 43.774Z" fill="#DBAC6A"/>
<path d="M31.1959 82.6458C31.1959 82.6458 49.9485 91.5757 51.1753 97.0037C52.4021 102.432 33.1237 135.175 33.1237 135.175L0 129.572L31.1959 82.6458Z" fill="#0C72B9"/>
<path d="M78.3401 15.0581C78.3401 15.2332 78.1648 15.2332 78.1648 15.2332H77.2885C77.1133 15.2332 77.1133 15.2332 77.1133 15.0581V11.5562C77.1133 11.3811 77.2885 11.3811 77.2885 11.3811H78.1648C78.3401 11.3811 78.3401 11.5562 78.3401 11.5562V15.0581Z" fill="#676868"/>
<path d="M78.3401 27.665C78.3401 27.8401 78.1648 27.8401 78.1648 27.8401H77.2885C77.1133 28.0152 77.1133 27.8401 77.1133 27.665V17.3343C77.1133 17.1592 77.2885 17.1592 77.2885 17.1592H78.1648C78.3401 17.1592 78.3401 17.3343 78.3401 17.3343V27.665Z" fill="#676868"/>
<path d="M77.8144 75.2916C77.8144 76.6924 76.7629 77.743 75.3608 77.743H42.4124C41.0103 77.743 39.9587 76.6924 39.9587 75.2916V4.90253C39.9587 3.50176 41.0103 2.45117 42.4124 2.45117H75.3608C76.7629 2.45117 77.8144 3.50176 77.8144 4.90253V75.2916Z" fill="#E6E6E5"/>
<path d="M77.8144 75.2916C77.8144 76.6924 76.7629 77.743 75.3608 77.743H42.4124C41.0103 77.743 39.9587 76.6924 39.9587 75.2916V4.90253C39.9587 3.50176 41.0103 2.45117 42.4124 2.45117H75.3608C76.7629 2.45117 77.8144 3.50176 77.8144 4.90253V75.2916Z" stroke="#CDCBCA" stroke-width="2.824"/>
<path d="M77.6392 21.3616L40.3093 66.7118V48.6768L72.2062 2.80127H75.1856C76.5877 2.80127 77.6392 3.85185 77.6392 5.25263V21.3616Z" fill="#F2F1F1"/>
<path d="M63.6185 5.25277C63.6185 5.60297 63.268 5.95316 62.9175 5.95316H55.2061C54.6803 5.95316 54.3298 5.60297 54.3298 5.25277C54.3298 4.90258 54.6803 4.55238 55.0309 4.55238H62.7422C63.268 4.37729 63.6185 4.72748 63.6185 5.25277Z" fill="#676868"/>
<path d="M76.0617 7.17871H41.8865V71.2643H76.0617V7.17871Z" fill="#4E4D4E"/>
<path d="M63.7937 75.1165C63.7937 75.6417 63.4432 75.9919 62.9174 75.9919H55.0308C54.5051 75.9919 54.1545 75.6417 54.1545 75.1165V73.3655C54.1545 72.8402 54.5051 72.49 55.0308 72.49H62.9174C63.4432 72.49 63.7937 72.8402 63.7937 73.3655V75.1165Z" fill="#E6E6E5"/>
<path d="M63.7937 75.1165C63.7937 75.6417 63.4432 75.9919 62.9174 75.9919H55.0308C54.5051 75.9919 54.1545 75.6417 54.1545 75.1165V73.3655C54.1545 72.8402 54.5051 72.49 55.0308 72.49H62.9174C63.4432 72.49 63.7937 72.8402 63.7937 73.3655V75.1165Z" stroke="#B3B3B2" stroke-width="2"/>
<path d="M81.6702 66.0114C82.5465 66.8869 82.7218 68.1126 82.196 68.6379L76.5878 74.241C76.062 74.7663 74.8352 74.5912 73.9589 73.7157L72.3816 72.1398C71.5053 71.2643 71.33 70.0386 71.8558 69.5133L77.4641 63.9102C77.9898 63.3849 79.2166 63.56 80.0929 64.4355L81.6702 66.0114Z" fill="#E7BA82"/>
<path d="M83.4226 57.4316C84.4742 58.4822 84.6494 59.883 83.9484 60.5834L77.2886 67.2371C76.5876 67.9375 75.1855 67.5873 74.134 66.7118L72.2062 64.7857C71.1546 63.7351 70.9794 62.3343 71.6804 61.634L78.3402 54.9803C79.0412 54.2799 80.4433 54.6301 81.4948 55.5055L83.4226 57.4316Z" fill="#E7BA82"/>
<path d="M82.3711 49.0271C83.4227 50.0777 83.5979 51.4784 82.8969 52.1788L76.2371 58.8325C75.5361 59.5329 74.134 59.1827 73.0825 58.3072L71.1546 56.3812C70.1031 55.3306 69.9278 53.9298 70.6289 53.2294L77.2887 46.5757C77.9897 45.8753 79.3918 46.2255 80.4433 47.101L82.3711 49.0271Z" fill="#E7BA82"/>
<path d="M137.577 82.4706L136.701 80.1943C136.701 80.1943 120.752 71.0892 121.804 62.5095C121.804 62.5095 121.804 60.4083 124.783 59.1826L115.319 35.5445C115.319 35.5445 114.093 32.5678 116.897 31.1671C118.825 30.4667 120.051 30.8169 121.103 32.5678L127.938 47.9764C127.938 47.9764 132.67 43.9492 136.876 47.276C136.876 47.276 139.68 43.2488 145.113 46.9258C145.113 46.9258 148.794 43.599 151.948 47.276C151.948 47.276 160.886 58.132 156.68 72.49L159.835 81.42L140.907 89.4744L137.577 82.4706Z" fill="#E7BA82"/>
<path d="M124.784 59.1826L128.114 65.1359C128.114 65.1359 124.433 59.7079 123.206 59.883L124.784 59.1826Z" fill="#D9A96B"/>
<path d="M128.114 47.9766L130.742 53.7548L129.516 47.1011L128.114 47.9766Z" fill="#D9A96B"/>
<path d="M137.052 47.2761L139.856 52.7041L137.753 46.5757L137.052 47.2761Z" fill="#D9A96B"/>
<path d="M145.289 46.9259L148.093 51.1283L145.99 46.4006L145.289 46.9259Z" fill="#D9A96B"/>
<path d="M138.804 89.4745L161.237 80.0193L187 124.494L153.526 134.299L138.804 89.4745Z" fill="#0C72B9"/>
</g>
<defs>
<clipPath id="clip0">
<rect width="187" height="135" fill="white"/>
</clipPath>
</defs>
</svg>
