<svg width="242" height="137" viewBox="0 0 242 137" fill="none" xmlns="http://www.w3.org/2000/svg">
<g clip-path="url(#clip0)">
<path d="M207.429 117.817L168.308 118.119L170.28 128.39L171.947 137.151H204.699C205.457 130.656 206.367 124.161 207.429 117.817Z" fill="#E06445"/>
<path d="M87.6416 49.9967C87.7932 51.2051 87.1867 52.4135 86.1253 52.7156C85.0639 53.1687 83.6993 52.7156 83.0927 51.8093C79.4536 46.5226 76.4211 42.2933 72.4787 41.0849C71.2657 40.6318 69.901 40.6318 68.688 40.7828C66.4135 41.236 64.8973 42.5954 65.0489 45.6164C65.3521 51.5072 71.8722 62.3826 78.9988 74.3154C79.7569 75.5237 79.302 77.0342 78.089 77.7895C76.8759 78.5447 75.3597 78.0916 74.6015 76.8832C67.7782 65.7057 60.3484 53.3198 59.8935 45.7674C59.5902 39.7255 63.381 36.4025 67.7782 35.6472C69.901 35.1941 72.1754 35.3451 74.1466 36.1004C80.0602 37.9129 84.0025 43.9548 87.3384 48.7883L82.6379 50.6009C82.3346 49.2415 83.396 47.8821 84.7607 47.731C86.1253 47.58 87.49 48.6373 87.6416 49.9967Z" fill="#3E636D"/>
<path d="M45.0337 59.6639L46.8532 59.966C56.5575 61.7785 62.3194 62.6848 64.4422 62.6848C66.4134 62.6848 67.9297 62.5338 69.1427 62.2317C70.9623 61.6275 72.1753 61.1744 72.6302 60.5702C73.0851 60.2681 73.2367 59.6639 73.3883 58.6065C73.54 58.0024 73.2367 56.794 72.6302 54.6793C73.2367 54.3772 73.3883 53.4709 73.3883 51.9605C73.3883 50.9031 72.9334 50.1479 72.0237 49.6948C72.9334 48.7885 73.3883 47.7311 73.2367 46.5228C73.2367 45.6165 72.7818 44.8612 72.0237 44.106C72.3269 44.106 72.6302 43.8039 72.7818 43.0487C72.9334 42.2934 72.9334 41.6892 72.7818 40.934C72.3269 39.1214 70.5074 37.9131 67.0199 37.1578C65.6552 36.8557 64.2906 37.0068 62.7743 37.1578C61.4096 37.4599 60.3482 37.913 59.2868 38.5172C57.4673 39.4235 55.7994 41.3871 54.1314 44.4081L47.9146 45.3144L45.0337 59.6639Z" fill="#F6B895"/>
<path d="M109.021 86.097L116.603 51.9603C118.271 49.0904 117.664 46.9757 114.935 45.4652C112.054 43.6527 107.05 41.9911 100.075 40.1786C93.252 38.517 87.6417 37.6108 82.7896 37.6108C81.8798 37.4597 80.5152 37.7618 78.544 38.517C77.1793 39.2723 76.4212 40.3296 75.9663 41.9911C75.8147 42.2932 75.663 43.6527 75.3598 46.2205C75.2082 54.9812 74.7533 67.065 73.9951 82.3208C74.9049 85.1907 75.663 87.0033 76.4212 87.7585C77.7858 89.7221 80.0603 91.3836 83.3961 92.592C87.3385 93.9514 90.8259 94.4046 94.1618 94.1025C98.4074 93.6494 101.743 92.7431 104.169 91.2326C106.292 90.3263 107.96 88.5137 109.021 86.097Z" fill="#3E636D"/>
<path d="M109.476 65.8567L125.094 73.4091C126.61 72.5028 127.975 71.7476 129.491 70.8413C123.729 67.5182 117.816 64.1952 112.054 61.0232L109.476 65.8567Z" fill="#3E636D"/>
<path d="M108.566 75.5237L137.527 66.7629C137.982 69.3307 138.589 71.7475 139.044 74.3153C127.672 78.8467 116.299 83.2271 104.927 87.7585L108.566 75.5237Z" fill="#3E636D"/>
<path d="M136.618 71.5965L137.376 73.258C139.044 76.43 141.167 78.8467 143.441 80.2062C145.867 81.5656 147.99 81.7166 149.809 80.3572C151.477 78.9978 152.539 76.7321 152.539 73.7111C152.539 72.6538 152.539 71.7475 152.387 70.5391L152.084 68.8776C151.781 67.8203 151.477 66.6119 151.022 65.5546C149.506 62.0805 147.535 59.5127 145.261 57.7001C142.986 55.8875 140.712 55.4344 138.74 56.1896C136.769 57.0959 135.556 59.0595 135.101 61.9294C134.647 64.9504 135.101 68.1224 136.618 71.5965Z" fill="#3E636D"/>
<path d="M53.98 41.9913L49.5827 41.085L45.1855 40.1787C43.9725 46.8248 42.6078 53.6219 41.3948 60.268C44.4274 60.8722 47.3083 61.4764 50.3409 61.9295C51.4023 55.4345 52.767 48.7884 53.98 41.9913Z" fill="white"/>
<path d="M0 27.4907V56.4918C2.27444 56.7939 3.79073 56.945 3.79073 56.945L33.3584 60.7212C40.9398 62.0806 45.6404 62.9869 45.792 63.1379C45.9436 62.5337 46.0952 61.9295 46.2469 61.4764C46.3985 61.0233 46.3985 60.5701 46.5501 60.117L45.0338 59.8149L46.5501 60.117C46.7018 59.6638 46.7018 59.2107 46.8534 58.7575C47.9148 54.2261 48.9762 49.6947 50.0376 45.1633L50.3409 43.9549C50.4925 43.1997 50.6441 42.4444 50.9474 41.5381L49.5827 41.236L50.9474 41.5381C50.9474 41.3871 50.9474 41.236 51.099 41.085L40.0301 38.5172C24.5639 34.1368 11.3722 30.5117 0 27.4907Z" fill="black"/>
<path d="M141.925 62.6847V62.8357C141.925 63.1378 141.773 63.4399 141.622 63.742C141.47 64.0441 141.167 64.0441 140.712 64.0441C140.409 63.8931 140.105 63.742 139.954 63.4399C139.802 63.1378 139.65 62.6847 139.802 62.3826C139.802 62.0805 139.954 61.7784 140.257 61.6274C140.409 61.4763 140.712 61.4763 141.015 61.4763C141.318 61.6274 141.47 61.7784 141.622 61.9295C141.622 62.0805 141.773 62.0805 141.773 62.2316V62.3826C141.925 62.3826 141.925 62.5336 141.925 62.6847Z" fill="#3D4F53"/>
<path d="M142.228 66.7628V66.9139C142.228 67.0649 142.228 67.216 142.228 67.367V67.5181C142.228 67.5181 142.228 67.6691 142.076 67.8202C141.925 67.9712 141.621 68.1222 141.318 68.1222C141.015 68.1222 140.712 67.9712 140.56 67.6691C140.408 67.367 140.257 67.0649 140.257 66.7628C140.257 66.6118 140.257 66.4607 140.257 66.3097C140.257 66.1586 140.408 66.0076 140.408 66.0076C140.408 66.0076 140.408 65.8565 140.56 65.8565C140.712 65.7055 140.712 65.7055 140.863 65.5544H141.015C141.015 65.5544 141.167 65.5544 141.318 65.5544C141.621 65.5544 141.925 65.7055 142.076 65.8565C142.076 66.1586 142.228 66.4607 142.228 66.7628Z" fill="#3D4F53"/>
<path d="M143.441 71.4454V71.5964C143.441 71.8985 143.29 72.2006 143.138 72.5027L142.986 72.6537C142.835 72.8048 142.835 72.8048 142.683 72.8048C142.531 72.8048 142.38 72.8048 142.38 72.8048C142.228 72.8048 142.077 72.8048 142.077 72.8048C142.077 72.8048 141.925 72.8048 141.925 72.6537C141.773 72.6537 141.773 72.5027 141.622 72.3516C141.47 72.2006 141.47 72.0495 141.318 71.8985V71.7475C141.318 71.5964 141.318 71.4454 141.318 71.4454C141.318 71.1433 141.318 70.8412 141.622 70.5391C141.773 70.237 142.077 70.237 142.38 70.0859C142.531 70.0859 142.683 70.0859 142.835 70.237C142.835 70.237 142.986 70.237 142.986 70.388C143.138 70.5391 143.138 70.5391 143.29 70.5391L143.441 70.6901C143.441 70.6901 143.593 70.8412 143.593 70.9922C143.29 71.1433 143.441 71.2943 143.441 71.4454Z" fill="#3D4F53"/>
<path d="M146.17 74.4664V74.6174C146.17 74.7685 146.17 74.9195 146.17 75.0705C146.17 75.2216 146.019 75.3726 146.019 75.3726C146.019 75.3726 146.019 75.5237 145.867 75.5237C145.867 75.6747 145.716 75.6747 145.564 75.8258C145.412 75.8258 145.261 75.8258 145.109 75.8258C144.806 75.8258 144.503 75.6747 144.351 75.3726C144.199 75.0705 144.048 74.7684 143.896 74.4664C143.896 74.3153 143.896 74.1643 143.896 74.0132C143.896 74.0132 143.896 73.8622 144.048 73.7111C144.048 73.7111 144.048 73.5601 144.199 73.5601C144.351 73.409 144.351 73.409 144.351 73.409C144.351 73.409 144.503 73.409 144.503 73.258C144.654 73.258 144.654 73.1069 144.806 73.1069C145.109 73.1069 145.412 73.258 145.564 73.409C145.564 73.409 145.716 73.5601 145.716 73.7111C145.716 73.7111 145.867 73.8622 145.867 74.0132C146.019 74.0132 146.019 74.1643 146.17 74.4664Z" fill="#3D4F53"/>
<path d="M149.506 74.7684V74.9195C149.506 75.0705 149.506 75.2216 149.506 75.3726C149.506 75.5237 149.355 75.6747 149.355 75.6747C149.355 75.8258 149.203 75.8258 149.203 75.9768C149.051 76.1279 148.748 76.2789 148.445 76.2789C148.293 76.2789 148.142 76.2789 148.142 76.2789C148.142 76.2789 147.99 76.2789 147.99 76.1279C147.838 76.1279 147.838 75.9768 147.687 75.8258C147.687 75.8258 147.535 75.6747 147.535 75.5237C147.535 75.5237 147.535 75.3726 147.384 75.3726C147.384 75.2216 147.232 75.0705 147.232 74.9195C147.232 74.7684 147.232 74.4663 147.232 74.4663C147.232 74.3153 147.384 74.1642 147.384 74.0132C147.535 73.7111 147.838 73.5601 148.142 73.5601C148.142 73.5601 148.293 73.5601 148.445 73.5601H148.597C148.748 73.5601 148.748 73.7111 148.9 73.8622C149.051 74.0132 149.203 74.1642 149.203 74.3153C149.506 74.4663 149.506 74.6174 149.506 74.7684Z" fill="#3D4F53"/>
<path d="M150.568 70.8414V70.9924C150.568 71.1435 150.568 71.2945 150.568 71.4456C150.568 71.5966 150.416 71.5966 150.416 71.7476C150.416 71.8987 150.264 71.8987 150.264 71.8987C150.113 72.0497 150.113 72.0497 149.961 72.2008H149.809C149.658 72.2008 149.506 72.2008 149.506 72.2008C149.203 72.2008 148.9 72.0497 148.748 71.7476C148.596 71.4456 148.445 71.1435 148.445 70.8414C148.445 70.6903 148.445 70.5393 148.445 70.3882C148.445 70.2372 148.596 70.0861 148.596 69.9351C148.748 69.784 148.748 69.633 148.9 69.633C149.051 69.633 149.051 69.4819 149.203 69.4819H149.355C149.658 69.4819 149.961 69.633 150.113 69.784C150.416 70.2372 150.568 70.5393 150.568 70.8414Z" fill="#3D4F53"/>
<path d="M149.203 66.1588V66.3099C149.203 66.4609 149.203 66.612 149.203 66.763C149.203 66.9141 149.051 67.0651 149.051 67.0651C149.051 67.2162 148.9 67.2162 148.9 67.2162C148.748 67.3672 148.748 67.3672 148.596 67.5183C148.445 67.5183 148.293 67.6693 148.142 67.6693C147.99 67.6693 147.838 67.6693 147.687 67.5183C147.687 67.5183 147.535 67.5182 147.383 67.3672L147.232 67.2162C147.08 67.0651 147.08 66.9141 147.08 66.9141C147.08 66.9141 147.08 66.763 146.928 66.763C146.928 66.612 146.777 66.4609 146.777 66.3099C146.777 66.1588 146.777 66.0078 146.777 65.8567C146.777 65.5546 146.928 65.4036 146.928 65.4036C147.08 65.2525 147.232 65.1015 147.232 65.1015C147.383 65.1015 147.383 64.9504 147.383 64.9504H147.535C147.535 64.9504 147.687 64.9504 147.838 64.9504H147.99C148.142 64.9504 148.142 65.1015 148.293 65.2525C148.445 65.4036 148.445 65.5546 148.445 65.5546C148.445 65.5546 148.445 65.7057 148.596 65.7057C149.203 65.8567 149.203 66.0078 149.203 66.1588Z" fill="#3D4F53"/>
<path d="M145.867 63.44V63.591C145.867 63.8931 145.867 63.8931 145.867 64.0442C145.867 64.1952 145.867 64.1952 145.716 64.3463C145.716 64.4973 145.564 64.4973 145.564 64.4973C145.412 64.7994 145.109 64.7994 144.806 64.7994C144.654 64.7994 144.503 64.7994 144.351 64.6484C144.199 64.4973 144.048 64.4973 144.048 64.3463C143.744 64.0442 143.744 63.7421 143.593 63.44C143.593 63.2889 143.593 63.1379 143.593 62.9869C143.593 62.8358 143.744 62.6848 143.744 62.5337C143.896 62.3827 144.048 62.2316 144.048 62.2316C144.199 62.2316 144.199 62.0806 144.351 62.0806C144.351 62.0806 144.503 62.0806 144.654 62.0806C144.957 62.0806 145.109 62.2316 145.412 62.3827C145.716 62.8358 145.867 63.1379 145.867 63.44Z" fill="#3D4F53"/>
<path d="M155.723 67.2162C156.481 67.0651 157.239 67.6693 157.239 68.4246C157.391 69.1798 156.784 69.935 156.026 69.935C155.268 70.0861 154.51 69.4819 154.51 68.7266C154.358 67.9714 154.965 67.2162 155.723 67.2162ZM161.333 67.6693C162.091 67.5183 162.85 68.1225 162.85 68.8777C163.001 69.6329 162.395 70.3882 161.637 70.3882C160.878 70.5392 160.12 69.935 160.12 69.1798C160.12 68.4246 160.575 67.8204 161.333 67.6693ZM167.095 68.2735C167.853 68.1225 168.611 68.7266 168.611 69.4819C168.763 70.2371 168.157 70.9924 167.398 70.9924C166.64 71.1434 165.882 70.5392 165.882 69.784C165.731 69.0287 166.337 68.4246 167.095 68.2735ZM172.705 69.3308C173.464 69.1798 174.222 69.784 174.222 70.5392C174.373 71.2945 173.767 72.0497 173.009 72.0497C172.251 72.2007 171.492 71.5966 171.492 70.8413C171.341 70.2371 171.947 69.4819 172.705 69.3308ZM178.164 71.1434C178.922 70.9924 179.68 71.5966 179.68 72.3518C179.832 73.107 179.225 73.8623 178.467 73.8623C177.709 74.0133 176.951 73.4091 176.951 72.6539C176.799 71.8986 177.406 71.1434 178.164 71.1434Z" fill="white"/>
<path d="M155.268 71.4456C156.026 71.4456 156.633 72.0497 156.633 72.805C156.633 73.5602 156.026 74.1644 155.268 74.1644C154.51 74.1644 153.904 73.5602 153.904 72.805C153.904 72.0497 154.51 71.4456 155.268 71.4456ZM160.879 72.5029C161.637 72.5029 162.243 73.1071 162.243 73.8623C162.243 74.6176 161.637 75.2217 160.879 75.2217C160.12 75.2217 159.514 74.6176 159.514 73.8623C159.514 73.1071 160.12 72.5029 160.879 72.5029ZM166.489 73.7113C167.247 73.7113 167.853 74.3155 167.853 75.0707C167.853 75.8259 167.247 76.4301 166.489 76.4301C165.731 76.4301 165.124 75.8259 165.124 75.0707C165.124 74.3155 165.731 73.7113 166.489 73.7113ZM171.947 75.3728C172.706 75.3728 173.312 75.977 173.312 76.7322C173.312 77.4874 172.706 78.0916 171.947 78.0916C171.189 78.0916 170.583 77.4874 170.583 76.7322C170.583 75.977 171.189 75.3728 171.947 75.3728ZM177.254 77.4874C178.013 77.4874 178.619 78.0916 178.619 78.8469C178.619 79.6021 178.013 80.2063 177.254 80.2063C176.496 80.2063 175.89 79.6021 175.89 78.8469C175.89 78.2427 176.496 77.6385 177.254 77.4874Z" fill="white"/>
<path d="M155.268 75.8258C156.026 75.9769 156.481 76.7321 156.33 77.4873C156.178 78.2426 155.42 78.6957 154.662 78.5447C153.904 78.3936 153.449 77.6384 153.6 76.8831C153.752 76.1279 154.51 75.6748 155.268 75.8258ZM160.424 78.2426C161.182 78.3936 161.637 79.1489 161.485 79.9041C161.333 80.6593 160.575 81.1125 159.817 80.9614C159.059 80.8104 158.604 80.0551 158.756 79.2999C158.907 78.5447 159.666 78.0915 160.424 78.2426ZM165.579 80.6593C166.337 80.8104 166.792 81.5656 166.64 82.3209C166.489 83.0761 165.731 83.5292 164.973 83.3782C164.214 83.2271 163.759 82.4719 163.911 81.7167C164.214 80.9614 164.821 80.5083 165.579 80.6593ZM170.583 83.5292C171.341 83.6803 171.796 84.4355 171.644 85.1908C171.493 85.946 170.734 86.3991 169.976 86.2481C169.218 86.097 168.763 85.3418 168.915 84.5866C169.066 83.8313 169.825 83.3782 170.583 83.5292ZM175.132 87.0033C175.89 87.1544 176.345 87.9096 176.193 88.6648C176.041 89.4201 175.283 89.8732 174.525 89.7222C173.767 89.5711 173.312 88.8159 173.464 88.0607C173.615 87.3054 174.374 86.8523 175.132 87.0033Z" fill="white"/>
<path d="M147.08 13.5942C147.08 13.5942 147.232 13.7453 147.232 13.8963C147.383 14.1984 147.535 14.5005 147.99 15.1047C148.445 15.7089 148.9 16.011 149.658 16.4641C150.113 16.7662 150.416 16.9173 150.568 16.9173C150.568 16.9173 151.326 17.2194 151.932 17.5215C153.297 18.1257 154.813 18.8809 155.42 19.183C156.33 19.7872 156.936 20.8445 157.391 22.355C157.846 23.7144 157.997 24.1676 158.907 24.9228C159.514 25.527 160.12 25.8291 160.878 25.9801C161.94 26.2822 163.456 26.7354 163.911 26.8864C166.64 27.7927 168.763 28.699 171.038 29.7563C172.251 30.3605 172.402 30.5115 173.312 30.9647C174.222 31.4178 174.222 31.4178 173.767 30.6626C173.312 30.0584 173.16 29.9074 172.251 29.3032C171.796 29.0011 171.189 28.699 171.038 28.5479C170.583 28.2458 169.976 27.6416 169.673 27.4906C169.066 26.8864 168.611 25.9801 168.46 25.678C168.157 24.7717 168.005 24.3186 168.005 23.8655C167.702 22.506 167.55 22.0529 167.55 20.9956C167.55 20.5424 167.55 20.0893 167.398 19.7872C167.398 19.4851 167.398 18.8809 167.247 18.2767C167.247 17.6725 167.247 17.2194 167.247 17.0683C167.247 16.9173 167.247 16.4641 167.247 15.8599C167.247 15.7089 167.247 15.5579 167.247 15.4068C167.247 15.2558 167.247 15.1047 167.247 15.1047C167.247 14.9537 167.398 15.1047 167.398 15.2558C167.398 15.4068 167.398 15.7089 167.398 15.8599C167.398 16.011 167.55 16.6152 167.702 17.0683C168.005 17.9746 168.005 17.9746 168.46 18.5788C169.37 19.6361 169.37 19.7872 170.128 20.5424C171.341 21.7508 172.554 23.1102 173.009 23.8655C173.312 24.3186 173.464 25.2249 173.615 25.9801C173.615 26.2822 173.615 26.8864 173.464 27.3396C173.312 28.5479 173.312 28.699 173.615 29.6053C174.07 30.8136 174.677 31.7199 175.435 32.1731C176.496 32.7773 179.529 34.8919 179.68 35.043C179.68 35.043 179.832 35.194 179.984 35.3451C180.135 35.4961 180.287 35.6472 180.287 35.6472C180.287 35.6472 180.59 35.9493 180.893 36.1003C181.5 36.5534 182.865 37.7618 183.471 38.366C183.623 38.5171 183.926 38.8192 184.078 38.9702C184.381 39.2723 185.746 40.6317 185.897 40.7828C186.049 40.9338 186.049 40.9338 186.049 40.7828C186.2 40.6317 186.2 39.5744 186.2 39.1213C186.2 38.8192 186.049 38.5171 185.442 37.0066C184.684 35.3451 184.684 35.043 184.533 34.2877C184.381 33.8346 184.381 32.6262 184.533 32.3241C184.533 32.022 184.987 31.1157 185.291 30.3605C185.442 30.0584 185.594 29.7563 185.594 29.6053C185.746 29.3032 186.2 28.5479 186.807 27.9437C187.11 27.6416 187.413 27.1885 187.717 26.8864C188.172 26.2822 189.233 25.0738 189.536 24.9228C189.688 24.7717 189.84 24.6207 189.991 24.3186C190.446 23.8655 190.598 23.7144 190.294 24.1676C189.991 24.6207 189.688 25.2249 189.536 25.8291C189.385 26.4333 189.385 26.4333 189.385 27.1885C189.385 27.4906 189.385 27.7927 189.385 27.9437C189.385 28.5479 189.536 29.4542 189.84 30.9647C189.84 31.1157 189.991 31.4178 189.991 31.7199C189.991 32.022 189.991 32.1731 190.143 32.3241C190.143 32.6262 190.294 33.3814 190.294 33.9856C190.446 35.043 190.143 35.6472 189.688 36.5534C189.385 37.0066 188.93 37.4597 188.475 37.7618C187.717 38.215 187.262 38.8192 187.11 39.7254C186.959 40.4807 187.11 41.8401 187.262 41.9911C187.262 41.9911 187.565 42.2932 187.868 42.5953C188.172 42.8974 188.475 43.1995 188.475 43.3506C188.627 43.5016 188.93 43.9548 189.688 44.8611C189.84 45.0121 189.991 45.3142 189.991 45.3142C190.143 45.4652 190.294 45.7673 190.598 46.0694C192.114 48.1841 193.479 50.2988 194.995 53.3197C195.298 53.7728 195.905 55.1323 196.36 56.3407C196.966 57.8511 197.269 58.4553 197.269 58.4553C197.421 58.3043 197.421 57.0959 197.269 56.3407C197.118 55.7365 196.966 54.6791 196.966 54.377C196.814 52.7155 196.814 52.1113 197.118 50.6009C197.269 49.6946 197.421 49.3925 198.331 48.033C199.241 46.6736 199.847 46.0694 201.212 44.8611C201.363 44.8611 201.667 44.559 201.97 44.2569C202.728 43.6527 202.88 43.3506 203.183 43.1995C204.244 42.4443 204.699 41.9911 204.851 41.9911V42.1422C204.851 42.1422 204.548 42.2932 204.396 42.5953C203.789 43.3506 203.335 44.4079 203.031 45.6163C202.88 46.0694 202.88 46.5226 202.88 46.5226C202.88 46.5226 202.88 46.8247 202.88 47.1268C202.88 47.4289 202.728 47.882 202.728 48.1841C202.728 48.3351 202.728 48.7883 202.728 49.2414C202.728 50.9029 202.425 53.0176 202.121 54.0749C201.818 55.1323 200.908 56.3407 199.847 56.7938C198.937 57.0959 198.482 57.7001 198.028 58.4553C197.573 59.3616 197.573 59.6637 197.724 59.9658C197.876 60.4189 198.634 62.9867 199.089 64.4972C199.241 65.2525 199.544 66.4608 199.695 67.3671C199.695 67.6692 199.847 67.9713 199.847 68.1223C199.999 68.4244 199.999 69.3307 200.15 69.6328C200.15 69.7839 200.15 70.086 200.302 70.086C200.302 70.3881 200.454 71.2943 200.605 72.3517C200.605 72.8048 200.757 75.3726 200.908 75.5237C200.908 75.6747 200.908 75.8258 200.908 75.8258C200.908 76.581 200.908 77.9404 200.908 78.3936C200.908 78.5446 200.908 78.8467 200.908 78.9978C200.908 79.1488 200.908 79.4509 200.908 79.753C200.908 80.0551 200.908 80.3572 200.908 80.3572C200.908 80.3572 201.06 80.2061 201.212 79.9041C201.363 79.602 201.515 79.2999 201.515 79.2999C201.667 78.9978 201.97 77.4873 202.121 76.1279C202.273 75.2216 202.576 73.7111 203.031 72.8048C203.335 71.8985 204.244 70.3881 204.699 70.086C205.154 69.6328 206.064 68.8776 207.277 67.9713C207.58 67.8203 207.883 67.5182 207.883 67.5182C208.035 67.3671 208.187 67.2161 208.338 67.2161C208.793 66.914 209.551 66.4608 212.281 65.2525C212.887 64.9504 213.645 64.6483 213.949 64.3462C214.707 63.893 217.739 62.6846 217.891 62.6846C217.891 62.6846 217.739 62.8357 217.436 62.9867C216.526 63.4399 216.071 63.742 215.465 64.4972C214.858 65.1014 214.555 65.4035 214.252 66.0077C214.252 66.0077 213.949 66.6119 213.645 67.065C213.342 67.6692 212.736 68.8776 212.281 69.7839C211.219 72.2006 210.006 74.6174 209.4 75.3726C208.945 76.1279 208.49 76.43 207.429 77.1852C206.67 77.6383 205.912 77.9404 204.699 78.2425C203.789 78.3936 203.789 78.3936 203.335 78.6957C202.728 78.9978 202.273 79.4509 201.97 79.9041C201.667 80.3572 201.06 81.2635 200.908 81.4145C200.908 81.5656 200.757 82.0187 200.757 82.4719C200.757 82.925 200.605 83.6802 200.605 84.1334C200.605 84.4355 200.454 84.8886 200.454 84.8886C200.454 84.8886 199.847 88.5137 199.695 89.269C199.695 89.42 199.544 89.5711 199.544 89.7221C199.544 89.8732 199.392 90.4774 199.241 91.0816C198.634 93.3473 197.876 95.764 196.814 98.0297C196.511 98.6339 196.36 99.2381 196.36 99.2381C196.511 99.2381 197.724 98.3318 198.179 97.7276C198.634 97.2745 198.786 96.9724 199.695 95.1598C200.302 93.9515 201.363 92.1389 201.515 92.1389C201.515 92.1389 201.667 91.9878 201.818 91.6858C202.273 91.0816 203.183 90.1753 203.941 89.5711C204.851 88.8158 205.609 88.5138 206.974 88.2117C207.429 88.0606 207.883 87.9096 208.035 87.9096C208.793 87.7585 209.855 87.4564 210.158 87.3054C210.764 87.1543 211.522 87.0033 211.674 87.0033C212.129 87.0033 212.736 86.8522 213.494 86.8522C213.949 86.8522 214.403 86.8522 214.707 86.8522C215.01 86.8522 215.162 86.8522 215.313 86.8522C215.465 86.8522 215.616 86.8522 215.768 86.8522C216.678 86.8522 217.588 86.7012 217.739 86.7012C217.891 86.7012 218.194 86.7012 218.497 86.7012C218.801 86.7012 219.104 86.7012 219.256 86.7012C219.407 86.7012 219.71 86.7012 220.014 86.7012C220.317 86.7012 220.62 86.7012 220.62 86.7012C220.772 86.7012 221.075 86.7012 221.378 86.7012C221.682 86.7012 222.137 86.7012 222.288 86.7012C222.44 86.7012 222.743 86.7012 222.895 86.7012C223.046 86.7012 223.198 86.7012 223.35 86.7012C223.501 86.7012 223.653 86.7012 223.653 86.8522C223.653 87.0033 223.653 87.0033 223.198 87.0033C222.591 87.0033 221.682 87.1543 220.923 87.4564C220.317 87.6075 220.014 87.7585 219.407 88.0606C218.952 88.3627 218.497 88.5138 218.497 88.6648C218.497 88.6648 218.194 88.9669 217.739 89.269C216.071 90.6284 215.616 91.0816 214.1 92.7431C212.887 93.9515 212.584 94.4046 210.916 95.9151C210.613 96.2172 210.309 96.5193 210.006 96.6703C209.096 97.4256 208.642 97.7276 207.883 98.1808C207.277 98.4829 206.974 98.4829 206.367 98.6339C205.002 98.936 204.244 98.936 202.88 98.6339C201.363 98.3318 200.908 98.3318 199.695 98.785C198.786 99.0871 198.028 99.5402 197.118 100.144C196.663 100.598 195.905 101.202 195.753 101.504C193.63 105.431 191.962 108.301 189.536 111.322C188.93 112.077 187.11 114.192 186.959 114.343C186.959 114.343 186.807 114.494 186.504 114.796C185.897 115.551 184.684 116.609 184.684 116.609C184.684 116.609 184.533 116.306 184.381 116.004C184.229 115.551 184.229 115.4 184.229 115.4C184.229 115.4 184.381 115.249 184.533 115.098C184.684 114.947 184.836 114.796 184.987 114.494C186.2 113.286 187.565 111.624 189.081 109.811C189.536 109.207 190.901 107.244 191.507 106.488C192.569 104.827 193.782 102.863 193.782 102.561C193.782 102.41 193.782 102.259 193.782 101.957C193.782 101.806 193.63 101.353 193.63 101.202C193.63 100.749 192.872 99.0871 192.569 98.785C192.266 98.3318 191.659 97.7276 191.356 97.5766C191.204 97.4255 190.749 97.2745 190.446 96.9724C189.385 96.3682 188.93 96.0661 188.323 95.3109C186.959 93.8004 186.352 92.441 186.2 90.9305C186.2 90.7795 186.2 90.4774 186.049 90.1753C185.897 88.3627 185.746 87.0033 185.746 86.5501C185.746 86.3991 185.746 85.7949 185.746 85.1907C185.746 84.5865 185.746 83.9823 185.746 83.8313C185.746 83.6802 185.746 83.5292 185.746 83.3781C185.746 82.925 185.594 81.5656 185.442 80.5082C185.291 79.9041 185.291 79.2999 185.291 79.1488C185.291 78.6957 184.381 76.7321 184.078 76.2789C183.623 75.5237 183.319 75.2216 182.865 74.7684C182.41 74.3153 182.41 74.3153 182.561 74.1642C182.713 74.1642 183.471 74.7684 185.442 76.7321C185.594 76.8831 186.049 77.3362 186.352 77.6383C186.959 78.2425 186.959 78.2425 187.413 78.6957C187.565 78.8467 188.172 79.4509 188.778 80.0551C189.385 80.6593 189.991 81.2635 190.143 81.4145C190.749 82.0187 190.749 82.0187 191.204 82.4719C191.507 82.925 192.266 83.8313 192.72 84.5865C192.872 84.8886 193.175 85.1907 193.175 85.3418C193.175 85.4928 193.479 85.7949 193.63 86.097C193.782 86.3991 194.085 86.7012 194.085 86.8522C194.388 87.3054 194.843 88.3627 194.995 89.1179C195.45 91.6857 195.45 93.1962 194.54 96.0661C194.388 96.8214 194.237 97.4256 194.237 97.4256C194.085 97.5766 193.934 98.6339 193.934 98.936C193.934 99.6913 193.934 99.8423 194.085 100.9C194.085 101.202 194.237 101.504 194.237 101.504C194.237 101.504 194.692 100.598 195.298 99.3892C195.905 98.0297 196.511 96.6703 197.118 94.5556C197.876 92.2899 198.786 88.8158 199.241 86.097C199.392 85.1907 199.392 85.0397 199.544 83.5292L199.695 82.4719L199.544 82.0187C199.241 81.2635 198.937 80.6593 198.028 79.753C197.876 79.602 197.118 78.9978 196.814 78.6957C196.36 78.3936 195.905 78.2425 194.843 77.9404C193.479 77.6383 192.266 77.1852 191.204 76.2789C190.143 75.5237 189.385 74.0132 187.868 70.086C186.959 67.6692 185.897 65.7056 185.442 64.9504C184.684 63.893 183.471 62.9867 182.258 62.3825C181.955 62.2315 181.955 62.2315 181.955 62.0805C181.955 62.0805 183.016 62.3825 183.926 62.8357C184.078 62.9867 184.684 63.1378 185.291 63.4399C186.2 63.893 187.413 64.3462 188.778 65.1014C189.081 65.2524 189.536 65.4035 189.84 65.5546C191.204 66.1587 192.114 66.7629 193.934 68.1223C195.753 69.4818 196.056 69.7839 196.663 70.9923C197.269 72.0496 197.421 72.5027 197.724 73.409C198.027 74.4663 198.028 75.0705 198.331 77.6383C198.482 78.6957 198.786 79.753 199.695 80.8103C199.999 81.1124 199.999 81.1124 199.999 80.9614C199.999 80.8103 199.999 80.3572 199.999 80.0551C200.15 77.9404 199.999 75.0705 199.847 72.8048C199.847 72.5027 199.847 72.2006 199.847 72.0496C199.847 71.8985 199.695 70.3881 199.544 69.6328C199.241 67.6692 198.482 64.6483 197.876 62.3825C197.573 61.3252 196.663 59.0595 196.511 58.7574C196.208 58.3043 195.147 57.549 194.085 57.2469C193.327 56.9448 192.569 57.0959 191.659 57.398C190.598 57.7001 189.385 57.7001 188.323 57.549C187.717 57.398 187.413 57.2469 186.807 56.7938C186.2 56.3407 184.078 54.6791 183.774 54.226C183.623 54.0749 183.471 53.9239 183.319 53.7728C183.168 53.6218 183.016 53.6218 183.016 53.4708C182.561 52.8666 181.955 52.4134 180.742 51.5071C179.832 50.7519 179.074 50.4498 178.164 50.2988C177.558 50.1477 176.496 49.9967 176.496 50.1477C176.345 50.1477 176.041 50.1477 176.193 49.9967C176.193 49.9967 176.345 49.9967 176.648 49.8456C176.951 49.8456 177.254 49.8456 177.709 49.6946C178.012 49.6946 178.316 49.6946 178.467 49.6946C178.619 49.6946 178.771 49.6946 179.074 49.6946C179.529 49.6946 180.59 49.6946 180.893 49.6946C181.045 49.6946 181.197 49.6946 181.348 49.6946C181.5 49.6946 181.652 49.6946 181.803 49.6946C182.41 49.6946 182.561 49.6946 182.865 49.6946C183.016 49.6946 183.168 49.6946 183.319 49.6946C183.471 49.6946 183.623 49.6946 183.774 49.6946C183.926 49.6946 184.078 49.6946 184.229 49.6946C185.291 49.6946 187.11 49.8456 188.778 50.2988C189.84 50.4498 190.143 50.7519 191.053 51.3561C192.114 52.1113 192.569 52.5645 193.327 53.7728C193.479 53.9239 194.085 55.2833 194.54 56.0386C194.692 56.1896 194.843 56.6427 195.147 56.7938C195.45 57.2469 196.36 57.8511 196.511 57.8511C196.511 57.8511 196.511 57.8511 196.511 57.7001C196.511 57.7001 196.208 57.0959 195.905 56.3407C194.54 53.3197 192.872 50.2988 191.053 47.882C190.901 47.731 190.749 47.4289 190.598 47.2778C190.294 46.9757 189.688 46.0694 189.233 45.4652C189.081 45.1631 188.778 44.8611 188.627 44.71C188.475 44.4079 187.717 43.5016 187.413 43.3506C187.413 43.3506 187.11 43.0485 186.959 42.7464C185.897 41.538 185.897 41.538 185.139 41.2359C184.229 40.7828 183.623 40.6317 182.865 40.6317C182.106 40.6317 181.652 40.7828 180.742 41.0849C179.529 41.6891 179.529 41.8401 178.922 41.9911C177.861 42.2932 177.103 42.2932 176.496 42.1422C175.586 41.9911 173.464 40.9338 171.796 40.0275C171.341 39.7254 170.431 39.2723 169.673 39.1213C168.46 38.6681 168.308 38.5171 167.702 38.5171C166.792 38.5171 166.034 38.5171 165.276 38.6681C165.124 38.6681 164.821 38.8192 164.821 38.6681C164.821 38.6681 165.579 38.215 166.489 37.9129C166.944 37.7618 167.55 37.6108 168.157 37.4597C169.673 37.0066 172.099 36.2513 172.554 36.1003C173.009 35.9493 174.677 35.7982 175.586 35.7982C176.951 35.6472 177.254 35.7982 178.619 36.2514C179.68 36.7045 180.439 37.1576 181.348 38.215C181.652 38.5171 181.955 38.8192 181.955 38.8192C181.955 38.8192 182.258 39.1213 182.41 39.2723C182.561 39.4233 182.865 39.7254 183.168 39.8765C183.623 40.1786 184.684 40.4807 184.684 40.4807C184.684 40.4807 184.533 40.3296 184.381 40.1786C184.229 40.0275 183.926 39.7254 183.774 39.5744C183.168 38.9702 180.59 36.8555 180.135 36.5534C179.984 36.5534 179.984 36.4024 179.984 36.4024C179.984 36.4024 178.922 35.4961 178.012 34.8919C176.799 34.1367 174.828 32.7773 174.07 32.3241C173.767 32.1731 173.312 31.871 173.16 31.871C173.009 31.7199 172.554 31.5689 172.099 31.2668C171.341 30.8136 171.341 30.8136 170.431 30.9647C169.976 30.9647 169.218 31.2668 168.611 31.4178C168.005 31.7199 167.853 31.7199 167.247 32.3241C166.185 33.2304 165.882 33.3814 164.821 33.8346C163.759 34.2877 163.608 34.2877 162.091 34.2877C161.03 34.2877 160.727 34.2877 159.665 34.1367C156.784 33.8346 155.268 33.8346 154.358 34.1367C153.752 34.2877 152.236 34.8919 151.932 35.194C151.629 35.4961 151.629 35.3451 151.932 35.043C152.236 34.8919 152.69 34.4388 153.145 34.2877C153.297 34.1367 153.6 33.9856 153.903 33.8346C154.207 33.6835 154.51 33.3814 154.813 33.2304C154.965 33.0794 155.42 32.9283 155.723 32.6262C158.149 31.1157 158.756 30.8136 160.12 30.2095C161.94 29.4542 162.698 29.3032 163.456 29.3032C163.608 29.3032 163.911 29.3032 164.214 29.3032C165.124 29.3032 166.034 29.4542 167.095 29.9074C167.55 30.0584 168.308 30.3605 168.46 30.5115C169.066 30.6626 170.431 30.8136 170.431 30.6626C170.431 30.5115 166.034 28.699 164.972 28.3969C164.366 28.2458 163.911 28.0948 163.759 27.9437C163.759 27.9437 163.153 27.7927 162.698 27.6416C162.091 27.4906 161.637 27.3396 161.637 27.3396C161.485 27.3396 158.604 26.5843 157.846 26.4333C156.633 26.2822 156.633 26.2822 155.723 26.4333C154.965 26.5843 154.358 26.8864 153.752 27.1885C153.145 27.4906 152.842 27.7927 152.387 28.3969C151.781 29.1521 151.326 29.6053 150.416 30.2095C149.961 30.5115 148.748 30.9647 148.293 31.1157C147.383 31.2668 145.715 31.5689 145.412 31.5689C144.048 31.7199 143.593 31.7199 143.289 31.7199C142.986 31.7199 142.683 31.871 142.531 31.871C142.38 31.871 142.076 32.022 141.621 32.022C141.318 32.022 140.863 32.1731 140.712 32.1731C140.105 32.3241 138.589 33.2304 137.831 33.8346C137.679 33.9856 137.528 33.9856 137.528 33.9856C137.528 33.9856 137.679 33.6835 137.982 33.3814C138.134 33.2304 138.286 33.0794 138.286 33.0794C138.437 32.9283 138.741 32.7773 139.044 32.4752C139.347 32.1731 139.65 31.871 139.65 31.871C139.65 31.871 139.954 31.7199 140.105 31.4178C140.257 31.2668 140.863 30.8136 141.318 30.3605C142.683 29.1521 143.289 28.699 143.744 28.2458C144.199 27.7927 144.654 27.6416 146.17 26.5843C146.777 26.2822 147.535 25.8291 148.142 25.8291C149.961 25.527 150.416 25.527 152.387 25.8291C153.6 26.1312 153.752 26.1312 154.358 25.9801C154.965 25.8291 155.42 25.8291 155.42 25.678C155.42 25.678 154.662 25.527 152.842 25.3759C152.236 25.2249 149.658 25.0738 149.506 25.2249C149.506 25.2249 149.355 25.2249 149.203 25.2249C148.9 25.2249 148.748 25.2249 148.142 25.2249C147.687 25.2249 147.535 25.2249 146.625 25.678C144.502 26.5843 143.896 26.7354 142.531 26.8864C141.773 26.8864 141.621 26.8864 141.015 26.7354C139.802 26.4333 137.831 25.527 136.769 24.7717C136.163 24.3186 135.253 23.8655 134.95 23.5634C133.737 22.8081 131.917 21.5998 131.917 21.4487H132.069C133.282 22.0529 134.343 22.506 135.405 22.355C136.163 22.355 137.073 22.2039 137.528 22.2039C138.286 22.0529 138.437 22.0529 138.741 22.0529C138.892 22.0529 139.044 22.0529 139.195 22.0529C139.347 22.0529 139.499 22.0529 139.802 22.0529C140.712 21.9018 141.773 21.9018 142.228 21.9018C142.986 21.9018 144.351 22.506 145.715 23.4123C146.777 24.1676 148.142 24.4697 150.568 24.7717C153.449 24.9228 154.813 25.0738 156.784 25.3759C157.694 25.527 159.665 25.8291 160.272 25.9801C160.575 25.9801 160.423 25.8291 159.969 25.678C159.362 25.3759 159.362 25.3759 158.149 25.2249C156.33 25.0738 155.723 24.9228 154.662 24.1676C153.752 23.7144 153.6 23.4123 152.69 22.2039C151.629 20.6935 151.477 20.5424 150.719 18.8809C147.687 15.4068 146.777 13.5942 147.08 13.5942C146.929 13.5942 146.929 13.5942 147.08 13.5942Z" fill="#297A60"/>
<path d="M214.252 10.5733C214.403 10.2712 214.555 10.1202 214.555 10.1202C214.555 10.1202 210.764 7.85447 206.215 4.98456L198.028 0L187.868 16.4642L177.709 32.9283L186.049 38.0639L194.388 43.1996L204.548 26.7354C209.248 18.8809 213.19 12.3859 214.252 10.5733ZM207.732 13.8964L201.06 24.6207L194.388 35.3451L207.732 13.8964ZM191.962 19.183C191.962 19.183 191.962 19.032 191.962 19.183V19.183ZM197.724 7.85447L184.533 29.3032L191.053 18.5788L197.724 7.85447Z" fill="#297A60"/>
<path d="M215.162 10.1202C215.162 10.1202 211.371 7.85447 206.822 4.98456L198.634 0L188.475 16.6152L178.316 33.0794L186.656 38.215L194.995 43.3506L205.154 26.8864C210.613 17.6725 215.162 10.1202 215.162 10.1202ZM194.692 35.194C193.782 34.8919 193.024 34.892 192.114 35.3451C191.811 35.4961 191.508 35.6472 191.356 35.9493C191.204 36.1003 191.053 36.2514 191.053 36.2514C190.901 36.2514 186.201 33.3815 186.201 33.2304C186.201 33.2304 186.201 32.9283 186.352 32.7773C186.504 32.3241 186.656 31.4179 186.352 30.9647C186.201 30.3605 185.746 29.9074 185.442 29.6053L185.139 29.3032L191.659 18.5788L198.179 7.85447L198.634 8.00551C198.937 8.15656 199.241 8.15656 199.392 8.15656C200.151 8.15656 201.212 7.85447 201.818 7.25028C201.97 7.09923 202.122 6.94818 202.122 6.94818L202.273 6.79713L204.699 8.30761C207.429 9.96913 207.277 9.81808 206.974 10.4223C206.822 10.8754 206.822 11.4796 206.822 12.0838C206.974 12.688 207.429 13.4432 207.884 13.7453L208.035 13.8964L201.364 24.6207L194.692 35.3451V35.194Z" fill="#297A60"/>
<path d="M201.363 23.4124C201.667 22.6572 201.818 21.5999 201.515 20.6936C201.363 19.7873 201.06 19.1831 200.454 18.5789C200.15 18.1258 199.999 17.9747 199.241 17.5216C198.482 17.0685 198.331 17.0685 197.724 16.9174C196.511 16.6153 195.45 16.7664 194.388 17.3705C192.569 18.2768 191.507 20.5425 191.811 22.5062C192.266 24.9229 194.388 26.5844 196.663 26.4334C198.937 26.4334 200.605 25.225 201.363 23.4124Z" fill="#297A60"/>
<path d="M200.909 24.1676C199.999 25.527 198.483 26.4333 196.966 26.4333C194.54 26.5843 192.569 24.9228 192.114 22.5061C191.811 21.2977 192.114 20.0893 192.721 19.032C193.175 18.2767 193.782 17.6725 194.54 17.2194C195.602 16.7662 196.663 16.6152 197.876 16.7662C198.483 16.9173 198.634 16.9173 199.392 17.3704C200.15 17.8236 200.302 17.9746 200.605 18.4278C201.212 19.183 201.363 19.7872 201.667 20.5424C201.818 21.4487 201.818 22.355 201.515 23.2613C201.212 23.7144 201.06 23.8655 200.909 24.1676ZM208.338 13.8963L208.187 13.7453C207.732 13.5943 207.277 12.839 207.125 12.0838C206.974 11.4796 206.974 10.8754 207.277 10.4223C207.58 9.81807 207.732 9.96912 205.003 8.30759L202.577 6.79712L202.425 6.94817C202.425 6.94817 202.273 7.25026 202.122 7.25026C201.667 7.85445 200.605 8.15655 199.696 8.15655C199.544 8.15655 199.089 8.0055 198.937 8.0055L198.483 7.85445L185.291 29.3032L185.594 29.6053C186.049 29.9074 186.352 30.5116 186.504 30.9647C186.655 31.4178 186.655 32.3241 186.504 32.7773C186.352 32.9283 186.352 33.2304 186.352 33.2304C186.352 33.3815 191.053 36.2514 191.204 36.2514C191.204 36.2514 191.356 36.1003 191.508 35.9493C191.659 35.7982 191.962 35.4961 192.266 35.3451C193.024 34.8919 193.934 34.8919 194.843 35.194L195.298 35.3451L208.338 13.8963Z" fill="#2BAE86"/>
<path d="M200.757 65.5546C200.454 65.5546 200.15 65.7056 200.15 65.7056C200.15 65.7056 200.909 70.086 201.97 75.2216L203.789 84.7376L222.895 81.1124L242 77.4873L240.18 67.9713L238.361 58.4553L219.256 62.0805C210.31 63.742 202.728 65.1014 200.757 65.5546ZM207.58 68.1224L220.014 65.8566L232.447 63.5909L207.58 68.1224ZM209.703 79.602L234.57 74.9195L222.137 77.1852L209.703 79.602Z" fill="#297A60"/>
<path d="M199.696 65.2525C199.696 65.2525 200.454 69.6328 201.515 74.7685L203.335 84.2845L222.44 80.6593L241.545 77.0342L239.726 67.5182L237.906 58.0022L218.801 61.6273C208.338 63.4399 199.847 65.1014 199.696 65.2525ZM232.144 63.4399C232.447 64.3462 233.054 64.9504 233.964 65.2525C234.267 65.4035 234.57 65.4035 234.874 65.4035C235.177 65.4035 235.328 65.4035 235.328 65.4035C235.48 65.5546 236.541 70.9923 236.39 70.9923C236.39 70.9923 236.087 71.1433 235.935 71.1433C235.48 71.2944 234.722 71.8986 234.419 72.3517C234.115 72.8048 233.964 73.409 233.964 74.0132V74.4664L221.53 76.7321L209.097 78.9978L208.945 78.5446C208.793 78.2426 208.642 77.9405 208.49 77.7894C208.035 77.1852 206.974 76.581 206.216 76.581C206.064 76.581 205.761 76.581 205.761 76.581H205.609L205.003 73.7111C204.396 70.5391 204.396 70.8412 205.003 70.6902C205.457 70.5391 205.912 70.086 206.367 69.6328C206.671 69.0287 206.974 68.2734 206.822 67.6692V67.5182L219.256 65.2525L231.689 62.9868L232.144 63.4399Z" fill="#297A60"/>
<path d="M218.952 66.6119C218.194 66.914 217.285 67.5182 216.83 68.2734C216.375 69.0286 216.072 69.6328 215.92 70.3881C215.768 70.9922 215.768 71.1433 215.92 72.0496C216.072 72.9559 216.072 73.1069 216.375 73.5601C216.981 74.6174 217.891 75.3726 218.952 75.6747C220.924 76.4299 223.35 75.6747 224.563 74.0132C226.079 72.0496 225.927 69.4818 224.259 67.6692C222.895 66.3098 220.772 65.8566 218.952 66.6119Z" fill="#297A60"/>
<path d="M219.71 66.3099C221.227 66.0078 223.046 66.4609 224.108 67.6693C225.776 69.3308 225.927 72.0497 224.411 74.0133C223.653 74.9196 222.591 75.6748 221.378 75.8258C220.469 75.9769 219.559 75.9769 218.801 75.6748C217.739 75.2217 216.83 74.6175 216.223 73.5601C215.92 73.107 215.92 72.9559 215.768 72.0497C215.617 71.1434 215.617 70.9923 215.768 70.3881C215.92 69.4819 216.223 68.8777 216.678 68.2735C217.133 67.5182 218.043 66.914 218.801 66.612C219.256 66.4609 219.407 66.3099 219.71 66.3099ZM207.125 67.6693V67.8203C207.277 68.2735 206.974 69.1798 206.67 69.7839C206.367 70.2371 205.761 70.6902 205.306 70.8413C204.699 71.1434 204.699 70.6902 205.306 73.8622L205.912 76.7321H206.064C206.215 76.7321 206.367 76.7321 206.519 76.7321C207.277 76.7321 208.187 77.1853 208.793 77.9405C208.945 78.0916 209.096 78.3936 209.248 78.6957L209.4 79.1489L234.267 74.4664V74.0133C234.267 73.5601 234.419 72.9559 234.722 72.3518C235.025 71.8986 235.632 71.2944 236.238 71.1434C236.39 71.1434 236.693 70.9923 236.693 70.9923C236.845 70.8413 235.783 65.5546 235.632 65.4036C235.632 65.4036 235.328 65.4036 235.177 65.4036C234.873 65.4036 234.57 65.4036 234.267 65.2525C233.357 64.9504 232.751 64.3462 232.447 63.44L232.296 62.9868L207.125 67.6693Z" fill="#2BAE86"/>
<path d="M192.872 64.7993C193.175 64.7993 193.479 64.7993 193.479 64.7993C193.479 64.7993 194.085 60.4189 194.843 55.2833L196.208 45.7673L176.951 43.0484L157.694 40.3296L156.33 49.9966L154.965 59.6637L174.222 62.3825C183.168 63.4398 190.749 64.4972 192.872 64.7993ZM187.262 60.1168L174.677 58.3042L162.091 56.4917L187.262 60.1168ZM188.778 48.6372L163.759 45.1631L176.345 46.9757L188.778 48.6372Z" fill="#297A60"/>
<path d="M193.63 65.5546C193.63 65.5546 194.237 61.1743 194.995 56.0387L196.36 46.5227L177.103 43.8038L157.846 41.085L156.481 50.752L155.116 60.419L174.373 63.1379C184.836 64.3463 193.63 65.5546 193.63 65.5546ZM162.395 56.7939C162.395 55.8876 161.94 55.1324 161.182 54.5282C160.878 54.3771 160.575 54.2261 160.423 54.075C160.12 54.075 159.969 53.924 159.969 53.924C159.969 53.7729 160.727 48.3352 160.727 48.1842C160.727 48.1842 161.03 48.1842 161.182 48.1842C161.637 48.1842 162.546 47.8821 163.001 47.58C163.456 47.2779 163.759 46.6737 163.911 46.2206L164.063 45.7674L176.648 47.58L189.081 49.3926V49.8457C189.081 50.1478 189.081 50.4499 189.233 50.6009C189.536 51.3562 190.294 52.1114 191.053 52.4135C191.204 52.4135 191.356 52.5646 191.507 52.5646H191.659L191.204 55.4345C190.749 58.6065 190.901 58.3044 190.143 58.3044C189.688 58.3044 189.081 58.6065 188.626 58.9086C188.172 59.3617 187.565 60.1169 187.565 60.5701V60.7211L174.98 58.9086L162.395 57.096V56.7939Z" fill="#297A60"/>
<path d="M175.89 58.0021C176.8 58.0021 177.709 57.7 178.468 57.0958C179.226 56.6427 179.681 56.0385 179.984 55.2833C180.287 54.6791 180.287 54.6791 180.439 53.7728C180.59 52.8665 180.59 52.7155 180.439 52.2623C180.135 51.0539 179.529 50.1477 178.771 49.3924C177.103 48.033 174.677 48.033 173.009 49.0903C171.038 50.4498 170.28 53.0176 171.341 55.1322C172.099 56.9448 173.919 58.1532 175.89 58.0021Z" fill="#297A60"/>
<path d="M174.98 58.0023C173.464 57.8512 171.947 56.7939 171.189 55.2834C170.128 53.1687 170.886 50.6009 172.857 49.2415C173.919 48.4863 175.132 48.3352 176.193 48.4863C177.103 48.6373 177.861 48.9394 178.619 49.5436C179.529 50.2988 180.135 51.2051 180.287 52.4135C180.439 53.0177 180.439 53.1687 180.287 53.924C180.135 54.8303 180.135 54.9813 179.832 55.4344C179.377 56.1897 178.922 56.6428 178.316 57.247C177.558 57.7002 176.648 58.0022 175.738 58.1533C175.586 58.0022 175.283 58.0023 174.98 58.0023ZM187.414 60.7211V60.5701C187.414 60.1169 188.02 59.3617 188.475 58.9085C188.93 58.6064 189.536 58.3043 189.991 58.3043C190.749 58.3043 190.598 58.6064 191.053 55.4344L191.508 52.5645H191.356C191.204 52.5645 191.053 52.4135 190.901 52.4135C190.143 52.2624 189.385 51.3562 189.081 50.6009C189.081 50.4499 188.93 49.9967 188.93 49.8457V49.3925L163.911 45.9185L163.759 46.3716C163.608 46.8247 163.305 47.4289 162.85 47.731C162.395 48.0331 161.637 48.4863 161.03 48.3352C160.878 48.3352 160.575 48.3352 160.575 48.3352C160.424 48.3352 159.665 53.7729 159.817 54.075C159.817 54.075 159.969 54.2261 160.272 54.2261C160.575 54.3771 160.878 54.5282 161.03 54.6792C161.788 55.2834 162.091 56.0386 162.243 56.9449V57.3981L187.414 60.7211Z" fill="#2BAE86"/>
<path d="M166.034 110.265H187.869H209.703V120.536H166.034V110.265Z" fill="#E06445"/>
<path d="M115.086 47.882L114.783 48.3352C113.873 49.2415 111.447 49.6946 107.657 49.8457C103.866 49.8457 99.4686 49.3925 94.3132 48.4862C89.4611 47.58 85.822 46.3716 82.941 45.0121C82.0313 44.559 81.2731 44.1059 80.8182 43.8038L80.2117 43.1996C79.9085 42.7464 79.7568 42.4443 79.7568 41.9912L80.0601 41.5381L80.6666 41.0849L81.5764 40.7828L82.6378 40.4807L84.0025 40.3297L85.5187 40.1786C89.0062 40.0276 93.1002 40.3297 98.1039 41.0849C103.108 41.9912 107.202 43.0485 110.386 44.2569C113.57 45.4653 115.086 46.6737 115.086 47.882Z" fill="#3D4F53"/>
</g>
<defs>
<clipPath id="clip0">
<rect width="242" height="137" fill="white"/>
</clipPath>
</defs>
</svg>
