<svg width="168" height="139" viewBox="0 0 168 139" fill="none" xmlns="http://www.w3.org/2000/svg">
<path d="M26.8133 85.1616L39.6537 84.5951C39.6537 84.5951 36.8213 84.2175 33.9888 81.5739C32.1006 79.8744 32.2894 77.4197 32.2894 77.4197H26.8133H21.1485C21.1485 77.4197 21.3373 79.8744 19.449 81.5739C16.6166 84.2175 13.7842 84.5951 13.7842 84.5951L26.6245 85.1616H26.8133Z" fill="#CD412B"/>
<path d="M41.7309 65.7119H40.5979H35.4996H16.8056H11.7072H10.5742V67.0337H11.7072V88.749H16.8056V67.0337H35.4996V88.749H40.5979V67.0337H41.7309V65.7119Z" fill="#CD412B"/>
<path d="M16.8056 67.0342H11.7073V68.356H16.8056V67.0342Z" fill="#9F3123"/>
<path d="M40.5977 67.0342H35.4993V68.356H40.5977V67.0342Z" fill="#9F3123"/>
<path d="M28.7017 73.0764H24.7363V79.1189H28.7017V73.0764Z" fill="#9A7F30"/>
<path d="M32.2893 71.1882H20.3931V73.0765H32.2893V71.1882Z" fill="#A3A38C"/>
<path d="M26.6244 69.8665C25.6803 69.8665 25.1138 70.4329 25.1138 70.9994H28.3239C28.3239 70.4329 27.5686 69.8665 26.6244 69.8665Z" fill="#7A7A6B"/>
<path d="M22.4701 71.1882H21.3372V73.0765H22.4701V71.1882Z" fill="#D2D2B8"/>
<path d="M26.4358 71.1882H24.7363V73.0765H26.4358V71.1882Z" fill="#D2D2B8"/>
<path d="M24.7363 73.0764V73.6429L28.5129 74.9647V73.0764H24.7363Z" fill="#786027"/>
<path d="M27.9465 73.0764H27.1912V79.1189H27.9465V73.0764Z" fill="#786027"/>
<path d="M43.808 130.292C43.808 130.292 41.3533 132.746 40.4091 133.879H34.7443C33.989 132.746 31.3454 130.292 31.3454 130.292H26.8135H26.6247H22.0928C22.0928 130.292 19.638 132.746 18.6939 133.879H12.6514C11.8961 132.746 9.25245 130.292 9.25245 130.292H4.53174V133.879V134.446V138.411H48.3399V134.446V133.879V130.292H43.808Z" fill="#CD412B"/>
<path d="M1.88806 119.906V121.983C1.88806 125.193 2.64337 127.837 3.77634 130.103H49.284C50.6058 128.025 51.1723 125.193 51.1723 121.983V119.906V110.653V101.401V99.3236C51.1723 86.4832 40.2202 82.8955 26.8134 82.8955C13.0289 82.8955 1.69922 86.2944 1.69922 99.3236V101.401V110.653L1.88806 119.906Z" fill="#CD412B"/>
<path d="M51.55 101.401V99.3237C51.55 90.8264 46.8293 86.4834 39.8427 84.4062C44.1857 86.861 47.0181 91.0152 47.0181 97.4354V99.5125V108.765V118.018V120.095C47.0181 123.305 46.2628 125.948 45.1299 128.214H3.20996C3.39879 128.97 3.77645 129.536 4.1541 130.103H49.6617C50.9835 128.026 51.55 125.193 51.55 121.983V119.906V110.653V101.401Z" fill="#9F3123"/>
<path d="M32.8558 77.4197H20.3931V78.9303H32.8558V77.4197Z" fill="#CD412B"/>
<path d="M32.4782 71.1882H31.7229V73.0765H32.4782V71.1882Z" fill="#7A7A6B"/>
<path d="M28.8904 71.1882H27.9463V73.0765H28.8904V71.1882Z" fill="#7A7A6B"/>
<path d="M13.2178 87.4272L17.9385 87.6161C17.9385 87.6161 16.4279 92.7145 16.0502 97.0575C15.8614 99.5123 16.2391 109.143 16.2391 109.143H9.06356C9.06356 109.143 8.87474 98.1905 9.2524 95.9245C10.3854 90.0708 13.2178 87.4272 13.2178 87.4272Z" fill="#F26747"/>
<path d="M16.6166 112.353H9.06348V127.081H16.6166V112.353Z" fill="#F26747"/>
<path d="M1.88818 112.164H51.3612V114.241L1.88818 113.297V112.164Z" fill="#9F3123"/>
<path d="M20.9601 78.9299H32.2898L32.4786 79.8741L20.7712 79.4964L20.9601 78.9299Z" fill="#9F3123"/>
<path d="M53.2496 111.22C53.2496 111.786 52.4943 112.164 51.739 112.164H1.5106C0.566462 112.164 0 111.786 0 111.22V110.276C0 109.709 0.75529 109.332 1.5106 109.332H51.739C52.6831 109.332 53.2496 109.709 53.2496 110.276V111.22Z" fill="#CD412B"/>
<path d="M52.6829 110.087C52.6829 110.275 52.4941 110.464 52.3052 110.464H1.13278C0.94395 110.464 0.755127 110.275 0.755127 110.087C0.755127 109.898 0.94395 109.709 1.13278 109.709H52.3052C52.4941 109.709 52.6829 109.898 52.6829 110.087Z" fill="#F26747"/>
<path d="M21.3371 65.9009H12.8398V66.6562H21.3371V65.9009Z" fill="#F26747"/>
<path d="M48.5288 136.901H4.7207V138.6H48.5288V136.901Z" fill="#9F3123"/>
<path d="M48.5285 130.292H45.5073V138.411H48.5285V130.292Z" fill="#9F3123"/>
<path d="M12.0847 86.6721L17.1831 84.2173H36.8212L41.542 86.6721H12.0847Z" fill="#EA573A"/>
<path d="M100.645 130.292C100.645 130.292 98.1905 132.746 97.2464 133.879H91.3927C90.6374 132.746 87.9938 130.292 87.9938 130.292H83.4619H83.2731H78.7412C78.7412 130.292 76.2864 132.746 75.3423 133.879H69.2998C68.5445 132.746 65.9009 130.292 65.9009 130.292H61.1802V133.879V134.446V138.411H104.988V134.446V133.879V130.292H100.645Z" fill="#CD412B"/>
<path d="M105.366 136.901H61.5579V138.6H105.366V136.901Z" fill="#9F3123"/>
<path d="M105.366 130.292H102.345V138.411H105.366V130.292Z" fill="#9F3123"/>
<path d="M108.388 77.9858H58.5369V109.709H108.388V77.9858Z" fill="#CD412B"/>
<path d="M58.7253 80.8182H108.198V79.3076V70.055V67.9779C108.198 55.1376 97.2463 51.5498 83.8395 51.5498C70.055 51.5498 58.7253 54.9487 58.7253 67.9779V70.055V79.3076V80.8182Z" fill="#CD412B"/>
<path d="M83.4618 54.0049L96.3021 53.4384C96.3021 53.4384 93.4697 53.0608 90.6373 50.4172C88.749 48.7177 88.9378 46.2629 88.9378 46.2629H83.4618H77.7969C77.7969 46.2629 77.9858 48.7177 76.0975 50.4172C73.265 53.0608 70.4326 53.4384 70.4326 53.4384L83.273 54.0049H83.4618Z" fill="#CD412B"/>
<path d="M98.5683 34.3667H97.4354H92.337H73.643H68.5446H67.4116V35.8773H68.5446V57.4038H73.643V35.8773H92.337V57.4038H97.4354V35.8773H98.5683V34.3667Z" fill="#CD412B"/>
<path d="M73.6428 35.8774H68.5444V37.1992H73.6428V35.8774Z" fill="#9F3123"/>
<path d="M97.4353 35.8774H92.3369V37.1992H97.4353V35.8774Z" fill="#9F3123"/>
<path d="M85.5391 41.7307H81.5737V47.7732H85.5391V41.7307Z" fill="#9A7F30"/>
<path d="M89.1269 39.8425H77.2307V41.7308H89.1269V39.8425Z" fill="#A3A38C"/>
<path d="M83.462 38.7097C82.5179 38.7097 81.9514 39.2762 81.9514 39.8427H85.1615C85.1615 39.2762 84.4062 38.7097 83.462 38.7097Z" fill="#7A7A6B"/>
<path d="M79.3078 39.8425H78.1748V41.7308H79.3078V39.8425Z" fill="#D2D2B8"/>
<path d="M83.2732 39.8425H81.5737V41.7308H83.2732V39.8425Z" fill="#D2D2B8"/>
<path d="M81.5737 41.7307V42.486L85.3503 43.619V41.7307H81.5737Z" fill="#786027"/>
<path d="M84.7839 41.7307H84.0286V47.7732H84.7839V41.7307Z" fill="#786027"/>
<path d="M108.387 70.2441V68.1669C108.387 59.6697 103.667 55.3266 96.6799 53.2495C101.023 55.7043 103.855 59.8585 103.855 66.2787V68.3558V77.6084V81.1961L108.387 81.0073V79.4966V70.2441Z" fill="#9F3123"/>
<path d="M89.6934 46.2629H77.2307V47.7735H89.6934V46.2629Z" fill="#CD412B"/>
<path d="M89.3156 39.8425H88.5603V41.7308H89.3156V39.8425Z" fill="#7A7A6B"/>
<path d="M85.7278 39.8425H84.7837V41.7308H85.7278V39.8425Z" fill="#7A7A6B"/>
<path d="M70.0555 56.082L74.7762 56.2708C74.7762 56.2708 73.2655 61.3692 72.8879 65.7123C72.699 68.167 73.0767 77.7973 73.0767 77.7973H65.9012C65.9012 77.7973 65.7124 66.8452 66.09 64.5793C67.223 58.9145 70.0555 56.082 70.0555 56.082Z" fill="#F26747"/>
<path d="M77.7969 47.7732H89.1266L89.3155 48.7173L77.6082 48.1509L77.7969 47.7732Z" fill="#9F3123"/>
<path d="M110.087 79.8741C110.087 80.4406 109.331 80.8183 108.576 80.8183H58.3478C57.4036 80.8183 56.8372 80.4406 56.8372 79.8741V78.93C56.8372 78.3635 57.5924 77.9858 58.3478 77.9858H108.576C109.52 77.9858 110.087 78.3635 110.087 78.93V79.8741Z" fill="#CD412B"/>
<path d="M109.521 78.9299C109.521 79.1187 109.332 79.3076 109.143 79.3076H57.9704C57.7816 79.3076 57.5928 79.1187 57.5928 78.9299C57.5928 78.7411 57.7816 78.5522 57.9704 78.5522H109.143C109.332 78.5522 109.521 78.7411 109.521 78.9299Z" fill="#F26747"/>
<path d="M78.1748 34.7441H69.6775V35.4994H78.1748V34.7441Z" fill="#F26747"/>
<path d="M97.4355 55.3264V54.9487L98.3796 55.3264H97.4355ZM73.6431 55.5152V53.627L83.2733 54.0046H83.4621H83.6509L92.3371 53.627V55.3264L73.6431 55.5152Z" fill="#EA573A"/>
<path d="M83.4621 54.0048H83.2733L73.6431 53.6271V53.0606L74.0207 52.8718H92.3371V53.6271L83.4621 54.0048Z" fill="#EA573A"/>
<path d="M92.3371 55.3264V53.4382V52.6829H93.6589L97.4355 54.5711V54.9488L92.3371 55.3264ZM68.9224 55.5153L73.6431 53.0605V53.627V55.5153H68.9224Z" fill="#EA573A"/>
<path d="M58.7253 80.8181H108.198V83.0841L58.7253 81.9511V80.8181Z" fill="#9F3123"/>
<path d="M108.198 109.332H58.7253V110.842V120.095V122.172C58.7253 125.382 59.4807 128.026 60.6136 130.292H106.121C107.443 128.214 108.009 125.382 108.009 122.172V120.095V110.842L108.198 109.332Z" fill="#CD412B"/>
<path d="M103.667 112.353V118.206V120.283C103.667 123.494 102.911 126.137 101.778 128.403H59.8584C60.0472 129.158 60.4249 129.725 60.8025 130.291H106.31C107.632 128.214 108.198 125.382 108.198 122.172V120.095V112.164L103.667 112.353Z" fill="#9F3123"/>
<path d="M73.454 112.353H65.9009V127.081H73.454V112.353Z" fill="#F26747"/>
<path d="M58.7253 112.164H108.198V114.43L58.7253 113.297V112.164Z" fill="#9F3123"/>
<path d="M110.087 111.22C110.087 111.786 109.331 112.164 108.576 112.164H58.3478C57.4036 112.164 56.8372 111.786 56.8372 111.22V110.276C56.8372 109.709 57.5924 109.332 58.3478 109.332H108.576C109.52 109.332 110.087 109.709 110.087 110.276V111.22Z" fill="#CD412B"/>
<path d="M109.521 110.087C109.521 110.275 109.332 110.464 109.143 110.464H57.9704C57.7816 110.464 57.5928 110.275 57.5928 110.087C57.5928 109.898 57.7816 109.709 57.9704 109.709H109.143C109.332 109.898 109.521 109.898 109.521 110.087Z" fill="#F26747"/>
<path d="M107.821 101.967H103.667V104.611H107.821V101.967Z" fill="#9F3123"/>
<path d="M70.2439 109.332H65.9009V82.1404L70.2439 82.3292V109.332Z" fill="#F26747"/>
<path d="M157.483 130.292C157.483 130.292 155.028 132.746 154.084 133.879H148.23C147.475 132.746 144.831 130.292 144.831 130.292H140.488H140.299H135.767C135.767 130.292 133.313 132.746 132.368 133.879H126.326C125.571 132.746 122.927 130.292 122.927 130.292H118.206V133.879V134.446V138.411H162.014V134.446V133.879V130.292H157.483Z" fill="#CD412B"/>
<path d="M162.203 136.901H118.395V138.6H162.203V136.901Z" fill="#9F3123"/>
<path d="M162.203 130.292H159.182V138.411H162.203V130.292Z" fill="#9F3123"/>
<path d="M165.036 38.7097H115.563V119.906H165.036V38.7097Z" fill="#CD412B"/>
<path d="M115.563 46.4515H165.036V44.9409V35.6883V33.6112C165.036 20.7708 154.084 17.1831 140.677 17.1831C126.892 17.1831 115.563 20.582 115.563 33.6112V35.6883V44.9409V46.4515Z" fill="#CD412B"/>
<path d="M140.488 19.6377L153.329 19.0712C153.329 19.0712 150.496 18.6936 147.664 16.05C145.776 14.3505 145.964 11.8958 145.964 11.8958H140.488H134.824C134.824 11.8958 135.012 14.3505 133.124 16.05C130.292 18.6936 127.459 19.0712 127.459 19.0712L140.3 19.6377H140.488Z" fill="#CD412B"/>
<path d="M155.594 0H154.272H149.174H130.48H125.382H124.249V1.32181H125.382V23.0371H130.48V1.32181H149.174V23.0371H154.272V1.32181H155.594V0Z" fill="#CD412B"/>
<path d="M142.376 7.36401H138.411V13.4065H142.376V7.36401Z" fill="#9A7F30"/>
<path d="M141.621 7.36401H140.866V13.4065H141.621V7.36401Z" fill="#786027"/>
<path d="M165.036 33.6113C165.036 25.114 160.315 20.771 153.329 18.6938C157.672 21.1486 160.504 25.3028 160.504 31.723V43.2415V46.8293L165.036 46.6405V45.1298V33.6113Z" fill="#9F3123"/>
<path d="M146.531 11.8958H134.068V13.4064H146.531V11.8958Z" fill="#CD412B"/>
<path d="M126.892 21.7153L131.613 21.9041C131.613 21.9041 130.102 27.0025 129.725 31.3456C129.536 33.8003 129.914 43.4306 129.914 43.4306H122.738C122.738 43.4306 122.549 32.4785 122.927 30.2126C124.06 24.3589 126.892 21.7153 126.892 21.7153Z" fill="#F26747"/>
<path d="M115.563 46.4514H165.225V48.7174L115.563 47.5844V46.4514Z" fill="#9F3123"/>
<path d="M134.634 13.4065H145.964L146.153 14.1618L134.634 13.7841V13.4065Z" fill="#9F3123"/>
<path d="M167.113 45.5074C167.113 46.0739 166.357 46.4516 165.602 46.4516H115.374C114.43 46.4516 113.863 46.0739 113.863 45.5074V44.5633C113.863 43.9968 114.618 43.6191 115.374 43.6191H165.602C166.546 43.6191 167.113 43.9968 167.113 44.5633V45.5074Z" fill="#CD412B"/>
<path d="M166.357 44.3743C166.357 44.5631 166.169 44.7519 165.98 44.7519H114.807C114.618 44.7519 114.43 44.5631 114.43 44.3743C114.43 44.1854 114.618 43.9966 114.807 43.9966H165.98C166.169 43.9966 166.357 44.1854 166.357 44.3743Z" fill="#F26747"/>
<path d="M130.48 20.9596V19.0713L140.11 19.6378H140.299H140.488L149.174 19.0713V20.9596H130.48Z" fill="#EA573A"/>
<path d="M140.488 19.6379H140.299H140.11L130.48 19.0714V18.6937L130.858 18.5049H149.174V19.0714L140.488 19.6379Z" fill="#EA573A"/>
<path d="M154.273 20.9596V20.3931L155.217 20.9596H154.273Z" fill="#EA573A"/>
<path d="M149.174 20.9597V19.2602V18.5049H150.496L154.273 20.3932V20.7708L149.174 20.9597ZM125.76 20.9597L130.48 18.5049V19.0714V20.9597H125.76Z" fill="#EA573A"/>
<path d="M129.725 108.576H122.172V47.7732H129.536L129.725 108.576Z" fill="#F26747"/>
<path d="M165.225 109.142H115.751V110.653V119.906V121.983C115.751 125.193 116.507 127.836 117.64 130.102H163.147C164.469 128.025 165.036 125.193 165.036 121.983V119.906V110.653L165.225 109.142Z" fill="#CD412B"/>
<path d="M160.504 112.164V118.017V120.094C160.504 123.305 159.748 125.948 158.615 128.214H116.696C116.884 128.969 117.262 129.536 117.64 130.102H163.147C164.469 128.025 165.036 125.193 165.036 121.983V119.906V111.975L160.504 112.164Z" fill="#9F3123"/>
<path d="M130.292 112.353H122.739V127.081H130.292V112.353Z" fill="#F26747"/>
<path d="M115.563 112.164H165.036V114.241L115.563 113.297V112.164Z" fill="#9F3123"/>
<path d="M167.113 111.22C167.113 111.786 166.357 112.164 165.602 112.164H115.374C114.43 112.164 113.863 111.786 113.863 111.22V110.276C113.863 109.709 114.618 109.332 115.374 109.332H165.602C166.546 109.332 167.113 109.709 167.113 110.276V111.22Z" fill="#CD412B"/>
<path d="M166.357 110.087C166.357 110.275 166.169 110.464 165.98 110.464H114.807C114.618 110.464 114.43 110.275 114.43 110.087C114.43 109.898 114.618 109.709 114.807 109.709H165.98C166.169 109.709 166.357 109.898 166.357 110.087Z" fill="#F26747"/>
<path d="M165.225 47.7732H160.882V109.142H165.225V47.7732Z" fill="#9F3123"/>
</svg>
