<svg width="152" height="174" viewBox="0 0 152 174" fill="none" xmlns="http://www.w3.org/2000/svg">
<g clip-path="url(#clip0)">
<path d="M21.2292 0.425954C21.6537 0.21298 22.0783 0.425954 22.5029 0.425954C52.2236 0.425954 82.1565 0.425954 111.877 0.425954C113.151 0.425954 114.212 1.49083 114.637 2.76867C114.849 3.19462 114.637 3.62057 114.637 4.25949C114.637 4.68544 114.637 4.89841 114.849 5.32436C121.006 18.7417 127.374 32.3721 133.531 46.2154C133.743 46.6414 133.319 47.0673 133.106 47.4933C132.469 48.5581 131.62 49.41 130.771 50.2619C129.71 51.3268 128.648 52.1787 127.587 52.6047C125.252 53.8825 122.279 54.0955 119.732 53.2436C118.246 52.8176 116.76 51.9657 115.486 50.9009C115.486 50.9009 115.486 50.9009 115.274 50.6879C112.726 35.7797 109.967 20.8715 107.419 5.96329C101.9 5.96329 96.1677 5.96329 90.6482 5.96329C92.1342 20.8715 93.6202 35.7797 95.1063 50.6879C93.8325 51.7528 92.5588 52.8176 91.0727 53.4566C88.1007 54.7344 84.704 54.7344 81.9442 53.2436C80.6705 52.6047 79.6091 51.5398 78.3353 50.6879C77.4862 37.0575 76.637 23.2142 76.0001 9.58385C76.0001 8.306 75.7878 7.02816 75.7878 5.96329C69.6314 5.96329 63.475 5.96329 57.5308 5.96329C57.1063 20.8715 56.6817 35.7797 56.4694 50.6879C55.4079 51.5398 54.3465 52.3917 53.0727 53.0306C49.6761 55.1604 45.218 55.1604 41.8213 53.0306C40.7599 52.3917 39.6984 51.5398 38.4247 50.6879C38.4247 50.6879 38.4247 50.6879 38.637 50.6879C39.6984 35.7797 40.9722 20.8715 42.0336 5.96329C36.5141 5.96329 30.9945 5.96329 25.475 5.96329C23.1398 20.8715 21.0169 35.7797 18.6817 50.6879C16.5588 52.8176 13.3744 53.8825 10.4023 53.6695C8.27944 53.4566 5.94425 52.6047 4.45821 51.1138C3.18447 50.049 1.91073 48.7711 0.849274 47.4933C0.636983 47.0673 0.212402 46.6414 0.212402 46.2154C6.58112 32.3721 12.7375 18.7417 19.1063 4.89841C19.1063 4.68544 19.1063 4.25949 19.1063 4.04652C19.1063 3.40759 19.1063 2.76867 19.3185 2.12975C19.5308 1.27785 20.38 0.638928 21.2292 0.425954Z" fill="#E32C2A"/>
<path d="M21.2292 0.425954C21.6537 0.21298 22.0783 0.425954 22.5029 0.425954C52.2236 0.425954 82.1565 0.425954 111.877 0.425954C113.151 0.425954 114.212 1.49083 114.637 2.76867C114.849 3.19462 114.637 3.62057 114.637 4.25949C114.637 4.68544 114.637 4.89841 114.849 5.32436C121.006 18.7417 127.374 32.3721 133.531 46.2154C133.743 46.6414 133.319 47.0673 133.106 47.4933C132.469 48.5581 131.62 49.41 130.771 50.2619C129.71 51.3268 128.648 52.1787 127.587 52.6047C125.252 53.8825 122.279 54.0955 119.732 53.2436C118.246 52.8176 116.76 51.9657 115.486 50.9009C115.486 50.9009 115.486 50.9009 115.274 50.6879C112.726 35.7797 109.967 20.8715 107.419 5.96329C101.9 5.96329 96.1677 5.96329 90.6482 5.96329C92.1342 20.8715 93.6202 35.7797 95.1063 50.6879C93.8325 51.7528 92.5588 52.8176 91.0727 53.4566C88.1007 54.7344 84.704 54.7344 81.9442 53.2436C80.6705 52.6047 79.6091 51.5398 78.3353 50.6879C77.4862 37.0575 76.637 23.2142 76.0001 9.58385C76.0001 8.306 75.7878 7.02816 75.7878 5.96329C69.6314 5.96329 63.475 5.96329 57.5308 5.96329C57.1063 20.8715 56.6817 35.7797 56.4694 50.6879C55.4079 51.5398 54.3465 52.3917 53.0727 53.0306C49.6761 55.1604 45.218 55.1604 41.8213 53.0306C40.7599 52.3917 39.6984 51.5398 38.4247 50.6879C38.4247 50.6879 38.4247 50.6879 38.637 50.6879C39.6984 35.7797 40.9722 20.8715 42.0336 5.96329C36.5141 5.96329 30.9945 5.96329 25.475 5.96329C23.1398 20.8715 21.0169 35.7797 18.6817 50.6879C16.5588 52.8176 13.3744 53.8825 10.4023 53.6695C8.27944 53.4566 5.94425 52.6047 4.45821 51.1138C3.18447 50.049 1.91073 48.7711 0.849274 47.4933C0.636983 47.0673 0.212402 46.6414 0.212402 46.2154C6.58112 32.3721 12.7375 18.7417 19.1063 4.89841C19.1063 4.68544 19.1063 4.25949 19.1063 4.04652C19.1063 3.40759 19.1063 2.76867 19.3185 2.12975C19.5308 1.27785 20.38 0.638928 21.2292 0.425954Z" stroke="#E32C2A" stroke-width="0.3"/>
<path d="M18.894 50.9009C21.2292 35.9927 23.3521 21.0845 25.6873 6.17627C31.2069 6.17627 36.7264 6.17627 42.246 6.17627C41.1845 21.0845 39.9108 35.9927 38.8494 50.9009C38.8494 50.9009 38.8494 50.9009 38.6371 50.9009C37.3633 51.7528 35.8773 52.8176 34.3913 53.4566C31.4192 54.7344 27.8102 54.9474 24.6259 54.0955C23.1399 53.6695 21.8661 53.0306 20.5924 52.1787C20.1678 51.7528 19.5309 51.5398 19.1063 51.1138C19.1063 50.9009 18.894 50.9009 18.894 50.9009Z" fill="white"/>
<path d="M18.894 50.9009C21.2292 35.9927 23.3521 21.0845 25.6873 6.17627C31.2069 6.17627 36.7264 6.17627 42.246 6.17627C41.1845 21.0845 39.9108 35.9927 38.8494 50.9009C38.8494 50.9009 38.8494 50.9009 38.6371 50.9009C37.3633 51.7528 35.8773 52.8176 34.3913 53.4566C31.4192 54.7344 27.8102 54.9474 24.6259 54.0955C23.1399 53.6695 21.8661 53.0306 20.5924 52.1787C20.1678 51.7528 19.5309 51.5398 19.1063 51.1138C19.1063 50.9009 18.894 50.9009 18.894 50.9009Z" stroke="white" stroke-width="0.3"/>
<path d="M57.5309 5.96313H75.7879C75.7879 7.24098 76.0002 8.51883 76.0002 9.5837C76.8494 23.2141 77.6985 37.0574 78.3354 50.6877C77.274 51.3267 76.4248 51.9656 75.3633 52.6045C72.8159 54.3083 69.8438 54.9472 66.6594 54.9472C64.7488 54.9472 63.0505 54.3083 61.3522 53.6694C60.0784 53.0305 59.017 52.3915 57.9555 51.7526C57.5309 51.5396 56.8941 51.1137 56.4695 50.9007C56.8941 35.7795 57.3186 20.8713 57.5309 5.96313Z" fill="white"/>
<path d="M57.5309 5.96313H75.7879C75.7879 7.24098 76.0002 8.51883 76.0002 9.5837C76.8494 23.2141 77.6985 37.0574 78.3354 50.6877C77.274 51.3267 76.4248 51.9656 75.3633 52.6045C72.8159 54.3083 69.8438 54.9472 66.6594 54.9472C64.7488 54.9472 63.0505 54.3083 61.3522 53.6694C60.0784 53.0305 59.017 52.3915 57.9555 51.7526C57.5309 51.5396 56.8941 51.1137 56.4695 50.9007C56.8941 35.7795 57.3186 20.8713 57.5309 5.96313Z" stroke="white" stroke-width="0.3"/>
<path d="M90.8604 5.96313C96.3799 5.96313 102.112 5.96313 107.631 5.96313C110.179 20.8713 112.939 35.7795 115.486 50.6877C115.274 50.9007 114.849 51.1137 114.637 51.3267C113.363 52.1786 112.302 53.0305 110.816 53.4564C110.179 53.6694 109.754 53.8824 109.117 54.0953C105.721 54.9472 101.687 54.5213 98.5028 52.8175C97.4414 52.1786 96.3799 51.3267 95.3185 50.6877C93.8324 35.7795 92.3464 20.8713 90.8604 5.96313Z" fill="white"/>
<path d="M90.8604 5.96313C96.3799 5.96313 102.112 5.96313 107.631 5.96313C110.179 20.8713 112.939 35.7795 115.486 50.6877C115.274 50.9007 114.849 51.1137 114.637 51.3267C113.363 52.1786 112.302 53.0305 110.816 53.4564C110.179 53.6694 109.754 53.8824 109.117 54.0953C105.721 54.9472 101.687 54.5213 98.5028 52.8175C97.4414 52.1786 96.3799 51.3267 95.3185 50.6877C93.8324 35.7795 92.3464 20.8713 90.8604 5.96313Z" stroke="white" stroke-width="0.3"/>
<path d="M95.3185 50.9009C96.38 51.5398 97.4414 52.3917 98.5029 53.0306C101.687 54.7344 105.508 55.1604 109.117 54.3085C109.117 54.9474 109.117 55.5863 109.117 56.2252C105.508 57.2901 101.475 56.6512 98.2906 54.7344C97.866 54.5214 97.2291 54.5214 96.8045 54.5214C96.38 54.5214 95.7431 54.5214 95.3185 54.5214C94.2571 55.3733 93.1956 56.4382 91.9219 57.0771C90.4358 57.929 88.5252 58.355 86.8269 58.355C84.704 58.355 82.5811 57.7161 80.8828 56.4382C80.0336 55.7993 79.3967 55.3733 78.7598 54.7344C78.5476 54.5214 78.3353 54.5214 78.123 54.5214C77.4861 54.5214 76.6369 54.5214 76.0001 54.5214C75.7878 54.5214 75.5755 54.5214 75.3632 54.7344C73.8772 55.5863 72.3911 56.2252 70.6928 56.6512C69.4191 56.8642 68.1453 57.0771 66.8716 57.0771C66.8716 56.4382 66.8716 55.7993 66.8716 55.1604C69.8436 55.3733 73.028 54.5214 75.5755 52.8176C76.6369 52.1787 77.4861 51.5398 78.5476 50.9009C79.8213 51.7528 80.8828 52.8176 82.1565 53.4566C84.9163 54.9474 88.3129 54.9474 91.285 53.6695C92.771 52.8177 94.0448 51.7528 95.3185 50.9009Z" fill="#367391"/>
<path d="M95.3185 50.9009C96.38 51.5398 97.4414 52.3917 98.5029 53.0306C101.687 54.7344 105.508 55.1604 109.117 54.3085C109.117 54.9474 109.117 55.5863 109.117 56.2252C105.508 57.2901 101.475 56.6512 98.2906 54.7344C97.866 54.5214 97.2291 54.5214 96.8045 54.5214C96.38 54.5214 95.7431 54.5214 95.3185 54.5214C94.2571 55.3733 93.1956 56.4382 91.9219 57.0771C90.4358 57.929 88.5252 58.355 86.8269 58.355C84.704 58.355 82.5811 57.7161 80.8828 56.4382C80.0336 55.7993 79.3967 55.3733 78.7598 54.7344C78.5476 54.5214 78.3353 54.5214 78.123 54.5214C77.4861 54.5214 76.6369 54.5214 76.0001 54.5214C75.7878 54.5214 75.5755 54.5214 75.3632 54.7344C73.8772 55.5863 72.3911 56.2252 70.6928 56.6512C69.4191 56.8642 68.1453 57.0771 66.8716 57.0771C66.8716 56.4382 66.8716 55.7993 66.8716 55.1604C69.8436 55.3733 73.028 54.5214 75.5755 52.8176C76.6369 52.1787 77.4861 51.5398 78.5476 50.9009C79.8213 51.7528 80.8828 52.8176 82.1565 53.4566C84.9163 54.9474 88.3129 54.9474 91.285 53.6695C92.771 52.8177 94.0448 51.7528 95.3185 50.9009Z" stroke="#367391" stroke-width="0.3"/>
<path d="M34.6035 53.4566C36.0895 52.8176 37.3633 51.7528 38.8493 50.9009C39.9108 51.7528 40.9722 52.3917 42.246 53.2436C45.6426 55.3733 50.1007 55.3733 53.4974 53.2436C54.5588 52.3917 55.8325 51.7528 56.894 50.9009C57.3186 51.1139 57.9555 51.5398 58.38 51.7528C59.4415 52.3917 60.7152 53.0306 61.7767 53.6695C63.475 54.5214 65.1733 54.9474 67.0839 54.9474C67.0839 55.5863 67.0839 56.2252 67.0839 56.8642C64.5365 56.8642 62.2013 56.0123 60.0784 54.5214C59.6538 54.3085 59.4415 54.3085 59.0169 54.3085C58.38 54.3085 57.7432 54.3085 57.1063 54.3085C56.6817 54.3085 56.4694 54.5214 56.2571 54.7344C55.408 55.3733 54.3465 56.2252 53.4974 56.8642C51.799 57.929 49.6761 58.568 47.5532 58.568C45.6426 58.568 43.732 57.929 42.0337 56.6512C41.1845 56.0123 40.3353 55.3733 39.6985 54.7344C39.4862 54.5214 39.0616 54.3085 38.8493 54.0955C38.2124 54.0955 37.7879 54.0955 37.151 54.0955C36.7264 54.0955 36.3018 54.0955 35.8772 54.3085C32.4806 56.2252 28.4471 56.6512 24.8381 55.5863C24.8381 54.9474 24.8381 54.3085 24.8381 53.6695C27.8102 54.9474 31.4191 54.7344 34.6035 53.4566Z" fill="#25678A"/>
<path d="M34.6035 53.4566C36.0895 52.8176 37.3633 51.7528 38.8493 50.9009C39.9108 51.7528 40.9722 52.3917 42.246 53.2436C45.6426 55.3733 50.1007 55.3733 53.4974 53.2436C54.5588 52.3917 55.8325 51.7528 56.894 50.9009C57.3186 51.1139 57.9555 51.5398 58.38 51.7528C59.4415 52.3917 60.7152 53.0306 61.7767 53.6695C63.475 54.5214 65.1733 54.9474 67.0839 54.9474C67.0839 55.5863 67.0839 56.2252 67.0839 56.8642C64.5365 56.8642 62.2013 56.0123 60.0784 54.5214C59.6538 54.3085 59.4415 54.3085 59.0169 54.3085C58.38 54.3085 57.7432 54.3085 57.1063 54.3085C56.6817 54.3085 56.4694 54.5214 56.2571 54.7344C55.408 55.3733 54.3465 56.2252 53.4974 56.8642C51.799 57.929 49.6761 58.568 47.5532 58.568C45.6426 58.568 43.732 57.929 42.0337 56.6512C41.1845 56.0123 40.3353 55.3733 39.6985 54.7344C39.4862 54.5214 39.0616 54.3085 38.8493 54.0955C38.2124 54.0955 37.7879 54.0955 37.151 54.0955C36.7264 54.0955 36.3018 54.0955 35.8772 54.3085C32.4806 56.2252 28.4471 56.6512 24.8381 55.5863C24.8381 54.9474 24.8381 54.3085 24.8381 53.6695C27.8102 54.9474 31.4191 54.7344 34.6035 53.4566Z" stroke="#25678A" stroke-width="0.3"/>
<path d="M19.1062 50.9009C19.5308 51.3268 20.1677 51.5398 20.5922 51.9658C21.866 52.8176 23.1397 53.4566 24.6258 53.8825C24.6258 54.5214 24.6258 55.1604 24.6258 55.7993V136.091C24.6258 136.517 25.0503 137.155 25.4749 136.943H66.8716C66.8716 138.646 66.8716 140.35 66.8716 142.054C64.961 142.054 63.2626 142.48 61.7766 143.758C60.5029 144.823 59.6537 146.1 59.0168 147.591C58.3799 149.295 58.5922 151.212 59.0168 152.916C59.6537 154.619 60.9274 156.11 62.6258 157.175C63.8995 157.814 65.3855 158.24 66.6593 158.24C66.6593 159.731 66.6593 161.009 66.6593 162.499H29.0839C28.0224 162.499 27.1732 162.499 26.1118 162.499C24.4135 162.286 22.7151 161.435 21.6537 160.157C20.1677 158.453 19.1062 156.323 19.1062 154.193C19.1062 120.543 19.1062 86.6806 19.1062 53.0306C19.1062 52.3917 19.1062 51.7528 19.1062 50.9009Z" fill="#1B2326"/>
<path d="M19.1062 50.9009C19.5308 51.3268 20.1677 51.5398 20.5922 51.9658C21.866 52.8176 23.1397 53.4566 24.6258 53.8825C24.6258 54.5214 24.6258 55.1604 24.6258 55.7993V136.091C24.6258 136.517 25.0503 137.155 25.4749 136.943H66.8716C66.8716 138.646 66.8716 140.35 66.8716 142.054C64.961 142.054 63.2626 142.48 61.7766 143.758C60.5029 144.823 59.6537 146.1 59.0168 147.591C58.3799 149.295 58.5922 151.212 59.0168 152.916C59.6537 154.619 60.9274 156.11 62.6258 157.175C63.8995 157.814 65.3855 158.24 66.6593 158.24C66.6593 159.731 66.6593 161.009 66.6593 162.499H29.0839C28.0224 162.499 27.1732 162.499 26.1118 162.499C24.4135 162.286 22.7151 161.435 21.6537 160.157C20.1677 158.453 19.1062 156.323 19.1062 154.193C19.1062 120.543 19.1062 86.6806 19.1062 53.0306C19.1062 52.3917 19.1062 51.7528 19.1062 50.9009Z" stroke="#1B2326" stroke-width="0.3"/>
<path d="M114.425 51.5395C114.637 51.5395 114.637 51.3265 114.425 51.5395V85.8283C114.425 95.4122 114.425 104.996 114.425 114.58C114 113.941 113.363 113.302 112.939 112.663C111.877 111.385 110.391 110.746 108.905 110.959C108.905 92.6435 108.905 74.3277 108.905 56.0119C109.754 55.799 110.603 55.373 111.453 54.9471C111.877 54.7341 112.089 54.5211 112.514 54.3081C113.151 54.3081 113.575 54.3081 114.212 54.3081C114.637 53.4562 114.637 52.3914 114.425 51.5395Z" fill="#32393C"/>
<path d="M114.425 51.5395C114.637 51.5395 114.637 51.3265 114.425 51.5395V85.8283C114.425 95.4122 114.425 104.996 114.425 114.58C114 113.941 113.363 113.302 112.939 112.663C111.877 111.385 110.391 110.746 108.905 110.959C108.905 92.6435 108.905 74.3277 108.905 56.0119C109.754 55.799 110.603 55.373 111.453 54.9471C111.877 54.7341 112.089 54.5211 112.514 54.3081C113.151 54.3081 113.575 54.3081 114.212 54.3081C114.637 53.4562 114.637 52.3914 114.425 51.5395Z" stroke="#32393C" stroke-width="0.3"/>
<path d="M110.816 53.6698C112.089 53.2438 113.363 52.3919 114.637 51.54C114.637 52.6049 114.637 53.4568 114.637 54.5217C114 54.5217 113.575 54.5217 112.939 54.5217C112.514 54.7347 112.302 54.9476 111.877 55.1606C111.028 55.5865 110.179 56.0125 109.33 56.2255C109.33 55.5865 109.33 54.9476 109.33 54.3087C109.754 53.8828 110.179 53.8828 110.816 53.6698Z" fill="#303436"/>
<path d="M110.816 53.6698C112.089 53.2438 113.363 52.3919 114.637 51.54C114.637 52.6049 114.637 53.4568 114.637 54.5217C114 54.5217 113.575 54.5217 112.939 54.5217C112.514 54.7347 112.302 54.9476 111.877 55.1606C111.028 55.5865 110.179 56.0125 109.33 56.2255C109.33 55.5865 109.33 54.9476 109.33 54.3087C109.754 53.8828 110.179 53.8828 110.816 53.6698Z" stroke="#303436" stroke-width="0.3"/>
<path d="M35.665 54.5216C36.0896 54.3086 36.5142 54.3086 36.9388 54.3086C37.5756 54.3086 38.0002 54.3086 38.6371 54.3086C39.0617 54.5216 39.274 54.7345 39.4862 54.9475C40.3354 55.5864 40.9723 56.2254 41.8214 56.8643C43.3075 57.9292 45.2181 58.5681 47.341 58.7811C49.4639 58.7811 51.5868 58.1421 53.2851 57.0773C54.3466 56.4383 55.1957 55.5864 56.0449 54.9475C56.2572 54.7345 56.4695 54.5216 56.8941 54.5216C57.5309 54.5216 58.1678 54.5216 58.8047 54.5216C59.2293 54.5216 59.6538 54.5216 59.8661 54.7345C61.989 56.0124 64.3242 56.8643 66.8717 57.0773C66.8717 60.4848 66.8717 64.1054 66.8717 67.513C66.2348 67.513 65.598 67.513 64.9611 67.513C65.598 70.4946 66.2348 73.2633 66.8717 76.2449C66.8717 83.0601 66.8717 89.8753 66.8717 96.4775C66.8717 97.1164 66.8717 97.9683 66.8717 98.6072C66.0226 98.1813 65.598 97.1164 65.598 96.2645C65.598 94.1348 65.598 92.218 65.598 90.0883V85.1899H62.4136C62.4136 88.1715 62.4136 91.1531 62.4136 94.1348C62.4136 95.1997 62.4136 96.4775 62.6259 97.5424C62.6259 98.3943 63.0505 99.0332 63.4751 99.6721C64.3242 100.95 65.8103 101.589 67.084 101.589C67.084 104.145 67.084 106.487 67.084 109.043C67.084 109.469 67.084 109.682 67.084 110.108C66.6594 112.664 66.0226 115.006 65.3857 117.349H66.8717C66.8717 123.951 66.8717 130.34 66.8717 136.943C53.0728 136.943 39.274 136.943 25.4751 136.943C25.0505 136.943 24.4136 136.517 24.6259 136.091V55.7994C28.2348 57.0773 32.4807 56.4383 35.665 54.5216ZM35.2404 77.9487C37.5756 79.6525 39.9108 81.1434 42.0337 82.8472C42.246 83.0601 42.4583 83.2731 42.8829 83.4861C41.1846 80.7174 39.6985 78.1617 38.0002 75.3931C36.9388 76.2449 36.0896 77.0968 35.2404 77.9487ZM45.855 85.1899V101.376C48.1902 101.376 50.7376 101.376 53.0728 101.376C53.922 101.376 54.9834 101.376 55.8326 101.163C56.8941 100.95 57.9555 100.311 58.5924 99.4591C59.6538 97.9683 59.8661 96.0516 59.017 94.5607C58.3801 93.7088 57.5309 93.0699 56.4695 92.8569C57.9555 92.218 58.8047 90.7272 58.8047 89.2364C58.8047 87.3196 57.1064 85.6158 55.1957 85.4028C53.7097 85.1899 52.2237 85.1899 50.9499 85.1899H45.855ZM35.2404 107.339C36.0896 108.191 37.151 109.043 38.0002 109.895C39.6985 107.126 41.3969 104.571 42.8829 101.802C40.3354 103.506 37.7879 105.422 35.2404 107.339Z" fill="#2578A5"/>
<path d="M35.665 54.5216C36.0896 54.3086 36.5142 54.3086 36.9388 54.3086C37.5756 54.3086 38.0002 54.3086 38.6371 54.3086C39.0617 54.5216 39.274 54.7345 39.4862 54.9475C40.3354 55.5864 40.9723 56.2254 41.8214 56.8643C43.3075 57.9292 45.2181 58.5681 47.341 58.7811C49.4639 58.7811 51.5868 58.1421 53.2851 57.0773C54.3466 56.4383 55.1957 55.5864 56.0449 54.9475C56.2572 54.7345 56.4695 54.5216 56.8941 54.5216C57.5309 54.5216 58.1678 54.5216 58.8047 54.5216C59.2293 54.5216 59.6538 54.5216 59.8661 54.7345C61.989 56.0124 64.3242 56.8643 66.8717 57.0773C66.8717 60.4848 66.8717 64.1054 66.8717 67.513C66.2348 67.513 65.598 67.513 64.9611 67.513C65.598 70.4946 66.2348 73.2633 66.8717 76.2449C66.8717 83.0601 66.8717 89.8753 66.8717 96.4775C66.8717 97.1164 66.8717 97.9683 66.8717 98.6072C66.0226 98.1813 65.598 97.1164 65.598 96.2645C65.598 94.1348 65.598 92.218 65.598 90.0883V85.1899H62.4136C62.4136 88.1715 62.4136 91.1531 62.4136 94.1348C62.4136 95.1997 62.4136 96.4775 62.6259 97.5424C62.6259 98.3943 63.0505 99.0332 63.4751 99.6721C64.3242 100.95 65.8103 101.589 67.084 101.589C67.084 104.145 67.084 106.487 67.084 109.043C67.084 109.469 67.084 109.682 67.084 110.108C66.6594 112.664 66.0226 115.006 65.3857 117.349H66.8717C66.8717 123.951 66.8717 130.34 66.8717 136.943C53.0728 136.943 39.274 136.943 25.4751 136.943C25.0505 136.943 24.4136 136.517 24.6259 136.091V55.7994C28.2348 57.0773 32.4807 56.4383 35.665 54.5216ZM35.2404 77.9487C37.5756 79.6525 39.9108 81.1434 42.0337 82.8472C42.246 83.0601 42.4583 83.2731 42.8829 83.4861C41.1846 80.7174 39.6985 78.1617 38.0002 75.3931C36.9388 76.2449 36.0896 77.0968 35.2404 77.9487ZM45.855 85.1899V101.376C48.1902 101.376 50.7376 101.376 53.0728 101.376C53.922 101.376 54.9834 101.376 55.8326 101.163C56.8941 100.95 57.9555 100.311 58.5924 99.4591C59.6538 97.9683 59.8661 96.0516 59.017 94.5607C58.3801 93.7088 57.5309 93.0699 56.4695 92.8569C57.9555 92.218 58.8047 90.7272 58.8047 89.2364C58.8047 87.3196 57.1064 85.6158 55.1957 85.4028C53.7097 85.1899 52.2237 85.1899 50.9499 85.1899H45.855ZM35.2404 107.339C36.0896 108.191 37.151 109.043 38.0002 109.895C39.6985 107.126 41.3969 104.571 42.8829 101.802C40.3354 103.506 37.7879 105.422 35.2404 107.339Z" stroke="#2578A5" stroke-width="0.3"/>
<path d="M75.3634 54.7346C75.5757 54.5217 75.788 54.5217 76.0003 54.5217C76.6372 54.5217 77.4863 54.5217 78.1232 54.5217C78.3355 54.5217 78.5478 54.7346 78.7601 54.7346C79.3969 55.3736 80.2461 56.0125 80.883 56.4384C82.5813 57.7163 84.7042 58.3552 86.8271 58.3552C88.5254 58.3552 90.436 57.9292 91.9221 57.0773C93.1958 56.4384 94.2573 55.3736 95.3187 54.5217C95.7433 54.3087 96.3802 54.5217 96.8048 54.5217C97.2293 54.5217 97.8662 54.3087 98.2908 54.7346C101.475 56.6514 105.509 57.0773 109.118 56.2255C109.118 74.5412 109.118 92.857 109.118 111.173C107.632 111.386 106.146 112.238 105.296 113.516C104.235 115.006 104.235 117.349 105.509 118.84C106.782 120.544 108.056 122.247 109.33 123.951C109.33 124.377 109.33 124.59 109.33 125.016C107.632 122.673 105.933 120.544 104.447 118.201C103.173 116.497 100.838 115.858 98.9277 116.71C97.6539 117.136 96.5925 118.201 95.9556 119.479C95.531 120.757 95.531 122.247 96.1679 123.525C96.3802 123.951 96.5925 124.164 97.0171 124.59C98.5031 126.72 99.9891 128.637 101.475 130.766C101.263 130.979 101.051 130.979 101.051 131.192C94.4696 122.247 88.1009 113.516 81.5199 104.571C81.0953 103.932 80.6707 103.08 80.0338 102.654C78.5478 101.376 76.4249 101.163 74.7266 102.015C73.8774 102.441 73.2405 103.08 72.8159 103.719C71.7545 105.21 71.7545 107.339 72.8159 108.83C73.2405 109.469 73.6651 109.895 73.8774 110.534C80.4584 119.479 86.8271 128.424 93.4081 137.369C84.7042 137.369 76.0003 137.369 67.2964 137.369C67.2964 130.766 67.2964 124.377 67.2964 117.775C68.1455 117.775 68.7824 117.775 69.6316 117.775C68.9947 114.793 68.3578 112.025 67.721 109.043C67.721 109.469 67.5087 109.895 67.5087 110.321C67.5087 109.895 67.5087 109.682 67.5087 109.256C67.5087 106.7 67.5087 104.358 67.5087 101.802C68.5701 102.015 69.6316 102.015 70.693 101.802C72.1791 101.589 73.8774 100.95 74.7266 99.6722C75.3634 98.6073 75.5757 97.1165 75.5757 95.8387C75.5757 92.4311 75.5757 88.8105 75.5757 85.4029C74.5143 85.4029 73.4528 85.4029 72.3914 85.4029C72.3914 88.3846 72.3914 91.1532 72.3914 94.1349C72.3914 95.1998 72.3914 96.2646 72.1791 97.1165C71.9668 98.1814 71.3299 98.8203 70.2684 99.0333C69.207 99.2463 68.3578 99.2463 67.2964 98.8203C67.5087 98.1814 67.2964 97.3295 67.2964 96.6906C67.2964 89.8754 67.2964 83.0602 67.2964 76.458C67.9333 73.4764 68.5701 70.7077 69.207 67.7261H67.2964C67.2964 64.3185 67.2964 60.6979 67.2964 57.2903C68.5701 57.2903 69.8439 57.2903 71.1176 56.8644C72.3914 56.2255 73.8774 55.5865 75.3634 54.7346ZM95.9556 79.0137C95.3187 80.7175 94.6819 82.4213 94.045 83.9121C96.1679 81.5694 98.5031 79.4397 100.626 77.0969C99.5645 76.458 98.5031 75.8191 97.4416 74.9672C96.8048 76.458 96.3802 77.7359 95.9556 79.0137ZM76.8495 85.19C78.7601 88.1716 80.6707 91.3662 82.5813 94.5608V94.7738C82.5813 96.9035 82.5813 99.2463 82.5813 101.376C83.6428 101.376 84.7042 101.376 85.7657 101.376C85.7657 99.2463 85.7657 96.9035 85.7657 94.7738C85.7657 94.5608 85.9779 94.3479 85.9779 94.1349C87.8886 91.1532 89.7992 88.1716 91.7098 85.19H87.8886C86.6148 87.3197 85.3411 89.4494 84.2796 91.5792C83.0059 89.4494 81.7321 87.3197 80.4584 85.19C79.3969 85.19 78.1232 85.19 76.8495 85.19ZM91.4975 102.867C93.6204 105.21 95.531 107.765 97.6539 110.108C98.5031 109.043 99.14 108.191 99.9891 107.126C97.2293 105.848 94.4696 104.358 91.4975 102.867Z" fill="#3985AD"/>
<path d="M75.3634 54.7346C75.5757 54.5217 75.788 54.5217 76.0003 54.5217C76.6372 54.5217 77.4863 54.5217 78.1232 54.5217C78.3355 54.5217 78.5478 54.7346 78.7601 54.7346C79.3969 55.3736 80.2461 56.0125 80.883 56.4384C82.5813 57.7163 84.7042 58.3552 86.8271 58.3552C88.5254 58.3552 90.436 57.9292 91.9221 57.0773C93.1958 56.4384 94.2573 55.3736 95.3187 54.5217C95.7433 54.3087 96.3802 54.5217 96.8048 54.5217C97.2293 54.5217 97.8662 54.3087 98.2908 54.7346C101.475 56.6514 105.509 57.0773 109.118 56.2255C109.118 74.5412 109.118 92.857 109.118 111.173C107.632 111.386 106.146 112.238 105.296 113.516C104.235 115.006 104.235 117.349 105.509 118.84C106.782 120.544 108.056 122.247 109.33 123.951C109.33 124.377 109.33 124.59 109.33 125.016C107.632 122.673 105.933 120.544 104.447 118.201C103.173 116.497 100.838 115.858 98.9277 116.71C97.6539 117.136 96.5925 118.201 95.9556 119.479C95.531 120.757 95.531 122.247 96.1679 123.525C96.3802 123.951 96.5925 124.164 97.0171 124.59C98.5031 126.72 99.9891 128.637 101.475 130.766C101.263 130.979 101.051 130.979 101.051 131.192C94.4696 122.247 88.1009 113.516 81.5199 104.571C81.0953 103.932 80.6707 103.08 80.0338 102.654C78.5478 101.376 76.4249 101.163 74.7266 102.015C73.8774 102.441 73.2405 103.08 72.8159 103.719C71.7545 105.21 71.7545 107.339 72.8159 108.83C73.2405 109.469 73.6651 109.895 73.8774 110.534C80.4584 119.479 86.8271 128.424 93.4081 137.369C84.7042 137.369 76.0003 137.369 67.2964 137.369C67.2964 130.766 67.2964 124.377 67.2964 117.775C68.1455 117.775 68.7824 117.775 69.6316 117.775C68.9947 114.793 68.3578 112.025 67.721 109.043C67.721 109.469 67.5087 109.895 67.5087 110.321C67.5087 109.895 67.5087 109.682 67.5087 109.256C67.5087 106.7 67.5087 104.358 67.5087 101.802C68.5701 102.015 69.6316 102.015 70.693 101.802C72.1791 101.589 73.8774 100.95 74.7266 99.6722C75.3634 98.6073 75.5757 97.1165 75.5757 95.8387C75.5757 92.4311 75.5757 88.8105 75.5757 85.4029C74.5143 85.4029 73.4528 85.4029 72.3914 85.4029C72.3914 88.3846 72.3914 91.1532 72.3914 94.1349C72.3914 95.1998 72.3914 96.2646 72.1791 97.1165C71.9668 98.1814 71.3299 98.8203 70.2684 99.0333C69.207 99.2463 68.3578 99.2463 67.2964 98.8203C67.5087 98.1814 67.2964 97.3295 67.2964 96.6906C67.2964 89.8754 67.2964 83.0602 67.2964 76.458C67.9333 73.4764 68.5701 70.7077 69.207 67.7261H67.2964C67.2964 64.3185 67.2964 60.6979 67.2964 57.2903C68.5701 57.2903 69.8439 57.2903 71.1176 56.8644C72.3914 56.2255 73.8774 55.5865 75.3634 54.7346ZM95.9556 79.0137C95.3187 80.7175 94.6819 82.4213 94.045 83.9121C96.1679 81.5694 98.5031 79.4397 100.626 77.0969C99.5645 76.458 98.5031 75.8191 97.4416 74.9672C96.8048 76.458 96.3802 77.7359 95.9556 79.0137ZM76.8495 85.19C78.7601 88.1716 80.6707 91.3662 82.5813 94.5608V94.7738C82.5813 96.9036 82.5813 99.2463 82.5813 101.376C83.6428 101.376 84.7042 101.376 85.7657 101.376C85.7657 99.2463 85.7657 96.9036 85.7657 94.7738C85.7657 94.5608 85.9779 94.3479 85.9779 94.1349C87.8886 91.1532 89.7992 88.1716 91.7098 85.19H87.8886C86.6148 87.3197 85.3411 89.4494 84.2796 91.5792C83.0059 89.4494 81.7321 87.3197 80.4584 85.19C79.3969 85.19 78.1232 85.19 76.8495 85.19ZM91.4975 102.867C93.6204 105.21 95.531 107.765 97.6539 110.108C98.5031 109.043 99.14 108.191 99.9891 107.126C97.2293 105.848 94.4696 104.358 91.4975 102.867Z" stroke="#3985AD" stroke-width="0.3"/>
<path d="M64.9609 67.3C65.5978 67.3 66.2347 67.3 66.8715 67.3C67.5084 67.3 68.1453 67.3 68.7822 67.3C68.1453 70.2817 67.5084 73.0504 66.8715 76.032C66.2347 73.2633 65.5978 70.2817 64.9609 67.3Z" fill="#F9BF15"/>
<path d="M64.9609 67.3C65.5978 67.3 66.2347 67.3 66.8715 67.3C67.5084 67.3 68.1453 67.3 68.7822 67.3C68.1453 70.2817 67.5084 73.0504 66.8715 76.032C66.2347 73.2633 65.5978 70.2817 64.9609 67.3Z" stroke="#F9BF15" stroke-width="0.3"/>
<path d="M35.2402 77.9485C36.0894 77.0966 37.1508 76.2447 38 75.3928C39.6983 78.1615 41.1844 80.7172 42.8827 83.4858C42.6704 83.2729 42.2458 83.0599 42.0335 82.8469C39.6983 81.1431 37.3631 79.6523 35.2402 77.9485Z" fill="#F9BF15"/>
<path d="M35.2402 77.9485C36.0894 77.0966 37.1508 76.2447 38 75.3928C39.6983 78.1615 41.1844 80.7172 42.8827 83.4858C42.6704 83.2729 42.2458 83.0599 42.0335 82.8469C39.6983 81.1431 37.3631 79.6523 35.2402 77.9485Z" stroke="#F9BF15" stroke-width="0.3"/>
<path d="M95.9553 79.0132C96.3799 77.7354 96.8045 76.4575 97.4413 75.1797C98.5028 75.8186 99.5642 76.4575 100.626 77.3094C98.5028 79.6521 96.1676 81.7819 94.0447 84.1246C94.6815 82.4208 95.3184 80.717 95.9553 79.0132Z" fill="#F9BF15"/>
<path d="M95.9553 79.0132C96.3799 77.7354 96.8045 76.4575 97.4413 75.1797C98.5028 75.8186 99.5642 76.4575 100.626 77.3094C98.5028 79.6521 96.1676 81.7819 94.0447 84.1246C94.6815 82.4208 95.3184 80.717 95.9553 79.0132Z" stroke="#F9BF15" stroke-width="0.3"/>
<path d="M45.8549 85.1897C47.5532 85.1897 49.2515 85.1897 50.9498 85.1897C52.2236 85.1897 53.7096 85.1897 54.9834 85.4027C56.894 85.6156 58.5923 87.3194 58.5923 89.2362C58.5923 90.727 57.7431 92.2178 56.2571 92.8568C57.3186 93.0697 58.1677 93.7087 58.8046 94.5606C59.6538 96.0514 59.4415 98.1811 58.38 99.459C57.7431 100.311 56.6817 100.95 55.6202 101.163C54.7711 101.376 53.7096 101.376 52.8605 101.376C50.5253 101.376 47.9778 101.376 45.6426 101.376V85.1897H45.8549ZM49.2515 87.9584V91.5789C50.5253 91.5789 51.799 91.5789 52.8605 91.5789C53.4973 91.5789 54.1342 91.5789 54.7711 91.153C55.6202 90.5141 55.6202 88.8103 54.7711 88.1713C54.1342 87.7454 53.4973 87.9584 52.8605 87.7454C51.5867 87.9584 50.313 87.9584 49.2515 87.9584ZM49.2515 94.3476V98.6071C50.7376 98.6071 52.2236 98.6071 53.7096 98.6071C54.1342 98.6071 54.7711 98.6071 55.1957 98.1811C56.2571 97.5422 56.2571 95.6254 55.4079 94.9865C54.7711 94.5606 53.9219 94.5606 53.285 94.3476C51.799 94.3476 50.5253 94.3476 49.2515 94.3476Z" fill="white"/>
<path d="M45.8549 85.1897C47.5532 85.1897 49.2515 85.1897 50.9498 85.1897C52.2236 85.1897 53.7096 85.1897 54.9834 85.4027C56.894 85.6156 58.5923 87.3194 58.5923 89.2362C58.5923 90.727 57.7431 92.2178 56.2571 92.8568C57.3186 93.0697 58.1677 93.7087 58.8046 94.5606C59.6538 96.0514 59.4415 98.1811 58.38 99.459C57.7431 100.311 56.6817 100.95 55.6202 101.163C54.7711 101.376 53.7096 101.376 52.8605 101.376C50.5253 101.376 47.9778 101.376 45.6426 101.376V85.1897H45.8549ZM49.2515 87.9584V91.5789C50.5253 91.5789 51.799 91.5789 52.8605 91.5789C53.4973 91.5789 54.1342 91.5789 54.7711 91.153C55.6202 90.5141 55.6202 88.8103 54.7711 88.1713C54.1342 87.7454 53.4973 87.9584 52.8605 87.7454C51.5867 87.9584 50.313 87.9584 49.2515 87.9584ZM49.2515 94.3476V98.6071C50.7376 98.6071 52.2236 98.6071 53.7096 98.6071C54.1342 98.6071 54.7711 98.6071 55.1956 98.1811C56.2571 97.5422 56.2571 95.6254 55.4079 94.9865C54.7711 94.5606 53.9219 94.5606 53.285 94.3476C51.799 94.3476 50.5253 94.3476 49.2515 94.3476Z" stroke="white" stroke-width="0.3"/>
<path d="M62.2012 85.1897H65.3855V90.0881C65.3855 92.2178 65.3855 94.1346 65.3855 96.2644C65.3855 97.1163 65.8101 98.1811 66.6593 98.6071C67.5084 99.033 68.5699 99.033 69.6313 98.8201C70.6928 98.6071 71.3297 97.7552 71.542 96.9033C71.7542 95.8384 71.7542 94.7735 71.7542 93.9216C71.7542 90.94 71.7542 88.1713 71.7542 85.1897C72.8157 85.1897 73.8771 85.1897 74.9386 85.1897C74.9386 88.5973 74.9386 92.2179 74.9386 95.6254C74.9386 96.9033 74.7263 98.3941 74.0894 99.459C73.2403 100.737 71.542 101.589 70.0559 101.589C68.9945 101.589 67.933 101.589 66.8716 101.589C65.3855 101.376 64.1118 100.737 63.2626 99.672C62.838 99.033 62.4135 98.3941 62.4135 97.5422C62.2012 96.4773 62.2012 95.1995 62.2012 94.1346C62.2012 91.153 62.2012 88.1713 62.2012 85.1897Z" fill="white"/>
<path d="M62.2012 85.1897H65.3855V90.0881C65.3855 92.2178 65.3855 94.1346 65.3855 96.2644C65.3855 97.1163 65.8101 98.1811 66.6593 98.6071C67.5084 99.033 68.5699 99.033 69.6313 98.8201C70.6928 98.6071 71.3297 97.7552 71.542 96.9033C71.7542 95.8384 71.7542 94.7735 71.7542 93.9216C71.7542 90.94 71.7542 88.1713 71.7542 85.1897C72.8157 85.1897 73.8771 85.1897 74.9386 85.1897C74.9386 88.5973 74.9386 92.2179 74.9386 95.6254C74.9386 96.9033 74.7263 98.3941 74.0894 99.459C73.2403 100.737 71.542 101.589 70.0559 101.589C68.9945 101.589 67.933 101.589 66.8716 101.589C65.3855 101.376 64.1118 100.737 63.2626 99.672C62.838 99.033 62.4135 98.3941 62.4135 97.5422C62.2012 96.4773 62.2012 95.1995 62.2012 94.1346C62.2012 91.153 62.2012 88.1713 62.2012 85.1897Z" stroke="white" stroke-width="0.3"/>
<path d="M76.8494 85.1897C78.1231 85.1897 79.3969 85.1897 80.6706 85.1897C81.9443 87.3194 83.2181 89.4492 84.4918 91.5789C85.7656 89.4492 87.0393 87.3194 88.1008 85.1897H91.922C90.0114 88.1713 88.1008 91.153 86.1901 94.1346C85.9779 94.3476 85.7656 94.5606 85.9779 94.7735C85.9779 96.9033 85.9779 99.246 85.9779 101.376C84.9164 101.376 83.855 101.376 82.7935 101.376C82.7935 99.246 82.7935 96.9033 82.7935 94.7735V94.5606C80.6706 91.366 78.76 88.1713 76.8494 85.1897Z" fill="white"/>
<path d="M76.8494 85.1897C78.1231 85.1897 79.3969 85.1897 80.6706 85.1897C81.9443 87.3194 83.2181 89.4492 84.4918 91.5789C85.7656 89.4492 87.0393 87.3194 88.1008 85.1897H91.922C90.0114 88.1713 88.1008 91.153 86.1901 94.1346C85.9779 94.3476 85.7656 94.5606 85.9779 94.7735C85.9779 96.9033 85.9779 99.246 85.9779 101.376C84.9164 101.376 83.855 101.376 82.7935 101.376C82.7935 99.246 82.7935 96.9033 82.7935 94.7735V94.5606C80.6706 91.366 78.76 88.1713 76.8494 85.1897Z" stroke="white" stroke-width="0.3"/>
<path d="M49.2517 87.9583C50.5255 87.9583 51.5869 87.9583 52.8606 87.9583C53.4975 87.9583 54.1344 87.9583 54.7713 88.3842C55.8327 89.0231 55.8327 90.7269 54.7713 91.3658C54.1344 91.5788 53.4975 91.5788 52.8606 91.5788C51.5869 91.5788 50.3132 91.5788 49.2517 91.5788V87.9583Z" fill="#2578A5"/>
<path d="M49.2517 87.9583C50.5255 87.9583 51.5869 87.9583 52.8606 87.9583C53.4975 87.9583 54.1344 87.9583 54.7713 88.3842C55.8327 89.0231 55.8327 90.7269 54.7713 91.3658C54.1344 91.5788 53.4975 91.5788 52.8606 91.5788C51.5869 91.5788 50.3132 91.5788 49.2517 91.5788V87.9583Z" stroke="#2578A5" stroke-width="0.3"/>
<path d="M49.2517 94.3474C50.5255 94.3474 52.0115 94.3474 53.2852 94.3474C53.9221 94.3474 54.7713 94.3474 55.4081 94.9863C56.4696 95.8382 56.2573 97.542 55.1958 98.1809C54.7713 98.3939 54.1344 98.6069 53.7098 98.6069C52.2238 98.6069 50.7377 98.6069 49.2517 98.6069V94.3474Z" fill="#2578A5"/>
<path d="M49.2517 94.3474C50.5255 94.3474 52.0115 94.3474 53.2852 94.3474C53.9221 94.3474 54.7713 94.3474 55.4081 94.9863C56.4696 95.8382 56.2573 97.542 55.1958 98.1809C54.7713 98.3939 54.1344 98.6069 53.7098 98.6069C52.2238 98.6069 50.7377 98.6069 49.2517 98.6069V94.3474V94.3474Z" stroke="#2578A5" stroke-width="0.3"/>
<path d="M74.3018 101.802C76.0001 100.95 78.123 101.163 79.6091 102.441C80.2459 103.08 80.6705 103.719 81.0951 104.358C87.6761 113.303 94.0448 122.034 100.626 130.979C100.838 130.766 101.05 130.766 101.05 130.553C99.5644 128.424 98.0784 126.507 96.5923 124.377C96.38 123.951 95.9554 123.738 95.7432 123.312C95.1063 122.034 94.894 120.544 95.5309 119.266C95.9554 117.988 97.2292 116.923 98.5029 116.497C100.414 115.645 102.749 116.284 104.022 117.988C105.721 120.331 107.419 122.46 108.905 124.803C109.117 124.59 109.33 124.59 109.33 124.377C109.117 124.164 108.905 123.951 108.905 123.738C107.631 122.034 106.358 120.331 105.084 118.627C104.022 117.136 104.022 115.006 104.872 113.303C105.721 112.025 107.207 110.96 108.693 110.96C110.179 110.747 111.877 111.386 112.726 112.664C113.151 113.303 113.788 113.941 114.212 114.58C115.274 115.858 116.123 117.136 117.184 118.627C117.397 118.414 117.609 118.414 117.609 118.201C116.972 117.136 116.123 116.284 115.486 115.219C114.849 114.58 114.637 113.516 114.425 112.664C114.212 110.96 115.062 109.256 116.548 108.191C118.034 107.126 120.157 106.913 121.643 107.765C122.279 108.191 122.704 108.617 123.129 109.043C125.252 111.812 127.374 114.793 129.285 117.562C128.648 117.988 128.224 118.414 127.587 118.84C118.671 125.442 109.754 132.044 100.838 138.646C99.3521 139.711 97.6538 140.989 96.1677 142.054C94.894 140.35 93.6202 138.646 92.3465 136.73C85.7655 127.785 79.3968 118.84 72.8158 109.895C72.3912 109.469 71.9666 108.83 71.7543 108.404C70.6929 106.913 70.9052 104.784 71.7543 103.293C72.8158 102.867 73.6649 102.228 74.3018 101.802Z" fill="#F7B13D"/>
<path d="M74.3018 101.802C76.0001 100.95 78.123 101.163 79.6091 102.441C80.2459 103.08 80.6705 103.719 81.0951 104.358C87.6761 113.303 94.0448 122.034 100.626 130.979C100.838 130.766 101.05 130.766 101.05 130.553C99.5644 128.424 98.0783 126.507 96.5923 124.377C96.38 123.951 95.9554 123.738 95.7432 123.312C95.1063 122.034 94.894 120.544 95.5309 119.266C95.9554 117.988 97.2292 116.923 98.5029 116.497C100.414 115.645 102.749 116.284 104.022 117.988C105.721 120.331 107.419 122.46 108.905 124.803C109.117 124.59 109.33 124.59 109.33 124.377C109.117 124.164 108.905 123.951 108.905 123.738C107.631 122.034 106.358 120.331 105.084 118.627C104.022 117.136 104.022 115.006 104.872 113.303C105.721 112.025 107.207 110.96 108.693 110.96C110.179 110.747 111.877 111.386 112.726 112.664C113.151 113.303 113.788 113.941 114.212 114.58C115.274 115.858 116.123 117.136 117.184 118.627C117.397 118.414 117.609 118.414 117.609 118.201C116.972 117.136 116.123 116.284 115.486 115.219C114.849 114.58 114.637 113.516 114.425 112.664C114.212 110.96 115.062 109.256 116.548 108.191C118.034 107.126 120.157 106.913 121.643 107.765C122.279 108.191 122.704 108.617 123.129 109.043C125.252 111.812 127.374 114.793 129.285 117.562C128.648 117.988 128.224 118.414 127.587 118.84C118.671 125.442 109.754 132.044 100.838 138.646C99.3521 139.711 97.6538 140.989 96.1677 142.054C94.894 140.35 93.6202 138.646 92.3465 136.73C85.7655 127.785 79.3968 118.84 72.8158 109.895C72.3912 109.469 71.9666 108.83 71.7543 108.404C70.6929 106.913 70.9052 104.784 71.7543 103.293C72.8158 102.867 73.6649 102.228 74.3018 101.802Z" stroke="#F7B13D" stroke-width="0.3"/>
<path d="M35.2402 107.339C37.7877 105.422 40.3352 103.718 42.8827 101.802C41.1844 104.57 39.486 107.126 38 109.895C36.9386 109.043 36.0894 108.191 35.2402 107.339Z" fill="#F9BF15"/>
<path d="M35.2402 107.339C37.7877 105.422 40.3352 103.718 42.8827 101.802C41.1844 104.57 39.486 107.126 38 109.895C36.9386 109.043 36.0894 108.191 35.2402 107.339Z" stroke="#F9BF15" stroke-width="0.3"/>
<path d="M91.4973 102.866C94.2571 104.357 97.0169 105.848 99.9889 107.126C99.1398 108.191 98.5029 109.043 97.6537 110.108C95.5308 107.765 93.6202 105.422 91.4973 102.866Z" fill="#F9BF15"/>
<path d="M91.4973 102.866C94.2571 104.357 97.0169 105.848 99.9889 107.126C99.1398 108.191 98.5029 109.043 97.6537 110.108C95.5308 107.765 93.6202 105.422 91.4973 102.866Z" stroke="#F9BF15" stroke-width="0.3"/>
<path d="M66.8717 110.108C66.8717 109.682 67.084 109.256 67.084 108.83C67.7208 111.812 68.3577 114.58 68.9946 117.562C68.1454 117.562 67.5085 117.562 66.6594 117.562C66.2348 117.562 65.5979 117.562 65.1733 117.562C65.8102 115.006 66.4471 112.451 66.8717 110.108Z" fill="#F9BF15"/>
<path d="M66.8717 110.108C66.8717 109.682 67.084 109.256 67.084 108.83C67.7208 111.812 68.3577 114.58 68.9946 117.562C68.1454 117.562 67.5085 117.562 66.6594 117.562C66.2348 117.562 65.5979 117.562 65.1733 117.562C65.8102 115.006 66.4471 112.451 66.8717 110.108Z" stroke="#F9BF15" stroke-width="0.3"/>
<path d="M128.224 119.266C128.861 118.84 129.285 118.414 129.922 117.988C131.833 120.543 133.531 123.099 135.442 125.442C135.866 126.081 136.291 126.507 136.715 127.146C138.626 134.387 140.537 141.628 142.447 149.082C135.654 153.98 128.861 159.092 122.067 163.99C119.095 162.286 116.123 160.583 113.151 158.879C112.939 158.879 112.727 158.666 112.514 158.666C111.877 159.092 111.241 159.092 110.604 158.879C108.693 158.666 106.782 158.027 104.872 157.601C104.023 157.388 103.386 157.175 102.537 156.962C101.9 153.767 101.263 150.573 100.626 147.591C100.626 147.378 100.626 147.165 100.414 146.739C99.3523 145.249 98.0785 143.545 97.0171 142.054C98.5031 140.776 100.201 139.711 101.687 138.646C110.391 132.257 119.308 125.655 128.224 119.266Z" fill="#F8C166"/>
<path d="M128.224 119.266C128.861 118.84 129.285 118.414 129.922 117.988C131.833 120.543 133.531 123.099 135.442 125.442C135.866 126.081 136.291 126.507 136.715 127.146C138.626 134.387 140.537 141.628 142.447 149.082C135.654 153.98 128.861 159.092 122.067 163.99C119.095 162.286 116.123 160.583 113.151 158.879C112.939 158.879 112.727 158.666 112.514 158.666C111.877 159.092 111.241 159.092 110.604 158.879C108.693 158.666 106.782 158.027 104.872 157.601C104.023 157.388 103.386 157.175 102.537 156.962C101.9 153.767 101.263 150.573 100.626 147.591C100.626 147.378 100.626 147.165 100.414 146.739C99.3523 145.249 98.0785 143.545 97.0171 142.054C98.5031 140.776 100.201 139.711 101.687 138.646C110.391 132.257 119.308 125.655 128.224 119.266Z" stroke="#F8C166" stroke-width="0.3"/>
<path d="M109.117 123.738C109.33 123.951 109.542 124.164 109.542 124.377C109.33 124.59 109.117 124.59 109.117 124.803C109.117 124.377 109.117 124.164 109.117 123.738Z" fill="#32393C"/>
<path d="M109.117 123.738C109.33 123.951 109.542 124.164 109.542 124.377C109.33 124.59 109.117 124.59 109.117 124.803C109.117 124.377 109.117 124.164 109.117 123.738Z" stroke="#32393C" stroke-width="0.3"/>
<path d="M66.8716 137.155C75.5755 137.155 84.2794 137.155 92.9833 137.155C94.2571 138.859 95.5308 140.563 96.8045 142.48C97.866 143.97 99.1397 145.674 100.201 147.165C99.9889 147.378 99.7766 147.591 99.7766 147.591C98.0783 145.035 96.1677 142.693 94.4693 140.137C94.0448 139.498 93.6202 139.072 92.9833 138.859C91.4973 138.007 89.799 138.007 88.3129 138.646C87.4638 139.072 86.6146 139.924 85.9777 140.776C85.1286 142.267 85.3409 144.396 86.19 145.674C87.8883 148.23 89.799 150.573 91.4973 153.128C91.9219 153.554 92.3464 154.193 92.771 154.406C93.1956 154.832 93.8325 154.832 94.4693 155.045C97.0168 155.897 99.5643 156.536 102.324 157.175C103.173 157.388 103.81 157.601 104.659 157.814C106.57 158.24 108.481 158.879 110.391 159.092C111.028 159.092 111.877 159.092 112.302 158.879C112.514 158.879 112.726 159.092 112.939 159.092C111.665 160.582 110.179 161.647 108.268 162.073C107.631 162.286 106.782 162.286 105.933 162.286H66.8716C66.8716 160.795 66.8716 159.518 66.8716 158.027C68.3576 158.027 69.8436 157.388 71.1174 156.536C72.8157 155.471 73.8772 153.767 74.3017 151.85C74.7263 149.934 74.514 147.804 73.4526 146.1C72.1788 143.757 69.4191 142.054 66.8716 142.054C66.8716 140.563 66.8716 138.859 66.8716 137.155Z" fill="#32393C"/>
<path d="M66.8716 137.155C75.5755 137.155 84.2794 137.155 92.9833 137.155C94.2571 138.859 95.5308 140.563 96.8045 142.48C97.866 143.97 99.1397 145.674 100.201 147.165C99.9889 147.378 99.7766 147.591 99.7766 147.591C98.0783 145.035 96.1677 142.693 94.4693 140.137C94.0448 139.498 93.6202 139.072 92.9833 138.859C91.4973 138.007 89.799 138.007 88.3129 138.646C87.4638 139.072 86.6146 139.924 85.9777 140.776C85.1286 142.267 85.3409 144.396 86.19 145.674C87.8883 148.23 89.799 150.573 91.4973 153.128C91.9219 153.554 92.3464 154.193 92.771 154.406C93.1956 154.832 93.8325 154.832 94.4693 155.045C97.0168 155.897 99.5643 156.536 102.324 157.175C103.173 157.388 103.81 157.601 104.659 157.814C106.57 158.24 108.481 158.879 110.391 159.092C111.028 159.092 111.877 159.092 112.302 158.879C112.514 158.879 112.726 159.092 112.939 159.092C111.665 160.582 110.179 161.647 108.268 162.073C107.631 162.286 106.782 162.286 105.933 162.286H66.8716C66.8716 160.795 66.8716 159.518 66.8716 158.027C68.3576 158.027 69.8436 157.388 71.1174 156.536C72.8157 155.471 73.8772 153.767 74.3017 151.85C74.7263 149.934 74.514 147.804 73.4526 146.1C72.1788 143.757 69.4191 142.054 66.8716 142.054C66.8716 140.563 66.8716 138.859 66.8716 137.155Z" stroke="#32393C" stroke-width="0.3"/>
<path d="M88.1006 138.646C89.5866 137.794 91.4972 138.007 92.771 138.859C93.4078 139.285 93.8324 139.711 94.257 140.137C95.9553 142.693 97.8659 145.036 99.5643 147.591C99.7766 147.378 99.9888 147.378 99.9888 147.165C100.201 147.378 100.201 147.591 100.201 148.017C100.838 151.212 101.475 154.406 102.112 157.388C99.5643 156.749 96.8045 156.11 94.257 155.258C93.6201 155.045 93.1955 155.045 92.5587 154.619C92.1341 154.193 91.7095 153.768 91.2849 153.342C89.5866 150.786 87.676 148.443 85.9777 145.887C84.9162 144.397 84.9162 142.48 85.7654 140.989C86.4023 139.924 87.2514 139.072 88.1006 138.646Z" fill="#F7B13D"/>
<path d="M88.1006 138.646C89.5866 137.794 91.4972 138.007 92.771 138.859C93.4078 139.285 93.8324 139.711 94.257 140.137C95.9553 142.693 97.8659 145.036 99.5643 147.591C99.7766 147.378 99.9888 147.378 99.9888 147.165C100.201 147.378 100.201 147.591 100.201 148.017C100.838 151.212 101.475 154.406 102.112 157.388C99.5643 156.749 96.8045 156.11 94.257 155.258C93.6201 155.045 93.1955 155.045 92.5587 154.619C92.1341 154.193 91.7095 153.768 91.2849 153.342C89.5866 150.786 87.676 148.443 85.9777 145.887C84.9162 144.397 84.9162 142.48 85.7654 140.989C86.4023 139.924 87.2514 139.072 88.1006 138.646Z" stroke="#F7B13D" stroke-width="0.3"/>
<path d="M61.7766 143.758C63.2626 142.693 64.961 142.054 66.8716 142.054C69.6314 142.054 72.1788 143.758 73.4526 146.101C74.514 147.805 74.7263 149.934 74.3017 151.851C73.8772 153.768 72.6034 155.472 71.1174 156.536C69.8436 157.388 68.3576 157.814 66.8716 158.027C65.3855 158.027 64.1118 157.814 62.8381 156.962C61.1397 156.111 59.866 154.62 59.2291 152.703C58.5922 150.999 58.5922 149.082 59.2291 147.379C59.6537 146.101 60.5029 144.823 61.7766 143.758Z" fill="#F9BF15"/>
<path d="M61.7766 143.758C63.2626 142.693 64.961 142.054 66.8716 142.054C69.6314 142.054 72.1788 143.758 73.4526 146.101C74.514 147.805 74.7263 149.934 74.3017 151.851C73.8772 153.768 72.6034 155.472 71.1174 156.536C69.8436 157.388 68.3576 157.814 66.8716 158.027C65.3855 158.027 64.1118 157.814 62.8381 156.962C61.1397 156.111 59.866 154.62 59.2291 152.703C58.5922 150.999 58.5922 149.082 59.2291 147.379C59.6537 146.101 60.5029 144.823 61.7766 143.758Z" stroke="#F9BF15" stroke-width="0.3"/>
<path d="M146.693 145.887C146.905 145.674 147.542 145.674 147.754 146.1C149.028 147.804 150.302 149.508 151.576 151.424C151.788 151.85 151.788 152.276 151.363 152.489C141.598 159.517 132.045 166.758 122.279 173.787C122.067 174 121.43 174 121.218 173.574C119.944 171.87 118.671 170.166 117.397 168.249C117.184 168.036 117.184 167.397 117.609 167.184C119.095 166.12 120.369 165.055 121.855 163.99C128.648 159.091 135.441 153.98 142.235 149.082C143.721 148.017 145.207 146.952 146.693 145.887Z" fill="#1B2326"/>
<path d="M146.693 145.887C146.905 145.674 147.542 145.674 147.754 146.1C149.028 147.804 150.302 149.508 151.576 151.424C151.788 151.85 151.788 152.276 151.363 152.489C141.598 159.517 132.045 166.758 122.279 173.787C122.067 174 121.43 174 121.218 173.574C119.944 171.87 118.671 170.166 117.397 168.249C117.184 168.036 117.184 167.397 117.609 167.184C119.095 166.12 120.369 165.055 121.855 163.99C128.648 159.091 135.441 153.98 142.235 149.082C143.721 148.017 145.207 146.952 146.693 145.887Z" stroke="#1B2326" stroke-width="0.3"/>
</g>
<defs>
<clipPath id="clip0">
<rect width="152" height="174" fill="white"/>
</clipPath>
</defs>
</svg>
