<svg width="135" height="187" viewBox="0 0 135 187" fill="none" xmlns="http://www.w3.org/2000/svg">
<path d="M130.549 12.6035H0V186.008H130.549V12.6035Z" fill="#C53F3F"/>
<g opacity="0.1">
<path opacity="0.1" d="M130.549 12.6035H0V186.008H130.549V12.6035Z" fill="black"/>
</g>
<path d="M134.097 12.6035H3.5481V186.008H134.097V12.6035Z" fill="#C53F3F"/>
<path d="M125.45 19.5214L10.2087 20.9897L12.1992 177.206L127.44 175.738L125.45 19.5214Z" fill="#EBEBEB"/>
<path d="M11.1343 19.0313L7.75342 175.224L122.977 177.718L126.358 21.5254L11.1343 19.0313Z" fill="#DBDBDB"/>
<path d="M124.677 20.2505H9.42603V176.48H124.677V20.2505Z" fill="white"/>
<path d="M32.3718 110.24H22.5852V120.027H32.3718V110.24Z" fill="#EBEBEB"/>
<path d="M69.3588 110.24H37.6548V111.673H69.3588V110.24Z" fill="#455A64"/>
<path d="M111.517 113.028H37.6548V114.461H111.517V113.028Z" fill="#EBEBEB"/>
<path d="M111.517 115.811H37.6548V117.244H111.517V115.811Z" fill="#EBEBEB"/>
<path d="M111.517 118.594H37.6548V120.027H111.517V118.594Z" fill="#EBEBEB"/>
<path d="M23.3064 114.627C23.6671 114.929 24.0082 115.241 24.3494 115.562C24.6906 115.884 25.0171 116.206 25.3534 116.537C26.0113 117.185 26.6449 117.858 27.2737 118.535L26.1527 118.609C27.0409 116.752 28.0588 114.961 29.1988 113.247C29.7642 112.394 30.3636 111.556 31.007 110.747C31.6496 109.925 32.3465 109.147 33.093 108.417C32.7983 109.416 32.4352 110.393 32.0061 111.342C31.587 112.287 31.1305 113.208 30.6366 114.105C29.6529 115.908 28.5455 117.641 27.3224 119.291L26.7083 120.115L26.2209 119.364C25.6994 118.599 25.1926 117.829 24.7101 117.039C24.4712 116.64 24.2227 116.25 23.9936 115.845C23.7645 115.441 23.516 115.056 23.3064 114.627Z" fill="#C53F3F"/>
<path d="M32.3718 126.436H22.5852V136.223H32.3718V126.436Z" fill="#EBEBEB"/>
<path d="M69.3588 126.436H37.6548V127.869H69.3588V126.436Z" fill="#455A64"/>
<path d="M111.517 129.219H37.6548V130.652H111.517V129.219Z" fill="#EBEBEB"/>
<path d="M111.517 132.002H37.6548V133.435H111.517V132.002Z" fill="#EBEBEB"/>
<path d="M111.517 134.785H37.6548V136.218H111.517V134.785Z" fill="#EBEBEB"/>
<path d="M32.3718 142.626H22.5852V152.413H32.3718V142.626Z" fill="#EBEBEB"/>
<path d="M69.3588 142.626H37.6548V144.059H69.3588V142.626Z" fill="#455A64"/>
<path d="M111.517 145.41H37.6548V146.843H111.517V145.41Z" fill="#EBEBEB"/>
<path d="M111.517 148.192H37.6548V149.625H111.517V148.192Z" fill="#EBEBEB"/>
<path d="M111.517 150.976H37.6548V152.408H111.517V150.976Z" fill="#EBEBEB"/>
<path d="M111.517 161.888H62.0239V163.321H111.517V161.888Z" fill="#EBEBEB"/>
<path d="M80.0812 59.4849H53.251V60.9178H80.0812V59.4849Z" fill="#455A64"/>
<path d="M111.517 62.2676H53.251V63.7005H111.517V62.2676Z" fill="#EBEBEB"/>
<path d="M111.517 65.0552H53.251V66.4881H111.517V65.0552Z" fill="#EBEBEB"/>
<path d="M111.517 70.6211H53.251V72.054H111.517V70.6211Z" fill="#EBEBEB"/>
<path d="M78.5898 73.4043H53.251V74.8372H78.5898V73.4043Z" fill="#EBEBEB"/>
<path d="M111.517 35.2036H22.5852V48.8259H111.517V35.2036Z" fill="#C53F3F"/>
<path d="M28.7114 46.2328V38.2739H30.2564V46.2328H28.7114Z" fill="white"/>
<path d="M35.1448 41.13V46.2328H33.5999V38.2739H34.7988L38.9464 43.4986V38.2837H40.4914V46.2328H39.2388L35.1448 41.13Z" fill="white"/>
<path d="M48.577 40.3601C48.4883 40.2795 48.392 40.2077 48.2895 40.1456C48.1338 40.0458 47.9709 39.9579 47.8021 39.8824C47.5946 39.7904 47.3793 39.717 47.1588 39.6631C46.9278 39.6046 46.6904 39.5751 46.4521 39.5754C46.1185 39.5514 45.786 39.6333 45.5017 39.8093C45.3982 39.885 45.315 39.9851 45.2597 40.1008C45.2044 40.2165 45.1787 40.3441 45.1849 40.4721C45.1796 40.6183 45.2224 40.7621 45.3067 40.8815C45.3981 40.9999 45.5146 41.0964 45.6479 41.1642C45.8276 41.2594 46.0172 41.3346 46.2132 41.3884C46.4423 41.4567 46.7006 41.5298 47.0028 41.6029C47.3549 41.6993 47.7014 41.8148 48.0409 41.9489C48.3337 42.0524 48.6071 42.2039 48.85 42.3973C49.065 42.5723 49.2396 42.7918 49.3617 43.0406C49.4866 43.3329 49.5465 43.6489 49.5372 43.9667C49.5485 44.3447 49.4665 44.7196 49.2984 45.0584C49.1431 45.3527 48.919 45.6052 48.6453 45.7943C48.3592 45.9867 48.0404 46.1255 47.7046 46.2037C47.3357 46.2912 46.9579 46.3354 46.5788 46.3353C45.9789 46.3353 45.3825 46.245 44.8096 46.0673C44.2495 45.8985 43.7198 45.6419 43.2402 45.3069L43.9226 43.9715C44.0347 44.072 44.1572 44.1602 44.2881 44.2347C44.4901 44.3546 44.6983 44.4636 44.9119 44.5613C45.1682 44.6756 45.434 44.7669 45.7064 44.8342C45.9996 44.9083 46.3008 44.946 46.6032 44.9463C47.4561 44.9463 47.8801 44.6734 47.8801 44.1275C47.8839 43.9687 47.8322 43.8136 47.7339 43.6889C47.6195 43.5567 47.4782 43.4504 47.3196 43.3769C47.1102 43.2776 46.8935 43.1945 46.6714 43.1284L45.8185 42.8847C45.4863 42.7929 45.1606 42.6789 44.8437 42.5435C44.5886 42.4342 44.3519 42.2863 44.1419 42.1049C43.9592 41.9447 43.8157 41.7445 43.7227 41.52C43.6214 41.2695 43.5733 41.0006 43.5814 40.7305C43.5739 40.3591 43.6505 39.9909 43.8056 39.6533C43.9482 39.3473 44.1601 39.0786 44.4246 38.8687C44.7014 38.6518 45.0151 38.4867 45.3506 38.3813C45.7167 38.268 46.0981 38.2121 46.4813 38.2156C47.0095 38.21 47.5344 38.2991 48.0312 38.4788C48.4654 38.6373 48.8793 38.8467 49.2642 39.1026L48.577 40.3601Z" fill="white"/>
<path d="M55.7464 44.9218C56.0504 44.9357 56.3527 44.868 56.6218 44.7258C56.8909 44.5835 57.117 44.3718 57.2767 44.1127C57.4372 43.8615 57.548 43.5819 57.6033 43.289C57.669 42.9683 57.7017 42.6417 57.7008 42.3143V38.2593H59.2506V42.3143C59.2522 42.8339 59.1867 43.3516 59.0557 43.8544C58.9354 44.3092 58.7249 44.7351 58.4367 45.107C58.1491 45.4734 57.7782 45.7658 57.3547 45.9599C56.8583 46.1805 56.3187 46.2871 55.7756 46.2718C55.2177 46.2901 54.6633 46.1766 54.1575 45.9404C53.7328 45.7395 53.3619 45.4404 53.0755 45.068C52.7918 44.6918 52.5863 44.2626 52.4712 43.8057C52.3489 43.318 52.2883 42.817 52.2908 42.3143V38.2593H53.8358V42.3143C53.8326 42.6418 53.8653 42.9686 53.9333 43.289C53.9894 43.5809 54.0984 43.8601 54.255 44.1127C54.4065 44.3505 54.6118 44.5492 54.8545 44.6927C55.1262 44.8469 55.434 44.9259 55.7464 44.9218Z" fill="white"/>
<path d="M62.4771 46.2329V38.274H65.9959C66.3469 38.2717 66.6938 38.35 67.0097 38.503C67.3129 38.6505 67.5845 38.8558 67.809 39.1074C68.0324 39.3601 68.212 39.6483 68.3402 39.9603C68.4663 40.2698 68.5308 40.6009 68.5303 40.9351C68.5347 41.4303 68.3996 41.9167 68.1404 42.3387C67.8982 42.7485 67.5309 43.0696 67.0925 43.255L68.9105 46.2475H67.1705L65.5475 43.5767H64.022V46.2475L62.4771 46.2329ZM64.022 42.2071H65.9716C66.1113 42.2072 66.2488 42.172 66.3712 42.1048C66.496 42.0387 66.6042 41.9454 66.688 41.8318C66.7807 41.7076 66.8531 41.5694 66.9025 41.4224C66.9521 41.2647 66.9784 41.1005 66.9804 40.9351C66.9835 40.7585 66.9521 40.583 66.8878 40.4184C66.8338 40.2686 66.7528 40.1299 66.649 40.009C66.5533 39.8968 66.4355 39.8056 66.303 39.741C66.1789 39.6785 66.0422 39.6451 65.9033 39.6435H64.0318L64.022 42.2071Z" fill="white"/>
<path d="M73.7502 38.2739H75.1198L78.1464 46.2328H76.5527L75.8216 44.2492H73.0387L72.3125 46.2328H70.7188L73.7502 38.2739ZM75.5341 43.1477L74.4375 40.0187L73.2921 43.1477H75.5341Z" fill="white"/>
<path d="M82.2501 41.13V46.2328H80.6953V38.2739H81.8991L86.0565 43.4986V38.2837H87.6015V46.2328H86.344L82.2501 41.13Z" fill="white"/>
<path d="M90.4429 42.1971C90.4418 41.6978 90.531 41.2025 90.7061 40.7349C90.88 40.266 91.1413 39.8344 91.4761 39.4629C91.8232 39.0822 92.2423 38.7741 92.7092 38.5563C93.2283 38.3171 93.7948 38.1988 94.3663 38.2103C95.0325 38.196 95.6899 38.3646 96.2671 38.6977C96.7773 38.9938 97.1917 39.4303 97.4611 39.9551L96.2914 40.7837C96.1995 40.574 96.0708 40.3825 95.9113 40.2183C95.7697 40.0709 95.6051 39.9474 95.4239 39.8528C95.2547 39.7642 95.0744 39.6986 94.8878 39.6578C94.7072 39.6158 94.5224 39.5946 94.337 39.5945C93.9841 39.5849 93.6348 39.6672 93.3233 39.8333C93.0439 39.9832 92.7997 40.1909 92.6068 40.4425C92.4119 40.6983 92.2649 40.9872 92.1731 41.2954C92.0773 41.6015 92.028 41.9202 92.0269 42.2409C92.0268 42.586 92.0845 42.9286 92.1974 43.2547C92.3033 43.5693 92.4688 43.8605 92.6848 44.1125C92.8875 44.3583 93.1378 44.5606 93.4208 44.7071C93.7143 44.8589 94.0407 44.9359 94.3712 44.9313C94.5599 44.9294 94.7479 44.9065 94.9316 44.863C95.1261 44.8185 95.3133 44.7463 95.4873 44.6486C95.6686 44.5501 95.8331 44.4234 95.9746 44.2733C96.1273 44.1141 96.248 43.9271 96.3304 43.7226L97.5976 44.4488C97.4726 44.7459 97.2886 45.0145 97.0566 45.2383C96.819 45.4685 96.5499 45.6638 96.2573 45.8183C95.9581 45.9757 95.6405 46.0952 95.3118 46.1741C94.9931 46.255 94.6658 46.2975 94.337 46.3008C93.7959 46.306 93.2613 46.1824 92.7774 45.9401C92.3153 45.7088 91.9017 45.3912 91.559 45.0044C91.2184 44.6181 90.9493 44.1741 90.7646 43.6933C90.5648 43.2191 90.4557 42.7115 90.4429 42.1971Z" fill="white"/>
<path d="M105.834 44.873V46.2328H100.307V38.2739H105.732V39.6288H101.833V41.5442H105.186V42.8017H101.833V44.873H105.834Z" fill="white"/>
<path d="M111.756 103.115H22.3416V83.9902H111.756V103.115ZM22.8289 102.628H111.269V84.4776H22.8289V102.628Z" fill="#EBEBEB"/>
<path d="M111.517 95.2632H22.5852V95.7506H111.517V95.2632Z" fill="#EBEBEB"/>
<path d="M111.517 87.9087H22.5852V88.3961H111.517V87.9087Z" fill="#EBEBEB"/>
<path d="M51.857 84.2339H51.3696V102.876H51.857V84.2339Z" fill="#EBEBEB"/>
<path d="M82.7279 84.2339H82.2405V102.876H82.7279V84.2339Z" fill="#EBEBEB"/>
<path d="M27.6636 86.227C29.2329 86.1295 30.8072 86.0807 32.3814 86.0418C33.9556 86.0028 35.525 85.993 37.0992 85.9833C38.6735 85.9735 40.2428 85.9833 41.8171 86.0418L44.176 86.11C44.9607 86.149 45.7453 86.1734 46.5349 86.227C45.7453 86.2854 44.9607 86.3098 44.176 86.3488L41.8171 86.417C40.2428 86.4609 38.6686 86.4658 37.0992 86.4707C35.5299 86.4755 33.9508 86.4707 32.3814 86.417C30.812 86.3634 29.2329 86.3293 27.6636 86.227Z" fill="#455A64"/>
<path d="M57.613 86.227C59.1873 86.1295 60.7566 86.0807 62.3309 86.0418C63.9051 86.0028 65.4745 85.993 67.0487 85.9833C68.6229 85.9735 70.1923 85.9833 71.7665 86.0418L74.1254 86.11C74.9101 86.149 75.6997 86.1734 76.4844 86.227C75.6997 86.2854 74.9101 86.3098 74.1254 86.3488L71.7665 86.417C70.1923 86.4609 68.6229 86.4658 67.0487 86.4707C65.4745 86.4755 63.9051 86.4707 62.3309 86.417C60.7566 86.3634 59.1873 86.3293 57.613 86.227Z" fill="#455A64"/>
<path d="M87.7478 86.227C89.322 86.1295 90.8963 86.0807 92.4656 86.0418C94.035 86.0028 95.6141 85.993 97.1835 85.9833C98.7528 85.9735 100.332 85.9833 101.901 86.0418L104.26 86.11C105.05 86.149 105.834 86.1734 106.619 86.227C105.834 86.2854 105.05 86.3098 104.26 86.3488L101.901 86.417C100.332 86.4609 98.7577 86.4658 97.1835 86.4707C95.6092 86.4755 94.0399 86.4707 92.4656 86.417C90.8914 86.3634 89.322 86.3293 87.7478 86.227Z" fill="#455A64"/>
<path d="M27.6636 90.9301C29.2329 90.8326 30.8072 90.7839 32.3814 90.7449C33.9556 90.7059 35.525 90.6961 37.0992 90.6864C38.6735 90.6767 40.2428 90.6864 41.8171 90.7449L44.176 90.8131C44.9607 90.8521 45.7453 90.8765 46.5349 90.9301C45.7453 90.9886 44.9607 91.0081 44.176 91.0519L41.8171 91.1202C40.2428 91.164 38.6686 91.1689 37.0992 91.1738C35.5299 91.1787 33.9508 91.1738 32.3814 91.1202C30.812 91.0666 29.2329 91.0324 27.6636 90.9301Z" fill="#EBEBEB"/>
<path d="M57.613 90.9301C59.1873 90.8326 60.7566 90.7839 62.3309 90.7449C63.9051 90.7059 65.4745 90.6961 67.0487 90.6864C68.6229 90.6767 70.1923 90.6864 71.7665 90.7449L74.1254 90.8131C74.9101 90.8521 75.6997 90.8765 76.4844 90.9301C75.6997 90.9886 74.9101 91.0081 74.1254 91.0519L71.7665 91.1202C70.1923 91.164 68.6229 91.1689 67.0487 91.1738C65.4745 91.1787 63.9051 91.1738 62.3309 91.1202C60.7566 91.0666 59.1873 91.0324 57.613 90.9301Z" fill="#EBEBEB"/>
<path d="M87.7478 90.9301C89.322 90.8326 90.8963 90.7839 92.4656 90.7449C94.035 90.7059 95.6141 90.6961 97.1835 90.6864C98.7528 90.6767 100.332 90.6864 101.901 90.7449L104.26 90.8131C105.05 90.8521 105.834 90.8765 106.619 90.9301C105.834 90.9886 105.05 91.0081 104.26 91.0519L101.901 91.1202C100.332 91.164 98.7577 91.1689 97.1835 91.1738C95.6092 91.1787 94.0399 91.1738 92.4656 91.1202C90.8914 91.0666 89.322 91.0324 87.7478 90.9301Z" fill="#EBEBEB"/>
<path d="M27.6636 92.8213C29.2329 92.7238 30.8072 92.6751 32.3814 92.6361C33.9556 92.5971 35.525 92.5825 37.0992 92.5776C38.6735 92.5727 40.2428 92.5776 41.8171 92.6361L44.176 92.7043C44.9607 92.7433 45.7453 92.7677 46.5349 92.8213C45.7453 92.8798 44.9607 92.8993 44.176 92.9431L41.8171 93.0114C40.2428 93.0552 38.6686 93.0601 37.0992 93.065C35.5299 93.0699 33.9508 93.065 32.3814 93.0065C30.812 92.948 29.2329 92.9236 27.6636 92.8213Z" fill="#EBEBEB"/>
<path d="M57.613 92.8213C59.1873 92.7238 60.7566 92.6751 62.3309 92.6361C63.9051 92.5971 65.4745 92.5825 67.0487 92.5776C68.6229 92.5727 70.1923 92.5776 71.7665 92.6361L74.1254 92.7043C74.9101 92.7433 75.6997 92.7677 76.4844 92.8213C75.6997 92.8798 74.9101 92.8993 74.1254 92.9431L71.7665 93.0114C70.1923 93.0552 68.6229 93.0601 67.0487 93.065C65.4745 93.0699 63.9051 93.065 62.3309 93.0065C60.7566 92.948 59.1873 92.9236 57.613 92.8213Z" fill="#EBEBEB"/>
<path d="M87.7478 92.8213C89.322 92.7238 90.8963 92.6751 92.4656 92.6361C94.035 92.5971 95.6141 92.5825 97.1835 92.5776C98.7528 92.5727 100.332 92.5776 101.901 92.6361L104.26 92.7043C105.05 92.7433 105.834 92.7677 106.619 92.8213C105.834 92.8798 105.05 92.8993 104.26 92.9431L101.901 93.0114C100.332 93.0552 98.7577 93.0601 97.1835 93.065C95.6092 93.0699 94.0399 93.065 92.4656 93.0065C90.8914 92.948 89.322 92.9236 87.7478 92.8213Z" fill="#EBEBEB"/>
<path d="M27.6636 97.8705C29.2329 97.773 30.8072 97.7243 32.3814 97.6853C33.9556 97.6463 35.525 97.6366 37.0992 97.6268C38.6735 97.6171 40.2428 97.6268 41.8171 97.6853L44.176 97.7536C44.9607 97.7925 45.7453 97.8169 46.5349 97.8705C45.7453 97.929 44.9607 97.9485 44.176 97.9924L41.8171 98.0606C40.2428 98.1045 38.6686 98.1093 37.0992 98.1142C35.5299 98.1191 33.9508 98.1142 32.3814 98.0606C30.812 98.007 29.2329 97.9972 27.6636 97.8705Z" fill="#EBEBEB"/>
<path d="M57.613 97.8705C59.1873 97.773 60.7566 97.7243 62.3309 97.6853C63.9051 97.6463 65.4745 97.6366 67.0487 97.6268C68.6229 97.6171 70.1923 97.6268 71.7665 97.6853L74.1254 97.7536C74.9101 97.7925 75.6997 97.8169 76.4844 97.8705C75.6997 97.929 74.9101 97.9485 74.1254 97.9924L71.7665 98.0606C70.1923 98.1045 68.6229 98.1093 67.0487 98.1142C65.4745 98.1191 63.9051 98.1142 62.3309 98.0606C60.7566 98.007 59.1873 97.9972 57.613 97.8705Z" fill="#EBEBEB"/>
<path d="M87.7478 97.8705C89.322 97.773 90.8963 97.7243 92.4656 97.6853C94.035 97.6463 95.6141 97.6366 97.1835 97.6268C98.7528 97.6171 100.332 97.6268 101.901 97.6853L104.26 97.7536C105.05 97.7925 105.834 97.8169 106.619 97.8705C105.834 97.929 105.05 97.9485 104.26 97.9924L101.901 98.0606C100.332 98.1045 98.7577 98.1093 97.1835 98.1142C95.6092 98.1191 94.0399 98.1142 92.4656 98.0606C90.8914 98.007 89.322 97.9972 87.7478 97.8705Z" fill="#EBEBEB"/>
<path d="M27.6636 99.7617C29.2329 99.6642 30.8072 99.6155 32.3814 99.5765C33.9556 99.5375 35.525 99.5229 37.0992 99.518C38.6735 99.5132 40.2428 99.518 41.8171 99.5765L44.176 99.6448C44.9607 99.6837 45.7453 99.7081 46.5349 99.7617C45.7453 99.8202 44.9607 99.8397 44.176 99.8836L41.8171 99.9518C40.2428 99.9957 38.6686 100.001 37.0992 100.005C35.5299 100.01 33.9508 100.005 32.3814 99.9469C30.812 99.8884 29.2329 99.8641 27.6636 99.7617Z" fill="#EBEBEB"/>
<path d="M57.613 99.7617C59.1873 99.6642 60.7566 99.6155 62.3309 99.5765C63.9051 99.5375 65.4745 99.5229 67.0487 99.518C68.6229 99.5132 70.1923 99.518 71.7665 99.5765L74.1254 99.6448C74.9101 99.6837 75.6997 99.7081 76.4844 99.7617C75.6997 99.8202 74.9101 99.8397 74.1254 99.8836L71.7665 99.9518C70.1923 99.9957 68.6229 100.001 67.0487 100.005C65.4745 100.01 63.9051 100.005 62.3309 99.9469C60.7566 99.8884 59.1873 99.8641 57.613 99.7617Z" fill="#EBEBEB"/>
<path d="M87.7478 99.7617C89.322 99.6642 90.8963 99.6155 92.4656 99.5765C94.035 99.5375 95.6141 99.5229 97.1835 99.518C98.7528 99.5132 100.332 99.518 101.901 99.5765L104.26 99.6448C105.05 99.6837 105.834 99.7081 106.619 99.7617C105.834 99.8202 105.05 99.8397 104.26 99.8836L101.901 99.9518C100.332 99.9957 98.7577 100.001 97.1835 100.005C95.6092 100.01 94.0399 100.005 92.4656 99.9469C90.8914 99.8884 89.322 99.8641 87.7478 99.7617Z" fill="#EBEBEB"/>
<path d="M43.913 69.5732C41.3857 72.9518 38.1631 75.7489 34.4627 77.7758C30.7623 75.7489 27.5397 72.9518 25.0124 69.5732C21.6885 65.1868 21.8542 58.2807 26.611 56.7893C31.8747 55.1419 34.4627 63.0619 34.4627 63.0619C34.4627 63.0619 37.0848 55.0883 42.3144 56.7893C47.0663 58.3294 47.2369 65.1722 43.913 69.5732Z" fill="#C53F3F"/>
<path d="M30.7488 74.2961L29.3159 68.3209L28.3801 70.4263H22.5852V69.7538H27.9415L29.506 66.23L30.6221 70.8894L32.2061 61.2393L33.6 68.8716L34.7063 65.6842L36.4463 70.904L36.8313 69.7489H46.3498V70.4263H37.3138L36.4463 73.0338L34.6917 67.7799L33.4002 71.5181L32.2402 65.187L30.7488 74.2961Z" fill="white"/>
<path d="M95.3557 9.43555H38.7466V26.6936H95.3557V9.43555Z" fill="#C7C7C7"/>
<path d="M84.3557 0H49.2254L47.6707 9.43566H86.4319L84.3557 0ZM67.0488 6.78919C66.6392 6.78919 66.2387 6.66771 65.8981 6.4401C65.5574 6.2125 65.2919 5.889 65.1352 5.51051C64.9784 5.13201 64.9374 4.71553 65.0173 4.31373C65.0972 3.91192 65.2945 3.54284 65.5842 3.25316C65.8739 2.96347 66.2429 2.76619 66.6447 2.68627C67.0466 2.60634 67.463 2.64737 67.8415 2.80414C68.22 2.96092 68.5435 3.22641 68.7711 3.56704C68.9987 3.90768 69.1202 4.30815 69.1202 4.71783C69.1202 5.26719 68.902 5.79405 68.5135 6.1825C68.1251 6.57096 67.5982 6.78919 67.0488 6.78919Z" fill="#C7C7C7"/>
<path d="M86.4319 9.43555H47.6707L48.0167 7.3252H85.964L86.4319 9.43555Z" fill="#A6A6A6"/>
</svg>
