<svg width="126" height="192" viewBox="0 0 126 192" fill="none" xmlns="http://www.w3.org/2000/svg">
<path d="M27.771 108.377C23.6334 106.347 19.3565 104.614 14.9726 103.192C8.65557 101.248 1.20212 103.028 1.03793 105.132C0.873736 107.236 1.99716 106.273 3.47056 108.554C4.94397 110.836 4.27856 116.168 6.38713 121.029C8.4957 125.89 14.8084 128.318 14.8084 128.318L27.771 108.377Z" fill="#92E3A9" stroke="#263238" stroke-linecap="round" stroke-linejoin="round"/>
<path opacity="0.3" d="M23.5581 113.078C23.5581 113.078 13.8363 106.921 8.16732 104.813C2.49838 102.704 2.17432 105.785 2.17432 105.785C3.10696 106.127 3.90731 106.756 4.46072 107.581C5.01413 108.406 5.29219 109.385 5.25507 110.378C5.25507 114.016 7.07415 121.552 11.4944 123.107C15.9146 124.663 23.5581 113.078 23.5581 113.078Z" fill="black"/>
<path d="M92.9275 119.958C95.4684 118.993 96.688 115.999 95.6516 113.271C94.6152 110.543 91.7153 109.113 89.1744 110.079C86.6335 111.044 85.4139 114.038 86.4502 116.766C87.4866 119.494 90.3866 120.924 92.9275 119.958Z" fill="#92E3A9" stroke="#263238" stroke-linecap="round" stroke-linejoin="round"/>
<path d="M23.2686 171.561L28.7215 187.92C28.8694 188.363 29.153 188.748 29.5323 189.021C29.9115 189.294 30.3671 189.441 30.8343 189.441H39.3334C39.7682 189.441 40.1937 189.314 40.557 189.075C40.9203 188.837 41.2055 188.496 41.3772 188.097L45.1795 179.274" fill="#92E3A9"/>
<path opacity="0.3" d="M26.0037 171.561L30.5146 187.92C30.6 188.33 30.8179 188.702 31.1348 188.977C31.4518 189.251 31.8502 189.414 32.2689 189.441H39.3162C39.7032 189.421 40.0744 189.281 40.378 189.04C40.6816 188.799 40.9025 188.469 41.0099 188.097L44.1641 179.274" fill="black"/>
<path d="M23.2686 171.561L28.7215 187.92C28.8694 188.363 29.153 188.748 29.5323 189.021C29.9115 189.294 30.3671 189.441 30.8343 189.441H39.3334C39.7682 189.441 40.1937 189.314 40.557 189.075C40.9203 188.837 41.2055 188.496 41.3772 188.097L45.1795 179.274" stroke="#263238" stroke-linecap="round" stroke-linejoin="round"/>
<path d="M64.282 171.561L58.8335 187.92C58.6856 188.363 58.4019 188.748 58.0227 189.021C57.6434 189.294 57.1878 189.441 56.7206 189.441H48.2301C47.7953 189.441 47.3699 189.314 47.0066 189.075C46.6433 188.837 46.3581 188.496 46.1864 188.097L42.384 179.274" fill="#263238"/>
<path d="M64.282 171.561L58.8335 187.92C58.6856 188.363 58.4019 188.748 58.0227 189.021C57.6434 189.294 57.1879 189.441 56.7206 189.441H48.2301C47.7953 189.441 47.3699 189.314 47.0066 189.075C46.6433 188.837 46.3581 188.496 46.1864 188.097L42.384 179.274" stroke="#263238" stroke-linecap="round" stroke-linejoin="round"/>
<path d="M82.339 171.561L76.8861 187.92C76.7382 188.363 76.4545 188.748 76.0752 189.021C75.696 189.294 75.2404 189.441 74.7732 189.441H66.2741C65.8393 189.441 65.4138 189.314 65.0505 189.075C64.6872 188.837 64.402 188.496 64.2303 188.097L60.428 179.274" fill="#92E3A9"/>
<path opacity="0.3" d="M78.476 171.561L74.7472 187.92C74.5398 188.827 73.9608 189.441 73.304 189.441H67.4925C66.8876 189.441 66.3388 188.914 66.0968 188.097L62.4846 179.455" fill="black"/>
<path d="M82.339 171.561L76.8861 187.92C76.7382 188.363 76.4545 188.748 76.0752 189.021C75.696 189.294 75.2404 189.441 74.7732 189.441H66.2741C65.8393 189.441 65.4138 189.314 65.0505 189.075C64.6872 188.837 64.402 188.496 64.2303 188.097L60.428 179.274" stroke="#263238" stroke-linecap="round" stroke-linejoin="round"/>
<path d="M53.199 182.324C79.0119 182.324 99.9375 163.347 99.9375 139.937C99.9375 116.527 79.0119 97.5493 53.199 97.5493C27.386 97.5493 6.46045 116.527 6.46045 139.937C6.46045 163.347 27.386 182.324 53.199 182.324Z" fill="#92E3A9"/>
<path opacity="0.3" d="M85.3892 110.974C88.13 116.41 89.5581 122.412 89.5588 128.499C89.5588 151.91 68.633 170.887 42.8203 170.887C33.2145 170.935 23.7992 168.208 15.707 163.032C23.8561 173.968 37.6526 181.179 53.2983 181.179C78.3592 181.179 98.6671 162.768 98.6671 140.053C98.6412 128.685 93.5686 118.415 85.3892 110.974Z" fill="black"/>
<path d="M53.199 182.324C79.0119 182.324 99.9375 163.347 99.9375 139.937C99.9375 116.527 79.0119 97.5493 53.199 97.5493C27.386 97.5493 6.46045 116.527 6.46045 139.937C6.46045 163.347 27.386 182.324 53.199 182.324Z" stroke="#263238" stroke-linecap="round" stroke-linejoin="round"/>
<path d="M96.0055 143.739C94.9858 152.277 91.0495 160.024 85.1213 166.142" stroke="#92E3A9" stroke-width="2" stroke-linecap="round" stroke-linejoin="round"/>
<path d="M95.2322 130.591C95.9217 133.45 96.2698 136.382 96.2692 139.323" stroke="#92E3A9" stroke-width="2" stroke-linecap="round" stroke-linejoin="round"/>
<path d="M41.6106 100.193C45.4617 99.293 49.404 98.8407 53.359 98.8452C55.891 98.8447 58.4197 99.0296 60.9248 99.3983" stroke="#263238" stroke-width="4" stroke-linecap="round" stroke-linejoin="round"/>
<path d="M62.368 129.783C62.368 129.783 66.9048 126.702 67.069 121.033C67.2332 115.364 59.7755 107.103 53.7825 103.698C47.7895 100.293 43.4124 100.945 43.2526 103.374C43.0927 105.802 40.9841 108.559 40.1761 113.256C39.3681 117.952 39.0398 124.922 45.3611 127.19" fill="#92E3A9"/>
<path d="M62.368 129.783C62.368 129.783 66.9048 126.702 67.069 121.033C67.2332 115.364 59.7755 107.103 53.7825 103.698C47.7895 100.293 43.4124 100.945 43.2526 103.374C43.0927 105.802 40.9841 108.559 40.1761 113.256C39.3681 117.952 39.0398 124.922 45.3611 127.19" stroke="#263238" stroke-linecap="round" stroke-linejoin="round"/>
<path opacity="0.3" d="M52.6071 127.963L53.5361 128.102C57.5199 128.676 58.9199 126.075 58.8032 122.169C58.6433 116.66 51.3541 104.994 48.2733 103.374C45.1926 101.753 44.2247 104.022 44.2247 104.022C44.2247 104.022 44.6568 104.311 43.1402 109.345C42.4402 111.67 39.8347 119.775 42.4142 123.37C44.6957 126.546 48.9344 127.415 52.6071 127.963Z" fill="black"/>
<path opacity="0.3" d="M65.5135 122.381H65.453C65.3964 122.374 65.3419 122.355 65.2926 122.327C65.2432 122.298 65.2 122.26 65.1655 122.215C65.1309 122.169 65.1057 122.117 65.0913 122.062C65.0768 122.007 65.0735 121.95 65.0814 121.893C65.1282 121.561 65.1556 121.226 65.1635 120.891C65.2499 117.866 62.7827 113.524 58.7254 109.518C58.6849 109.478 58.6526 109.431 58.6304 109.378C58.6082 109.326 58.5966 109.269 58.5962 109.212C58.5958 109.155 58.6066 109.099 58.6281 109.046C58.6495 108.993 58.6811 108.945 58.7211 108.905C58.7611 108.864 58.8087 108.832 58.8612 108.81C58.9137 108.787 58.97 108.776 59.027 108.775C59.084 108.775 59.1405 108.786 59.1933 108.807C59.246 108.829 59.2941 108.86 59.3347 108.9C63.6209 113.135 66.1227 117.624 66.0277 120.912C66.0184 121.279 65.9895 121.646 65.9412 122.01C65.9267 122.113 65.8754 122.207 65.7968 122.275C65.7182 122.344 65.6176 122.381 65.5135 122.381Z" fill="black"/>
<path opacity="0.3" d="M63.1887 127.592C63.1069 127.592 63.0268 127.57 62.9575 127.526C62.8882 127.483 62.8327 127.42 62.7975 127.347C62.7622 127.273 62.7485 127.191 62.7581 127.109C62.7677 127.028 62.8001 126.951 62.8517 126.888C63.5638 126.016 64.1326 125.035 64.5368 123.984C64.5775 123.877 64.659 123.791 64.7636 123.744C64.8681 123.697 64.987 123.693 65.0942 123.734C65.2013 123.774 65.2879 123.856 65.3349 123.96C65.3819 124.065 65.3855 124.184 65.3448 124.291C64.9083 125.429 64.2927 126.489 63.5214 127.432C63.4812 127.482 63.4305 127.522 63.373 127.55C63.3154 127.577 63.2525 127.592 63.1887 127.592Z" fill="black"/>
<path opacity="0.3" d="M31.7234 148.138C33.0013 143.017 28.5471 137.495 21.7747 135.805C15.0023 134.116 8.47625 136.898 7.19836 142.019C5.92046 147.141 10.3746 152.662 17.147 154.352C23.9194 156.042 30.4455 153.26 31.7234 148.138Z" fill="black"/>
<path d="M31.1155 147.208C32.3933 142.087 27.9392 136.565 21.1668 134.875C14.3944 133.185 7.86834 135.967 6.59045 141.089C5.31255 146.21 9.76672 151.732 16.5391 153.422C23.3115 155.112 29.8376 152.33 31.1155 147.208Z" fill="#92E3A9" stroke="#263238" stroke-linecap="round" stroke-linejoin="round"/>
<path d="M15.0376 142.603C15.1154 143.761 14.6704 144.737 14.0482 144.763C13.426 144.789 12.8513 143.899 12.7519 142.741C12.6525 141.583 13.1192 140.602 13.7457 140.58C14.3722 140.559 14.9598 141.44 15.0376 142.603Z" stroke="#263238" stroke-linecap="round" stroke-linejoin="round"/>
<path d="M23.6013 144.75C23.6791 145.912 23.2341 146.885 22.6119 146.911C21.9897 146.937 21.415 146.046 21.3156 144.884C21.2162 143.722 21.6829 142.75 22.3094 142.724C22.9359 142.698 23.5106 143.588 23.6013 144.75Z" stroke="#263238" stroke-linecap="round" stroke-linejoin="round"/>
<path d="M37.735 147.753C37.6438 148.585 37.4493 149.402 37.156 150.186C34.6758 156.887 25.6971 159.786 16.8264 156.9" stroke="#263238" stroke-width="3" stroke-linecap="round" stroke-linejoin="round"/>
<path d="M36.2874 147.118H39.0397" stroke="#263238" stroke-width="3" stroke-linecap="round" stroke-linejoin="round"/>
<path d="M18.7534 129.178C18.4509 130.435 17.6775 131.338 17.0251 131.174C16.3726 131.01 16.0874 129.878 16.3942 128.607C16.701 127.337 17.4701 126.447 18.1226 126.607C18.775 126.767 19.0602 127.916 18.7534 129.178Z" fill="#263238" stroke="#263238" stroke-linecap="round" stroke-linejoin="round"/>
<path d="M26.722 130.915C27.0261 129.653 26.7442 128.503 26.0923 128.346C25.4404 128.188 24.6654 129.084 24.3613 130.346C24.0571 131.608 24.339 132.759 24.9909 132.916C25.6428 133.073 26.4178 132.177 26.722 130.915Z" fill="#263238" stroke="#263238" stroke-linecap="round" stroke-linejoin="round"/>
<path d="M38.6206 176.824L43.3735 188.101C43.5441 188.505 43.8298 188.849 44.1948 189.091C44.5598 189.333 44.988 189.462 45.4259 189.462H54.0676C54.5016 189.462 54.9259 189.335 55.2889 189.097C55.6518 188.859 55.9376 188.52 56.1114 188.123L61.2964 176.141H61.0717" fill="#92E3A9"/>
<path opacity="0.3" d="M48.6623 175.385C45.9229 175.385 42.7341 175.744 40.1545 175.147L44.5964 188.08C44.7021 188.455 44.9227 188.788 45.2272 189.032C45.5316 189.276 45.9048 189.419 46.2945 189.441H53.4152C53.8002 189.419 54.1691 189.279 54.4709 189.039C54.7727 188.799 54.9927 188.471 55.1003 188.101L59.3996 174.91L57.6712 175.147C52.1881 175.744 52.3307 175.385 48.6623 175.385Z" fill="black"/>
<path d="M38.6206 176.824L43.3735 188.101C43.5441 188.505 43.8298 188.849 44.1948 189.091C44.5598 189.333 44.988 189.462 45.4259 189.462H54.0676C54.5016 189.462 54.9259 189.335 55.2889 189.097C55.6518 188.859 55.9376 188.52 56.1114 188.123L61.2964 176.141H61.0717" stroke="#263238" stroke-linecap="round" stroke-linejoin="round"/>
<path d="M124.709 1.15555L100.811 35.5883C100.811 35.5883 98.7668 40.4622 96.2521 44.0788C93.7374 47.6953 86.6858 51.3119 86.6858 51.3119C86.6858 51.3119 86.0592 58.0696 84.0155 60.4288C81.9717 62.788 77.5688 61.3751 77.5688 61.3751C77.5688 61.3751 75.6806 63.4188 73.6368 64.3608C71.5931 65.3027 65.3063 61.8461 65.3063 61.8461C65.3063 61.8461 70.9622 67.9773 71.7486 70.0211C72.535 72.0648 73.9523 73.7932 71.4375 75.6814C68.9228 77.5696 66.0883 74.895 66.0883 74.895C66.0883 74.895 67.35 78.9825 63.7335 79.7689C60.1169 80.5553 56.1763 72.6914 54.6035 70.0211C53.0307 67.3508 48.4723 57.2832 47.6902 56.8123C46.9081 56.3413 45.8063 53.8266 47.3791 51.4674C48.9519 49.1082 60.1083 34.0155 61.3656 32.9396C62.623 31.8638 86.6858 26.1559 86.6858 26.1559L95.807 1" fill="#EB996E"/>
<path opacity="0.2" d="M98.3521 35.9641C98.3521 35.9641 95.7596 43.7416 92.951 45.2539C90.1425 46.7662 74.1554 50.871 67.8902 50.0068C61.625 49.1426 58.1683 46.7662 58.1683 46.7662C58.1683 46.7662 54.7116 51.303 53.1993 52.8153C52.1463 53.7933 50.893 54.5305 49.5266 54.9758C49.5266 54.9758 57.0449 73.8621 62.4502 79.7082C62.8702 79.838 63.3163 79.8588 63.7465 79.7687C67.363 78.9823 66.1014 74.8948 66.1014 74.8948C66.1014 74.8948 68.9315 77.5651 71.4506 75.6812C73.9696 73.7973 72.548 72.0647 71.7616 70.0209C70.9753 67.9772 65.2977 61.8459 65.2977 61.8459C65.2977 61.8459 71.5845 65.3026 73.6283 64.3606C75.672 63.4187 77.5602 61.3706 77.5602 61.3706C77.5602 61.3706 81.9631 62.7878 84.0069 60.4286C86.0507 58.0695 86.6772 51.3117 86.6772 51.3117C86.6772 51.3117 93.7504 47.6951 96.2694 44.0786C98.7885 40.4621 100.828 35.5881 100.828 35.5881L110.675 21.4028L98.3521 35.9641Z" fill="black"/>
<path d="M124.709 1.15555L100.811 35.5883C100.811 35.5883 98.7668 40.4622 96.2521 44.0788C93.7374 47.6953 86.6858 51.3119 86.6858 51.3119C86.6858 51.3119 86.0592 58.0696 84.0155 60.4288C81.9717 62.788 77.5688 61.3751 77.5688 61.3751C77.5688 61.3751 75.6806 63.4188 73.6368 64.3608C71.5931 65.3027 65.3063 61.8461 65.3063 61.8461C65.3063 61.8461 70.9622 67.9773 71.7486 70.0211C72.535 72.0648 73.9523 73.7932 71.4375 75.6814C68.9228 77.5696 66.0883 74.895 66.0883 74.895C66.0883 74.895 67.35 78.9825 63.7335 79.7689C60.1169 80.5553 56.1763 72.6914 54.6035 70.0211C53.0307 67.3508 48.4723 57.2832 47.6902 56.8123C46.9081 56.3413 45.8063 53.8266 47.3791 51.4674C48.9519 49.1082 60.1083 34.0155 61.3656 32.9396C62.623 31.8638 86.6858 26.1559 86.6858 26.1559L95.807 1" stroke="#263238" stroke-linecap="round" stroke-linejoin="round"/>
<path d="M42.9719 92.9736L43.5984 95.3327L53.3463 92.9736L62.4675 69.075L56.4918 67.0312L42.9719 92.9736Z" fill="white" stroke="#263238" stroke-linecap="round" stroke-linejoin="round"/>
<path d="M45.9575 61.2153L59.4774 66.2491L52.8752 96.1191L36.9961 91.2452L45.9575 61.2153Z" fill="white" stroke="#263238" stroke-linecap="round" stroke-linejoin="round"/>
<path d="M37.5276 89.4605L51.6178 93.6041L57.7491 67.031L45.4045 63.0645L37.5276 89.4605Z" fill="#92E3A9" stroke="#263238" stroke-linecap="round" stroke-linejoin="round"/>
<path d="M45.3483 69.6366C44.735 69.4743 44.0942 69.4448 43.4687 69.5501L39.7874 81.8861C40.3202 82.4054 40.9757 82.7814 41.6928 82.9793C44.5792 83.7743 47.742 81.4281 48.7531 77.7425C49.7642 74.0568 48.2303 70.4273 45.3483 69.6366Z" fill="white" stroke="#263238" stroke-linecap="round" stroke-linejoin="round"/>
<path d="M44.8255 71.6804C44.807 71.6721 44.7918 71.6577 44.7824 71.6397C44.773 71.6217 44.7699 71.601 44.7736 71.581L44.9378 70.9416C44.9478 70.9146 44.9516 70.8857 44.9488 70.8571C44.9461 70.8285 44.9369 70.8009 44.9219 70.7764C44.9069 70.7518 44.8866 70.731 44.8624 70.7155C44.8382 70.6999 44.8108 70.6901 44.7823 70.6866L44.0953 70.5224C44.0684 70.5115 44.0393 70.507 44.0103 70.5094C43.9814 70.5118 43.9534 70.5209 43.9286 70.536C43.9038 70.5511 43.8829 70.5718 43.8676 70.5965C43.8523 70.6211 43.8429 70.6491 43.8403 70.678L43.7064 71.3391C43.7013 71.3588 43.6895 71.3762 43.6729 71.3881C43.6563 71.3999 43.636 71.4055 43.6157 71.4039C43.3815 71.3799 43.1455 71.3799 42.9114 71.4039L41.654 75.6253C42.6348 76.6451 44.1644 77.1549 43.9613 78.0104C43.8446 78.4944 43.4039 78.8746 42.6305 78.7018C42.4688 78.6802 42.3136 78.624 42.1755 78.537C42.0375 78.45 41.9197 78.3344 41.8304 78.1978C41.741 78.0613 41.6821 77.9072 41.6576 77.7458C41.6331 77.5845 41.6437 77.4198 41.6886 77.2629L41.7274 77.0901C41.749 76.995 41.6929 76.9173 41.5589 76.887L41.2954 76.8222L40.5479 79.3197C40.8481 79.5926 41.1989 79.804 41.5805 79.9419C41.5999 79.9504 41.6157 79.9654 41.6252 79.9844C41.6346 80.0033 41.6372 80.0249 41.6324 80.0456L41.4768 80.5943C41.4649 80.6211 41.4597 80.6505 41.4616 80.6798C41.4635 80.7091 41.4724 80.7375 41.4877 80.7626C41.503 80.7876 41.5242 80.8086 41.5494 80.8237C41.5746 80.8388 41.6031 80.8476 41.6324 80.8492L42.3453 81.0221C42.3704 81.0354 42.3982 81.0428 42.4265 81.0437C42.4549 81.0446 42.4831 81.039 42.509 81.0273C42.5348 81.0156 42.5577 80.9982 42.5757 80.9763C42.5938 80.9544 42.6066 80.9287 42.6132 80.9011L42.7299 80.3567C42.7363 80.3365 42.749 80.319 42.7661 80.3065C42.7832 80.2941 42.8038 80.2874 42.8249 80.2875C44.3459 80.4474 45.3785 79.6999 45.6983 78.3691C45.9489 77.3061 45.5903 76.4031 44.4798 75.5519C43.4644 74.7828 42.3928 74.4025 42.5786 73.6162C42.7083 73.0717 43.2052 72.8211 43.8749 72.981C44.0406 73.0077 44.1987 73.0699 44.338 73.1635C44.4774 73.2571 44.5949 73.3797 44.6824 73.523C44.7698 73.6663 44.8252 73.8269 44.8447 73.9936C44.8642 74.1604 44.8473 74.3294 44.7952 74.489L44.765 74.6099C44.765 74.6834 44.8082 74.7482 44.9421 74.7828L46.2082 75.0852C46.2351 75.0952 46.264 75.099 46.2926 75.0962C46.3212 75.0935 46.3488 75.0843 46.3733 75.0693C46.3979 75.0543 46.4187 75.034 46.4343 75.0098C46.4498 74.9856 46.4597 74.9582 46.4631 74.9297L46.5581 74.5278C46.8476 73.2618 46.2384 72.186 44.8255 71.6804Z" fill="#263238"/>
<path d="M57.1184 45.4916C57.1184 45.4916 59.0066 48.3217 59.322 50.8408C59.59 52.9878 59.0878 55.1604 57.9048 56.972C56.9628 58.385 56.0209 59.6423 55.2345 61.846C54.4481 64.0496 54.2926 67.1908 53.1907 68.7593C52.0889 70.3278 51.4624 71.9005 53.0309 73.3178C54.5993 74.735 58.6912 74.5751 60.8948 70.4876C63.0984 66.4001 64.5113 61.9972 65.9243 60.4244C67.3372 58.8516 71.9 55.2394 71.9 55.2394C71.9 55.2394 84.3181 53.5111 86.6772 51.3117C89.0364 49.1124 91.0802 43.1367 91.0802 43.1367" fill="#EB996E"/>
<path opacity="0.2" d="M90.1426 45.2539C90.1426 45.2539 83.4453 49.5747 78.2602 50.871C73.0752 52.1672 69.8346 52.1672 67.8902 54.7598C65.9459 57.3523 64.0015 65.5618 61.409 67.0741C58.8165 68.5864 58.3844 63.1854 54.7117 64.2656L54.5907 64.3088C54.2321 65.9939 53.9166 67.7223 53.1907 68.7636C52.0889 70.3364 51.4624 71.9048 53.0309 73.3221C54.5993 74.7393 58.6912 74.5794 60.8948 70.4919C63.0984 66.4044 64.5113 62.0015 65.9243 60.4287C67.3372 58.8559 71.9 55.2437 71.9 55.2437C71.9 55.2437 84.3181 53.5153 86.6772 51.316C88.1031 49.9852 89.4123 47.2804 90.2247 45.3446L90.1426 45.2539Z" fill="black"/>
<path d="M57.1184 45.4916C57.1184 45.4916 59.0066 48.3217 59.322 50.8408C59.59 52.9878 59.0878 55.1604 57.9048 56.972C56.9628 58.385 56.0209 59.6423 55.2345 61.8459C54.4481 64.0496 54.2926 67.1908 53.1907 68.7593C52.0889 70.3278 51.4624 71.9005 53.0309 73.3178C54.5993 74.735 58.6912 74.5751 60.8948 70.4876C63.0984 66.4001 64.5113 61.9972 65.9243 60.4244C67.3372 58.8516 71.9 55.2394 71.9 55.2394C71.9 55.2394 84.3181 53.5111 86.6772 51.3117C89.0364 49.1124 91.0802 43.1367 91.0802 43.1367" stroke="#FF725E" stroke-linecap="round" stroke-linejoin="round"/>
<path d="M52.2444 53.3555C52.2444 53.3555 56.3362 55.5548 59.3219 53.04" stroke="#263238" stroke-linecap="round" stroke-linejoin="round"/>
<path d="M66.0798 74.8952L62.4675 67.9775" stroke="#263238" stroke-linecap="round" stroke-linejoin="round"/>
<path d="M77.5601 61.3752C77.5601 61.3752 80.3902 59.016 80.2303 53.8267" stroke="#263238" stroke-linecap="round" stroke-linejoin="round"/>
<path d="M1 190.837L115.14 189" stroke="#263238" stroke-linecap="round" stroke-linejoin="round"/>
</svg>
