<?xml version="1.0" encoding="utf-8"?>
<!-- Generator: Adobe Illustrator 24.3.0, SVG Export Plug-In . SVG Version: 6.00 Build 0)  -->
<svg version="1.1" id="Layer_1" xmlns="http://www.w3.org/2000/svg" xmlns:xlink="http://www.w3.org/1999/xlink" x="0px" y="0px"
	 viewBox="0 0 746.2 649.4" style="enable-background:new 0 0 746.2 649.4;" xml:space="preserve">
<style type="text/css">
	.st0{fill:#FFFFFF;}
	.st1{opacity:0.2949;fill:#01ADEF;enable-background:new    ;}
	.st2{opacity:0.2949;fill:none;stroke:#66DBFF;stroke-miterlimit:10;enable-background:new    ;}
	.st3{opacity:0.1949;fill:#01ADEF;enable-background:new    ;}
	.st4{fill:#FFCE00;}
	.st5{fill:#212C34;}
	.st6{fill:#3AA3DD;}
	.st7{fill:#0F9FE8;}
	.st8{fill:#01ADEF;}
	.st9{fill:#01ADEF;stroke:#FFFFFF;stroke-linecap:round;stroke-linejoin:round;stroke-miterlimit:10;}
	.st10{fill:none;stroke:#FFFFFF;stroke-linecap:round;stroke-linejoin:round;stroke-miterlimit:10;}
	.st11{opacity:0.3502;fill:#E2940A;enable-background:new    ;}
	.st12{opacity:0.2;enable-background:new    ;}
	.st13{fill:#BF1424;}
	.st14{fill:#A01029;}
	.st15{opacity:0.144;fill:#FF954D;enable-background:new    ;}
	.st16{fill:#A01025;}
	.st17{opacity:0.2;}
	.st18{fill:#1D272D;}
	.st19{fill:#182126;}
	.st20{fill:#FFAE00;}
	.st21{fill:#273238;}
	.st22{opacity:0.52;fill:#E2940A;enable-background:new    ;}
	.st23{opacity:0.5429;}
	.st24{opacity:0.5429;fill:#FFFFFF;enable-background:new    ;}
	.st25{fill:none;stroke:#FFFFFF;stroke-linecap:round;stroke-miterlimit:10;}
	.st26{fill:none;stroke:#FFFFFF;stroke-miterlimit:10;}
	.st27{fill:#FFE05F;}
	.st28{fill:#FFD41D;}
</style>
<g id="DESIGNED_BY_FREEPIK">
	<g>
		<g>
			<path class="st0" d="M297.7,547.5v-0.2c-0.2,0.2-0.4,0.5-0.6,0.6c-0.2,0.2-0.4,0.3-0.7,0.4c-0.2,0.1-0.5,0.1-0.8,0.1
				c-0.4,0-0.7-0.1-1.1-0.2c-0.3-0.2-0.6-0.4-0.9-0.7c-0.2-0.3-0.4-0.7-0.5-1.1c-0.1-0.4-0.2-0.9-0.2-1.3c0-1,0.2-1.8,0.7-2.4
				c0.5-0.6,1.1-0.8,2-0.8c0.5,0,0.9,0.1,1.2,0.2c0.3,0.2,0.6,0.4,0.9,0.7v-2.4c0-0.3,0.1-0.6,0.2-0.8s0.3-0.3,0.6-0.3
				c0.2,0,0.4,0.1,0.6,0.2c0.1,0.2,0.2,0.4,0.2,0.7v7.1c0,0.3-0.1,0.5-0.2,0.7c-0.1,0.2-0.3,0.2-0.6,0.2c-0.2,0-0.4-0.1-0.5-0.2
				C297.8,548,297.7,547.8,297.7,547.5z M294.5,545.1c0,0.4,0.1,0.8,0.2,1.1s0.3,0.5,0.6,0.7c0.2,0.2,0.5,0.2,0.8,0.2
				c0.3,0,0.5-0.1,0.8-0.2c0.2-0.1,0.4-0.4,0.6-0.7c0.1-0.3,0.2-0.7,0.2-1.1c0-0.4-0.1-0.8-0.2-1.1c-0.1-0.3-0.3-0.5-0.6-0.7
				c-0.2-0.2-0.5-0.2-0.8-0.2c-0.3,0-0.6,0.1-0.8,0.3c-0.2,0.2-0.4,0.4-0.5,0.7C294.6,544.4,294.5,544.7,294.5,545.1z"/>
			<path class="st0" d="M304.9,545.6h-3.2c0,0.4,0.1,0.7,0.2,1c0.1,0.3,0.3,0.5,0.6,0.6c0.2,0.1,0.5,0.2,0.8,0.2
				c0.2,0,0.4,0,0.5-0.1c0.2,0,0.3-0.1,0.5-0.2c0.2-0.1,0.3-0.2,0.4-0.3c0.1-0.1,0.3-0.3,0.5-0.5c0.1-0.1,0.2-0.1,0.4-0.1
				c0.2,0,0.3,0,0.4,0.1c0.1,0.1,0.2,0.2,0.2,0.4c0,0.1-0.1,0.3-0.2,0.5c-0.1,0.2-0.3,0.4-0.5,0.6c-0.2,0.2-0.5,0.3-0.9,0.4
				c-0.3,0.1-0.8,0.2-1.2,0.2c-1,0-1.8-0.3-2.4-0.9c-0.6-0.6-0.9-1.4-0.9-2.4c0-0.5,0.1-0.9,0.2-1.3c0.1-0.4,0.3-0.8,0.6-1.1
				c0.3-0.3,0.6-0.5,1-0.7s0.8-0.2,1.3-0.2c0.6,0,1.2,0.1,1.6,0.4c0.5,0.3,0.8,0.6,1,1c0.2,0.4,0.3,0.9,0.3,1.3
				c0,0.4-0.1,0.7-0.3,0.8C305.6,545.5,305.3,545.6,304.9,545.6z M301.7,544.6h2.9c0-0.6-0.2-1-0.4-1.2c-0.3-0.3-0.6-0.4-1-0.4
				s-0.7,0.1-1,0.4C301.9,543.7,301.7,544.1,301.7,544.6z"/>
			<path class="st0" d="M312.2,546.3c0,0.4-0.1,0.8-0.3,1.1c-0.2,0.3-0.5,0.6-1,0.7c-0.4,0.2-0.9,0.2-1.6,0.2
				c-0.6,0-1.1-0.1-1.5-0.3s-0.7-0.4-0.9-0.7c-0.2-0.3-0.3-0.5-0.3-0.8c0-0.2,0.1-0.3,0.2-0.5c0.1-0.1,0.3-0.2,0.5-0.2
				c0.2,0,0.3,0,0.4,0.1c0.1,0.1,0.2,0.2,0.3,0.3c0.2,0.3,0.4,0.5,0.6,0.6c0.2,0.1,0.5,0.2,0.9,0.2c0.3,0,0.6-0.1,0.8-0.2
				c0.2-0.1,0.3-0.3,0.3-0.5c0-0.3-0.1-0.5-0.3-0.6c-0.2-0.1-0.6-0.3-1.1-0.4c-0.6-0.1-1-0.3-1.4-0.4c-0.4-0.2-0.6-0.4-0.8-0.6
				c-0.2-0.2-0.3-0.6-0.3-0.9s0.1-0.6,0.3-0.9c0.2-0.3,0.5-0.5,0.9-0.7s0.8-0.3,1.4-0.3c0.4,0,0.8,0,1.1,0.1
				c0.3,0.1,0.6,0.2,0.8,0.4c0.2,0.1,0.4,0.3,0.5,0.5s0.2,0.4,0.2,0.5c0,0.2-0.1,0.3-0.2,0.5c-0.1,0.1-0.3,0.2-0.5,0.2
				c-0.2,0-0.3,0-0.4-0.1c-0.1-0.1-0.2-0.2-0.4-0.4c-0.1-0.2-0.3-0.3-0.4-0.4c-0.2-0.1-0.4-0.1-0.7-0.1c-0.3,0-0.5,0.1-0.7,0.2
				c-0.2,0.1-0.3,0.3-0.3,0.5s0.1,0.3,0.2,0.4c0.1,0.1,0.3,0.2,0.6,0.3c0.2,0.1,0.6,0.2,1,0.3c0.5,0.1,0.9,0.3,1.2,0.4
				c0.3,0.2,0.6,0.4,0.7,0.6C312.2,545.8,312.2,546,312.2,546.3z"/>
			<path class="st0" d="M313.9,541.1c-0.2,0-0.4-0.1-0.6-0.2c-0.2-0.1-0.2-0.3-0.2-0.6c0-0.2,0.1-0.4,0.2-0.6
				c0.2-0.1,0.4-0.2,0.6-0.2s0.4,0.1,0.6,0.2c0.2,0.1,0.2,0.3,0.2,0.6c0,0.2-0.1,0.4-0.2,0.6C314.3,541,314.1,541.1,313.9,541.1z
				 M314.7,542.8v4.7c0,0.3-0.1,0.6-0.2,0.7c-0.2,0.2-0.4,0.2-0.6,0.2c-0.2,0-0.4-0.1-0.6-0.3c-0.1-0.2-0.2-0.4-0.2-0.7v-4.6
				c0-0.3,0.1-0.6,0.2-0.7c0.1-0.2,0.3-0.2,0.6-0.2c0.2,0,0.4,0.1,0.6,0.2C314.6,542.3,314.7,542.5,314.7,542.8z"/>
			<path class="st0" d="M321.8,543v4.7c0,0.5-0.1,1-0.2,1.4c-0.1,0.4-0.3,0.7-0.6,1c-0.3,0.3-0.6,0.4-1,0.6
				c-0.4,0.1-0.9,0.2-1.5,0.2s-1.1-0.1-1.5-0.2c-0.4-0.2-0.8-0.4-1-0.6c-0.2-0.2-0.4-0.5-0.4-0.8c0-0.2,0.1-0.4,0.2-0.5
				c0.1-0.1,0.3-0.2,0.5-0.2c0.2,0,0.4,0.1,0.6,0.3c0.1,0.1,0.2,0.2,0.3,0.3s0.2,0.2,0.3,0.3s0.2,0.1,0.4,0.2c0.2,0,0.3,0.1,0.5,0.1
				c0.4,0,0.7-0.1,1-0.2c0.2-0.1,0.4-0.3,0.5-0.5s0.1-0.4,0.2-0.7c0-0.2,0-0.6,0-1.2c-0.2,0.3-0.5,0.6-0.9,0.8
				c-0.3,0.2-0.7,0.3-1.2,0.3s-1-0.1-1.4-0.4s-0.7-0.7-0.9-1.2c-0.2-0.5-0.3-1.1-0.3-1.7c0-0.5,0.1-0.9,0.2-1.3
				c0.1-0.4,0.3-0.7,0.6-1c0.2-0.3,0.5-0.5,0.8-0.6c0.3-0.1,0.7-0.2,1.1-0.2c0.5,0,0.9,0.1,1.2,0.3c0.3,0.2,0.6,0.5,0.9,0.8v-0.2
				c0-0.3,0.1-0.5,0.2-0.7s0.3-0.2,0.5-0.2c0.3,0,0.5,0.1,0.6,0.3C321.7,542.4,321.8,542.7,321.8,543z M317.1,545.1
				c0,0.7,0.1,1.2,0.4,1.5s0.7,0.5,1.1,0.5c0.3,0,0.5-0.1,0.8-0.2c0.2-0.1,0.4-0.4,0.6-0.7c0.1-0.3,0.2-0.6,0.2-1.1
				c0-0.7-0.1-1.2-0.4-1.5s-0.7-0.6-1.1-0.6c-0.5,0-0.8,0.2-1.1,0.5C317.2,544,317.1,544.5,317.1,545.1z"/>
			<path class="st0" d="M324.4,542.8v0.2c0.3-0.4,0.6-0.7,0.9-0.8c0.3-0.2,0.7-0.3,1.2-0.3c0.4,0,0.8,0.1,1.1,0.3
				c0.3,0.2,0.6,0.4,0.8,0.8c0.1,0.2,0.2,0.4,0.2,0.6s0,0.5,0,0.9v3c0,0.3-0.1,0.6-0.2,0.7c-0.1,0.2-0.3,0.2-0.6,0.2
				c-0.2,0-0.4-0.1-0.6-0.3c-0.2-0.2-0.2-0.4-0.2-0.7v-2.7c0-0.5-0.1-0.9-0.2-1.2s-0.4-0.4-0.9-0.4c-0.3,0-0.6,0.1-0.8,0.3
				c-0.2,0.2-0.4,0.4-0.5,0.7c-0.1,0.2-0.1,0.7-0.1,1.4v2c0,0.3-0.1,0.6-0.2,0.7c-0.2,0.2-0.3,0.2-0.6,0.2c-0.2,0-0.4-0.1-0.6-0.3
				c-0.2-0.2-0.2-0.4-0.2-0.7v-4.7c0-0.3,0.1-0.5,0.2-0.7c0.1-0.2,0.3-0.2,0.6-0.2c0.1,0,0.3,0,0.4,0.1c0.1,0.1,0.2,0.2,0.3,0.3
				C324.3,542.4,324.4,542.6,324.4,542.8z"/>
			<path class="st0" d="M334.2,545.6H331c0,0.4,0.1,0.7,0.2,1s0.3,0.5,0.6,0.6c0.2,0.1,0.5,0.2,0.8,0.2c0.2,0,0.4,0,0.5-0.1
				c0.2,0,0.3-0.1,0.5-0.2c0.1-0.1,0.3-0.2,0.4-0.3c0.1-0.1,0.3-0.3,0.5-0.5c0.1-0.1,0.2-0.1,0.4-0.1c0.2,0,0.3,0,0.4,0.1
				c0.1,0.1,0.2,0.2,0.2,0.4c0,0.1-0.1,0.3-0.2,0.5s-0.3,0.4-0.5,0.6c-0.2,0.2-0.5,0.3-0.9,0.4c-0.4,0.1-0.8,0.2-1.2,0.2
				c-1,0-1.8-0.3-2.4-0.9c-0.6-0.6-0.9-1.4-0.9-2.4c0-0.5,0.1-0.9,0.2-1.3c0.1-0.4,0.3-0.8,0.6-1.1c0.3-0.3,0.6-0.5,1-0.7
				s0.8-0.2,1.3-0.2c0.6,0,1.2,0.1,1.6,0.4c0.5,0.3,0.8,0.6,1,1c0.2,0.4,0.3,0.9,0.3,1.3c0,0.4-0.1,0.7-0.4,0.8
				C335,545.5,334.7,545.6,334.2,545.6z M331.1,544.6h2.9c0-0.6-0.2-1-0.4-1.2c-0.3-0.3-0.6-0.4-1-0.4s-0.7,0.1-1,0.4
				C331.3,543.7,331.1,544.1,331.1,544.6z"/>
			<path class="st0" d="M340.8,547.5v-0.2c-0.2,0.2-0.4,0.5-0.6,0.6c-0.2,0.2-0.4,0.3-0.7,0.4c-0.2,0.1-0.5,0.1-0.8,0.1
				c-0.4,0-0.7-0.1-1.1-0.2c-0.3-0.2-0.6-0.4-0.9-0.7c-0.2-0.3-0.4-0.7-0.5-1.1c-0.1-0.4-0.2-0.9-0.2-1.3c0-1,0.2-1.8,0.7-2.4
				c0.5-0.6,1.1-0.8,2-0.8c0.5,0,0.9,0.1,1.2,0.2c0.3,0.2,0.6,0.4,0.9,0.7v-2.4c0-0.3,0.1-0.6,0.2-0.8c0.1-0.2,0.3-0.3,0.6-0.3
				c0.2,0,0.4,0.1,0.6,0.2c0.1,0.2,0.2,0.4,0.2,0.7v7.1c0,0.3-0.1,0.5-0.2,0.7s-0.3,0.2-0.6,0.2c-0.2,0-0.4-0.1-0.5-0.2
				C340.9,548,340.8,547.8,340.8,547.5z M337.6,545.1c0,0.4,0.1,0.8,0.2,1.1c0.1,0.3,0.3,0.5,0.6,0.7c0.2,0.2,0.5,0.2,0.8,0.2
				c0.3,0,0.5-0.1,0.8-0.2c0.2-0.1,0.4-0.4,0.6-0.7c0.1-0.3,0.2-0.7,0.2-1.1c0-0.4-0.1-0.8-0.2-1.1c-0.1-0.3-0.3-0.5-0.6-0.7
				c-0.2-0.2-0.5-0.2-0.8-0.2c-0.3,0-0.6,0.1-0.8,0.3c-0.2,0.2-0.4,0.4-0.5,0.7C337.7,544.4,337.6,544.7,337.6,545.1z"/>
			<path class="st0" d="M347.5,540.4v2.5c0.3-0.3,0.6-0.6,0.9-0.7c0.3-0.2,0.7-0.3,1.2-0.3s1,0.1,1.4,0.4s0.7,0.6,0.9,1.1
				c0.2,0.5,0.3,1.1,0.3,1.7c0,0.5-0.1,0.9-0.2,1.3c-0.1,0.4-0.3,0.8-0.5,1.1c-0.2,0.3-0.5,0.5-0.9,0.7c-0.3,0.2-0.7,0.2-1.1,0.2
				c-0.2,0-0.5,0-0.7-0.1c-0.2-0.1-0.4-0.1-0.6-0.2c-0.2-0.1-0.3-0.2-0.4-0.3s-0.3-0.3-0.4-0.5v0.2c0,0.3-0.1,0.5-0.2,0.7
				c-0.1,0.2-0.3,0.2-0.6,0.2c-0.2,0-0.4-0.1-0.5-0.2c-0.1-0.2-0.2-0.4-0.2-0.7v-7.1c0-0.3,0.1-0.6,0.2-0.7c0.1-0.2,0.3-0.3,0.6-0.3
				c0.2,0,0.4,0.1,0.6,0.2C347.4,539.9,347.5,540.1,347.5,540.4z M347.5,545.2c0,0.6,0.1,1.1,0.4,1.5c0.3,0.3,0.7,0.5,1.2,0.5
				c0.4,0,0.8-0.2,1.1-0.5c0.3-0.4,0.4-0.9,0.4-1.5c0-0.4-0.1-0.8-0.2-1.1s-0.3-0.5-0.5-0.7c-0.2-0.2-0.5-0.3-0.8-0.3
				c-0.3,0-0.6,0.1-0.8,0.3c-0.2,0.2-0.4,0.4-0.6,0.7C347.6,544.4,347.5,544.8,347.5,545.2z"/>
			<path class="st0" d="M354.4,548.6l0.1-0.4l-2-5c-0.1-0.3-0.2-0.5-0.2-0.6c0-0.1,0-0.3,0.1-0.4c0.1-0.1,0.2-0.2,0.3-0.3
				s0.3-0.1,0.4-0.1c0.2,0,0.4,0.1,0.5,0.2c0.1,0.1,0.2,0.4,0.3,0.6l1.4,4l1.3-3.7c0.1-0.3,0.2-0.5,0.3-0.7s0.2-0.3,0.3-0.3
				c0.1-0.1,0.2-0.1,0.4-0.1c0.1,0,0.2,0,0.4,0.1c0.1,0.1,0.2,0.2,0.3,0.3c0.1,0.1,0.1,0.2,0.1,0.4c0,0.1,0,0.2-0.1,0.3
				c0,0.1-0.1,0.3-0.1,0.4l-2.1,5.5c-0.2,0.5-0.4,0.9-0.5,1.1c-0.2,0.3-0.4,0.5-0.7,0.6c-0.3,0.1-0.7,0.2-1.2,0.2s-0.8-0.1-1.1-0.2
				c-0.2-0.1-0.4-0.3-0.4-0.6c0-0.2,0.1-0.3,0.2-0.4c0.1-0.1,0.3-0.2,0.5-0.2c0.1,0,0.2,0,0.3,0s0.2,0,0.3,0c0.2,0,0.3,0,0.4-0.1
				c0.1-0.1,0.2-0.2,0.3-0.3C354.2,549.1,354.3,548.9,354.4,548.6z"/>
		</g>
		<g>
			<path class="st0" d="M377.8,542h0.4v-0.5c0-0.5,0.1-0.9,0.2-1.2c0.1-0.3,0.3-0.5,0.7-0.7c0.3-0.1,0.7-0.2,1.3-0.2
				c1,0,1.4,0.2,1.4,0.7c0,0.1,0,0.3-0.2,0.4c-0.1,0.1-0.2,0.2-0.3,0.2c-0.1,0-0.2,0-0.3,0c-0.1,0-0.3,0-0.4,0
				c-0.3,0-0.5,0.1-0.6,0.3s-0.1,0.4-0.1,0.7v0.4h0.4c0.6,0,0.9,0.2,0.9,0.6c0,0.3-0.1,0.4-0.2,0.5c-0.2,0.1-0.4,0.1-0.7,0.1h-0.4
				v4.3c0,0.3-0.1,0.6-0.2,0.7c-0.2,0.2-0.3,0.3-0.6,0.3c-0.2,0-0.4-0.1-0.6-0.3s-0.2-0.4-0.2-0.7v-4.4h-0.4c-0.2,0-0.4-0.1-0.6-0.2
				c-0.1-0.1-0.2-0.2-0.2-0.4C377,542.2,377.3,542,377.8,542"/>
			<path class="st0" d="M383.1,546.1v1.4c0,0.3-0.1,0.6-0.2,0.7c-0.2,0.2-0.3,0.2-0.6,0.2c-0.2,0-0.4-0.1-0.6-0.2
				c-0.1-0.2-0.2-0.4-0.2-0.7V543c0-0.7,0.3-1.1,0.8-1.1c0.3,0,0.5,0.1,0.6,0.3s0.2,0.4,0.2,0.8c0.2-0.3,0.4-0.6,0.6-0.8
				c0.2-0.2,0.5-0.3,0.8-0.3s0.7,0.1,1,0.3s0.5,0.4,0.5,0.7c0,0.2-0.1,0.4-0.2,0.5c-0.1,0.1-0.3,0.2-0.4,0.2s-0.2,0-0.4-0.1
				c-0.2-0.1-0.4-0.1-0.6-0.1s-0.4,0.1-0.6,0.2c-0.2,0.1-0.3,0.3-0.4,0.6c-0.1,0.2-0.1,0.5-0.2,0.9
				C383.2,545.2,383.1,545.6,383.1,546.1"/>
			<path class="st0" d="M390.6,545.6h-3.2c0,0.4,0.1,0.7,0.2,1s0.3,0.5,0.6,0.6c0.2,0.1,0.5,0.2,0.8,0.2c0.2,0,0.4,0,0.5-0.1
				c0.2,0,0.3-0.1,0.5-0.2c0.2-0.1,0.3-0.2,0.4-0.3c0.1-0.1,0.3-0.3,0.5-0.4c0.1-0.1,0.2-0.1,0.4-0.1c0.2,0,0.3,0,0.4,0.1
				c0.1,0.1,0.2,0.2,0.2,0.4c0,0.1-0.1,0.3-0.2,0.5s-0.3,0.4-0.5,0.6s-0.5,0.3-0.9,0.4c-0.3,0.1-0.8,0.2-1.2,0.2
				c-1,0-1.9-0.3-2.4-0.9c-0.6-0.6-0.9-1.4-0.9-2.4c0-0.5,0.1-0.9,0.2-1.3c0.1-0.4,0.3-0.8,0.6-1.1c0.3-0.3,0.6-0.5,1-0.7
				s0.8-0.2,1.3-0.2c0.6,0,1.2,0.1,1.6,0.4c0.5,0.3,0.8,0.6,1,1c0.2,0.4,0.3,0.9,0.3,1.3c0,0.4-0.1,0.7-0.4,0.8
				C391.3,545.5,391,545.6,390.6,545.6 M387.4,544.6h2.9c0-0.6-0.2-1-0.4-1.2c-0.3-0.3-0.6-0.4-1-0.4s-0.7,0.1-1,0.4
				S387.5,544.1,387.4,544.6"/>
			<path class="st0" d="M397.3,545.6h-3.2c0,0.4,0.1,0.7,0.2,1s0.3,0.5,0.6,0.6c0.2,0.1,0.5,0.2,0.8,0.2c0.2,0,0.4,0,0.5-0.1
				c0.2,0,0.3-0.1,0.5-0.2c0.2-0.1,0.3-0.2,0.4-0.3c0.1-0.1,0.3-0.3,0.5-0.4c0.1-0.1,0.2-0.1,0.4-0.1c0.2,0,0.3,0,0.4,0.1
				c0.1,0.1,0.2,0.2,0.2,0.4c0,0.1-0.1,0.3-0.2,0.5s-0.3,0.4-0.5,0.6s-0.5,0.3-0.9,0.4c-0.3,0.1-0.8,0.2-1.2,0.2
				c-1,0-1.8-0.3-2.4-0.9c-0.6-0.6-0.9-1.4-0.9-2.4c0-0.5,0.1-0.9,0.2-1.3c0.1-0.4,0.3-0.8,0.6-1.1c0.3-0.3,0.6-0.5,1-0.7
				s0.8-0.2,1.3-0.2c0.6,0,1.2,0.1,1.6,0.4c0.5,0.3,0.8,0.6,1,1c0.2,0.4,0.3,0.9,0.3,1.3c0,0.4-0.1,0.7-0.4,0.8
				C398.1,545.5,397.8,545.6,397.3,545.6 M394.2,544.6h2.9c0-0.6-0.2-1-0.4-1.2c-0.3-0.3-0.6-0.4-1-0.4s-0.7,0.1-1,0.4
				S394.2,544.1,394.2,544.6"/>
			<path class="st0" d="M400.9,542.8v0.2c0.3-0.4,0.6-0.7,1-0.8c0.3-0.2,0.7-0.3,1.1-0.3c0.5,0,1,0.1,1.4,0.4s0.7,0.6,1,1.1
				c0.2,0.5,0.4,1.1,0.4,1.8c0,0.5-0.1,1-0.2,1.4c-0.1,0.4-0.3,0.8-0.6,1c-0.2,0.3-0.5,0.5-0.9,0.7c-0.3,0.2-0.7,0.2-1.1,0.2
				c-0.5,0-0.9-0.1-1.2-0.3c-0.3-0.2-0.6-0.5-0.9-0.8v2.4c0,0.7-0.3,1.1-0.8,1.1c-0.3,0-0.5-0.1-0.6-0.3s-0.1-0.5-0.1-0.8v-7
				c0-0.3,0.1-0.5,0.2-0.7c0.1-0.1,0.3-0.2,0.6-0.2c0.2,0,0.4,0.1,0.6,0.2C400.8,542.2,400.9,542.5,400.9,542.8 M404.1,545.1
				c0-0.4-0.1-0.8-0.2-1.1c-0.1-0.3-0.3-0.5-0.5-0.7s-0.5-0.2-0.8-0.2c-0.4,0-0.8,0.2-1.1,0.5c-0.3,0.4-0.5,0.9-0.5,1.6
				c0,0.6,0.2,1.1,0.5,1.5c0.3,0.4,0.7,0.5,1.1,0.5c0.3,0,0.5-0.1,0.7-0.2c0.2-0.2,0.4-0.4,0.6-0.7
				C404,545.9,404.1,545.6,404.1,545.1"/>
			<path class="st0" d="M407.3,541.1c-0.2,0-0.4-0.1-0.6-0.2c-0.2-0.1-0.2-0.3-0.2-0.6c0-0.2,0.1-0.4,0.2-0.6
				c0.2-0.1,0.4-0.2,0.6-0.2s0.4,0.1,0.6,0.2c0.2,0.1,0.2,0.3,0.2,0.6c0,0.2-0.1,0.4-0.2,0.6C407.7,541,407.5,541.1,407.3,541.1
				 M408.1,542.8v4.7c0,0.3-0.1,0.6-0.2,0.7c-0.2,0.2-0.4,0.2-0.6,0.2s-0.4-0.1-0.6-0.3c-0.1-0.2-0.2-0.4-0.2-0.7v-4.6
				c0-0.3,0.1-0.6,0.2-0.7c0.2-0.2,0.3-0.2,0.6-0.2c0.2,0,0.4,0.1,0.6,0.2C408.1,542.3,408.1,542.5,408.1,542.8"/>
			<path class="st0" d="M413.4,547.7l-1.4-2.4l-0.9,0.8v1.3c0,0.3-0.1,0.6-0.2,0.7c-0.2,0.2-0.4,0.3-0.6,0.3s-0.4-0.1-0.6-0.2
				c-0.1-0.2-0.2-0.4-0.2-0.7v-6.9c0-0.4,0.1-0.6,0.2-0.8s0.3-0.3,0.6-0.3c0.2,0,0.4,0.1,0.6,0.3c0.1,0.2,0.2,0.4,0.2,0.8v3.9
				l1.8-1.9c0.2-0.2,0.4-0.4,0.5-0.5c0.1-0.1,0.3-0.1,0.4-0.1c0.2,0,0.4,0.1,0.5,0.2c0.1,0.1,0.2,0.3,0.2,0.5s-0.2,0.6-0.7,1
				l-0.9,0.8l1.7,2.6c0.1,0.2,0.2,0.3,0.3,0.4c0.1,0.1,0.1,0.2,0.1,0.3c0,0.3-0.1,0.5-0.2,0.6c-0.1,0.1-0.3,0.2-0.6,0.2
				c-0.2,0-0.4-0.1-0.5-0.2C413.7,548.2,413.5,548,413.4,547.7"/>
			<path class="st0" d="M416.9,548.4c-0.2,0-0.5-0.1-0.6-0.2c-0.2-0.2-0.3-0.4-0.3-0.7c0-0.2,0.1-0.4,0.3-0.6
				c0.2-0.2,0.4-0.3,0.6-0.3s0.5,0.1,0.6,0.3c0.2,0.2,0.3,0.4,0.3,0.6c0,0.3-0.1,0.5-0.3,0.7C417.3,548.4,417.1,548.4,416.9,548.4"
				/>
			<path class="st0" d="M424.9,546.4c0,0.2-0.1,0.4-0.2,0.6s-0.3,0.4-0.6,0.7c-0.2,0.2-0.6,0.4-0.9,0.5c-0.4,0.1-0.8,0.2-1.3,0.2
				c-1,0-1.8-0.3-2.3-0.9c-0.6-0.6-0.8-1.4-0.8-2.3c0-0.7,0.1-1.3,0.4-1.8s0.6-0.9,1.1-1.2c0.5-0.3,1.1-0.4,1.7-0.4
				c0.4,0,0.8,0.1,1.2,0.2c0.4,0.1,0.6,0.3,0.9,0.5c0.2,0.2,0.4,0.4,0.6,0.6c0.1,0.2,0.2,0.4,0.2,0.6s-0.1,0.4-0.2,0.5
				c-0.1,0.1-0.3,0.2-0.5,0.2c-0.1,0-0.2,0-0.3-0.1c-0.1-0.1-0.2-0.2-0.3-0.3c-0.2-0.3-0.4-0.5-0.6-0.7s-0.5-0.2-0.8-0.2
				c-0.5,0-0.9,0.2-1.2,0.6c-0.3,0.4-0.4,0.9-0.4,1.5c0,0.3,0,0.6,0.1,0.8c0.1,0.3,0.2,0.5,0.3,0.7c0.1,0.2,0.3,0.3,0.5,0.4
				c0.2,0.1,0.4,0.1,0.7,0.1c0.3,0,0.6-0.1,0.8-0.2c0.2-0.2,0.4-0.4,0.6-0.7c0.1-0.2,0.2-0.3,0.3-0.4c0.1-0.1,0.3-0.2,0.4-0.2
				c0.2,0,0.4,0.1,0.5,0.2C424.9,546.1,424.9,546.3,424.9,546.4"/>
			<path class="st0" d="M431.9,545.2c0,0.5-0.1,0.9-0.2,1.3c-0.2,0.4-0.4,0.8-0.7,1c-0.3,0.3-0.6,0.5-1,0.7s-0.8,0.2-1.3,0.2
				s-0.9-0.1-1.3-0.2c-0.4-0.2-0.7-0.4-1-0.7c-0.3-0.3-0.5-0.6-0.7-1c-0.1-0.4-0.2-0.8-0.2-1.3s0.1-0.9,0.2-1.3
				c0.2-0.4,0.4-0.8,0.6-1c0.3-0.3,0.6-0.5,1-0.7s0.8-0.2,1.3-0.2s0.9,0.1,1.3,0.2c0.4,0.2,0.7,0.4,1,0.7s0.5,0.6,0.6,1
				C431.9,544.2,431.9,544.7,431.9,545.2 M430.3,545.2c0-0.7-0.1-1.2-0.4-1.5c-0.3-0.4-0.7-0.6-1.2-0.6c-0.3,0-0.6,0.1-0.8,0.2
				c-0.2,0.2-0.4,0.4-0.6,0.7c-0.1,0.3-0.2,0.7-0.2,1.1c0,0.4,0.1,0.8,0.2,1.1c0.1,0.3,0.3,0.6,0.6,0.7c0.2,0.2,0.5,0.3,0.8,0.3
				c0.5,0,0.9-0.2,1.2-0.6C430.2,546.3,430.3,545.8,430.3,545.2"/>
			<path class="st0" d="M438.1,545.3v2.2c0,0.3-0.1,0.6-0.2,0.8c-0.2,0.2-0.4,0.3-0.6,0.3s-0.4-0.1-0.6-0.3
				c-0.2-0.2-0.2-0.4-0.2-0.8v-2.6c0-0.4,0-0.7,0-1c0-0.2-0.1-0.4-0.2-0.6c-0.1-0.1-0.3-0.2-0.6-0.2c-0.5,0-0.9,0.2-1,0.6
				c-0.2,0.4-0.3,0.9-0.3,1.6v2.2c0,0.3-0.1,0.6-0.2,0.8c-0.2,0.2-0.4,0.3-0.6,0.3s-0.4-0.1-0.6-0.3c-0.2-0.2-0.2-0.4-0.2-0.8v-4.6
				c0-0.3,0.1-0.5,0.2-0.7s0.3-0.2,0.6-0.2c0.2,0,0.4,0.1,0.6,0.2c0.1,0.1,0.2,0.4,0.2,0.6v0.2c0.3-0.3,0.6-0.6,0.9-0.7
				c0.3-0.2,0.7-0.2,1.1-0.2s0.8,0.1,1,0.2c0.3,0.2,0.5,0.4,0.7,0.7c0.3-0.3,0.6-0.6,0.9-0.7c0.3-0.2,0.7-0.2,1-0.2
				c0.4,0,0.8,0.1,1.1,0.3c0.3,0.2,0.6,0.4,0.7,0.7c0.1,0.3,0.2,0.8,0.2,1.4v3.2c0,0.3-0.1,0.6-0.2,0.8c-0.2,0.2-0.4,0.3-0.6,0.3
				s-0.4-0.1-0.6-0.3s-0.2-0.4-0.2-0.8V545c0-0.3,0-0.6,0-0.8s-0.1-0.4-0.2-0.5c-0.1-0.1-0.3-0.2-0.6-0.2c-0.2,0-0.4,0.1-0.6,0.2
				c-0.2,0.1-0.3,0.3-0.5,0.5C438.2,544.1,438.1,544.6,438.1,545.3"/>
		</g>
		<g>
			<path class="st0" d="M362.7,544.8L362.7,544.8L362.7,544.8z"/>
			<path class="st0" d="M362.8,545.3L362.8,545.3c0-0.1-0.1-0.3-0.1-0.4C362.7,545,362.7,545.1,362.8,545.3z"/>
			<path class="st0" d="M363.3,546.8L363.3,546.8L363.3,546.8z"/>
			<path class="st0" d="M363.2,546.7C363.2,546.7,363.2,546.6,363.2,546.7C363.2,546.6,363.2,546.7,363.2,546.7z"/>
			<path class="st0" d="M362.9,545.9c0.1,0.2,0.2,0.5,0.3,0.7C363.1,546.3,363,546.1,362.9,545.9L362.9,545.9z"/>
			<path class="st0" d="M368.9,538.6c0.3,0,0.5,0,0.8,0.1l0.1-0.5c0,0-0.7-0.2-1.7-0.1l-0.1-0.3c0.3-0.1,0.5-0.3,0.5-0.6
				c0-0.4-0.3-0.7-0.7-0.7s-0.7,0.3-0.7,0.7c0,0.3,0.2,0.6,0.5,0.6l0.1,0.3c-1,0.1-1.8,0.5-1.8,0.5l0.1,0.4c0.6-0.2,1.2-0.3,1.6-0.4
				C368.3,538.6,368.7,538.6,368.9,538.6z"/>
			<path class="st0" d="M363.3,541L363.3,541C363.3,540.9,363.3,540.9,363.3,541l-0.1-0.2l-0.3-0.2c0,0-0.5,0.5-0.9,1.3
				c0,0,0-0.1-0.1-0.1c-0.1-0.1-0.3-0.2-0.5-0.2l0,0c-0.1,0-0.2,0-0.3-0.1c0.1-0.1,0.1-0.2,0.1-0.3c0-0.2-0.2-0.4-0.4-0.4
				c-0.2,0-0.4,0.2-0.4,0.4c0,0.2,0.2,0.4,0.4,0.4h0.1c0.1,0.1,0.3,0.2,0.5,0.2c0.1,0,0.2,0,0.3,0.1c0.1,0.1,0.1,0.2,0.1,0.3l0,0
				c-0.3,0.7-0.2,1.7-0.2,1.7h0.7c0-0.3,0.1-0.9,0.2-1.4C362.8,541.6,363.3,541,363.3,541z"/>
			<path class="st0" d="M374.7,539.1c-0.2,0-0.4,0.2-0.4,0.4v0.1c-0.1,0.1-0.2,0.3-0.2,0.5c0,0.1,0,0.2-0.1,0.3
				c-0.1,0-0.1,0.1-0.2,0.1c-0.5-0.7-1.1-1.1-1.1-1.1l-0.5,0.5c0.4,0.3,0.7,0.7,1.1,1.2c0.2,0.4,0.5,0.8,0.7,1.3l0.6-0.3
				c0,0-0.3-0.7-0.7-1.4c0.1,0,0.1-0.1,0.2-0.1c0.1-0.1,0.2-0.3,0.2-0.5c0-0.1,0-0.2,0.1-0.3c0.1,0.1,0.2,0.1,0.3,0.1
				c0.2,0,0.4-0.2,0.4-0.4C375.1,539.3,374.9,539.1,374.7,539.1z"/>
			<path class="st0" d="M373,544.9c-0.9,0.4-2.3,1-4.2,1.3c-0.7,0.1-1.5,0.1-2.1,0.1c-0.9,0-1.6-0.1-2.2-0.1
				c-0.7-0.1-1.2-0.2-1.5-0.3c0.1,0.2,0.2,0.5,0.3,0.7l0,0v0.1v0.1l0,0c0.2,0.4,0.4,0.7,0.7,1c0.9,1,1.8,1.1,1.8,1.1l0,0l0,0
				c0,0,0.8,0.3,2.1,0.3c1.2,0,2.4-0.2,3.5-0.7c0.8-0.4,1.6-1.1,2-1.7c0.3-0.5,0.5-0.9,0.7-1.4c0.1-0.3,0.1-0.7,0.1-1.1
				C374,544.4,373.6,544.6,373,544.9z"/>
			<path class="st0" d="M363.6,541.2c0,0-0.4,0.6-0.7,1.4c-0.2,0.6-0.2,1.5-0.2,1.5l0,0c0,0.2,0,0.4,0,0.6l0,0v0.1
				c0,0.1,0,0.3,0.1,0.4c0.4,0.1,3,0.7,6,0.3c1.8-0.3,3.2-0.8,4.1-1.2c0.7-0.3,1.2-0.6,1.3-0.8c-0.2-0.6-0.7-1.7-1.1-2.3
				c-1.3-1.8-2.6-2.2-3.3-2.4c-0.3,0-0.5-0.1-0.8-0.1c-0.3,0-0.6,0-1.1,0.1c-0.5,0-1,0.2-1.6,0.4c-0.8,0.3-1.6,0.7-2.2,1.3l0,0
				C364,540.7,363.8,540.9,363.6,541.2z M371.2,540.8c0.6,0,1.1,0.5,1.1,1.1c0,0.6-0.5,1.1-1.1,1.1s-1.1-0.5-1.1-1.1
				C370.1,541.2,370.6,540.8,371.2,540.8z M366.1,540.7c1,0,1.8,0.8,1.8,1.8s-0.8,1.8-1.8,1.8s-1.8-0.8-1.8-1.8
				S365.1,540.7,366.1,540.7z"/>
		</g>
	</g>
</g>
<rect x="-3.8" y="4.2" class="st0" width="750" height="645.7"/>
<g id="OBJECTS_1_">
	<g>
		<ellipse class="st1" cx="362" cy="321.3" rx="305.4" ry="305.4"/>
		<path class="st2" d="M623.7,427.4c-11.7,28.9-28.2,55.4-48.2,78.5"/>
		<path class="st2" d="M619.2,204.9c16.1,35.6,25.1,74.9,25.1,116.6"/>
		<path class="st2" d="M362,39.2c74.7,0,142.6,29,193.1,76.3"/>
		<path class="st2" d="M362,553.4c-128.2,0-232.1-104-232.1-232.1c0-71.1,31.9-134.8,82.5-177.4"/>
		<path class="st2" d="M523,154.2c43.9,42.2,71.1,101.6,71.1,167.3"/>
		<ellipse class="st1" cx="362" cy="321.3" rx="262.8" ry="262.8"/>
		<ellipse class="st3" cx="368.2" cy="315.3" rx="204.9" ry="204.9"/>
		<path class="st4" d="M479.9,228c0.4-1.1,0.7-2,1.3-2.9c0.7-0.9,1.6-1.6,2.7-1.8c1.6-0.2,3.4,0.9,4.2,2.3c0.7,1.4,0.7,3.1,0.5,4.7
			c-0.4,5.2-2.2,10.1-3.8,15.2c-0.5,1.4-1.1,2.9-2,4c-1.3,1.4-3.4,2.2-5.4,1.8c-1.4-0.2-4.2-1.4-4.3-3.1c0-0.7,0.7-1.8,0.9-2.5
			c0.4-1.3,0.7-2.3,1.3-3.6C476.6,237.4,478.2,232.7,479.9,228z"/>
		<ellipse class="st5" cx="296.5" cy="466.6" rx="20.2" ry="18.6"/>
		<path class="st6" d="M309.7,466.6c0,6.7-6,12.1-13.2,12.1c-7.2,0-13.2-5.4-13.2-12.1s6-12.1,13.2-12.1
			C303.7,454.5,309.7,459.9,309.7,466.6z"/>
		<path class="st4" d="M465.8,267.3c2.7,5.6,8.1,9.2,13.9,11c3.2,0.9,6.7,1.4,10.1,0.7c5.8-1.3,10.6-6.3,12.1-12.5
			c1.3-6.1-1.1-12.8-6-16.4c-3.2-2.3-7-3.4-11-4.2c-3.1-0.5-6.1-1.1-9.2-0.5C466.7,247.3,462,259,465.8,267.3z"/>
		<path class="st7" d="M188.5,500.9l346.9,0.7L609.8,620c3.4,5.4-0.5,12.5-6.9,12.5H124.6c-6.3,0-10.1-6.9-7-12.3L188.5,500.9z"/>
		<polygon class="st8" points="188.5,482.8 535.6,483.4 618,614.3 110.6,614.3 		"/>
		<path class="st9" d="M149.2,546.6l36.6-59.2c1.4-2.3,4.2-4,7-4h338.3c2.9,0,5.4,1.4,7,4l37.2,59.9"/>
		<path class="st9" d="M173,614.3h-51.1c-6.5,0-10.5-7-7-12.6l22.6-36.3"/>
		<path class="st9" d="M586,564.4l23.3,37.4c3.4,5.4-0.5,12.6-7,12.6H202.8"/>
		<ellipse class="st4" cx="296.5" cy="447.7" rx="17.1" ry="13.9"/>
		<polyline class="st10" points="146.3,590.4 198.7,501.4 326.3,501.4 		"/>
		<polyline class="st10" points="225.7,614.3 234.2,593 169.2,593 184.8,564.6 285.3,564.6 		"/>
		<polyline class="st10" points="200.5,579.6 308.2,579.6 322.7,528.5 		"/>
		<polyline class="st10" points="211.8,512.8 190.9,554.1 227.4,554.1 238.9,522.2 258.2,522.2 		"/>
		<line class="st10" x1="211.8" y1="546" x2="230.6" y2="501.4"/>
		<polyline class="st10" points="253.9,593 468.1,593 474.3,614.3 		"/>
		<polyline class="st10" points="495.6,590.4 578.6,590.4 527.7,503.1 		"/>
		<line class="st10" x1="532.9" y1="590.4" x2="542.5" y2="614.3"/>
		<polyline class="st10" points="553,571.3 466.7,571.3 448.1,503.1 506.4,503.1 		"/>
		<line class="st10" x1="488" y1="548.9" x2="494.5" y2="571.3"/>
		<polyline class="st10" points="472.1,531 518.3,531 506.4,503.1 		"/>
		<line class="st10" x1="500.4" y1="515.7" x2="464.3" y2="515.7"/>
		<line class="st10" x1="486" y1="501.4" x2="479.7" y2="483.4"/>
		<line class="st10" x1="501.9" y1="548.9" x2="538.9" y2="548.9"/>
		<path class="st4" d="M351.2,322.9c-9,0.7-18.1,1.4-26.5,4.2c-8.7,2.7-16.8,7.2-22,14.6c-4.7,6.3-6.7,14.1-8.3,21.8
			c-4,18.4-6,37.2-6.1,56.1c0,3.1-0.4,15.2,0,17.7c2.9,2.7,9.7,1.8,13.5,0.9c1.4-19,2.3-36.1,5.1-54c1.1-6.7,2.7-13.4,4.5-19.9
			c1.6-6.5,4.7-13,9.7-17.5c8.5-7.6,21.1-8.3,32.5-7.6C354.4,333.6,353.2,328,351.2,322.9z"/>
		<path class="st4" d="M375,324c0,0,60.5,6,100.7-63.7l14.1,3.4c0,0-25.5,80.1-115,79.6V324H375z"/>
		<path class="st4" d="M362,139.9c-48.4,0-87.5,39.2-87.5,87.5c0,43.5,31.8,79.4,73.1,86.3v247.8l0,0c0.4,2.2,6.5,6.5,14.3,6.5
			c7.8,0,14.1-4.2,14.3-6.5l0,0V313.7c41.5-6.9,73.1-43,73.1-86.3C449.5,179.1,410.4,139.9,362,139.9z M362,280.7
			c-29.4,0-53.2-23.8-53.2-53.2s23.8-53.2,53.2-53.2s53.2,23.8,53.2,53.2S391.4,280.7,362,280.7z"/>
		<path class="st11" d="M449.5,227.4c0,43.5-31.8,79.4-73.1,86.3v247.8l0,0c-0.4,2.2-6.5,6.5-14.3,6.5c-7.8,0-14.1-4.2-14.3-6.5l0,0
			v-0.7c1.6,0.4,3.6,0.7,5.6,0.7c7.8,0,14.1-4.2,14.3-6.5l0,0l2.3-240.2c41.5-6.9,70.9-50.4,70.9-93.9c0-26.9-12.1-50.9-31-66.8
			C433.7,169.7,449.5,196.8,449.5,227.4z"/>
		<path class="st12" d="M452.1,393.1c0,0-70.4,11.9-84.8-49.6c1.6-1.3,2.7-3.2,2.7-5.6V318h-20.6v17.3c0,3.8,2.3,7.2,5.6,8.7
			c-1.3,12.5-2.2,72,92.8,81.2l23.1-14.1C470.7,411.2,461.6,406.9,452.1,393.1z"/>
		<path class="st13" d="M473.4,408.5l-15.3,9.4l-7.9,4.9c-2.9-0.4-5.6-0.5-8.1-0.9c-7.2-0.9-13.9-2.3-20-3.8
			c-6.1-1.6-11.7-3.4-16.8-5.4c-6.9-2.7-12.8-6-17.9-9.4c-4.9-3.2-9-6.9-12.5-10.5c-6-6.3-9.9-13-12.6-19.5
			c-7.4-18.1-4.5-33.8-4.5-33.8h11.9c0.9,3.8,1.8,7.4,3.1,10.8c1.8,5.2,4.2,9.7,6.9,13.5c3.2,4.9,7,8.8,11,12.1
			c3.2,2.7,6.9,4.9,10.3,6.9c5.6,2.9,11.6,5.1,17.3,6.3c3.8,0.9,7.6,1.4,11,1.8l0,0c6.9,0.7,12.8,0.7,17.3,0.5
			c4.9-0.2,7.9-0.7,7.9-0.7C464.3,404.3,473.4,408.5,473.4,408.5z"/>
		<path class="st14" d="M379.7,363.5l-4.7,28.9c-6-6.3-9.9-13-12.6-19.5l10.5-23.1C374.6,355.1,376.8,359.6,379.7,363.5z"/>
		<path class="st14" d="M405.1,412.5c-6.9-2.7-12.8-6-17.9-9.4l3.4-27.3c3.2,2.7,6.9,4.9,10.3,6.9L405.1,412.5z"/>
		<path class="st14" d="M442,421.7c-7.2-0.9-13.9-2.3-20-3.8l-3.6-29.1c3.8,0.9,7.6,1.4,11,1.8l0,0L442,421.7z"/>
		<path class="st14" d="M473.4,408.5l-15.3,9.4l-11.4-26.7c4.9-0.2,7.9-0.7,7.9-0.7C464.3,404.3,473.4,408.5,473.4,408.5z"/>
		<path class="st13" d="M365.4,342.4h-3.8c-5.4,0-9.7-4.3-9.7-9.7v-17.3h20.8v19.8C372.7,339.4,369.4,342.4,365.4,342.4z"/>
		<path class="st15" d="M359.8,341.3c0,0-2.7,70.2,84.8,75.3l17.9-7.9l-13.3-12.5c0,0-68.6,9-82.8-56L359.8,341.3z"/>
		<path class="st16" d="M372.7,315.5v19.9c0,4-3.2,7.2-7.2,7.2h-3.8c-3.4,0-6.7-1.8-8.3-4.7c1.4,0.9,3.2,1.4,5.1,1.4h3.8
			c4,0,7.2-3.2,7.2-7.2v-16.6H372.7L372.7,315.5z"/>
		<polyline class="st10" points="409.8,508.3 431,508.3 434.2,527.4 		"/>
		<g class="st17">
			<path d="M341.1,315.2c0,0,11.9,3.4,21.7,3.2c0,0-9,11.7-15.9,14.6c0,0-12.3,2.5-17.1-6.7C329.5,326.4,338.4,321.5,341.1,315.2z"
				/>
			<path d="M383.8,315.3c0,0-12.8,2.3-21.3,3.1c0,0,8.8,11.9,15.7,14.8c0,0,12.3,2.5,17.1-6.7C395.2,326.5,386.4,321.7,383.8,315.3z
				"/>
		</g>
		<g>
			<path class="st0" d="M341.1,312.3c0,0,11.9,3.4,21.7,3.2c0,0-9,11.7-15.9,14.6c0,0-12.3,2.5-17.1-6.7
				C329.5,323.5,338.4,318.6,341.1,312.3z"/>
			<path class="st0" d="M383.8,312.5c0,0-12.8,2.3-21.3,3.1c0,0,8.8,11.9,15.7,14.8c0,0,12.3,2.5,17.1-6.7
				C395.2,323.6,386.4,318.8,383.8,312.5z"/>
		</g>
		<path class="st5" d="M338.4,470.2v47.5c0,4-3.2,7.2-7.2,7.2h-69.5c-4,0-7.2-3.2-7.2-7.2v-47.5c0-4,3.2-7.2,7.2-7.2h69.5
			C335.1,463.2,338.4,466.4,338.4,470.2z"/>
		<path class="st18" d="M338.4,470.2v47.5c0,4-3.2,7.2-7.2,7.2h-69.5c-3.2,0-6-2.2-6.9-5.1c0.4,0,0.7,0.2,1.3,0.2h69.5
			c4,0,7.2-3.2,7.2-7.2v-47.5c0-0.7-0.2-1.4-0.4-2C335.8,463.9,338.4,466.8,338.4,470.2z"/>
		<rect x="254.6" y="494.4" class="st19" width="83.8" height="5.8"/>
		<path class="st5" d="M335.3,497.7h-77.6c-3.1,0-5.8-2.5-5.8-5.8V469c0-3.1,2.5-5.8,5.8-5.8h77.6c3.1,0,5.8,2.5,5.8,5.8v22.9
			C341.1,494.9,338.5,497.7,335.3,497.7z"/>
		<path class="st18" d="M341.1,469v22.9c0,3.2-2.5,5.8-5.8,5.8h-77.6c-3.1,0-5.6-2.5-5.8-5.6h77.8c3.1,0,5.8-2.5,5.8-5.8v-23.1
			C338.5,463.2,341.1,465.7,341.1,469z"/>
		<path class="st4" d="M399.4,491.3v17.5c0,0.7,0.7,1.4,1.4,1.4h15c0.7,0,1.4,0.7,1.4,1.4v7.8c0,0.7-0.7,1.4-1.4,1.4h-15
			c-0.7,0-1.4,0.7-1.4,1.4v17.5c0,0.7,0.7,1.4,1.4,1.4h15c0.7,0,1.4,0.7,1.4,1.4v10.3c0,0.7-0.7,1.4-1.4,1.4h-38.1
			c-0.7,0-1.4-0.7-1.4-1.4v-75.1c0-0.7,0.7-1.4,1.4-1.4h38.1c0.7,0,1.4,0.7,1.4,1.4V488c0,0.7-0.7,1.4-1.4,1.4h-15
			C400.1,489.9,399.4,490.4,399.4,491.3z"/>
		<line class="st10" x1="241.4" y1="554.1" x2="315.4" y2="554.1"/>
		<line class="st10" x1="291.4" y1="579.6" x2="296.5" y2="564.6"/>
		<polyline class="st10" points="274.5,552.9 280.6,536.3 254.6,536.3 		"/>
		<line class="st10" x1="312.5" y1="564.6" x2="330.1" y2="564.6"/>
		<polyline class="st10" points="439.1,593 432.4,560.1 398.1,560.1 399.9,579.6 337.5,579.6 		"/>
		<line class="st10" x1="458.9" y1="543.1" x2="427" y2="543.1"/>
		<path class="st20" d="M303.7,500.2h-14.3c-0.7,0-1.4-0.5-1.4-1.4v-2.9c0-0.7,0.5-1.4,1.4-1.4h14.3c0.7,0,1.4,0.5,1.4,1.4v2.9
			C305,499.6,304.4,500.2,303.7,500.2z"/>
		<line class="st10" x1="554.2" y1="547.3" x2="575.4" y2="547.3"/>
		<path class="st21" d="M326.8,485.7h-68.6c-1.8,0-3.2-1.4-3.2-3.2V469c0-1.8,1.4-3.2,3.2-3.2h68.6c1.8,0,3.2,1.4,3.2,3.2v13.5
			C329.9,484.3,328.6,485.7,326.8,485.7z"/>
		<rect x="376.3" y="476.7" class="st22" width="11.9" height="78"/>
		<g>
			<g>
				<path class="st4" d="M351.7,80.7c0.7,13.9,0.9,27.8,0.9,41.9c0,5.8,9,5.8,9,0c0-13.9-0.4-28-0.9-41.9
					C360.4,74.9,351.4,74.9,351.7,80.7L351.7,80.7z"/>
			</g>
			<g>
				<path class="st4" d="M421,73.3c-7.2,18.8-13.9,37.7-19.9,57c-1.8,5.6,7,7.9,8.7,2.3c6-19.1,12.6-38.3,19.9-57
					C431.7,70.4,423,68.1,421,73.3L421,73.3z"/>
			</g>
			<g>
				<path class="st4" d="M284.6,89c9.7,15.7,19.3,31.6,28.7,47.5c2.9,5.1,10.8,0.5,7.8-4.5c-9.4-15.9-19-31.8-28.7-47.5
					C289.4,79.6,281.5,84.1,284.6,89L284.6,89z"/>
			</g>
			<g>
				<path class="st4" d="M258.8,140.8c6,5.6,11.4,11.6,16.2,17.9c3.6,4.5,9.9-1.8,6.3-6.3c-5.1-6.3-10.5-12.5-16.2-17.9
					C260.9,130.5,254.6,136.8,258.8,140.8L258.8,140.8z"/>
			</g>
			<g>
				<path class="st4" d="M438.4,155.8c6.7-6.3,13.5-12.6,20.2-19c4.3-4-2.2-10.3-6.3-6.3c-6.7,6.3-13.5,12.6-20.2,19
					C427.7,153.4,434,159.8,438.4,155.8L438.4,155.8z"/>
			</g>
		</g>
		<g class="st23">
			<path class="st0" d="M99.2,252.5c0,15.5-12.5,28-28,28s-28-12.5-28-28c9.6,0.9,32.9,4,32.9,4s-7.2-22.6-9.4-31.6
				c1.4-0.2,3.1-0.4,4.7-0.4C86.7,224.6,99.2,237.2,99.2,252.5z"/>
			<path class="st0" d="M71.2,252.5l-27.8-3.8c1.4-10.8,9-19.7,19.3-22.9L71.2,252.5z"/>
		</g>
		<path class="st24" d="M115.6,58.9c0,0,13.5-16.1,42.8-20.9l-4.7-8.7c-0.5-1.1,0.4-2.3,1.6-2l25.8,7.9c0.9,0.4,1.4,1.4,0.9,2.3
			l-13,24.4c-0.5,1.1-2.2,0.9-2.5-0.2L161.6,48c0,0-19.3,7.9-28.9,28.3L115.6,58.9z"/>
		<g>
			<line class="st25" x1="170.1" y1="410.5" x2="176.3" y2="400.7"/>
			<line class="st25" x1="173.2" y1="413.4" x2="186.9" y2="408.1"/>
			<line class="st25" x1="174.5" y1="419.1" x2="186" y2="419.1"/>
			<path class="st24" d="M136.9,433.2l-5.1-0.9c-1.3-0.2-2.3,1.1-1.8,2.3l2.7,6.7c0.5,1.4,2.5,1.4,3.1,0.2l1.3-2.5
				c0.4-0.7,1.4-0.7,1.8,0l7.2,16.2c0,0.2,0.2,0.2,0.4,0.2l5.8-2.5c0.2,0,0.2-0.2,0.2-0.4l-5.2-11.7c-0.5-1.3,0.4-2.7,1.6-2.7
				l21.7-0.9c2,0.2,3.6-1.8,2.7-3.8l-11.6-25.6c-0.9-2-3.4-2.2-4.7-0.4L136.9,433.2"/>
		</g>
		<g class="st23">
			<polyline class="st26" points="575.5,366.2 575.5,405.1 649.9,405.1 			"/>
			<rect x="589.3" y="372.6" class="st0" width="9.9" height="32.5"/>
			<rect x="604.8" y="363" class="st0" width="9.9" height="42.1"/>
			<rect x="622.8" y="351.8" class="st0" width="9.9" height="53.2"/>
		</g>
		<g class="st23">
			<path class="st0" d="M623.7,110.7c7.4,0.9,12.6,4.7,12.6,4.7l-4.7,9.4c0,0-5.2-3.4-10.5-3.4c-4.2,0-6.1,1.8-6.1,4.5
				c0,3.1,4.9,5.1,10.6,7.4c5.8,2.5,12.1,7.2,12.1,14.1c0,10.1-6.3,14.8-14.1,16.1v9.4h-7v-8.8c-11.2-0.5-17.7-6.9-17.7-6.9l6-9.7
				c0,0,6.9,5.8,12.6,5.8c2.5,0,7.4-0.2,7.4-5.1c0-3.8-5.4-5.4-11.6-8.5c-6.2-3.1-9.7-7.9-9.7-13.2c0-7.9,6.1-13.7,13.2-15.3v-9.4h7
				L623.7,110.7L623.7,110.7L623.7,110.7z"/>
		</g>
		<path class="st27" d="M300.5,241.7c-2.7-18.6,0.4-40.1,11.7-54.9c10.3-13.4,27.1-20.9,43.3-22c8.5-0.5,11.6-9,3.8-12.5
			c-0.7-0.4-1.6-0.5-2.3-0.9c-6.1-1.4-16.2,0.4-22.2,2.7c-19.7,8.1-36.5,23.3-44.8,43c-7.4,17.5-8.1,37.9-2,56
			c2.5,7.6,6.1,15.2,11.2,21.5c4.7,5.8,12.8,12.8,20.8,12.3c2.5-0.2,5.2-1.8,6-4.2c0.2-0.7,0.4-1.6,0-2.3c-0.4-1.3-1.4-2.2-2.7-2.7
			C310.4,270.2,302.6,256.1,300.5,241.7z"/>
		<path class="st12" d="M480.8,255.6c-0.2,0.9-0.4,1.8-0.2,2.7c0.2,0.9,0.5,1.8,1.3,2.3c0.9,0.7,2.2,0.5,3.2,0.2
			c1.1-0.4,1.8-1.3,2.5-2.2c2.3-2.9,3.8-6.5,4-10.3c0.2-1.8-0.4-3.8-2.3-4.3c-1.3-0.4-2.9,0-3.8,1.1
			C483.1,247.8,481.5,252.2,480.8,255.6z"/>
		<path class="st12" d="M487.6,258.7c-0.2,0.9-0.4,1.8-0.2,2.7c0.2,0.9,0.5,1.8,1.4,2.3c0.9,0.7,2.3,0.5,3.4,0.2
			c1.1-0.4,2-1.3,2.7-2.2c2.5-2.9,4.2-6.5,4.3-10.3c0.2-1.8-0.4-3.8-2.5-4.3c-1.4-0.4-3.1,0-4.2,1.1
			C490,250.7,488.4,255.2,487.6,258.7z"/>
		<path class="st12" d="M494.5,262.5c-0.2,0.9-0.4,1.8-0.2,2.7c0.2,0.9,0.5,1.8,1.3,2.3c0.9,0.7,2.2,0.5,3.2,0.2
			c1.1-0.4,1.8-1.3,2.5-2.2c2.3-2.9,3.8-6.5,4-10.3c0.2-1.8-0.4-3.8-2.3-4.3c-1.3-0.4-2.9,0-3.8,1.1
			C496.7,254.5,495.2,258.8,494.5,262.5z"/>
		<path class="st28" d="M481.5,254.3c-0.2,0.9-0.4,1.8-0.2,2.7c0.2,0.9,0.5,1.8,1.3,2.3c0.9,0.7,2.2,0.5,3.2,0.2
			c1.1-0.4,1.8-1.3,2.5-2.2c2.3-2.9,3.8-6.5,4-10.3c0.2-1.8-0.4-3.8-2.3-4.3c-1.3-0.4-2.9,0-3.8,1.1
			C483.7,246.4,482.2,250.9,481.5,254.3z"/>
		<path class="st28" d="M489.1,257.2c-0.2,0.9-0.4,1.8-0.2,2.7c0.2,0.9,0.5,1.8,1.3,2.3c0.9,0.7,2.2,0.5,3.2,0.2
			c1.1-0.4,1.8-1.3,2.5-2.2c2.3-2.9,3.8-6.5,4-10.3c0.2-1.8-0.4-3.8-2.3-4.3c-1.3-0.4-2.9,0-3.8,1.1
			C491.2,249.5,489.8,253.8,489.1,257.2z"/>
		<path class="st28" d="M495.8,261c-0.2,0.9-0.4,1.8-0.2,2.7c0.2,0.9,0.5,1.8,1.3,2.3c0.9,0.7,2.2,0.5,3.2,0.2
			c1.1-0.4,1.8-1.3,2.5-2.2c2.3-2.9,3.8-6.5,4-10.3c0.2-1.8-0.4-3.8-2.3-4.3c-1.3-0.4-2.9,0-3.8,1.1
			C498.1,253.3,496.5,257.6,495.8,261z"/>
		<path class="st12" d="M485.1,255.8c1.1-0.4,2.3-0.7,2.9-1.8c0.5-1.4-0.4-3.1-1.3-4c-3.4-3.4-8.3-5.1-12.8-4
			c-2.5,0.5-5.2,2-6.7,4.5c-1.1,2-2,5.6,0.4,6.9c1.8,1.1,5.4,0.4,7.6,0.2C478.4,257.2,481.9,256.7,485.1,255.8z"/>
		<path class="st4" d="M484,255.1c1.1-0.2,2.3-0.7,2.7-1.6c0.5-1.3-0.4-2.7-1.4-3.8c-3.4-3.2-8.3-4.7-12.8-3.8
			c-2.5,0.5-5.2,1.8-6.7,4.2c-1.1,1.8-2.9,11.4-0.5,16.2c0.9,1.6,6.3-9.6,8.3-9.7C477.2,256.5,480.6,256,484,255.1z"/>
	</g>
</g>
</svg>
