<?xml version="1.0" encoding="utf-8"?>
<!-- Generator: Adobe Illustrator 24.3.0, SVG Export Plug-In . SVG Version: 6.00 Build 0)  -->
<svg version="1.1" id="Layer_1" xmlns="http://www.w3.org/2000/svg" xmlns:xlink="http://www.w3.org/1999/xlink" x="0px" y="0px"
	 viewBox="0 0 750 645.7" style="enable-background:new 0 0 750 645.7;" xml:space="preserve">
<style type="text/css">
	.st0{clip-path:url(#SVGID_2_);}
	.st1{fill:url(#SVGID_3_);}
	.st2{opacity:0.3;}
	.st3{fill:#91B3FA;}
	.st4{fill:#BDD0FB;}
	.st5{fill:url(#SVGID_4_);}
	.st6{fill:url(#SVGID_5_);}
	.st7{fill:url(#SVGID_6_);}
	.st8{fill:url(#SVGID_7_);}
	.st9{fill:#FFFFFF;}
	.st10{fill:url(#SVGID_8_);}
	.st11{fill:url(#SVGID_9_);}
	.st12{fill:url(#SVGID_10_);}
	.st13{fill:url(#SVGID_11_);}
	.st14{fill:url(#SVGID_12_);}
	.st15{fill:url(#SVGID_13_);}
	.st16{fill:url(#SVGID_14_);}
	.st17{fill:url(#SVGID_15_);}
	.st18{fill:url(#SVGID_16_);}
	.st19{fill:url(#SVGID_17_);}
	.st20{fill:url(#SVGID_18_);}
	.st21{fill:url(#SVGID_19_);}
	.st22{fill:url(#SVGID_20_);}
	.st23{fill:url(#SVGID_21_);}
	.st24{fill:url(#SVGID_22_);}
	.st25{fill:url(#SVGID_23_);}
	.st26{fill:url(#SVGID_24_);}
	.st27{fill:url(#SVGID_25_);}
	.st28{fill:url(#SVGID_26_);}
	.st29{fill:url(#SVGID_27_);}
	.st30{fill:url(#SVGID_28_);}
	.st31{fill:url(#SVGID_29_);}
	.st32{fill:url(#SVGID_30_);}
	.st33{fill:url(#SVGID_31_);}
	.st34{fill:url(#SVGID_32_);}
	.st35{fill:url(#SVGID_33_);}
	.st36{fill:url(#SVGID_34_);}
	.st37{fill:url(#SVGID_35_);}
	.st38{fill:url(#SVGID_36_);}
	.st39{fill:url(#SVGID_37_);}
	.st40{fill:url(#SVGID_38_);}
	.st41{fill:url(#SVGID_39_);}
	.st42{fill:url(#SVGID_40_);}
	.st43{fill:url(#SVGID_41_);}
	.st44{opacity:0.78;fill:#FFFFFF;enable-background:new    ;}
	.st45{fill:url(#SVGID_42_);}
	.st46{fill:url(#SVGID_43_);}
	.st47{fill:url(#SVGID_44_);}
	.st48{fill:url(#SVGID_45_);}
	.st49{fill:url(#SVGID_46_);}
	.st50{fill:url(#SVGID_47_);}
	.st51{fill:url(#SVGID_48_);}
	.st52{fill:url(#SVGID_49_);}
	.st53{fill:url(#SVGID_50_);}
	.st54{fill:url(#SVGID_51_);}
	.st55{fill:url(#SVGID_52_);}
	.st56{fill:url(#SVGID_53_);}
</style>
<g>
	<defs>
		<rect id="SVGID_1_" x="0" width="750" height="645.7"/>
	</defs>
	<clipPath id="SVGID_2_">
		<use xlink:href="#SVGID_1_"  style="overflow:visible;"/>
	</clipPath>
	<g id="Illustration" class="st0">
		<g>
			
				<linearGradient id="SVGID_3_" gradientUnits="userSpaceOnUse" x1="755.6213" y1="-418.4619" x2="242.3082" y2="135.5904" gradientTransform="matrix(1 0 0 -1 0 295.72)">
				<stop  offset="0" style="stop-color:#DAE3FE"/>
				<stop  offset="1" style="stop-color:#E9EFFD"/>
			</linearGradient>
			<path class="st1" d="M684.1,398.4c-70.5,164.9-256.7,235.7-402.6,223.6c-39.8-3.3-120-9.9-182.6-69.1
				C-21.2,439.3-2.7,201.8,112.3,61.9c14.8-18,117.4-138.7,277.1-137.1C506.4-74,588.6-7.9,598.6,0.4c12.6,10.4,40.4,35.1,65.5,74.3
				C723,166.8,728.2,295.4,684.1,398.4z"/>
			<g>
				<g>
					<g class="st2">
						<path class="st3" d="M231.1,89.6c1.3-0.3,2.7,0.4,3.2,1.7c1.1,2.9,2,5.9,2.8,8.8c0.4,1.4-0.5,2.9-1.9,3.3c0,0,0,0-0.1,0
							c-1.4,0.4-2.9-0.5-3.3-1.9c-0.7-2.8-1.6-5.7-2.6-8.4c-0.5-1.4,0.2-3,1.6-3.5C230.9,89.7,231,89.6,231.1,89.6z M236.6,112.6
							c0.1,0,0.2-0.1,0.3-0.1c1.5-0.2,2.9,0.9,3,2.4c0.4,3.1,0.6,6.2,0.8,9.2c0.1,1.5-1.1,2.8-2.6,2.8c-1.5,0.1-2.8-1.1-2.8-2.6
							c-0.1-2.9-0.4-5.9-0.7-8.8C234.4,114.2,235.3,113,236.6,112.6z M236.9,136.3c0.3-0.1,0.6-0.1,0.9-0.1c1.5,0.2,2.6,1.5,2.4,3
							c-0.3,3.1-0.7,6.2-1.3,9.2c-0.3,1.5-1.7,2.4-3.2,2.2c-1.5-0.3-2.4-1.7-2.2-3.2c0.5-2.9,1-5.8,1.3-8.7
							C235,137.5,235.9,136.6,236.9,136.3z M232,159.5c0.5-0.1,1-0.1,1.5,0.1c1.4,0.5,2.2,2,1.7,3.5c-1,2.9-2.1,5.8-3.3,8.7
							c-0.6,1.4-2.2,2-3.6,1.4c-1.4-0.6-2-2.2-1.4-3.6c1.2-2.7,2.2-5.4,3.2-8.2C230.3,160.3,231.1,159.7,232,159.5z M221.9,180.9
							c0.7-0.2,1.4-0.1,2.1,0.3c1.3,0.8,1.7,2.4,0.9,3.7c-1.6,2.6-3.3,5.2-5.2,7.7c-0.9,1.2-2.6,1.5-3.8,0.6
							c-1.2-0.9-1.5-2.6-0.6-3.8c1.7-2.4,3.4-4.8,4.9-7.3C220.7,181.5,221.3,181.1,221.9,180.9z M207.4,199.6c0.9-0.2,1.9,0,2.5,0.7
							c1.1,1.1,1.1,2.8,0.1,3.8c-2.1,2.2-4.4,4.4-6.7,6.4c-1.1,1-2.9,0.8-3.8-0.3s-0.8-2.9,0.3-3.8c2.2-1.9,4.4-3.9,6.4-6.1
							C206.5,200,206.9,199.7,207.4,199.6z M112.3,229.8c0.4-0.1,0.7-0.1,1.2,0c2.9,0.5,5.8,1,8.7,1.2c1.5,0.2,2.6,1.5,2.4,3
							c-0.2,1.5-1.5,2.6-3,2.4c-3.1-0.3-6.2-0.7-9.2-1.3c-1.5-0.3-2.4-1.7-2.2-3.2C110.5,230.9,111.3,230.1,112.3,229.8z
							 M189.1,214.6c1.1-0.3,2.3,0.2,2.9,1.2c0.8,1.3,0.5,2.9-0.8,3.8c-2.6,1.7-5.3,3.2-8,4.7c-1.3,0.7-3,0.2-3.7-1.1
							c-0.7-1.3-0.2-3,1.1-3.7c2.6-1.4,5.1-2.9,7.6-4.5C188.5,214.8,188.8,214.7,189.1,214.6z M135.9,231.5c0.2-0.1,0.4-0.1,0.5-0.1
							c2.9-0.1,5.9-0.4,8.8-0.7c1.5-0.2,2.9,0.9,3,2.3c0.2,1.5-0.8,2.9-2.3,3c-3.1,0.4-6.2,0.6-9.2,0.8c-1.5,0.1-2.8-1.1-2.8-2.6
							C133.8,232.9,134.7,231.8,135.9,231.5z M167.9,225.2c1.3-0.3,2.7,0.4,3.2,1.7c0.5,1.4-0.2,3-1.6,3.5c-2.9,1.1-5.9,2-8.8,2.8
							c0,0,0,0-0.1,0c-1.4,0.4-2.9-0.5-3.3-1.9c-0.4-1.4,0.5-2.9,1.9-3.3c2.8-0.8,5.6-1.6,8.4-2.7
							C167.7,225.2,167.8,225.2,167.9,225.2z"/>
						<path class="st3" d="M93.9,224.7c0.5-0.1,1.1-0.1,1.6,0.1c1.3,0.5,2.7,1,4,1.4c1.4,0.5,2.2,2,1.7,3.5c-0.5,1.4-2,2.2-3.5,1.7
							c-1.4-0.5-2.8-1-4.2-1.5c-1.4-0.5-2.1-2.1-1.6-3.5C92.3,225.5,93,224.9,93.9,224.7z"/>
					</g>
					<g class="st2">
						<path class="st3" d="M34.2,167.2c1.3-0.3,2.6,0.3,3.1,1.6c0.5,1.3,1.1,2.6,1.7,3.9c0.6,1.4,0.1,3-1.3,3.6s-3,0.1-3.6-1.3
							s-1.3-2.7-1.8-4.1c-0.6-1.4,0.1-3,1.4-3.6C33.9,167.3,34,167.2,34.2,167.2z"/>
						<path class="st3" d="M106.1,23c1.2-0.3,2.4-0.6,3.7-0.8c1.5-0.3,2.9,0.6,3.2,2.1c0.3,1.5-0.6,2.9-2.1,3.2
							c-2.9,0.6-5.7,1.3-8.4,2.1c-1.4,0.4-3-0.4-3.4-1.8c-0.4-1.4,0.4-3,1.8-3.4C102.6,23.9,104.4,23.4,106.1,23z M124,20.2
							c0.2,0,0.3-0.1,0.5-0.1c3-0.2,6.1-0.3,9.1-0.3c1.5,0,2.7,1.2,2.7,2.8c0,1.5-1.2,2.7-2.8,2.7c-2.9,0-5.8,0.1-8.7,0.3
							c-1.5,0.1-2.8-1-2.9-2.5C121.8,21.7,122.7,20.5,124,20.2z M87.5,29.5c1.2-0.3,2.6,0.3,3.1,1.5c0.6,1.4,0,3-1.3,3.6
							c-2.6,1.2-5.2,2.5-7.7,3.9c-1.3,0.7-3,0.3-3.7-1s-0.3-3,1-3.7c2.7-1.5,5.4-2.9,8.1-4.1C87.2,29.6,87.4,29.5,87.5,29.5z
							 M147.3,21c0.3-0.1,0.7-0.1,1.1-0.1c3,0.4,6,1,9,1.7c1.5,0.3,2.4,1.8,2,3.3c-0.3,1.5-1.8,2.4-3.3,2c-2.8-0.7-5.7-1.2-8.5-1.6
							c-1.5-0.2-2.5-1.6-2.3-3.1C145.4,22.1,146.2,21.3,147.3,21z M67.5,41.4c1-0.3,2.1,0.1,2.8,1c0.9,1.2,0.7,2.9-0.5,3.8
							c-2.3,1.7-4.5,3.6-6.7,5.5c-1.1,1-2.8,0.9-3.8-0.2c-1-1.1-0.9-2.8,0.2-3.8c2.2-2,4.6-4,7-5.8C66.9,41.7,67.2,41.5,67.5,41.4z
							 M50.7,57.5c0.8-0.2,1.7,0,2.4,0.6c1.2,1,1.3,2.7,0.3,3.8c-1.9,2.2-3.6,4.5-5.3,6.9c-0.9,1.2-2.5,1.5-3.8,0.6
							c-1.2-0.9-1.5-2.6-0.6-3.8c1.8-2.5,3.6-4.9,5.6-7.2C49.6,57.9,50.1,57.6,50.7,57.5z M37.7,76.9c0.6-0.2,1.3-0.1,1.9,0.2
							c1.3,0.7,1.9,2.3,1.2,3.7c-1.3,2.5-2.6,5.2-3.7,7.9c-0.6,1.4-2.2,2-3.6,1.5c-1.4-0.6-2-2.2-1.5-3.6c1.2-2.8,2.5-5.6,3.9-8.3
							C36.3,77.5,37,77.1,37.7,76.9z M29.3,98.6c0.4-0.1,0.9-0.1,1.3,0c1.4,0.4,2.3,1.9,1.9,3.3c-0.7,2.8-1.4,5.6-1.9,8.4
							c-0.3,1.5-1.7,2.5-3.1,2.2c-1.5-0.3-2.5-1.7-2.2-3.1c0.5-3,1.2-6,2-8.9C27.6,99.5,28.3,98.8,29.3,98.6z M25.8,121.6
							c0.2-0.1,0.5-0.1,0.7-0.1c1.5,0.1,2.7,1.3,2.6,2.8c-0.1,2.9-0.1,5.8,0,8.7c0.1,1.5-1.1,2.8-2.6,2.8c-1.5,0.1-2.8-1.1-2.8-2.6
							c-0.1-3-0.2-6.1-0.1-9.1C23.8,122.9,24.7,121.9,25.8,121.6z M27.5,144.9c0.1,0,0.1,0,0.2,0c1.5-0.3,2.9,0.7,3.2,2.2
							c0.4,2.1,0.8,4.2,1.3,6.2c0.2,0.7,0.4,1.5,0.6,2.2c0.4,1.4-0.5,2.9-1.9,3.3c-1.5,0.4-2.9-0.5-3.3-1.9
							c-0.2-0.8-0.4-1.5-0.6-2.3c-0.5-2.2-1-4.4-1.4-6.6C25.2,146.6,26.1,145.2,27.5,144.9z"/>
						<path class="st3" d="M169.8,27c0.5-0.1,1.1-0.1,1.6,0.1c1.4,0.5,2.8,1.1,4.1,1.7c1.4,0.6,2,2.2,1.4,3.6
							c-0.6,1.4-2.2,2-3.6,1.4c-1.3-0.6-2.6-1.1-3.9-1.6c-1.4-0.5-2.1-2.1-1.5-3.5C168.3,27.8,169,27.2,169.8,27z"/>
					</g>
					<g>
						<path class="st3" d="M173.9,58.5c-0.4-0.3-1-0.3-1.5,0l-12.8,8.7c-6.6-2.9-13.7-4.8-21.1-5.4l-7.1-13.8
							c-0.3-0.5-0.8-0.7-1.3-0.7l-18.4,2.6c-0.5,0.1-1,0.5-1.1,1l-2.9,15.2c-6.9,2.7-13.2,6.5-18.8,11.1l-14.7-4.7
							c-0.5-0.2-1.1,0-1.4,0.4L61.7,87.7c-0.3,0.4-0.3,1,0,1.5l8.7,12.8c-2.9,6.6-4.8,13.7-5.4,21.1l-13.8,7.1
							c-0.5,0.3-0.7,0.8-0.7,1.3l2.6,18.4c0.1,0.5,0.5,1,1,1.1l15.2,2.9c2.7,6.9,6.5,13.2,11.1,18.8l-4.7,14.7
							c-0.2,0.5,0,1.1,0.4,1.4l14.8,11.1c0.4,0.3,1,0.3,1.5,0l12.8-8.7c6.6,2.9,13.7,4.8,21.1,5.4l7.1,13.8c0.3,0.5,0.8,0.7,1.3,0.7
							l18.4-2.6c0.5-0.1,1-0.5,1.1-1l2.9-15.2c6.9-2.7,13.2-6.5,18.8-11.1l14.7,4.7c0.5,0.2,1.1,0,1.4-0.4l11.1-14.8
							c0.3-0.4,0.3-1,0-1.5l-8.7-12.8c2.9-6.6,4.8-13.7,5.4-21.1l13.8-7.1c0.5-0.3,0.7-0.8,0.7-1.3l-2.6-18.4c-0.1-0.5-0.5-1-1-1.1
							l-15.2-2.9c-2.7-6.9-6.5-13.2-11.1-18.8l4.7-14.7c0.2-0.5,0-1.1-0.4-1.4L173.9,58.5z"/>
						<g>
							<path class="st4" d="M127.9,111.1c8.8-2.2,18.2,2.4,21.7,11c3.9,9.5-0.7,20.4-10.2,24.3c-4.6,1.9-9.7,1.9-14.3-0.1
								c-4.6-1.9-8.2-5.5-10-10.1c-3.9-9.5,0.7-20.4,10.2-24.3C126.2,111.6,127,111.3,127.9,111.1z M135.8,143.1
								c0.7-0.2,1.4-0.4,2-0.7c7.3-3,10.8-11.4,7.8-18.6c-3-7.3-11.4-10.8-18.6-7.8c-7.3,3-10.8,11.4-7.8,18.6
								c1.4,3.5,4.2,6.3,7.7,7.8C129.7,143.6,132.8,143.8,135.8,143.1z"/>
						</g>
						<path class="st4" d="M121.1,85.1c1.5-0.4,3.1-0.7,4.6-0.9l0,0c0.5-0.1,1-0.1,1.5-0.2c2.4-0.3,4.9-0.3,7.3-0.2c0,0,0.1,0,0.1,0
							c0.1,0,0.2,0,0.3,0c0.2,0,0.4,0,0.5,0c0.5,0,0.9,0.4,1,0.8c0,0.1,0,0.2,0,0.3c-0.1,0.6-0.6,1.1-1.2,1
							c-3.1-0.2-6.2-0.1-9.3,0.3c-15.3,2.2-27.7,12.1-33.6,25.3c-3.3,7.3-4.7,15.6-3.5,24.1c0.2,1.5,0.5,3,0.8,4.4
							c2.4,9.7,8,18.3,16.1,24.3c9.3,7,20.8,9.9,32.4,8.3c23.8-3.4,40.5-25.5,37.1-49.4c-0.2-1.5-0.5-2.9-0.8-4.4
							c-1.5-6.2-4.4-12-8.4-17c-0.1-0.1-0.2-0.3-0.2-0.4c-0.1-0.4,0-0.8,0.4-1.1c0.5-0.4,1.2-0.3,1.5,0.2c4.2,5.2,7.3,11.3,8.9,17.8
							c0.4,1.5,0.7,3,0.9,4.6c3.6,25-13.9,48.3-38.9,51.8c-12.1,1.7-24.2-1.4-34-8.7c-8.5-6.4-14.4-15.3-17-25.6
							c-0.4-1.5-0.7-3.1-0.9-4.6c-1.7-12.1,1.4-24.2,8.7-34C101.9,93.5,110.9,87.6,121.1,85.1z"/>
					</g>
				</g>
				<g>
					<g class="st2">
						<path class="st3" d="M304-2.2c0.7-0.2,1.5,0.1,1.9,0.8c0.7,1.2,1.4,2.5,2.1,3.8c0.4,0.8,0.1,1.8-0.7,2.3
							c-0.8,0.4-1.8,0.1-2.3-0.7c-0.6-1.2-1.3-2.4-2-3.6c-0.5-0.8-0.2-1.8,0.6-2.3C303.7-2.1,303.8-2.1,304-2.2z"/>
						<path class="st3" d="M309.4,9.5c0.8-0.2,1.7,0.3,2,1.1c0.8,2.3,1.5,4.7,2.1,7.1c0.1,0.5,0.2,1,0.4,1.5c0.2,0.9-0.4,1.8-1.3,2
							c-0.9,0.2-1.8-0.4-2-1.3c-0.1-0.5-0.2-1-0.3-1.4c-0.6-2.3-1.2-4.5-2-6.7c-0.3-0.9,0.1-1.8,1-2.1
							C309.3,9.5,309.4,9.5,309.4,9.5z M313.3,26.5c0.1,0,0.2,0,0.2-0.1c0.9-0.1,1.8,0.6,1.8,1.5c0.3,3,0.4,6,0.3,8.9
							c0,0.9-0.8,1.6-1.7,1.6c-0.9,0-1.6-0.8-1.6-1.7c0.1-2.8-0.1-5.7-0.3-8.5C311.9,27.5,312.5,26.7,313.3,26.5z M312.8,44
							c0.2-0.1,0.4-0.1,0.6,0c0.9,0.1,1.5,1,1.4,1.9c-0.4,2.9-1.1,5.9-1.9,8.8c-0.3,0.9-1.2,1.4-2.1,1.2c-0.9-0.3-1.4-1.2-1.2-2.1
							c0.8-2.7,1.4-5.5,1.8-8.3C311.7,44.7,312.2,44.1,312.8,44z M308.2,60.7c0.3-0.1,0.7-0.1,1.1,0.1c0.8,0.4,1.3,1.3,0.9,2.2
							c-1.2,2.8-2.5,5.4-3.9,8c-0.5,0.8-1.5,1.1-2.3,0.6c-0.8-0.5-1.1-1.5-0.6-2.3c1.4-2.4,2.7-5,3.8-7.6
							C307.2,61.2,307.7,60.9,308.2,60.7z M299.5,75.9c0.5-0.1,1,0,1.4,0.3c0.7,0.6,0.9,1.6,0.3,2.3c-1.8,2.4-3.7,4.7-5.8,6.8
							c-0.6,0.7-1.7,0.7-2.4,0.1s-0.7-1.7-0.1-2.4c2-2,3.8-4.2,5.5-6.5C298.8,76.2,299.1,76,299.5,75.9z M287.5,88.5
							c0.6-0.2,1.3,0.1,1.7,0.6c0.6,0.7,0.5,1.8-0.2,2.4c-2.3,1.9-4.7,3.6-7.3,5.2c-0.8,0.5-1.8,0.3-2.3-0.5
							c-0.5-0.8-0.3-1.8,0.5-2.3c2.4-1.5,4.7-3.2,6.9-5C287,88.6,287.2,88.5,287.5,88.5z M272.7,97.7c0.8-0.2,1.6,0.2,1.9,0.9
							c0.4,0.8,0,1.8-0.8,2.2c-2.7,1.3-5.5,2.3-8.3,3.3c-0.9,0.3-1.8-0.2-2.1-1.1c-0.3-0.9,0.2-1.8,1.1-2.1c2.7-0.9,5.4-1.9,7.9-3.1
							C272.5,97.8,272.6,97.7,272.7,97.7z M247.4,104.2c0.1,0,0.2-0.1,0.3-0.1c2.4-0.2,4.9-0.5,7.4-0.9c0.4-0.1,0.7-0.1,1.1-0.2
							c0.9-0.2,1.8,0.4,2,1.3c0.2,0.9-0.4,1.8-1.3,2c-0.4,0.1-0.8,0.2-1.2,0.2c-2.5,0.4-5.2,0.8-7.7,0.9c-0.9,0.1-1.7-0.6-1.8-1.6
							C246.1,105.1,246.7,104.4,247.4,104.2z"/>
					</g>
					<g class="st2">
						<path class="st3" d="M224.8-35c0.9-0.2,1.8,0.3,2,1.2c0.2,0.9-0.3,1.8-1.2,2.1c-2.7,0.7-5.4,1.6-8,2.6c-0.8,0.3-1.8-0.1-2.2-1
							c-0.3-0.9,0.1-1.8,1-2.2C219.1-33.4,221.9-34.3,224.8-35L224.8-35z M233.2-36.7c0.1,0,0.1,0,0.2,0c2.9-0.4,5.8-0.6,8.8-0.7
							c0.9,0,1.7,0.7,1.7,1.6c0,0.9-0.7,1.7-1.6,1.7c-2.8,0.1-5.6,0.3-8.4,0.6c-0.9,0.1-1.8-0.5-1.9-1.4
							C231.8-35.7,232.4-36.5,233.2-36.7z M208.9-28.7c0.7-0.2,1.5,0.2,1.9,0.8c0.4,0.8,0.2,1.8-0.7,2.3c-2.4,1.3-4.8,2.8-7.1,4.5
							c-0.7,0.5-1.8,0.4-2.3-0.4c-0.5-0.7-0.4-1.8,0.4-2.3c2.4-1.7,4.9-3.3,7.4-4.7C208.6-28.6,208.7-28.7,208.9-28.7z M250.4-36.9
							c0.2-0.1,0.4-0.1,0.6-0.1c2.9,0.3,5.8,0.8,8.7,1.5c0.9,0.2,1.5,1.1,1.3,2c-0.2,0.9-1.1,1.5-2,1.3c-2.7-0.6-5.5-1.1-8.3-1.4
							c-0.9-0.1-1.6-0.9-1.5-1.9C249.2-36.2,249.7-36.8,250.4-36.9z M194.9-18.7c0.6-0.2,1.2,0,1.6,0.5c0.6,0.7,0.6,1.8-0.1,2.4
							c-2.1,1.9-4,3.9-5.8,6C190-9.2,189-9,188.3-9.7c-0.7-0.6-0.8-1.7-0.2-2.4c1.9-2.2,3.9-4.4,6.1-6.3
							C194.4-18.5,194.6-18.7,194.9-18.7z M183.8-5.7c0.4-0.1,0.9-0.1,1.3,0.2c0.8,0.5,1,1.5,0.5,2.3c-1.5,2.3-3,4.8-4.2,7.3
							c-0.4,0.8-1.4,1.2-2.3,0.7c-0.8-0.4-1.2-1.4-0.7-2.2c1.3-2.6,2.8-5.2,4.4-7.6C183-5.4,183.4-5.6,183.8-5.7z M176.1,9.6
							c0.3-0.1,0.6-0.1,1,0.1c0.9,0.3,1.3,1.3,1,2.1c-1,2.6-1.7,5.3-2.3,8.1c-0.2,0.9-1.1,1.5-2,1.3s-1.5-1.1-1.3-2
							c0.6-2.8,1.5-5.7,2.5-8.4C175.1,10.1,175.5,9.8,176.1,9.6z"/>
						<path class="st3" d="M267.1-33c0.3-0.1,0.6-0.1,1,0.1c1.3,0.5,2.7,1,4,1.6c0.8,0.4,1.2,1.4,0.9,2.2c-0.4,0.8-1.4,1.2-2.2,0.9
							c-1.2-0.5-2.5-1.1-3.8-1.5c-0.9-0.3-1.3-1.3-1-2.2C266.2-32.5,266.6-32.9,267.1-33z"/>
					</g>
					<g>
						<path class="st3" d="M271-11.6c-0.3-0.2-0.7-0.2-1,0l-8.6,5.8c-4.4-1.9-9.2-3.2-14.1-3.6l-4.7-9.2c-0.2-0.3-0.5-0.5-0.9-0.5
							l-12.3,1.8c-0.4,0.1-0.6,0.3-0.7,0.7l-2,10.1c-4.6,1.8-8.9,4.3-12.6,7.4l-9.8-3.2c-0.3-0.1-0.7,0-1,0.3l-7.4,9.9
							c-0.2,0.3-0.2,0.7,0,1l5.8,8.6c-1.9,4.4-3.2,9.2-3.6,14.1l-9.2,4.7c-0.3,0.2-0.5,0.5-0.5,0.9l1.8,12.3
							c0.1,0.4,0.3,0.6,0.7,0.7l10.1,2c1.8,4.6,4.3,8.9,7.4,12.6l-3.2,9.8c-0.1,0.3,0,0.7,0.3,1l9.9,7.4c0.3,0.2,0.7,0.2,1,0
							l8.6-5.8c4.4,1.9,9.2,3.2,14.1,3.6l4.7,9.2c0.2,0.3,0.5,0.5,0.9,0.5l12.3-1.8c0.4-0.1,0.6-0.3,0.7-0.7l2-10.1
							c4.6-1.8,8.9-4.3,12.6-7.4l9.8,3.2c0.3,0.1,0.7,0,1-0.3l7.4-9.9c0.2-0.3,0.2-0.7,0-1l-5.8-8.6c1.9-4.4,3.2-9.2,3.6-14.1
							l9.2-4.7c0.3-0.2,0.5-0.5,0.5-0.9l-1.8-12.3c-0.1-0.4-0.3-0.6-0.7-0.7l-10.1-2c-1.8-4.6-4.3-8.9-7.4-12.6l3.2-9.8
							c0.1-0.3,0-0.7-0.3-1L271-11.6z"/>
						<g>
							<path class="st4" d="M240.2,23.4c2.6-0.6,5.4-0.4,7.9,0.6c3.1,1.3,5.6,3.8,6.9,6.9c2.7,6.5-0.5,13.9-6.9,16.6
								c-6.5,2.7-13.9-0.5-16.6-6.9c-1.3-3.1-1.3-6.6,0-9.7c1.3-3.1,3.8-5.6,6.9-6.9C239,23.7,239.6,23.5,240.2,23.4z M245.5,44.8
								c0.4-0.1,0.9-0.3,1.3-0.4c4.8-2,7.1-7.4,5.1-12.2c-1-2.3-2.7-4.1-5-5.1c-2.3-1-4.8-1-7.2,0l0,0c-2.3,1-4.1,2.7-5.1,5
								c-1,2.3-1,4.8,0,7.2C236.4,43.6,241.1,45.9,245.5,44.8z"/>
						</g>
						<path class="st4" d="M235.5,5.2c1-0.3,2.1-0.5,3.2-0.6c2.1-0.3,4.3-0.4,6.4-0.3c0.1,0,0.2,0,0.3,0c0.7,0.1,1.3,0.6,1.5,1.3
							C247,5.8,247,6,247,6.1c-0.1,0.9-0.9,1.6-1.8,1.5c-2-0.2-4-0.1-6,0.2l0,0c-0.1,0-0.2,0-0.3,0.1c-4.7,0.7-9.1,2.6-12.7,5.4
							c-2,1.5-3.8,3.3-5.4,5.4c0,0,0,0,0,0.1c-0.1,0.1-0.1,0.1-0.1,0.2c-4.5,6-6.4,13.5-5.4,21c0.1,1,0.3,1.9,0.6,2.9
							c1.6,6.3,5.2,11.8,10.5,15.8c6,4.5,13.5,6.4,21,5.4c7.5-1.1,14.1-5,18.6-11c4.5-6,6.4-13.5,5.4-21c-0.1-1-0.3-1.9-0.5-2.8
							c-1-4-2.9-7.8-5.5-11c-0.2-0.2-0.3-0.4-0.3-0.6c-0.2-0.6,0.1-1.3,0.6-1.7c0.7-0.6,1.8-0.5,2.4,0.3c2.9,3.6,5,7.8,6.1,12.3
							c0.3,1,0.5,2.1,0.6,3.1c1.2,8.4-1,16.7-6,23.4c-5.1,6.7-12.5,11.1-20.8,12.3c-8.4,1.2-16.7-1-23.4-6
							c-5.9-4.4-10-10.6-11.7-17.6c-0.3-1.1-0.5-2.1-0.6-3.2C209.5,24.2,219.9,9.1,235.5,5.2z"/>
					</g>
				</g>
			</g>
			<g>
				
					<linearGradient id="SVGID_4_" gradientUnits="userSpaceOnUse" x1="738.6176" y1="240.4975" x2="509.6292" y2="-240.7663" gradientTransform="matrix(1 0 0 -1 0 295.72)">
					<stop  offset="0" style="stop-color:#4F52FF"/>
					<stop  offset="1" style="stop-color:#4042E2"/>
				</linearGradient>
				<path class="st5" d="M469.5,511.7l134.5-257.6h-27.6c-5.1,0-7.9-5.9-4.7-9.8L715.1,69.6c6.2-7.6,18.5-2.8,17.9,7l-10.1,170.8
					c-0.6,9.8-9.2,17.1-19,15.9l-19.2-2.2L551.3,550.1c-3.5,7.5-11,12.3-19.3,12.3h-46.2L469.5,511.7z"/>
				
					<linearGradient id="SVGID_5_" gradientUnits="userSpaceOnUse" x1="536.9225" y1="-281.2123" x2="372.6208" y2="-31.5258" gradientTransform="matrix(1 0 0 -1 0 295.72)">
					<stop  offset="0" style="stop-color:#4F52FF"/>
					<stop  offset="1" style="stop-color:#4042E2"/>
				</linearGradient>
				<path class="st6" d="M358.3,331.1L453.3,542c5.6,12.5,18.1,20.5,31.8,20.5h48.9c6.5,0,12.5-3.5,15.6-9.2l1.8-3.1l0,0
					c-5.3,0-10.1-2.9-12.5-7.6L412.4,294.7L358.3,331.1z"/>
				
					<linearGradient id="SVGID_6_" gradientUnits="userSpaceOnUse" x1="407.1075" y1="32.4653" x2="191.0564" y2="-254.7404" gradientTransform="matrix(1 0 0 -1 0 295.72)">
					<stop  offset="0" style="stop-color:#4F52FF"/>
					<stop  offset="1" style="stop-color:#4042E2"/>
				</linearGradient>
				<path class="st7" d="M425.1,319.7L425.1,319.7c-9.5-7.5-23.4-5.3-30.2,4.8L255.4,534.2c-11.2,16.8-30,26.9-50.2,26.9h-19.7
					l-16-46c0,0,129.8-199,163.2-229.1c0,0,33.3-30,66.1-7.3c8.7,6,15.3,14.6,19.3,24.3L425.1,319.7z"/>
				
					<linearGradient id="SVGID_7_" gradientUnits="userSpaceOnUse" x1="153.2469" y1="-187.6127" x2="-20.1122" y2="27.1454" gradientTransform="matrix(1 0 0 -1 0 295.72)">
					<stop  offset="0" style="stop-color:#4F52FF"/>
					<stop  offset="1" style="stop-color:#4042E2"/>
				</linearGradient>
				<path class="st8" d="M17.8,391.2c0,0,23.4-29.2,68.6-33.7c0,0,21.5,7.3,64.3,84.1c42.8,76.7,71.3,111.8,104.6,92.6l-2.8,4.6
					c-9.1,15.1-25.5,24.4-43.1,24.4h-18.5c-20.3,0-38-31.3-49.8-47.8C107.9,469,38.3,398.4,17.8,391.2z"/>
				<path class="st4" d="M716.8,130.6c-0.1,0-0.1,0-0.2,0c-0.7-0.1-1.2-0.7-1.1-1.4l1-8.3c0.1-0.7,0.7-1.2,1.4-1.1
					c0.7,0.1,1.2,0.7,1.1,1.4l-1,8.3C718,130.1,717.4,130.6,716.8,130.6z"/>
				<path class="st4" d="M597.2,235.9c-0.3,0-0.5-0.1-0.8-0.3c-0.6-0.4-0.7-1.2-0.2-1.8L714.5,80.1c1.4-1.8,3.6-2.4,5.7-1.6
					c2.1,0.8,3.3,2.9,3,5.1l-2.1,18.4c-0.1,0.7-0.7,1.2-1.4,1.1c-0.7-0.1-1.2-0.7-1.1-1.4l2.1-18.4c0.2-1.3-0.6-2.1-1.4-2.4
					c-0.8-0.3-1.9-0.3-2.7,0.7L598.2,235.4C597.9,235.7,597.6,235.9,597.2,235.9z"/>
				<path class="st4" d="M328.7,397.1c-0.3,0-0.5-0.1-0.7-0.2c-0.6-0.4-0.7-1.2-0.4-1.8l61.2-90.7c2.2-3.2,5.8-5,9.7-4.7
					c3.9,0.3,7.2,2.6,8.9,6.1c0.3,0.6,0,1.4-0.6,1.7c-0.6,0.3-1.4,0-1.7-0.6c-1.3-2.7-3.8-4.4-6.7-4.6c-3-0.2-5.7,1.1-7.4,3.6
					l-61.2,90.7C329.5,396.9,329.1,397.1,328.7,397.1z"/>
				<g>
					<path class="st9" d="M312.8,420.6c-0.3,0-0.5-0.1-0.7-0.2c-0.6-0.4-0.7-1.2-0.4-1.8l3.9-5.8c0.4-0.6,1.2-0.7,1.8-0.4
						c0.6,0.4,0.7,1.2,0.4,1.8l-3.9,5.8C313.6,420.5,313.2,420.6,312.8,420.6z"/>
				</g>
			</g>
			<g>
				
					<linearGradient id="SVGID_8_" gradientUnits="userSpaceOnUse" x1="386.5047" y1="-292.1904" x2="220.9941" y2="-472.2197" gradientTransform="matrix(1 0 0 -1 0 295.72)">
					<stop  offset="0" style="stop-color:#09005D"/>
					<stop  offset="1" style="stop-color:#1A0F91"/>
				</linearGradient>
				<path class="st10" d="M334.2,601.3c0,0-1.7,9.7-2.5,19.3c-0.3,3.8,2.6,7,6.3,7.2c12.8,0.5,40.2,1.6,50,1.1
					c1.5-0.1,2.4-1.6,1.9-3l0,0c-0.5-1.2-1.3-2.1-2.5-2.6l-45.2-20.8L334.2,601.3z"/>
				
					<linearGradient id="SVGID_9_" gradientUnits="userSpaceOnUse" x1="332.773" y1="-305.5815" x2="347.4744" y2="-305.5815" gradientTransform="matrix(1 0 0 -1 0 295.72)">
					<stop  offset="0" style="stop-color:#FEBBBA"/>
					<stop  offset="1" style="stop-color:#FF928E"/>
				</linearGradient>
				<path class="st11" d="M332.8,595.6l1.4,11.6c0,0,7.9,3.7,13.3-0.5l-3.3-12.9L332.8,595.6z"/>
				
					<linearGradient id="SVGID_10_" gradientUnits="userSpaceOnUse" x1="297.9092" y1="-193.1546" x2="346.5125" y2="-193.1546" gradientTransform="matrix(1 0 0 -1 0 295.72)">
					<stop  offset="0" style="stop-color:#09005D"/>
					<stop  offset="1" style="stop-color:#1A0F91"/>
				</linearGradient>
				<path class="st12" d="M333.8,377.4c-0.6,3-3.2,151.3,12.6,217.7c0.3,1.1-0.3,2.2-1.3,2.6c-2.4,1-7.2,2.4-12.9,2.6
					c-1.8,0.1-3.3-1.1-3.9-2.8c-4.5-15.4-26.2-92.6-29.1-166.4c-3.2-82.4,0-2.8,0-2.8l1.9-50.9H333.8z"/>
				
					<linearGradient id="SVGID_11_" gradientUnits="userSpaceOnUse" x1="349.3761" y1="-258.0559" x2="183.8653" y2="-438.0855" gradientTransform="matrix(1 0 0 -1 0 295.72)">
					<stop  offset="0" style="stop-color:#09005D"/>
					<stop  offset="1" style="stop-color:#1A0F91"/>
				</linearGradient>
				<path class="st13" d="M282.2,606.4c0,0-2.7,4.9-5.4,17.9c-0.5,2.3,1.2,4.6,3.6,4.8c4.2,0.4,10.7,1,15.9,0.9c2.4,0,4.3-2.1,4-4.5
					c-0.6-4.7-2.4-12.5-7.9-18.6L282.2,606.4z"/>
				
					<linearGradient id="SVGID_12_" gradientUnits="userSpaceOnUse" x1="279.7949" y1="-304.8204" x2="292.4922" y2="-304.8204" gradientTransform="matrix(1 0 0 -1 0 295.72)">
					<stop  offset="0" style="stop-color:#FEBBBA"/>
					<stop  offset="1" style="stop-color:#FF928E"/>
				</linearGradient>
				<path class="st14" d="M279.8,591.5L283,609c0,0,3.2,2.4,9.5,0.6l-1.5-18.9L279.8,591.5z"/>
				
					<linearGradient id="SVGID_13_" gradientUnits="userSpaceOnUse" x1="266.1281" y1="-191.5845" x2="335.1682" y2="-191.5845" gradientTransform="matrix(1 0 0 -1 0 295.72)">
					<stop  offset="0" style="stop-color:#09005D"/>
					<stop  offset="1" style="stop-color:#1A0F91"/>
				</linearGradient>
				<path class="st15" d="M271.1,382c-13,78.2,2.8,193.3,8.1,215.8c0.3,1.4,1.4,2.4,2.8,2.7c2.4,0.4,6.3,0.7,10.1-0.4
					c1.3-0.4,2.3-1.6,2.3-3c0.7-18.2-0.6-130,11.5-174.2c0.6-2.2,2-4.2,3.9-5.5l23.4-16.7l1.8-26.9L271.1,382z"/>
				<g>
					
						<linearGradient id="SVGID_14_" gradientUnits="userSpaceOnUse" x1="442.4781" y1="162.6297" x2="309.6496" y2="-9.8748" gradientTransform="matrix(1 0 0 -1 0 295.72)">
						<stop  offset="0" style="stop-color:#FF928E"/>
						<stop  offset="1" style="stop-color:#FE7062"/>
					</linearGradient>
					<path class="st16" d="M353.7,233.8C314.8,233.1,272,244,272,244c-11.6,67.6-2,145.4-2,145.4c30.1,7.9,64-4.8,64-4.8
						c5-28.2,28.3-107.7,28.3-107.7c19-2.3,34.6-7.8,47.5-15.1c-9.8-11.4-14.4-25.9-16.5-34.4C379.5,231.7,365.7,234,353.7,233.8z"
						/>
					
						<linearGradient id="SVGID_15_" gradientUnits="userSpaceOnUse" x1="393.2457" y1="77.9714" x2="468.3731" y2="77.9714" gradientTransform="matrix(1 0 0 -1 0 295.72)">
						<stop  offset="0" style="stop-color:#FEBBBA"/>
						<stop  offset="1" style="stop-color:#FF928E"/>
					</linearGradient>
					<path class="st17" d="M468.4,176.6c-3.8-4.6-8.7-2.4-8.7-2.4c-5.7,24.1-35.7,43.7-66.5,53.3c2,8.6,6.6,23.1,16.5,34.4
						C460.8,233.1,468.4,176.6,468.4,176.6z"/>
				</g>
				<g>
					
						<linearGradient id="SVGID_16_" gradientUnits="userSpaceOnUse" x1="10344.1348" y1="90.5777" x2="10394.5332" y2="-24.0909" gradientTransform="matrix(-1 0 0 -1 10795.7783 295.72)">
						<stop  offset="0" style="stop-color:#FEBBBA"/>
						<stop  offset="1" style="stop-color:#FF928E"/>
					</linearGradient>
					<path class="st18" d="M467.4,177.8c0.4,1.3-4.2,3.2-7-2c-0.1-2.5-1.6-13.1-0.1-15.2c7.9-10.8,23.3-24.3,23.3-24.3
						c2.6,2.5,0.5,5.1,0.5,5.1l-7.4,7.8c1.5,2.8,3.5,5.2,4.4,8.6c0.7,2.6,0.3,5.3-1,7.7c-1.3,2.3-3.1,5.4-4.8,7.8
						C472,177.7,467.4,177.8,467.4,177.8z"/>
					
						<linearGradient id="SVGID_17_" gradientUnits="userSpaceOnUse" x1="468.0397" y1="128.7519" x2="489.069" y2="161.0845" gradientTransform="matrix(1 0 0 -1 0 295.72)">
						<stop  offset="0" style="stop-color:#FEBBBA"/>
						<stop  offset="1" style="stop-color:#FF928E"/>
					</linearGradient>
					<path class="st19" d="M473.4,154.1l-6.8,5.7l-2.1,5.7l6.1,6.7c0,0,2-11.4,3.6-13.8C475.6,156,474.8,154.8,473.4,154.1z"/>
				</g>
				
					<linearGradient id="SVGID_18_" gradientUnits="userSpaceOnUse" x1="400.4693" y1="194.9762" x2="267.6408" y2="22.4718" gradientTransform="matrix(1 0 0 -1 0 295.72)">
					<stop  offset="0" style="stop-color:#FF928E"/>
					<stop  offset="1" style="stop-color:#FE7062"/>
				</linearGradient>
				<path class="st20" d="M286.9,281.6L272,244c0,0-36.3,24.6-42.2,55.9c6.9,0.5,19.3,2.3,31.5,8.4
					C264,293.5,286.9,281.6,286.9,281.6z"/>
				
					<linearGradient id="SVGID_19_" gradientUnits="userSpaceOnUse" x1="228.9237" y1="-28.4295" x2="323.9648" y2="-28.4295" gradientTransform="matrix(1 0 0 -1 0 295.72)">
					<stop  offset="0" style="stop-color:#FEBBBA"/>
					<stop  offset="1" style="stop-color:#FF928E"/>
				</linearGradient>
				<path class="st21" d="M318.6,317c0,0-40.7,23-54.5,3.4c-2.9-4.1-3.5-8.1-2.8-12c-12.2-6.2-24.7-8-31.5-8.4
					c-1.8,9.4-0.8,19.4,4.7,29.6c24.1,44,89.5-2.4,89.5-2.4L318.6,317z"/>
				<g>
					
						<linearGradient id="SVGID_20_" gradientUnits="userSpaceOnUse" x1="352.7321" y1="39.1738" x2="404.996" y2="-178.5929" gradientTransform="matrix(1 0 0 -1 0 295.72)">
						<stop  offset="0" style="stop-color:#09005D"/>
						<stop  offset="1" style="stop-color:#1A0F91"/>
					</linearGradient>
					<path class="st22" d="M313.7,346.1l22.2-77.6c0.3-0.9,1-1.5,1.9-1.6c4-0.5,15.7-1.8,29.2-2.9c16.2-1.4,35.1-2.5,46.3-1.5
						c1.6,0.1,2.6,1.8,1.9,3.3c-6.4,13-32.7,65.6-45.9,82.9c-0.4,0.6-1.1,0.9-1.8,0.9l-51.6-0.5
						C314.4,348.9,313.3,347.5,313.7,346.1z"/>
					
						<linearGradient id="SVGID_21_" gradientUnits="userSpaceOnUse" x1="392.7166" y1="62.2711" x2="356.7589" y2="3.8397" gradientTransform="matrix(1 0 0 -1 0 295.72)">
						<stop  offset="0" style="stop-color:#4F52FF"/>
						<stop  offset="1" style="stop-color:#4042E2"/>
					</linearGradient>
					<path class="st23" d="M369.3,257.2l16.1-2.7c0.8-0.2,1.6,0.7,1.3,1.5l-1.6,4.8c-0.1,0.4-0.5,0.7-1,0.8l-15.5,2.1
						c-0.8,0.1-1.5-0.6-1.3-1.4l1-4.2C368.5,257.6,368.9,257.2,369.3,257.2z"/>
					
						<linearGradient id="SVGID_22_" gradientUnits="userSpaceOnUse" x1="403.2262" y1="74.0593" x2="367.2683" y2="15.6278" gradientTransform="matrix(1 0 0 -1 0 295.72)">
						<stop  offset="0" style="stop-color:#4F52FF"/>
						<stop  offset="1" style="stop-color:#4042E2"/>
					</linearGradient>
					<path class="st24" d="M357.2,270.8l1.3-6.9c0.1-0.7,0.7-1.2,1.4-1.3l32.6-3.3c1.1-0.1,2,0.9,1.7,2l-2.1,8.6
						c-0.2,0.7-0.8,1.2-1.5,1.2l-31.8,1.6C357.9,272.8,357,271.8,357.2,270.8z"/>
					
						<linearGradient id="SVGID_23_" gradientUnits="userSpaceOnUse" x1="316.9251" y1="-18.4272" x2="346.5519" y2="-18.4272" gradientTransform="matrix(1 0 0 -1 0 295.72)">
						<stop  offset="0" style="stop-color:#FEBBBA"/>
						<stop  offset="1" style="stop-color:#FF928E"/>
					</linearGradient>
					<path class="st25" d="M319.1,327.3c0,0-3.1-12.7-1.9-17.3c1.2-4.5,3.7-10.3,11.7-9c8.1,1.3,17.6,4.7,17.6,4.7s-0.5,5.9-6.6,4
						l3.8,2.9c0,0-0.5,4.7-5.7,2.2l3.5,3.9c0,0-2.2,3.9-6,1.4C331.7,317.7,329.9,328.9,319.1,327.3z"/>
				</g>
				
					<linearGradient id="SVGID_24_" gradientUnits="userSpaceOnUse" x1="289.7261" y1="12.1771" x2="326.8145" y2="81.179" gradientTransform="matrix(1 0 0 -1 0 295.72)">
					<stop  offset="0" style="stop-color:#FEBBBA"/>
					<stop  offset="1" style="stop-color:#FF928E"/>
				</linearGradient>
				<path class="st26" d="M314.3,202.2L302,238c-0.2,0.6,0.1,1.2,0.6,1.5c3.4,1.9,15.5,7.2,30.1-2c1.5-1,2.5-2.5,2.8-4.3l4-30.9
					L314.3,202.2L314.3,202.2z"/>
				<g>
					
						<linearGradient id="SVGID_25_" gradientUnits="userSpaceOnUse" x1="429.6859" y1="1518.7352" x2="379.3662" y2="1452.1664" gradientTransform="matrix(0.6854 -0.7281 -0.7281 -0.6854 1138.8018 1524.7939)">
						<stop  offset="0" style="stop-color:#FEBBBA"/>
						<stop  offset="1" style="stop-color:#FF928E"/>
					</linearGradient>
					<path class="st27" d="M334.1,163.6c0.5,0.5,20.4,39.5,20.4,39.5L331.9,214l-24.4-34.3C307.5,179.8,326,156,334.1,163.6z"/>
					
						<linearGradient id="SVGID_26_" gradientUnits="userSpaceOnUse" x1="391.2134" y1="1502.761" x2="451.3422" y2="1502.761" gradientTransform="matrix(0.6854 -0.7281 -0.7281 -0.6854 1138.8018 1524.7939)">
						<stop  offset="0" style="stop-color:#09005D"/>
						<stop  offset="1" style="stop-color:#1A0F91"/>
					</linearGradient>
					<path class="st28" d="M317.5,180.7c-0.4,1-0.3,2.2,0.3,3.2l11.3,18.7c0.2,0.3,0.4,0.5,0.6,0.8c1.3,1.2,5.9,4.9,9.5-0.1
						c3-4.2,5.8-8,8.9-9.6c1.8-0.9,4-0.2,4.8,1.6c1.9,3.7,5.4,11.2,7.7,18.3c0.6,1.8-0.4,3.7-2.1,4.4c-4.6,1.9-13.6,5.2-21.6,6.3
						c-1.3,0.2-2.6-0.4-3.4-1.4c-3.5-4.7-13.2-17.9-16.5-21.2c-3.1-3.1-8.8-1.9-11.3-1.2c-1,0.3-2,0.2-2.9-0.4
						c-2.6-1.6-7.1-5.5-3-12.1c1-1.6,0.5-3.8-1.1-4.9c-2.9-1.9-6.1-5.5-3-11.3c3-5.9,8.4-6.4,12.2-5.9c1.6,0.2,3.3-0.7,3.9-2.2
						c0.3-0.7,0.8-1.3,1.9-1.5c1.9-0.4,3.2-2.2,2.8-4.1c-0.6-3.3-0.2-7.6,5.2-10.6c9.7-5.4,18.3,3.4,20.4,10.7
						c2.2,7.4-8.7,12.6-15.6,13.4C321.4,172.4,318.6,177.9,317.5,180.7z"/>
					
						<linearGradient id="SVGID_27_" gradientUnits="userSpaceOnUse" x1="295.3343" y1="77.9832" x2="337.5979" y2="109.8965" gradientTransform="matrix(1 0 0 -1 0 295.72)">
						<stop  offset="0" style="stop-color:#FEBBBA"/>
						<stop  offset="1" style="stop-color:#FF928E"/>
					</linearGradient>
					<path class="st29" d="M321.2,208.5c0,0-4.3-12.7-9.9-12.2c-5.5,0.5-9.9,6-3,12.2C316.9,216.2,321.2,208.5,321.2,208.5z"/>
				</g>
			</g>
			<g>
				
					<linearGradient id="SVGID_28_" gradientUnits="userSpaceOnUse" x1="-5356.8125" y1="148.5363" x2="-5326.8784" y2="73.4467" gradientTransform="matrix(-1 0 0 -1 -5129.0288 295.72)">
					<stop  offset="0" style="stop-color:#09005D"/>
					<stop  offset="1" style="stop-color:#1A0F91"/>
				</linearGradient>
				<path class="st30" d="M210.1,187.6c0,0-10.1,4.9-12,10.6c-1.5,4.5-12.6,5.1-13.8,14c-0.6,4.6-4,8.3-8.6,9
					c-11.4,1.8-28.9,7.7-31.8,27.5c-2.1,15.1,5.6,20.8,13.6,22.8c5.9,1.5,9.9,7.2,8.7,13.2c-1.2,5.7,0.6,12.4,10.5,17.6
					c22.3,11.8,44.6-27.9,44.6-27.9l4.6-69.3L210.1,187.6z"/>
				
					<linearGradient id="SVGID_29_" gradientUnits="userSpaceOnUse" x1="-4495.6006" y1="1294.0428" x2="-4443.4712" y2="1408.7275" gradientTransform="matrix(-1 0 0 -1 -5129.0288 295.72)">
					<stop  offset="0" style="stop-color:#09005D"/>
					<stop  offset="1" style="stop-color:#1A0F91"/>
				</linearGradient>
				<path class="st31" d="M118.4,621.8l-1.4,11.9c-0.3,2.2-2,4-4.3,4.3c-3.8,0.4-9.9,0.9-15.9,0.3c-2.6-0.3-4.3-2.9-3.5-5.4
					c1.5-4.6,4.1-11.5,8-15.5h13.2C116.8,617.3,118.6,619.4,118.4,621.8z"/>
				
					<linearGradient id="SVGID_30_" gradientUnits="userSpaceOnUse" x1="-5354.6768" y1="-432.3006" x2="-5318.1484" y2="-5.3774" gradientTransform="matrix(-1 0 0 -1 -5129.0288 295.72)">
					<stop  offset="0" style="stop-color:#FEBBBA"/>
					<stop  offset="1" style="stop-color:#FF928E"/>
				</linearGradient>
				<path class="st32" d="M221.5,482.8l2.2,13.1c0,0-7.4,75.4-8.8,105.5c-0.2,4.7,1,9.4,3.5,13.4l12.9,21l-32.9-19.4l-0.6-4l5.4-7.4
					l-7.1-84.5c-0.4-5,0.6-9.9,2.9-14.3l6.8-12.8L221.5,482.8z"/>
				
					<linearGradient id="SVGID_31_" gradientUnits="userSpaceOnUse" x1="-4584.6138" y1="1334.5024" x2="-4532.4912" y2="1449.1716" gradientTransform="matrix(-1 0 0 -1 -5129.0288 295.72)">
					<stop  offset="0" style="stop-color:#09005D"/>
					<stop  offset="1" style="stop-color:#1A0F91"/>
				</linearGradient>
				<path class="st33" d="M233.5,638.9H223c-2,0-3.8-0.9-5-2.4c-3.3-4.2-10-12.5-13.3-12.8c-4.4-0.3-3.8,15.2-3.8,15.2h-2.4
					l-3.1-19.3c-0.8-4.8,1.6-9.7,6-11.9l0,0c0,0,1,7.4,6.4,10.6s22,14.9,22,14.9s2-0.3,4.3,0.1C237.4,634,236.9,638.9,233.5,638.9z"
					/>
				
					<linearGradient id="SVGID_32_" gradientUnits="userSpaceOnUse" x1="-5281.2021" y1="-438.6525" x2="-5244.6646" y2="-11.6173" gradientTransform="matrix(-1 0 0 -1 -5129.0288 295.72)">
					<stop  offset="0" style="stop-color:#FEBBBA"/>
					<stop  offset="1" style="stop-color:#FF928E"/>
				</linearGradient>
				<path class="st34" d="M176.4,489c0,0-43.6,82.7-50.5,101.6s-9.3,34.6-9.5,36.1c-0.2,2.3-3,4.6-11,4.6c-4.1,0-6.2-1.6-7.1-3.2
					c-0.8-1.4-0.9-3.1-0.2-4.5c2.5-5.1,10.5-21.4,13.5-28.8c3.5-8.8,11.2-48.9,15.3-62.8s8.9-29,27.1-42.9
					C154,489,166.5,476.8,176.4,489z"/>
				
					<linearGradient id="SVGID_33_" gradientUnits="userSpaceOnUse" x1="175.0204" y1="-50.0363" x2="250.9221" y2="3.4399" gradientTransform="matrix(1 0 0 -1 0 295.72)">
					<stop  offset="0" style="stop-color:#09005D"/>
					<stop  offset="1" style="stop-color:#1A0F91"/>
				</linearGradient>
				<path class="st35" d="M204,353.5c11.3-47.6-17.3-74.6-17.3-74.6c18-17.3,50.7-25.1,50.7-25.1s31.2,22.8,27.6,40.7
					c-2.2,10.5-22,62.8-22,62.8S224.7,366,204,353.5z"/>
				
					<linearGradient id="SVGID_34_" gradientUnits="userSpaceOnUse" x1="380.2257" y1="43.0975" x2="235.3221" y2="-104.3936" gradientTransform="matrix(1 0 0 -1 0 295.72)">
					<stop  offset="0" style="stop-color:#FF928E"/>
					<stop  offset="1" style="stop-color:#FE7062"/>
				</linearGradient>
				<path class="st36" d="M179,377.1c4.6-13.8,24.9-23.6,24.9-23.6c20.8,12.5,39.1,3.8,39.1,3.8s4.1,15.7,1.3,30.3
					c-2.8,14.6-20.6,108.3-20.6,108.3c-28,5.7-71.1-5.7-71.1-5.7C170.4,458.5,174.5,390.9,179,377.1z"/>
				
					<linearGradient id="SVGID_35_" gradientUnits="userSpaceOnUse" x1="219.3141" y1="16.0111" x2="222.7642" y2="77.25" gradientTransform="matrix(1 0 0 -1 0 295.72)">
					<stop  offset="0" style="stop-color:#FEBBBA"/>
					<stop  offset="1" style="stop-color:#FF928E"/>
				</linearGradient>
				<path class="st37" d="M217,222.3l-9.1,41.1c-0.9,3.6,2.4,3,6.1,2.3c6-1.1,13.7-3.5,16.3-8.1c0.3-0.5,0.4-1,0.5-1.5l3.9-28.5
					c0.3-2.3-0.9-4.5-3-5.4l-7.6-3.4C221.2,217.5,217.8,219.2,217,222.3z"/>
				
					<linearGradient id="SVGID_36_" gradientUnits="userSpaceOnUse" x1="-5330.3818" y1="-35.9549" x2="-5284.7974" y2="-35.9549" gradientTransform="matrix(-1 0 0 -1 -5129.0288 295.72)">
					<stop  offset="0" style="stop-color:#FEBBBA"/>
					<stop  offset="1" style="stop-color:#FF928E"/>
				</linearGradient>
				<path class="st38" d="M186.7,278.9c0,0-63.8,45.7-8.2,93.6c0,0,2.1,2.4,6.3,3.7c2.1,0.6,8.3,5.4,11.5,7.8c1,0.8,2.5,0.5,3.2-0.6
					l0,0c0.5-0.8,0.6-1.9,0.2-2.8l-7.9-16.7c-2.2-2-5.6-2.2-7.9-0.3l0,0c-1.5,1.2-3.7,0.7-4.6-1c-4.3-8.8-12.4-34.5,20.8-63.7
					c1.3-1.1,1.6-2.9,0.8-4.4C198.6,290,193.3,281.1,186.7,278.9z"/>
				<g>
					
						<linearGradient id="SVGID_37_" gradientUnits="userSpaceOnUse" x1="-5184.127" y1="996.712" x2="-5124.2559" y2="1103.2625" gradientTransform="matrix(-0.9809 -0.1943 0.1943 -0.9809 -5036.9136 217.1495)">
						<stop  offset="0" style="stop-color:#FEBBBA"/>
						<stop  offset="1" style="stop-color:#FF928E"/>
					</linearGradient>
					<path class="st39" d="M234.5,184.9c0,0,9.7,6.6,13.9,23.4s-2.6,22.8-9.6,22.4c-7-0.4-17.1-2.5-25.8-14.6
						C204.3,204,221.8,176.8,234.5,184.9z"/>
					
						<linearGradient id="SVGID_38_" gradientUnits="userSpaceOnUse" x1="-5171.269" y1="1089.4965" x2="-5141.3335" y2="1014.4037" gradientTransform="matrix(-0.9809 -0.1943 0.1943 -0.9809 -5036.9136 217.1495)">
						<stop  offset="0" style="stop-color:#09005D"/>
						<stop  offset="1" style="stop-color:#1A0F91"/>
					</linearGradient>
					<path class="st40" d="M221.9,209.3c0,0-3.6-24.1,16.4-20.4l4,4.2c0,0,9.8-11-1-19.3c-10.8-8.3-25.8-6.2-34.1,9
						c-8.3,15.1-11.3,25.8-4.4,35.2c7,9.4,12.2,1.3,12.2,1.3s-3.2-8.1-0.5-11.6c2.7-3.5,6.1,2,6.1,2L221.9,209.3z"/>
					
						<linearGradient id="SVGID_39_" gradientUnits="userSpaceOnUse" x1="-5171.3784" y1="989.5474" x2="-5111.5073" y2="1096.0984" gradientTransform="matrix(-0.9809 -0.1943 0.1943 -0.9809 -5036.9136 217.1495)">
						<stop  offset="0" style="stop-color:#FEBBBA"/>
						<stop  offset="1" style="stop-color:#FF928E"/>
					</linearGradient>
					<path class="st41" d="M219.1,211.4c0,0-1.8-12.4-8.1-8.8c-6.3,3.5,2.3,11.6,5.7,14.3L219.1,211.4z"/>
				</g>
			</g>
			<g>
				<path class="st4" d="M364.6,65.3c15.6-41.3,100.7-47.9,112,12.8c10.3,55.2-101.7,73.1-101.7,73.1
					C433.6,120.4,348.9,106.6,364.6,65.3z"/>
				<g>
					<path class="st9" d="M459.9,74.6l-50.7-0.5c-0.4,0-0.7-0.3-0.7-0.7c0-0.4,0.3-0.7,0.7-0.7l50.7,0.5c0.4,0,0.7,0.3,0.7,0.7
						C460.6,74.3,460.3,74.6,459.9,74.6z"/>
					<path class="st9" d="M394.2,73.9l-15-0.2c-0.4,0-0.7-0.3-0.7-0.7c0-0.4,0.3-0.7,0.7-0.7l15,0.2c0.4,0,0.7,0.3,0.7,0.7
						C394.8,73.6,394.6,73.9,394.2,73.9z"/>
					<path class="st9" d="M461.5,84.9l-19-0.2c-0.4,0-0.7-0.3-0.7-0.7c0-0.4,0.3-0.7,0.7-0.7l19,0.2c0.4,0,0.7,0.3,0.7,0.7
						C462.2,84.6,461.9,84.9,461.5,84.9z"/>
					<path class="st9" d="M414.5,84.4L380.7,84c-0.4,0-0.7-0.3-0.7-0.7c0-0.4,0.3-0.7,0.7-0.7l33.8,0.4c0.4,0,0.7,0.3,0.7,0.7
						C415.2,84.1,414.9,84.4,414.5,84.4z"/>
					<path class="st9" d="M463.1,95.2l-50.6-0.5c-0.4,0-0.7-0.3-0.7-0.7c0-0.4,0.3-0.7,0.7-0.7l50.6,0.5c0.4,0,0.7,0.3,0.7,0.7
						C463.8,94.9,463.5,95.2,463.1,95.2z"/>
					<path class="st9" d="M399.8,94.5l-17.5-0.2c-0.4,0-0.7-0.3-0.7-0.7c0-0.4,0.3-0.7,0.7-0.7l17.5,0.2c0.4,0,0.7,0.3,0.7,0.7
						C400.5,94.2,400.2,94.5,399.8,94.5z"/>
				</g>
			</g>
			<g>
				<g>
					
						<linearGradient id="SVGID_40_" gradientUnits="userSpaceOnUse" x1="527.0899" y1="-195.6956" x2="628.9634" y2="-77.4496" gradientTransform="matrix(1 0 0 -1 0 295.72)">
						<stop  offset="0" style="stop-color:#E1473D"/>
						<stop  offset="1" style="stop-color:#E9605A"/>
					</linearGradient>
					<circle class="st42" cx="631" cy="370.8" r="76"/>
					
						<linearGradient id="SVGID_41_" gradientUnits="userSpaceOnUse" x1="660.2474" y1="18.1946" x2="605.9086" y2="-155.172" gradientTransform="matrix(1 0 0 -1 0 295.72)">
						<stop  offset="0" style="stop-color:#FF928E"/>
						<stop  offset="1" style="stop-color:#FE7062"/>
					</linearGradient>
					<circle class="st43" cx="631" cy="370.8" r="73.4"/>
					<path class="st44" d="M570.5,342c-0.3,0-0.5-0.1-0.7-0.2c-0.8-0.4-1.2-1.4-0.7-2.3c11.9-23.6,35.7-38.2,62-38.2
						c4.2,0,8.4,0.4,12.5,1.1c0.9,0.2,1.5,1.1,1.4,2c-0.2,0.9-1.1,1.5-2,1.4c-3.9-0.7-7.9-1.1-11.9-1.1c-25.1,0-47.7,13.9-59,36.4
						C571.7,341.6,571.1,342,570.5,342z"/>
					<ellipse class="st44" cx="632.6" cy="372.4" rx="62.1" ry="62.1"/>
					<g>
						
							<linearGradient id="SVGID_42_" gradientUnits="userSpaceOnUse" x1="697.5849" y1="119.1023" x2="600.5559" y2="-178.4528" gradientTransform="matrix(1 0 0 -1 0 295.72)">
							<stop  offset="0" style="stop-color:#FF928E"/>
							<stop  offset="1" style="stop-color:#FE7062"/>
						</linearGradient>
						<path class="st45" d="M626.5,418.6v-6.8c-7.1-0.3-14-2-19-4.1c-1.8-0.8-2.7-2.8-2.2-4.6l1.7-6.3c0.6-2.3,3.1-3.5,5.4-2.6
							c4.9,2.1,11,3.7,17.5,3.7c6.8,0,11.8-2.3,11.8-7c0-4.2-3.9-6.8-13.3-9.3c-13.5-3.7-23.1-9.6-23.1-21.4
							c0-10.7,7.8-18.9,21.4-21.1v-6.8c0-2.2,1.8-3.9,3.9-3.9h4c2.2,0,3.9,1.8,3.9,3.9v6.1c6.5,0.3,11.3,1.4,15,2.7
							c1.9,0.7,3,2.8,2.4,4.7l-1.6,5.8c-0.6,2.2-3,3.5-5.2,2.7c-3.5-1.3-8.4-2.7-14.8-2.7c-8.1,0-10.4,3.3-10.4,6.3
							c0,3.7,4.8,6.2,15.3,9.4c15,4.5,21.2,10.7,21.2,21.9c0,10.3-7.6,19.4-22.3,21.7v7.6c0,2.2-1.8,3.9-3.9,3.9h-4
							C628.3,422.5,626.5,420.8,626.5,418.6z"/>
					</g>
				</g>
				
					<linearGradient id="SVGID_43_" gradientUnits="userSpaceOnUse" x1="652.9084" y1="-110.619" x2="583.7003" y2="-345.4006" gradientTransform="matrix(1 0 0 -1 0 295.72)">
					<stop  offset="0" style="stop-color:#FF928E"/>
					<stop  offset="1" style="stop-color:#FE7062"/>
				</linearGradient>
				<path class="st46" d="M704.5,494.8h-147c-0.5,0-0.9-0.4-0.9-0.9v-26.5c0-0.5,0.4-0.9,0.9-0.9h147c0.5,0,0.9,0.4,0.9,0.9v26.5
					C705.4,494.4,705,494.8,704.5,494.8z"/>
				
					<linearGradient id="SVGID_44_" gradientUnits="userSpaceOnUse" x1="662.28" y1="-112.8542" x2="593.0719" y2="-347.6356" gradientTransform="matrix(1 0 0 -1 0 295.72)">
					<stop  offset="0" style="stop-color:#FF928E"/>
					<stop  offset="1" style="stop-color:#FE7062"/>
				</linearGradient>
				<path class="st47" d="M704.6,528.4h-147c-0.5,0-0.9-0.4-0.9-0.9V501c0-0.5,0.4-0.9,0.9-0.9h147c0.5,0,0.9,0.4,0.9,0.9v26.5
					C705.6,528,705.1,528.4,704.6,528.4z"/>
				
					<linearGradient id="SVGID_45_" gradientUnits="userSpaceOnUse" x1="671.6667" y1="-115.0934" x2="602.4586" y2="-349.8747" gradientTransform="matrix(1 0 0 -1 0 295.72)">
					<stop  offset="0" style="stop-color:#FF928E"/>
					<stop  offset="1" style="stop-color:#FE7062"/>
				</linearGradient>
				<path class="st48" d="M704.7,562.1h-147c-0.5,0-0.9-0.4-0.9-0.9v-26.5c0-0.5,0.4-0.9,0.9-0.9h147c0.5,0,0.9,0.4,0.9,0.9v26.5
					C705.7,561.7,705.2,562.1,704.7,562.1z"/>
				
					<linearGradient id="SVGID_46_" gradientUnits="userSpaceOnUse" x1="681.0394" y1="-117.329" x2="611.8312" y2="-352.1105" gradientTransform="matrix(1 0 0 -1 0 295.72)">
					<stop  offset="0" style="stop-color:#FF928E"/>
					<stop  offset="1" style="stop-color:#FE7062"/>
				</linearGradient>
				<path class="st49" d="M704.8,595.8h-147c-0.5,0-0.9-0.4-0.9-0.9v-26.5c0-0.5,0.4-0.9,0.9-0.9h147c0.5,0,0.9,0.4,0.9,0.9v26.5
					C705.8,595.3,705.4,595.8,704.8,595.8z"/>
				
					<linearGradient id="SVGID_47_" gradientUnits="userSpaceOnUse" x1="690.4248" y1="-119.5686" x2="621.2167" y2="-354.3499" gradientTransform="matrix(1 0 0 -1 0 295.72)">
					<stop  offset="0" style="stop-color:#FF928E"/>
					<stop  offset="1" style="stop-color:#FE7062"/>
				</linearGradient>
				<path class="st50" d="M705,629.4H558c-0.5,0-0.9-0.4-0.9-0.9V602c0-0.5,0.4-0.9,0.9-0.9h147c0.5,0,0.9,0.4,0.9,0.9v26.5
					C705.9,629,705.5,629.4,705,629.4z"/>
			</g>
			<g>
				<g>
					
						<linearGradient id="SVGID_48_" gradientUnits="userSpaceOnUse" x1="360.5636" y1="-269.1166" x2="462.4371" y2="-150.8706" gradientTransform="matrix(1 0 0 -1 0 295.72)">
						<stop  offset="0" style="stop-color:#E1473D"/>
						<stop  offset="1" style="stop-color:#E9605A"/>
					</linearGradient>
					<circle class="st51" cx="464.5" cy="444.2" r="76"/>
					
						<linearGradient id="SVGID_49_" gradientUnits="userSpaceOnUse" x1="516.2709" y1="-20.3352" x2="430.8811" y2="-231.6537" gradientTransform="matrix(1 0 0 -1 0 295.72)">
						<stop  offset="0" style="stop-color:#FF928E"/>
						<stop  offset="1" style="stop-color:#FE7062"/>
					</linearGradient>
					<circle class="st52" cx="464.5" cy="444.2" r="73.4"/>
					<path class="st44" d="M404,415.4c-0.3,0-0.5-0.1-0.7-0.2c-0.8-0.4-1.2-1.4-0.7-2.3c11.9-23.6,35.7-38.2,62-38.2
						c4.2,0,8.4,0.4,12.5,1.1c0.9,0.2,1.5,1.1,1.4,2c-0.2,0.9-1.1,1.5-2,1.4c-3.9-0.7-7.9-1.1-11.9-1.1c-25.1,0-47.7,13.9-59,36.3
						C405.1,415.1,404.6,415.4,404,415.4z"/>
					<ellipse class="st44" cx="466.1" cy="445.8" rx="62.1" ry="62.1"/>
					<g>
						
							<linearGradient id="SVGID_50_" gradientUnits="userSpaceOnUse" x1="543.6912" y1="57.1777" x2="435.0185" y2="-237.7904" gradientTransform="matrix(1 0 0 -1 0 295.72)">
							<stop  offset="0" style="stop-color:#FF928E"/>
							<stop  offset="1" style="stop-color:#FE7062"/>
						</linearGradient>
						<path class="st53" d="M460,492v-6.8c-7.1-0.3-14-2-19-4.1c-1.8-0.8-2.7-2.8-2.2-4.6l1.7-6.3c0.6-2.3,3.1-3.5,5.4-2.6
							c4.9,2.1,11,3.7,17.5,3.7c6.8,0,11.8-2.3,11.8-7c0-4.2-3.9-6.8-13.3-9.3c-13.5-3.7-23.1-9.6-23.1-21.4
							c0-10.7,7.8-18.9,21.4-21.1v-6.8c0-2.2,1.8-3.9,3.9-3.9h4c2.2,0,3.9,1.8,3.9,3.9v6.1c6.5,0.3,11.3,1.4,15,2.7
							c1.9,0.7,3,2.8,2.4,4.7L488,425c-0.6,2.2-3,3.5-5.2,2.7c-3.5-1.3-8.4-2.7-14.8-2.7c-8.1,0-10.4,3.3-10.4,6.3
							c0,3.7,4.8,6.2,15.3,9.4c15,4.5,21.2,10.7,21.2,21.9c0,10.3-7.6,19.4-22.3,21.7v7.6c0,2.2-1.8,3.9-3.9,3.9h-4
							C461.8,495.9,460,494.2,460,492z"/>
					</g>
				</g>
				
					<linearGradient id="SVGID_51_" gradientUnits="userSpaceOnUse" x1="489.4717" y1="-150.6182" x2="449.2531" y2="-359.5806" gradientTransform="matrix(1 0 0 -1 0 295.72)">
					<stop  offset="0" style="stop-color:#FF928E"/>
					<stop  offset="1" style="stop-color:#FE7062"/>
				</linearGradient>
				<path class="st54" d="M543.4,562.1h-147c-0.5,0-0.9-0.4-0.9-0.9v-26.5c0-0.5,0.4-0.9,0.9-0.9h147c0.5,0,0.9,0.4,0.9,0.9v26.5
					C544.3,561.7,543.9,562.1,543.4,562.1z"/>
				
					<linearGradient id="SVGID_52_" gradientUnits="userSpaceOnUse" x1="495.9039" y1="-151.3959" x2="455.6852" y2="-360.3584" gradientTransform="matrix(1 0 0 -1 0 295.72)">
					<stop  offset="0" style="stop-color:#FF928E"/>
					<stop  offset="1" style="stop-color:#FE7062"/>
				</linearGradient>
				<path class="st55" d="M543.5,595.8h-147c-0.5,0-0.9-0.4-0.9-0.9v-26.5c0-0.5,0.4-0.9,0.9-0.9h147c0.5,0,0.9,0.4,0.9,0.9v26.5
					C544.4,595.3,544,595.8,543.5,595.8z"/>
				
					<linearGradient id="SVGID_53_" gradientUnits="userSpaceOnUse" x1="502.3609" y1="-152.1783" x2="462.1422" y2="-361.1409" gradientTransform="matrix(1 0 0 -1 0 295.72)">
					<stop  offset="0" style="stop-color:#FF928E"/>
					<stop  offset="1" style="stop-color:#FE7062"/>
				</linearGradient>
				<path class="st56" d="M543.6,629.4h-147c-0.5,0-0.9-0.4-0.9-0.9V602c0-0.5,0.4-0.9,0.9-0.9h147c0.5,0,0.9,0.4,0.9,0.9v26.5
					C544.6,629,544.1,629.4,543.6,629.4z"/>
			</g>
		</g>
	</g>
</g>
</svg>
