<svg width="178" height="219" viewBox="0 0 178 219" fill="none" xmlns="http://www.w3.org/2000/svg">
<path d="M1.01477 218.796H177.452L151.714 42.2578H26.7321L1.01477 218.796Z" fill="#FFC727"/>
<path opacity="0.1" d="M26.7321 42.2578L46.3339 218.796H0.994507L26.7321 42.2578Z" fill="#263238"/>
<path d="M115.609 54.6101C115.609 54.4683 112.389 39.6657 108.967 24.7415C106.132 12.2676 93.5364 6.51672 83.0064 8.21771C79.2805 8.80495 67.2723 11.9234 68.8315 27.1715C70.6338 44.7079 72.0108 53.1724 72.031 53.2534L64.5993 54.4481C64.5993 54.1038 63.1818 45.7002 61.3593 27.9006C59.9216 13.7257 67.9405 3.13498 81.8319 0.927747C95.7233 -1.27949 112.51 6.41546 116.257 23.2026C119.679 38.1875 122.878 53.0306 122.919 53.1723L115.609 54.6101Z" fill="#455A64"/>
<path d="M43.9445 217.459C39.8945 215.637 35.9863 213.592 32.0578 211.567C28.1293 209.542 24.2819 207.375 20.4546 205.168H21.4671C18.4499 207.314 15.3922 209.461 12.3142 211.486C9.23621 213.511 6.11774 215.536 2.89801 217.459C5.69249 215.009 8.58823 212.701 11.5042 210.412C14.4202 208.124 17.3767 205.897 20.3736 203.689L20.8394 203.345L21.3861 203.649C25.2336 205.795 29.0406 208.016 32.807 210.311C36.5735 212.599 40.3197 214.908 43.9445 217.459Z" fill="white"/>
<path d="M20.9203 204.398C20.9203 193.099 21.1229 181.82 21.3658 170.561C21.6088 159.302 22.0138 148.002 22.3176 136.743C22.6213 125.485 23.1681 114.205 23.6946 102.926L24.5451 86.0378C24.9096 80.4083 25.1931 74.7789 25.5981 69.1494C25.5981 74.7789 25.5981 80.4286 25.4766 86.0581L25.1526 102.987C24.9096 114.246 24.5046 125.525 24.2008 136.804C23.8971 148.083 23.3503 159.342 22.8036 170.601C22.2568 181.86 21.6898 193.139 20.9203 204.398Z" fill="white"/>
<path d="M111.781 53.8609C111.757 55.3477 112.176 56.8081 112.985 58.0561C113.793 59.3041 114.955 60.2833 116.321 60.8691C117.688 61.4548 119.198 61.6206 120.66 61.3454C122.121 61.0702 123.467 60.3664 124.527 59.3235C125.587 58.2807 126.313 56.946 126.612 55.4894C126.911 54.0328 126.77 52.5201 126.207 51.144C125.644 49.7678 124.683 48.5904 123.449 47.7616C122.214 46.9328 120.761 46.4902 119.274 46.49C118.298 46.482 117.33 46.6663 116.425 47.0324C115.521 47.3985 114.697 47.9392 114.001 48.6236C113.305 49.3081 112.751 50.1229 112.37 51.0216C111.989 51.9202 111.789 52.885 111.781 53.8609Z" fill="#263238"/>
<path d="M68.872 61.2112C73.01 61.2112 76.3645 57.9201 76.3645 53.8605C76.3645 49.8008 73.01 46.5098 68.872 46.5098C64.7341 46.5098 61.3796 49.8008 61.3796 53.8605C61.3796 57.9201 64.7341 61.2112 68.872 61.2112Z" fill="#263238"/>
</svg>
