<svg width="178" height="220" viewBox="0 0 178 220" fill="none" xmlns="http://www.w3.org/2000/svg">
<path d="M0.877892 219.164H177.315L151.577 42.626H26.5952L0.877892 219.164Z" fill="#FFC727"/>
<path opacity="0.1" d="M26.5952 42.626L46.1971 219.164H0.857635L26.5952 42.626Z" fill="#263238"/>
<path d="M115.472 54.9782C115.472 54.8365 112.252 40.0338 108.83 25.1097C105.995 12.6358 93.3995 6.88488 82.8696 8.58587C79.1436 9.17312 67.1355 12.2916 68.6947 27.5397C70.4969 45.0761 71.8739 53.5405 71.8942 53.6215L64.4625 54.8163C64.4625 54.472 63.045 46.0684 61.2225 28.2687C59.7848 14.0938 67.8037 3.50315 81.6951 1.29591C95.5865 -0.911323 112.374 6.78362 116.12 23.5707C119.542 38.5556 122.742 53.3988 122.782 53.5405L115.472 54.9782Z" fill="#455A64"/>
<path d="M43.8076 217.828C39.7577 216.005 35.8494 213.96 31.921 211.935C27.9925 209.91 24.145 207.743 20.3178 205.536H21.3303C18.3131 207.682 15.2553 209.829 12.1773 211.854C9.09937 213.879 5.9809 215.904 2.76117 217.828C5.55565 215.377 8.45139 213.069 11.3674 210.781C14.2833 208.492 17.2398 206.265 20.2368 204.058L20.7026 203.713L21.2493 204.017C25.0968 206.164 28.9037 208.384 32.6702 210.679C36.4367 212.968 40.1829 215.276 43.8076 217.828Z" fill="white"/>
<path d="M20.7835 204.766C20.7835 193.467 20.986 182.188 21.229 170.929C21.472 159.67 21.877 148.371 22.1807 137.112C22.4845 125.853 23.0312 114.573 23.5577 103.294L24.4082 86.406C24.7727 80.7765 25.0562 75.147 25.4612 69.5176C25.4612 75.147 25.4612 80.7968 25.3397 86.4262L25.0157 103.355C24.7727 114.614 24.3677 125.893 24.0639 137.172C23.7602 148.452 23.2134 159.71 22.6667 170.969C22.12 182.228 21.553 193.507 20.7835 204.766Z" fill="white"/>
<path d="M111.645 54.2291C111.62 55.7159 112.039 57.1763 112.848 58.4243C113.656 59.6723 114.818 60.6515 116.185 61.2372C117.551 61.823 119.061 61.9888 120.523 61.7136C121.984 61.4383 123.33 60.7345 124.39 59.6917C125.451 58.6488 126.176 57.3142 126.475 55.8576C126.774 54.401 126.633 52.8883 126.07 51.5121C125.507 50.136 124.547 48.9585 123.312 48.1298C122.077 47.301 120.624 46.8584 119.137 46.8582C118.161 46.8502 117.193 47.0345 116.288 47.4006C115.384 47.7667 114.56 48.3073 113.864 48.9918C113.168 49.6762 112.614 50.4911 112.233 51.3897C111.853 52.2883 111.652 53.2531 111.645 54.2291Z" fill="#263238"/>
<path d="M68.7352 61.5793C72.8731 61.5793 76.2276 58.2883 76.2276 54.2286C76.2276 50.169 72.8731 46.8779 68.7352 46.8779C64.5972 46.8779 61.2427 50.169 61.2427 54.2286C61.2427 58.2883 64.5972 61.5793 68.7352 61.5793Z" fill="#263238"/>
<path d="M94.8548 162.201C95.7378 164.364 96.9297 165.997 98.2983 167.498C101.962 171.427 106.554 173.988 111.454 175.93C118.606 178.8 126.066 180.433 133.66 181.493C134.807 181.669 135.955 181.802 137.28 181.978C137.103 183.214 136.971 184.45 136.706 185.687C136.264 187.938 135.867 190.19 135.293 192.397C133.924 197.43 130.702 199.813 125.492 199.858C119.047 199.946 112.867 198.621 106.774 196.856C97.5919 194.163 88.8951 190.41 80.8163 185.157C71.1482 178.888 65.365 170.059 63.1135 158.89C62.4072 155.402 61.9657 151.826 61.8774 148.295C61.5243 134.609 61.3035 120.924 61.0828 107.194C60.9945 100.616 61.0387 94.0386 60.9945 87.5049C60.9945 82.2073 63.1135 80.0441 68.4111 80H136.132C137.059 80 137.986 80.0441 138.869 80.1766C141.694 80.5739 143.151 82.2956 143.504 85.5183C143.548 85.9598 143.548 86.4454 143.548 86.8868C143.548 108.651 143.548 130.415 143.504 152.135C143.504 153.68 143.283 155.314 142.842 156.815C141.959 160.037 139.531 161.848 136.176 162.068C135.514 162.112 134.852 162.112 134.145 162.112H96.5324C96.0909 162.201 95.6053 162.201 94.8548 162.201Z" fill="#C4002B"/>
<path d="M71.9428 109.225C71.9869 106.267 71.7221 103.309 71.7221 100.352C71.6779 97.4821 72.6933 96.1578 75.4745 95.5838C77.8143 95.0541 80.1982 94.9658 82.5821 95.5838C85.1867 96.2902 86.0697 97.3939 86.1138 100.087C86.1138 102.691 86.3345 102.118 83.9948 102.25C83.465 102.25 82.8911 102.206 82.3172 102.25C81.3901 102.294 80.6396 102.382 80.4631 100.97C80.3306 99.9543 79.1828 100.087 78.344 100.131C77.5052 100.175 77.0638 100.617 77.0638 101.411C77.1079 103.574 77.1521 105.693 77.2404 107.857C77.2845 108.96 77.9026 109.313 79.2711 109.225C80.4189 109.137 80.7721 108.784 80.7721 107.636V106.665C82.5379 106.665 84.1272 106.665 85.7606 106.709C85.9372 106.709 86.2904 107.018 86.2904 107.194C86.2904 108.386 86.3787 109.622 86.1579 110.77C85.8489 112.359 84.6128 113.242 83.1118 113.684C80.5955 114.39 78.0791 114.434 75.5628 113.86C73.4879 113.375 71.8986 111.918 71.9428 109.225ZM82.8028 126.663C82.9794 126.663 83.2443 127.06 83.465 127.281C83.9948 130.151 82.8028 132.005 79.8892 132.402C78.2557 132.623 76.534 132.534 74.9448 132.27C72.9582 131.916 72.1635 130.68 72.1194 128.65C72.0311 126.133 71.9428 123.661 71.8986 121.145C71.8545 119.423 72.6491 118.363 74.3267 117.922C76.1809 117.436 78.1233 117.348 80.0657 117.745C82.4055 118.231 83.156 119.202 83.2001 121.63V123.087H79.0062C78.8738 122.028 78.4323 121.365 77.1962 121.498C76.3133 121.586 76.0043 122.028 76.0484 122.822C76.0926 124.279 76.1367 125.692 76.1809 127.149C76.1809 128.296 76.534 128.694 77.5494 128.694C78.5648 128.694 78.8296 128.385 78.8738 127.193C78.9179 127.06 78.9179 126.972 79.0062 126.619C80.2423 126.619 81.5226 126.619 82.8028 126.663ZM123.109 93.818C122.49 93.9063 122.226 93.6856 122.093 93.0675C121.828 92.008 121.519 90.9926 121.21 89.7565C123.462 89.4916 125.581 89.1826 127.7 88.9619C127.92 88.9177 128.362 89.3151 128.406 89.5799C128.627 90.6836 128.715 91.8314 128.848 93.1116C128.185 93.1999 127.567 93.2882 126.905 93.3765C125.625 93.509 124.345 93.6414 123.109 93.818ZM121.917 113.066C119.312 112.845 118.694 112.095 118.561 109.358C118.385 105.914 118.606 102.427 118.738 98.9831C118.826 97.0407 119.798 95.8929 121.696 95.7604C124.124 95.628 126.552 95.7163 128.98 95.8929C130.26 95.9812 131.364 97.2173 131.408 98.4534C131.452 100.352 131.496 102.25 131.408 104.148C131.276 106.179 130.481 106.974 128.45 107.15C126.949 107.283 125.448 107.283 123.947 107.371C123.727 108.695 123.991 109.137 125.272 109.181C126.729 109.225 128.23 109.181 129.73 109.181V113.11C127.038 113.11 124.477 113.287 121.917 113.066ZM123.682 100.793C123.638 101.235 123.638 101.72 123.682 102.118C123.771 102.559 123.506 103.309 124.3 103.221C125.051 103.133 126.11 103.133 126.508 102.647C127.523 101.455 126.552 99.557 125.007 99.3363C124.698 99.2922 124.345 99.3363 123.859 99.3363C123.815 99.9102 123.727 100.352 123.682 100.793ZM99.5785 122.028C99.2253 122.16 98.9163 122.69 98.9604 123.087C99.0046 123.44 99.3577 123.926 99.7109 124.058C100.108 124.191 100.638 124.102 101.079 124.102C101.609 124.102 102.139 124.058 102.669 124.102C104.302 124.235 103.331 125.471 103.508 126.221C103.64 126.707 103.817 127.546 102.713 127.502C102.007 127.458 101.256 127.502 100.506 127.502C99.1812 127.546 98.9163 127.767 98.9163 129.047C98.8721 130.106 98.8721 131.21 98.9163 132.314C98.9163 132.976 98.6955 133.241 98.0333 133.197C97.1504 133.152 96.2675 133.241 95.3846 133.152C95.0755 133.108 94.6341 132.711 94.6341 132.446C94.7224 128.605 94.7665 124.765 94.9872 120.924C95.0755 119.467 95.8702 118.761 97.4594 118.628C99.4019 118.496 101.388 118.584 103.419 118.584V121.807C102.58 121.807 101.786 121.763 101.035 121.807C100.55 121.851 99.9758 121.807 99.5785 122.028ZM107.172 120.218C108.673 120.085 110.218 120.173 111.939 120.218V122.866H109.423C108.805 122.866 108.319 122.999 108.319 123.793C108.319 124.588 108.893 124.676 109.467 124.676H111.895V127.458H109.291C108.584 127.458 108.275 127.811 108.319 128.517C108.319 129.444 108.452 130.371 108.275 131.254C107.966 132.843 106.642 131.74 105.847 132.005C105.318 132.137 104.699 132.137 104.744 131.21C104.832 128.296 104.832 125.383 104.964 122.513C105.053 120.968 105.627 120.35 107.172 120.218ZM116.045 106.223C116.089 106.974 115.736 107.194 115.03 107.194C113.794 107.15 112.602 107.194 111.41 107.194C110.438 107.194 109.909 107.68 109.953 108.695C109.997 110.196 109.997 111.653 109.997 113.154C109.997 114.567 109.997 114.567 108.628 114.567H105.229C104.655 114.567 104.435 114.346 104.435 113.728C104.567 108.96 104.567 104.192 104.788 99.4246C104.92 96.5551 106.2 95.4514 109.114 95.4073C111.366 95.3631 113.617 95.4073 115.957 95.4073V99.6895H113.308C112.602 99.7336 111.895 99.6895 111.189 99.7778C110.262 99.8661 109.953 100.484 109.997 101.411C110.085 102.338 110.615 102.647 111.41 102.647C112.646 102.691 113.882 102.691 115.118 102.647C115.736 102.647 116.089 102.868 116.045 103.574C116.001 104.457 116.001 105.34 116.045 106.223ZM104.346 137.832C104.346 138.715 104.346 139.554 104.302 140.481V147.677C104.258 150.061 103.331 151.253 100.947 151.473C98.9163 151.65 96.8855 151.517 94.7665 151.517V148.339H99.5343C100.285 148.339 100.77 148.074 100.55 147.014H97.5477C95.6494 146.97 94.5016 146.043 94.325 144.101C94.1926 142.247 94.2367 140.348 94.2367 138.494C94.2367 138.273 94.5899 137.876 94.8107 137.876C95.9143 137.788 97.018 137.832 98.2541 137.832C98.2541 139.201 98.2099 140.437 98.2541 141.673C98.2541 142.158 98.2541 142.732 98.519 143.085C98.7838 143.394 99.4019 143.483 99.8433 143.703C99.9758 143.394 100.241 143.041 100.241 142.732C100.285 141.496 100.241 140.216 100.241 138.936C100.241 138.582 100.285 138.229 100.285 137.832H104.346ZM101.079 99.4246C101.212 103.707 101.124 108.033 101.079 112.757C97.8126 112.624 94.6341 112.624 91.4997 112.359C89.9545 112.227 89.0275 110.991 89.0275 109.402C89.0275 107.592 88.9833 105.782 89.2041 104.016C89.3806 102.515 90.087 101.985 91.588 101.808C92.7799 101.676 93.9719 101.72 95.1638 101.588C95.517 101.588 95.826 101.235 96.1792 101.058C95.8702 100.705 95.6494 100.087 95.2521 99.9985C94.5458 99.8219 93.7953 99.9102 93.0448 99.9102C90.5284 99.9543 90.5284 99.9543 90.5284 97.4821C90.5284 96.0695 90.5284 96.0695 91.897 96.0695C93.9719 96.1136 96.0909 96.0253 98.1216 96.246C100.329 96.5109 101.035 97.2614 101.079 99.4246ZM96.2675 107.901C96.3116 107.15 96.2675 106.356 96.2675 105.561C93.9277 104.943 92.9124 105.914 93.5304 108.033C93.7953 109.004 94.7224 108.96 95.517 109.004C96.3999 109.049 96.2233 108.386 96.2675 107.901ZM82.7587 140.922C82.8028 142.865 82.8028 144.807 82.7587 146.75C82.7587 147.5 82.5821 148.251 82.3172 148.913C82.0082 149.796 81.346 150.546 80.3306 150.59C77.7701 150.767 75.2096 150.811 72.4284 150.943V136.993C74.6799 136.993 77.0196 136.861 79.3152 137.037C81.3018 137.17 82.7145 138.892 82.7587 140.922ZM76.3574 147.5C77.9909 147.368 78.2999 147.059 78.2999 145.734C78.2999 144.366 78.2116 142.997 78.1674 141.629C78.1674 141.32 78.1233 140.922 77.9467 140.746C77.6377 140.481 77.1521 140.304 76.7548 140.216C76.6665 140.216 76.3574 140.569 76.3574 140.79V147.5ZM122.755 119.997C122.844 121.454 122.799 122.866 122.755 124.367C122.667 125.383 122.049 126.001 121.034 126.089C119.886 126.177 118.738 126.266 117.502 126.354C117.281 127.149 117.59 127.502 118.297 127.546C119.135 127.59 119.974 127.59 120.813 127.59C121.387 127.59 121.696 127.811 121.652 128.473C121.563 130.901 121.961 130.504 119.665 130.504C118.297 130.504 116.928 130.504 115.559 130.327C114.147 130.106 113.573 129.488 113.573 128.031C113.529 125.471 113.573 122.866 113.705 120.306C113.794 118.54 114.588 117.922 116.31 117.878C117.767 117.834 119.179 117.834 120.636 117.922C121.872 117.966 122.711 118.761 122.755 119.997ZM118.208 123.308C119.003 123.308 119.533 122.999 119.489 122.028C119.444 120.924 119.091 120.482 118.076 120.482C117.016 120.482 117.369 121.321 117.281 121.763C117.281 122.557 117.06 123.352 118.208 123.308ZM93.3097 121.233C93.2655 122.337 93.3097 123.396 93.3097 124.544V127.811C93.2655 128.959 92.7358 129.753 91.6321 130.106C89.8663 130.68 88.0562 130.68 86.2462 130.062C85.2309 129.709 84.7011 128.959 84.657 127.899C84.6128 125.603 84.6128 123.308 84.657 121.012C84.657 120.085 85.1867 119.379 86.0255 119.07C88.0121 118.319 89.9987 118.319 91.9853 119.158C92.8682 119.555 93.3538 120.218 93.3097 121.233ZM89.9545 126.663C89.9104 125.957 89.9104 125.25 89.8663 124.544H89.9545C89.9104 123.793 89.8663 123.087 89.8663 122.337C89.9104 121.674 89.5572 121.41 88.9392 121.365C88.277 121.321 87.8355 121.63 87.8355 122.337V126.751C87.8797 127.458 88.3653 127.634 88.9392 127.59C89.5131 127.59 89.9987 127.413 89.9545 126.663ZM131.805 120.791C131.938 121.983 131.938 123.175 131.85 124.367C131.761 125.648 131.231 126.089 129.951 126.221C129.289 126.266 128.627 126.221 127.965 126.31C127.656 126.354 127.435 126.619 127.17 126.751C127.391 126.972 127.656 127.369 127.92 127.413C128.848 127.502 129.775 127.458 130.746 127.458V129.974C129.068 129.974 127.435 130.062 125.846 129.93C124.3 129.797 123.771 129.179 123.771 127.634C123.771 125.383 123.859 123.131 123.991 120.88C124.036 119.953 124.521 119.202 125.537 119.158C127.126 119.114 128.759 119.07 130.349 119.202C131.231 119.246 131.761 119.953 131.805 120.791ZM127.876 123.793C128.671 123.749 128.98 123.352 128.892 122.557C128.98 121.63 128.45 121.277 127.7 121.321C126.773 121.365 127.082 122.16 127.038 122.69C126.993 123.264 126.993 123.838 127.876 123.793ZM92.206 140.172C92.2502 143.085 92.206 145.955 92.2502 148.869C90.2194 148.869 88.2328 148.913 86.2904 148.824C85.275 148.78 84.6128 148.118 84.5687 147.014C84.5245 145.867 84.5245 144.675 84.6128 143.527C84.657 142.644 85.2309 142.07 86.2021 142.026C87.1292 141.982 88.0121 141.893 88.9392 141.805C89.0275 141.673 89.0716 141.584 89.1599 141.452C88.8509 141.231 88.586 140.922 88.2328 140.834C87.7914 140.746 87.2616 140.79 86.776 140.834C85.7606 141.011 85.3633 140.569 85.4958 139.554C85.5399 139.245 85.5399 138.936 85.5399 138.582C87.3058 138.582 89.0716 138.494 90.7933 138.582C91.7204 138.627 92.206 139.377 92.206 140.172ZM88.4536 146.573C89.6897 146.264 88.7626 145.249 89.0275 144.542C88.0121 144.366 87.3499 144.41 87.3499 145.513C87.3499 146.264 87.8355 146.705 88.4536 146.573Z" fill="white"/>
</svg>
