<svg width="307" height="230" viewBox="0 0 307 230" fill="none" xmlns="http://www.w3.org/2000/svg">
<path d="M276.275 202.64C276.275 205.134 274.293 207.181 271.877 207.181H34.0056C31.59 207.181 29.608 205.134 29.608 202.64L27.626 61.4774C27.626 58.9829 30.4751 54.1058 35.6934 54.4736L268.161 48.2694C271.196 48.1894 274.138 49.3887 276.275 51.6114C278.427 53.818 279.604 56.8562 279.526 59.9743L276.275 202.64Z" fill="url(#paint0_linear)"/>
<path d="M271.939 198.275C271.939 200.641 270.065 202.576 267.774 202.576H39.7503C37.4587 202.576 35.585 200.641 35.585 198.275L33.7114 70.1283C33.9282 62.421 40.4781 59.6387 44.4421 59.8146L267.263 53.6423C269.4 53.5783 271.459 54.4258 272.961 55.9929C274.478 57.5439 275.299 59.6706 275.253 61.8773L271.939 198.275Z" fill="url(#paint1_linear)"/>
<path d="M38.0468 137.112C37.861 137.112 37.7061 136.952 37.7061 136.776L37.5513 126.383C37.5513 126.191 37.6906 126.031 37.8764 126.031C38.0468 126.031 38.2171 126.175 38.2171 126.367L38.3719 136.76C38.3874 136.952 38.2326 137.112 38.0468 137.112Z" fill="white"/>
<path opacity="0.33" d="M37.6907 111.655C37.5049 111.655 37.35 111.495 37.35 111.319L36.7771 71.5194C36.7926 68.865 37.5823 66.7383 39.1307 65.2032C41.9489 62.4049 46.3774 62.5488 46.5632 62.5488L117.714 60.582C117.9 60.582 118.055 60.7259 118.055 60.9178C118.055 61.1097 117.915 61.2696 117.73 61.2696L46.5632 63.2364C46.3619 63.2204 42.2121 63.0925 39.5953 65.6829C38.1862 67.0901 37.4584 69.0409 37.4429 71.5034L38.0159 111.303C38.0313 111.495 37.8765 111.639 37.6907 111.655Z" fill="white"/>
<path opacity="0.25" d="M45.6343 191.175C45.8666 180.589 45.7892 86.79 45.2008 78.6829C44.6124 70.5758 56.8296 69.0568 75.5812 68.1453C94.3328 67.2339 252.583 63.6201 256.671 63.2843C265.822 62.5167 267.727 76.6522 266.813 107.338C266.132 130.396 264.986 168.373 264.46 185.85C264.305 191.047 260.186 195.172 255.154 195.188C217.078 195.3 71.1217 195.732 61.3975 196.02C50.2022 196.388 45.5414 195.364 45.6343 191.175Z" fill="white"/>
<path d="M294.407 214.377H16.3071C15.6722 214.377 15.1458 213.833 15.1458 213.177V203.168C15.1458 202.512 15.6722 201.968 16.3071 201.968H294.422C295.057 201.968 295.584 202.512 295.584 203.168V213.177C295.584 213.833 295.057 214.377 294.407 214.377Z" fill="url(#paint2_linear)"/>
<path d="M75.504 114.901C75.9066 129.804 77.2227 181.213 76.5879 199.426C76.5259 201.361 74.8226 202.912 72.7168 202.976C62.2803 203.296 24.0028 204.079 6.92355 203.424C3.36214 203.28 0.543981 200.657 0.466559 197.395C0.110418 181.757 -0.663803 137.751 1.19433 117.604C1.41111 115.189 3.48602 113.27 6.13385 113.03C17.4994 111.991 55.9472 109.449 70.6883 110.328C73.3516 110.472 75.442 112.455 75.504 114.901Z" fill="url(#paint3_linear)"/>
<path d="M72.5157 121.473V134.106C72.5157 136.52 70.6111 138.487 68.2729 138.487H9.83477C7.49662 138.487 5.59204 136.52 5.59204 134.106V121.473C5.59204 119.059 7.49662 117.092 9.83477 117.092H68.2729C70.6111 117.092 72.5157 119.043 72.5157 121.473Z" fill="url(#paint4_linear)"/>
<path opacity="0.2" d="M8.68884 120.85C9.21531 120.306 9.92759 120.002 10.6708 120.002L65.3618 120.114C66.8173 120.114 68.0406 121.281 68.149 122.785L69.0626 135.337C69.14 136.36 67.4832 137.192 65.4082 137.192L11.6464 136.872C9.57145 136.856 7.86816 136.009 7.86816 134.985V122.896C7.86816 122.129 8.16237 121.393 8.68884 120.85Z" fill="white"/>
<path opacity="0.62" d="M57.8982 151.295C57.8982 153.518 59.6479 155.325 61.8003 155.325H66.554C68.7063 155.325 70.4561 153.518 70.4561 151.295C70.4561 149.072 68.7063 147.265 66.554 147.265H61.8003C59.6479 147.249 57.8982 149.056 57.8982 151.295Z" fill="url(#paint5_linear)"/>
<path opacity="0.62" d="M40.2305 151.295C40.2305 153.518 41.9802 155.325 44.1325 155.325H48.8863C51.0386 155.325 52.7883 153.518 52.7883 151.295C52.7883 149.072 51.0386 147.265 48.8863 147.265H44.1325C41.9802 147.249 40.2305 149.056 40.2305 151.295Z" fill="url(#paint6_linear)"/>
<path opacity="0.62" d="M23.2441 151.295C23.2441 153.518 24.9939 155.325 27.1462 155.325H31.8999C34.0522 155.325 35.802 153.518 35.802 151.295C35.802 149.072 34.0522 147.265 31.8999 147.265H27.1462C24.9939 147.249 23.2441 149.056 23.2441 151.295Z" fill="url(#paint7_linear)"/>
<path d="M6.02539 151.887C6.02539 154.157 7.8061 155.98 9.9894 155.98H14.5883C16.7871 155.98 18.5523 154.141 18.5523 151.887C18.5523 149.616 16.7716 147.793 14.5883 147.793H9.9894C7.8061 147.777 6.02539 149.616 6.02539 151.887Z" fill="url(#paint8_linear)"/>
<path opacity="0.62" d="M57.8982 163.927C57.8982 166.15 59.6479 167.957 61.8003 167.957H66.554C68.7063 167.957 70.4561 166.15 70.4561 163.927C70.4561 161.705 68.7063 159.898 66.554 159.898H61.8003C59.6479 159.882 57.8982 161.689 57.8982 163.927Z" fill="url(#paint9_linear)"/>
<path opacity="0.62" d="M40.2305 163.927C40.2305 166.15 41.9802 167.957 44.1325 167.957H48.8863C51.0386 167.957 52.7883 166.15 52.7883 163.927C52.7883 161.705 51.0386 159.898 48.8863 159.898H44.1325C41.9802 159.882 40.2305 161.689 40.2305 163.927Z" fill="url(#paint10_linear)"/>
<path opacity="0.62" d="M23.2441 163.927C23.2441 166.15 24.9939 167.957 27.1462 167.957H31.8999C34.0522 167.957 35.802 166.15 35.802 163.927C35.802 161.705 34.0522 159.898 31.8999 159.898H27.1462C24.9939 159.882 23.2441 161.689 23.2441 163.927Z" fill="url(#paint11_linear)"/>
<path opacity="0.62" d="M5.57617 163.927C5.57617 166.15 7.32591 167.957 9.47824 167.957H14.2474C16.3998 167.957 18.1495 166.15 18.1495 163.927C18.1495 161.705 16.3998 159.898 14.2474 159.898H9.49372C7.32591 159.882 5.57617 161.689 5.57617 163.927Z" fill="url(#paint12_linear)"/>
<g opacity="0.62">
<path opacity="0.62" d="M57.8982 175.105C57.8982 177.328 59.6479 179.135 61.8003 179.135H66.554C68.7063 179.135 70.4561 177.328 70.4561 175.105C70.4561 172.882 68.7063 171.075 66.554 171.075H61.8003C59.6479 171.075 57.8982 172.882 57.8982 175.105Z" fill="url(#paint13_linear)"/>
<path opacity="0.62" d="M40.2305 175.105C40.2305 177.328 41.9802 179.135 44.1325 179.135H48.8863C51.0386 179.135 52.7883 177.328 52.7883 175.105C52.7883 172.882 51.0386 171.075 48.8863 171.075H44.1325C41.9802 171.075 40.2305 172.882 40.2305 175.105Z" fill="url(#paint14_linear)"/>
<path opacity="0.62" d="M23.2441 175.105C23.2441 177.328 24.9939 179.135 27.1462 179.135H31.8999C34.0522 179.135 35.802 177.328 35.802 175.105C35.802 172.882 34.0522 171.075 31.8999 171.075H27.1462C24.9939 171.075 23.2441 172.882 23.2441 175.105Z" fill="url(#paint15_linear)"/>
</g>
<g opacity="0.62">
<path opacity="0.62" d="M57.8982 187.385C57.8982 189.608 59.6479 191.415 61.8003 191.415H66.554C68.7063 191.415 70.4561 189.608 70.4561 187.385C70.4561 185.163 68.7063 183.356 66.554 183.356H61.8003C59.6479 183.356 57.8982 185.163 57.8982 187.385Z" fill="url(#paint16_linear)"/>
<path opacity="0.62" d="M40.2305 187.385C40.2305 189.608 41.9802 191.415 44.1325 191.415H48.8863C51.0386 191.415 52.7883 189.608 52.7883 187.385C52.7883 185.163 51.0386 183.356 48.8863 183.356H44.1325C41.9802 183.356 40.2305 185.163 40.2305 187.385Z" fill="url(#paint17_linear)"/>
<path opacity="0.62" d="M23.2441 187.385C23.2441 189.608 24.9939 191.415 27.1462 191.415H31.8999C34.0522 191.415 35.802 189.608 35.802 187.385C35.802 185.163 34.0522 183.356 31.8999 183.356H27.1462C24.9939 183.356 23.2441 185.163 23.2441 187.385Z" fill="url(#paint18_linear)"/>
</g>
<path opacity="0.62" d="M7.27954 187.049C7.27954 189.864 9.49381 192.15 12.2191 192.15H12.5133C15.2385 192.15 17.4528 189.864 17.4528 187.049V177.263C17.4528 174.449 15.2385 172.162 12.5133 172.162H12.2191C9.49381 172.162 7.27954 174.449 7.27954 177.263V187.049Z" fill="url(#paint19_linear)"/>
<path d="M249.998 126.894C250.88 127.614 275.315 125.775 285.565 127.966C285.565 127.966 293.524 92.1312 270.685 90.724C247.845 89.3169 239.933 103.868 239.933 103.868L249.998 126.894Z" fill="url(#paint20_linear)"/>
<path d="M225.873 89.0449L270.685 90.7399C270.685 90.7399 254.349 90.9638 256.161 112.295C257.972 133.626 267.17 195.892 243.804 195.956C220.438 196.02 220.067 185.003 220.067 185.003L225.873 89.0449Z" fill="#7D97F4"/>
<path d="M204.954 79.035L222.281 74.8775C222.281 74.8775 233.863 73.8062 235.427 84.4398C236.991 95.0733 236.542 158.043 236.046 171.043C235.551 184.028 236.743 194.021 243.82 195.972L192.334 196.9L204.954 79.035Z" fill="url(#paint21_linear)"/>
<path d="M254.318 136.408C254.039 136.408 253.807 136.184 253.791 135.897C253.776 135.753 252.94 121.313 251.422 109.305C249.858 96.8323 256.455 94.2099 256.733 94.098C257.012 94.002 257.306 94.1459 257.415 94.4338C257.507 94.7216 257.368 95.0254 257.105 95.1373C256.857 95.2333 251.02 97.6318 252.475 109.161C253.993 121.218 254.844 135.689 254.844 135.833C254.86 136.136 254.643 136.392 254.349 136.408C254.333 136.408 254.318 136.408 254.318 136.408Z" fill="white"/>
<path d="M169.727 79.8981C169.727 79.8981 201.269 81.689 222.265 74.8772C222.265 74.8772 208.314 73.8858 208.314 107.162C208.314 132.602 211.968 181.165 208.778 190.391C205.589 199.618 193.666 211.994 176.555 201.345C159.445 190.695 169.727 79.8981 169.727 79.8981Z" fill="#7D97F4"/>
<path d="M204.211 152.655C203.916 152.655 203.684 152.415 203.684 152.111C203.684 152.095 203.653 150.368 203.498 144.452C203.483 144.148 203.715 143.892 204.009 143.892C204.288 143.876 204.551 144.116 204.551 144.42C204.706 150.352 204.737 152.079 204.753 152.095C204.753 152.399 204.52 152.639 204.211 152.655C204.211 152.655 204.226 152.655 204.211 152.655Z" fill="white"/>
<path d="M203.824 138.199C203.545 138.199 203.297 137.959 203.297 137.672C203.189 133.818 203.003 129.564 202.817 125.055C202.569 118.963 202.306 112.663 202.167 106.602C201.795 90.58 204.366 84.4397 206.564 82.1052C207.772 80.8419 208.779 80.7939 208.887 80.7939C209.181 80.7939 209.413 81.0338 209.413 81.3376C209.413 81.6414 209.181 81.8813 208.887 81.8813C208.763 81.8973 202.662 82.5849 203.22 106.57C203.359 112.631 203.622 118.915 203.87 125.007C204.056 129.516 204.242 133.786 204.35 137.64C204.365 137.943 204.133 138.199 203.839 138.199C203.839 138.199 203.839 138.199 203.824 138.199Z" fill="white"/>
<path d="M161.35 30.0086C161.35 30.0086 196.143 33.9262 200.634 27.8339C200.634 27.8339 197.072 16.8645 186.481 17.6001C175.889 18.3357 161.35 30.0086 161.35 30.0086Z" fill="url(#paint22_linear)"/>
<path d="M48.174 42.337C51.209 77.5477 57.5885 152.047 60.3602 188.329C60.9796 196.42 67.2508 202.8 75.1014 203.328C103.035 205.182 165.902 208.764 190.027 205.422C184.499 202.608 181.015 196.772 181.077 190.423L182.362 27.5939C182.408 21.8374 187.952 17.7119 193.17 19.7267C196.453 21.0059 198.946 23.7083 200.649 27.8338C198.373 20.9739 194.796 15.969 186.496 17.6C186.496 17.6 105.358 18.4315 65.9811 20.9579C55.2504 21.6455 47.214 31.3197 48.174 42.337Z" fill="url(#paint23_linear)"/>
<mask id="mask0" mask-type="alpha" maskUnits="userSpaceOnUse" x="51" y="21" width="132" height="184">
<path d="M68.2416 25.6271L177.267 21.2937C172.777 55.6729 174.666 125.679 176.385 194.677C176.493 198.77 178.816 202.448 182.393 204.191C182.393 204.191 109.662 205.054 78.4148 202.768C71.0598 202.224 65.0518 196.484 63.9679 188.952C59.6787 159.386 49.4126 83.0163 51.5494 42.5928C52.0449 33.3344 59.2606 25.9789 68.2416 25.6271Z" fill="url(#paint24_linear)"/>
</mask>
<g mask="url(#mask0)">
<path d="M68.2416 25.6271L177.267 21.2937C172.777 55.6729 174.666 125.679 176.385 194.677C176.493 198.77 178.816 202.448 182.393 204.191C182.393 204.191 109.662 205.054 78.4148 202.768C71.0598 202.224 65.0518 196.484 63.9679 188.952C59.6787 159.386 49.4126 83.0163 51.5494 42.5928C52.0449 33.3344 59.2606 25.9789 68.2416 25.6271Z" fill="#BDD0FB"/>
<path d="M68.8921 63.6042C84.2217 63.2204 143.062 61.7013 157.927 61.3176C159.801 61.2696 161.35 62.4689 161.35 63.956C161.35 65.3791 159.94 66.5464 158.16 66.5944L69.1863 69.2328C67.4675 69.2808 65.9965 68.2894 65.7643 66.9302L65.7023 66.5944C65.4546 65.0433 66.9256 63.6522 68.8921 63.6042Z" fill="url(#paint25_linear)"/>
<path d="M67.9323 80.2341C68.1955 80.5859 68.66 80.7938 69.171 80.7778L130.272 79.7224C131.047 79.7064 131.651 79.2107 131.651 78.6031V75.3891C131.651 74.7494 130.985 74.2378 130.18 74.2697L70.7814 76.0447C68.149 76.1086 66.5696 78.4272 67.9323 80.2341Z" fill="url(#paint26_linear)"/>
<path d="M74.2961 182.412C85.863 182.54 130.288 182.924 141.514 183.036C142.923 183.052 144.053 184.299 143.991 185.786C143.93 187.21 142.815 188.329 141.468 188.329L74.2806 188.057C72.9799 188.057 71.9115 187.002 71.8031 185.643L71.7721 185.291C71.6483 183.74 72.8251 182.397 74.2961 182.412Z" fill="#BDD0FB"/>
<path d="M81.574 51.3553L81.1714 35.6688L83.8346 35.5889L84.2372 51.2754L81.574 51.3553Z" fill="white"/>
<path d="M98.0803 50.9078L94.6273 51.0038L89.6413 39.7786H89.5019C89.7032 40.642 89.8116 41.5695 89.8271 42.5609L90.0439 51.1317L87.427 51.1956L87.0244 35.5091L90.4929 35.4132L95.4325 46.5265H95.5408C95.386 45.7749 95.3086 44.8955 95.2776 43.8561L95.0608 35.3013L97.6622 35.2373L98.0803 50.9078Z" fill="white"/>
<path d="M106.891 34.9813L109.74 34.9014L106.566 50.6838L102.973 50.7798L99.0247 35.2052L101.874 35.1252L104.104 44.6555C104.305 45.471 104.506 46.6223 104.723 48.1413C104.831 46.8461 104.986 45.6628 105.187 44.6235L106.891 34.9813Z" fill="white"/>
<path d="M121.4 42.4011C121.462 44.9915 121.044 47.0063 120.145 48.4294C119.247 49.8526 117.916 50.5881 116.166 50.6361C114.401 50.684 113.038 50.0284 112.063 48.6533C111.087 47.2941 110.561 45.2953 110.499 42.6889C110.437 40.0985 110.855 38.0837 111.753 36.6765C112.666 35.2694 113.998 34.5338 115.763 34.4859C117.513 34.4379 118.876 35.0935 119.851 36.4686C120.811 37.8278 121.338 39.8106 121.4 42.4011ZM113.379 42.6249C113.425 44.4158 113.673 45.775 114.138 46.6865C114.602 47.6139 115.252 48.0616 116.089 48.0456C117.792 47.9977 118.597 46.1428 118.504 42.481C118.411 38.8192 117.513 37.0123 115.825 37.0603C114.974 37.0763 114.339 37.572 113.921 38.5154C113.518 39.4588 113.332 40.834 113.379 42.6249Z" fill="white"/>
<path d="M124.326 50.1881L123.924 34.5016L126.587 34.4216L126.99 50.1081L124.326 50.1881Z" fill="white"/>
<path d="M134.887 36.532C134.081 36.548 133.447 37.0597 133.013 38.0511C132.564 39.0425 132.378 40.4177 132.409 42.1606C132.502 45.7904 133.462 47.5814 135.305 47.5334C136.11 47.5174 136.946 47.2296 137.813 46.6699L137.875 49.2603C137.147 49.788 136.203 50.0759 135.042 50.0918C133.338 50.1398 132.007 49.4682 131.047 48.0931C130.086 46.7179 129.591 44.7511 129.514 42.2086C129.452 39.6661 129.87 37.6674 130.783 36.2122C131.697 34.7571 132.982 34.0216 134.67 33.9736C135.227 33.9576 135.754 34.0216 136.265 34.1655C136.776 34.3094 137.333 34.5652 137.922 34.949L137.055 37.3475C136.745 37.1397 136.404 36.9478 136.048 36.7719C135.692 36.612 135.305 36.532 134.887 36.532Z" fill="white"/>
<path d="M146.872 49.5806L140.028 49.7724L139.625 34.0859L146.469 33.894L146.531 36.4205L142.505 36.5324L142.598 40.2582L146.33 40.1622L146.392 42.6887L142.66 42.7847L142.768 47.134L146.794 47.0221L146.872 49.5806Z" fill="white"/>
<path d="M163.007 170.228H71.8809C70.7196 170.228 69.744 169.284 69.6356 168.069L62.869 95.3609C62.7451 93.9698 63.7516 92.7545 65.0677 92.7225L159.476 90.6758C160.699 90.6438 161.721 91.6672 161.783 92.9624L165.267 167.717C165.329 169.092 164.292 170.228 163.007 170.228Z" fill="#BDD0FB"/>
<path d="M163.006 170.643H71.8807C70.5181 170.643 69.3723 169.556 69.2484 168.117L62.4817 95.409C62.4043 94.6255 62.652 93.826 63.163 93.2504C63.6585 92.6747 64.3398 92.3549 65.0676 92.3389L159.476 90.2921C160.916 90.2602 162.108 91.4275 162.186 92.9625L165.67 167.717C165.701 168.501 165.437 169.252 164.927 169.812C164.4 170.34 163.719 170.643 163.006 170.643ZM159.522 91.0917C159.507 91.0917 159.491 91.0917 159.476 91.0917L65.0676 93.1384C64.5566 93.1544 64.0766 93.3783 63.7359 93.778C63.3798 94.1938 63.194 94.7694 63.2559 95.3291L70.0226 168.037C70.1155 169.06 70.9207 169.844 71.8807 169.844H163.006C163.517 169.844 163.982 169.636 164.338 169.252C164.71 168.853 164.896 168.309 164.88 167.749L161.396 92.9945C161.334 91.9072 160.513 91.0917 159.522 91.0917Z" fill="url(#paint27_linear)"/>
<path d="M141.654 170.02C141.452 170.02 141.282 169.86 141.266 169.636L136.389 92.4027C136.373 92.1788 136.544 91.987 136.761 91.971C136.977 91.955 137.163 92.1309 137.179 92.3547L142.056 169.588C142.072 169.812 141.901 170.004 141.685 170.02C141.669 170.02 141.654 170.02 141.654 170.02Z" fill="url(#paint28_linear)"/>
<path d="M64.7734 103.532C64.4792 103.532 64.2314 103.293 64.2314 102.989C64.2314 102.685 64.4637 102.413 64.7579 102.413L161.334 100.19C161.628 100.19 161.891 100.43 161.891 100.734C161.891 101.038 161.659 101.31 161.365 101.31L64.7734 103.532Z" fill="url(#paint29_linear)"/>
<path opacity="0.39" d="M64.7733 115.637C64.5566 115.637 64.3862 115.461 64.3862 115.237C64.3862 115.013 64.5566 114.837 64.7733 114.821L162.155 112.406C162.372 112.406 162.542 112.582 162.557 112.806C162.557 113.03 162.387 113.206 162.17 113.222L64.7733 115.637Z" fill="url(#paint30_linear)"/>
<path opacity="0.39" d="M65.6715 127.614C65.4548 127.614 65.2844 127.438 65.2844 127.214C65.2844 126.99 65.4548 126.814 65.6715 126.798L163.316 124.911C163.533 124.911 163.703 125.087 163.719 125.311C163.719 125.535 163.548 125.711 163.332 125.727L65.6715 127.614C65.687 127.614 65.687 127.614 65.6715 127.614Z" fill="url(#paint31_linear)"/>
<path opacity="0.39" d="M66.9721 138.599C66.7553 138.599 66.585 138.423 66.585 138.199C66.585 137.975 66.7553 137.8 66.9721 137.8L163.904 136.904C164.121 136.904 164.292 137.08 164.292 137.304C164.292 137.528 164.121 137.704 163.904 137.704L66.9721 138.599Z" fill="url(#paint32_linear)"/>
<path opacity="0.39" d="M68.1955 151.455C67.9787 151.455 67.8083 151.279 67.8083 151.055C67.8083 150.831 67.9787 150.655 68.1955 150.639L163.332 149.264C163.548 149.264 163.719 149.44 163.734 149.664C163.734 149.888 163.564 150.064 163.347 150.08L68.1955 151.455C68.1955 151.455 68.2109 151.455 68.1955 151.455Z" fill="url(#paint33_linear)"/>
<path d="M69.1864 161.849C68.9696 161.849 68.7993 161.673 68.7993 161.449C68.7993 161.225 68.9696 161.049 69.1864 161.033L163.889 159.354C164.106 159.354 164.276 159.53 164.292 159.754C164.292 159.978 164.121 160.154 163.904 160.17L69.1864 161.849C69.2019 161.849 69.2019 161.849 69.1864 161.849Z" fill="url(#paint34_linear)"/>
</g>
<path d="M192.535 110.408C192.086 128.973 190.646 193.03 191.327 215.736C191.404 218.135 193.263 220.07 195.601 220.15C207.121 220.533 240.258 221.525 259.087 220.709C263.004 220.533 266.132 217.255 266.21 213.21C266.597 193.718 267.464 138.887 265.404 113.782C265.157 110.776 262.865 108.377 259.954 108.073C247.411 106.778 214.089 103.612 197.815 104.7C194.919 104.875 192.612 107.37 192.535 110.408Z" fill="url(#paint35_linear)"/>
<path d="M197.227 116.164C196.592 131.371 194.61 181.965 195.245 200.673C195.338 203.408 197.428 205.614 200.076 205.774C210.961 206.43 238.895 207.885 254.875 206.558C257.755 206.318 260.016 203.919 260.171 200.945C260.976 185.435 263.298 138.311 262.695 119.81C262.602 116.852 260.387 114.454 257.538 114.182C245.755 113.094 215.498 110.488 201.918 111.255C199.348 111.431 197.335 113.542 197.227 116.164Z" fill="url(#paint36_linear)"/>
<path opacity="0.2" d="M199.1 118.003C198.512 132.426 196.669 180.397 197.257 198.131C197.35 200.721 199.286 202.816 201.748 202.976C211.89 203.599 237.904 204.975 252.784 203.727C255.463 203.503 257.569 201.217 257.708 198.402C258.467 183.691 260.635 139.03 260.062 121.489C259.969 118.691 257.91 116.404 255.262 116.148C244.283 115.109 216.102 112.646 203.451 113.366C201.082 113.51 199.193 115.509 199.1 118.003Z" fill="white"/>
<path d="M221.01 107.93C221.01 108.505 221.444 108.969 221.986 109.001C224.711 109.145 232.376 109.561 235.798 109.769C236.479 109.817 237.006 109.177 236.882 108.489L236.867 108.378C236.774 107.914 236.402 107.562 235.937 107.514C233.615 107.29 226.631 106.683 222.001 106.858C221.444 106.874 221.01 107.354 221.01 107.93Z" fill="#7D97F4"/>
<path d="M254.333 147.234C254.194 152.878 250.122 157.34 245.244 157.212L215.824 156.444C210.931 156.316 207.09 151.647 207.23 146.003V145.875C207.369 140.23 211.442 135.769 216.319 135.897L245.739 136.664C250.633 136.792 254.473 141.461 254.333 147.106V147.234Z" fill="url(#paint37_linear)"/>
<path d="M226.895 144.068C226.864 145.059 226.616 145.827 226.105 146.338C225.61 146.85 224.898 147.106 223.984 147.074L223.566 147.058L223.489 150.464L221.801 150.416L222.033 141.046L224.34 141.11C226.09 141.158 226.942 142.149 226.895 144.068ZM223.597 145.571L223.922 145.587C224.34 145.603 224.65 145.491 224.851 145.251C225.053 145.027 225.176 144.643 225.176 144.1C225.192 143.604 225.099 143.236 224.929 142.996C224.743 142.757 224.464 142.629 224.077 142.613L223.674 142.597L223.597 145.571Z" fill="#BDD0FB"/>
<path d="M231.928 150.704L231.463 148.321L229.094 148.257L228.521 150.608L226.833 150.56L229.311 141.206L231.602 141.27L233.631 150.736L231.928 150.704ZM231.184 146.754L230.751 144.564C230.72 144.436 230.673 144.1 230.58 143.556C230.488 143.028 230.441 142.661 230.426 142.485C230.364 142.853 230.286 143.252 230.193 143.7C230.1 144.148 229.853 145.139 229.481 146.706L231.184 146.754Z" fill="#BDD0FB"/>
<path d="M236.526 145.139L237.827 141.478L239.592 141.525L237.301 147.09L237.223 150.832L235.566 150.784L235.659 147.09L233.646 141.35L235.427 141.398L236.526 145.139Z" fill="#BDD0FB"/>
<path d="M244.624 154.462C244.563 154.669 245.306 154.989 245.739 154.126C245.755 153.71 246.003 151.935 245.755 151.599C244.485 149.808 242.008 147.554 242.008 147.554C241.589 147.985 241.93 148.401 241.93 148.401L243.122 149.696C242.875 150.16 242.565 150.56 242.426 151.12C242.317 151.551 242.379 151.999 242.596 152.399C242.813 152.799 243.091 153.294 243.37 153.694C243.897 154.462 244.624 154.462 244.624 154.462Z" fill="url(#paint38_linear)"/>
<path d="M243.664 150.544L244.764 151.503L245.104 152.463L244.129 153.582C244.129 153.582 243.804 151.695 243.556 151.279C243.308 150.848 243.432 150.656 243.664 150.544Z" fill="url(#paint39_linear)"/>
<path d="M266.101 224.947C266.101 224.947 266.38 226.562 266.519 228.161C266.566 228.784 266.101 229.328 265.497 229.36C263.438 229.456 259.025 229.616 257.445 229.552C257.213 229.536 257.058 229.296 257.136 229.056C257.213 228.864 257.352 228.705 257.538 228.625L264.816 225.171L266.101 224.947Z" fill="url(#paint40_linear)"/>
<path d="M266.318 224.003L266.101 225.938C266.101 225.938 264.832 226.546 263.949 225.858L264.475 223.699L266.318 224.003Z" fill="url(#paint41_linear)"/>
<path d="M266.163 187.689C266.256 188.201 266.674 212.858 264.119 223.907C264.073 224.083 264.166 224.275 264.336 224.339C264.723 224.499 265.497 224.739 266.411 224.771C266.69 224.787 266.953 224.595 267.03 224.307C267.758 221.749 271.258 208.892 271.707 196.612C272.218 182.892 271.707 196.148 271.707 196.148L271.412 187.673L266.163 187.689Z" fill="#7D97F4"/>
<path d="M274.478 225.794C274.478 225.794 274.912 226.609 275.345 228.768C275.423 229.152 275.16 229.536 274.772 229.568C274.091 229.632 273.038 229.728 272.202 229.728C271.815 229.728 271.521 229.376 271.567 228.976C271.66 228.193 271.954 226.881 272.837 225.874L274.478 225.794Z" fill="url(#paint42_linear)"/>
<path d="M274.865 223.316L274.354 226.242C274.354 226.242 273.843 226.642 272.821 226.354L273.069 223.204L274.865 223.316Z" fill="url(#paint43_linear)"/>
<path d="M276.259 188.457C278.349 201.473 275.81 220.613 274.942 224.371C274.896 224.595 274.71 224.771 274.478 224.819C274.091 224.883 273.471 224.931 272.852 224.755C272.635 224.691 272.48 224.499 272.48 224.259C272.372 221.221 272.573 202.624 270.622 195.268C270.529 194.901 270.297 194.565 270.003 194.341L266.225 191.575L265.931 187.097L276.259 188.457Z" fill="#7D97F4"/>
<path d="M262.958 163.784C269.214 163.672 276.12 165.479 276.12 165.479C277.978 176.72 276.445 189.688 276.445 189.688C271.598 190.999 266.132 188.889 266.132 188.889C265.327 184.187 261.564 170.964 261.564 170.964C258.514 170.564 255.99 169.668 253.915 168.453C255.494 166.566 256.238 164.152 256.563 162.729C258.793 163.448 261.022 163.832 262.958 163.784Z" fill="url(#paint44_linear)"/>
<path d="M244.469 154.27C245.089 153.502 245.863 153.87 245.863 153.87C246.777 157.883 251.608 161.145 256.578 162.728C256.253 164.152 255.51 166.566 253.93 168.453C245.693 163.688 244.469 154.27 244.469 154.27Z" fill="url(#paint45_linear)"/>
<path d="M273.719 171.747L276.12 165.494C276.12 165.494 281.957 169.588 282.933 174.801C281.833 174.881 279.82 175.185 277.854 176.208C277.42 173.745 273.719 171.747 273.719 171.747Z" fill="url(#paint46_linear)"/>
<path d="M269.291 158.539L271.288 164.487C271.319 164.583 271.288 164.695 271.195 164.743C270.654 165.047 268.702 165.942 266.333 164.407C266.086 164.247 265.915 163.991 265.884 163.687L265.234 158.539H269.291Z" fill="url(#paint47_linear)"/>
<path d="M264.971 153.039C264.971 153.039 262.788 157.292 263.066 159.003C263.345 160.714 266.055 160.602 268.424 159.195L270.081 154.606L264.971 153.039Z" fill="url(#paint48_linear)"/>
<path d="M268.315 156.956C268.222 156.908 268.176 156.796 268.238 156.7C268.408 156.428 268.749 155.853 268.842 155.373C268.842 155.373 269.229 155.117 267.835 154.765C266.442 154.413 264.367 153.886 263.933 152.654C263.5 151.455 264.63 148.465 266.411 150.848C266.473 150.943 266.612 150.943 266.674 150.848C266.968 150.448 267.742 149.632 268.811 150.128C269.817 150.592 269.926 151.343 269.91 151.727C269.91 151.839 270.003 151.919 270.112 151.903C270.623 151.807 271.83 151.711 272.403 153.006C272.868 154.062 272.574 154.669 272.295 154.957C272.202 155.053 272.248 155.213 272.372 155.245C272.697 155.357 273.131 155.645 273.085 156.444C273.023 157.547 271.815 157.452 271.474 157.404C271.412 157.388 271.366 157.42 271.319 157.452C271.025 157.787 269.709 159.21 268.269 159.386C268.145 159.402 268.052 159.274 268.083 159.147L268.702 157.292C268.733 157.212 268.687 157.116 268.61 157.068L268.315 156.956Z" fill="url(#paint49_linear)"/>
<path d="M268.068 157.212C268.068 157.212 269.632 156.108 269.74 157.036C269.849 157.963 268.331 158.379 267.588 158.027L268.068 157.212Z" fill="url(#paint50_linear)"/>
<path d="M277.838 176.192C277.838 176.192 279.882 185.706 278.024 191.063C280.3 192.151 279.867 191.943 279.867 191.943C279.867 191.943 284.357 178.399 282.902 174.785C280.068 174.481 278.659 175.265 277.838 176.192Z" fill="url(#paint51_linear)"/>
<path d="M278.04 191.063C278.04 191.063 276.863 192.63 276.971 193.254C277.064 193.877 277.08 194.133 277.08 194.133C277.08 194.133 277.668 193.717 277.637 193.19C277.56 194.869 277.018 196.788 277.513 196.692C278.009 196.596 280.579 194.149 279.991 191.559C278.659 190.599 278.287 190.695 278.04 191.063Z" fill="url(#paint52_linear)"/>
<path d="M267.573 134.042C281.743 134.042 293.23 122.179 293.23 107.546C293.23 92.9122 281.743 81.0496 267.573 81.0496C253.402 81.0496 241.915 92.9122 241.915 107.546C241.915 122.179 253.402 134.042 267.573 134.042Z" fill="url(#paint53_linear)"/>
<path d="M267.634 131.803C280.454 131.803 290.846 121.071 290.846 107.833C290.846 94.5953 280.454 83.8638 267.634 83.8638C254.815 83.8638 244.423 94.5953 244.423 107.833C244.423 121.071 254.815 131.803 267.634 131.803Z" fill="url(#paint54_linear)"/>
<path d="M291.821 101.117L292.053 121.089L292.084 124.176C292.1 124.575 291.79 124.927 291.403 124.943L252.971 126.35C252.584 126.366 252.243 126.046 252.227 125.647L252.073 122.561L251.128 102.86C251.113 102.461 251.546 101.645 252.398 101.677L289.916 99.3106C290.412 99.2786 290.892 99.4545 291.248 99.8063C291.62 100.142 291.821 100.622 291.821 101.117Z" fill="url(#paint55_linear)"/>
<path d="M291.124 123.6C291.14 123.984 290.845 124.287 290.474 124.303L253.869 125.631C253.497 125.647 253.187 125.343 253.172 124.975L252.134 103.708C252.119 103.324 252.537 102.588 253.342 102.604L289.096 100.366C289.56 100.334 290.025 100.51 290.365 100.829C290.706 101.149 290.907 101.597 290.907 102.077L291.124 123.6Z" fill="#7D97F4"/>
<path d="M286.355 124.704C286.278 124.704 286.216 124.64 286.216 124.56C286.216 124.48 286.278 124.416 286.355 124.4L290.459 124.256C290.691 124.24 290.923 124.128 291.109 123.92C291.295 123.712 291.388 123.472 291.388 123.232L290.939 110.28C290.939 110.2 291 110.136 291.078 110.12C291.155 110.12 291.217 110.184 291.233 110.264L291.682 123.216C291.697 123.536 291.558 123.856 291.326 124.112C291.093 124.368 290.784 124.528 290.474 124.544L286.355 124.704Z" fill="white"/>
<path d="M252.429 111.847C252.351 111.847 252.29 111.783 252.29 111.703L252.026 103.948C252.011 103.548 252.15 103.132 252.398 102.828C252.661 102.492 253.017 102.301 253.404 102.285L256.656 102.173C256.733 102.173 256.795 102.237 256.811 102.317C256.811 102.396 256.749 102.46 256.671 102.476L253.42 102.588C253.11 102.604 252.831 102.748 252.63 103.02C252.429 103.276 252.321 103.612 252.321 103.948L252.584 111.703C252.584 111.767 252.522 111.847 252.429 111.847C252.429 111.847 252.444 111.847 252.429 111.847Z" fill="white"/>
<path d="M261.672 110.743C261.656 110.343 261.331 110.023 260.928 110.039L256.175 110.215C255.788 110.231 255.478 110.567 255.493 110.983L255.617 114.708C255.633 115.108 255.958 115.428 256.361 115.412L261.114 115.236C261.501 115.22 261.811 114.884 261.796 114.468L261.672 110.743Z" fill="url(#paint56_linear)"/>
<path opacity="0.8" d="M257.755 113.83C257.662 113.83 257.585 113.798 257.507 113.734C257.43 113.67 257.399 113.574 257.399 113.478L257.353 112.247C257.353 112.039 257.507 111.863 257.693 111.863L259.04 111.815C259.133 111.815 259.226 111.847 259.304 111.911C259.381 111.975 259.412 112.071 259.412 112.167L259.458 113.398C259.458 113.606 259.304 113.782 259.118 113.782L257.755 113.83ZM259.056 112.103L257.693 112.151C257.647 112.151 257.616 112.183 257.616 112.231L257.662 113.462C257.662 113.478 257.678 113.494 257.678 113.51C257.693 113.526 257.709 113.526 257.724 113.526L259.071 113.478C259.118 113.478 259.149 113.446 259.149 113.398L259.102 112.167C259.102 112.151 259.087 112.135 259.087 112.119C259.102 112.119 259.087 112.103 259.056 112.103Z" fill="white"/>
<path d="M255.556 112.743C255.479 112.743 255.417 112.679 255.417 112.599C255.417 112.519 255.479 112.455 255.556 112.439L257.507 112.375C257.585 112.375 257.647 112.439 257.662 112.519C257.662 112.599 257.6 112.663 257.523 112.679L255.556 112.743Z" fill="white"/>
<path d="M255.572 113.238C255.494 113.238 255.432 113.174 255.432 113.094C255.432 113.014 255.494 112.95 255.572 112.934L257.523 112.87C257.6 112.87 257.662 112.934 257.677 113.014C257.677 113.094 257.616 113.158 257.538 113.174L255.572 113.238Z" fill="white"/>
<path d="M259.613 112.582C259.536 112.582 259.474 112.518 259.474 112.438C259.474 112.358 259.536 112.294 259.613 112.278L261.719 112.198C261.796 112.198 261.858 112.262 261.874 112.342C261.874 112.422 261.812 112.486 261.734 112.502L259.613 112.582Z" fill="white"/>
<path d="M259.629 113.093C259.551 113.093 259.489 113.03 259.489 112.95C259.489 112.87 259.551 112.806 259.629 112.79L261.734 112.71C261.812 112.71 261.874 112.774 261.889 112.854C261.889 112.934 261.827 112.998 261.75 113.014L259.629 113.093Z" fill="white"/>
<path d="M257.925 112.15C257.863 112.15 257.802 112.102 257.786 112.038L257.306 110.231C257.29 110.151 257.337 110.071 257.399 110.055C257.476 110.039 257.554 110.087 257.569 110.151L258.049 111.958C258.065 112.038 258.018 112.118 257.956 112.134C257.956 112.15 257.941 112.15 257.925 112.15Z" fill="white"/>
<path d="M259.056 112.119C259.04 112.119 259.04 112.119 259.025 112.119C258.947 112.103 258.901 112.023 258.916 111.943L259.288 110.104C259.303 110.024 259.381 109.976 259.458 109.992C259.536 110.008 259.582 110.088 259.567 110.168L259.195 112.007C259.18 112.071 259.118 112.119 259.056 112.119Z" fill="white"/>
<path d="M257.631 115.572C257.616 115.572 257.616 115.572 257.6 115.572C257.523 115.556 257.476 115.476 257.492 115.396L257.848 113.557C257.864 113.477 257.941 113.429 258.018 113.445C258.096 113.461 258.142 113.541 258.127 113.621L257.771 115.46C257.755 115.524 257.693 115.572 257.631 115.572Z" fill="white"/>
<path d="M259.613 115.509C259.551 115.509 259.489 115.461 259.474 115.397L258.978 113.59C258.963 113.51 258.994 113.43 259.071 113.414C259.149 113.398 259.226 113.43 259.241 113.51L259.737 115.317C259.753 115.397 259.722 115.477 259.644 115.493C259.629 115.509 259.629 115.509 259.613 115.509Z" fill="white"/>
<path d="M261.487 105.291C261.503 105.771 261.147 106.171 260.666 106.187L255.371 106.378C254.906 106.394 254.519 106.027 254.504 105.531V105.435C254.488 104.955 254.844 104.556 255.324 104.54L260.62 104.348C261.085 104.332 261.472 104.699 261.487 105.195V105.291Z" fill="#BDD0FB"/>
<path d="M262.416 118.387C262.432 118.851 262.091 119.234 261.642 119.25L255.789 119.458C255.34 119.474 254.968 119.122 254.953 118.659V118.643C254.937 118.179 255.278 117.795 255.727 117.779L261.58 117.571C262.029 117.555 262.401 117.923 262.416 118.387Z" fill="#BDD0FB"/>
<path d="M270.855 118.083C270.871 118.547 270.53 118.931 270.081 118.947L264.228 119.155C263.779 119.171 263.407 118.819 263.392 118.355V118.339C263.376 117.875 263.717 117.492 264.166 117.476L270.019 117.268C270.468 117.252 270.84 117.604 270.855 118.083Z" fill="#BDD0FB"/>
<path d="M279.294 117.779C279.31 118.243 278.969 118.627 278.52 118.643L272.667 118.851C272.218 118.867 271.846 118.515 271.831 118.051V118.035C271.815 117.572 272.156 117.188 272.605 117.172L278.458 116.964C278.907 116.948 279.279 117.3 279.294 117.779Z" fill="#BDD0FB"/>
<path d="M287.903 117.46C287.919 117.923 287.578 118.307 287.129 118.323L281.276 118.531C280.827 118.547 280.455 118.195 280.44 117.731V117.715C280.424 117.252 280.765 116.868 281.214 116.852L287.067 116.644C287.516 116.628 287.888 116.98 287.903 117.46Z" fill="#BDD0FB"/>
<g opacity="0.8">
<g opacity="0.8">
<path opacity="0.8" d="M268.068 121.873C268.083 122.241 267.804 122.545 267.448 122.561L256.547 122.96C256.191 122.976 255.897 122.689 255.881 122.321V122.305C255.866 121.937 256.145 121.633 256.501 121.617L267.402 121.217C267.758 121.201 268.052 121.489 268.068 121.857V121.873Z" fill="#BDD0FB"/>
</g>
<g opacity="0.8">
<path opacity="0.8" d="M287.036 120.85C287.051 121.217 286.773 121.521 286.417 121.537L281.694 121.713C281.338 121.729 281.044 121.441 281.028 121.073V121.057C281.013 120.69 281.291 120.386 281.648 120.37L286.37 120.194C286.726 120.178 287.021 120.466 287.036 120.834V120.85Z" fill="#BDD0FB"/>
</g>
</g>
<path d="M261.905 96.1922C265.035 96.1922 267.573 93.572 267.573 90.3398C267.573 87.1075 265.035 84.4873 261.905 84.4873C258.775 84.4873 256.238 87.1075 256.238 90.3398C256.238 93.572 258.775 96.1922 261.905 96.1922Z" fill="url(#paint57_linear)"/>
<path opacity="0.71" d="M257.229 88.1332C257.198 88.1332 257.167 88.1332 257.136 88.1013C257.028 88.0373 256.981 87.9094 257.043 87.7974C257.972 85.8946 259.846 84.6953 261.921 84.6953C262.246 84.6953 262.587 84.7273 262.912 84.7913C263.036 84.8072 263.113 84.9352 263.082 85.0631C263.067 85.191 262.943 85.271 262.819 85.239C262.525 85.191 262.215 85.159 261.921 85.159C260.016 85.159 258.297 86.2464 257.446 88.0053C257.399 88.0853 257.322 88.1332 257.229 88.1332Z" fill="white"/>
<path opacity="0.71" d="M265.427 93.9751C267.302 92.0393 267.302 88.9007 265.427 86.9649C263.553 85.0291 260.514 85.0291 258.639 86.9649C256.765 88.9007 256.765 92.0393 258.639 93.9751C260.514 95.9109 263.553 95.9109 265.427 93.9751Z" fill="white"/>
<path d="M261.565 94.1455V93.6018C261.023 93.5858 260.481 93.4419 260.094 93.266C259.954 93.202 259.892 93.0421 259.923 92.8982L260.063 92.4025C260.109 92.2106 260.31 92.1307 260.481 92.1946C260.852 92.3545 261.332 92.4825 261.828 92.4825C262.354 92.4825 262.741 92.3066 262.741 91.9228C262.741 91.587 262.432 91.3791 261.704 91.1873C260.667 90.8994 259.923 90.4197 259.923 89.4763C259.923 88.6288 260.527 87.9732 261.58 87.7973V87.2536C261.58 87.0778 261.72 86.9338 261.89 86.9338H262.2C262.37 86.9338 262.509 87.0778 262.509 87.2536V87.7334C263.02 87.7493 263.376 87.8453 263.671 87.9412C263.825 87.9892 263.903 88.1651 263.856 88.325L263.732 88.7887C263.686 88.9646 263.5 89.0605 263.33 88.9966C263.067 88.8846 262.68 88.7887 262.184 88.7887C261.565 88.7887 261.379 89.0605 261.379 89.3004C261.379 89.5882 261.75 89.7961 262.556 90.0519C263.717 90.4037 264.197 90.8994 264.197 91.7949C264.197 92.6104 263.609 93.3459 262.478 93.5218V94.1295C262.478 94.3054 262.339 94.4493 262.169 94.4493H261.859C261.704 94.4493 261.565 94.3214 261.565 94.1455Z" fill="url(#paint58_linear)"/>
<path d="M278.597 93.3299C284.045 93.3299 288.461 88.7696 288.461 83.1441C288.461 77.5186 284.045 72.9583 278.597 72.9583C273.15 72.9583 268.734 77.5186 268.734 83.1441C268.734 88.7696 273.15 93.3299 278.597 93.3299Z" fill="url(#paint59_linear)"/>
<path opacity="0.71" d="M270.468 79.1467C270.437 79.1467 270.406 79.1467 270.375 79.1147C270.267 79.0508 270.22 78.9228 270.282 78.8109C271.877 75.5488 275.067 73.5181 278.613 73.5181C279.17 73.5181 279.743 73.566 280.3 73.678C280.424 73.694 280.502 73.8219 280.471 73.9498C280.455 74.0777 280.331 74.1577 280.208 74.1257C279.681 74.0298 279.139 73.9818 278.597 73.9818C275.222 73.9818 272.171 75.9166 270.654 79.0348C270.623 79.0987 270.545 79.1467 270.468 79.1467Z" fill="white"/>
<path opacity="0.71" d="M282.107 91.2775C286.34 89.3945 288.293 84.3241 286.47 79.9525C284.647 75.5809 279.737 73.5636 275.503 75.4466C271.27 77.3297 269.316 82.4001 271.14 86.7717C272.963 91.1432 277.873 93.1606 282.107 91.2775Z" fill="white"/>
<path d="M277.993 89.7801V88.8366C277.049 88.8046 276.104 88.5648 275.438 88.261C275.206 88.149 275.082 87.8772 275.144 87.6214L275.376 86.7419C275.454 86.4221 275.794 86.2622 276.089 86.3901C276.754 86.6779 277.56 86.9018 278.442 86.9018C279.356 86.9018 280.037 86.582 280.037 85.9264C280.037 85.3347 279.511 84.983 278.241 84.6312C276.429 84.1195 275.129 83.304 275.129 81.657C275.129 80.1699 276.181 79.0346 278.009 78.7307V77.7873C278.009 77.4835 278.241 77.2437 278.535 77.2437H279.062C279.356 77.2437 279.588 77.4835 279.588 77.7873V78.6348C280.471 78.6668 281.105 78.8267 281.616 79.0026C281.88 79.0985 282.019 79.3864 281.942 79.6582L281.725 80.4737C281.647 80.7775 281.322 80.9534 281.028 80.8415C280.564 80.6656 279.898 80.4737 279.046 80.4737C277.962 80.4737 277.652 80.9374 277.652 81.3532C277.652 81.8649 278.303 82.2166 279.712 82.6644C281.725 83.288 282.561 84.1515 282.561 85.7025C282.561 87.1257 281.539 88.4049 279.557 88.7247V89.7801C279.557 90.0839 279.325 90.3237 279.031 90.3237H278.504C278.225 90.3397 277.993 90.0839 277.993 89.7801Z" fill="url(#paint60_linear)"/>
<path d="M285.643 117.188C291.253 117.188 295.8 112.491 295.8 106.698C295.8 100.905 291.253 96.2085 285.643 96.2085C280.033 96.2085 275.485 100.905 275.485 106.698C275.485 112.491 280.033 117.188 285.643 117.188Z" fill="url(#paint61_linear)"/>
<path opacity="0.71" d="M277.266 102.573C277.235 102.573 277.204 102.573 277.173 102.541C277.064 102.477 277.018 102.349 277.08 102.237C278.721 98.8789 282.004 96.7842 285.643 96.7842C286.231 96.7842 286.804 96.8322 287.377 96.9441C287.501 96.9601 287.578 97.088 287.547 97.2159C287.532 97.3438 287.408 97.4238 287.284 97.3918C286.742 97.2959 286.185 97.2319 285.627 97.2319C282.159 97.2319 279.015 99.2307 277.451 102.429C277.42 102.525 277.343 102.573 277.266 102.573Z" fill="white"/>
<path opacity="0.71" d="M293.758 110.385C295.605 105.871 293.559 100.665 289.187 98.7571C284.815 96.8495 279.774 98.9629 277.926 103.477C276.079 107.992 278.126 113.198 282.497 115.106C286.869 117.013 291.911 114.9 293.758 110.385Z" fill="white"/>
<path d="M285.023 113.526V112.566C284.048 112.518 283.088 112.294 282.406 111.975C282.159 111.863 282.035 111.575 282.112 111.319L282.345 110.424C282.437 110.088 282.778 109.928 283.088 110.056C283.769 110.344 284.605 110.583 285.503 110.583C286.448 110.583 287.145 110.248 287.145 109.576C287.145 108.968 286.603 108.601 285.302 108.249C283.444 107.721 282.097 106.89 282.097 105.195C282.097 103.66 283.181 102.492 285.054 102.189V101.229C285.054 100.925 285.302 100.669 285.596 100.669H286.138C286.432 100.669 286.68 100.925 286.68 101.229V102.093C287.578 102.125 288.244 102.284 288.755 102.476C289.018 102.572 289.173 102.876 289.096 103.148L288.879 103.979C288.802 104.299 288.461 104.475 288.167 104.363C287.687 104.171 287.005 103.979 286.123 103.979C285.008 103.979 284.698 104.459 284.698 104.891C284.698 105.419 285.364 105.77 286.82 106.234C288.894 106.874 289.746 107.769 289.746 109.352C289.746 110.807 288.693 112.135 286.665 112.454V113.542C286.665 113.845 286.417 114.101 286.123 114.101H285.581C285.256 114.085 285.023 113.829 285.023 113.526Z" fill="url(#paint62_linear)"/>
<path d="M299.114 99.5983C303.219 99.5983 306.547 96.1619 306.547 91.9229C306.547 87.6839 303.219 84.2476 299.114 84.2476C295.01 84.2476 291.682 87.6839 291.682 91.9229C291.682 96.1619 295.01 99.5983 299.114 99.5983Z" fill="url(#paint63_linear)"/>
<path opacity="0.71" d="M292.982 88.9486C292.951 88.9486 292.92 88.9486 292.889 88.9166C292.781 88.8527 292.735 88.7247 292.797 88.6128C294.004 86.1343 296.435 84.5833 299.13 84.5833C299.563 84.5833 299.997 84.6152 300.415 84.6952C300.539 84.7112 300.616 84.8391 300.585 84.967C300.57 85.0949 300.446 85.1749 300.322 85.1429C299.935 85.063 299.532 85.031 299.13 85.031C296.606 85.031 294.329 86.4701 293.184 88.8047C293.137 88.9166 293.06 88.9486 292.982 88.9486Z" fill="white"/>
<path opacity="0.71" d="M300.717 98.4066C304.106 97.5878 306.211 94.0869 305.418 90.5872C304.625 87.0874 301.235 84.914 297.846 85.7328C294.457 86.5516 292.352 90.0525 293.145 93.5522C293.938 97.052 297.328 99.2254 300.717 98.4066Z" fill="white"/>
<path d="M298.665 96.928V96.2244C297.953 96.1924 297.241 96.0165 296.745 95.7926C296.56 95.7127 296.482 95.5048 296.529 95.3129L296.699 94.6573C296.761 94.4175 297.024 94.2895 297.241 94.3855C297.736 94.5934 298.356 94.7693 299.022 94.7693C299.703 94.7693 300.229 94.5294 300.229 94.0337C300.229 93.586 299.827 93.3301 298.882 93.0583C297.52 92.6745 296.544 92.0669 296.544 90.8196C296.544 89.7003 297.334 88.8528 298.712 88.613V87.9094C298.712 87.6855 298.898 87.4937 299.114 87.4937H299.517C299.734 87.4937 299.92 87.6855 299.92 87.9094V88.549C300.586 88.581 301.066 88.6929 301.437 88.8368C301.638 88.9008 301.747 89.1247 301.685 89.3325L301.53 89.9402C301.468 90.18 301.22 90.308 301.004 90.212C300.647 90.0681 300.152 89.9242 299.502 89.9242C298.681 89.9242 298.449 90.276 298.449 90.5798C298.449 90.9636 298.944 91.2354 299.997 91.5712C301.515 92.0349 302.149 92.6905 302.149 93.8578C302.149 94.9292 301.375 95.8886 299.889 96.1284V96.928C299.889 97.1518 299.703 97.3437 299.486 97.3437H299.084C298.836 97.3277 298.665 97.1518 298.665 96.928Z" fill="url(#paint64_linear)"/>
<path d="M103.144 197.923C102.664 197.923 102.168 197.683 101.657 197.187C99.6132 195.252 99.1332 192.214 99.0248 189.368C98.0338 190.519 97.0273 191.639 96.0208 192.742L95.6802 192.406C96.7951 191.191 97.9099 189.944 98.9938 188.664C98.9009 184.843 99.0712 180.989 99.5048 177.199C99.768 174.897 100.14 172.45 101.1 170.228C101.409 169.524 101.905 168.533 102.772 167.909C103.655 167.269 104.816 167.205 105.575 167.733C106.442 168.341 106.674 169.492 106.782 170.324C107.402 175.265 105.528 179.79 103.856 182.732C102.602 184.923 101.084 186.937 99.4739 188.856C99.5513 191.735 99.9384 194.917 101.982 196.851C102.431 197.267 102.834 197.475 103.206 197.459C103.825 197.443 104.305 196.851 104.692 196.276C106.395 193.765 107.712 191.047 108.625 188.153C108.734 187.305 108.966 186.458 109.306 185.674L109.74 185.834C109.554 186.65 109.322 187.465 109.074 188.265C108.981 189.096 109.012 189.944 109.167 190.759C109.26 191.207 109.616 192.678 110.7 192.902C111.521 193.062 112.326 192.47 113.224 191.047L116.398 186.058L116.104 187.369C115.934 188.105 115.671 189.864 116.708 190.311C117.312 190.567 117.931 190.2 118.597 189.816C119.232 189.448 119.898 189.048 120.641 189.16L120.873 189.192L120.827 189.432C120.656 190.455 120.749 191.719 121.539 191.894C122.066 192.022 122.499 191.607 122.995 191.127C123.413 190.727 123.846 190.311 124.404 190.184L124.512 190.647C124.079 190.759 123.691 191.127 123.32 191.479C122.778 191.99 122.22 192.534 121.446 192.358C120.393 192.118 120.176 190.823 120.331 189.608C119.836 189.624 119.34 189.912 118.814 190.215C118.086 190.647 117.327 191.079 116.522 190.743C115.763 190.423 115.407 189.576 115.485 188.361L113.611 191.303C112.961 192.31 111.954 193.637 110.607 193.366C109.678 193.19 108.966 192.246 108.703 190.855C108.625 190.487 108.579 190.104 108.563 189.736C107.665 192.134 106.504 194.421 105.048 196.564C104.599 197.235 104.026 197.923 103.206 197.955C103.19 197.923 103.175 197.923 103.144 197.923ZM104.367 167.861C103.918 167.861 103.438 168.021 103.035 168.309C102.261 168.868 101.812 169.796 101.518 170.435C100.573 172.594 100.217 174.993 99.9539 177.263C99.5513 180.861 99.3809 184.507 99.4429 188.137C100.914 186.362 102.292 184.507 103.453 182.492C105.095 179.63 106.922 175.201 106.318 170.387C106.179 169.236 105.853 168.517 105.311 168.133C105.048 167.941 104.723 167.861 104.367 167.861Z" fill="url(#paint65_linear)"/>
<path d="M93.5119 10.2764L92.5983 11.0279C92.428 11.1718 92.1803 11.1399 92.0409 10.964C91.9015 10.7881 91.9325 10.5322 92.1028 10.3883L93.0164 9.63677C93.1868 9.49286 93.4345 9.52484 93.5584 9.70074C93.7132 9.87663 93.6823 10.1325 93.5119 10.2764Z" fill="white"/>
<path d="M90.4928 12.8189L89.5947 13.5864C89.4244 13.7303 89.1766 13.7143 89.0218 13.5384C88.8824 13.3625 88.8979 13.1067 89.0683 12.9468L89.9818 12.1793C90.1521 12.0353 90.3999 12.0673 90.5393 12.2432C90.6786 12.4031 90.6631 12.6749 90.4928 12.8189Z" fill="white"/>
<path d="M87.4885 15.3773L86.5904 16.1608C86.4201 16.3207 86.1569 16.2887 86.002 16.1128C85.8472 15.9369 85.8782 15.6651 86.0485 15.5052L86.9465 14.7217C87.1169 14.5777 87.3801 14.5937 87.5194 14.7696C87.6898 14.9615 87.6588 15.2333 87.4885 15.3773Z" fill="white"/>
<path d="M84.5311 17.9999L83.6484 18.7994C83.4781 18.9593 83.1994 18.9433 83.0445 18.7514C82.8897 18.5755 82.9052 18.2877 83.091 18.1278L83.9736 17.3283C84.1439 17.1684 84.4072 17.1843 84.562 17.3762C84.7169 17.5681 84.7014 17.84 84.5311 17.9999Z" fill="white"/>
<path d="M81.6045 20.6541L80.7374 21.4696C80.5671 21.6295 80.2884 21.6295 80.1335 21.4377C79.9787 21.2618 79.9787 20.9739 80.1645 20.814L81.0316 19.9985C81.2019 19.8386 81.4807 19.8546 81.6355 20.0305C81.8058 20.2224 81.7903 20.4942 81.6045 20.6541Z" fill="white"/>
<path d="M78.7556 23.3884L77.904 24.2199C77.7336 24.3958 77.4394 24.3798 77.2846 24.2039C77.1142 24.028 77.1297 23.7242 77.3001 23.5643L78.1517 22.7328C78.3221 22.5569 78.6008 22.5729 78.7711 22.7488C78.9414 22.9247 78.9259 23.2125 78.7556 23.3884Z" fill="white"/>
<path d="M75.9529 26.1868L75.1322 27.0343C74.9619 27.2102 74.6677 27.2102 74.4974 27.0343C74.327 26.8584 74.327 26.5546 74.4974 26.3787L75.3335 25.5152C75.5038 25.3393 75.798 25.3393 75.9684 25.5152C76.1387 25.7071 76.1387 26.0109 75.9529 26.1868Z" fill="white"/>
<path d="M73.2429 29.065L72.4532 29.9445C72.2829 30.1364 71.9887 30.1523 71.8029 29.9605C71.6171 29.7846 71.6016 29.4808 71.7874 29.2889L72.5926 28.4094C72.7629 28.2175 73.0571 28.2175 73.2429 28.3934C73.4133 28.5693 73.4133 28.8731 73.2429 29.065Z" fill="white"/>
<path d="M70.6107 32.0234L69.8365 32.9348C69.6661 33.1427 69.3719 33.1587 69.1706 32.9828C68.9693 32.8069 68.9539 32.5031 69.1242 32.2952L69.8984 31.3837C70.0687 31.1759 70.3629 31.1599 70.5642 31.3358C70.7655 31.5117 70.7965 31.8155 70.6107 32.0234Z" fill="white"/>
<path d="M68.1021 35.0774L67.3589 36.0208C67.1885 36.2287 66.8943 36.2607 66.6775 36.1008C66.4762 35.9249 66.4453 35.6211 66.6001 35.3972L67.3434 34.4538C67.5137 34.2459 67.8079 34.2139 68.0247 34.3898C68.2415 34.5497 68.2724 34.8695 68.1021 35.0774Z" fill="white"/>
<path d="M65.7019 38.2276L65.0051 39.187C64.8503 39.4108 64.5406 39.4588 64.3238 39.2989C64.1071 39.139 64.0606 38.8192 64.2154 38.5953L64.9277 37.6199C65.0826 37.3961 65.3922 37.3481 65.609 37.524C65.8258 37.6839 65.8568 38.0037 65.7019 38.2276Z" fill="white"/>
<path d="M63.4261 41.4896L62.7758 42.481C62.621 42.7209 62.3113 42.7848 62.079 42.6249C61.8468 42.465 61.7849 42.1452 61.9397 41.9054L62.6055 40.898C62.7603 40.6581 63.07 40.5942 63.3023 40.7701C63.5345 40.93 63.5965 41.2498 63.4261 41.4896Z" fill="white"/>
<path d="M61.3199 44.8475L60.7161 45.8709C60.5767 46.1267 60.2515 46.2067 60.0193 46.0468C59.7715 45.9028 59.6941 45.5671 59.8489 45.3272L60.4683 44.2878C60.6077 44.048 60.9328 43.968 61.1651 44.112C61.3974 44.2719 61.4748 44.5917 61.3199 44.8475Z" fill="white"/>
<path d="M59.369 48.3014L58.8116 49.3568C58.6722 49.6126 58.3625 49.7246 58.0993 49.5807C57.8515 49.4368 57.7431 49.1169 57.8825 48.8451L58.4399 47.7738C58.5793 47.5179 58.889 47.422 59.1367 47.5659C59.4155 47.7098 59.5084 48.0296 59.369 48.3014Z" fill="white"/>
<path d="M57.5884 51.8513L57.0929 52.9387V52.9546C56.969 53.2265 56.6438 53.3544 56.3806 53.2105C56.1173 53.0826 55.9935 52.7468 56.1328 52.4749L56.6438 51.3716C56.7677 51.0998 57.0929 50.9879 57.3561 51.1158C57.6039 51.2597 57.7278 51.5795 57.5884 51.8513Z" fill="white"/>
<path d="M56.009 55.5131L55.5754 56.6324V56.6484C55.467 56.9362 55.1418 57.0801 54.8631 56.9522C54.5844 56.8403 54.445 56.5045 54.5689 56.2167L55.018 55.0814C55.1264 54.7936 55.4515 54.6656 55.7148 54.7776C55.9935 54.8895 56.1329 55.2093 56.009 55.5131Z" fill="white"/>
<path d="M54.6463 59.2389L54.2747 60.3743V60.3903C54.1818 60.6781 53.8721 60.838 53.5779 60.7421C53.2992 60.6461 53.1443 60.3263 53.2372 60.0225L53.6088 58.8711C53.7017 58.5833 54.0114 58.4234 54.3056 58.5193C54.5844 58.6153 54.7392 58.9351 54.6463 59.2389Z" fill="white"/>
<path d="M53.5003 63.0605L53.2061 64.2118V64.2278C53.1287 64.5316 52.8345 64.7075 52.5403 64.6275C52.2461 64.5476 52.0757 64.2438 52.1532 63.9399L52.4629 62.7567C52.5403 62.4528 52.8345 62.277 53.1287 62.3569C53.4074 62.4369 53.5777 62.7567 53.5003 63.0605Z" fill="white"/>
<path d="M52.6024 66.9462L52.3857 68.1135V68.1295C52.3237 68.4333 52.045 68.6412 51.7353 68.5773C51.4411 68.5133 51.2398 68.2255 51.3018 67.9057L51.5185 66.7064C51.5805 66.4026 51.8592 66.1947 52.1689 66.2587C52.4631 66.3226 52.6644 66.6264 52.6024 66.9462Z" fill="white"/>
<path d="M51.9828 70.8797L51.8435 72.063V72.079C51.8125 72.3988 51.5337 72.6227 51.224 72.5907C50.9143 72.5587 50.6976 72.2709 50.7285 71.9511L50.8679 70.7358C50.8989 70.416 51.1776 70.1921 51.4873 70.2401C51.797 70.2721 52.0138 70.5439 51.9828 70.8797Z" fill="white"/>
<path d="M51.6423 74.8453L51.5958 76.0446V76.0606C51.5803 76.3804 51.3326 76.6362 51.0229 76.6202C50.7132 76.6042 50.4654 76.3484 50.4809 76.0286L50.5274 74.8133C50.5428 74.4935 50.8061 74.2537 51.1003 74.2537C51.41 74.2537 51.6423 74.5095 51.6423 74.8453Z" fill="white"/>
<path d="M51.6113 78.827L51.6732 80.0263V80.0423C51.6887 80.3621 51.4409 80.6339 51.1313 80.6499C50.8216 80.6659 50.5583 80.4101 50.5428 80.0902L50.4809 78.875C50.4654 78.5552 50.7132 78.2833 51.0229 78.2674C51.3326 78.2514 51.5958 78.4912 51.6113 78.827Z" fill="white"/>
<path d="M51.9056 82.7926L52.0604 83.9758V83.9918C52.1069 84.3116 51.8901 84.5994 51.5804 84.6474C51.2707 84.6954 50.992 84.4715 50.9455 84.1517L50.7907 82.9365C50.7442 82.6167 50.961 82.3288 51.2707 82.2809C51.5804 82.2329 51.8746 82.4568 51.9056 82.7926Z" fill="white"/>
<path d="M52.5249 86.7262L52.7727 87.8935V87.9095C52.8346 88.2293 52.6488 88.5331 52.3391 88.613C52.0294 88.677 51.7352 88.4851 51.6578 88.1653L51.4101 86.966C51.3481 86.6462 51.5339 86.3424 51.8436 86.2625C52.1533 86.1985 52.463 86.3904 52.5249 86.7262Z" fill="white"/>
<path d="M53.4695 90.5797L53.8102 91.715V91.731C53.9031 92.0508 53.7328 92.3706 53.4386 92.4665C53.1289 92.5625 52.8192 92.3866 52.7263 92.0828L52.3701 90.9155C52.2772 90.6117 52.4476 90.2759 52.7418 90.18C53.0515 90.084 53.3766 90.2599 53.4695 90.5797Z" fill="white"/>
<path d="M54.7392 94.3376L55.1882 95.441V95.457C55.3121 95.7608 55.1727 96.1126 54.8785 96.2405C54.5843 96.3684 54.2437 96.2245 54.1198 95.9207L53.6707 94.7853C53.5469 94.4815 53.6862 94.1297 53.9804 94.0018C54.2746 93.8739 54.6153 94.0178 54.7392 94.3376Z" fill="white"/>
<path d="M56.334 97.9515L56.8759 99.0068L56.8914 99.0228C57.0462 99.3106 56.9378 99.6784 56.6436 99.8383C56.3649 99.9982 56.0088 99.8863 55.8539 99.5824L55.2965 98.4951C55.1417 98.2073 55.25 97.8395 55.5442 97.6796C55.823 97.5357 56.1791 97.6477 56.334 97.9515Z" fill="white"/>
<path d="M58.2539 101.389L58.8888 102.381L58.9043 102.397C59.0901 102.669 59.0127 103.052 58.7494 103.228C58.4862 103.42 58.1146 103.34 57.9443 103.068L57.2939 102.045C57.1236 101.773 57.1855 101.389 57.4642 101.213C57.6965 101.022 58.0681 101.102 58.2539 101.389Z" fill="white"/>
<path d="M60.4995 104.619L61.2427 105.531L61.2582 105.547C61.4595 105.803 61.4285 106.186 61.1808 106.394C60.933 106.602 60.5614 106.57 60.3601 106.314L59.6014 105.371C59.4001 105.115 59.431 104.731 59.6788 104.523C59.9111 104.3 60.2827 104.348 60.4995 104.619Z" fill="white"/>
<path d="M63.0543 107.562L63.875 108.393L63.8905 108.409C64.1227 108.649 64.1382 109.033 63.906 109.273C63.6737 109.512 63.3021 109.528 63.0698 109.289L62.2182 108.441C61.9859 108.201 61.9859 107.818 62.2027 107.578C62.435 107.322 62.8066 107.322 63.0543 107.562Z" fill="white"/>
<path d="M65.9186 110.2L66.8322 110.919L66.8477 110.935C67.1109 111.143 67.1574 111.527 66.9561 111.799C66.7548 112.071 66.3832 112.118 66.1199 111.911L65.1754 111.159C64.9121 110.951 64.8657 110.567 65.067 110.296C65.2683 110.024 65.6399 109.976 65.9031 110.184L65.9186 110.2Z" fill="white"/>
<path d="M69.0623 112.47L70.0533 113.078L70.0688 113.094C70.3475 113.27 70.4404 113.654 70.27 113.941C70.0997 114.229 69.7281 114.325 69.4494 114.149L68.4274 113.51C68.1487 113.334 68.0558 112.95 68.2261 112.662C68.3964 112.374 68.7681 112.278 69.0468 112.454L69.0623 112.47Z" fill="white"/>
<path d="M72.4223 114.374L73.4752 114.869L73.4907 114.885C73.7849 115.029 73.9243 115.397 73.7849 115.701C73.6456 116.005 73.2894 116.148 72.9952 116.005L71.9113 115.493C71.6171 115.349 71.4778 114.981 71.6171 114.677C71.7565 114.374 72.1126 114.23 72.4068 114.374H72.4223Z" fill="white"/>
<path d="M75.9683 115.892L77.0522 116.276H77.0676C77.3773 116.388 77.5477 116.74 77.4393 117.076C77.3309 117.395 76.9902 117.571 76.6651 117.459L75.5347 117.06C75.225 116.948 75.0547 116.596 75.1631 116.276C75.2715 115.956 75.6121 115.78 75.9218 115.892H75.9683Z" fill="white"/>
<path d="M79.638 117.044L80.7683 117.315H80.7838C81.109 117.395 81.3103 117.731 81.2329 118.067C81.1554 118.403 80.8303 118.611 80.5051 118.531L79.3438 118.243C79.0186 118.163 78.8173 117.827 78.8947 117.491C78.9722 117.156 79.2973 116.948 79.6225 117.028L79.638 117.044Z" fill="white"/>
<path d="M83.4163 117.843L84.5621 118.003H84.5776C84.9183 118.051 85.1505 118.371 85.1041 118.723C85.0576 119.074 84.7479 119.314 84.4073 119.266L83.2305 119.09C82.8898 119.042 82.6575 118.723 82.7195 118.371C82.7504 118.019 83.0601 117.779 83.4163 117.843Z" fill="white"/>
<path d="M87.2411 118.259L88.3869 118.323H88.4024C88.743 118.339 89.0063 118.643 88.9908 118.995C88.9753 119.346 88.6811 119.618 88.3404 119.602L87.1482 119.538C86.8075 119.522 86.5443 119.218 86.5752 118.867C86.5907 118.515 86.8849 118.243 87.2411 118.259Z" fill="white"/>
<path d="M91.0809 118.339L92.2422 118.291H92.2577C92.5983 118.275 92.8925 118.547 92.8925 118.898C92.908 119.25 92.6448 119.554 92.3041 119.554L91.1118 119.602C90.7712 119.618 90.4925 119.346 90.477 118.994C90.4615 118.643 90.7247 118.355 91.0809 118.339Z" fill="white"/>
<path d="M94.921 118.067L96.0669 117.923H96.0824C96.423 117.875 96.7327 118.131 96.7792 118.483C96.8256 118.834 96.5779 119.154 96.2372 119.202L95.0604 119.346C94.7197 119.394 94.4101 119.138 94.3636 118.786C94.3326 118.435 94.5649 118.115 94.921 118.067Z" fill="white"/>
<path d="M98.7301 117.46L99.8605 117.204H99.876C100.217 117.124 100.542 117.348 100.619 117.7C100.697 118.051 100.48 118.387 100.139 118.467L98.9779 118.723C98.6372 118.803 98.3121 118.579 98.2346 118.227C98.1572 117.891 98.374 117.54 98.7301 117.46Z" fill="white"/>
<path d="M102.462 116.516L103.562 116.164H103.577C103.902 116.068 104.258 116.26 104.367 116.596C104.46 116.932 104.274 117.299 103.949 117.395L102.818 117.747C102.493 117.843 102.137 117.651 102.044 117.315C101.936 116.996 102.121 116.628 102.462 116.516Z" fill="white"/>
<path d="M106.132 115.269L107.216 114.837H107.231C107.557 114.709 107.928 114.869 108.052 115.205C108.176 115.541 108.021 115.925 107.696 116.053L106.597 116.484C106.271 116.612 105.9 116.452 105.776 116.117C105.621 115.781 105.791 115.413 106.132 115.269Z" fill="white"/>
<path d="M109.678 113.75L110.731 113.238H110.746C111.056 113.078 111.443 113.222 111.598 113.558C111.753 113.878 111.613 114.277 111.288 114.437L110.22 114.965C109.91 115.125 109.523 114.981 109.383 114.645C109.213 114.293 109.352 113.91 109.678 113.75Z" fill="white"/>
<path d="M113.131 111.959L114.137 111.367H114.153C114.462 111.191 114.85 111.303 115.02 111.623C115.19 111.943 115.082 112.343 114.772 112.519L113.735 113.11C113.425 113.286 113.038 113.174 112.868 112.854C112.697 112.535 112.806 112.135 113.131 111.959Z" fill="white"/>
<path d="M116.46 109.928L117.435 109.272H117.451C117.745 109.08 118.147 109.16 118.333 109.464C118.519 109.768 118.442 110.184 118.147 110.376L117.156 111.031C116.862 111.223 116.46 111.143 116.274 110.839C116.057 110.535 116.15 110.12 116.46 109.928Z" fill="white"/>
<path d="M119.65 107.674L120.579 106.97H120.594C120.873 106.746 121.291 106.81 121.492 107.114C121.709 107.402 121.647 107.833 121.353 108.041L120.409 108.761C120.13 108.985 119.712 108.921 119.51 108.617C119.294 108.313 119.356 107.897 119.65 107.674Z" fill="white"/>
<path d="M122.7 105.243L123.598 104.475H123.614C123.893 104.236 124.295 104.284 124.527 104.555C124.76 104.843 124.713 105.259 124.45 105.499L123.536 106.282C123.258 106.522 122.855 106.474 122.623 106.202C122.391 105.899 122.422 105.483 122.7 105.243Z" fill="white"/>
<path d="M125.627 102.62L126.478 101.805C126.742 101.549 127.16 101.565 127.392 101.837C127.64 102.109 127.624 102.54 127.361 102.78L126.494 103.612C126.231 103.868 125.813 103.852 125.58 103.58C125.333 103.308 125.348 102.876 125.627 102.62Z" fill="white"/>
<path d="M128.414 99.8384L129.219 98.975C129.467 98.7031 129.885 98.7031 130.148 98.959C130.411 99.2148 130.411 99.6465 130.164 99.9184L129.343 100.798C129.095 101.07 128.677 101.07 128.414 100.814C128.151 100.542 128.151 100.126 128.414 99.8384Z" fill="white"/>
<path d="M131.046 96.9281L131.805 96.0166V96.0006C132.037 95.7128 132.455 95.6808 132.734 95.9367C133.013 96.1765 133.044 96.6083 132.796 96.8961L132.022 97.8076C131.789 98.0954 131.371 98.1114 131.093 97.8715C130.829 97.6317 130.798 97.2159 131.046 96.9281Z" fill="white"/>
<path d="M133.524 93.8578L134.221 92.9144L134.236 92.8984C134.453 92.5946 134.871 92.5466 135.165 92.7705C135.459 92.9944 135.506 93.4261 135.289 93.7299L134.561 94.7053C134.344 95.0091 133.926 95.0571 133.632 94.8332C133.353 94.5934 133.292 94.1776 133.524 93.8578Z" fill="white"/>
<path d="M135.769 90.6278L136.388 89.6204L136.404 89.6044C136.605 89.2846 137.008 89.1886 137.317 89.3965C137.627 89.6044 137.72 90.0201 137.519 90.3399L136.884 91.3793C136.683 91.6991 136.28 91.7951 135.97 91.5872C135.645 91.3953 135.552 90.9636 135.769 90.6278Z" fill="white"/>
<path d="M137.72 87.2218L138.231 86.1665L138.247 86.1505C138.417 85.8147 138.82 85.6708 139.145 85.8467C139.47 86.0226 139.609 86.4383 139.439 86.7741L138.897 87.8774C138.727 88.2132 138.324 88.3571 137.999 88.1812C137.674 88.0053 137.534 87.5896 137.705 87.2538L137.72 87.2218Z" fill="white"/>
<path d="M139.284 83.6241L139.656 82.5048L139.671 82.4728C139.795 82.105 140.182 81.9132 140.523 82.0411C140.879 82.169 141.065 82.5688 140.941 82.9205L140.538 84.0878C140.414 84.4556 140.027 84.6315 139.686 84.5196C139.33 84.3916 139.16 83.9919 139.268 83.6401L139.284 83.6241Z" fill="white"/>
<path d="M140.337 79.8662L140.538 78.7149V78.6829C140.6 78.2992 140.956 78.0433 141.312 78.1233C141.684 78.1873 141.932 78.555 141.854 78.9228L141.637 80.154C141.576 80.5378 141.219 80.7777 140.863 80.7137C140.492 80.6497 140.259 80.282 140.321 79.9142L140.337 79.8662Z" fill="white"/>
<path d="M140.739 75.9967L140.708 74.8294V74.7814C140.693 74.3977 141.003 74.0778 141.374 74.0619C141.746 74.0459 142.055 74.3657 142.071 74.7494L142.102 75.9967C142.102 76.3804 141.808 76.7002 141.436 76.7162C141.064 76.7162 140.755 76.4124 140.739 76.0287V75.9967Z" fill="white"/>
<path d="M140.383 72.1429L140.12 71.0236L140.105 70.9756C140.012 70.5919 140.244 70.2241 140.6 70.1281C140.972 70.0322 141.328 70.2721 141.421 70.6398L141.715 71.8551C141.808 72.2389 141.576 72.6067 141.219 72.7026C140.848 72.7985 140.492 72.5587 140.399 72.1909L140.383 72.1429Z" fill="white"/>
<path d="M139.207 68.4652L138.696 67.4258L138.68 67.3779C138.51 67.0261 138.649 66.6103 138.99 66.4344C139.33 66.2586 139.733 66.4025 139.903 66.7543L140.445 67.8736C140.616 68.2254 140.476 68.6411 140.136 68.817C139.795 68.9929 139.392 68.849 139.222 68.4972L139.207 68.4652Z" fill="white"/>
<path d="M137.287 65.1391L136.59 64.2277L136.559 64.1957C136.327 63.8919 136.373 63.4442 136.667 63.2043C136.961 62.9645 137.395 63.0124 137.627 63.3162L138.371 64.3076C138.603 64.6114 138.556 65.0592 138.247 65.299C137.952 65.5389 137.519 65.4909 137.287 65.1711V65.1391Z" fill="white"/>
<path d="M134.762 62.245L133.911 61.4775L133.88 61.4455C133.586 61.1896 133.555 60.7419 133.818 60.4381C134.066 60.1343 134.499 60.1023 134.793 60.3741L135.707 61.1896C136.001 61.4455 136.017 61.8932 135.769 62.1971C135.521 62.5009 135.088 62.5169 134.793 62.261L134.762 62.245Z" fill="white"/>
<path d="M131.774 59.8785L130.799 59.2708L130.768 59.2548C130.443 59.047 130.334 58.6152 130.535 58.2635C130.737 57.9277 131.155 57.8157 131.495 58.0236L132.533 58.6632C132.858 58.8711 132.967 59.3028 132.765 59.6546C132.564 59.9904 132.146 60.1023 131.805 59.8944L131.774 59.8785Z" fill="white"/>
<path d="M128.429 58.0714L127.377 57.6557L127.346 57.6397C126.989 57.4958 126.804 57.08 126.943 56.7123C127.082 56.3445 127.485 56.1526 127.841 56.2965L128.971 56.7442C129.328 56.8882 129.513 57.3039 129.374 57.6717C129.235 58.0395 128.832 58.2313 128.476 58.0874L128.429 58.0714Z" fill="white"/>
<path d="M124.821 56.9041L123.707 56.6962H123.66C123.289 56.6323 123.041 56.2485 123.103 55.8647C123.165 55.481 123.521 55.2251 123.908 55.2891L125.1 55.513C125.472 55.5769 125.72 55.9447 125.658 56.3444C125.596 56.7282 125.24 56.9841 124.852 56.9201L124.821 56.9041Z" fill="white"/>
<path d="M121.074 56.4565H119.944H119.913C119.541 56.4565 119.232 56.1367 119.232 55.7529C119.232 55.3691 119.541 55.0493 119.913 55.0493H121.121C121.492 55.0493 121.802 55.3691 121.802 55.7529C121.802 56.1367 121.492 56.4565 121.121 56.4565H121.074Z" fill="white"/>
<path d="M117.281 56.6644L116.15 56.8563H116.119C115.748 56.9202 115.391 56.6484 115.345 56.2646C115.283 55.8809 115.531 55.5291 115.902 55.4651L117.095 55.2732C117.466 55.2092 117.822 55.4651 117.869 55.8649C117.931 56.2486 117.668 56.6164 117.296 56.6644H117.281Z" fill="white"/>
<path d="M113.58 57.4798L112.496 57.8316L112.465 57.8476C112.109 57.9595 111.722 57.7517 111.613 57.3839C111.505 57.0161 111.691 56.6164 112.062 56.5044L113.208 56.1366C113.564 56.0247 113.951 56.2166 114.06 56.6004C114.168 56.9681 113.982 57.3679 113.611 57.4798H113.58Z" fill="white"/>
<path d="M110.003 58.8551L108.965 59.3668L108.934 59.3828C108.594 59.5427 108.191 59.3987 108.036 59.047C107.881 58.6952 108.021 58.2794 108.361 58.1195L109.445 57.5918C109.786 57.4319 110.189 57.5759 110.343 57.9276C110.498 58.2794 110.359 58.6952 110.018 58.8551H110.003Z" fill="white"/>
<path d="M106.643 60.694L105.683 61.3337L105.668 61.3496C105.358 61.5575 104.94 61.4616 104.738 61.1418C104.537 60.822 104.63 60.3902 104.94 60.1823L105.946 59.5107C106.256 59.3029 106.674 59.3988 106.875 59.7186C107.077 60.0384 106.984 60.4702 106.674 60.6781L106.643 60.694Z" fill="white"/>
<path d="M103.53 62.9805L102.648 63.748L102.632 63.764C102.354 64.0039 101.936 63.9719 101.688 63.6841C101.456 63.3963 101.486 62.9645 101.765 62.7087L102.679 61.9092C102.957 61.6693 103.376 61.7013 103.623 61.9891C103.856 62.2769 103.825 62.7087 103.546 62.9645L103.53 62.9805Z" fill="white"/>
<path d="M100.728 65.6508L99.9536 66.5143L99.9381 66.5303C99.6903 66.8021 99.2722 66.8341 98.9935 66.5622C98.7303 66.3064 98.6993 65.8747 98.9471 65.5868L99.7523 64.6754C100 64.4036 100.418 64.3716 100.697 64.6274C100.96 64.8833 100.991 65.315 100.743 65.6028L100.728 65.6508Z" fill="white"/>
<path d="M98.2502 68.6568L97.5689 69.6162L97.5534 69.6322C97.3367 69.936 96.9186 70 96.6244 69.7761C96.3302 69.5523 96.2683 69.1205 96.485 68.8167L97.1818 67.8253C97.3986 67.5215 97.8167 67.4575 98.1109 67.6814C98.4051 67.9053 98.467 68.337 98.2502 68.6408V68.6568Z" fill="white"/>
<path d="M96.098 71.9352L95.5251 72.9586L95.5096 72.9746C95.3238 73.2944 94.9212 73.4063 94.6115 73.2144C94.3018 73.0225 94.1935 72.6068 94.3793 72.287L94.9832 71.2156C95.169 70.8958 95.5716 70.7839 95.8812 70.9758C96.1909 71.1676 96.2993 71.5834 96.1135 71.9032L96.098 71.9352Z" fill="white"/>
<path d="M94.2864 75.437L93.8064 76.5244V76.5403C93.6516 76.8761 93.2645 77.0201 92.9393 76.8761C92.6141 76.7162 92.4748 76.3165 92.6141 75.9807L93.1096 74.8614C93.2645 74.5256 93.6516 74.3657 93.9767 74.5256C94.3019 74.6855 94.4568 75.0852 94.3019 75.421L94.2864 75.437Z" fill="white"/>
<path d="M92.7841 79.0828L92.397 80.2021V80.2181C92.2731 80.5699 91.9014 80.7457 91.5608 80.6178C91.2201 80.4899 91.0498 80.1061 91.1737 79.7543L91.5763 78.6031C91.7001 78.2513 92.0718 78.0754 92.4124 78.2033C92.7531 78.3312 92.9234 78.715 92.7996 79.0668L92.7841 79.0828Z" fill="white"/>
<path d="M91.5764 82.8725L91.2668 84.0238V84.0398C91.1739 84.3916 90.8177 84.5995 90.4771 84.5035C90.1364 84.4076 89.9351 84.0398 90.028 83.688L90.3377 82.5047C90.4306 82.1529 90.7867 81.9291 91.1274 82.041C91.4681 82.1209 91.6848 82.4887 91.5764 82.8725Z" fill="white"/>
<path d="M90.6629 86.742L90.4461 87.9093V87.9253C90.3842 88.2931 90.0436 88.5169 89.6875 88.453C89.3314 88.389 89.1146 88.0372 89.1765 87.6695L89.3933 86.4702C89.4552 86.1024 89.7959 85.8785 90.152 85.9425C90.5081 86.0065 90.7403 86.3583 90.6629 86.742Z" fill="white"/>
<path d="M90.0282 90.6599L89.8888 91.8432V91.8592C89.8424 92.227 89.5327 92.4828 89.1766 92.4348C88.8204 92.3869 88.5727 92.0671 88.6191 91.6993L88.7585 90.484C88.8049 90.1162 89.1146 89.8604 89.4708 89.9084C89.8114 89.9563 90.0746 90.2921 90.0282 90.6599Z" fill="white"/>
<path d="M89.6409 94.6255L89.579 95.8248V95.8407C89.5635 96.2085 89.2538 96.4803 88.9132 96.4644C88.557 96.4484 88.2938 96.1286 88.3092 95.7768L88.3712 94.5615C88.3867 94.1938 88.6964 93.9219 89.037 93.9379C89.3932 93.9379 89.6564 94.2577 89.6409 94.6255Z" fill="white"/>
<path d="M89.5017 98.6068L89.5171 99.8061V99.822C89.5171 100.19 89.2384 100.478 88.8823 100.478C88.5261 100.478 88.2474 100.19 88.2474 99.822L88.2319 98.6068C88.2319 98.239 88.5107 97.9512 88.8668 97.9512C89.2229 97.9512 89.5017 98.239 89.5017 98.6068Z" fill="white"/>
<path d="M89.6253 102.604L89.7028 103.804V103.82C89.7337 104.171 89.4705 104.491 89.1144 104.507C88.7737 104.539 88.464 104.267 88.4485 103.9L88.3711 102.684C88.3402 102.332 88.6034 102.013 88.9595 101.981C89.2847 101.965 89.5944 102.237 89.6253 102.604Z" fill="white"/>
<path d="M89.966 106.57L90.1209 107.753V107.769C90.1673 108.121 89.9196 108.441 89.5789 108.489C89.2383 108.537 88.9286 108.281 88.8821 107.929L88.7273 106.714C88.6808 106.362 88.9286 106.026 89.2692 105.978C89.6099 105.962 89.9196 106.202 89.966 106.57Z" fill="white"/>
<path d="M90.5545 110.52L90.7712 111.703V111.719C90.8332 112.071 90.6164 112.407 90.2757 112.471C89.9351 112.535 89.6099 112.311 89.548 111.959L89.3157 110.76C89.2538 110.408 89.4706 110.072 89.8112 110.008C90.1674 109.928 90.4925 110.152 90.5545 110.52Z" fill="white"/>
<path d="M91.3595 114.421L91.6382 115.589V115.605C91.7156 115.94 91.5143 116.292 91.1891 116.388C90.864 116.468 90.5233 116.26 90.4304 115.924L90.1362 114.741C90.0588 114.405 90.2601 114.053 90.5852 113.957C90.9414 113.862 91.2665 114.069 91.3595 114.421Z" fill="white"/>
<path d="M92.3817 118.275L92.7223 119.426V119.442C92.8307 119.778 92.6449 120.13 92.3198 120.242C91.9946 120.354 91.654 120.162 91.5456 119.826L91.1894 118.659C91.0811 118.323 91.2669 117.971 91.592 117.859C91.9327 117.747 92.2733 117.939 92.3817 118.275Z" fill="white"/>
<path d="M93.6048 122.065L94.0074 123.184V123.2C94.1313 123.52 93.961 123.887 93.6513 124.015C93.3416 124.143 92.9855 123.967 92.8616 123.648L92.4435 122.512C92.3197 122.192 92.49 121.825 92.7997 121.697C93.1248 121.569 93.481 121.729 93.6048 122.065Z" fill="white"/>
<path d="M95.0294 125.775L95.4939 126.878V126.894C95.6333 127.214 95.4939 127.582 95.1843 127.725C94.8746 127.869 94.5184 127.725 94.3791 127.406L93.8991 126.286C93.7597 125.966 93.8991 125.599 94.2087 125.455C94.5339 125.311 94.8901 125.455 95.0294 125.775Z" fill="white"/>
<path d="M96.6555 129.42L97.182 130.492V130.508C97.3368 130.812 97.2129 131.195 96.9187 131.355C96.6245 131.515 96.2529 131.387 96.1135 131.083L95.5871 129.996C95.4322 129.692 95.5561 129.309 95.8503 129.149C96.129 128.973 96.5007 129.101 96.6555 129.42Z" fill="white"/>
<path d="M98.4515 132.954L99.0244 133.994V134.01C99.1947 134.313 99.0863 134.681 98.7921 134.857C98.498 135.033 98.1418 134.921 97.9715 134.617L97.3986 133.562C97.2283 133.258 97.3367 132.89 97.6154 132.714C97.9096 132.539 98.2812 132.65 98.4515 132.954Z" fill="white"/>
<path d="M100.418 136.392L101.053 137.399V137.415C101.239 137.703 101.146 138.087 100.867 138.263C100.588 138.455 100.217 138.359 100.046 138.071L99.4116 137.048C99.2258 136.76 99.3187 136.376 99.5974 136.184C99.8762 136.008 100.248 136.088 100.418 136.392Z" fill="white"/>
<path d="M102.571 139.718L103.252 140.693C103.438 140.965 103.376 141.349 103.112 141.557C102.849 141.749 102.478 141.685 102.276 141.413L101.58 140.421C101.394 140.15 101.44 139.766 101.719 139.558C101.998 139.366 102.369 139.43 102.571 139.718Z" fill="white"/>
<path d="M104.893 142.932L105.621 143.875C105.822 144.131 105.791 144.531 105.528 144.739C105.28 144.947 104.893 144.915 104.692 144.643L103.948 143.7C103.747 143.444 103.778 143.044 104.041 142.836C104.305 142.612 104.676 142.66 104.893 142.932Z" fill="white"/>
<path d="M107.37 146.002L108.145 146.898C108.361 147.154 108.33 147.537 108.098 147.761C107.85 147.985 107.479 147.969 107.262 147.713L106.472 146.802C106.256 146.546 106.271 146.162 106.519 145.938C106.767 145.714 107.138 145.746 107.37 146.002Z" fill="white"/>
<path d="M109.987 148.944L110.792 149.808C111.025 150.048 111.009 150.431 110.777 150.655C110.545 150.895 110.173 150.879 109.956 150.639L109.136 149.776C108.903 149.536 108.919 149.152 109.151 148.912C109.383 148.705 109.755 148.705 109.987 148.944Z" fill="white"/>
<path d="M112.728 151.759L113.58 152.574C113.812 152.798 113.828 153.182 113.611 153.422C113.394 153.662 113.023 153.678 112.79 153.454L111.923 152.622C111.691 152.398 111.675 152.015 111.892 151.775C112.124 151.551 112.496 151.535 112.728 151.759Z" fill="white"/>
<path d="M115.608 154.445L116.491 155.229C116.739 155.436 116.77 155.82 116.553 156.076C116.352 156.332 115.98 156.364 115.732 156.14L114.834 155.356C114.586 155.149 114.555 154.765 114.772 154.509C115.004 154.253 115.361 154.221 115.608 154.445Z" fill="white"/>
<path d="M118.612 156.988L119.526 157.723C119.773 157.931 119.82 158.299 119.634 158.555C119.433 158.811 119.077 158.859 118.829 158.667L117.9 157.915C117.652 157.707 117.606 157.34 117.792 157.084C117.993 156.828 118.349 156.78 118.612 156.988Z" fill="white"/>
<path d="M121.709 159.387L122.654 160.074C122.917 160.266 122.979 160.634 122.793 160.89C122.607 161.162 122.251 161.226 122.003 161.034L121.043 160.33C120.78 160.138 120.718 159.77 120.904 159.498C121.09 159.259 121.446 159.195 121.709 159.387Z" fill="white"/>
<path d="M124.899 161.657L125.874 162.313C126.138 162.488 126.215 162.856 126.045 163.128C125.874 163.4 125.518 163.48 125.255 163.304L124.264 162.648C124.001 162.472 123.923 162.105 124.094 161.833C124.28 161.561 124.636 161.481 124.899 161.657Z" fill="white"/>
<path d="M128.197 163.784L129.203 164.391C129.467 164.551 129.56 164.919 129.405 165.191C129.25 165.463 128.894 165.558 128.63 165.399L127.608 164.775C127.345 164.615 127.252 164.247 127.407 163.975C127.562 163.72 127.918 163.624 128.197 163.784Z" fill="white"/>
<path d="M131.557 165.782L132.579 166.358C132.858 166.518 132.951 166.87 132.811 167.141C132.657 167.429 132.331 167.525 132.053 167.381L131.015 166.806C130.737 166.646 130.644 166.294 130.783 166.022C130.938 165.734 131.279 165.622 131.557 165.782Z" fill="white"/>
<path d="M134.995 167.637L136.032 168.165C136.311 168.309 136.419 168.644 136.28 168.932C136.141 169.22 135.815 169.332 135.537 169.188L134.484 168.66C134.205 168.516 134.097 168.181 134.22 167.893C134.375 167.621 134.716 167.493 134.995 167.637Z" fill="white"/>
<path d="M138.51 169.364L139.578 169.86C139.857 169.988 139.981 170.324 139.857 170.612C139.733 170.899 139.408 171.027 139.129 170.899L138.045 170.404C137.767 170.276 137.643 169.94 137.767 169.652C137.89 169.364 138.216 169.22 138.51 169.364Z" fill="white"/>
<path d="M142.071 170.947L143.155 171.395C143.434 171.507 143.573 171.843 143.465 172.131C143.356 172.418 143.031 172.562 142.752 172.45L141.653 172.003C141.374 171.891 141.235 171.555 141.343 171.267C141.452 170.963 141.777 170.819 142.071 170.947Z" fill="white"/>
<path d="M145.694 172.403L146.794 172.818C147.072 172.93 147.227 173.25 147.119 173.538C147.011 173.826 146.701 173.986 146.422 173.874L145.307 173.458C145.029 173.346 144.874 173.026 144.982 172.738C145.09 172.435 145.4 172.291 145.694 172.403Z" fill="white"/>
<path d="M149.364 173.714L150.479 174.081C150.758 174.177 150.928 174.497 150.835 174.785C150.742 175.073 150.433 175.249 150.154 175.153L149.039 174.785C148.745 174.689 148.59 174.369 148.683 174.081C148.76 173.778 149.07 173.618 149.364 173.714Z" fill="white"/>
<path d="M153.065 174.897L154.18 175.233C154.459 175.313 154.629 175.632 154.551 175.92C154.474 176.208 154.18 176.384 153.886 176.304L152.755 175.968C152.461 175.888 152.306 175.584 152.384 175.281C152.476 174.993 152.771 174.817 153.065 174.897Z" fill="white"/>
<path d="M156.812 175.968L157.943 176.256C158.221 176.336 158.392 176.624 158.33 176.912C158.252 177.2 157.974 177.375 157.695 177.311L156.549 177.024C156.27 176.944 156.085 176.656 156.162 176.368C156.239 176.064 156.518 175.888 156.812 175.968Z" fill="white"/>
<path d="M160.591 176.896L161.736 177.152C162.015 177.216 162.185 177.503 162.139 177.791C162.077 178.079 161.798 178.255 161.52 178.207L160.374 177.951C160.095 177.887 159.909 177.599 159.971 177.312C160.033 177.024 160.312 176.832 160.591 176.896Z" fill="white"/>
<path d="M164.4 177.711L165.546 177.935C165.824 177.983 166.01 178.255 165.948 178.542C165.902 178.83 165.638 179.006 165.36 178.958L164.198 178.734C163.92 178.686 163.734 178.414 163.78 178.127C163.842 177.855 164.121 177.663 164.4 177.711Z" fill="white"/>
<path d="M168.224 178.415L169.37 178.607C169.649 178.655 169.835 178.911 169.788 179.199C169.742 179.47 169.494 179.662 169.215 179.63L168.054 179.454C167.775 179.406 167.589 179.151 167.636 178.863C167.698 178.559 167.945 178.367 168.224 178.415Z" fill="white"/>
<path d="M172.08 178.991L173.241 179.15C173.504 179.182 173.69 179.438 173.659 179.71C173.628 179.982 173.381 180.174 173.117 180.142L171.956 179.998C171.693 179.966 171.491 179.71 171.522 179.438C171.553 179.166 171.801 178.959 172.08 178.991Z" fill="white"/>
<path d="M175.935 179.47L177.097 179.598C177.36 179.63 177.546 179.87 177.53 180.141C177.499 180.413 177.267 180.605 177.004 180.589L175.827 180.477C175.564 180.445 175.363 180.205 175.394 179.934C175.44 179.646 175.672 179.438 175.935 179.47Z" fill="white"/>
<path d="M179.807 179.838L180.968 179.934C181.231 179.95 181.417 180.19 181.401 180.446C181.386 180.717 181.154 180.909 180.906 180.893L179.729 180.813C179.466 180.797 179.28 180.558 179.296 180.302C179.327 180.03 179.543 179.822 179.807 179.838Z" fill="white"/>
<path d="M183.693 180.11L184.854 180.174C185.102 180.19 185.303 180.414 185.288 180.669C185.272 180.925 185.056 181.133 184.808 181.117L183.631 181.069C183.383 181.053 183.182 180.829 183.198 180.573C183.213 180.302 183.43 180.094 183.693 180.11Z" fill="white"/>
<path d="M187.58 180.285L188.741 180.317C188.989 180.317 189.19 180.541 189.175 180.797C189.175 181.053 188.958 181.261 188.71 181.245L187.534 181.213C187.286 181.213 187.084 180.989 187.1 180.733C187.115 180.477 187.332 180.269 187.58 180.285Z" fill="white"/>
<path d="M191.466 180.365H192.628C192.876 180.365 193.061 180.573 193.061 180.813C193.061 181.069 192.86 181.261 192.628 181.261H191.451C191.203 181.261 191.002 181.053 191.002 180.797C191.017 180.557 191.219 180.365 191.466 180.365Z" fill="white"/>
<path d="M195.368 180.35L196.53 180.334C196.762 180.334 196.963 180.526 196.963 180.765C196.963 181.005 196.777 181.213 196.545 181.213L195.368 181.245C195.136 181.245 194.935 181.053 194.935 180.813C194.935 180.558 195.121 180.366 195.368 180.35Z" fill="white"/>
<path d="M199.255 180.254L200.416 180.206C200.649 180.19 200.835 180.381 200.85 180.621C200.865 180.861 200.68 181.053 200.447 181.069L199.271 181.117C199.038 181.133 198.837 180.941 198.837 180.701C198.837 180.477 199.023 180.269 199.255 180.254Z" fill="white"/>
<path d="M203.157 180.094L204.319 180.03C204.551 180.014 204.737 180.189 204.752 180.429C204.768 180.669 204.597 180.861 204.365 180.877L203.188 180.957C202.956 180.973 202.77 180.797 202.754 180.557C202.754 180.301 202.925 180.11 203.157 180.094Z" fill="white"/>
<path d="M207.044 179.838L208.205 179.742C208.422 179.726 208.623 179.902 208.638 180.126C208.654 180.349 208.484 180.541 208.267 180.573L207.09 180.669C206.873 180.685 206.672 180.509 206.656 180.285C206.656 180.062 206.811 179.854 207.044 179.838Z" fill="white"/>
<path d="M210.93 179.518L211.612 179.454C211.828 179.438 212.014 179.598 212.03 179.822C212.045 180.046 211.89 180.238 211.674 180.254L210.992 180.318C210.775 180.334 210.59 180.174 210.559 179.95C210.559 179.742 210.713 179.55 210.93 179.518Z" fill="white"/>
<path d="M87.7363 7.25439L88.5105 13.1068L92.01 10.0527L87.7363 7.25439Z" fill="#7D97F4"/>
<path d="M112.759 0.314453L99.2879 16.3208C99.0246 16.6246 98.6685 16.8165 98.2659 16.8325C97.8788 16.8484 97.4917 16.7045 97.1975 16.4327L82.1466 1.86551C81.9763 1.70561 81.9144 1.43378 82.0073 1.20991C82.0847 0.986046 82.3015 0.826144 82.5337 0.826144L112.759 0.314453Z" fill="#91B3FA"/>
<path d="M87.7363 7.25425L112.759 0.314453L90.1674 9.62081L90.3067 11.2518L87.7363 7.25425Z" fill="#7D97F4"/>
<path d="M91.6075 10.996L88.5105 13.1068L90.1674 9.62085L91.6075 10.996Z" fill="#7D97F4"/>
<defs>
<linearGradient id="paint0_linear" x1="163.105" y1="-4.50102" x2="143.959" y2="215.424" gradientUnits="userSpaceOnUse">
<stop stop-color="#09005D"/>
<stop offset="1" stop-color="#1A0F91"/>
</linearGradient>
<linearGradient id="paint1_linear" x1="148.968" y1="241.276" x2="160.292" y2="-53.2379" gradientUnits="userSpaceOnUse">
<stop stop-color="#FE7062"/>
<stop offset="1" stop-color="#FF928E"/>
</linearGradient>
<linearGradient id="paint2_linear" x1="172.013" y1="127.907" x2="150.279" y2="226.122" gradientUnits="userSpaceOnUse">
<stop stop-color="#09005D"/>
<stop offset="1" stop-color="#1A0F91"/>
</linearGradient>
<linearGradient id="paint3_linear" x1="37.193" y1="171.084" x2="23.3388" y2="266.433" gradientUnits="userSpaceOnUse">
<stop stop-color="#09005D"/>
<stop offset="1" stop-color="#1A0F91"/>
</linearGradient>
<linearGradient id="paint4_linear" x1="78.4269" y1="85.9278" x2="-3.81274" y2="167.897" gradientUnits="userSpaceOnUse">
<stop stop-color="#FE7062"/>
<stop offset="1" stop-color="#FF928E"/>
</linearGradient>
<linearGradient id="paint5_linear" x1="102.788" y1="77.3474" x2="49.3391" y2="173.356" gradientUnits="userSpaceOnUse">
<stop stop-color="#4042E2"/>
<stop offset="1" stop-color="#4F52FF"/>
</linearGradient>
<linearGradient id="paint6_linear" x1="60.7022" y1="122.353" x2="26.7906" y2="187.239" gradientUnits="userSpaceOnUse">
<stop stop-color="#4042E2"/>
<stop offset="1" stop-color="#4F52FF"/>
</linearGradient>
<linearGradient id="paint7_linear" x1="47.1794" y1="115.285" x2="13.2678" y2="180.171" gradientUnits="userSpaceOnUse">
<stop stop-color="#4042E2"/>
<stop offset="1" stop-color="#4F52FF"/>
</linearGradient>
<linearGradient id="paint8_linear" x1="8.4188" y1="147.16" x2="37.4707" y2="180.332" gradientUnits="userSpaceOnUse">
<stop stop-color="#FE7062"/>
<stop offset="1" stop-color="#FF928E"/>
</linearGradient>
<linearGradient id="paint9_linear" x1="107.896" y1="80.1905" x2="54.447" y2="176.199" gradientUnits="userSpaceOnUse">
<stop stop-color="#4042E2"/>
<stop offset="1" stop-color="#4F52FF"/>
</linearGradient>
<linearGradient id="paint10_linear" x1="85.7021" y1="110.464" x2="-13.7631" y2="237.713" gradientUnits="userSpaceOnUse">
<stop stop-color="#4042E2"/>
<stop offset="1" stop-color="#4F52FF"/>
</linearGradient>
<linearGradient id="paint11_linear" x1="34.6784" y1="150.811" x2="3.0876" y2="226.295" gradientUnits="userSpaceOnUse">
<stop stop-color="#4042E2"/>
<stop offset="1" stop-color="#4F52FF"/>
</linearGradient>
<linearGradient id="paint12_linear" x1="33.7353" y1="112.218" x2="2.59405" y2="181.259" gradientUnits="userSpaceOnUse">
<stop stop-color="#4042E2"/>
<stop offset="1" stop-color="#4F52FF"/>
</linearGradient>
<linearGradient id="paint13_linear" x1="917.845" y1="1210.77" x2="860.235" y2="1145.23" gradientUnits="userSpaceOnUse">
<stop stop-color="#4042E2"/>
<stop offset="1" stop-color="#4F52FF"/>
</linearGradient>
<linearGradient id="paint14_linear" x1="90.9145" y1="114.539" x2="-8.54986" y2="241.788" gradientUnits="userSpaceOnUse">
<stop stop-color="#4042E2"/>
<stop offset="1" stop-color="#4F52FF"/>
</linearGradient>
<linearGradient id="paint15_linear" x1="38.4488" y1="152.389" x2="6.85839" y2="227.873" gradientUnits="userSpaceOnUse">
<stop stop-color="#4042E2"/>
<stop offset="1" stop-color="#4F52FF"/>
</linearGradient>
<linearGradient id="paint16_linear" x1="911.977" y1="1215.93" x2="854.367" y2="1150.39" gradientUnits="userSpaceOnUse">
<stop stop-color="#4042E2"/>
<stop offset="1" stop-color="#4F52FF"/>
</linearGradient>
<linearGradient id="paint17_linear" x1="96.6364" y1="119.011" x2="-2.82768" y2="246.26" gradientUnits="userSpaceOnUse">
<stop stop-color="#4042E2"/>
<stop offset="1" stop-color="#4F52FF"/>
</linearGradient>
<linearGradient id="paint18_linear" x1="40.7712" y1="147.639" x2="24.2928" y2="202.292" gradientUnits="userSpaceOnUse">
<stop stop-color="#4042E2"/>
<stop offset="1" stop-color="#4F52FF"/>
</linearGradient>
<linearGradient id="paint19_linear" x1="33.2579" y1="108.233" x2="18.8392" y2="156.104" gradientUnits="userSpaceOnUse">
<stop stop-color="#4042E2"/>
<stop offset="1" stop-color="#4F52FF"/>
</linearGradient>
<linearGradient id="paint20_linear" x1="316.916" y1="70.5637" x2="247.282" y2="124.297" gradientUnits="userSpaceOnUse">
<stop stop-color="#4042E2"/>
<stop offset="1" stop-color="#4F52FF"/>
</linearGradient>
<linearGradient id="paint21_linear" x1="297.55" y1="76.7903" x2="210.849" y2="144.237" gradientUnits="userSpaceOnUse">
<stop stop-color="#4042E2"/>
<stop offset="1" stop-color="#4F52FF"/>
</linearGradient>
<linearGradient id="paint22_linear" x1="198.419" y1="66.2603" x2="132.068" y2="-67.2955" gradientUnits="userSpaceOnUse">
<stop stop-color="#4042E2"/>
<stop offset="1" stop-color="#4F52FF"/>
</linearGradient>
<linearGradient id="paint23_linear" x1="48.0914" y1="112.05" x2="200.629" y2="112.05" gradientUnits="userSpaceOnUse">
<stop stop-color="#4042E2"/>
<stop offset="1" stop-color="#4F52FF"/>
</linearGradient>
<linearGradient id="paint24_linear" x1="166.128" y1="55.818" x2="-8.51593" y2="272.237" gradientUnits="userSpaceOnUse">
<stop stop-color="white"/>
<stop offset="1"/>
</linearGradient>
<linearGradient id="paint25_linear" x1="65.6777" y1="65.2771" x2="161.347" y2="65.2771" gradientUnits="userSpaceOnUse">
<stop stop-color="#DAE3FE"/>
<stop offset="1" stop-color="#E9EFFD"/>
</linearGradient>
<linearGradient id="paint26_linear" x1="67.4318" y1="77.5215" x2="131.647" y2="77.5215" gradientUnits="userSpaceOnUse">
<stop stop-color="#DAE3FE"/>
<stop offset="1" stop-color="#E9EFFD"/>
</linearGradient>
<linearGradient id="paint27_linear" x1="62.453" y1="130.458" x2="165.651" y2="130.458" gradientUnits="userSpaceOnUse">
<stop stop-color="#DAE3FE"/>
<stop offset="1" stop-color="#E9EFFD"/>
</linearGradient>
<linearGradient id="paint28_linear" x1="136.387" y1="130.992" x2="142.038" y2="130.992" gradientUnits="userSpaceOnUse">
<stop stop-color="#DAE3FE"/>
<stop offset="1" stop-color="#E9EFFD"/>
</linearGradient>
<linearGradient id="paint29_linear" x1="64.2225" y1="101.861" x2="161.893" y2="101.861" gradientUnits="userSpaceOnUse">
<stop stop-color="#DAE3FE"/>
<stop offset="1" stop-color="#E9EFFD"/>
</linearGradient>
<linearGradient id="paint30_linear" x1="64.3785" y1="114.028" x2="162.541" y2="114.028" gradientUnits="userSpaceOnUse">
<stop stop-color="#DAE3FE"/>
<stop offset="1" stop-color="#E9EFFD"/>
</linearGradient>
<linearGradient id="paint31_linear" x1="65.2878" y1="126.274" x2="163.719" y2="126.274" gradientUnits="userSpaceOnUse">
<stop stop-color="#DAE3FE"/>
<stop offset="1" stop-color="#E9EFFD"/>
</linearGradient>
<linearGradient id="paint32_linear" x1="66.5782" y1="137.753" x2="164.292" y2="137.753" gradientUnits="userSpaceOnUse">
<stop stop-color="#DAE3FE"/>
<stop offset="1" stop-color="#E9EFFD"/>
</linearGradient>
<linearGradient id="paint33_linear" x1="67.8097" y1="150.374" x2="163.719" y2="150.374" gradientUnits="userSpaceOnUse">
<stop stop-color="#DAE3FE"/>
<stop offset="1" stop-color="#E9EFFD"/>
</linearGradient>
<linearGradient id="paint34_linear" x1="68.8039" y1="160.602" x2="164.292" y2="160.602" gradientUnits="userSpaceOnUse">
<stop stop-color="#DAE3FE"/>
<stop offset="1" stop-color="#E9EFFD"/>
</linearGradient>
<linearGradient id="paint35_linear" x1="231.757" y1="107.834" x2="225.152" y2="248.53" gradientUnits="userSpaceOnUse">
<stop stop-color="#09005D"/>
<stop offset="1" stop-color="#1A0F91"/>
</linearGradient>
<linearGradient id="paint36_linear" x1="208.814" y1="125.766" x2="299.304" y2="270.78" gradientUnits="userSpaceOnUse">
<stop stop-color="#FE7062"/>
<stop offset="1" stop-color="#FF928E"/>
</linearGradient>
<linearGradient id="paint37_linear" x1="217.891" y1="184.755" x2="157.037" y2="353.922" gradientUnits="userSpaceOnUse">
<stop stop-color="#4042E2"/>
<stop offset="1" stop-color="#4F52FF"/>
</linearGradient>
<linearGradient id="paint38_linear" x1="335.965" y1="233.422" x2="312.638" y2="214.015" gradientUnits="userSpaceOnUse">
<stop stop-color="#FF928E"/>
<stop offset="1" stop-color="#FEB3B1"/>
</linearGradient>
<linearGradient id="paint39_linear" x1="245.772" y1="142.915" x2="243.575" y2="154.83" gradientUnits="userSpaceOnUse">
<stop stop-color="#FF928E"/>
<stop offset="1" stop-color="#FEB3B1"/>
</linearGradient>
<linearGradient id="paint40_linear" x1="257.668" y1="222.72" x2="285.27" y2="251.793" gradientUnits="userSpaceOnUse">
<stop stop-color="#09005D"/>
<stop offset="1" stop-color="#1A0F91"/>
</linearGradient>
<linearGradient id="paint41_linear" x1="266.325" y1="224.945" x2="263.956" y2="224.945" gradientUnits="userSpaceOnUse">
<stop stop-color="#FF928E"/>
<stop offset="1" stop-color="#FEB3B1"/>
</linearGradient>
<linearGradient id="paint42_linear" x1="263.651" y1="217.039" x2="291.254" y2="246.112" gradientUnits="userSpaceOnUse">
<stop stop-color="#09005D"/>
<stop offset="1" stop-color="#1A0F91"/>
</linearGradient>
<linearGradient id="paint43_linear" x1="274.863" y1="224.819" x2="272.817" y2="224.819" gradientUnits="userSpaceOnUse">
<stop stop-color="#FF928E"/>
<stop offset="1" stop-color="#FEB3B1"/>
</linearGradient>
<linearGradient id="paint44_linear" x1="275.605" y1="151.41" x2="251.539" y2="211.336" gradientUnits="userSpaceOnUse">
<stop stop-color="#4042E2"/>
<stop offset="1" stop-color="#4F52FF"/>
</linearGradient>
<linearGradient id="paint45_linear" x1="334.04" y1="235.735" x2="310.712" y2="216.329" gradientUnits="userSpaceOnUse">
<stop stop-color="#FF928E"/>
<stop offset="1" stop-color="#FEB3B1"/>
</linearGradient>
<linearGradient id="paint46_linear" x1="285.116" y1="155.229" x2="261.05" y2="215.156" gradientUnits="userSpaceOnUse">
<stop stop-color="#4042E2"/>
<stop offset="1" stop-color="#4F52FF"/>
</linearGradient>
<linearGradient id="paint47_linear" x1="268.715" y1="153.65" x2="267.835" y2="168.357" gradientUnits="userSpaceOnUse">
<stop stop-color="#FF928E"/>
<stop offset="1" stop-color="#FEB3B1"/>
</linearGradient>
<linearGradient id="paint48_linear" x1="264.475" y1="151.506" x2="267.419" y2="158.582" gradientUnits="userSpaceOnUse">
<stop stop-color="#FF928E"/>
<stop offset="1" stop-color="#FEB3B1"/>
</linearGradient>
<linearGradient id="paint49_linear" x1="273.986" y1="149.325" x2="265.174" y2="156.065" gradientUnits="userSpaceOnUse">
<stop stop-color="#4042E2"/>
<stop offset="1" stop-color="#4F52FF"/>
</linearGradient>
<linearGradient id="paint50_linear" x1="551.009" y1="13.4434" x2="544.241" y2="16.6823" gradientUnits="userSpaceOnUse">
<stop stop-color="#FF928E"/>
<stop offset="1" stop-color="#FEB3B1"/>
</linearGradient>
<linearGradient id="paint51_linear" x1="179.768" y1="37.0823" x2="200.845" y2="65.7027" gradientUnits="userSpaceOnUse">
<stop stop-color="#FF928E"/>
<stop offset="1" stop-color="#FEB3B1"/>
</linearGradient>
<linearGradient id="paint52_linear" x1="173.461" y1="41.728" x2="194.538" y2="70.3478" gradientUnits="userSpaceOnUse">
<stop stop-color="#FF928E"/>
<stop offset="1" stop-color="#FEB3B1"/>
</linearGradient>
<linearGradient id="paint53_linear" x1="241.923" y1="107.547" x2="293.235" y2="107.547" gradientUnits="userSpaceOnUse">
<stop stop-color="#4042E2"/>
<stop offset="1" stop-color="#4F52FF"/>
</linearGradient>
<linearGradient id="paint54_linear" x1="244.414" y1="107.834" x2="290.844" y2="107.834" gradientUnits="userSpaceOnUse">
<stop stop-color="#DAE3FE"/>
<stop offset="1" stop-color="#E9EFFD"/>
</linearGradient>
<linearGradient id="paint55_linear" x1="251.136" y1="112.824" x2="292.089" y2="112.824" gradientUnits="userSpaceOnUse">
<stop stop-color="#4042E2"/>
<stop offset="1" stop-color="#4F52FF"/>
</linearGradient>
<linearGradient id="paint56_linear" x1="272.276" y1="106.793" x2="256.565" y2="113.206" gradientUnits="userSpaceOnUse">
<stop stop-color="#FE7062"/>
<stop offset="1" stop-color="#FF928E"/>
</linearGradient>
<linearGradient id="paint57_linear" x1="266.195" y1="83.6468" x2="241.886" y2="119.21" gradientUnits="userSpaceOnUse">
<stop stop-color="#FE7062"/>
<stop offset="1" stop-color="#FF928E"/>
</linearGradient>
<linearGradient id="paint58_linear" x1="265.502" y1="84.6864" x2="252.521" y2="105.789" gradientUnits="userSpaceOnUse">
<stop stop-color="#FE7062"/>
<stop offset="1" stop-color="#FF928E"/>
</linearGradient>
<linearGradient id="paint59_linear" x1="286.061" y1="71.5132" x2="243.742" y2="133.422" gradientUnits="userSpaceOnUse">
<stop stop-color="#FE7062"/>
<stop offset="1" stop-color="#FF928E"/>
</linearGradient>
<linearGradient id="paint60_linear" x1="284.853" y1="73.323" x2="262.256" y2="110.059" gradientUnits="userSpaceOnUse">
<stop stop-color="#FE7062"/>
<stop offset="1" stop-color="#FF928E"/>
</linearGradient>
<linearGradient id="paint61_linear" x1="293.317" y1="94.7202" x2="249.771" y2="158.424" gradientUnits="userSpaceOnUse">
<stop stop-color="#FE7062"/>
<stop offset="1" stop-color="#FF928E"/>
</linearGradient>
<linearGradient id="paint62_linear" x1="292.074" y1="96.582" x2="268.822" y2="134.383" gradientUnits="userSpaceOnUse">
<stop stop-color="#FE7062"/>
<stop offset="1" stop-color="#FF928E"/>
</linearGradient>
<linearGradient id="paint63_linear" x1="304.74" y1="83.146" x2="272.834" y2="129.821" gradientUnits="userSpaceOnUse">
<stop stop-color="#FE7062"/>
<stop offset="1" stop-color="#FF928E"/>
</linearGradient>
<linearGradient id="paint64_linear" x1="303.829" y1="84.5105" x2="286.793" y2="112.207" gradientUnits="userSpaceOnUse">
<stop stop-color="#FE7062"/>
<stop offset="1" stop-color="#FF928E"/>
</linearGradient>
<linearGradient id="paint65_linear" x1="95.6804" y1="182.65" x2="124.524" y2="182.65" gradientUnits="userSpaceOnUse">
<stop stop-color="#4042E2"/>
<stop offset="1" stop-color="#4F52FF"/>
</linearGradient>
</defs>
</svg>
