<?xml version="1.0" encoding="utf-8"?>
<!-- Generator: Adobe Illustrator 24.3.0, SVG Export Plug-In . SVG Version: 6.00 Build 0)  -->
<svg version="1.1" id="Layer_1" xmlns="http://www.w3.org/2000/svg" xmlns:xlink="http://www.w3.org/1999/xlink" x="0px" y="0px"
	 viewBox="0 0 750 645.7" style="enable-background:new 0 0 750 645.7;" xml:space="preserve">
<style type="text/css">
	.st0{fill:#FFFFFF;}
	.st1{fill:#C8DDE6;}
	.st2{fill:#3E2D4A;}
	.st3{fill:#DB9B9E;}
	.st4{fill:#C46970;}
	.st5{fill:#BA4D59;}
	.st6{fill:#F5F3EB;}
	.st7{fill:#34909B;}
	.st8{fill:#CB5571;}
	.st9{fill:#E1A259;}
	.st10{fill:#EFCC89;}
	.st11{font-family:'ArialMT';}
	.st12{font-size:79.2563px;}
	.st13{fill:#68808C;}
	.st14{font-family:'GeometricSlab703BT-BoldCond';}
	.st15{font-size:93.1148px;}
	.st16{font-size:79.2577px;}
	.st17{fill:#AC4068;}
	.st18{fill:#306877;}
	.st19{fill:none;}
</style>
<rect x="0" class="st0" width="750" height="645.7"/>
<g id="OBJECTS">
	<ellipse class="st1" cx="375" cy="578.9" rx="375" ry="14.3"/>
	<path class="st1" d="M232.3,167.5c0,0,123.2-152,228.4-39.5c0,0,83.2-90.9,163.9,18.4s24.5,147,24.5,147s40.2-52.5,56.3,2.9
		c16.2,55.4-33.3,115.2-33.3,115.2s21-13.3,19.2,25.8c-1.8,39-25.5,82.2-74.6,68.8c-49.1-13.4-53.9-63.8-53.9-63.8
		s-36.7,60.5-107.3,66.3s-59-64.3-59-64.3s-13.8,72.1-102.8,68.1c-71.3-3.3-69.9-62.9-69.9-62.9s-40.9,72-109.1,20.2
		c-37.2-28.3,13.5-99.7,13.5-99.7s-17.4,26.3-60.6,26.4c-43.2,0.3-49.6-167.3,57.2-255.9C204.9,74.1,232.3,167.5,232.3,167.5z"/>
	<g>
		<circle class="st2" cx="395.3" cy="69.1" r="12"/>
		
			<ellipse transform="matrix(0.9968 -8.040757e-02 8.040757e-02 0.9968 -5.6454 30.0746)" class="st2" cx="370.6" cy="85.1" rx="22.6" ry="21.6"/>
		<circle class="st2" cx="341.2" cy="77.9" r="12"/>
		<path class="st3" d="M415.4,130.2c0,0,29.9,1.3,46-7.1c16-8.3,65-56.2,72.2-55.3c2.5,0.3-6.4,8.5-6.4,8.5s13.1-10.7,11-6.6
			c-2,4.2-7.3,11.2-7.3,11.2s10-9.1,10.7-8.1c1,1.1-7.1,12.9-7.1,12.9s-43.9,62.1-65,68.3s-54,5.8-54,5.8L415.4,130.2L415.4,130.2z"
			/>
		<path class="st3" d="M336.6,134.2c0,0-29.9,1.3-46-7.1c-15.9-8.3-68.4-54-75.3-54.9c-3.2-0.4,5.2,8.2,5.2,8.2s-12.4-9.3-10.2-5.2
			c2,4.2,6.7,8.2,6.7,8.2s-12.8-9.7-9.2-4c4.5,7.6,8.6,12.4,8.6,12.4s45.3,60.2,66.3,66.4c21.1,6.2,54,5.8,54,5.8v-29.8H336.6z"/>
		<path class="st3" d="M385.1,80c0,0,9,31.4-10,36.2c-13,3.3-23-19.9-20.8-31.1C356.4,74,376,69.6,385.1,80z"/>
		<path class="st3" d="M382.8,96.2c0,0-2.8,26.8,1.8,30.8c4.5,4,26.4-2.7,31.2,5.1c4.9,7.7-2.5,78.2-2.5,78.2l-72.9,3.8
			c0,0-0.4-81.2,3.7-84.1c4-2.9,20.6,0.9,21.6-10.5c0.5-5.4-1.9-31.8-1.9-31.8L382.8,96.2z"/>
		<path class="st4" d="M374.9,103.6c-1,0-3-0.9-3.9-1.4l0.3-0.6c1.4,0.6,3,1.3,3.5,1.3l0,0c0.1-0.9-0.6-5.3-1.5-9.3l0.8-0.1
			c2.1,9.7,1.5,10,1.3,10.1C375.3,103.6,375.1,103.6,374.9,103.6z"/>
		<path class="st4" d="M374.1,108.1c-1.6,0-3.2-1.3-3.2-1.4l0.5-0.5c0,0,1.9,1.5,3.4,1.1c0.9-0.3,1.4-1.1,1.8-2.7l0.8,0.1
			c-0.4,1.8-1.1,2.8-2.3,3.2C374.6,108.1,374.4,108.1,374.1,108.1z"/>
		<ellipse transform="matrix(0.9879 -0.1548 0.1548 0.9879 -10.8727 57.949)" class="st2" cx="366.6" cy="98.8" rx="1.1" ry="1.5"/>
		<ellipse transform="matrix(0.9879 -0.1548 0.1548 0.9879 -10.4291 59.8424)" class="st2" cx="379" cy="96.9" rx="1.1" ry="1.5"/>
		<path class="st3" d="M358.1,99c0,0-3.2-6.1-5.6-2.9c-2.4,3.3,1.9,10.5,4.7,10.1C359.8,105.8,359.8,101.5,358.1,99z"/>
		<path class="st3" d="M386,94.5c0,0,1.1-6.8,4.5-4.4c3.3,2.4,1.3,10.6-1.4,11C386.2,101.4,385.1,97.2,386,94.5z"/>
		<path class="st5" d="M365.7,113.9c0,0,8.3,6.1,16.3-1.5l0.1,1.4c0,0-1.8,9-7.1,9.2c-5.3,0.3-9.3-8.5-9.3-8.5V113.9z"/>
		<path class="st2" d="M380.9,89.3c0,0-2.3-2-5.2,0.4C374.1,91.1,383.5,91.3,380.9,89.3z"/>
		<path class="st2" d="M360.4,92.8c0,0,1.5-2.5,5.1-1.3C367.3,92.3,358.5,95.5,360.4,92.8z"/>
		<path class="st6" d="M360.1,126.8c0,0,5.4,22.9,15.2,21.1c16.3-2.8,12.1-21.1,12.1-21.1s22.6-1.1,28,3.4s-0.9,65.9-0.9,65.9
			s-72.2-0.8-76-2.7c-3.8-1.9-1.4-62.1,2.9-63.5C345.8,128.4,360.1,126.8,360.1,126.8z"/>
		<path class="st2" d="M369.4,72.6c0,0-7.3,24.9-15.4,23.4C354,96,346.2,76.2,369.4,72.6z"/>
		<path class="st2" d="M387,90.8c0,0-15-6.3-21.3-18.2C365.7,72.6,389.8,63.5,387,90.8z"/>
		<path class="st6" d="M311.9,131.5c0,0-8.5,33.3-5.2,36.1c6.1,4.9,37.6,4.9,37.6,4.9s7.1-44.9,3.2-43.8
			C343.6,129.8,331.9,129.2,311.9,131.5z"/>
		<path class="st6" d="M445.3,128.2c0,0,6.9,36.6,3.7,39.3c-6.1,4.9-37.6,4.9-37.6,4.9s-7.1-44.9-3.2-43.8
			C412.1,129.6,425.1,126,445.3,128.2z"/>
		<path class="st0" d="M365.7,104.3c-2.8,0-5.2-1.9-5.8-4.7c-0.8-3.3,1.3-6.4,4.5-7.2c0.5-0.1,0.9-0.1,1.4-0.1
			c2.8,0,5.2,1.9,5.8,4.7c0.4,1.5,0.1,3.2-0.8,4.5c-0.9,1.4-2.1,2.3-3.8,2.7C366.5,104.3,366,104.3,365.7,104.3z M365.7,93
			c-0.4,0-0.8,0-1.1,0.1c-2.9,0.6-4.7,3.5-4,6.3c0.5,2.4,2.7,4.2,5.2,4.2c0.4,0,0.8,0,1.1-0.1c1.4-0.4,2.5-1.1,3.3-2.4
			c0.8-1.3,1-2.7,0.6-4C370.2,94.7,368.1,93,365.7,93z"/>
		<path class="st0" d="M381.2,102c-2.8,0-5.2-1.9-5.8-4.7c-0.8-3.3,1.3-6.4,4.5-7.2c0.5-0.1,0.9-0.1,1.4-0.1c2.8,0,5.2,1.9,5.8,4.7
			c0.4,1.5,0.1,3.2-0.8,4.5s-2.1,2.3-3.8,2.7C382.1,102,381.7,102,381.2,102z M381.2,90.7c-0.4,0-0.8,0-1.1,0.1
			c-2.9,0.6-4.7,3.5-4,6.3c0.5,2.4,2.7,4.2,5.2,4.2c0.4,0,0.8,0,1.1-0.1c1.4-0.4,2.5-1.1,3.3-2.4c0.8-1.3,1-2.7,0.6-4
			C385.9,92.5,383.7,90.7,381.2,90.7z"/>
		<polygon class="st0" points="371.2,97.4 371.1,96.6 375.5,95.6 375.6,96.4 		"/>
		
			<rect x="356.4" y="93.6" transform="matrix(0.3277 -0.9448 0.9448 0.3277 148.1388 402.4082)" class="st0" width="0.8" height="6.9"/>
		
			<rect x="385.4" y="91.5" transform="matrix(0.5311 -0.8473 0.8473 0.5311 103.6463 371.1202)" class="st0" width="3.5" height="0.8"/>
		<path class="st2" d="M355.2,95.4l-0.3-1c0.6-0.1,14.1-3.3,13.4-19.4h1.1C370.2,91.9,355.3,95.4,355.2,95.4z"/>
		<polygon class="st7" points="224.4,132.4 271.8,153.1 249.6,231.3 184,201.8 		"/>
		<path class="st7" d="M354,128.2c0,0,4,27,5.3,27.5c1.4,0.5,38.6,2,39.5-1.6c0.9-3.7-0.9-25.9-0.9-25.9h7.8c0,0-0.5,28.3,0.3,30.1
			c0.8,1.8,9.5,28.2,9.5,31.7s0,22,0,22l-75,2c0,0-2-25.9,0-30.1c2-4.2,9.1-27,9.1-28.3c0-1.3-2-27.1-2-27.1L354,128.2z"/>
		<path class="st2" d="M267.7,157.6l-1.1-0.5c16.2-39.4-2.7-48.4-2.9-48.4l0.5-1.1C265,107.9,284.3,117.1,267.7,157.6z"/>
		<path class="st2" d="M226.3,139l-1.1-0.4c0.3-0.5,4.9-12.9,13.8-19.3l0.8,1C230.9,126.4,226.3,138.9,226.3,139z"/>
		<polygon class="st8" points="520.7,132.4 473.2,153.1 495.6,231.3 561.2,201.8 		"/>
		<path class="st2" d="M477.5,157.6c-16.7-40.5,2.7-49.7,3.5-50l0.5,1.1c-0.3,0.1-18.9,9.1-2.9,48.4L477.5,157.6z"/>
		<path class="st2" d="M518.9,138.9c0-0.1-2.8-11-11.4-17l0.8-1c8.8,6.3,11.7,17.3,11.9,17.8L518.9,138.9z"/>
		<path class="st2" d="M353.5,74.3c-0.9-3.2-2.5-5.2-4.7-6.3c-3.5-1.6-7.4-0.1-7.4,0l-0.4-0.9c0.1-0.1,4.3-1.8,8.2,0.1
			c2.4,1.1,4.2,3.4,5.2,6.8L353.5,74.3z"/>
		<path class="st2" d="M344.2,90.9C344.1,90.9,344.1,90.9,344.2,90.9c-5.1,0-9.1-5.3-9.2-5.4l0.8-0.6c0,0,3.9,5.1,8.5,5.1l0,0
			c2.3,0,4.4-1.3,6.3-3.7l0.8,0.6C349.1,89.5,346.7,90.9,344.2,90.9z"/>
		<path class="st2" d="M396,83.2c-2.1,0-4.7-1.3-7.4-3.7l0.6-0.8c3.2,2.9,5.8,3.9,8.1,3.3c3.3-1,4.4-5.4,4.4-5.6l0.9,0.3
			c0,0.3-1.3,5.1-5.1,6.2C397.1,83.2,396.6,83.2,396,83.2z"/>
	</g>
	<g>
		<g>
			<g>
				<path class="st9" d="M269.2,446.6H165c-5.1,0-9.2-4.2-9.2-9.2l0,0c0-5.1,4.2-9.2,9.2-9.2h104.2c5.1,0,9.2,4.2,9.2,9.2l0,0
					C278.4,442.5,274.2,446.6,269.2,446.6z"/>
				<path class="st10" d="M269.2,465.3H165c-5.1,0-9.2-4.2-9.2-9.2l0,0c0-5.1,4.2-9.2,9.2-9.2h104.2c5.1,0,9.2,4.2,9.2,9.2l0,0
					C278.4,461.1,274.2,465.3,269.2,465.3z"/>
				<path class="st9" d="M269.2,483.5H165c-5.1,0-9.2-4.2-9.2-9.2l0,0c0-5.1,4.2-9.2,9.2-9.2h104.2c5.1,0,9.2,4.2,9.2,9.2l0,0
					C278.4,479.3,274.2,483.5,269.2,483.5z"/>
				<path class="st10" d="M269.2,502.2H165c-5.1,0-9.2-4.2-9.2-9.2l0,0c0-5.1,4.2-9.2,9.2-9.2h104.2c5.1,0,9.2,4.2,9.2,9.2l0,0
					C278.4,498,274.2,502.2,269.2,502.2z"/>
			</g>
			<g>
				<path class="st9" d="M269.2,520.1H165c-5.1,0-9.2-4.2-9.2-9.2l0,0c0-5.1,4.2-9.2,9.2-9.2h104.2c5.1,0,9.2,4.2,9.2,9.2l0,0
					C278.4,516.1,274.2,520.1,269.2,520.1z"/>
				<path class="st10" d="M269.2,538.8H165c-5.1,0-9.2-4.2-9.2-9.2l0,0c0-5.1,4.2-9.2,9.2-9.2h104.2c5.1,0,9.2,4.2,9.2,9.2l0,0
					C278.4,534.6,274.2,538.8,269.2,538.8z"/>
				<path class="st9" d="M269.2,557H165c-5.1,0-9.2-4.2-9.2-9.2l0,0c0-5.1,4.2-9.2,9.2-9.2h104.2c5.1,0,9.2,4.2,9.2,9.2l0,0
					C278.4,552.8,274.2,557,269.2,557z"/>
				<path class="st10" d="M269.2,575.7H165c-5.1,0-9.2-4.2-9.2-9.2l0,0c0-5.1,4.2-9.2,9.2-9.2h104.2c5.1,0,9.2,4.2,9.2,9.2l0,0
					C278.4,571.5,274.2,575.7,269.2,575.7z"/>
			</g>
			<g>
				<path class="st9" d="M151.3,520.1H47.1c-5.1,0-9.2-4.2-9.2-9.2l0,0c0-5.1,4.2-9.2,9.2-9.2h104.2c5.1,0,9.2,4.2,9.2,9.2l0,0
					C160.5,516.1,156.3,520.1,151.3,520.1z"/>
				<path class="st10" d="M151.3,538.8H47.1c-5.1,0-9.2-4.2-9.2-9.2l0,0c0-5.1,4.2-9.2,9.2-9.2h104.2c5.1,0,9.2,4.2,9.2,9.2l0,0
					C160.5,534.6,156.3,538.8,151.3,538.8z"/>
				<path class="st9" d="M151.3,557H47.1c-5.1,0-9.2-4.2-9.2-9.2l0,0c0-5.1,4.2-9.2,9.2-9.2h104.2c5.1,0,9.2,4.2,9.2,9.2l0,0
					C160.5,552.8,156.3,557,151.3,557z"/>
				<path class="st10" d="M151.3,575.7H47.1c-5.1,0-9.2-4.2-9.2-9.2l0,0c0-5.1,4.2-9.2,9.2-9.2h104.2c5.1,0,9.2,4.2,9.2,9.2l0,0
					C160.5,571.5,156.3,575.7,151.3,575.7z"/>
			</g>
		</g>
		<g>
			<g>
				<path class="st9" d="M480.8,446.6H585c5.1,0,9.2-4.2,9.2-9.2l0,0c0-5.1-4.2-9.2-9.2-9.2H480.8c-5.1,0-9.2,4.2-9.2,9.2l0,0
					C471.6,442.5,475.8,446.6,480.8,446.6z"/>
				<path class="st10" d="M480.8,465.3H585c5.1,0,9.2-4.2,9.2-9.2l0,0c0-5.1-4.2-9.2-9.2-9.2H480.8c-5.1,0-9.2,4.2-9.2,9.2l0,0
					C471.6,461.1,475.8,465.3,480.8,465.3z"/>
				<path class="st9" d="M480.8,483.5H585c5.1,0,9.2-4.2,9.2-9.2l0,0c0-5.1-4.2-9.2-9.2-9.2H480.8c-5.1,0-9.2,4.2-9.2,9.2l0,0
					C471.6,479.3,475.8,483.5,480.8,483.5z"/>
				<path class="st10" d="M480.8,502.2H585c5.1,0,9.2-4.2,9.2-9.2l0,0c0-5.1-4.2-9.2-9.2-9.2H480.8c-5.1,0-9.2,4.2-9.2,9.2l0,0
					C471.6,498,475.8,502.2,480.8,502.2z"/>
			</g>
			<g>
				<path class="st9" d="M480.8,520.1H585c5.1,0,9.2-4.2,9.2-9.2l0,0c0-5.1-4.2-9.2-9.2-9.2H480.8c-5.1,0-9.2,4.2-9.2,9.2l0,0
					C471.6,516.1,475.8,520.1,480.8,520.1z"/>
				<path class="st10" d="M480.8,538.8H585c5.1,0,9.2-4.2,9.2-9.2l0,0c0-5.1-4.2-9.2-9.2-9.2H480.8c-5.1,0-9.2,4.2-9.2,9.2l0,0
					C471.6,534.6,475.8,538.8,480.8,538.8z"/>
				<path class="st9" d="M480.8,557H585c5.1,0,9.2-4.2,9.2-9.2l0,0c0-5.1-4.2-9.2-9.2-9.2H480.8c-5.1,0-9.2,4.2-9.2,9.2l0,0
					C471.6,552.8,475.8,557,480.8,557z"/>
				<path class="st10" d="M480.8,575.7H585c5.1,0,9.2-4.2,9.2-9.2l0,0c0-5.1-4.2-9.2-9.2-9.2H480.8c-5.1,0-9.2,4.2-9.2,9.2l0,0
					C471.6,571.5,475.8,575.7,480.8,575.7z"/>
			</g>
			<g>
				<path class="st9" d="M598.7,520.1h104.2c5.1,0,9.2-4.2,9.2-9.2l0,0c0-5.1-4.2-9.2-9.2-9.2H598.7c-5.1,0-9.2,4.2-9.2,9.2l0,0
					C589.5,516.1,593.7,520.1,598.7,520.1z"/>
				<path class="st10" d="M598.7,538.8h104.2c5.1,0,9.2-4.2,9.2-9.2l0,0c0-5.1-4.2-9.2-9.2-9.2H598.7c-5.1,0-9.2,4.2-9.2,9.2l0,0
					C589.5,534.6,593.7,538.8,598.7,538.8z"/>
				<path class="st9" d="M598.7,557h104.2c5.1,0,9.2-4.2,9.2-9.2l0,0c0-5.1-4.2-9.2-9.2-9.2H598.7c-5.1,0-9.2,4.2-9.2,9.2l0,0
					C589.5,552.8,593.7,557,598.7,557z"/>
				<path class="st10" d="M598.7,575.7h104.2c5.1,0,9.2-4.2,9.2-9.2l0,0c0-5.1-4.2-9.2-9.2-9.2H598.7c-5.1,0-9.2,4.2-9.2,9.2l0,0
					C589.5,571.5,593.7,575.7,598.7,575.7z"/>
			</g>
		</g>
	</g>
	<g>
		<circle class="st9" cx="155.4" cy="518.6" r="54.9"/>
		<circle class="st10" cx="155.4" cy="517.1" r="42.9"/>
		<text transform="matrix(1 0 0 1 131.3696 541.9747)" class="st9 st11 st12">$</text>
	</g>
	<g>
		<circle class="st9" cx="562.6" cy="518.6" r="54.9"/>
		<circle class="st10" cx="562.6" cy="517.1" r="42.9"/>
		<text transform="matrix(1 0 0 1 538.5898 541.9747)" class="st9 st11 st12">$</text>
	</g>
	<g>
		<path class="st2" d="M474.1,577.3H275.9c-8.3,0-15.2-6.8-15.2-15.2V182.6c0-8.3,6.8-15.2,15.2-15.2h198.2
			c8.3,0,15.2,6.8,15.2,15.2v379.5C489.3,570.5,482.4,577.3,474.1,577.3z"/>
		<rect x="286.9" y="198.9" class="st10" width="176.1" height="315.9"/>
		<path class="st13" d="M424.2,185.6h-98.5c-2,0-3.7-1.6-3.7-3.7l0,0c0-2,1.6-3.7,3.7-3.7h98.5c2,0,3.7,1.6,3.7,3.7l0,0
			C428,183.9,426.3,185.6,424.2,185.6z"/>
		<circle class="st13" cx="375" cy="540.8" r="15"/>
	</g>
	<g>
		<polygon class="st7" points="515,362.4 515,477.6 227.5,464 227.5,376.4 		"/>
		<polygon class="st8" points="231.1,254.8 231.1,370 522.1,356.5 522.1,268.8 		"/>
		<text transform="matrix(1 0 0 1 280.0967 347.5606)" class="st6 st14 st15">CASH</text>
		<text transform="matrix(1 0 0 1 281.2139 451.5167)" class="st6 st14 st15">BACK</text>
	</g>
	<path class="st6" d="M530.8,343.2c0,0-4.3,1.3-4.5,1.5c-0.3,0.3-1.5,5.6-1.5,5.6s-1.4-5.2-1.8-5.4c-0.4-0.3-3.9-1.3-3.9-1.3
		s3.5-0.8,4.2-1.1c0.4-0.3,1-4.8,1-4.8s1.1,4.7,2.9,5.1C527.3,342.7,530.8,343.2,530.8,343.2z"/>
	<path class="st6" d="M635.2,247c0,0-4.3,1.3-4.5,1.5c-0.3,0.3-1.5,5.6-1.5,5.6s-1.4-5.2-1.8-5.4c-0.4-0.3-3.9-1.3-3.9-1.3
		s3.5-0.8,4.2-1.1c0.4-0.3,1-4.8,1-4.8s1.1,4.7,2.9,5.1C631.7,246.4,635.2,247,635.2,247z"/>
	<path class="st6" d="M421.3,111.8c0,0-4.3,1.3-4.5,1.5c-0.3,0.3-1.5,5.6-1.5,5.6s-1.4-5.2-1.8-5.4c-0.4-0.3-3.9-1.3-3.9-1.3
		s3.5-0.8,4.2-1.1c0.4-0.3,1-4.8,1-4.8s1.1,4.7,2.9,5.1C417.7,111.1,421.3,111.8,421.3,111.8z"/>
	<path class="st6" d="M664.6,382.7c0,0-4.3,1.3-4.5,1.5c-0.3,0.3-1.5,5.6-1.5,5.6s-1.4-5.2-1.8-5.4c-0.4-0.3-3.9-1.3-3.9-1.3
		s3.5-0.8,4.2-1.1c0.4-0.3,1-4.8,1-4.8s1.1,4.7,2.9,5.1C661,382.1,664.6,382.7,664.6,382.7z"/>
	<path class="st6" d="M658.7,452.3c0,0-4.3,1.3-4.5,1.5c-0.3,0.3-1.5,5.6-1.5,5.6s-1.4-5.2-1.8-5.4c-0.4-0.3-3.9-1.3-3.9-1.3
		s3.5-0.8,4.2-1.1c0.4-0.3,1-4.8,1-4.8s1.1,4.7,2.9,5.1C655.1,451.8,658.7,452.3,658.7,452.3z"/>
	<path class="st6" d="M531.6,473.5c0,0-4.3,1.3-4.5,1.5c-0.3,0.3-1.5,5.6-1.5,5.6s-1.4-5.2-1.8-5.4c-0.4-0.3-3.9-1.3-3.9-1.3
		s3.5-0.8,4.2-1.1c0.4-0.3,1-4.8,1-4.8s1.1,4.7,2.9,5.1C528,473,531.6,473.5,531.6,473.5z"/>
	<path class="st6" d="M548,552.2c0,0-4.3,1.3-4.5,1.5c-0.3,0.3-1.5,5.6-1.5,5.6s-1.4-5.2-1.8-5.4s-3.9-1.3-3.9-1.3s3.5-0.8,4.2-1.1
		c0.4-0.3,1-4.8,1-4.8s1.1,4.7,2.9,5.1C544.3,551.5,548,552.2,548,552.2z"/>
	<path class="st6" d="M675.6,525c0,0-4.3,1.3-4.5,1.5c-0.3,0.3-1.5,5.6-1.5,5.6s-1.4-5.2-1.8-5.4s-3.9-1.3-3.9-1.3s3.5-0.8,4.2-1.1
		c0.4-0.3,1-4.8,1-4.8s1.1,4.7,2.9,5.1C672,524.4,675.6,525,675.6,525z"/>
	<path class="st6" d="M75.5,300.4c0,0-4.3,1.3-4.5,1.5c-0.3,0.3-1.5,5.6-1.5,5.6s-1.4-5.2-1.8-5.4c-0.4-0.3-3.9-1.3-3.9-1.3
		s3.5-0.8,4.2-1.1c0.4-0.3,1-4.8,1-4.8s1.1,4.7,2.9,5.1C72,299.8,75.5,300.4,75.5,300.4z"/>
	<path class="st6" d="M81.4,511.9c0,0-4.3,1.3-4.5,1.5c-0.3,0.3-1.5,5.6-1.5,5.6s-1.4-5.2-1.8-5.4c-0.4-0.3-3.9-1.3-3.9-1.3
		s3.5-0.8,4.2-1.1c0.4-0.3,1-4.8,1-4.8s1.1,4.7,2.9,5.1C77.9,511.3,81.4,511.9,81.4,511.9z"/>
	<path class="st6" d="M220.8,436.4c0,0-4.3,1.3-4.5,1.5c-0.3,0.3-1.5,5.6-1.5,5.6s-1.4-5.2-1.8-5.4c-0.4-0.3-3.9-1.3-3.9-1.3
		s3.5-0.8,4.2-1.1c0.4-0.3,1-4.8,1-4.8s1.1,4.7,2.9,5.1C217.2,435.9,220.8,436.4,220.8,436.4z"/>
	<path class="st6" d="M243.6,511.9c0,0-4.3,1.3-4.5,1.5c-0.3,0.3-1.5,5.6-1.5,5.6s-1.4-5.2-1.8-5.4c-0.4-0.3-3.9-1.3-3.9-1.3
		s3.5-0.8,4.2-1.1c0.4-0.3,1-4.8,1-4.8s1.1,4.7,2.9,5.1C239.9,511.3,243.6,511.9,243.6,511.9z"/>
	<g>
		<g>
			
				<rect x="171.6" y="169.4" transform="matrix(0.5739 -0.8189 0.8189 0.5739 -116.4943 240.4921)" class="st6" width="2.5" height="125.6"/>
			
				<rect x="136.9" y="189.6" transform="matrix(0.172 -0.9851 0.9851 0.172 -148.9676 357.4797)" class="st6" width="2.5" height="155.6"/>
			
				<rect x="66.8" y="316" transform="matrix(0.9905 -0.1377 0.1377 0.9905 -42.3562 22.1448)" class="st6" width="144.2" height="2.5"/>
			
				<rect x="193.5" y="134.6" transform="matrix(0.82 -0.5724 0.5724 0.82 -78.8244 147.2702)" class="st6" width="2.5" height="128.7"/>
		</g>
		<g>
			
				<rect x="514.3" y="231" transform="matrix(0.8189 -0.5739 0.5739 0.8189 -28.7878 373.2686)" class="st6" width="125.6" height="2.5"/>
			
				<rect x="534.2" y="266" transform="matrix(0.9851 -0.172 0.172 0.9851 -36.8533 109.2455)" class="st6" width="155.6" height="2.5"/>
			
				<rect x="609.8" y="245.1" transform="matrix(0.1377 -0.9905 0.9905 0.1377 212.7087 878.7927)" class="st6" width="2.5" height="144.2"/>
			
				<rect x="490.9" y="197.7" transform="matrix(0.5724 -0.82 0.82 0.5724 74.2952 540.3671)" class="st6" width="128.7" height="2.5"/>
		</g>
	</g>
	<g>
		<path class="st2" d="M117.2,318.2c5.3,6.4,12.6,0.8,15.5,6.8c2.7,5.6,18.4,8.8,26.4,5.2c8-3.7,4-10.7,8.6-16.5
			c7.8-10,7.1-28.5-9.3-38c-14.9-8.6-32.3,4.4-33.6,15.5C123.4,302.3,103.8,302.3,117.2,318.2z"/>
		<path class="st3" d="M158.8,306.2c0,0-7.3,26-2.8,30.1c4.4,3.9-6.6,22.1-2.3,32.6c3.4,8.3,10.2,47.2,10.2,47.2l-76.9-3.4
			c0,0,22.3-70.3,26.8-72.5c13.6-6.3,13.6-2.7,18.2-6.7c3.2-2.8,8.7-32.2,8.7-32.2L158.8,306.2z"/>
		<path class="st3" d="M161.6,284.9c0,0,10.9,28.2-5.3,33.7c-11.2,3.9-24-16.8-21.7-26.5S153.9,278.1,161.6,284.9z"/>
		<path class="st4" d="M159.1,307.7c0.5-0.1,1-0.1,1.3-0.3h0.1l0.1-0.3c0.3-0.8-2.7-5.3-4.4-7.8l-0.5,0.4c2,3,4,6.4,4.3,7.2
			c-0.6,0.1-2.1,0.3-3,0.4v0.6C157.1,307.9,158.1,307.9,159.1,307.7z"/>
		<ellipse transform="matrix(0.9922 -0.1246 0.1246 0.9922 -36.3812 20.8497)" class="st2" cx="148.5" cy="301.3" rx="1" ry="1.4"/>
		<ellipse transform="matrix(0.9922 -0.1246 0.1246 0.9922 -36.1237 22.1915)" class="st2" cx="159.3" cy="299.9" rx="1" ry="1.4"/>
		<path class="st3" d="M140.5,303.2c0,0-1.6-5.8-4.3-3.4c-2.7,2.4-0.3,9.3,2.3,9.5C140.8,309.4,141.5,305.6,140.5,303.2z"/>
		<path class="st4" d="M156.9,311.5c0.8-0.1,1.5-0.8,2.1-2.1l-0.6-0.3c-0.5,1.1-1.1,1.8-1.8,1.8c-1,0-2.1-1.6-2.4-2.3l-0.6,0.3
			c0,0.1,1.3,2.7,3,2.7C156.8,311.5,156.8,311.5,156.9,311.5z"/>
		<path class="st2" d="M160.9,295c0,0-1.5-2.1-4.4-0.6C154.7,295.1,162.6,297.1,160.9,295z"/>
		<path class="st2" d="M147.7,295.4c0,0-2.4-0.9-4,1.9C142.7,299,150.5,296.2,147.7,295.4z"/>
		<path class="st2" d="M201.4,534.5c0,0,5.3,17.3,8.6,18.2c3.3,1,19.7-5.6,22.1-6.9c2.4-1.5-12-3.4-15.4-4.3
			c-3.4-0.9-5.3-11.6-5.3-11.6L201.4,534.5z"/>
		<path class="st2" d="M108.2,559.1c0,0-4.3,17.6-1.9,20.1c2.3,2.5,19.7,5.3,22.6,5.3c2.9,0-8.6-9.1-11-11.6
			c-2.5-2.5,1.4-12.8,1.4-12.8L108.2,559.1z"/>
		<path class="st7" d="M163.3,404.2c0,0,38,46.8,46.2,64.5c8.2,17.7,12.2,64.4,12.2,64.4s-22.9,13.4-27.7,12
			c-4.8-1.4-23.2-61.1-23.2-61.1l-26.1-37.8c0,0,8.7,27.9,8.7,46.8c0,22.2-8.1,68.8-16.2,70.2c-8.1,1.4-25.1-0.5-31.7-4
			c-3-1.6,0.5-43.8,2.7-56.4c2.1-12.6-12-69.6-12-69.6L163.3,404.2z"/>
		<path class="st8" d="M114,326.3c0,0-25.5,0.4-34.7,5.7c-9.1,5.3,0.3,25.5,1.5,25.9c1.3,0.4,34.3-3.8,36-5.7
			C118.4,350.3,114,326.3,114,326.3z"/>
		<path class="st2" d="M149.9,278.3c0,0,6.8,15.8,15.3,14.9C173.6,292.3,159.1,270.5,149.9,278.3z"/>
		<path class="st2" d="M153.8,275.4c0,0,1.8,15.4-16.5,24.4S134.5,272.2,153.8,275.4z"/>
		<path class="st5" d="M140.5,310.6c0,0,4.3,8.6,15.4,8.5c0,0-0.9,3.8-0.9,5.3C154.9,325.8,139.9,325.9,140.5,310.6z"/>
		<circle class="st2" cx="136.9" cy="273" r="10.1"/>
		<path class="st8" d="M133.3,329.3c0,0,15.3,29.4,23.5,4.5c0,0,20.3,16.3,10.1,40.5c-11.1,26.3-2,16.3,0,40.4
			c0.4,4.8-72.7,12.1-76.5,3.8c-3.8-8.3-0.6-83.1,19.1-91.2C117.7,324.1,128.9,329.6,133.3,329.3z"/>
		<g>
			<circle class="st9" cx="89.4" cy="388" r="54.9"/>
			<circle class="st10" cx="88.9" cy="386.6" r="42.9"/>
			<text transform="matrix(0.9313 -0.3643 0.3643 0.9313 75.5562 418.6693)" class="st9 st11 st16">$</text>
		</g>
		<path class="st3" d="M170.6,343.6c0,0,52.5,36.2,28.7,67.9s-76.5-8.8-91-9.7s4.5-3,4.5-3s-10.6-0.5-9.7-1.8s9.7-2.4,9.7-2.4
			s-9.2,0.1-8.2-1.3c0.8-1,4.8-2.9,9.8-1.9s50.3,8.2,61,5.1c13.5-3.9-17-28.3-17-28.3L170.6,343.6z"/>
		<path class="st3" d="M64.9,333.7c0,0,7.2-5.7,15.5-5.6c8.3,0.1,15,5.1,13.1,4.9c-1.9-0.1-8.1-1.9-8.1-1.9s8.8,2.7,7.8,4.2
			c-1,1.5-9.8-2.3-9.8-2.3s11.4,7.6,7.3,6.2c-10.4-3.7-30.2,0.9-32.8,3.5C55.3,345.5,60.2,336.5,64.9,333.7z"/>
		<path class="st8" d="M176.4,387.3c0,0,23.2-13.9,18.9-22.3c-9-17.9-21-25.4-38.5-31.1c0,0-5.7,36.4-4.2,36.7
			C161.2,372.4,176.4,387.3,176.4,387.3z"/>
		<path class="st17" d="M161.5,380.7l-0.4-1.3c3.5-1.1,6.1-3.3,7.2-6.3c3.3-8.5-3.9-21.6-4-21.7l1.1-0.6c0.3,0.5,7.6,13.6,4,22.7
			C168.1,377,165.4,379.4,161.5,380.7z"/>
		<path class="st17" d="M148.9,348.1c-0.1,0-0.3,0-0.4,0c-8.6-0.3-17.4-16.2-17.7-16.8l1.1-0.6c0.1,0.1,8.7,15.9,16.7,16.2
			c7.8,0.3,10.6-10.2,10.6-10.4l1.3,0.4C160.4,337.4,157.4,348.1,148.9,348.1z"/>
		<path class="st17" d="M174.6,383.9l-0.8-1c0.1-0.1,14.9-10.2,20.1-19.9l1.1,0.6C189.8,373.5,175.1,383.5,174.6,383.9z"/>
		<path class="st18" d="M135.2,449.6l-0.3-1.3c5.7-1.3,21.1-5.1,23.6-7.1l0.8,1C156.1,444.9,136.1,449.4,135.2,449.6z"/>
		<path class="st18" d="M144.4,448.1l-5.7-27.1l1.3-0.3l4.8,23.4c1.3-3.7,3.5-12.4,1.6-24l1.3-0.3c2.7,15.9-2.3,26.3-2.5,26.6
			L144.4,448.1z"/>
		<path class="st18" d="M195.6,545.1c-0.1-0.5-11.1-46.8-18.6-64.3c-7.4-17.3-26.5-31.2-26.8-31.3l0.8-1
			c0.3,0.1,19.6,14.3,27.1,31.8c7.4,17.6,18.6,64,18.7,64.5L195.6,545.1z"/>
		<path class="st18" d="M190.5,540.2l-0.1-1.3c2.5-0.3,23.2-8.6,31.1-11.9l0.5,1.1C220.7,528.8,193.7,539.9,190.5,540.2z"/>
		<path class="st18" d="M108.8,559.2l-1.3-0.3c0.1-0.4,10-44.2,6.3-66.2c-3.8-22-11.4-50.6-11.5-50.9l1.3-0.4
			c0.1,0.3,7.7,28.9,11.5,51C118.9,514.8,109,558.9,108.8,559.2z"/>
		<path class="st18" d="M107.8,461l-0.4-1.3c17.3-5.2,12.8-26.5,12.8-26.6l1.3-0.3C121.6,433.1,126.3,455.6,107.8,461z"/>
		<path class="st18" d="M187,438.4c-11.1,0-17.4-14.5-17.7-15.2l1.1-0.5c0.1,0.1,6.9,16.2,18.6,14.3l0.3,1.3
			C188.4,438.4,187.6,438.4,187,438.4z"/>
		<path class="st18" d="M138.1,557.7c-14,0-32.4-4.2-32.7-4.3l0.3-1.3c0.3,0,22.3,5.2,36.5,4l0.1,1.3
			C140.9,557.7,139.5,557.7,138.1,557.7z"/>
		<path class="st2" d="M142.6,296c0,0-2.7,4-2.4,8.2c0.1,2-3.8-3.9-2.1-7.6C139.6,292.8,142.6,296,142.6,296z"/>
		<path class="st2" d="M147.9,276.8l-0.9-0.4c1-2.3,1-4.4,0.3-6.3c-1.5-3.7-5.8-5.4-5.9-5.4l0.4-0.9c0.3,0.1,4.7,1.9,6.4,5.9
			C149,271.9,148.9,274.3,147.9,276.8z"/>
		<path class="st2" d="M131.7,282.2c-3.8-1.8-5.7-3.9-5.9-6.3c-0.3-4.3,5.2-7.8,5.3-8.1l0.5,0.8c0,0-5.2,3.4-4.9,7.2
			c0.1,2,1.9,3.9,5.3,5.6L131.7,282.2z"/>
		<path class="st2" d="M112.4,310.9c0-0.1-2.7-7.3,4.5-12.6c6.2-4.5,13.8-10.2,14-15.2h0.9c-0.3,5.4-7.7,11-14.4,15.9
			c-6.7,4.9-4.3,11.2-4.3,11.5L112.4,310.9z"/>
		<path class="st2" d="M141,298.1l-0.1-0.9c13.6-2.4,11.2-19.8,11.1-20.5l0.9-0.1C152.9,276.8,155.6,295.5,141,298.1z"/>
	</g>
	<g>
		<path class="st5" d="M599.1,339.3c0,0,39.1,3,46.7-6.8c7.6-9.8,12.6-36,17.7-47.3c5.1-11.4,2.9,2.3,2.9,2.3s-1.5-7.2,3.2-4.9
			c4.7,2.3,5.2,8.6,5.2,8.6s0.8-9.1,3.3-5.7s-4.8,47.7-19.8,67.7c-14.9,19.9-59.1,20.5-59.1,20.5L599.1,339.3L599.1,339.3z"/>
		<g>
			<circle class="st9" cx="658.7" cy="279.6" r="54.9"/>
			<circle class="st10" cx="658.7" cy="278.1" r="42.9"/>
			<text transform="matrix(1 0 0 1 634.6455 302.9561)" class="st9 st11 st12">$</text>
		</g>
		<path class="st2" d="M621.5,341.7c0,0,9.6,26.9,7.6,32.2c-2,5.3-28.2,10.5-28.2,10.5s-2.3-25.5-1.6-28.9
			C599.9,352,621.5,341.7,621.5,341.7z"/>
		<path class="st2" d="M590.4,529.6c0,0,17.6,4.2,18.8,7.3s-4.2,20.1-5.4,22.6s-4.3-11.7-5.4-15c-1.1-3.3-12-4.4-12-4.4L590.4,529.6
			z"/>
		<path class="st2" d="M634.2,558.4c0,0,4.9,17.4,2.8,19.9s-19.6,6.2-22.3,6.2c-2.9,0.1,8.2-9.5,10.5-12.1
			c2.4-2.7-1.9-12.6-1.9-12.6L634.2,558.4z"/>
		<path class="st3" d="M554.9,314.9c0,0,7.3,26,2.8,30.1c-4.4,3.9-14.8,7.7-19.1,18.1c-3.4,8.3,11.2,61.6,11.2,61.6l76.9-3.4
			c0,0-22.3-70.3-26.8-72.5c-13.6-6.3-13.6-2.7-18.2-6.7c-3.2-2.8-8.7-32.2-8.7-32.2L554.9,314.9z"/>
		<path class="st3" d="M557.3,348.4c0,0,44.8-10.2,55.9-19.3c11.2-9.1,37.8-61.2,43.1-61.5c3-0.1-3,9.1-3,9.1s4.5-6.9,6.7-7.3
			c1.8-0.4-1.6,7.3-1.6,7.3s6.6-8.3,5.2-3.9c-1.8,5.4-21.5,69.8-39.3,83.5c-17.8,13.5-54.4,20.3-54.4,20.3L557.3,348.4z"/>
		<path class="st7" d="M626.8,421.2c0,0,2.3,61.2,7.6,81.2c5.3,19.9,15.2,58.6,15.2,58.6c-11.6,6.1-31.4,12.5-35.4,3.5
			c-3.8-9.1-15.7-40-17.9-56.4c-2.3-16.4-9.8-59.2-9.8-59.2s-11.1,36.4-10.5,45.8c0.5,9.6,33.6,16.9,32.6,22
			c-1.1,5.7-14.1,27.9-14.1,27.9s-55.4-23.9-57.7-41.5c-2.3-17.7,13.3-78.4,13.3-78.4L626.8,421.2z"/>
		<path class="st2" d="M557.8,344.9c0,0,11,10.6,21,12.5c10,1.9,3.2-15.4,3.2-15.4s9.3-0.8,18.2,6.7c8.8,7.4,25.9,48.2,27.1,83.6
			c0.3,5.6-81.1,10.5-81.1,8.3c-1-25.3-11.6-69.8-9-79.8C539.6,350.9,538,350.4,557.8,344.9z"/>
		<path class="st2" d="M549.9,347.4c0,0,50-21.1,52.3-11.4c2.4,9.6,14.9,19.6,11.5,27s-41.8,16.8-49.4,16.9
			C556.7,380,549.9,347.4,549.9,347.4z"/>
		<path class="st3" d="M552.1,293.6c0,0-9.2,27.8,1.1,33.5c10.4,5.7,28-16.5,25.9-26.3C576.9,291.1,559.8,286.9,552.1,293.6z"/>
		<path class="st4" d="M554.8,316.4c-0.5-0.1-1-0.1-1.3-0.3h-0.1l-0.1-0.3c-0.3-0.8,2.7-5.3,4.4-7.8l0.5,0.4c-2,3-4,6.4-4.3,7.2
			c0.6,0.1,2.1,0.3,3,0.4v0.6C556.7,316.7,555.7,316.6,554.8,316.4z"/>
		<ellipse transform="matrix(0.1246 -0.9922 0.9922 0.1246 187.2874 832.3684)" class="st2" cx="565.4" cy="310" rx="1.4" ry="1"/>
		
			<ellipse transform="matrix(0.1246 -0.9922 0.9922 0.1246 179.2143 820.4895)" class="st2" cx="554.6" cy="308.7" rx="1.4" ry="1"/>
		<path class="st2" d="M550.8,298.3c0,0-3.9-2.9,3.7-12.8c7.4-9.8,5.4-3.9,15.9,0.6c10.5,4.5,13.8,7.6,14.1,13.6s-4.4,8.5-3.4,11
			c1,2.5,2.3,6.7-0.3,8.7c-2.5,2-7.3,3.7-7.6,1.9c-0.3-1.8,4-12.5,3.4-14.9c-0.8-2.4,1.8,0-3.3-2.8c-5.2-2.8-1.3-3.5-1.9-5.8
			c-0.6-2.3-13.9-3.8-17-2.5C551.3,296.6,550.8,298.3,550.8,298.3z"/>
		<path class="st3" d="M573.4,311.9c0,0,1.6-5.8,4.3-3.4c2.7,2.4,0.3,9.3-2.3,9.5C572.9,318.1,572.3,314.3,573.4,311.9z"/>
		<path class="st2" d="M551.6,296.1c0,0-5.1,24.7-0.6,26.4c4.4,1.8-0.4-4.7,3-5.4c3.4-0.8,8.3-2.7,9.3,0.8c1,3.4-1.8,5.7,1.4,5.8
			c3.2,0.1,4.5-1.3,9.2-9.7c4.5-8.5-0.1-16.2,1.5-16c1.6,0.3,3.2,1,3.3,1.6c0.3,0.6-3.9,23.7-8.6,28.3c-4.7,4.7-14.5,5.6-15,5.3
			c-0.5-0.4-8.3-3.3-8.2-9.7C547,318.7,547.6,296.6,551.6,296.1z"/>
		<path class="st4" d="M556.9,320.2c-0.8-0.1-1.5-0.8-2.1-2.1l0.6-0.3c0.5,1.1,1.1,1.8,1.8,1.8c1,0,2.1-1.6,2.4-2.3l0.6,0.3
			c0,0.1-1.3,2.7-3,2.7C557.1,320.2,556.9,320.2,556.9,320.2z"/>
		<path class="st2" d="M552.9,303.7c0,0,1.5-2.1,4.4-0.6C559.1,303.8,551.1,306,552.9,303.7z"/>
		<path class="st2" d="M566,304.2c0,0,2.4-0.9,4,1.9C571.1,307.7,563.4,305,566,304.2z"/>
		<path class="st2" d="M550.3,297c-1.3-2.1-1.5-4.4-0.8-6.6c1.8-5.4,9-8.6,9.2-8.7l0.4,0.9c-0.1,0-7.1,3.2-8.7,8.2
			c-0.6,1.9-0.4,3.9,0.6,5.8L550.3,297z"/>
		<g>
			<line class="st19" x1="578.8" y1="450.7" x2="595.2" y2="450.7"/>
			<rect x="578.8" y="450" class="st18" width="16.4" height="1.3"/>
		</g>
		<path class="st18" d="M587,451.8l-1-0.6c-0.3-0.1-5.7-3.8-6.8-11.1l1.3-0.3c0.8,4.9,3.7,8.1,5.3,9.5v-9.8h1.3V451.8z"/>
		<path class="st18" d="M597.7,516.9c-1.1-0.3-26.4-6.6-28.4-18.1c-2.5-14,11.4-44.6,12-45.8l1.1,0.5c-0.1,0.3-14.4,31.4-11.9,45.1
			c1.9,10.6,27.1,16.9,27.4,17L597.7,516.9z"/>
		<path class="st18" d="M643.8,559.9c-0.1-0.5-14.4-56.7-18.6-64.5c-4.3-8-4-58.3-4-60.5h1.3c0,0.5-0.3,52.1,3.9,59.8
			c4.3,8,18.1,62.5,18.7,64.8L643.8,559.9z"/>
		<path class="st18" d="M621.6,459.6c-4.2,0-7.4-1.4-9.7-4c-5.4-6.4-3.3-18.1-3.2-18.6l1.3,0.3c0,0.1-2.1,11.5,2.9,17.4
			c2.1,2.5,5.2,3.7,9.3,3.7v1.3C622,459.6,621.8,459.6,621.6,459.6z"/>
		<path class="st18" d="M542.2,459.6l-0.3-1.3l0.1,0.6l-0.1-0.6c0.1,0,8-1.5,8.8-17.2l1.3,0.1C551.1,458,542.6,459.5,542.2,459.6z"
			/>
		<path class="st18" d="M614.1,565.2l-0.1-1.3c0.3,0,24.6-2.9,33.3-9.7l0.8,1C639.3,562.4,615.2,565.2,614.1,565.2z"/>
		<path class="st18" d="M589.4,542.5l-1.1-0.5c0-0.1,6.3-13.6,10-22l1.1,0.5C595.8,528.8,589.5,542.3,589.4,542.5z"/>
		<path class="st18" d="M562.9,384.9l-0.1-1.3c0.4,0,35.2-4,49.9-20.3l0.9,0.9C598.6,380.8,563.3,384.9,562.9,384.9z"/>
		<path class="st18" d="M615.9,380.6c-1.4-4-4.7-11.7-4.7-11.9l1.1-0.5c0,0.1,3.3,8,4.7,12L615.9,380.6z"/>
		<path class="st18" d="M612.4,365.2h-1.3c0-3-7.6-15.2-11.6-18.6c-4.2-3.5-3.4-10.6-3.4-10.9l1.3,0.1c0,0.1-0.6,6.7,3,9.8
			C604.4,349.1,612.4,361.5,612.4,365.2z"/>
		<path class="st18" d="M626.9,376.5l-1.3-0.1c0.6-6.2-4.4-18.1-4.4-18.2l1.1-0.5C622.6,358.2,627.7,370,626.9,376.5z"/>
	</g>
	<path class="st6" d="M217.4,349.6c0,0-4.3,1.3-4.5,1.5c-0.3,0.3-1.5,5.6-1.5,5.6s-1.4-5.2-1.8-5.4c-0.4-0.3-3.9-1.3-3.9-1.3
		s3.5-0.8,4.2-1.1c0.4-0.3,1-4.8,1-4.8s1.1,4.7,2.9,5.1C213.8,349,217.4,349.6,217.4,349.6z"/>
	<path class="st6" d="M135,170.4c0,0-4.3,1.3-4.5,1.5c-0.3,0.3-1.5,5.6-1.5,5.6s-1.4-5.2-1.8-5.4c-0.4-0.3-3.9-1.3-3.9-1.3
		s3.5-0.8,4.2-1.1c0.4-0.3,1-4.8,1-4.8s1.1,4.7,2.9,5.1C131.3,169.9,135,170.4,135,170.4z"/>
	<path class="st6" d="M561.7,138c0,0-4.3,1.3-4.5,1.5c-0.3,0.3-1.5,5.6-1.5,5.6s-1.4-5.2-1.8-5.4c-0.4-0.3-3.9-1.3-3.9-1.3
		s3.5-0.8,4.2-1.1c0.4-0.3,1-4.8,1-4.8s1.1,4.7,2.9,5.1C558.1,137.5,561.7,138,561.7,138z"/>
	<path class="st6" d="M610.2,234.4c0,0-4.3,1.3-4.5,1.5c-0.3,0.3-1.5,5.6-1.5,5.6s-1.4-5.2-1.8-5.4c-0.4-0.3-3.9-1.3-3.9-1.3
		s3.5-0.8,4.2-1.1c0.4-0.3,1-4.8,1-4.8s1.1,4.7,2.9,5.1C606.6,233.7,610.2,234.4,610.2,234.4z"/>
	<path class="st6" d="M57.8,397.2c0,0-4.3,1.3-4.5,1.5c-0.3,0.3-1.5,5.6-1.5,5.6s-1.4-5.2-1.8-5.4c-0.4-0.3-3.9-1.3-3.9-1.3
		s3.5-0.8,4.2-1.1c0.4-0.3,1-4.8,1-4.8s1.1,4.7,2.9,5.1C54.2,396.6,57.8,397.2,57.8,397.2z"/>
	<circle class="st6" cx="89.1" cy="309.2" r="1.4"/>
	<circle class="st6" cx="51.9" cy="328.4" r="1.4"/>
	<circle class="st6" cx="194.4" cy="327.9" r="1.4"/>
	<circle class="st6" cx="221.6" cy="297.6" r="1.4"/>
	<circle class="st6" cx="524.9" cy="303.6" r="1.4"/>
	<circle class="st6" cx="649.4" cy="413.2" r="1.4"/>
	<circle class="st6" cx="523.5" cy="514.9" r="1.4"/>
	<circle class="st6" cx="678.5" cy="356.6" r="1.4"/>
	<circle class="st6" cx="575.8" cy="254.8" r="1.4"/>
	<circle class="st6" cx="588" cy="214" r="1.4"/>
	<path class="st6" d="M546.7,106.7c0.8,0,1.4,0.6,1.4,1.4c0,0.8-0.6,1.4-1.4,1.4c-0.8,0-1.4-0.6-1.4-1.4
		C545.3,107.3,546,106.7,546.7,106.7z"/>
	<circle class="st6" cx="335.2" cy="112.4" r="1.4"/>
	<circle class="st6" cx="96.2" cy="212.7" r="1.4"/>
	<circle class="st6" cx="159.3" cy="195.1" r="1.4"/>
	<circle class="st6" cx="184.3" cy="138.8" r="1.4"/>
	<circle class="st6" cx="252.1" cy="241.3" r="1.4"/>
	<circle class="st6" cx="507.7" cy="244.2" r="1.4"/>
	<circle class="st6" cx="617.7" cy="163.9" r="1.4"/>
	<circle class="st6" cx="549.9" cy="162.5" r="1.4"/>
	<circle class="st6" cx="578.8" cy="124" r="0.9"/>
	<circle class="st6" cx="588.9" cy="177.4" r="0.9"/>
	<circle class="st6" cx="545.3" cy="235" r="0.9"/>
	<circle class="st6" cx="638.9" cy="211.3" r="0.9"/>
	<circle class="st6" cx="524.9" cy="388" r="0.9"/>
	<circle class="st6" cx="701.6" cy="334.5" r="0.9"/>
	<circle class="st6" cx="663.8" cy="428.2" r="0.9"/>
	<circle class="st6" cx="190.4" cy="290.3" r="0.9"/>
	<circle class="st6" cx="123.9" cy="231.3" r="0.9"/>
	<circle class="st6" cx="87.8" cy="232.2" r="0.9"/>
	<circle class="st6" cx="63.6" cy="273" r="0.9"/>
	<circle class="st6" cx="189.6" cy="228.7" r="0.9"/>
	<circle class="st6" cx="193.1" cy="157.4" r="0.9"/>
	<circle class="st6" cx="314.9" cy="116.6" r="0.9"/>
	<circle class="st6" cx="436.5" cy="116.6" r="0.9"/>
	<circle class="st6" cx="688.8" cy="538.5" r="1.4"/>
	<circle class="st6" cx="211.5" cy="415.9" r="1.4"/>
	<circle class="st6" cx="531.6" cy="414.5" r="1.4"/>
	<circle class="st6" cx="161.2" cy="254.8" r="1.4"/>
	<circle class="st6" cx="93.8" cy="276.7" r="1.4"/>
	<circle class="st6" cx="217.2" cy="374.4" r="1.4"/>
	<circle class="st6" cx="232.6" cy="475.7" r="1.4"/>
	<circle class="st6" cx="57.8" cy="531.2" r="1.4"/>
	<circle class="st6" cx="179.4" cy="542.2" r="1.4"/>
	<circle class="st6" cx="253.5" cy="547.8" r="1.4"/>
</g>
</svg>
