<svg width="462" height="358" viewBox="0 0 462 358" fill="none" xmlns="http://www.w3.org/2000/svg">
<g opacity="0.3">
<path opacity="0.3" d="M452.479 265.043C452.479 265.043 447.457 265.147 444.92 265.043C436.232 265.043 420.594 265.043 420.594 265.043L409.369 285.703C411.958 291.177 415.329 297.276 421.254 298.492C424.237 298.886 427.272 298.503 430.064 297.38C437.098 295.217 443.676 291.783 449.473 287.25C453.084 284.687 455.776 281.032 457.153 276.824C458.248 272.532 456.475 266.92 452.479 265.043Z" fill="black"/>
</g>
<g opacity="0.3">
<path opacity="0.3" d="M54.9151 287.336C52.2913 280.89 48.1036 269.317 42.6302 265.042C42.6302 265.042 7.58245 265.633 7.40869 265.042L23.6901 323.357C28.903 327.51 31.5442 333.244 33.2296 338.665C34.9151 344.087 36.3052 349.908 40.1801 353.991C44.055 358.074 51.7353 359.204 55.1063 354.703C58.9117 349.612 54.7761 342.54 54.6545 336.198C54.5328 329.856 58.5467 324.26 60.1801 318.127C62.9777 307.857 58.9116 297.154 54.9151 287.336Z" fill="black"/>
</g>
<path d="M318.561 84.8519C320.993 78.6834 323.443 72.3237 323.478 65.7381C323.513 59.1525 320.576 51.9588 314.79 49.1091C309.403 46.4853 302.922 47.997 297.24 46.1726C290.29 43.9137 285.616 37.0501 282.314 30.256C279.013 23.4619 276.319 16.0944 270.95 10.9163C267.347 7.57841 262.801 5.43479 257.934 4.77853C253.066 4.12228 248.115 4.98542 243.756 7.24995C237.464 3.16645 230.161 0.910621 222.662 0.733887C213.296 0.733887 202.662 1.81121 196.337 8.72692C191.437 14.0788 188.413 20.8902 182.314 24.7304C173.904 30.1517 162.87 26.1031 152.896 26.7807C150.863 26.9198 148.5 27.5105 147.684 29.3872C147.478 30.2441 147.457 31.135 147.622 32.0007C147.786 32.8665 148.133 33.6873 148.639 34.4089L156.858 50.2907C154.772 51.2986 152.485 51.8221 150.168 51.8221C147.852 51.8221 145.565 51.2986 143.479 50.2907C144.298 60.8857 148.805 70.8585 156.215 78.4748C154.478 77.2759 151.784 78.6486 151.002 80.6642C150.374 82.7605 150.472 85.0076 151.28 87.0413C153.225 93.4416 156.52 99.3502 160.943 104.368C165.366 109.386 170.814 113.397 176.92 116.129C183.025 118.862 189.646 120.252 196.335 120.207C203.024 120.162 209.626 118.683 215.694 115.868L270.863 118.318C271.685 120.419 273.002 122.29 274.702 123.773C276.402 125.255 278.435 126.305 280.629 126.833C286.641 122.089 287.579 119.5 287.579 119.5C291.471 122.193 288.448 120.873 291.471 122.193C298.422 125.234 308.361 121.064 309.664 113.418C309.976 110.309 311.183 107.358 313.139 104.921C315.259 102.628 318.352 101.689 321.046 100.212C325.372 97.8253 328.8 94.0915 330.811 89.5782C328.553 89.6808 326.299 89.3137 324.19 88.5002C322.081 87.6867 320.165 86.4444 318.561 84.8519V84.8519Z" fill="#263238"/>
<path d="M182.523 63.9311C182.622 50.6129 187.731 37.82 196.833 28.0968C205.935 18.3736 218.363 12.4325 231.645 11.455L234.391 11.2639C264.035 10.8295 280.976 35.7469 280.594 65.3906L284.99 201.915L217.327 206.746L214.756 162.332C214.756 162.332 186.068 160.004 183.635 131.663C182.453 118.023 182.332 89.6304 182.523 63.9311Z" fill="#FFBE9D"/>
<path d="M196.736 85.3904C196.804 86.4474 197.281 87.4365 198.066 88.1472C198.851 88.8579 199.883 89.2341 200.941 89.1957C201.459 89.1958 201.972 89.093 202.45 88.8932C202.927 88.6935 203.361 88.4008 203.724 88.0323C204.088 87.6637 204.375 87.2265 204.568 86.7461C204.762 86.2658 204.858 85.7518 204.851 85.234C204.788 84.1753 204.312 83.1836 203.526 82.472C202.74 81.7604 201.706 81.3858 200.646 81.4286C200.127 81.4238 199.612 81.5234 199.132 81.7215C198.652 81.9195 198.217 82.212 197.852 82.5816C197.488 82.9511 197.201 83.3902 197.009 83.8727C196.817 84.3552 196.725 84.8713 196.736 85.3904V85.3904Z" fill="#263238"/>
<path d="M191.09 74.7911C191.628 75.295 194.565 72.7928 198.892 72.4801C203.218 72.1673 206.606 74.1134 207.041 73.5574C207.267 73.2967 206.676 72.3758 205.216 71.4722C203.228 70.306 200.929 69.7783 198.631 69.9605C196.366 70.119 194.212 70.9955 192.48 72.4627C191.211 73.5921 190.777 74.5826 191.09 74.7911Z" fill="#263238"/>
<path d="M219.986 110.204C219.986 109.943 217.24 109.682 212.81 109.439C211.68 109.439 210.62 109.265 210.377 108.518C210.193 107.377 210.363 106.207 210.863 105.164C211.721 102.384 212.613 99.4883 213.539 96.4764C217.223 84.0698 219.812 73.8874 219.308 73.7658C218.804 73.6441 215.416 83.5485 211.732 95.9551C210.852 99.0133 210.006 101.909 209.195 104.643C208.598 106.039 208.506 107.6 208.935 109.057C209.127 109.439 209.404 109.772 209.744 110.031C210.084 110.289 210.479 110.467 210.898 110.551C211.521 110.681 212.158 110.722 212.792 110.673C217.24 110.638 219.986 110.464 219.986 110.204Z" fill="#263238"/>
<path d="M189.751 64.2959C190.742 65.2342 194.356 63.9657 198.787 63.653C203.218 63.3402 207.006 63.792 207.788 62.7146C208.135 62.176 207.492 61.2203 205.79 60.3863C203.448 59.3571 200.879 58.9558 198.335 59.2221C195.798 59.4048 193.354 60.2496 191.246 61.6721C189.751 62.7842 189.3 63.8441 189.751 64.2959Z" fill="#263238"/>
<path d="M277.849 86.7111C278.318 86.4678 296.962 79.5173 297.71 98.8744C298.457 118.231 278.839 115.121 278.77 114.513C278.7 113.905 277.849 86.7111 277.849 86.7111Z" fill="#FFBE9D"/>
<path d="M282.697 107.145C282.784 107.145 283.062 107.371 283.635 107.615C284.451 107.934 285.357 107.934 286.172 107.615C288.188 106.781 289.786 103.444 289.734 99.9343C289.715 98.2646 289.323 96.6202 288.587 95.1211C288.38 94.5217 288.03 93.982 287.566 93.5489C287.103 93.1158 286.541 92.8026 285.929 92.6363C285.538 92.5553 285.131 92.6112 284.777 92.7947C284.422 92.9783 284.142 93.2782 283.983 93.6441C283.739 94.2002 283.878 94.5825 283.774 94.6172C283.67 94.652 283.34 94.3044 283.461 93.5051C283.55 93.0192 283.801 92.578 284.174 92.254C284.694 91.8251 285.362 91.619 286.033 91.6806C286.84 91.7999 287.603 92.1269 288.245 92.6295C288.888 93.1321 289.389 93.7931 289.699 94.5477C290.596 96.1965 291.073 98.0403 291.09 99.9169C291.09 103.844 289.352 107.58 286.502 108.518C285.986 108.693 285.436 108.75 284.895 108.684C284.353 108.618 283.834 108.43 283.375 108.136C282.766 107.615 282.645 107.198 282.697 107.145Z" fill="#EB996E"/>
<path d="M284.417 42.2974C282.925 36.6473 280.359 31.3376 276.858 26.6589C266.693 12.5321 243.479 5.92912 230.29 7.1107C217.102 8.29228 203.426 18.0577 191.142 22.9578C183.096 26.1724 176.997 33.5572 180.073 39.274C175.307 41.1274 170.272 42.1954 165.164 42.4364C165.164 42.4364 164.695 49.6823 168.726 51.6111L181.411 59.9169C198.318 62.1584 227.996 45.512 233.713 40.2818C239.02 35.4119 244.895 31.1996 251.211 27.7362C245.824 41.863 263.374 38.7353 262.888 44.2088C257.518 64.0698 273.73 71.4025 273.73 71.4025L274.13 88.7787C273.765 93.227 275.677 96.6501 280.125 96.3547C280.125 96.3547 284.955 89.717 285.772 84.313C287.371 73.8873 286.346 52.7057 284.417 42.2974Z" fill="#263238"/>
<path d="M214.53 162.332C227.705 161.37 240.327 156.648 250.899 148.727C250.899 148.727 243.653 169.821 215.104 169.283L214.53 162.332Z" fill="#EB996E"/>
<path d="M237.692 82.7843C237.759 83.8413 238.236 84.8304 239.022 85.5411C239.807 86.2518 240.839 86.628 241.897 86.5896C242.416 86.5944 242.931 86.4948 243.411 86.2968C243.891 86.0987 244.326 85.8062 244.691 85.4367C245.056 85.0671 245.342 84.6281 245.534 84.1455C245.726 83.663 245.819 83.1469 245.807 82.6279C245.74 81.5708 245.263 80.5817 244.477 79.871C243.692 79.1603 242.66 78.7841 241.602 78.8225C241.084 78.8224 240.571 78.9253 240.094 79.125C239.616 79.3247 239.182 79.6174 238.819 79.986C238.455 80.3545 238.168 80.7917 237.975 81.2721C237.781 81.7525 237.685 82.2665 237.692 82.7843V82.7843Z" fill="#263238"/>
<path d="M232.931 72.6015C233.47 73.1575 236.893 71.0029 241.619 71.1767C246.345 71.3504 249.821 73.6788 250.307 73.1749C250.568 72.9317 250.029 71.9586 248.57 70.8986C246.515 69.4999 244.104 68.7163 241.619 68.6397C239.182 68.5228 236.764 69.1273 234.669 70.3774C233.192 71.4199 232.67 72.3582 232.931 72.6015Z" fill="#263238"/>
<path d="M232.48 58.9266C232.897 60.1256 237.258 59.5869 242.384 60.2472C247.51 60.9075 251.646 62.3323 252.341 61.2724C252.653 60.7685 251.941 59.639 250.273 58.4748C248.048 57.0547 245.528 56.1601 242.906 55.859C240.284 55.5579 237.627 55.8583 235.138 56.7372C233.262 57.4323 232.306 58.3706 232.48 58.9266Z" fill="#263238"/>
<path d="M219.586 118.614C223.247 117.386 226.993 116.428 230.794 115.747L233.556 114.878C234.252 116.12 234.669 117.499 234.777 118.918C234.885 120.338 234.682 121.764 234.182 123.097C233.598 124.055 232.818 124.879 231.892 125.514C230.967 126.149 229.917 126.581 228.813 126.781C228.038 126.984 227.23 127.023 226.44 126.894C225.649 126.766 224.895 126.472 224.225 126.033C224.225 126.033 220.646 124.626 219.586 118.614" fill="#EB996E"/>
<path d="M227.145 126.798C228.639 126.563 230.052 125.967 231.263 125.06C232.519 124.065 233.435 122.705 233.887 121.168C234.469 119.295 234.469 117.289 233.887 115.416L233.782 115.103L234.304 115.399C230.133 116.32 226.363 117.136 223.635 117.64C222.172 118.01 220.676 118.232 219.169 118.301C220.57 117.744 222.018 117.314 223.496 117.015C226.189 116.337 229.942 115.451 234.112 114.513L234.512 114.426L234.634 114.791L234.738 115.138C235.399 117.183 235.399 119.384 234.738 121.428C234.2 123.105 233.133 124.562 231.697 125.581C230.737 126.26 229.618 126.679 228.448 126.798C227.579 126.954 227.127 126.85 227.145 126.798Z" fill="#263238"/>
<path d="M315.555 101.654C315.152 101.624 314.758 101.524 314.39 101.359C313.314 100.881 312.38 100.133 311.68 99.187C310.559 97.7052 309.868 95.944 309.681 94.0958C309.494 91.6773 309.593 89.2451 309.977 86.8499C310.476 84.0307 310.352 81.1363 309.612 78.3704C309.122 76.8856 308.21 75.5756 306.988 74.5997C305.655 73.566 304.195 72.7076 302.644 72.0454C300.959 71.3296 299.343 70.463 297.814 69.4564C296.196 68.3179 294.941 66.7373 294.199 64.9038C292.618 61.2201 292.775 57.0845 291.888 53.2097C291.523 51.2906 290.74 49.4754 289.595 47.8926C288.457 46.4095 286.81 45.4004 284.973 45.0603C283.235 44.6432 281.254 44.5737 279.395 44.2088C277.506 43.9159 275.772 42.9909 274.477 41.585C273.378 40.1737 272.623 38.5258 272.271 36.7718C271.854 35.1211 271.61 33.5051 271.28 31.9934C270.962 30.5443 270.472 29.1384 269.821 27.8057C269.177 26.6016 268.395 25.4762 267.492 24.4521C264.707 21.3321 260.934 19.2645 256.806 18.5963C255.276 18.4359 253.736 18.4011 252.201 18.4921C253.724 18.1174 255.304 18.0348 256.858 18.2488C261.137 18.7921 265.084 20.8364 267.996 24.0177C268.958 25.0705 269.787 26.2377 270.463 27.4929C271.171 28.869 271.702 30.3284 272.045 31.837C272.392 33.3661 272.653 34.9821 273.07 36.5633C273.408 38.1905 274.116 39.7183 275.138 41.029C276.308 42.3032 277.888 43.127 279.603 43.3574C281.341 43.7049 283.27 43.757 285.198 44.1914C287.263 44.5662 289.117 45.6852 290.411 47.3365C291.634 49.0238 292.476 50.9565 292.879 53.0012C293.782 57.0498 293.643 61.0985 295.12 64.5563C295.793 66.2421 296.939 67.6967 298.422 68.744C299.902 69.7403 301.473 70.5955 303.113 71.2983C304.716 72.0052 306.227 72.9037 307.614 73.9742C308.921 75.0654 309.891 76.5056 310.411 78.1271C311.175 80.9971 311.282 84.0024 310.724 86.9194C310.302 89.2632 310.156 91.6485 310.29 94.0263C310.421 95.8017 311.02 97.5106 312.027 98.9785C312.88 100.231 314.119 101.171 315.555 101.654Z" fill="#455A64"/>
<path d="M159.187 32.4977C159.502 32.6388 159.795 32.8262 160.055 33.0537L162.488 34.7913C165.456 36.8414 168.674 38.5055 172.062 39.7435C177.058 41.6204 182.546 41.7308 187.614 40.0563C190.554 39.0293 193.136 37.1773 195.051 34.7218C197.005 31.9841 198.709 29.0764 200.142 26.0337C201.664 22.8477 203.795 19.9905 206.415 17.6237C208.876 15.5207 211.703 13.8891 214.755 12.8105C219.932 11.0299 225.482 10.6227 230.863 11.6289C234.462 12.2579 237.965 13.344 241.289 14.8608C242.47 15.3821 243.357 15.8339 243.947 16.1641C244.262 16.3101 244.559 16.4907 244.834 16.7027C244.501 16.6213 244.18 16.4987 243.878 16.3378C243.252 16.0598 242.349 15.6602 241.15 15.1736C237.796 13.809 234.299 12.8297 230.724 12.2544C225.482 11.3769 220.103 11.8371 215.086 13.5924C212.142 14.6554 209.415 16.2451 207.04 18.284C204.548 20.5486 202.518 23.2748 201.063 26.3117C199.612 29.4307 197.866 32.4039 195.85 35.191C193.799 37.7724 191.03 39.689 187.892 40.6992C182.646 42.4079 176.969 42.2359 171.836 40.2127C168.43 38.9146 165.215 37.161 162.279 34.9998C161.237 34.2353 160.542 33.6097 159.951 33.2622C159.669 33.0356 159.413 32.7793 159.187 32.4977Z" fill="#455A64"/>
<path d="M151.855 58.3011C151.959 58.1795 153.297 59.361 155.695 60.838C158.848 62.7479 162.285 64.1439 165.877 64.9736C169.474 65.7751 173.176 65.9922 176.841 65.6165C179.656 65.3211 181.359 64.8345 181.411 64.9909C181.463 65.1473 181.012 65.2168 180.247 65.4775C179.164 65.8224 178.054 66.0781 176.928 66.242C173.185 66.8266 169.364 66.6969 165.669 65.8597C161.979 65.0217 158.478 63.5012 155.347 61.3767C154.405 60.7361 153.516 60.0214 152.689 59.2394C152.098 58.6834 151.802 58.3532 151.855 58.3011Z" fill="#455A64"/>
<path d="M168.188 74.5478C168.292 74.3046 171.246 75.5209 175.138 76.1464C179.03 76.772 182.088 76.633 182.193 76.8936C177.429 77.8747 172.47 77.0379 168.292 74.5478H168.188Z" fill="#455A64"/>
<path d="M215.712 178.927L159.934 194.287L99.7432 237.727L115.799 265.182L399.569 265.668C399.569 265.668 389.143 227.736 385.824 216.094C380.698 198.527 373.748 193.505 367.406 187.145C364.451 184.515 361.01 182.49 357.275 181.185C346.05 178.735 294.113 167.076 284 167.285C284 167.285 272.341 191.385 247.91 191.142C223.479 190.899 215.712 178.927 215.712 178.927Z" fill="#455A64"/>
<path d="M330.724 223.462C330.898 223.462 331.419 221.168 333.07 217.745C335.276 213.303 338.18 209.243 341.671 205.721C345.2 202.203 348.968 198.935 352.948 195.938C354.643 194.743 356.251 193.431 357.762 192.011C355.924 192.964 354.178 194.087 352.549 195.364C348.396 198.206 344.521 201.435 340.976 205.008C337.395 208.598 334.503 212.815 332.445 217.449C331.828 218.849 331.346 220.303 331.002 221.793C330.808 222.328 330.714 222.893 330.724 223.462V223.462Z" fill="#263238"/>
<path d="M161.238 253.592C161.487 251.639 161.551 249.667 161.429 247.701C161.429 244.052 161.185 239.013 160.768 233.488C160.351 227.962 159.778 222.923 159.257 219.326C159.088 217.361 158.728 215.417 158.179 213.522C158.146 215.493 158.268 217.462 158.544 219.413C158.874 223.357 159.291 228.205 159.743 233.557C160.195 238.909 160.438 243.774 160.699 247.719C160.722 249.688 160.902 251.652 161.238 253.592V253.592Z" fill="#263238"/>
<g opacity="0.3">
<path opacity="0.3" d="M144.522 260.82C149.109 259.448 153.783 257.71 157.189 254.357C160.595 251.003 162.402 245.668 160.386 241.255C163.77 248.43 169.156 254.474 175.895 258.661C182.634 262.847 190.438 264.997 198.37 264.852L131.055 265.703C135.323 263.521 139.847 261.881 144.522 260.82Z" fill="black"/>
</g>
<path d="M461.984 265.581C461.984 265.581 455.172 256.32 451.802 254.565C448.431 252.81 443.826 252.827 441.793 254.669L439.76 256.493C439.76 256.493 429.16 251.75 424.121 255.399C424.121 255.399 414.043 250.638 409.23 256.094C409.23 256.094 401.463 251.037 398.179 255.451C394.895 259.864 395.225 267.301 396.806 271.089C398.387 274.877 401.376 287.996 403.756 288.222C403.756 288.222 409.942 288.883 410.707 285.529C411.471 282.175 411.888 280.577 411.888 280.577C411.888 280.577 414.252 292.41 417.101 293.001C419.951 293.592 425.39 293.279 425.563 288.083C425.563 288.083 428.205 291.993 430.776 290.863C433.348 289.734 436.545 287.823 436.267 284.608C435.989 281.393 435.937 278.179 435.937 278.179C435.937 278.179 437.362 282.87 439.69 281.845C442.019 280.82 444.382 281.046 445.702 277.084C447.023 273.122 450.272 265.529 450.272 265.529L461.984 265.581Z" fill="#FFBE9D"/>
<path d="M436.111 277.971C435.838 276.841 435.501 275.727 435.103 274.635C434.381 271.959 434.268 269.156 434.774 266.431C435.279 263.707 436.389 261.13 438.022 258.892C439.273 257.154 440.281 256.251 440.177 256.129C440.072 256.007 438.908 256.755 437.449 258.44C435.557 260.673 434.282 263.361 433.749 266.237C433.215 269.114 433.443 272.081 434.408 274.843C434.71 276.01 435.295 277.084 436.111 277.971Z" fill="#EB996E"/>
<path d="M423.409 255.469C422.725 256.944 422.268 258.514 422.054 260.126C420.574 267.876 421.113 275.876 423.617 283.357C424.051 284.923 424.713 286.416 425.581 287.788C425.911 287.684 422.94 280.838 422.366 271.768C421.793 262.697 423.739 255.521 423.409 255.469Z" fill="#EB996E"/>
<path d="M408.935 256.25C408.18 260.382 408.127 264.612 408.778 268.761C409.095 272.953 410.105 277.063 411.767 280.925C412.062 280.925 410.568 275.451 409.803 268.64C409.039 261.828 409.23 256.268 408.935 256.25Z" fill="#EB996E"/>
<path d="M367.249 258.909C367.502 258.37 367.875 257.897 368.338 257.523C368.802 257.15 369.344 256.887 369.925 256.754C371.275 256.451 372.679 256.48 374.016 256.837C375.354 257.194 376.585 257.869 377.605 258.805C379.817 260.824 381.71 263.167 383.217 265.755L368.204 265.651C368.343 263.322 366.415 261.046 367.249 258.909Z" fill="#FFBE9D"/>
<path d="M13.9941 310.238C15.6735 317 19.0735 323.214 23.8638 328.274C24.0897 328.1 21.3269 324.399 18.651 319.43C15.975 314.46 14.2548 310.151 13.9941 310.238Z" fill="#EB996E"/>
<path d="M0.0579029 308.534C-0.254868 308.656 0.839828 311.071 2.71645 313.608C3.71075 315.25 4.99411 316.698 6.50444 317.883C5.76127 316.12 4.74699 314.484 3.49838 313.035C2.47631 311.443 1.32565 309.938 0.0579029 308.534V308.534Z" fill="#EB996E"/>
<path d="M38.06 331.958C37.6306 330.027 37.0852 328.123 36.4267 326.258C35.3667 322.783 33.994 317.9 32.656 312.496C31.9784 309.786 31.3702 307.283 30.9184 304.851C30.3766 302.818 30.1653 300.712 30.2929 298.613C30.5007 296.696 31.2682 294.883 32.4997 293.4C32.4997 293.4 31.9436 293.643 31.2833 294.46C30.3576 295.653 29.7588 297.066 29.5457 298.561C29.3068 300.741 29.4538 302.947 29.9801 305.077C30.4493 307.457 31.0401 310.046 31.7177 312.774C33.0731 318.196 34.55 323.044 35.7837 326.502C36.3609 328.391 37.1234 330.218 38.06 331.958Z" fill="#EB996E"/>
<path d="M31.7875 297.31C31.6659 297.414 32.6563 298.543 33.8031 300.611C35.2929 303.282 36.1768 306.248 36.3922 309.299C36.365 311.047 36.5105 312.793 36.8266 314.512C37.1727 315.961 37.9336 317.277 39.016 318.3C39.9025 319.29 41.0181 320.048 42.2653 320.507C42.3696 320.368 41.0838 319.551 39.5199 317.831C38.615 316.854 37.9853 315.655 37.6954 314.356C37.4423 312.677 37.3319 310.979 37.3652 309.282C37.1462 306.08 36.1244 302.984 34.3939 300.281C33.7518 299.113 32.8622 298.098 31.7875 297.31V297.31Z" fill="#EB996E"/>
<path d="M24.976 265.842C25.1498 265.616 21.7614 262.801 18.3383 258.613C14.9152 254.426 12.7259 250.568 12.4131 250.829C12.7021 251.744 13.1048 252.62 13.612 253.435C14.758 255.488 16.09 257.43 17.5912 259.239C19.5825 261.915 22.0945 264.161 24.976 265.842V265.842Z" fill="#EB996E"/>
<g opacity="0.3">
<path opacity="0.3" d="M325.546 265.599L326.675 239.413L308.292 265.564L325.546 265.599Z" fill="black"/>
</g>
<path d="M325.528 265.581C325.376 260.411 325.516 255.236 325.945 250.082C326.084 244.912 326.519 239.754 327.249 234.634C327.423 239.804 327.289 244.98 326.849 250.134C326.723 255.305 326.282 260.464 325.528 265.581V265.581Z" fill="#263238"/>
<path d="M319.916 174.165C320.186 174.707 320.346 175.298 320.385 175.903C320.522 177.61 320.075 179.313 319.117 180.733C317.649 183.033 315.374 184.7 312.74 185.407C309.331 186.241 305.814 186.54 302.314 186.294C300.293 186.253 298.273 186.358 296.267 186.606C294.124 186.875 292.065 187.61 290.237 188.761C288.344 190.068 286.847 191.872 285.911 193.974C284.924 196.247 284.179 198.617 283.687 201.046C283.131 203.548 282.627 206.137 281.827 208.761C280.6 212.97 278.108 216.7 274.689 219.445C271.269 222.189 267.089 223.816 262.714 224.104C259.742 224.258 256.769 223.822 253.966 222.823C251.163 221.824 248.585 220.281 246.38 218.283C244.32 216.397 242.593 214.176 241.271 211.715C240.152 209.397 238.429 207.422 236.285 205.998C234.116 204.869 231.652 204.438 229.23 204.764C226.891 205.019 224.57 205.414 222.279 205.946C220.106 206.455 217.889 206.758 215.659 206.85C213.578 206.898 211.506 206.569 209.543 205.877C206.197 204.701 203.207 202.691 200.855 200.038C199.055 198.054 197.667 195.733 196.771 193.209C196.433 192.3 196.171 191.364 195.989 190.412C195.902 189.56 195.763 188.865 195.763 188.292V186.971C195.748 186.827 195.748 186.681 195.763 186.537C195.845 188.776 196.285 190.988 197.067 193.088C197.999 195.538 199.404 197.782 201.202 199.691C203.538 202.255 206.494 204.176 209.786 205.268C211.681 205.912 213.676 206.212 215.676 206.155C217.861 206.045 220.031 205.731 222.158 205.216C224.448 204.665 226.769 204.247 229.108 203.965C231.691 203.613 234.319 204.068 236.632 205.268C238.91 206.753 240.747 208.824 241.949 211.263C243.242 213.643 244.922 215.792 246.919 217.623C251.193 221.47 256.813 223.474 262.557 223.201C265.385 222.988 268.14 222.206 270.657 220.901C273.175 219.596 275.402 217.795 277.205 215.607C280.802 211.35 281.654 205.824 282.818 200.855C283.321 198.362 284.096 195.932 285.129 193.609C286.139 191.382 287.737 189.471 289.751 188.083C291.679 186.878 293.852 186.118 296.111 185.859C298.146 185.626 300.197 185.544 302.244 185.616C305.737 185.892 309.25 185.646 312.67 184.886C315.212 184.232 317.425 182.667 318.891 180.49C319.849 179.138 320.332 177.506 320.263 175.851C320.185 175.282 320.069 174.718 319.916 174.165V174.165Z" fill="white"/>
<path d="M235.416 263.705C235.251 263.326 235.128 262.929 235.051 262.523L234.095 259.048C232.999 254.829 231.24 250.812 228.882 247.145C228.081 245.966 227.154 244.877 226.12 243.896C224.988 242.854 223.719 241.971 222.349 241.272C219.259 239.83 215.842 239.23 212.445 239.534C208.649 239.873 204.888 240.529 201.202 241.498C197.189 242.568 193.053 243.105 188.9 243.097C184.629 243.17 180.488 241.625 177.31 238.77C174.595 235.871 172.974 232.117 172.723 228.153C172.469 224.678 172.55 221.187 172.966 217.727C173.304 214.745 173.38 211.739 173.192 208.744C173.085 206.585 172.551 204.469 171.62 202.519C170.69 200.568 169.381 198.821 167.77 197.38C166.52 196.403 165.092 195.677 163.565 195.243H163.878C164.191 195.274 164.5 195.338 164.799 195.434C165.956 195.778 167.04 196.331 167.996 197.067C169.699 198.503 171.094 200.268 172.098 202.257C173.101 204.246 173.692 206.417 173.835 208.64C174.07 211.672 174.029 214.72 173.713 217.745C173.337 221.167 173.284 224.617 173.557 228.049C173.582 230.017 174.01 231.959 174.814 233.756C175.617 235.553 176.78 237.166 178.23 238.498C179.68 239.829 181.387 240.849 183.245 241.497C185.104 242.144 187.076 242.405 189.039 242.263C193.145 242.281 197.235 241.755 201.202 240.699C204.934 239.732 208.742 239.087 212.584 238.77C216.127 238.49 219.681 239.149 222.888 240.681C224.313 241.43 225.629 242.371 226.797 243.479C227.852 244.538 228.795 245.703 229.612 246.954C231.934 250.702 233.608 254.814 234.564 259.117C234.947 260.612 235.19 261.793 235.346 262.593C235.403 262.96 235.427 263.333 235.416 263.705V263.705Z" fill="white"/>
<path d="M327.666 241.516C325.244 240.283 322.699 239.311 320.073 238.614C317.23 237.937 314.297 237.72 311.385 237.971C307.816 238.285 304.353 239.345 301.22 241.081C298.079 242.835 295.321 245.198 293.105 248.032C291.283 250.323 289.877 252.917 288.952 255.694C288.297 257.552 288.165 259.553 288.57 261.481C288.774 262.174 289.023 262.853 289.317 263.514C289.317 263.514 289.161 263.375 288.935 263.079C288.634 262.608 288.394 262.1 288.222 261.568C287.673 259.584 287.709 257.484 288.327 255.521C289.203 252.629 290.598 249.92 292.445 247.528C294.698 244.586 297.531 242.138 300.768 240.334C304.015 238.533 307.613 237.454 311.315 237.171C314.319 236.951 317.339 237.239 320.247 238.023C322.203 238.552 324.087 239.316 325.859 240.299C326.485 240.647 326.936 240.959 327.249 241.168C327.562 241.376 327.684 241.481 327.666 241.516Z" fill="white"/>
<path d="M346.397 194.635C346.31 194.635 345.772 193.922 345.337 192.48C344.801 190.597 344.717 188.615 345.094 186.694C345.471 184.765 346.292 182.95 347.492 181.394C348.43 180.23 349.23 179.656 349.23 179.795C347.567 181.842 346.435 184.266 345.932 186.854C345.428 189.442 345.571 192.114 346.345 194.635H346.397Z" fill="white"/>
<path d="M388.865 229.074C388.836 229.336 388.771 229.593 388.674 229.839C388.467 230.555 388.199 231.252 387.874 231.924C386.675 234.419 384.978 236.642 382.888 238.457C379.775 241.183 375.934 242.94 371.836 243.514C367.145 244.209 362.123 242.714 357.084 241.463C354.64 240.795 352.127 240.41 349.595 240.316C347.234 240.281 344.884 240.645 342.644 241.394C338.864 242.678 335.47 244.895 332.775 247.84C330.943 249.819 329.478 252.108 328.448 254.6C327.718 256.337 327.527 257.432 327.423 257.415C327.41 257.15 327.446 256.885 327.527 256.633C327.671 255.901 327.868 255.181 328.118 254.478C329.046 251.877 330.461 249.477 332.288 247.406C335.017 244.311 338.492 241.966 342.384 240.594C344.69 239.792 347.118 239.398 349.56 239.43C352.155 239.524 354.731 239.909 357.24 240.577C362.332 241.846 367.214 243.323 371.68 242.68C375.636 242.169 379.363 240.535 382.418 237.971C384.494 236.245 386.222 234.139 387.51 231.767C388.535 230.099 388.865 229.039 388.865 229.074Z" fill="white"/>
<path d="M156.546 260.82C156.344 260.845 156.139 260.845 155.937 260.82C155.36 260.876 154.778 260.876 154.2 260.82C152.029 260.68 149.906 260.126 147.944 259.187C145.008 257.798 142.491 255.658 140.646 252.984C139.572 251.388 138.768 249.627 138.266 247.771C137.796 245.796 137.454 243.794 137.241 241.776C136.771 237.71 136.111 233.748 133.765 231.09C131.648 228.813 128.815 227.329 125.738 226.885C123.653 226.518 121.545 226.303 119.43 226.242C118.64 226.253 117.85 226.206 117.067 226.103C117.843 225.935 118.637 225.865 119.43 225.894C121.58 225.812 123.733 225.934 125.859 226.259C129.119 226.644 132.139 228.164 134.391 230.551C135.632 232.045 136.528 233.796 137.015 235.677C137.521 237.639 137.876 239.638 138.075 241.654C138.286 243.63 138.617 245.592 139.065 247.527C139.524 249.297 140.276 250.976 141.289 252.497C143.045 255.092 145.438 257.192 148.24 258.596C150.831 259.886 153.656 260.643 156.546 260.82V260.82Z" fill="white"/>
</svg>
