<svg width="1125" height="591" viewBox="0 0 1125 591" fill="none" xmlns="http://www.w3.org/2000/svg">
<path d="M1099.56 435.117L1077.38 435.59L1066.12 435.776C1062.35 435.861 1058.57 435.776 1054.8 435.878H1054.06V435.117L1053.95 416.151V415.306H1054.8L1077.18 415.407C1084.65 415.407 1092.11 415.593 1099.56 415.678H1100.03V416.151C1100.03 419.363 1099.9 422.558 1099.81 425.719L1099.56 435.117ZM1099.56 435.117L1099.32 425.567C1099.24 422.422 1099.14 419.312 1099.1 416.202L1099.56 416.675C1092.11 416.76 1084.65 416.946 1077.18 416.946L1054.8 417.047L1055.64 416.202V435.117L1054.88 434.373C1058.57 434.373 1062.25 434.373 1065.96 434.458L1076.96 434.745L1099.56 435.117Z" fill="#EBEBEB"/>
<path d="M1074.59 458.968L1052.42 459.441L1041.14 459.627C1037.39 459.627 1033.6 459.627 1029.83 459.729H1029.09V458.968V440.053V439.208H1029.93L1052.31 439.326C1059.77 439.326 1067.24 439.512 1074.69 439.597H1075.17V440.053C1075.17 443.265 1075.03 446.459 1074.95 449.62L1074.59 458.968ZM1074.59 458.968L1074.36 449.418C1074.27 446.273 1074.17 443.163 1074.14 440.053L1074.59 440.526C1067.14 440.611 1059.67 440.797 1052.21 440.797L1029.83 440.898L1030.68 440.053V458.968L1029.92 458.224C1033.6 458.224 1037.29 458.224 1040.99 458.309L1052.09 458.512L1074.59 458.968Z" fill="#EBEBEB"/>
<path d="M1124.53 458.968L1102.35 459.441L1091.09 459.627C1087.32 459.627 1083.53 459.627 1079.77 459.729H1079.02V458.968L1078.92 440.053V439.208H1079.77L1102.15 439.326C1109.62 439.326 1117.07 439.512 1124.53 439.597H1125V440.053C1125 443.265 1124.85 446.459 1124.78 449.62L1124.53 458.968ZM1124.53 458.968L1124.29 449.418C1124.29 446.273 1124.1 443.163 1124.07 440.053L1124.53 440.526C1117.07 440.611 1109.62 440.797 1102.15 440.797L1079.77 440.898L1080.61 440.053V458.968L1079.85 458.224C1083.55 458.224 1087.22 458.224 1090.92 458.309L1102.04 458.512L1124.53 458.968Z" fill="#EBEBEB"/>
<path d="M461.311 210.045L439.134 210.518L427.876 210.704C424.106 210.704 420.32 210.704 416.55 210.704H415.806V209.943L415.705 191.028V190.183H416.55L438.931 190.285C446.402 190.285 453.857 190.47 461.311 190.555H461.784V191.011C461.784 194.223 461.632 197.401 461.548 200.562L461.311 210.045ZM461.311 210.045L461.075 200.477C461.075 197.333 460.889 194.223 460.855 191.13L461.311 191.586C453.857 191.586 446.402 191.857 438.931 191.857L416.55 191.975L417.395 191.13L417.311 210.045L416.55 209.284C420.235 209.284 423.92 209.284 427.622 209.386L438.745 209.572L461.311 210.045Z" fill="#EBEBEB"/>
<path d="M436.311 233.896L414.133 234.369L402.858 234.555C399.106 234.555 395.319 234.555 391.55 234.64H390.806V233.879L390.671 214.998V214.152H391.516L413.897 214.254C421.351 214.254 428.822 214.44 436.277 214.524H436.75V214.998C436.75 218.209 436.615 221.387 436.531 224.548L436.311 233.896ZM436.311 233.896L436.074 224.328C435.99 221.184 435.888 218.074 435.854 214.981L436.311 215.437C428.856 215.522 421.385 215.708 413.93 215.708L391.55 215.826L392.395 214.981L392.361 233.896L391.601 233.135C395.286 233.135 398.971 233.135 402.673 233.237L413.778 233.423L436.311 233.896Z" fill="#EBEBEB"/>
<path d="M486.278 233.896L464.1 234.369L452.843 234.555C449.073 234.555 445.303 234.555 441.517 234.64H440.773V233.879L440.672 214.998V214.152H441.517L463.898 214.254C471.369 214.254 478.823 214.44 486.278 214.524H486.751V214.998C486.751 218.209 486.599 221.387 486.532 224.548L486.278 233.896ZM486.278 233.896L486.041 224.328C486.041 221.184 485.855 218.074 485.822 214.981L486.278 215.437C478.823 215.522 471.369 215.708 463.898 215.708L441.517 215.826L442.362 214.981L442.278 233.896L441.517 233.135C445.219 233.135 448.887 233.135 452.589 233.237L463.712 233.423L486.278 233.896Z" fill="#EBEBEB"/>
<path d="M96.3443 335.2L74.1667 335.673L62.8919 335.859C59.1393 335.859 55.3529 335.859 51.5834 335.943H50.9072V335.183V316.268V315.422H51.7524L74.1329 315.524C81.5874 315.524 89.0588 315.71 96.5133 315.794H96.9866V316.251C96.9866 319.462 96.8514 322.64 96.7669 325.801L96.3443 335.2ZM96.3443 335.2L96.1076 325.632C96.1076 322.488 95.9217 319.378 95.8879 316.284L96.3443 316.741C88.8898 316.825 81.4183 317.011 73.9638 317.011L51.5834 317.13L52.4286 316.284L52.344 335.2L51.5834 334.439C55.2684 334.439 58.9534 334.439 62.6553 334.54L73.761 334.726L96.3443 335.2Z" fill="#EBEBEB"/>
<path d="M838.381 210.028L816.204 210.501L804.946 210.687C801.177 210.772 797.39 210.687 793.621 210.772H792.877V210.011L792.775 191.096V190.251H793.621L816.001 190.352C823.472 190.352 830.927 190.555 838.381 190.64H838.855V191.096C838.855 194.308 838.72 197.502 838.635 200.646L838.381 210.028ZM838.381 210.028L838.145 200.477C838.06 197.316 837.959 194.206 837.925 191.113L838.381 191.569C830.927 191.654 823.472 191.84 816.001 191.857L793.621 191.958L794.466 191.113L794.381 210.028L793.621 209.267C797.306 209.267 800.991 209.267 804.692 209.369L815.815 209.555L838.381 210.028Z" fill="#EBEBEB"/>
<path d="M1096.97 26.319L1074.8 26.7923L1063.52 26.9782C1059.77 26.9782 1055.98 26.9782 1052.21 27.0796H1051.47V26.319V7.40378V6.55859H1052.31L1074.69 6.66002C1082.15 6.66002 1089.62 6.86286 1097.07 6.94738H1097.55V7.40378C1097.55 10.6155 1097.41 13.8103 1097.33 16.9543L1096.97 26.319ZM1096.97 26.319L1096.74 16.7684C1096.65 13.6074 1096.55 10.4971 1096.52 7.40378L1096.97 7.86018C1089.52 7.86018 1082.05 8.13064 1074.59 8.14754L1052.21 8.24896L1053.06 7.40378L1052.97 26.319L1052.21 25.5583C1055.9 25.5583 1059.58 25.5583 1063.28 25.6597L1074.39 25.8457L1096.97 26.319Z" fill="#EBEBEB"/>
<path d="M1121.94 50.1701L1099.76 50.6434L1088.5 50.8293C1084.74 50.9139 1080.95 50.8294 1077.18 50.9139H1076.44V50.1532L1076.33 31.238V30.3928H1077.18L1099.56 30.4942C1107.03 30.4942 1114.49 30.6971 1121.94 30.7816H1122.41V31.238C1122.41 34.4497 1122.26 37.6445 1122.18 40.7886L1121.94 50.1701ZM1121.94 50.1701L1121.7 40.6195C1121.7 37.4585 1121.52 34.3483 1121.48 31.2549L1121.94 31.7113C1114.49 31.7958 1107.03 31.9818 1099.56 31.9987L1077.18 32.1001L1078.02 31.2549V50.1701L1077.26 49.4094C1080.95 49.4094 1084.63 49.4094 1088.34 49.5109L1099.46 49.6968L1121.94 50.1701Z" fill="#EBEBEB"/>
<path d="M46.4107 26.3359L24.2162 26.8092L12.9584 26.9952C9.20576 26.9952 5.41934 26.9952 1.64983 27.0966H0.88916V26.3359V7.42074V6.57556H1.75124L24.1317 6.69389C31.5862 6.69389 39.0407 6.87983 46.5122 6.96435H46.9685V7.42074C46.9685 10.6324 46.8164 13.8272 46.7488 16.9882L46.4107 26.3359ZM46.4107 26.3359L46.1572 16.7854C46.1572 13.6244 45.9712 10.5141 45.9374 7.42074L46.4107 7.87714C38.9393 7.97857 31.4848 8.1476 24.0303 8.1645L1.64983 8.26593L2.49501 7.42074L2.39359 26.3359L1.64983 25.6767C5.33483 25.6767 9.00292 25.6767 12.7048 25.6767L23.8274 25.8626L46.4107 26.3359Z" fill="#EBEBEB"/>
<path d="M594.664 260.959C592.59 262.918 590.017 264.269 587.227 264.863C585.536 265.303 583.66 265.556 581.868 265.878H575.749C573.23 265.489 570.678 265.185 568.227 264.694C559.067 262.728 550.39 258.959 542.702 253.606C522.456 240.221 505.398 222.552 492.735 201.847C488.49 195.014 485.565 187.446 484.114 179.534C483.742 177.455 483.455 175.359 483.134 173.262V167.143C483.641 164.794 484.047 162.41 484.672 160.095C485.289 157.921 486.453 155.942 488.053 154.347C488.357 154.618 488.627 154.838 488.898 155.108C498.634 164.833 508.377 174.558 518.124 184.284C518.44 184.546 518.665 184.901 518.768 185.298C518.871 185.696 518.847 186.115 518.699 186.498C517.958 188.908 517.859 191.47 518.41 193.93C518.962 196.39 520.145 198.665 521.843 200.528C530.158 209.972 539.061 218.882 548.5 227.202C550.382 228.911 552.677 230.098 555.159 230.646C557.64 231.195 560.222 231.086 562.649 230.329C563.359 230.143 563.866 230.025 564.474 230.634C574.425 240.64 584.398 250.625 594.394 260.587C594.444 260.638 594.512 260.79 594.664 260.959Z" fill="#EBEBEB"/>
<path d="M613.799 239.102V241.131C612.918 242.401 611.964 243.62 610.943 244.782C607.934 247.909 604.824 250.935 601.764 253.994L600.817 254.89L570.763 224.853C574.701 220.965 578.623 216.992 582.68 213.121C583.119 212.713 583.637 212.397 584.201 212.193C584.765 211.988 585.364 211.899 585.963 211.931C586.562 211.962 587.149 212.114 587.688 212.377C588.228 212.639 588.709 213.007 589.103 213.459C591.368 215.657 593.566 217.905 595.865 220.12C601.088 225.36 606.345 230.566 611.517 235.84C612.362 236.866 613.125 237.957 613.799 239.102Z" fill="#EBEBEB"/>
<path d="M535.011 167.296C531.292 170.896 527.489 174.412 523.804 177.894L493.986 148.093C494.645 147.501 495.406 146.876 496.099 146.2C498.837 143.478 501.525 140.689 504.314 138.018C505.447 137.024 506.638 136.099 507.881 135.246H509.926C511.066 135.946 512.151 136.732 513.172 137.596C520.474 144.831 527.748 152.099 534.994 159.402C537.733 162.14 537.733 164.608 535.011 167.296Z" fill="#EBEBEB"/>
<path d="M35.2881 183.878H230.914V59.7712H35.2881V183.878Z" fill="#EBEBEB"/>
<path d="M267.511 183.878H230.915V145.76L267.511 183.878Z" fill="#EBEBEB"/>
<path d="M208.263 81.222H57.9219V83.5886H208.263V81.222Z" fill="white"/>
<path d="M135.628 93.9674H57.9219V96.3339H135.628V93.9674Z" fill="white"/>
<path d="M179.493 119.441H57.9219V121.808H179.493V119.441Z" fill="white"/>
<path d="M208.263 132.17H57.9219V134.536H208.263V132.17Z" fill="white"/>
<path d="M208.263 144.898H57.9219V147.265H208.263V144.898Z" fill="white"/>
<path d="M111.337 157.644H57.9219V160.01H111.337V157.644Z" fill="white"/>
<path d="M1090.89 233.44H895.262V342.891H1090.89V233.44Z" fill="#DBDBDB"/>
<path d="M858.666 342.908H895.262V304.79L858.666 342.908Z" fill="#DBDBDB"/>
<path d="M1049.24 290.591H918.353V292.957H1049.24V290.591Z" fill="white"/>
<path d="M1022.33 303.336H918.353V305.703H1022.33V303.336Z" fill="white"/>
<path d="M1030.17 265.117H918.353V267.484H1030.17V265.117Z" fill="white"/>
<path d="M1064.35 252.389H918.353V254.755H1064.35V252.389Z" fill="white"/>
<path d="M1033.11 316.065H918.353V318.431H1033.11V316.065Z" fill="white"/>
<path d="M992.052 117.109H632.833V132.863H992.052V117.109Z" fill="#EBEBEB"/>
<path d="M668.719 132.88H652.965V184.977H668.719V132.88Z" fill="#EBEBEB"/>
<path d="M668.719 132.88H652.965V148.989H668.719V132.88Z" fill="#DBDBDB"/>
<path d="M971.92 132.88H956.166V184.977H971.92V132.88Z" fill="#EBEBEB"/>
<path d="M971.92 132.88H956.166V148.989H971.92V132.88Z" fill="#DBDBDB"/>
<path d="M725.177 117.109V16.7178H699.889V117.109H725.177Z" fill="#C7C7C7"/>
<path d="M725.177 22.3805V11.3424L699.889 11.3424V22.3805H725.177Z" fill="#DBDBDB"/>
<path d="M725.16 40.6195V36.5288H699.872V40.6195H725.16Z" fill="#DBDBDB"/>
<path d="M728.322 103.958V92.9194H699.89V103.958H728.322Z" fill="#DBDBDB"/>
<path d="M742.842 117.109V0L725.177 0V117.109H742.842Z" fill="#DBDBDB"/>
<path d="M739.241 56.0526V11.0043H728.643V56.0526H739.241Z" fill="#EBEBEB"/>
<path d="M868.485 104.599L785.201 22.2693L772.782 34.8316L856.066 117.162L868.485 104.599Z" fill="#C7C7C7"/>
<path d="M846.508 87.7638L814.471 56.0939L807.02 63.6312L839.057 95.3012L846.508 87.7638Z" fill="#DBDBDB"/>
<path d="M772.829 117.142V28.1785L742.825 28.1785V117.142H772.829Z" fill="#A6A6A6"/>
<path d="M772.829 107.693V99.4104H742.825V107.693H772.829Z" fill="#C7C7C7"/>
<path d="M772.829 93.9844V90.7727H742.825V93.9844H772.829Z" fill="#C7C7C7"/>
<path d="M699.89 117.142V33.5369H679.166V117.142H699.89Z" fill="#A6A6A6"/>
<path d="M699.89 108.268V100.475H679.166V108.268H699.89Z" fill="#C7C7C7"/>
<path d="M699.89 58.5542V50.7616H679.166V58.5542H699.89Z" fill="#C7C7C7"/>
<path d="M699.89 66.9215V63.8958H679.166V66.9215H699.89Z" fill="#C7C7C7"/>
<path d="M954.29 78.1625L952.042 84.1295L950.656 87.7638L948.39 93.7477L939.567 117.125H891.848L882.99 93.7477L880.725 87.7638L879.356 84.1295L877.091 78.1625L894.704 52.4859L885.576 35.5653H945.855L936.676 52.4859L954.29 78.1625Z" fill="#DBDBDB"/>
<path d="M954.29 78.1626L952.042 84.1296H879.356L877.091 78.1626H954.29Z" fill="#A6A6A6"/>
<path d="M950.656 87.7639L948.391 93.7478H882.99L880.725 87.7639H950.656Z" fill="#A6A6A6"/>
<path d="M23.5571 572.73L158.448 572.324L293.323 572.172L563.088 571.902L832.854 572.172L967.728 572.324L1102.62 572.73L967.728 573.152L832.854 573.305L563.088 573.575L293.323 573.305L158.448 573.152L23.5571 572.73Z" fill="#263238"/>
<path d="M548.45 572.696H755.79L714.461 332.208H559.403L548.45 572.696Z" fill="#DBDBDB"/>
<path d="M548.45 572.696H566.638L576.831 332.208H559.403L548.45 572.696Z" fill="#A6A6A6"/>
<path d="M728.609 379.352C752.071 431.754 808.766 518.723 834.138 497.171C872.087 464.952 897.781 393.686 907.923 364.866C913.62 348.723 831.383 321.711 826.346 336.366C819.179 357.191 807.938 400.718 801.43 406.888C798.049 410.117 771.105 372.303 750.719 354.369C721.29 328.523 721.121 362.618 728.609 379.352Z" fill="#AD6359"/>
<path d="M928.461 340.609C921.142 357.073 892.964 384.913 883.599 389.021C874.234 393.129 824.774 348.452 825.805 337.938C826.837 327.424 856.35 272.352 872.696 263.9C889.042 255.448 936.051 323.536 928.461 340.609Z" fill="#AD6359"/>
<path d="M829.676 326.376C829.676 326.376 830.859 302.948 824.943 283.136C819.973 266.486 810.727 242.331 819.568 239.322C837.756 233.152 860.813 293.414 860.813 293.414C860.813 293.414 866.729 321.643 849.267 329.351C838.314 334.186 829.676 326.376 829.676 326.376Z" fill="#AD6359"/>
<path d="M850.18 281.936C851.363 291.419 861.86 284.59 861.86 284.59C861.86 284.59 849.132 298.113 854.135 307.359C859.004 316.301 871.377 307.596 872.273 306.988C871.597 307.714 860.238 320.392 866.238 329.216C872.476 338.378 883.396 327.525 884.105 326.816C883.683 327.678 878.375 339.358 884.46 345.038C894.907 354.757 909.309 325.277 920.398 321.981C920.398 321.981 928.14 340.119 928.461 340.575C928.461 340.575 942.744 312.785 937.47 298.079C936.731 295.931 935.282 294.099 933.361 292.885C931.44 291.671 929.163 291.148 926.906 291.402C926.906 291.402 932.501 282.951 928.004 275.851C925.672 272.217 917.862 272.69 917.862 272.69C917.862 272.69 922.054 265.743 917.659 259.691C914.16 254.84 906.807 256.074 906.807 256.074C906.807 256.074 907.737 247.52 902.564 243.734C892.05 236.094 847.627 261.635 850.18 281.936Z" fill="#AD6359"/>
<path d="M905.539 256.124C905.691 256.04 905.539 255.82 905.455 255.871C888.788 260.705 871.969 271.084 861.252 284.894C860.897 285.351 861.471 286.111 861.962 285.689C875.806 273.603 888.906 264.018 905.539 256.124Z" fill="#263238"/>
<path d="M917.964 272.47C918.15 272.386 917.964 272.081 917.812 272.132C900.654 277.203 882.043 289.475 871.546 306.802C871.191 307.393 871.462 308.289 871.935 307.647C879.778 296.693 902.953 279.519 917.964 272.47Z" fill="#263238"/>
<path d="M883.785 328.252C894.485 312.025 909.309 300.851 926.196 291.571C926.399 291.453 926.196 291.166 926.01 291.216C916.51 293.498 906.368 300.53 898.964 306.683C891.957 312.25 886.536 319.559 883.244 327.88C883.092 328.252 883.565 328.624 883.785 328.252Z" fill="#263238"/>
<path d="M861.523 284.573C861.1 285.114 862.368 285.131 861.962 285.689C860.272 288.022 851.228 302.981 855.37 307.664C858.75 311.399 866.002 309.506 868.538 307.664L874.877 303.083L870.515 309.658C868.552 312.539 867.068 315.719 866.121 319.074C865.595 320.601 865.401 322.223 865.549 323.832C865.698 325.44 866.187 326.999 866.983 328.404C867.729 329.707 868.901 330.712 870.302 331.251C871.703 331.79 873.247 331.829 874.674 331.363C877.854 330.268 880.699 328.377 882.94 325.869L889.363 319.107L885.509 327.559C884.432 329.898 883.654 332.362 883.193 334.895C882.677 337.277 882.871 339.757 883.751 342.029C884.187 343.029 884.892 343.889 885.787 344.512C886.682 345.136 887.733 345.499 888.822 345.562C891.291 345.311 893.636 344.361 895.584 342.823C899.851 339.562 903.858 335.973 907.568 332.089C909.512 330.196 911.456 328.286 913.501 326.461C915.423 324.538 917.726 323.041 920.263 322.066C917.852 323.287 915.704 324.97 913.941 327.018C912.065 328.962 910.273 330.991 908.481 333.036C904.96 337.259 901.055 341.146 896.818 344.649C894.545 346.577 891.762 347.804 888.805 348.182C887.175 348.197 885.576 347.741 884.199 346.868C882.822 345.996 881.728 344.744 881.046 343.263C879.863 340.474 879.54 337.396 880.117 334.422C880.571 331.594 881.395 328.837 882.568 326.224L885.137 327.914C882.533 330.92 879.188 333.193 875.434 334.507C873.331 335.179 871.059 335.096 869.011 334.27C867.031 333.403 865.359 331.96 864.21 330.129C863.204 328.345 862.587 326.368 862.4 324.328C862.214 322.289 862.462 320.233 863.129 318.296C864.208 314.622 865.893 311.154 868.115 308.036L870.093 309.963C866.712 312.16 858.869 315.169 852.969 310.047C846.445 302.119 859.038 287.143 861.523 284.573Z" fill="#263238"/>
<path d="M861.861 284.59C860.034 285.319 858.108 285.769 856.147 285.925C855.36 286.007 854.565 285.876 853.846 285.546C853.126 285.216 852.509 284.699 852.057 284.049C851.26 282.485 850.937 280.723 851.127 278.978C851.228 277.051 851.431 275.039 851.735 272.96C850.448 274.659 849.538 276.612 849.065 278.691C848.739 279.812 848.639 280.987 848.77 282.147C848.9 283.308 849.259 284.431 849.825 285.452C850.565 286.513 851.608 287.326 852.817 287.785C853.981 288.165 855.229 288.212 856.418 287.92C858.538 287.411 860.443 286.246 861.861 284.59Z" fill="#263238"/>
<path d="M821.342 337.938L906.942 397.557C906.942 397.557 855.809 503.493 824.216 503.205C792.623 502.918 746.983 423.572 731.246 389.275C715.508 354.977 724.89 325.92 756.736 357.158C788.583 388.396 799.993 401.276 801.024 400.854C802.951 400.076 821.342 337.938 821.342 337.938Z" fill="#FFC727"/>
<path d="M906.943 397.557C906.943 397.557 871.445 471.021 841.374 495.43C835.339 500.332 829.541 503.256 824.217 503.188C792.624 502.918 746.984 423.555 731.162 389.275C721.375 368.044 721.29 348.824 730.182 344.683C735.675 342.13 744.55 345.274 756.67 357.208C788.787 388.666 799.909 401.31 800.957 400.887C802.952 400.076 821.36 337.955 821.36 337.955L906.943 397.557Z" fill="#FFC727"/>
<path d="M853.966 482.921C852.918 484.138 851.853 485.321 850.788 486.471C841.156 492.536 830.349 496.493 819.077 498.083C815.968 498.427 812.839 498.551 809.713 498.455L807.769 497.238C811.5 497.464 815.244 497.368 818.959 496.951C823.406 496.465 827.781 495.455 831.992 493.942L835.186 492.894L838.28 491.592C839.311 491.153 840.376 490.781 841.373 490.274L844.365 488.753C847.694 487.028 850.901 485.079 853.966 482.921ZM789.022 389.596C779.255 394.039 770.346 400.167 762.703 407.7C757.747 412.583 753.164 417.832 748.995 423.403C749.197 423.775 749.417 424.164 749.654 424.536C753.873 418.871 758.524 413.542 763.566 408.595C769.97 402.304 777.266 396.99 785.219 392.824L788.211 391.303C788.761 391.024 789.325 390.776 789.901 390.559L789.022 389.596ZM862.959 394.988C854.841 391.015 846.347 387.861 837.604 385.573C836.691 385.353 835.778 385.133 834.848 384.947C834.257 384.812 833.648 384.677 833.057 384.575C825.668 383.027 818.083 382.639 810.575 383.426C809.476 383.578 808.394 383.747 807.295 383.95C807.177 384.339 807.042 384.744 806.923 385.116C808.174 384.897 809.442 384.711 810.71 384.558C817.679 383.822 824.718 384.113 831.603 385.421L833.445 385.759C834.747 386.029 836.048 386.316 837.35 386.638C846.02 388.872 854.445 391.964 862.503 395.867C874.572 401.788 886.278 408.42 897.561 415.729C897.73 415.441 897.882 415.154 898.017 414.884C886.737 407.56 875.031 400.917 862.959 394.988ZM871.834 373.115C858.129 373.681 844.775 377.617 832.955 384.575L831.501 385.421C828.516 387.209 825.633 389.162 822.864 391.269C808.377 402.29 796.815 416.456 785.811 430.705C780.3 437.856 774.891 445.057 769.178 452.021C768.772 452.528 768.349 453.018 767.927 453.525L768.569 454.455C769.059 453.88 769.549 453.306 770.023 452.765C775.77 445.784 781.196 438.583 786.724 431.449C797.728 417.25 809.273 403.186 823.607 392.317C826.714 389.947 829.966 387.774 833.344 385.809C833.8 385.522 834.274 385.252 834.747 384.998C838.684 382.788 842.787 380.889 847.019 379.318L850.18 378.169C851.228 377.797 852.327 377.543 853.409 377.222L856.637 376.326L860.018 375.667C864.382 374.683 868.848 374.218 873.321 374.281H873.524L871.834 373.115ZM766.777 367.215C760.872 369.84 754.7 371.818 748.369 373.115L745.073 373.757C743.974 373.96 742.859 374.027 741.692 374.18L738.311 374.568L734.931 374.704C731.844 374.918 728.744 374.861 725.668 374.535L725.972 375.65C740.26 376.693 754.581 374.112 767.606 368.145C767.42 367.824 767.098 367.52 766.777 367.215ZM742.402 346.221C736.416 350.287 730.209 354.017 723.808 357.394C723.808 357.851 723.808 358.307 723.808 358.78C730.637 355.209 737.242 351.223 743.585 346.846C743.18 346.627 742.791 346.407 742.402 346.221Z" fill="white"/>
<path d="M886.709 407.497C884.444 405.62 882.162 403.795 879.863 401.969C875.198 398.284 870.533 394.616 865.867 390.965C856.57 383.713 847.07 376.715 837.503 369.835C832.077 365.914 826.735 361.789 821.14 358.121C821.113 358.101 821.083 358.087 821.051 358.078C821.019 358.07 820.985 358.068 820.952 358.073C820.919 358.078 820.887 358.089 820.859 358.106C820.83 358.123 820.805 358.145 820.785 358.172C820.765 358.199 820.751 358.229 820.742 358.261C820.734 358.293 820.732 358.327 820.737 358.36C820.742 358.393 820.753 358.425 820.77 358.453C820.787 358.482 820.809 358.507 820.836 358.527C825.281 362.448 830.048 366.032 834.663 369.768C839.278 373.503 843.859 377.256 848.541 380.907C857.849 388.142 867.27 395.236 876.804 402.189C879.458 404.15 882.078 406.212 884.833 408.055C886.236 409.001 887.571 410.049 888.991 410.962C890.411 411.875 891.933 412.652 893.319 413.683C893.35 413.702 893.388 413.708 893.423 413.701C893.459 413.694 893.491 413.674 893.514 413.645C893.536 413.617 893.548 413.581 893.546 413.544C893.544 413.508 893.53 413.473 893.505 413.447C891.189 411.503 889.025 409.39 886.709 407.497Z" fill="#263238"/>
<path d="M801.684 398.96C798.416 407.791 795.729 416.826 793.637 426.006C792.522 430.536 791.643 435.117 790.781 439.681C789.868 444.217 789.258 448.808 788.955 453.424C788.955 453.593 789.209 453.593 789.242 453.424C790.662 449.012 791.71 444.414 792.725 439.901C793.739 435.388 794.888 430.841 795.902 426.378C797.948 417.284 800.348 408.274 802.123 399.129C802.134 399.101 802.139 399.07 802.139 399.039C802.138 399.008 802.131 398.978 802.118 398.949C802.106 398.921 802.088 398.896 802.065 398.874C802.043 398.853 802.017 398.836 801.988 398.825C801.959 398.814 801.928 398.809 801.897 398.81C801.866 398.81 801.836 398.817 801.808 398.83C801.779 398.842 801.754 398.86 801.733 398.883C801.711 398.905 801.695 398.932 801.684 398.96Z" fill="#263238"/>
<path opacity="0.1" d="M841.374 495.429C835.339 500.332 829.541 503.256 824.217 503.188C792.624 502.918 746.984 423.555 731.162 389.274C721.375 368.043 721.29 348.824 730.182 344.683L841.374 495.429Z" fill="black"/>
<path d="M792.37 572.696H586.872C584.607 568.538 618.279 388.548 687.584 337.854C702.967 326.613 730.249 333.848 737.822 344.784C775.957 399.738 792.37 572.696 792.37 572.696Z" fill="#FFC727"/>
<path d="M781.686 492.793C776.556 490.976 771.529 488.883 766.625 486.521C759.746 483.225 753.102 479.574 746.493 475.72L745.53 475.145C738.768 471.139 732.007 466.896 725.38 462.62L724.434 462.011L719.937 459.104C704.724 449.35 689.747 439.309 673.503 431.5C665.474 427.485 656.948 424.552 648.148 422.778C643.731 421.99 639.236 421.74 634.76 422.034C633.644 422.034 632.545 422.271 631.379 422.423C630.618 422.575 629.858 422.676 629.08 422.828C629.199 422.558 629.3 422.304 629.435 422.034C630.044 421.916 630.669 421.814 631.278 421.679C632.393 421.544 633.526 421.375 634.658 421.29C639.179 420.986 643.719 421.231 648.181 422.017C657.074 423.776 665.692 426.715 673.807 430.756C690.136 438.566 705.214 448.606 720.394 458.326L724.856 461.183L725.82 461.791C732.581 466.136 739.343 470.446 746.358 474.52L747.321 475.094C753.745 478.83 760.286 482.38 767.014 485.575C771.713 487.823 776.526 489.826 781.433 491.576L781.686 492.793ZM763.397 406.973L762.704 407.632C749.671 420.327 739.934 435.81 730.756 451.294C728.817 454.596 726.868 457.892 724.907 461.183C724.755 461.47 724.603 461.741 724.434 462.011C721.949 466.203 719.447 470.378 716.844 474.486C714.562 478.103 712.179 481.67 709.643 485.118C709.406 485.439 709.187 485.761 708.95 486.065C706.384 489.531 703.619 492.844 700.667 495.987C697.591 499.251 694.193 502.196 690.525 504.777L689.156 505.741C688.699 506.062 688.192 506.316 687.719 506.603L684.828 508.293C682.836 509.298 680.781 510.174 678.676 510.913C670.149 513.745 661.223 515.189 652.238 515.19C643.286 515.154 634.364 514.14 625.632 512.164C617.18 510.372 608.982 507.972 600.716 505.572C600.716 505.842 600.581 506.113 600.496 506.366C608.745 508.783 617.028 511.218 625.446 513.026C634.281 515.042 643.311 516.085 652.373 516.137C661.459 516.141 670.487 514.692 679.115 511.843C681.269 511.103 683.37 510.216 685.403 509.189L688.361 507.499C688.861 507.232 689.347 506.939 689.815 506.62L691.218 505.639C694.942 503.032 698.391 500.053 701.512 496.748C704.659 493.38 707.606 489.83 710.336 486.116C710.59 485.795 710.809 485.49 711.029 485.169C713.429 481.89 715.695 478.526 717.791 475.111C720.411 471.004 722.862 466.829 725.397 462.653L725.887 461.825L731.753 451.92C740.949 436.453 750.685 421.104 763.583 408.562L763.802 408.359C763.65 407.869 763.515 407.412 763.397 406.973ZM773.15 447.119C771.849 448.809 770.53 450.398 769.195 452.021C763.598 459.057 757.343 465.543 750.516 471.393C749.164 472.457 747.812 473.522 746.409 474.52L745.53 475.145C743.573 476.526 741.523 477.768 739.393 478.864L737.923 479.658C737.433 479.929 736.892 480.115 736.385 480.352L733.308 481.67C731.211 482.427 729.065 483.043 726.885 483.513C721.646 484.634 716.303 485.201 710.945 485.203H709.643C706.465 485.203 703.287 484.949 700.126 484.611C691.206 483.488 682.436 481.385 673.976 478.34C665.524 475.416 657.191 471.815 648.908 468.198C640.664 464.468 632.196 461.256 623.553 458.58C621 457.853 618.482 457.21 615.777 456.737L615.523 457.464C618.16 457.954 620.781 458.58 623.333 459.323C631.926 462.008 640.344 465.226 648.536 468.958C656.819 472.525 665.102 476.142 673.638 479.101C682.171 482.171 691.013 484.302 700.008 485.456C702.983 485.794 705.958 486.014 708.933 486.065C709.373 486.065 709.795 486.065 710.235 486.065C715.91 486.157 721.579 485.624 727.138 484.476C729.361 483.985 731.551 483.358 733.697 482.6L736.841 481.247C737.365 481.011 737.889 480.825 738.396 480.554L739.901 479.743C742.209 478.567 744.424 477.216 746.527 475.703L747.406 475.078C748.691 474.148 749.958 473.167 751.209 472.17C758.105 466.297 764.423 459.776 770.074 452.697C771.201 451.311 772.327 449.908 773.454 448.488C773.353 448.049 773.252 447.575 773.15 447.119ZM751.919 372.32C750.736 372.608 749.553 372.878 748.369 373.115L745.073 373.757C743.974 373.96 742.859 374.028 741.692 374.18L738.312 374.568L734.931 374.704C730.467 374.993 725.985 374.754 721.577 373.994C714.662 372.799 707.962 370.583 701.698 367.418L700.008 366.59C698.825 365.981 697.658 365.339 696.509 364.68C688.771 360.137 681.51 354.825 674.838 348.824L674.095 349.568C680.83 355.632 688.151 361.011 695.951 365.626C696.762 366.1 697.641 366.556 698.419 366.996L700.109 367.841C706.793 371.348 713.977 373.805 721.408 375.126C731.709 376.572 742.193 375.998 752.274 373.436C752.206 373.064 752.054 372.692 751.919 372.32ZM739.884 347.894C730.907 353.916 721.327 358.986 711.3 363.023C707.663 364.44 703.943 365.631 700.16 366.59L698.571 366.996C694.177 368.017 689.714 368.712 685.217 369.075L681.837 369.294C680.721 369.379 679.605 369.294 678.456 369.294H675.075L671.694 369.024C667.622 368.789 663.587 368.114 659.659 367.012C659.422 367.334 659.186 367.655 658.966 367.993C672.466 371.383 686.601 371.331 700.076 367.841L701.766 367.418C705.138 366.525 708.456 365.442 711.705 364.173C721.784 360.108 731.414 355.01 740.442 348.959L739.884 347.894ZM790.443 555.015C788.752 555.015 786.927 555.167 785.169 555.218H785.033L784.002 555.302C775.34 556.209 766.92 558.714 759.171 562.689C753.626 565.585 748.329 568.932 743.332 572.696H744.397C749.164 569.166 754.206 566.023 759.475 563.298C767.292 559.307 775.79 556.824 784.526 555.979H785.152H785.557C787.248 555.979 788.837 555.793 790.459 555.809C790.493 555.505 790.476 555.269 790.443 555.015ZM791.322 562.791C789.485 560.458 787.586 558.165 785.625 555.911C785.439 555.674 785.236 555.454 785.033 555.235L784.34 554.423C778.434 547.54 771.642 541.469 764.14 536.37C760.333 533.886 756.234 531.882 751.936 530.403C750.871 530.048 749.755 529.744 748.674 529.44C747.592 529.135 746.459 528.899 745.293 528.747C743.062 528.324 740.78 528.29 738.531 528.071C729.443 527.738 720.378 529.18 711.841 532.313C703.382 535.529 695.304 539.667 687.753 544.653C674.23 553.358 661.907 563.602 648.739 572.696H649.297C662.397 563.754 674.652 553.696 688.04 545.177C695.564 540.227 703.614 536.128 712.043 532.956C720.495 529.862 729.469 528.443 738.464 528.781C740.678 529.017 742.943 529.051 745.141 529.474C746.256 529.626 747.321 529.947 748.42 530.167C749.519 530.386 750.584 530.758 751.632 531.113C755.868 532.58 759.905 534.567 763.65 537.03C771.087 542.095 777.812 548.132 783.647 554.981C783.749 555.1 783.85 555.201 783.935 555.319L784.526 555.979C786.893 558.734 789.209 561.54 791.44 564.43C791.457 563.889 791.389 563.365 791.288 562.791H791.322Z" fill="white"/>
<path d="M660.301 359.913C618.465 408.308 562.074 493.79 585.114 512.688C622.995 543.757 733.629 561.709 759.019 564.718C769.972 566.036 791.913 494.432 784.594 485.169C777.275 475.906 660.301 469.364 659.507 462.18C659.05 458.106 676.816 422.676 688.243 379.217C701.377 329.114 672.083 346.272 660.301 359.913Z" fill="#AD6359"/>
<path d="M765.425 479.27C765.425 479.27 798.996 479.016 820.953 479.878C833.209 480.351 854.135 483.056 862.976 487.536C876.195 494.212 927.21 530.64 918.657 543.199C910.898 554.559 871.039 517.709 871.039 517.709C871.039 517.709 914.549 551.347 902.699 563.348C890.85 575.35 851.346 527.716 851.346 527.716C851.346 527.716 895.296 563.213 881.114 573.694C870.397 581.554 832.194 540.444 832.194 540.444C832.194 540.444 869.737 571.259 859.071 579.83C847.239 589.296 809.628 553.561 809.628 553.561C778.863 570.769 757.227 566.374 742.013 561.421C738.447 560.154 765.425 479.27 765.425 479.27Z" fill="#AD6359"/>
<path d="M856.739 505.115C861.996 508.885 867.337 512.654 872.239 516.948C877.141 521.241 881.891 525.552 886.388 530.217C897.392 541.644 902.497 550.502 902.108 549.995C893.25 537.841 875.941 522.475 871.039 518.25C866.137 514.024 861.455 509.578 856.57 505.369C856.451 505.183 856.62 505.031 856.739 505.115Z" fill="#263238"/>
<path d="M841.188 522.543C847.679 527.614 854.322 532.449 860.593 537.841C866.864 543.233 875.35 551.009 881.216 556.79C881.655 557.229 881.216 558.075 880.742 557.652C874.657 552.108 865.614 544.535 859.461 539.058C853.308 533.581 847.374 527.885 841.053 522.661C840.951 522.644 841.086 522.459 841.188 522.543Z" fill="#263238"/>
<path d="M825.095 535.085C835.424 542.371 844.399 551.55 852.986 560.762C853.426 561.219 852.986 561.286 852.446 560.847C843.334 552.141 836.235 545.245 824.842 535.491C824.707 535.288 824.926 534.933 825.095 535.085Z" fill="#263238"/>
<path d="M760.709 478.205C776.024 478.103 821.005 477.985 836.286 479.168C849.808 480.2 860.948 483.107 872.29 490.612C896.632 506.704 912.318 525.603 916.24 531.181C918.606 534.562 922.038 540.022 918.911 543.808C915.074 548.406 900.959 543.909 886.067 530.437C885.526 529.947 885.864 529.643 886.422 530.099C907.332 547.003 915.648 545.076 917.829 542.185C919.249 540.309 917.829 537.114 916.612 534.579C914.576 530.99 912.087 527.678 909.208 524.724C899.603 514.449 888.978 505.177 877.497 497.052C865.195 487.871 850.542 482.367 835.238 481.18C819.585 479.895 776.278 480.301 760.642 478.797C760.32 478.695 760.371 478.222 760.709 478.205Z" fill="#263238"/>
<path d="M905.184 556.587C904.322 552.412 901.313 548.592 898.93 545.143C896.034 540.804 892.71 536.766 889.008 533.091C888.855 532.939 888.568 533.091 888.72 533.328C891.874 537.014 894.803 540.886 897.493 544.924C898.923 547.144 900.221 549.447 901.381 551.82C902.48 554.102 903.781 556.739 903.207 559.342C902.125 564.312 895.803 564.194 892.067 562.858C889.647 561.948 887.316 560.816 885.103 559.478C882.088 557.557 879.229 555.404 876.55 553.037C876.33 552.834 875.721 552.919 875.958 553.139C881.536 558.446 892.101 569.485 900.722 565.445C902.376 564.713 903.726 563.431 904.54 561.815C905.354 560.2 905.582 558.352 905.184 556.587Z" fill="#263238"/>
<path d="M765.933 474.925L725.719 566.205C725.719 566.205 585.182 534.477 577.034 507.803C568.887 481.129 612.921 409.762 652.661 365.204C691.742 321.423 697.523 351.123 687.804 384.981C678.084 418.839 662.144 457.87 663.919 460.794C665.694 463.718 765.933 474.925 765.933 474.925Z" fill="#FFC727"/>
<path d="M672.962 430.35C672.861 430.604 672.776 430.874 672.675 431.128C664.868 427.288 656.595 424.481 648.063 422.778C643.647 421.99 639.152 421.74 634.675 422.034C633.56 422.034 632.461 422.271 631.295 422.423C630.128 422.575 629.097 422.761 628.015 423.065C625.818 423.538 623.739 424.384 621.592 425.043C613.309 428.194 605.71 432.912 599.212 438.938L600.277 437.095C606.476 431.621 613.61 427.31 621.338 424.367C623.502 423.69 625.615 422.828 627.846 422.355C628.945 422.051 630.078 421.916 631.227 421.679C632.377 421.442 633.475 421.375 634.608 421.29C639.128 420.987 643.669 421.231 648.131 422.017C656.735 423.703 665.083 426.505 672.962 430.35ZM747.338 475.094L746.375 474.52L742.521 472.238L740.188 471.967C741.878 473.032 743.721 474.114 745.496 475.145L746.459 475.72C751.531 478.678 756.602 481.518 761.808 484.172L762.214 483.242C757.21 480.656 752.257 477.934 747.338 475.094ZM719.904 469.499C718.89 471.19 717.858 472.88 716.81 474.486C714.528 478.103 712.145 481.67 709.609 485.118C709.373 485.44 709.153 485.761 708.916 486.065C706.351 489.531 703.585 492.844 700.634 495.987C697.557 499.251 694.159 502.196 690.491 504.777L689.122 505.741C688.666 506.062 688.159 506.316 687.685 506.603L684.795 508.293C682.803 509.299 680.747 510.174 678.642 510.913C670.115 513.745 661.189 515.189 652.205 515.19C643.263 515.152 634.353 514.137 625.632 512.164C616.825 510.288 608.187 507.735 599.516 505.217C591.825 502.986 584.083 500.737 576.172 499.267C576.172 499.537 576.172 499.808 576.172 500.061C583.998 501.532 591.656 503.797 599.313 506.011C607.968 508.547 616.639 511.082 625.48 513.026C634.315 515.042 643.345 516.085 652.407 516.137C661.493 516.141 670.521 514.692 679.149 511.843C681.303 511.103 683.404 510.216 685.437 509.189L688.395 507.499C688.895 507.232 689.381 506.939 689.849 506.62L691.252 505.639C694.976 503.032 698.425 500.053 701.546 496.748C704.693 493.38 707.64 489.83 710.37 486.116C710.624 485.795 710.843 485.49 711.063 485.169C713.463 481.89 715.729 478.526 717.825 475.111C718.974 473.32 720.09 471.494 721.205 469.685L719.904 469.499ZM748.505 472.88C747.812 473.421 747.102 473.962 746.375 474.469L745.496 475.094C743.539 476.475 741.489 477.718 739.36 478.813L737.889 479.608C737.399 479.878 736.858 480.064 736.351 480.301L733.275 481.619C731.177 482.377 729.031 482.992 726.851 483.462C721.612 484.584 716.269 485.15 710.911 485.152H709.609C706.432 485.152 703.254 484.899 700.093 484.561C691.172 483.437 682.402 481.334 673.943 478.289C665.491 475.365 657.157 471.764 648.875 468.147C640.631 464.418 632.162 461.205 623.519 458.529C614.847 456.044 605.601 454.692 596.625 456.45C593.77 457.024 591.006 457.985 588.41 459.306C588.241 459.645 588.072 460 587.92 460.338C590.698 458.856 593.676 457.786 596.761 457.16C605.584 455.469 614.712 456.788 623.299 459.273C631.892 461.957 640.31 465.175 648.503 468.908C656.785 472.474 665.068 476.092 673.605 479.05C682.147 482.14 691 484.288 700.008 485.456C702.983 485.795 705.958 486.014 708.933 486.065C709.373 486.065 709.795 486.065 710.235 486.065C715.911 486.157 721.579 485.624 727.138 484.476C729.361 483.985 731.551 483.358 733.697 482.6L736.841 481.247C737.365 481.011 737.889 480.825 738.396 480.554L739.901 479.743C742.209 478.567 744.424 477.216 746.527 475.703L747.406 475.078C748.285 474.435 749.096 473.759 750.043 473.083L748.505 472.88ZM674.906 348.74C674.179 348.097 673.469 347.472 672.759 346.813L671.847 347.404L674.213 349.517C679.716 354.445 685.594 358.938 691.793 362.956C691.793 362.533 691.793 362.11 691.793 361.705C685.86 357.828 680.226 353.511 674.94 348.79L674.906 348.74ZM685.184 369.024L681.803 369.244C680.687 369.328 679.572 369.244 678.422 369.244H675.041L671.661 368.973C667.191 368.706 662.766 367.923 658.476 366.641C656.6 366.083 654.74 365.44 652.915 364.697L652.509 365.153L652.12 365.593C654.091 366.418 656.105 367.135 658.155 367.739C668.861 370.598 680.041 371.219 690.999 369.565C690.999 369.142 691.117 368.737 691.184 368.314C689.308 368.686 687.263 368.923 685.217 369.075L685.184 369.024ZM738.532 528.02C729.44 527.704 720.374 529.162 711.841 532.313C703.383 535.529 695.305 539.667 687.753 544.653C683.527 547.391 679.403 550.265 675.329 553.223L675.988 553.409C679.943 550.552 683.95 547.797 688.057 545.177C695.581 540.227 703.631 536.128 712.06 532.956C720.513 529.862 729.487 528.443 738.481 528.781C739.647 528.899 740.814 528.966 741.98 529.068L742.301 528.358C741.101 528.257 739.816 528.189 738.565 528.071L738.532 528.02Z" fill="white"/>
<path d="M709.593 551.11C710.962 548.507 712.28 545.904 713.599 543.284C716.247 537.976 718.884 532.657 721.51 527.327C726.716 516.745 731.652 506.028 736.402 495.21C739.123 489.091 742.081 483.039 744.532 476.802C744.562 476.739 744.565 476.667 744.541 476.602C744.517 476.537 744.468 476.484 744.406 476.455C744.343 476.426 744.271 476.423 744.206 476.447C744.141 476.471 744.088 476.519 744.059 476.582C741.135 481.738 738.599 487.13 735.895 492.421C733.19 497.712 730.435 502.952 727.832 508.293C722.648 518.875 717.622 529.541 712.754 540.292C711.384 543.301 709.897 546.276 708.663 549.352C708.02 550.924 707.277 552.446 706.651 554.035C706.026 555.623 705.553 557.246 704.961 558.818C704.953 558.835 704.949 558.853 704.948 558.871C704.947 558.89 704.95 558.908 704.956 558.925C704.962 558.943 704.972 558.958 704.985 558.972C704.997 558.985 705.012 558.996 705.029 559.004C705.045 559.012 705.063 559.016 705.082 559.017C705.1 559.018 705.118 559.015 705.136 559.009C705.153 559.003 705.169 558.993 705.182 558.981C705.196 558.968 705.207 558.953 705.214 558.937C706.584 556.317 708.19 553.781 709.593 551.11Z" fill="#263238"/>
<path d="M728.744 559.934L725.921 566.324L725.837 566.526H725.566C712.263 564.059 699.044 561.1 685.91 557.804C672.776 554.508 659.743 550.772 646.846 546.614C633.902 542.523 621.209 537.68 608.829 532.111C602.618 529.316 596.618 526.074 590.878 522.408C588.013 520.54 585.306 518.443 582.781 516.137C580.178 513.905 578.183 511.049 576.983 507.837C578.478 510.853 580.661 513.476 583.356 515.494C586.023 517.544 588.856 519.37 591.824 520.954C597.695 524.218 603.758 527.125 609.979 529.66C622.403 534.815 635.165 539.21 647.995 543.335C660.825 547.459 673.773 551.296 686.755 554.981C699.737 558.666 712.77 562.317 725.82 565.817L725.482 565.986L728.744 559.934Z" fill="#263238"/>
<path d="M764.327 478.475L765.73 474.841L765.882 475.094C751.784 474.165 737.703 473.032 723.623 471.562C709.542 470.091 695.546 468.485 681.549 466.389C678.05 465.848 674.551 465.273 671.052 464.597C669.362 464.242 667.553 463.904 665.744 463.397C665.288 463.262 664.849 463.127 664.358 462.941C664.077 462.849 663.805 462.73 663.547 462.586C663.35 462.48 663.163 462.355 662.989 462.214C662.807 462.061 662.653 461.878 662.533 461.673C662.464 461.541 662.402 461.406 662.347 461.267C662.337 461.2 662.337 461.132 662.347 461.064C662.279 460.421 662.313 459.77 662.448 459.137C662.533 458.681 662.617 458.191 662.736 457.768C664.527 450.753 666.792 444.127 669.091 437.484C673.689 424.113 678.693 410.911 683.967 397.794C679.893 411.317 675.718 424.84 671.559 438.363C669.565 445.124 667.367 451.886 665.829 458.647C665.728 459.07 665.677 459.459 665.592 459.864C665.508 460.27 665.592 460.743 665.508 460.574C665.489 460.485 665.455 460.399 665.406 460.321C665.406 460.152 665.102 459.983 665.17 460.016C665.085 460.016 665.237 460.05 665.17 460.016L665.592 460.185L666.708 460.54C668.398 460.98 670.089 461.301 671.779 461.639C675.16 462.265 678.693 462.806 682.158 463.33C689.122 464.378 696.098 465.364 703.085 466.288L724.062 469.111C738.041 470.97 752.021 472.965 766 475.01H766.254L766.152 475.23L764.327 478.475Z" fill="#263238"/>
<path d="M685.471 406.449C684.479 408.834 683.226 411.101 681.735 413.21C680.334 415.368 678.626 417.31 676.664 418.974C677.949 416.726 679.318 414.596 680.772 412.483C682.183 410.355 683.754 408.338 685.471 406.449Z" fill="#263238"/>
<path d="M726.429 375.227C714.495 378.608 692.993 361.147 684.17 346.593C683.561 345.595 685.961 304.486 685.59 296.287C685.59 294.597 737.551 306.43 737.551 306.43C737.551 306.43 733.275 323.84 734.019 338.124C734.069 339.341 737.94 371.948 726.429 375.227Z" fill="#AD6359"/>
<path d="M684.794 322.032C709.119 339.206 732.818 332.613 733.815 332.309C734.215 323.596 735.42 314.938 737.416 306.447C737.416 306.447 685.352 294.614 685.437 296.304C685.741 300.141 685.318 311.23 684.794 322.032Z" fill="#263238"/>
<path d="M737.298 272.572C738.633 284.708 748.353 293.6 758.985 292.416C769.618 291.233 777.174 280.466 775.889 268.346C774.604 256.226 764.851 247.317 754.202 248.501C743.552 249.684 735.963 260.452 737.298 272.572Z" fill="#455A64"/>
<path d="M731.145 274.025C732.633 287.548 743.434 297.403 755.267 296.102C767.099 294.8 775.551 282.815 774.013 269.309C772.475 255.803 761.741 245.931 749.891 247.233C738.042 248.535 729.658 260.536 731.145 274.025Z" fill="#C7C7C7"/>
<path d="M678.388 234.522C672.708 252.744 682.022 305.517 694.92 317.349C713.632 334.507 744.431 336.315 759.035 313.8C773.201 291.96 759.847 223.416 745.411 212.648C724.163 196.759 686.772 207.628 678.388 234.522Z" fill="#AD6359"/>
<path d="M722.236 267.653C722.236 267.534 722 267.872 722.034 268.024C722.811 271.54 723.132 275.716 720.157 277.507C720.056 277.507 720.157 277.744 720.157 277.693C724.028 276.392 723.555 270.864 722.236 267.653Z" fill="#263238"/>
<path d="M718.365 264.559C712.584 265.219 714.325 276.747 719.684 276.138C725.042 275.53 723.216 264.018 718.365 264.559Z" fill="#263238"/>
<path d="M742.757 264.88C742.757 264.745 743.062 265.016 743.079 265.168C743.501 268.751 744.6 272.775 747.998 273.484C748.099 273.484 748.133 273.687 747.998 273.687C743.958 273.721 742.588 268.346 742.757 264.88Z" fill="#263238"/>
<path d="M745.378 260.638C751.057 259.336 753.238 270.78 747.981 271.997C742.724 273.214 740.577 261.77 745.378 260.638Z" fill="#263238"/>
<path d="M713.024 259.978C714.474 259.309 715.885 258.559 717.25 257.73C718.846 257.147 720.207 256.054 721.121 254.62C721.318 254.112 721.343 253.554 721.19 253.031C721.037 252.508 720.715 252.05 720.275 251.729C719.313 251.225 718.234 250.987 717.149 251.04C716.064 251.094 715.013 251.437 714.105 252.034C712.068 252.952 710.447 254.598 709.558 256.648C709.381 257.127 709.347 257.647 709.46 258.145C709.574 258.642 709.831 259.096 710.199 259.45C710.567 259.803 711.031 260.042 711.532 260.136C712.034 260.23 712.553 260.175 713.024 259.978Z" fill="#263238"/>
<path d="M749.029 254.197C747.432 254.119 745.841 253.955 744.262 253.707C742.565 253.771 740.895 253.272 739.512 252.287C739.132 251.892 738.894 251.383 738.836 250.838C738.778 250.293 738.903 249.744 739.191 249.278C739.899 248.452 740.813 247.828 741.84 247.468C742.867 247.109 743.971 247.028 745.04 247.233C747.27 247.326 749.386 248.248 750.973 249.819C751.313 250.195 751.537 250.662 751.617 251.163C751.697 251.664 751.63 252.177 751.425 252.641C751.219 253.104 750.883 253.498 750.458 253.774C750.032 254.051 749.536 254.198 749.029 254.197Z" fill="#263238"/>
<path d="M724.197 301.105C725.177 301.815 726.208 302.795 727.578 302.795C728.902 302.572 730.163 302.071 731.28 301.325C731.3 301.3 731.329 301.284 731.361 301.281C731.392 301.278 731.424 301.288 731.449 301.308C731.473 301.328 731.489 301.357 731.492 301.389C731.495 301.42 731.486 301.452 731.465 301.477C731.065 302.259 730.457 302.917 729.709 303.379C728.962 303.84 728.102 304.089 727.223 304.097C726.468 304.02 725.752 303.721 725.168 303.236C724.584 302.751 724.158 302.103 723.943 301.375C723.791 301.206 724.045 301.004 724.197 301.105Z" fill="#263238"/>
<path d="M726.327 289.864C727.447 291.137 728.818 292.166 730.354 292.884C731.89 293.602 733.557 293.996 735.252 294.039C736.737 294.098 738.223 293.944 739.664 293.583C739.942 293.532 740.214 293.453 740.476 293.346C740.733 293.28 740.987 293.201 741.236 293.11C741.422 293.047 741.581 292.926 741.691 292.764C741.801 292.602 741.855 292.409 741.845 292.214C741.835 292.092 741.806 291.972 741.76 291.859V291.554C741.405 288.799 740.509 284.658 740.509 284.658C741.591 285.013 747.068 286.534 746.764 285.114C744.262 273.282 741.473 260.232 736.486 249.059C736.453 248.985 736.393 248.926 736.32 248.892C736.246 248.859 736.163 248.852 736.085 248.875C736.007 248.897 735.94 248.947 735.896 249.015C735.852 249.083 735.833 249.164 735.844 249.245C737.805 260.655 741.76 271.642 743.924 283.052C741.975 282.48 739.954 282.19 737.923 282.19C737.551 282.359 739.799 290.151 739.85 291.402C739.861 291.447 739.861 291.493 739.85 291.538C735.32 292.822 731.635 291.96 726.682 289.543C726.31 289.374 726.074 289.611 726.327 289.864Z" fill="#263238"/>
<path d="M737.821 292.433C736.619 294.621 734.873 296.461 732.75 297.775C731.566 298.45 730.203 298.745 728.845 298.62C725.887 298.299 725.465 295.696 725.6 293.38C725.712 292.149 725.968 290.935 726.361 289.763C729.799 291.85 733.814 292.786 737.821 292.433Z" fill="#263238"/>
<path d="M732.734 297.826C731.549 298.5 730.186 298.795 728.829 298.671C725.871 298.35 725.448 295.747 725.583 293.431C728.744 293.228 732.024 294.851 732.734 297.826Z" fill="#FF99BA"/>
<path opacity="0.2" d="M687.043 253.268C684.964 258.508 680.687 270.814 678.253 271.676C675.937 254.569 675.853 239.052 680.095 229.518C681.85 225.58 684.314 221.999 687.364 218.953C687.719 223.534 689.257 247.791 687.043 253.268Z" fill="#263238"/>
<path d="M732.768 228.808C731.321 231.317 729.253 233.411 726.764 234.891C724.275 236.371 721.447 237.187 718.552 237.26C715.605 237.337 712.687 236.66 710.075 235.293C707.462 233.927 705.243 231.915 703.626 229.45C703.617 229.435 703.605 229.421 703.591 229.41C703.577 229.399 703.561 229.391 703.543 229.387C703.526 229.382 703.508 229.381 703.49 229.383C703.472 229.385 703.455 229.391 703.44 229.4C703.424 229.409 703.411 229.42 703.4 229.435C703.389 229.449 703.381 229.465 703.376 229.482C703.371 229.499 703.37 229.517 703.372 229.535C703.374 229.553 703.38 229.57 703.389 229.586C704.859 232.337 707.054 234.634 709.735 236.228C712.417 237.822 715.483 238.652 718.602 238.629C721.658 238.457 724.615 237.483 727.175 235.807C729.736 234.131 731.81 231.81 733.19 229.078C733.226 229.022 733.238 228.954 733.224 228.889C733.21 228.824 733.17 228.768 733.114 228.732C733.058 228.696 732.99 228.684 732.925 228.698C732.86 228.712 732.803 228.752 732.768 228.808Z" fill="#263238"/>
<path d="M768.028 201.61C765.593 197.118 761.647 193.633 756.888 191.772C750.296 189.169 743.687 190.91 737.145 192.786C737.109 192.786 737.075 192.801 737.049 192.826C737.024 192.851 737.01 192.886 737.01 192.922C737.01 192.957 737.024 192.992 737.049 193.017C737.075 193.043 737.109 193.057 737.145 193.057C742.706 191.485 748.454 190.217 754.133 191.941C758.834 193.348 762.906 196.333 765.661 200.393C768.349 204.597 769.433 209.629 768.716 214.567C767.999 219.505 765.529 224.02 761.757 227.287C759.533 229.111 756.96 230.462 754.196 231.255C751.431 232.049 748.534 232.269 745.681 231.901C745.462 231.901 745.36 232.206 745.597 232.239C749.48 232.898 753.469 232.461 757.118 230.978C760.766 229.494 763.929 227.023 766.25 223.841C768.571 220.659 769.959 216.893 770.259 212.966C770.558 209.039 769.756 205.107 767.943 201.61H768.028Z" fill="#263238"/>
<path d="M676.85 245.052C676.85 245.052 664.629 229.349 670.545 218.007C673.926 211.566 688.48 209.791 688.48 209.791C688.48 209.791 691.86 202.337 703.372 197.502C714.883 192.668 730.418 195.508 730.418 195.508C730.418 195.508 740.746 186.921 752.578 191.18C769.076 197.131 771.172 220.305 757.379 230.279C747.676 237.294 731.652 230.431 731.652 230.431C730.299 230.853 717.622 241.875 704.707 231.107C704.707 231.107 697.354 240.37 688.581 236.313C687.751 238.793 686.182 240.959 684.085 242.522C681.988 244.084 679.463 244.967 676.85 245.052Z" fill="#263238"/>
<path d="M689.393 277.541C689.393 277.541 677.239 260.638 669.565 265.016C661.89 269.394 671.255 293.955 680.316 297.133C681.453 297.633 682.68 297.899 683.923 297.913C685.166 297.928 686.399 297.691 687.548 297.218C688.698 296.744 689.739 296.043 690.611 295.157C691.483 294.271 692.167 293.218 692.621 292.062L689.393 277.541Z" fill="#AD6359"/>
<path d="M672.404 272.014C672.252 272.014 672.235 272.2 672.404 272.25C678.811 274.752 682.242 280.601 684.676 286.686C682.749 284.353 680.163 283.102 677.036 285.401C676.867 285.52 677.036 285.773 677.205 285.739C678.318 285.384 679.514 285.381 680.63 285.728C681.746 286.076 682.728 286.759 683.442 287.683C684.645 289.257 685.671 290.957 686.502 292.754C686.806 293.312 687.82 292.991 687.601 292.349V292.197C687.601 283.981 681.127 272.707 672.404 272.014Z" fill="#263238"/>
<path d="M679.267 265.709C679.267 265.709 672.692 239.508 677.814 223.45C683.51 205.599 704.995 188.121 730.384 195.542C730.384 195.542 702.206 199.176 688.514 222.723C682.225 233.541 688.26 264.779 688.26 264.779L679.267 265.709Z" fill="#C7C7C7"/>
<path d="M706.55 274.533C709.119 288.055 701.631 300.801 689.798 303.066C677.966 305.331 666.269 296.304 663.682 282.782C661.096 269.259 668.601 256.513 680.434 254.248C692.266 251.983 703.964 261.043 706.55 274.533Z" fill="#C7C7C7"/>
<path d="M700.16 274.972C702.476 287.092 695.732 298.637 685.099 300.615C674.467 302.593 663.953 294.445 661.637 282.342C659.321 270.239 666.049 258.677 676.681 256.699C687.314 254.722 697.828 262.835 700.16 274.972Z" fill="#455A64"/>
<path d="M29.4399 572.696H236.78L195.434 332.208H40.3935L29.4399 572.696Z" fill="#DBDBDB"/>
<path d="M29.4399 572.696H47.6114L57.8212 332.208H40.3935L29.4399 572.696Z" fill="#A6A6A6"/>
<path d="M152.33 227.32C133.077 246.472 127.549 278.031 127.549 278.031C127.549 278.031 109.09 309.793 114.246 327.052C115.61 331.946 118.14 336.435 121.62 340.136C125.1 343.837 129.426 346.638 134.226 348.3L132.4 338.766C132.4 338.766 138.587 351.022 159.26 355.957C179.934 360.893 207.284 354.537 221.516 347.337C229.952 343.113 237.15 336.777 242.409 328.945L237.085 342.806C237.085 342.806 257.149 342.096 269.067 320.747C280.984 299.398 246.754 268.718 243.846 262.108C240.939 255.499 237.254 207.34 186.594 215.64C186.661 215.522 165.65 214.136 152.33 227.32Z" fill="#263238"/>
<path d="M126.974 346.931C121.7 342.992 116.494 338.479 113.587 332.901C110.416 327.119 109.291 320.436 110.392 313.935C111.795 306.142 115.903 299.262 119.892 292.552C123.881 285.841 128.682 279.029 132.688 271.98C132.908 271.591 132.316 271.27 132.046 271.574C127.544 276.86 123.346 282.397 119.469 288.157C115.504 293.424 112.168 299.136 109.53 305.179C107.064 310.742 106.254 316.899 107.197 322.911C108.194 327.797 110.364 332.368 113.519 336.231C117.255 340.879 121.971 343.854 126.704 347.353C126.974 347.573 127.262 347.15 126.974 346.931Z" fill="#263238"/>
<path d="M273.41 298.671C267.325 280.939 251.436 269.681 241.682 254.214C236.442 245.847 232.368 236.584 225.539 229.315C225.353 229.112 225.015 229.433 225.184 229.636C230.796 236.178 234.042 244.055 238.099 251.611C242.421 259.047 247.472 266.034 253.177 272.47C263.217 284.506 275.236 298.755 272.937 315.608C271.872 323.384 267.274 332.005 259.296 334.422C258.991 334.524 259.177 335.031 259.482 334.895C262.628 333.632 265.485 331.741 267.876 329.338C270.268 326.934 272.145 324.069 273.393 320.916C276.082 313.746 276.088 305.845 273.41 298.671Z" fill="#263238"/>
<path d="M274.138 303.438C274.687 296.722 273.139 290.001 269.709 284.201C266.21 278.488 260.716 274.363 255.223 270.678C248.884 266.469 242.207 262.463 238.184 255.786C238.015 255.499 237.609 255.786 237.761 256.074C244.151 267.095 256.355 272.233 264.52 281.514C273.901 292.112 273.918 307.545 267.461 319.665C263.357 327.053 257.565 333.366 250.557 338.09C250.439 338.09 250.557 338.344 250.692 338.259C262.643 330.416 273.174 318.347 274.138 303.438Z" fill="#263238"/>
<path d="M197.53 384.22C248.833 412.382 310.244 447.727 347.872 439.411C364.555 435.726 439.473 337.515 442.65 326.156C445.372 316.403 377.538 277.136 369.965 284.827C357.186 297.724 322.634 370.342 317.563 371.559C312.492 372.776 269.422 364.037 224.593 355.94C181.455 348.199 161.914 364.68 197.53 384.22Z" fill="#EB9481"/>
<path d="M435.365 338.394C441.213 331.024 465.081 294.884 469.459 283.339C473.837 271.794 484.081 237.699 475.595 233.406C467.11 229.112 463.357 238.832 463.357 238.832C463.357 238.832 465.402 223.737 456.46 220.238C447.518 216.739 442.109 232.07 442.109 232.07C442.109 232.07 443.073 216.418 433.894 213.476C424.715 210.535 421.875 226.999 421.875 226.999C421.875 226.999 423.431 212.733 414.877 213.476C404.6 214.474 404.735 241.114 398.92 253.487C397.602 256.293 368.139 308.559 368.139 308.559L435.365 338.394Z" fill="#EB9481"/>
<path d="M422.079 225.664C422.079 245.255 418.698 253.842 408.556 270.171C408.353 270.476 408.776 270.847 409.029 270.543C420.524 255.465 426.305 245.323 423.093 225.613C422.873 224.65 422.079 224.734 422.079 225.664Z" fill="#263238"/>
<path d="M442.007 230.532C440.317 250.817 436.7 260.215 427.217 278.116C427.082 278.37 427.504 278.623 427.656 278.37C438.424 261.601 443.968 251.324 443.022 230.786C443.072 229.856 442.092 229.603 442.007 230.532Z" fill="#263238"/>
<path d="M462.783 239.728C459.689 259.302 456.207 269.715 444.78 285.909C444.75 285.945 444.728 285.987 444.714 286.033C444.7 286.078 444.696 286.126 444.701 286.173C444.705 286.22 444.719 286.265 444.742 286.307C444.764 286.349 444.794 286.386 444.831 286.416C444.868 286.446 444.91 286.468 444.955 286.482C445 286.495 445.048 286.5 445.095 286.495C445.142 286.491 445.188 286.477 445.229 286.454C445.271 286.432 445.308 286.402 445.338 286.365C458.607 270.983 463.053 258.034 463.374 239.88C463.357 238.663 462.985 238.494 462.783 239.728Z" fill="#263238"/>
<path d="M353.619 314.476C353.619 314.476 352.182 289.982 353.94 279.079C355.698 268.177 377.148 229.941 385.6 234.099C396.605 239.491 388.558 264.001 383.048 275.496C383.048 275.496 408.505 287.903 406.544 306.751C404.583 325.598 353.619 314.476 353.619 314.476Z" fill="#EB9481"/>
<path d="M388.203 236.567C394.694 248.72 386.513 263.342 381.983 274.887C381.909 275.054 381.876 275.236 381.888 275.419C381.9 275.601 381.955 275.777 382.05 275.933C382.145 276.089 382.275 276.22 382.432 276.315C382.588 276.409 382.764 276.465 382.946 276.476C393.274 282.393 406.121 293.752 407.22 306.261C407.22 306.337 407.25 306.41 407.304 306.464C407.358 306.518 407.431 306.548 407.507 306.548C407.584 306.548 407.657 306.518 407.711 306.464C407.764 306.41 407.795 306.337 407.795 306.261C408.437 292.738 396.723 280.499 385.009 274.735C389.809 262.903 397.399 247.943 388.389 236.499C388.271 236.448 388.17 236.499 388.203 236.567Z" fill="#263238"/>
<path d="M305.358 367.553L243.609 419.312C243.609 419.312 205.914 399.704 178.074 377.171C150.234 354.639 181.066 343.685 228.869 351.714C276.673 359.744 305.358 367.553 305.358 367.553Z" fill="#FFC727"/>
<path d="M232.216 377.949C230.467 375.561 228.441 373.388 226.182 371.475C228.682 376.849 232.295 381.631 236.78 385.505C235.569 382.812 234.036 380.275 232.216 377.949ZM178.125 377.205L178.868 377.78C179.359 377.256 179.849 376.698 180.305 376.09C179.528 376.445 178.801 376.816 178.091 377.273L178.125 377.205ZM281.491 377.543C278.569 377.114 275.609 377.024 272.667 377.273C275.426 378.314 278.296 379.034 281.22 379.42C284.14 379.863 287.101 379.959 290.044 379.707C287.275 378.656 284.393 377.93 281.457 377.543H281.491ZM260.817 357.529C260.779 358.658 260.819 359.787 260.936 360.91C261.348 359.896 261.698 358.857 261.984 357.8L260.817 357.529Z" fill="white"/>
<path d="M229.782 408.257C242.342 396.188 255.763 384.981 269.371 374.061C273.225 370.985 277.146 367.976 281.203 365.085C281.321 365.001 281.474 365.085 281.355 365.237C274.966 371.137 268.323 376.766 261.713 382.428C255.104 388.091 248.41 393.754 241.632 399.248C237.795 402.358 233.974 405.468 230.086 408.494C229.85 408.612 229.63 408.409 229.782 408.257Z" fill="#263238"/>
<path d="M269.845 397.321L243.593 419.295C243.593 419.295 205.898 399.704 178.058 377.171C168.169 369.176 165.684 362.651 168.71 357.901L269.845 397.321Z" fill="#263238"/>
<path d="M257.133 572.493H60.3569C60.3569 572.493 103.106 407.395 142.678 360.91C143.557 359.845 144.47 358.831 145.382 357.884C145.568 357.665 145.737 357.512 145.923 357.327C148.987 354.054 152.553 351.292 156.488 349.145C157.181 348.773 157.874 348.418 158.601 348.114C173.814 341.099 189.94 346.914 201.553 356.853C205.238 359.997 246.956 414.326 250.574 434.965C253.769 453.238 241.429 472.863 241.429 472.863L257.133 572.493Z" fill="#FFC727"/>
<path d="M211.949 465.797C203.571 466.615 195.265 468.056 187.101 470.108C183.044 471.19 179.088 472.441 175.116 473.776C173.138 474.452 171.161 475.061 169.166 475.652C167.089 476.328 164.938 476.748 162.76 476.903C162.719 476.903 162.68 476.919 162.652 476.948C162.623 476.976 162.607 477.015 162.607 477.055C162.607 477.096 162.623 477.134 162.652 477.163C162.68 477.191 162.719 477.207 162.76 477.207C164.823 477.295 166.89 477.238 168.946 477.038C170.926 476.791 172.885 476.407 174.812 475.889C178.936 474.824 182.993 473.59 187.101 472.508C195.384 470.311 203.65 468.113 212.068 466.507C212.162 466.492 212.246 466.439 212.301 466.362C212.357 466.284 212.379 466.187 212.363 466.093C212.348 465.999 212.295 465.915 212.218 465.86C212.14 465.804 212.043 465.782 211.949 465.797Z" fill="#263238"/>
<path d="M232.74 473.049C225.825 472.384 218.878 472.108 211.932 472.221C208.551 472.305 205.018 472.576 201.553 472.931C199.863 473.117 198.172 473.32 196.617 473.539C195.062 473.759 193.034 474.266 191.225 474.486C191.039 474.486 191.039 474.807 191.225 474.79C192.915 474.638 194.69 474.79 196.414 474.706L201.604 474.52C204.984 474.418 208.517 474.334 211.983 474.182C218.913 473.894 225.827 473.674 232.757 473.607C233.129 473.624 233.095 473.083 232.74 473.049Z" fill="#263238"/>
<path d="M123.983 399.721C123.053 398.538 122.106 397.371 121.075 396.34L120.348 397.862C121.024 398.91 121.751 399.941 122.495 400.938C124.246 403.31 126.272 405.466 128.53 407.361C127.296 404.657 125.771 402.095 123.983 399.721ZM146.819 356.414C146.475 359.054 146.418 361.723 146.65 364.375C147.7 361.604 148.41 358.714 148.763 355.771C148.763 355.332 148.882 354.876 148.932 354.436C148.222 355.061 147.512 355.721 146.819 356.414ZM206.54 411.418C205.487 414.187 204.761 417.069 204.376 420.005C203.95 422.932 203.854 425.898 204.089 428.846C205.15 426.082 205.866 423.198 206.219 420.259C206.683 417.336 206.791 414.367 206.54 411.418ZM168.929 506.62C167.888 509.378 167.173 512.248 166.799 515.173C166.371 518.1 166.28 521.066 166.529 524.014C168.538 518.448 169.356 512.522 168.929 506.62ZM105 434.745C103.968 437.524 103.253 440.41 102.87 443.349C102.44 446.27 102.349 449.231 102.599 452.173C103.634 449.402 104.343 446.521 104.712 443.586C105.155 440.661 105.252 437.693 105 434.745ZM157.908 422.676C154.987 422.247 152.026 422.157 149.084 422.406C151.844 423.447 154.714 424.167 157.638 424.552C160.557 424.995 163.519 425.092 166.461 424.84C163.711 423.769 160.847 423.021 157.925 422.609L157.908 422.676ZM228.701 503.814C225.774 503.385 222.808 503.294 219.86 503.543C225.426 505.552 231.352 506.37 237.254 505.944C234.5 504.899 231.636 504.173 228.718 503.78L228.701 503.814ZM96.5479 496.021C93.677 495.605 90.7693 495.503 87.8763 495.717H87.7072H87.8594C90.5899 496.724 93.425 497.421 96.3112 497.796C99.2323 498.225 102.193 498.316 105.135 498.066C102.361 497.055 99.4797 496.369 96.5479 496.021ZM170.789 565.816C167.868 565.388 164.907 565.297 161.965 565.546C167.536 567.559 173.469 568.371 179.376 567.929C176.581 566.898 173.677 566.189 170.721 565.816H170.789ZM90.9358 557.263C88.0091 556.834 85.0427 556.743 82.0952 556.993C84.8563 558.021 87.7261 558.73 90.6485 559.106C93.5729 559.56 96.5423 559.651 99.4891 559.376C96.7063 558.343 93.8135 557.634 90.8682 557.263H90.9358ZM172.716 380.654C170.335 382.424 168.163 384.46 166.242 386.722C168.939 385.495 171.49 383.97 173.848 382.175C176.225 380.41 178.381 378.367 180.272 376.09C177.593 377.328 175.059 378.859 172.716 380.654ZM193.778 471.139C191.402 472.885 189.246 474.912 187.354 477.174C190.043 475.954 192.58 474.422 194.91 472.61C197.29 470.868 199.447 468.841 201.334 466.575C198.646 467.811 196.111 469.354 193.778 471.173V471.139ZM119.926 526.448C117.537 528.19 115.373 530.223 113.485 532.499C116.164 531.26 118.698 529.73 121.041 527.935C123.418 526.171 125.589 524.147 127.515 521.901C124.802 523.1 122.251 524.639 119.926 526.482V526.448ZM242.579 446.882C240.829 444.494 238.803 442.321 236.544 440.408C239.044 445.782 242.657 450.564 247.143 454.438C245.928 451.757 244.396 449.231 242.579 446.916V446.882ZM217.409 549.268C215.645 546.891 213.621 544.72 211.374 542.794C212.559 545.507 214.088 548.058 215.922 550.383C217.668 552.764 219.694 554.926 221.956 556.824C220.723 554.145 219.198 551.611 217.409 549.268ZM143.303 468.739C141.549 466.354 139.524 464.182 137.269 462.265C138.467 464.975 140.001 467.525 141.833 469.854C143.574 472.239 145.601 474.402 147.867 476.295C146.636 473.612 145.105 471.077 143.303 468.739Z" fill="white"/>
<path d="M138.655 362.195C100.808 392.706 3.8819 513.618 25.7383 541.56C47.5948 569.501 192.865 556.773 235.04 543.554C247.582 539.633 213.369 460.033 199.812 456.365C188.521 453.306 125.909 471.815 124.692 468.198C123.323 464.107 140.159 441.473 161.559 392.435C186.239 335.876 155.373 348.723 138.655 362.195Z" fill="#EB9481"/>
<path d="M268.188 449.722C297.11 453.103 304.023 458.36 329.937 448.218C346.942 441.575 358.487 449.57 346.046 463.921C325.761 487.4 287.492 490.967 273.884 488.33L268.188 449.722Z" fill="#EB9481"/>
<path d="M187.067 457.379C187.067 457.379 222.953 448.099 254.124 448.606C275.693 448.961 322.516 454.962 354.295 510.93C361.834 524.2 363.169 548.473 342.969 531.215C328.635 518.993 323.243 506.907 313.608 501.312C313.608 501.312 311.63 532.364 298.039 539.413C286.153 545.559 273.844 550.852 261.206 555.252C259.868 553.124 258.67 550.91 257.623 548.625C257.623 548.625 244.303 554.001 223.815 546.546L187.067 457.379Z" fill="#EB9481"/>
<path d="M274.661 452.241C283.113 459.814 300.558 476.143 310.159 494.5C320.91 514.886 336.123 557.043 320.994 564.836C309.905 570.549 302.671 554.947 302.671 554.947C302.671 554.947 305.291 573.71 294.219 576.669C284.077 579.373 279.191 566.966 279.191 566.966C279.191 566.966 278.82 578.613 268.542 579.339C256.169 580.185 258.975 555.674 245.688 545.684C242.696 543.436 274.661 452.241 274.661 452.241Z" fill="#EB9481"/>
<path d="M286.799 502.36C293.56 510.812 303.888 533.801 303.009 554.643C303.009 555.116 302.62 555.353 302.553 554.913C299.382 536.865 294.029 519.269 286.613 502.512C286.592 502.487 286.583 502.456 286.586 502.424C286.589 502.392 286.605 502.363 286.63 502.343C286.654 502.323 286.686 502.313 286.718 502.317C286.749 502.32 286.778 502.335 286.799 502.36Z" fill="#263238"/>
<path d="M266.531 513.719C271.602 521.579 281.22 545.836 279.597 566.881C279.597 567.355 279.175 567.557 279.124 567.118C276.89 548.92 272.597 531.034 266.328 513.804C266.328 513.78 266.335 513.757 266.348 513.737C266.36 513.717 266.379 513.702 266.401 513.693C266.423 513.684 266.447 513.681 266.47 513.686C266.493 513.691 266.514 513.702 266.531 513.719Z" fill="#263238"/>
<path d="M313.658 501.177C322.11 506.248 326.826 512.215 333.114 519.534C336.188 523.199 339.461 526.692 342.918 529.997C346.096 532.956 350.779 537.401 355.545 535.288C358.199 534.105 358.926 530.927 359.146 528.29C359.354 525.325 358.922 522.351 357.878 519.568C357.878 519.433 358.081 519.331 358.132 519.483C359.169 521.938 359.852 524.528 360.16 527.175C360.562 529.662 360.202 532.214 359.129 534.494C356.492 539.159 350.407 538.28 346.586 535.829C344.327 534.264 342.226 532.481 340.315 530.505C338.439 528.662 336.647 526.735 334.906 524.774C331.339 520.717 328.009 516.475 324.493 512.401C321.048 508.516 317.355 504.857 313.438 501.447C313.286 501.312 313.489 501.075 313.658 501.177Z" fill="#263238"/>
<path d="M324.409 538.128C323.412 532.33 316.245 507.414 313.405 501.346C313.387 501.314 313.382 501.277 313.392 501.242C313.401 501.207 313.424 501.178 313.456 501.16C313.487 501.142 313.524 501.137 313.559 501.147C313.594 501.156 313.624 501.179 313.641 501.211C319 509.781 325.761 530.589 326.945 536.996C328.128 543.402 329.26 551.33 327.621 557.635C325.153 567.135 318.391 567.304 315.94 567.169C313.045 566.957 310.308 565.764 308.182 563.788C305.76 561.262 303.874 558.272 302.637 554.998C302.637 554.846 302.789 554.711 302.874 554.863C305.207 559.461 309.72 564.582 315.061 565.242C316.244 565.425 317.452 565.37 318.613 565.079C319.774 564.789 320.865 564.27 321.823 563.551C323.829 561.631 325.072 559.049 325.322 556.283C326.059 550.223 325.75 544.083 324.409 538.128Z" fill="#263238"/>
<path d="M279.597 566.881C280.629 568.352 282.336 573 286.443 574.961C287.872 575.775 289.477 576.23 291.12 576.286C292.763 576.342 294.395 575.997 295.876 575.282C298.699 573.53 300.73 570.747 301.538 567.524C302.222 563.399 302.589 559.229 302.637 555.049C302.637 554.846 302.891 554.829 302.908 555.049C303.434 559.583 303.274 564.17 302.434 568.656C302.037 570.414 301.293 572.074 300.245 573.54C299.197 575.006 297.867 576.248 296.332 577.193C294.707 578.08 292.868 578.501 291.018 578.409C289.168 578.316 287.38 577.714 285.852 576.669C284.314 575.604 279.851 570.786 279.09 567C279.107 566.881 279.547 566.814 279.597 566.881Z" fill="#263238"/>
<path d="M246.99 544.196C248.212 545.551 249.273 547.043 250.151 548.642C251.148 550.333 252.095 551.938 252.991 553.629C254.771 557.045 256.193 560.636 257.234 564.346C258.316 568.064 259.161 572.121 261.713 575.181C262.908 576.693 264.548 577.792 266.402 578.32C268.256 578.847 270.229 578.778 272.041 578.122C273.96 577.36 275.555 575.956 276.555 574.15C277.713 572.202 278.488 570.05 278.837 567.811C278.829 567.79 278.827 567.768 278.829 567.747C278.832 567.725 278.84 567.705 278.852 567.687C278.865 567.669 278.881 567.654 278.901 567.644C278.92 567.634 278.942 567.629 278.963 567.629C278.985 567.629 279.007 567.634 279.026 567.644C279.045 567.654 279.062 567.669 279.074 567.687C279.087 567.705 279.095 567.725 279.098 567.747C279.1 567.768 279.098 567.79 279.09 567.811C278.946 569.842 278.595 571.852 278.042 573.812C277.403 575.572 276.313 577.135 274.881 578.342C273.38 579.489 271.592 580.199 269.713 580.396C267.835 580.593 265.938 580.268 264.232 579.458C260.445 577.767 258.316 573.947 256.997 570.16C255.526 565.951 254.546 561.607 252.873 557.449C252.011 555.251 251.182 553.054 250.134 550.941C249.086 548.828 247.632 546.631 246.753 544.366C246.652 544.23 246.855 544.044 246.99 544.196Z" fill="#263238"/>
<path d="M233.789 549.437C239.133 550.209 244.538 550.475 249.932 550.231C250.101 550.231 250.202 550.721 250.033 550.755C247.359 551.256 244.638 551.466 241.919 551.381C239.162 551.265 236.439 550.735 233.839 549.809C233.62 549.69 233.62 549.403 233.789 549.437Z" fill="#263238"/>
<path d="M67.8118 486.301C76.8479 481.94 86.1859 478.235 95.7535 475.213C105.221 472.253 114.894 469.993 124.693 468.451C130.288 467.521 135.9 466.862 141.596 466.169C141.765 466.169 141.799 466.406 141.596 466.423C131.75 468.017 122.003 470.173 112.404 472.88C102.847 475.483 93.3476 478.261 83.9041 481.213C78.5625 482.904 73.2886 484.797 67.9977 486.64C67.8118 486.775 67.6427 486.42 67.8118 486.301Z" fill="#263238"/>
<path d="M59.5791 435.607L139.686 444.313C139.686 444.313 160.122 407.125 170.755 372.861C181.387 338.597 151.197 345.257 115.919 378.473C80.6411 411.689 59.5791 435.607 59.5791 435.607Z" fill="#FFC727"/>
<path d="M59.5791 435.607L139.686 444.313C139.686 444.313 160.122 407.125 170.755 372.861C181.387 338.597 151.197 345.257 115.919 378.473C80.6411 411.689 59.5791 435.607 59.5791 435.607Z" fill="#FFC727"/>
<path d="M146.954 355.298C146.962 355.382 146.962 355.467 146.954 355.552C146.525 358.478 146.435 361.445 146.684 364.392C147.734 361.62 148.443 358.731 148.797 355.788C148.797 355.281 148.932 354.791 148.983 354.284L146.954 355.298ZM104.999 434.745C104.266 436.589 103.7 438.496 103.309 440.442L104.999 440.611C105.185 438.66 105.185 436.696 104.999 434.745ZM77.2097 416.709L76.4321 417.52C77.3111 417.52 78.1225 417.52 79.086 417.368C78.4437 417.115 77.8351 416.895 77.2097 416.709ZM149.101 422.338C149.574 422.524 150.064 422.71 150.555 422.862C150.642 422.642 150.744 422.427 150.859 422.22C150.284 422.237 149.693 422.27 149.101 422.338ZM123.982 399.721C122.219 397.344 120.194 395.173 117.948 393.247C119.136 395.964 120.664 398.52 122.495 400.853C124.246 403.225 126.271 405.381 128.529 407.277C127.29 404.602 125.765 402.068 123.982 399.721Z" fill="white"/>
<path d="M136.44 443.569C136.88 443.569 139.821 443.569 139.821 443.569C140.176 442.538 147.073 426.665 148.763 423.285C152.245 416.337 156.133 409.576 159.92 402.797C160.038 402.578 160.376 402.797 160.258 402.95C157.587 408.866 155.018 414.782 152.296 420.732C152.972 419.938 153.648 419.143 154.308 418.332C155.643 416.642 156.86 414.951 158.128 413.159C158.246 413.007 158.483 413.159 158.398 413.345C157.189 415.79 155.659 418.064 153.851 420.107C153.084 421.004 152.253 421.846 151.366 422.625C151.147 423.116 150.927 423.623 150.69 424.096C149 427.477 140.666 444.516 140.362 444.499L136.508 444.025C136.221 444.093 136.221 443.552 136.44 443.569Z" fill="#263238"/>
<path d="M74.6748 422C92.0518 423.166 109.378 425.55 126.603 428.254C131.494 429.032 136.351 429.916 141.174 430.908C141.309 430.908 141.309 431.145 141.174 431.128C132.519 430.367 123.881 429.252 115.244 428.187C106.606 427.122 97.9004 425.972 89.2627 424.603C84.3944 423.859 79.5093 423.116 74.6579 422.287C74.4551 422.304 74.455 421.983 74.6748 422Z" fill="#263238"/>
<path d="M166.749 350.396C167.053 353.912 180.137 378.355 195.806 379.859C200.878 380.332 204.782 352.593 204.782 352.593L205.526 350.616L216.057 322.86L185.461 296.406L181.016 292.856C181.016 292.856 178.632 300.632 175.776 310.351C175.64 310.808 175.488 311.264 175.353 311.737C175.218 312.211 175.015 312.802 174.863 313.309C174.423 314.763 173.967 316.234 173.561 317.721C173.24 318.854 172.919 319.953 172.615 321.102C172.31 322.251 172.006 323.468 171.668 324.652C169.444 333.111 167.801 341.713 166.749 350.396Z" fill="#EB9481"/>
<path d="M175.775 310.351C177.517 318.819 181.08 326.806 186.218 333.759C191.355 340.711 197.943 346.463 205.525 350.616L216.056 322.86L185.461 296.406L181.015 292.856C181.015 292.856 178.632 300.632 175.775 310.351Z" fill="#263238"/>
<path d="M225.32 280.229C228.007 292.061 238.657 299.854 249.103 297.504C259.55 295.155 265.821 283.576 263.133 271.676C260.446 259.775 249.796 252.034 239.35 254.4C228.903 256.767 222.632 268.312 225.32 280.229Z" fill="#455A64"/>
<path d="M219.353 282.359C222.362 295.594 234.194 304.198 245.824 301.578C257.454 298.958 264.418 286.094 261.426 272.842C258.434 259.59 246.585 251.002 234.972 253.623C223.359 256.243 216.361 269.089 219.353 282.359Z" fill="#C7C7C7"/>
<path d="M253.532 265.421C267.731 315.541 239.316 329.655 228.498 332.765C218.677 335.538 184.903 343.719 165.599 295.324C146.295 246.929 165.109 224.481 187.219 216.959C209.329 209.436 239.333 215.285 253.532 265.421Z" fill="#EB9481"/>
<path d="M236.088 259.116C234.897 259.234 233.701 259.285 232.504 259.268C231.246 259.509 229.944 259.324 228.802 258.744C228.477 258.493 228.245 258.141 228.141 257.744C228.037 257.346 228.067 256.925 228.228 256.547C228.659 255.85 229.269 255.282 229.995 254.902C230.72 254.521 231.534 254.342 232.352 254.383C234.017 254.198 235.692 254.638 237.051 255.617C237.345 255.863 237.561 256.187 237.675 256.552C237.789 256.917 237.796 257.308 237.694 257.676C237.593 258.045 237.387 258.377 237.103 258.632C236.818 258.888 236.466 259.056 236.088 259.116Z" fill="#263238"/>
<path d="M203.041 270.78C204.189 270.424 205.318 270.006 206.421 269.529C207.673 269.252 208.8 268.576 209.633 267.602C209.831 267.242 209.904 266.827 209.843 266.421C209.782 266.015 209.59 265.64 209.295 265.354C208.625 264.882 207.841 264.597 207.024 264.529C206.206 264.46 205.386 264.611 204.647 264.965C203.043 265.447 201.676 266.507 200.809 267.94C200.631 268.278 200.555 268.66 200.59 269.04C200.624 269.421 200.768 269.783 201.004 270.083C201.24 270.384 201.558 270.609 201.919 270.733C202.281 270.856 202.67 270.873 203.041 270.78Z" fill="#263238"/>
<path d="M213.183 279.62C213.183 279.485 212.963 279.857 213.014 279.992C214.096 283.373 214.704 287.43 212 289.441C211.915 289.441 212 289.661 212.084 289.627C215.668 288.022 214.721 282.612 213.183 279.62Z" fill="#263238"/>
<path d="M209.092 276.916C203.48 278.065 206.185 289.188 211.391 288.123C216.597 287.058 213.791 275.952 209.092 276.916Z" fill="#263238"/>
<path d="M207.047 278.032C206.235 278.911 205.542 280.246 204.41 280.652C203.277 281.057 201.773 280.195 200.623 279.282C200.505 279.198 200.42 279.282 200.454 279.468C200.944 281.598 202.297 283.593 204.663 283.356C207.03 283.12 207.858 280.888 207.858 278.606C207.875 278.184 207.385 277.693 207.047 278.032Z" fill="#263238"/>
<path d="M232.943 273.518C232.943 273.383 233.265 273.62 233.281 273.755C233.991 277.237 235.377 281.108 238.775 281.514C238.877 281.514 238.91 281.7 238.775 281.717C234.853 282.072 233.062 276.916 232.943 273.518Z" fill="#263238"/>
<path d="M235.158 269.191C240.601 267.5 243.61 278.488 238.539 280.094C233.468 281.699 230.611 270.628 235.158 269.191Z" fill="#263238"/>
<path d="M237.693 269.275C238.724 269.613 239.874 270.442 240.939 270.222C242.004 270.002 242.731 268.532 243.187 267.162C243.187 267.027 243.356 267.162 243.39 267.162C244.032 269.258 243.948 271.642 242.021 272.605C240.094 273.569 238.42 272.048 237.338 270.087C237.135 269.816 237.271 269.089 237.693 269.275Z" fill="#263238"/>
<path d="M220.993 307.41C221.973 308.069 223.021 309.1 224.373 308.881C225.667 308.6 226.887 308.053 227.957 307.275C227.977 307.25 228.006 307.234 228.038 307.231C228.07 307.228 228.101 307.238 228.126 307.258C228.151 307.278 228.166 307.307 228.169 307.339C228.173 307.371 228.163 307.402 228.143 307.427C227.777 308.208 227.207 308.877 226.493 309.362C225.779 309.847 224.947 310.13 224.086 310.182C223.332 310.144 222.606 309.881 222.003 309.426C221.4 308.971 220.948 308.345 220.705 307.63C220.587 307.444 220.841 307.325 220.993 307.41Z" fill="#263238"/>
<path d="M232.335 290.236C232.335 290.236 234.346 295.189 234.972 297.606C234.972 297.843 226.655 301.899 221.28 296.93C221.224 296.892 221.185 296.833 221.172 296.766C221.16 296.7 221.174 296.631 221.212 296.575C221.25 296.519 221.309 296.48 221.376 296.467C221.442 296.455 221.511 296.469 221.567 296.507C225.192 297.828 229.147 297.94 232.842 296.828C232.842 296.118 229.089 288.461 229.461 288.376C231.383 288.06 233.339 288.004 235.276 288.207C231.354 277.778 225.81 268.058 222.074 257.595C222.041 257.517 222.038 257.43 222.066 257.351C222.094 257.271 222.15 257.205 222.224 257.165C222.298 257.125 222.384 257.114 222.466 257.134C222.548 257.154 222.619 257.204 222.666 257.274C229.208 267.061 233.974 278.978 238.285 289.644C238.86 290.946 233.467 290.405 232.335 290.236Z" fill="#263238"/>
<path d="M232.825 297.995C231.927 300.238 230.473 302.216 228.599 303.742C227.547 304.531 226.279 304.979 224.965 305.027C222.074 305.027 221.314 302.643 221.212 300.395C221.171 299.205 221.268 298.014 221.5 296.845C225.054 298.43 229.024 298.833 232.825 297.995Z" fill="#263238"/>
<path d="M228.599 303.742C227.547 304.531 226.279 304.98 224.965 305.027C222.074 305.027 221.314 302.643 221.212 300.395C224.171 299.871 227.551 301.02 228.599 303.742Z" fill="#FF99BA"/>
<path d="M168.016 293.65C177.719 294.276 178.835 272.081 178.835 272.081C178.835 272.081 219.404 262.632 220.857 229.028C220.857 229.028 229.191 249.887 251.284 258.203C251.284 258.203 247.616 221.692 218.17 216.35C218.17 216.35 181.353 205.43 162.844 235.248C144.334 265.066 161.509 293.228 168.016 293.65Z" fill="#263238"/>
<path d="M220.857 226.543C221.658 231.67 221.353 236.909 219.961 241.908C218.648 246.989 216.287 251.739 213.031 255.854C212.232 256.888 211.368 257.871 210.444 258.795L209.092 260.232C208.619 260.671 208.112 261.077 207.605 261.5C206.59 262.311 205.61 263.19 204.562 263.951C203.514 264.711 202.364 265.337 201.181 266.013C200.623 266.334 200.082 266.689 199.491 266.993L197.8 267.805L194.268 269.411C191.834 270.256 189.366 270.966 186.915 271.642C189.197 270.476 191.563 269.546 193.811 268.38L197.107 266.52L198.798 265.59C199.322 265.252 199.812 264.864 200.319 264.492C201.333 263.748 202.348 263.021 203.379 262.311C204.41 261.601 205.238 260.621 206.168 259.86L207.571 258.626L208.822 257.24C209.682 256.353 210.489 255.416 211.239 254.434C214.311 250.515 216.694 246.102 218.288 241.384C219.103 239.016 219.725 236.585 220.147 234.116C220.597 231.616 220.834 229.083 220.857 226.543Z" fill="#263238"/>
<path d="M175.251 293.126C175.251 293.126 161.018 279.282 154.544 284.675C148.07 290.067 160.9 311.602 170.011 313.123C171.166 313.401 172.364 313.442 173.535 313.245C174.706 313.047 175.825 312.615 176.825 311.974C177.824 311.333 178.684 310.496 179.352 309.514C180.019 308.532 180.482 307.426 180.711 306.261L175.251 293.126Z" fill="#EB9481"/>
<path d="M158.381 290.743C158.35 290.743 158.32 290.756 158.297 290.778C158.275 290.8 158.263 290.83 158.263 290.861C158.263 290.893 158.275 290.923 158.297 290.945C158.32 290.967 158.35 290.98 158.381 290.98C164.821 292.247 169.013 297.183 172.327 302.491C170.129 300.632 167.475 299.888 164.923 302.491C164.788 302.643 164.923 302.846 165.142 302.778C166.13 302.247 167.257 302.033 168.371 302.166C169.484 302.299 170.529 302.773 171.363 303.522C172.751 304.781 173.998 306.187 175.082 307.714C175.454 308.205 176.367 307.714 176.045 307.157L175.961 307.021C174.642 299.516 166.681 289.949 158.381 290.743Z" fill="#263238"/>
<path d="M165.515 286.078C165.515 286.078 156.286 261.483 159.48 245.424C163.03 227.54 185.191 207.138 210.529 214.778C210.529 214.778 180.39 219.291 169.741 243.514C164.839 254.671 174.102 284.201 174.102 284.201L165.515 286.078Z" fill="#C7C7C7"/>
<path d="M179.749 321.13C190.935 317.646 196.783 304.482 192.81 291.727C188.837 278.972 176.548 271.456 165.362 274.94C154.176 278.425 148.328 291.589 152.301 304.344C156.274 317.099 168.563 324.614 179.749 321.13Z" fill="#C7C7C7"/>
<path d="M186.712 292.755C190.279 304.215 185.022 316.048 174.879 319.175C164.737 322.302 153.784 315.558 150.2 304.097C146.616 292.636 151.89 280.804 162.033 277.66C172.175 274.516 183.145 281.362 186.712 292.755Z" fill="#455A64"/>
<path d="M205.408 350.785L196.111 374.247L166.867 344.75L158.669 354.284C158.669 354.284 187.405 401.242 187.507 399.112L197.074 378.828L211.07 392.807L209.803 357.614L205.408 350.785Z" fill="#EBEBEB"/>
<path d="M211.493 375.397C211.07 369.599 210.833 363.716 210.157 357.935C210.157 357.732 209.802 357.648 209.752 357.935C208.619 363.547 210.292 385.775 210.292 391.1C209.718 390.491 197.327 378.794 197.209 378.98C195.13 382.192 188.115 396.932 187.642 398.267C183.094 390.813 163.858 361.417 158.5 354.318C158.468 354.285 158.426 354.265 158.381 354.259C158.336 354.253 158.29 354.263 158.251 354.286C158.212 354.31 158.182 354.345 158.166 354.388C158.149 354.43 158.148 354.477 158.162 354.521C162.168 362.398 187.016 401.191 187.371 401.09C191.068 394.137 194.408 387 197.378 379.707C199.474 382.259 211.983 395.461 212.017 394.599C212.173 388.193 211.999 381.784 211.493 375.397Z" fill="#263238"/>
<path d="M374.579 194.46C373.564 204.183 369.868 213.434 363.902 221.179C357.936 228.924 349.935 234.859 340.792 238.321C331.649 241.784 321.724 242.638 312.125 240.788C302.525 238.938 293.628 234.457 286.426 227.845L260.023 231.715L273.242 208.896C270.25 201.473 268.986 193.467 269.546 185.484C270.105 177.5 272.474 169.749 276.472 162.816C280.47 155.884 285.994 149.952 292.623 145.469C299.253 140.986 306.816 138.071 314.739 136.943C322.662 135.816 330.738 136.505 338.355 138.96C345.972 141.415 352.931 145.57 358.704 151.112C364.478 156.654 368.916 163.436 371.68 170.946C374.445 178.456 375.466 186.497 374.664 194.46H374.579Z" fill="white"/>
<path d="M374.579 194.461C373.557 204.19 369.872 213.448 363.929 221.219C361.01 225.101 357.523 228.52 353.584 231.361C349.695 234.309 345.41 236.693 340.856 238.444C336.298 240.227 331.513 241.365 326.64 241.825C324.207 242.047 321.76 242.092 319.321 241.96C316.87 241.902 314.428 241.647 312.018 241.199C302.282 239.447 293.226 235.016 285.868 228.403L286.494 228.589L260.124 232.646L258.214 232.933L259.177 231.243L272.345 208.372V209.285C269.249 201.721 267.933 193.546 268.499 185.392C269.064 177.238 271.497 169.323 275.608 162.259C279.713 155.221 285.359 149.205 292.123 144.662C298.881 140.187 306.564 137.3 314.597 136.216C322.63 135.133 330.804 135.883 338.506 138.408C346.114 141.008 353.045 145.276 358.791 150.9C364.544 156.495 368.954 163.321 371.689 170.867C374.423 178.412 375.412 186.479 374.579 194.461ZM374.579 194.461C375.422 186.514 374.429 178.48 371.678 170.978C368.926 163.476 364.489 156.705 358.707 151.188C352.926 145.672 345.955 141.556 338.332 139.159C330.71 136.761 322.638 136.146 314.74 137.36C306.915 138.535 299.462 141.484 292.951 145.981C286.503 150.504 281.116 156.376 277.163 163.189C273.273 170.026 270.985 177.657 270.47 185.506C269.954 193.356 271.226 201.22 274.188 208.508L274.374 208.981L274.12 209.403L260.834 232.19L259.887 230.787L286.308 227.085H286.68L286.933 227.338C294.013 233.946 302.793 238.453 312.289 240.354C314.646 240.827 317.037 241.115 319.439 241.216C321.842 241.385 324.254 241.385 326.657 241.216C331.476 240.84 336.22 239.799 340.754 238.123C345.315 236.48 349.605 234.167 353.483 231.26C357.447 228.437 360.948 225.016 363.862 221.118C369.822 213.389 373.531 204.164 374.579 194.461Z" fill="#263238"/>
<path d="M345.133 196.962C348.662 196.962 351.522 194.101 351.522 190.572C351.522 187.043 348.662 184.182 345.133 184.182C341.604 184.182 338.743 187.043 338.743 190.572C338.743 194.101 341.604 196.962 345.133 196.962Z" fill="#263238"/>
<path d="M322.228 196.962C325.757 196.962 328.618 194.101 328.618 190.572C328.618 187.043 325.757 184.182 322.228 184.182C318.7 184.182 315.839 187.043 315.839 190.572C315.839 194.101 318.7 196.962 322.228 196.962Z" fill="#263238"/>
<path d="M299.34 196.962C302.869 196.962 305.73 194.101 305.73 190.572C305.73 187.043 302.869 184.182 299.34 184.182C295.811 184.182 292.951 187.043 292.951 190.572C292.951 194.101 295.811 196.962 299.34 196.962Z" fill="#263238"/>
<path d="M899.471 194.46C898.457 204.183 894.76 213.434 888.794 221.179C882.828 228.924 874.827 234.859 865.684 238.321C856.541 241.784 846.616 242.638 837.017 240.788C827.417 238.938 818.52 234.457 811.319 227.844L784.915 231.715L798.117 208.895C795.112 201.469 793.838 193.456 794.39 185.464C794.943 177.472 797.308 169.71 801.306 162.768C805.304 155.825 810.83 149.884 817.465 145.395C824.1 140.905 831.67 137.986 839.602 136.857C847.533 135.728 855.617 136.42 863.241 138.879C870.866 141.339 877.83 145.502 883.606 151.054C889.382 156.605 893.819 163.398 896.579 170.919C899.34 178.439 900.352 186.49 899.539 194.46H899.471Z" fill="white"/>
<path d="M899.471 194.46C898.442 204.187 894.758 213.444 888.822 221.218C887.337 223.142 885.74 224.977 884.038 226.712C882.278 228.397 880.415 229.972 878.46 231.428C874.576 234.382 870.29 236.767 865.731 238.511C861.179 240.295 856.4 241.433 851.532 241.892C849.093 242.114 846.642 242.159 844.196 242.027C841.746 241.968 839.304 241.713 836.894 241.266C827.167 239.48 818.129 235.019 810.795 228.385L811.42 228.571L785.05 232.628L783.14 232.916L784.104 231.225L797.238 208.355V209.267C794.143 201.704 792.826 193.53 793.389 185.377C793.951 177.224 796.379 169.308 800.483 162.241C804.594 155.203 810.246 149.187 817.015 144.645C823.773 140.169 831.457 137.282 839.49 136.199C847.523 135.116 855.697 135.865 863.399 138.39C871.008 140.988 877.939 145.256 883.683 150.882C889.442 156.477 893.856 163.306 896.591 170.855C899.325 178.404 900.31 186.475 899.471 194.46ZM899.471 194.46C900.314 186.513 899.322 178.479 896.57 170.977C893.819 163.475 889.381 156.704 883.6 151.188C877.819 145.671 870.848 141.555 863.225 139.158C855.602 136.76 847.53 136.145 839.632 137.359C831.807 138.535 824.354 141.483 817.843 145.98C811.395 150.503 806.008 156.375 802.055 163.188C798.139 170.023 795.827 177.658 795.294 185.518C794.797 193.361 796.062 201.216 798.996 208.507L799.199 208.98L798.945 209.403L785.659 232.189L784.712 230.786L811.133 227.084H811.505L811.758 227.337C818.814 233.932 827.563 238.438 837.029 240.353C839.386 240.826 841.777 241.115 844.179 241.215C846.582 241.384 848.994 241.384 851.397 241.215C856.217 240.839 860.961 239.798 865.495 238.122C870.054 236.476 874.343 234.163 878.223 231.259C882.178 228.431 885.673 225.01 888.585 221.117C894.612 213.411 898.381 204.182 899.471 194.46Z" fill="#263238"/>
<path d="M869.94 196.962C873.469 196.962 876.33 194.101 876.33 190.572C876.33 187.043 873.469 184.182 869.94 184.182C866.412 184.182 863.551 187.043 863.551 190.572C863.551 194.101 866.412 196.962 869.94 196.962Z" fill="#263238"/>
<path d="M847.053 196.962C850.582 196.962 853.443 194.101 853.443 190.572C853.443 187.043 850.582 184.182 847.053 184.182C843.524 184.182 840.664 187.043 840.664 190.572C840.664 194.101 843.524 196.962 847.053 196.962Z" fill="#263238"/>
<path d="M830.555 190.572C830.558 191.836 830.186 193.073 829.486 194.126C828.786 195.179 827.79 196.001 826.622 196.487C825.455 196.973 824.17 197.102 822.929 196.858C821.689 196.613 820.549 196.006 819.653 195.113C818.758 194.22 818.148 193.082 817.9 191.842C817.652 190.602 817.777 189.316 818.261 188.148C818.744 186.979 819.563 185.98 820.614 185.277C821.665 184.574 822.901 184.199 824.165 184.199C825.857 184.199 827.48 184.87 828.678 186.065C829.875 187.259 830.55 188.88 830.555 190.572Z" fill="#263238"/>
<path d="M287.221 568.572H275.913V575.959H287.221V568.572Z" fill="#455A64"/>
<path d="M301.893 568.081H290.584V575.468H301.893V568.081Z" fill="#455A64"/>
<path d="M316.565 567.591H305.257V574.978H316.565V567.591Z" fill="#455A64"/>
<path d="M331.221 567.101H319.912V574.488H331.221V567.101Z" fill="#455A64"/>
<path d="M345.893 566.611H334.584V573.998H345.893V566.611Z" fill="#455A64"/>
<path d="M360.566 566.138H349.257V573.524H360.566V566.138Z" fill="#455A64"/>
<path d="M375.221 565.647H363.913V573.034H375.221V565.647Z" fill="#455A64"/>
<path d="M389.894 565.157H378.585V572.544H389.894V565.157Z" fill="#455A64"/>
<path d="M404.549 564.667H393.24V572.054H404.549V564.667Z" fill="#455A64"/>
<path d="M407.321 580.201H273.14V571.209L407.321 567.473V580.201Z" fill="#37474F"/>
<path d="M538.291 544.771H316.785L352.012 379.859H573.518L538.291 544.771Z" fill="#455A64"/>
<path d="M546.489 544.771H324.966L360.194 379.859H581.716L546.489 544.771Z" fill="#37474F"/>
<path d="M472.485 452.765C471.806 456.519 469.86 459.926 466.971 462.418C464.082 464.91 460.426 466.336 456.613 466.457C454.892 466.51 453.181 466.173 451.61 465.47C450.038 464.768 448.646 463.719 447.538 462.401C446.43 461.083 445.636 459.532 445.213 457.863C444.791 456.194 444.753 454.451 445.101 452.765C445.773 449.009 447.715 445.598 450.601 443.102C453.487 440.607 457.143 439.178 460.957 439.056C462.681 438.999 464.395 439.335 465.97 440.037C467.545 440.739 468.941 441.79 470.051 443.11C471.161 444.43 471.957 445.985 472.379 447.657C472.8 449.33 472.837 451.076 472.485 452.765Z" fill="#263238"/>
<path d="M483.844 587.842H374.9V579.373L483.844 575.857V587.842Z" fill="#455A64"/>
<path d="M513.459 587.825H454.956L419.729 495.413H478.232L513.459 587.825Z" fill="#455A64"/>
<path d="M523.078 587.825H464.591L429.364 495.413H487.85L523.078 587.825Z" fill="#263238"/>
<path d="M268.965 590.09H156.691C147.106 590.09 160.967 562.791 195.958 552.327C230.948 541.864 280.037 579.847 268.965 590.09Z" fill="#37474F"/>
<path d="M225.015 590.09C225.091 586.98 225.603 583.896 226.536 580.928C227.438 577.928 228.704 575.05 230.306 572.358C231.912 569.65 233.925 567.204 236.273 565.106C238.602 563.025 241.28 561.371 244.184 560.221C242.984 561.202 241.615 561.912 240.516 562.977L238.825 564.447L237.236 566.138C235.16 568.312 233.34 570.716 231.81 573.305C230.256 575.893 228.921 578.607 227.821 581.418C226.694 584.243 225.756 587.14 225.015 590.09Z" fill="#263238"/>
<path d="M238.234 564.109C244.915 566.223 251.236 569.341 256.98 573.355C259.887 575.364 262.518 577.745 264.806 580.438C267.207 583.117 268.667 586.506 268.965 590.09C268.034 586.785 266.25 583.782 263.792 581.385C261.397 578.945 258.777 576.738 255.966 574.792C253.177 572.781 250.252 570.972 247.277 569.197C244.302 567.422 241.31 565.749 238.234 564.109Z" fill="#263238"/>
<path d="M805.927 568.572H794.618V575.959H805.927V568.572Z" fill="#455A64"/>
<path d="M820.6 568.082H809.291V575.468H820.6V568.082Z" fill="#455A64"/>
<path d="M835.271 567.591H823.963V574.978H835.271V567.591Z" fill="#455A64"/>
<path d="M849.927 567.101H838.618V574.488H849.927V567.101Z" fill="#455A64"/>
<path d="M864.599 566.611H853.291V573.998H864.599V566.611Z" fill="#455A64"/>
<path d="M879.271 566.138H867.963V573.524H879.271V566.138Z" fill="#455A64"/>
<path d="M893.928 565.647H882.619V573.034H893.928V565.647Z" fill="#455A64"/>
<path d="M908.6 565.157H897.291V572.544H908.6V565.157Z" fill="#455A64"/>
<path d="M923.272 564.667H911.963V572.054H923.272V564.667Z" fill="#455A64"/>
<path d="M926.044 580.201H791.863V571.209L926.044 567.473V580.201Z" fill="#37474F"/>
<path d="M1057 544.771H835.491L870.718 379.859H1092.22L1057 544.771Z" fill="#455A64"/>
<path d="M1065.2 544.771H843.689L878.917 379.859H1100.42L1065.2 544.771Z" fill="#37474F"/>
<path d="M991.191 452.765C990.512 456.516 988.568 459.922 985.683 462.413C982.798 464.905 979.145 466.332 975.335 466.457C973.613 466.513 971.901 466.178 970.327 465.476C968.753 464.775 967.359 463.726 966.249 462.408C965.139 461.09 964.343 459.537 963.92 457.867C963.497 456.197 963.458 454.452 963.807 452.765C964.482 449.01 966.424 445.601 969.31 443.106C972.196 440.611 975.85 439.181 979.663 439.056C981.386 438.999 983.101 439.335 984.676 440.037C986.251 440.739 987.647 441.79 988.757 443.11C989.867 444.43 990.663 445.985 991.084 447.657C991.506 449.33 991.542 451.076 991.191 452.765Z" fill="#263238"/>
<path d="M1002.55 587.842H893.606V579.373L1002.55 575.857V587.842Z" fill="#455A64"/>
<path d="M1032.17 587.825H973.662L938.435 495.413H996.938L1032.17 587.825Z" fill="#455A64"/>
<path d="M1041.8 587.825H983.297L948.07 495.413H1006.57L1041.8 587.825Z" fill="#263238"/>
<path d="M787.722 590.09H675.397C665.813 590.09 679.674 562.791 714.664 552.327C749.655 541.864 798.743 579.847 787.722 590.09Z" fill="#37474F"/>
<path d="M743.637 590.09C743.72 586.981 744.232 583.898 745.158 580.928C746.067 577.931 747.332 575.054 748.928 572.358C750.545 569.657 752.556 567.213 754.895 565.106C757.223 563.025 759.901 561.371 762.805 560.221C761.605 561.202 760.236 561.912 759.137 562.977L757.447 564.447L755.858 566.138C753.771 568.307 751.945 570.712 750.415 573.305C748.861 575.893 747.526 578.607 746.426 581.418C745.304 584.244 744.372 587.141 743.637 590.09Z" fill="#263238"/>
<path d="M756.94 564.109C763.621 566.223 769.942 569.341 775.686 573.355C778.595 575.368 781.231 577.749 783.529 580.438C785.922 583.098 787.393 586.459 787.722 590.022C786.785 586.716 784.995 583.714 782.532 581.317C780.137 578.878 777.516 576.67 774.706 574.725C771.934 572.713 768.992 570.904 766.017 569.129C763.042 567.355 760.033 565.749 756.94 564.109Z" fill="#263238"/>
</svg>
