<?xml version="1.0" encoding="utf-8"?>
<!-- Generator: Adobe Illustrator 24.3.0, SVG Export Plug-In . SVG Version: 6.00 Build 0)  -->
<svg version="1.1" id="Layer_1" xmlns="http://www.w3.org/2000/svg" xmlns:xlink="http://www.w3.org/1999/xlink" x="0px" y="0px"
	 viewBox="0 0 750 645.7" style="enable-background:new 0 0 750 645.7;" xml:space="preserve">
<style type="text/css">
	.st0{clip-path:url(#SVGID_2_);}
	.st1{fill:url(#SVGID_3_);}
	.st2{fill:url(#SVGID_4_);}
	.st3{opacity:0.68;}
	.st4{fill:#FFFFFF;}
	.st5{fill:#91B3FA;}
	.st6{fill:url(#SVGID_5_);}
	.st7{fill:#BDD0FB;}
	.st8{fill:url(#SVGID_6_);}
	.st9{fill:#DCE5FE;}
	.st10{fill:url(#SVGID_7_);}
	.st11{fill:url(#SVGID_8_);}
	.st12{fill:url(#SVGID_9_);}
	.st13{fill:url(#SVGID_10_);}
	.st14{fill:#7D97F4;}
	.st15{fill:url(#SVGID_11_);}
	.st16{opacity:0.75;fill:#FFFFFF;enable-background:new    ;}
	.st17{opacity:0.82;}
	.st18{opacity:0.6;fill:#FFFFFF;enable-background:new    ;}
	.st19{opacity:0.53;fill:#FFFFFF;enable-background:new    ;}
	.st20{fill:url(#SVGID_12_);}
	.st21{fill:url(#SVGID_13_);}
	.st22{opacity:0.65;fill:#FFFFFF;enable-background:new    ;}
	.st23{opacity:0.5;fill:#FFFFFF;enable-background:new    ;}
	.st24{fill:url(#SVGID_14_);}
	.st25{fill:url(#SVGID_15_);}
	.st26{fill:url(#SVGID_16_);}
	.st27{fill:url(#SVGID_17_);}
	.st28{fill:url(#SVGID_18_);}
	.st29{fill:url(#SVGID_19_);}
	.st30{fill:url(#SVGID_20_);}
	.st31{fill:url(#SVGID_21_);}
	.st32{fill:url(#SVGID_22_);}
	.st33{fill:url(#SVGID_23_);}
	.st34{fill:url(#SVGID_24_);}
	.st35{fill:url(#SVGID_25_);}
	.st36{fill:url(#SVGID_26_);}
	.st37{fill:url(#SVGID_27_);}
	.st38{fill:url(#SVGID_28_);}
	.st39{fill:url(#SVGID_29_);}
	.st40{fill:url(#SVGID_30_);}
	.st41{fill:url(#SVGID_31_);}
	.st42{fill:url(#SVGID_32_);}
	.st43{fill:url(#SVGID_33_);}
	.st44{fill:url(#SVGID_34_);}
	.st45{fill:url(#SVGID_35_);}
	.st46{fill:url(#SVGID_36_);}
	.st47{fill:url(#SVGID_37_);}
	.st48{fill:url(#SVGID_38_);}
	.st49{fill:url(#SVGID_39_);}
	.st50{fill:url(#SVGID_40_);}
	.st51{fill:url(#SVGID_41_);}
	.st52{fill:url(#SVGID_42_);}
	.st53{fill:url(#SVGID_43_);}
	.st54{fill:url(#SVGID_44_);}
	.st55{fill:url(#SVGID_45_);}
	.st56{fill:url(#SVGID_46_);}
	.st57{fill:url(#SVGID_47_);}
	.st58{fill:url(#SVGID_48_);}
	.st59{fill:url(#SVGID_49_);}
	.st60{fill:url(#SVGID_50_);}
	.st61{fill:url(#SVGID_51_);}
	.st62{fill:url(#SVGID_52_);}
	.st63{fill:url(#SVGID_53_);}
	.st64{fill:url(#SVGID_54_);}
	.st65{fill:url(#SVGID_55_);}
	.st66{fill:url(#SVGID_56_);}
	.st67{fill:url(#SVGID_57_);}
	.st68{fill:url(#SVGID_58_);}
	.st69{fill:url(#SVGID_59_);}
	.st70{fill:url(#SVGID_60_);}
	.st71{opacity:0.37;fill:url(#SVGID_61_);enable-background:new    ;}
	.st72{fill:url(#SVGID_62_);}
	.st73{fill:url(#SVGID_63_);}
	.st74{fill:url(#SVGID_64_);}
	.st75{fill:url(#SVGID_65_);}
	.st76{fill:url(#SVGID_66_);}
	.st77{fill:url(#SVGID_67_);}
</style>
<g>
	<defs>
		<rect id="SVGID_1_" width="750" height="645.7"/>
	</defs>
	<clipPath id="SVGID_2_">
		<use xlink:href="#SVGID_1_"  style="overflow:visible;"/>
	</clipPath>
	<g id="Illustration" class="st0">
		<g>
			
				<linearGradient id="SVGID_3_" gradientUnits="userSpaceOnUse" x1="290.6839" y1="1320.3363" x2="515.0629" y2="684.3646" gradientTransform="matrix(1 0 0 -1 0 1348.36)">
				<stop  offset="0" style="stop-color:#DAE3FE"/>
				<stop  offset="1" style="stop-color:#E9EFFD"/>
			</linearGradient>
			<path class="st1" d="M757,187.9c-19-36.9-60.8-64.7-101.5-56.2c-24.4,5.1-48.6,22.2-71.9,13.6c-16.9-6.2-26.3-23.8-40.5-34.8
				c-21.8-17-52.7-16.8-79.3-9.2c-26.6,7.6-50.9,21.6-77.1,30.2c-44.7,14.7-94.6,13.2-138.3-4.4c-19.1-7.7-37.1-18.3-56.6-25.1
				c-19.5-6.8-41.6-9.4-60.5-0.9c-18.8,8.5-32.4,30.7-25.8,50.3c1.3,3.9,3.3,7.8,3.1,11.9c-0.4,6.6-6.8,11.4-13.2,12.9
				c-6.4,1.5-13.2,0.5-19.8,0.7c-29.6,0.7-56.1,27.8-56.2,57.4c-0.1,24.6,15,46.2,28,67.1c13,20.9,24.6,46,16.9,69.3
				c-4.6,13.8-15.3,24.7-22.3,37.4c-18.2,33.1-8.5,76.9,17,104.8c25.5,27.9,63.6,41.6,101.3,44.8c37.6,3.3,75.4-2.9,112.7-8.9
				s75.1-12,112.7-8.6l-2-1.1c73.5,18.2,150.4,22.5,225.6,12.8c15.7-2,33.8-6.4,40.4-20.8c5.6-12.2,0.6-26.4,1.7-39.7
				c1.7-19.2,16.1-34.9,31.8-46.1s33.6-19.5,47.7-32.6c27.7-25.6,37.1-65.2,41.3-102.8C776.6,268.6,776,224.9,757,187.9z"/>
			<g>
				
					<linearGradient id="SVGID_4_" gradientUnits="userSpaceOnUse" x1="590.602" y1="1054.2639" x2="676.5586" y2="1330.4001" gradientTransform="matrix(1 0 0 -1 0 1348.36)">
					<stop  offset="0" style="stop-color:#FE7062"/>
					<stop  offset="1" style="stop-color:#FF928E"/>
				</linearGradient>
				<path class="st2" d="M764.2,225.2C760.8,302,690.9,361.3,608,357.6C525.1,354,460.7,288.8,464,212
					c3.3-76.8,73.3-136.1,156.2-132.4C703.1,83.3,767.5,148.5,764.2,225.2z"/>
				<g class="st3">
					<path class="st4" d="M652.9,219.3c0,12.3-0.5,24.6-1.4,36.8c-1,12.2-2.5,24.4-4.7,36.6c-2.3,12.1-5.1,24.1-9.4,35.7
						c-2.2,5.8-4.7,11.4-8.1,16.7c-1.7,2.6-3.7,5.1-6.1,7.1c-1.2,1-2.5,1.9-4,2.6s-3.1,1.1-4.7,1.1c-1.6,0.1-3.3-0.3-4.8-0.9
						c-1.5-0.6-2.9-1.5-4.1-2.4c-2.5-2-4.5-4.4-6.2-7c-3.5-5.2-6.1-10.8-8.2-16.6c-2.2-5.8-4-11.7-5.5-17.6c-1.5-6-2.8-12-4-18
						c-2.2-12.1-3.7-24.3-4.8-36.5c-1-12.2-1.6-24.5-1.6-36.8c0-12.3,0.5-24.6,1.5-36.8c0.9-12.2,2.3-24.5,4.4-36.6
						c2.1-12.1,4.7-24.2,8.8-35.8c2.1-5.8,4.5-11.5,7.9-16.7c1.7-2.6,3.7-5,6.1-7c1.2-1,2.6-1.8,4-2.4c1.5-0.6,3.1-0.9,4.6-0.8
						c1.6,0,3.2,0.4,4.6,1.1c1.5,0.7,2.8,1.5,4,2.5c2.4,2,4.4,4.4,6.2,6.9c3.6,5.1,6.2,10.7,8.5,16.4c4.6,11.4,7.7,23.4,10.1,35.5
						c2.4,12.1,4.1,24.3,5.2,36.5C652.4,194.8,652.9,207,652.9,219.3z M650.2,219.3c0-12.2-0.4-24.4-1.4-36.6
						c-1-12.2-2.5-24.3-4.7-36.3c-2.3-12-5.2-23.9-9.5-35.3c-2.2-5.7-4.8-11.2-8.2-16.3c-1.7-2.5-3.6-4.9-5.9-6.8
						c-1.2-0.9-2.4-1.8-3.7-2.4s-2.8-1-4.3-1.1c-3-0.1-5.8,1.3-8.1,3.2c-2.3,1.9-4.2,4.3-5.8,6.9c-3.2,5.1-5.6,10.8-7.5,16.6
						c-3.9,11.6-6.3,23.6-8.2,35.6c-3.7,24.2-4.8,48.7-4.7,73.1c-0.1,12.2,0.3,24.4,1.2,36.6c0.9,12.2,2.3,24.3,4.4,36.4
						c2.1,12,4.8,24,9,35.4c2.1,5.7,4.6,11.3,7.9,16.3c1.7,2.5,3.6,4.9,5.8,6.7c2.3,1.9,5,3.2,7.9,3.1c1.4,0,2.8-0.4,4.1-1
						c1.3-0.6,2.5-1.5,3.7-2.4c2.3-1.9,4.1-4.3,5.7-6.8c3.3-5.1,5.7-10.7,7.8-16.4c4.1-11.5,6.8-23.4,8.9-35.5
						c2.1-12,3.4-24.2,4.3-36.4C649.8,243.8,650.2,231.6,650.2,219.3z"/>
					<path class="st4" d="M714.9,219.3c-0.1,15.8-2.1,31.7-6.4,47c-4.3,15.3-10.9,29.9-19.7,43c-8.9,13.1-20.1,24.8-33.6,33.2
						c-6.7,4.2-14,7.6-21.6,9.8c-7.6,2.3-15.5,3.5-23.4,3.5c-7.9,0-15.9-1.2-23.5-3.5c-7.6-2.3-14.9-5.6-21.6-9.8
						c-13.5-8.4-24.8-20.1-33.6-33.2c-8.9-13.2-15.4-27.8-19.8-43.1c-2.1-7.6-3.7-15.4-4.8-23.3c-1.1-7.9-1.6-15.8-1.6-23.7
						c0-7.9,0.6-15.9,1.6-23.7c1.1-7.8,2.7-15.7,4.8-23.3c4.4-15.3,11-29.9,19.9-43c8.9-13.1,20.2-24.7,33.6-33.1
						c13.4-8.4,29.1-13.3,45-13.2c15.9,0,31.5,4.9,44.9,13.3c13.4,8.4,24.7,20,33.6,33.1c8.9,13.1,15.4,27.8,19.8,43
						C712.7,187.6,714.8,203.5,714.9,219.3z M711.8,219.3c0-15.6-1.9-31.2-6-46.2c-4.1-15-10.3-29.5-18.8-42.6
						c-8.5-13-19.4-24.7-32.6-33.1c-6.6-4.2-13.7-7.6-21.2-9.8c-7.4-2.3-15.3-3.5-23.1-3.5c-7.8,0-15.6,1.2-23.1,3.5
						c-7.4,2.3-14.6,5.7-21.1,9.8c-13.2,8.5-24,20.1-32.5,33.1c-8.5,13.1-14.7,27.6-18.7,42.6c-2,7.5-3.5,15.2-4.5,22.9
						c-1,7.7-1.5,15.5-1.5,23.3c0,7.8,0.5,15.6,1.5,23.3c1,7.7,2.5,15.4,4.5,22.9c4.1,15,10.3,29.5,18.8,42.5
						c4.3,6.5,9.1,12.7,14.5,18.2c5.4,5.6,11.4,10.6,18,14.8c6.6,4.2,13.7,7.5,21.1,9.8c7.4,2.3,15.2,3.5,23,3.6
						c7.8,0,15.5-1.2,23-3.5c7.4-2.3,14.6-5.6,21.1-9.8c6.6-4.2,12.6-9.2,18-14.8c5.4-5.6,10.3-11.7,14.6-18.2
						c8.5-13,14.7-27.5,18.9-42.6C709.9,250.5,711.8,234.9,711.8,219.3z"/>
					<path class="st4" d="M488.5,165.3c10.4-0.2,20.9-0.3,31.3-0.4l31.3-0.2c10.4-0.1,20.9-0.1,31.3-0.1l31.3-0.1l31.3,0.1
						c10.4,0,20.9,0,31.3,0.1l31.3,0.2c10.4,0.1,20.9,0.2,31.3,0.4c0.1,0,0.1,0.1,0.1,0.1c0,0.1-0.1,0.1-0.1,0.1
						c-10.4,0.2-20.9,0.3-31.3,0.4l-31.4,0.3c-10.4,0.1-20.9,0.1-31.3,0.1l-31.3,0.1l-31.3-0.1c-10.4,0-20.9,0-31.3-0.1l-31.3-0.2
						c-10.4-0.1-20.9-0.2-31.3-0.4c-0.1,0-0.2-0.1-0.2-0.2C488.3,165.4,488.4,165.3,488.5,165.3z"/>
					<path class="st4" d="M524.8,112.9c7.4-0.2,14.8-0.3,22.2-0.4l22.2-0.2c7.4-0.1,14.8-0.1,22.2-0.1l22.2-0.1l22.2,0.1
						c7.4,0,14.8,0,22.2,0.1l22.2,0.2c7.4,0.1,14.8,0.2,22.2,0.4c0.1,0,0.1,0.1,0.1,0.1c0,0.1-0.1,0.1-0.1,0.1
						c-7.4,0.2-14.8,0.3-22.2,0.4l-22.2,0.2c-7.4,0.1-14.8,0.1-22.2,0.1l-22.2,0.1l-22.2-0.1c-7.4,0-14.8,0-22.2-0.1l-22.2-0.2
						c-7.4-0.1-14.8-0.2-22.2-0.4c-0.1,0-0.2-0.1-0.2-0.2C524.6,113,524.7,112.9,524.8,112.9z"/>
					<path class="st4" d="M477.6,217.7c11.3-0.2,22.7-0.3,34-0.4l34-0.2c11.3-0.1,22.7-0.1,34-0.1l34-0.1l68,0.2l34,0.2
						c11.3,0.1,22.7,0.2,34,0.4c0.1,0,0.1,0.1,0.1,0.1c0,0.1-0.1,0.1-0.1,0.1c-11.3,0.2-22.7,0.3-34,0.4l-34,0.2l-68,0.2l-34-0.1
						c-11.3,0-22.7,0-34-0.1l-34-0.2c-11.3-0.1-22.7-0.2-34-0.4c-0.1,0-0.2-0.1-0.2-0.2C477.4,217.9,477.5,217.7,477.6,217.7z"/>
					<path class="st4" d="M488.5,270.2c10.4-0.2,20.9-0.3,31.3-0.4l31.3-0.2c10.4-0.1,20.9-0.1,31.3-0.1l31.3-0.1l31.3,0.1
						c10.4,0,20.9,0,31.3,0.1l31.3,0.2c10.4,0.1,20.9,0.2,31.3,0.4c0.1,0,0.1,0.1,0.1,0.1s-0.1,0.1-0.1,0.1
						c-10.4,0.2-20.9,0.3-31.3,0.4l-31.3,0.2c-10.4,0.1-20.9,0.1-31.3,0.1l-31.3,0.1l-31.3-0.1c-10.4,0-20.9,0-31.3-0.1l-31.3-0.2
						c-10.4-0.1-20.9-0.2-31.3-0.4c-0.1,0-0.2-0.1-0.2-0.2C488.3,270.3,488.4,270.2,488.5,270.2z"/>
					<path class="st4" d="M707.1,323.5H529.3c-0.4,0-0.7-0.3-0.7-0.7s0.3-0.7,0.7-0.7h177.8c0.4,0,0.7,0.3,0.7,0.7
						S707.5,323.5,707.1,323.5z"/>
				</g>
			</g>
			<g>
				<path class="st5" d="M159.5,548.9c-27,5.4-61.5-24-72.6-56.2c-11.4-33.1,9.5-46.9,9.4-92.9c-0.2-52.2-27.3-60-45.3-130.3
					c-4-15.9-27.5-107.6,1.6-124.9c26.8-15.9,102.3,29.8,115.5,88.2c9.4,41.7-19.7,59.2-8.6,107.7c9.8,42.6,35.4,43.2,45.3,84.3
					C216.7,474.8,194.9,541.8,159.5,548.9z"/>
				
					<linearGradient id="SVGID_5_" gradientUnits="userSpaceOnUse" x1="4226.3989" y1="1115.1758" x2="4159.1221" y2="788.7918" gradientTransform="matrix(-1 0 0 -1 4326.2759 1348.36)">
					<stop  offset="0" style="stop-color:#4042E2"/>
					<stop  offset="1" style="stop-color:#4F52FF"/>
				</linearGradient>
				<path class="st6" d="M157.5,561.6c7.3-56.2-6.9-142.9-20.1-205.7c-14.3-68-30.5-123.5-30.7-124.1l-2.2,0.7
					c0.1,0.5,16.3,56,30.6,123.9c13.2,62.7,27.3,149.1,20.1,204.9L157.5,561.6z"/>
			</g>
			<g>
				<path class="st7" d="M128.4,542.7c35.4-18.5,47.5-81.8,27.4-102.4c-13.6-13.9-33.1,0.7-51.9-13.7c-24-18.4-6.4-53.1-25.2-98.1
					C62.6,290.2,24,254,1.5,261.4c-23.6,7.8-36,65.5-15.9,100.2c13.1,22.6,33.1,23.7,37.5,44.7c5,24.4-19.3,35.5-19.5,59.1
					C3.4,507.9,81.6,567,128.4,542.7z"/>
				
					<linearGradient id="SVGID_6_" gradientUnits="userSpaceOnUse" x1="4270.645" y1="1004.4755" x2="4225.9443" y2="787.6157" gradientTransform="matrix(-1 0 0 -1 4326.2759 1348.36)">
					<stop  offset="0" style="stop-color:#4042E2"/>
					<stop  offset="1" style="stop-color:#4F52FF"/>
				</linearGradient>
				<path class="st8" d="M109.3,558.9c0.2,0,0.4,0,0.6-0.1c0.7-0.4,1-1.2,0.7-1.9c-46.9-96.7-60.7-209-60.8-210.1
					c-0.1-0.8-0.8-1.3-1.6-1.3c-0.8,0.1-1.3,0.8-1.3,1.6c0.1,1.1,13.9,113.8,61.1,211C108.2,558.6,108.8,558.9,109.3,558.9z"/>
				<path class="st9" d="M13,375.8c0.1,0,0.3,0,0.4-0.1c0.3-0.2,0.4-0.7,0.1-1c-14.8-19-31.2-47.6-25.3-75.7
					c3.5-16.7,13.4-25.5,13.5-25.6c0.3-0.3,0.3-0.7,0.1-1s-0.7-0.3-1-0.1c-0.4,0.4-10.4,9.1-14,26.3c-3.3,15.8-1.6,42,25.6,76.8
					C12.6,375.7,12.8,375.8,13,375.8z"/>
				<path class="st9" d="M131.6,534.2c0.2,0,0.4-0.1,0.6-0.3c22.8-33.2,30.6-58.9,23.1-76.3c-6.6-15.5-23.4-18.3-23.5-18.4
					c-0.4-0.1-0.7,0.2-0.8,0.6c-0.1,0.4,0.2,0.7,0.6,0.8c0.1,0,16.2,2.8,22.5,17.6c7.2,17-0.5,42.2-23,75c-0.2,0.3-0.1,0.7,0.2,0.9
					C131.3,534.2,131.5,534.2,131.6,534.2z"/>
			</g>
			<g>
				
					<linearGradient id="SVGID_7_" gradientUnits="userSpaceOnUse" x1="417.4229" y1="797.472" x2="410.5547" y2="933.4597" gradientTransform="matrix(1 0 0 -1 0 1348.36)">
					<stop  offset="0" style="stop-color:#09005D"/>
					<stop  offset="1" style="stop-color:#1A0F91"/>
				</linearGradient>
				<polygon class="st10" points="362.3,442.4 350.9,544.7 483.3,544.7 466.1,442.4 				"/>
				
					<linearGradient id="SVGID_8_" gradientUnits="userSpaceOnUse" x1="606.4915" y1="1172.7354" x2="256.2162" y2="871.8859" gradientTransform="matrix(1 0 0 -1 0 1348.36)">
					<stop  offset="0" style="stop-color:#09005D"/>
					<stop  offset="1" style="stop-color:#1A0F91"/>
				</linearGradient>
				<path class="st11" d="M165.3,199.1c-14.1,0.3-25.2,11.8-25.2,25.8v234.3c0,19.3,15.4,35,34.6,35.5c85.6,2.2,384.9,7.6,466.4,6.4
					c14-0.2,25.4-11.4,25.8-25.4c1.6-54.4,4.1-185.3-5.3-246.1c-2-12.8-12.8-22.4-25.7-22.8C564,204.6,246.7,197.3,165.3,199.1z"/>
				
					<linearGradient id="SVGID_9_" gradientUnits="userSpaceOnUse" x1="241.1823" y1="1183.3765" x2="653.115" y2="735.7434" gradientTransform="matrix(1 0 0 -1 0 1348.36)">
					<stop  offset="0" style="stop-color:#4042E2"/>
					<stop  offset="1" style="stop-color:#4F52FF"/>
				</linearGradient>
				<path class="st12" d="M171,207.9c-8.9-0.2-16.3,6.9-16.3,15.9v222.6c0,11.3,9,20.4,20.3,20.6l454.3,5.6
					c11.2,0.2,20.3-8.8,20.3-20l0.8-220.6c0-8-6.3-14.5-14.3-14.7L171,207.9z"/>
				<path class="st7" d="M653.1,481.8L653.1,481.8l-498.3-8.5c-0.4,0-0.7-0.3-0.7-0.7s0.3-0.7,0.7-0.7l0,0l498.3,8.5
					c0.4,0,0.7,0.3,0.7,0.7S653.4,481.8,653.1,481.8z"/>
				
					<linearGradient id="SVGID_10_" gradientUnits="userSpaceOnUse" x1="369.9364" y1="721.7458" x2="434.4041" y2="822.7453" gradientTransform="matrix(1 0 0 -1 0 1348.36)">
					<stop  offset="0" style="stop-color:#09005D"/>
					<stop  offset="1" style="stop-color:#1A0F91"/>
				</linearGradient>
				<path class="st13" d="M511.8,565.6H318.1c-5.3,0-9.2-3.7-8.2-7.8l2.5-9.8c0.8-2.9,4-5.1,7.8-5.2l186.7-5.8c4-0.1,7.6,2,8.5,5.1
					l4.5,15.7C521.1,561.7,517.1,565.6,511.8,565.6z"/>
				<path class="st7" d="M422.4,545.5c-0.4,0-0.7-0.3-0.7-0.7s0.3-0.7,0.7-0.7l8-0.1l0,0c0.4,0,0.7,0.3,0.7,0.7s-0.3,0.7-0.7,0.7
					L422.4,545.5C422.4,545.5,422.4,545.5,422.4,545.5z"/>
				<path class="st7" d="M317.1,560.3c0,0-0.1,0-0.1,0c-0.4-0.1-0.7-0.4-0.6-0.8l1.1-7.2c0.6-3.9,3.9-6.7,7.8-6.8l84.9-1.2
					c0.4,0,0.7,0.3,0.7,0.7c0,0.4-0.3,0.7-0.7,0.7l-84.9,1.2c-3.2,0-6,2.4-6.5,5.6l-1.1,7.2C317.7,560,317.4,560.3,317.1,560.3z"/>
				<path class="st14" d="M629.6,264.2c0.2,7.1-5.5,13-12.6,13H186c-6.9,0-12.6-5.6-12.6-12.6v-23.2c0-7,5.8-12.7,12.8-12.6
					l430.5,7.8c6.7,0.1,12.1,5.5,12.4,12.2L629.6,264.2z"/>
				<g>
					<g>
						<path class="st5" d="M553.1,337.4h-45c-4.9,0-8.9-4.5-8.9-10.1v-26.2c0-5.6,4-10.1,8.9-10.1h45c4.9,0,8.9,4.5,8.9,10.1v26.2
							C562,332.9,558,337.4,553.1,337.4z M508,295.2c-2.9,0-5.2,2.7-5.2,5.9v26.2c0,3.3,2.3,5.9,5.2,5.9h45c2.9,0,5.2-2.7,5.2-5.9
							v-26.2c0-3.3-2.3-5.9-5.2-5.9H508z"/>
						<path class="st5" d="M553.1,388.9h-45c-4.9,0-8.9-4.5-8.9-10.1v-26.2c0-5.6,4-10.1,8.9-10.1h45c4.9,0,8.9,4.5,8.9,10.1v26.2
							C562,384.3,558,388.9,553.1,388.9z M508,346.7c-2.9,0-5.2,2.7-5.2,5.9v26.2c0,3.3,2.3,5.9,5.2,5.9h45c2.9,0,5.2-2.7,5.2-5.9
							v-26.2c0-3.3-2.3-5.9-5.2-5.9H508z"/>
						<path class="st5" d="M620.5,337.4h-45c-4.9,0-8.9-4.5-8.9-10.1v-26.2c0-5.6,4-10.1,8.9-10.1h45c4.9,0,8.9,4.5,8.9,10.1v26.2
							C629.4,332.9,625.4,337.4,620.5,337.4z M575.4,295.2c-2.9,0-5.2,2.7-5.2,5.9v26.2c0,3.3,2.3,5.9,5.2,5.9h45
							c2.9,0,5.2-2.7,5.2-5.9v-26.2c0-3.3-2.3-5.9-5.2-5.9H575.4z"/>
						<path class="st5" d="M620.5,388.9h-45c-4.9,0-8.9-4.5-8.9-10.1v-26.2c0-5.6,4-10.1,8.9-10.1h45c4.9,0,8.9,4.5,8.9,10.1v26.2
							C629.4,384.3,625.4,388.9,620.5,388.9z M575.4,346.7c-2.9,0-5.2,2.7-5.2,5.9v26.2c0,3.3,2.3,5.9,5.2,5.9h45
							c2.9,0,5.2-2.7,5.2-5.9v-26.2c0-3.3-2.3-5.9-5.2-5.9H575.4z"/>
					</g>
					<g>
						<path class="st5" d="M625.2,408.5H503.3c-2.4,0-4.4-2-4.4-4.4l0,0c0-2.4,2-4.4,4.4-4.4h121.9c2.4,0,4.4,2,4.4,4.4l0,0
							C629.6,406.5,627.6,408.5,625.2,408.5z"/>
						<path class="st5" d="M627.3,424.3H501.2c-1.3,0-2.3-1-2.3-2.3v-4.3c0-1.3,1-2.3,2.3-2.3h126.1c1.3,0,2.3,1,2.3,2.3v4.3
							C629.6,423.3,628.6,424.3,627.3,424.3z"/>
						<path class="st5" d="M625.2,440H503.3c-2.4,0-4.4-2-4.4-4.4l0,0c0-2.4,2-4.4,4.4-4.4h121.9c2.4,0,4.4,2,4.4,4.4l0,0
							C629.6,438.1,627.6,440,625.2,440z"/>
					</g>
				</g>
				<g>
					<g>
						<path class="st5" d="M390.4,337.4h-45c-4.9,0-8.9-4.5-8.9-10.1v-26.2c0-5.6,4-10.1,8.9-10.1h45c4.9,0,8.9,4.5,8.9,10.1v26.2
							C399.3,332.9,395.3,337.4,390.4,337.4z M345.3,295.2c-2.9,0-5.2,2.7-5.2,5.9v26.2c0,3.3,2.3,5.9,5.2,5.9h45
							c2.9,0,5.2-2.7,5.2-5.9v-26.2c0-3.3-2.3-5.9-5.2-5.9H345.3z"/>
						<path class="st5" d="M390.4,388.9h-45c-4.9,0-8.9-4.5-8.9-10.1v-26.2c0-5.6,4-10.1,8.9-10.1h45c4.9,0,8.9,4.5,8.9,10.1v26.2
							C399.3,384.3,395.3,388.9,390.4,388.9z M345.3,346.7c-2.9,0-5.2,2.7-5.2,5.9v26.2c0,3.3,2.3,5.9,5.2,5.9h45
							c2.9,0,5.2-2.7,5.2-5.9v-26.2c0-3.3-2.3-5.9-5.2-5.9H345.3z"/>
						<path class="st5" d="M457.7,337.4h-45c-4.9,0-8.9-4.5-8.9-10.1v-26.2c0-5.6,4-10.1,8.9-10.1h45c4.9,0,8.9,4.5,8.9,10.1v26.2
							C466.7,332.9,462.7,337.4,457.7,337.4z M412.7,295.2c-2.9,0-5.2,2.7-5.2,5.9v26.2c0,3.3,2.3,5.9,5.2,5.9h45
							c2.9,0,5.2-2.7,5.2-5.9v-26.2c0-3.3-2.3-5.9-5.2-5.9H412.7z"/>
						<path class="st5" d="M457.7,388.9h-45c-4.9,0-8.9-4.5-8.9-10.1v-26.2c0-5.6,4-10.1,8.9-10.1h45c4.9,0,8.9,4.5,8.9,10.1v26.2
							C466.7,384.3,462.7,388.9,457.7,388.9z M412.7,346.7c-2.9,0-5.2,2.7-5.2,5.9v26.2c0,3.3,2.3,5.9,5.2,5.9h45
							c2.9,0,5.2-2.7,5.2-5.9v-26.2c0-3.3-2.3-5.9-5.2-5.9H412.7z"/>
					</g>
					<g>
						<path class="st5" d="M462.5,408.5H340.6c-2.4,0-4.4-2-4.4-4.4l0,0c0-2.4,2-4.4,4.4-4.4h121.9c2.4,0,4.4,2,4.4,4.4l0,0
							C466.9,406.5,464.9,408.5,462.5,408.5z"/>
						<path class="st5" d="M464.6,424.3H338.5c-1.3,0-2.3-1-2.3-2.3v-4.3c0-1.3,1-2.3,2.3-2.3h126.1c1.3,0,2.3,1,2.3,2.3v4.3
							C466.9,423.3,465.8,424.3,464.6,424.3z"/>
						<path class="st5" d="M462.5,440H340.6c-2.4,0-4.4-2-4.4-4.4l0,0c0-2.4,2-4.4,4.4-4.4h121.9c2.4,0,4.4,2,4.4,4.4l0,0
							C466.9,438.1,464.9,440,462.5,440z"/>
					</g>
				</g>
				<g>
					<g>
						<path class="st5" d="M227.6,337.4h-45c-4.9,0-8.9-4.5-8.9-10.1v-26.2c0-5.6,4-10.1,8.9-10.1h45c4.9,0,8.9,4.5,8.9,10.1v26.2
							C236.6,332.9,232.6,337.4,227.6,337.4z M182.6,295.2c-2.9,0-5.2,2.7-5.2,5.9v26.2c0,3.3,2.3,5.9,5.2,5.9h45
							c2.9,0,5.2-2.7,5.2-5.9v-26.2c0-3.3-2.3-5.9-5.2-5.9H182.6z"/>
						<path class="st5" d="M227.6,388.9h-45c-4.9,0-8.9-4.5-8.9-10.1v-26.2c0-5.6,4-10.1,8.9-10.1h45c4.9,0,8.9,4.5,8.9,10.1v26.2
							C236.6,384.3,232.6,388.9,227.6,388.9z M182.6,346.7c-2.9,0-5.2,2.7-5.2,5.9v26.2c0,3.3,2.3,5.9,5.2,5.9h45
							c2.9,0,5.2-2.7,5.2-5.9v-26.2c0-3.3-2.3-5.9-5.2-5.9H182.6z"/>
						<path class="st5" d="M295,337.4h-45c-4.9,0-8.9-4.5-8.9-10.1v-26.2c0-5.6,4-10.1,8.9-10.1h45c4.9,0,8.9,4.5,8.9,10.1v26.2
							C304,332.9,300,337.4,295,337.4z M250,295.2c-2.9,0-5.2,2.7-5.2,5.9v26.2c0,3.3,2.3,5.9,5.2,5.9h45c2.9,0,5.2-2.7,5.2-5.9
							v-26.2c0-3.3-2.3-5.9-5.2-5.9H250z"/>
						<path class="st5" d="M295,388.9h-45c-4.9,0-8.9-4.5-8.9-10.1v-26.2c0-5.6,4-10.1,8.9-10.1h45c4.9,0,8.9,4.5,8.9,10.1v26.2
							C304,384.3,300,388.9,295,388.9z M250,346.7c-2.9,0-5.2,2.7-5.2,5.9v26.2c0,3.3,2.3,5.9,5.2,5.9h45c2.9,0,5.2-2.7,5.2-5.9
							v-26.2c0-3.3-2.3-5.9-5.2-5.9H250z"/>
					</g>
					<g>
						<path class="st5" d="M299.8,408.5H177.9c-2.4,0-4.4-2-4.4-4.4l0,0c0-2.4,2-4.4,4.4-4.4h121.9c2.4,0,4.4,2,4.4,4.4l0,0
							C304.2,406.5,302.2,408.5,299.8,408.5z"/>
						<path class="st5" d="M301.9,424.3H175.7c-1.3,0-2.3-1-2.3-2.3v-4.3c0-1.3,1-2.3,2.3-2.3h126.1c1.3,0,2.3,1,2.3,2.3v4.3
							C304.2,423.3,303.2,424.3,301.9,424.3z"/>
						<path class="st5" d="M299.8,440H177.9c-2.4,0-4.4-2-4.4-4.4l0,0c0-2.4,2-4.4,4.4-4.4h121.9c2.4,0,4.4,2,4.4,4.4l0,0
							C304.2,438.1,302.2,440,299.8,440z"/>
					</g>
				</g>
			</g>
			<g>
				
					<linearGradient id="SVGID_11_" gradientUnits="userSpaceOnUse" x1="2133.9509" y1="1157.8563" x2="2350.3374" y2="1473.2994" gradientTransform="matrix(-1 0 0 -1 2330.3792 1348.36)">
					<stop  offset="0" style="stop-color:#FE7062"/>
					<stop  offset="1" style="stop-color:#FF928E"/>
				</linearGradient>
				<path class="st15" d="M226,241.5c-8.9-2.8-23.5-9.2-30.5-22.4c-1.5-2.9,0.1-6.4,3.3-7.2c15.7-3.9,57.7-18.6,53.8-62.9
					c-4.8-54.2-65.6-57.8-104.4-47c-38.8,10.8-58.5,37.4-49.6,78.2c8.5,38.5,82.4,67.3,127,64.2C227.3,244.2,227.6,241.9,226,241.5z
					"/>
				<path class="st16" d="M172.5,213.9c-1.7,0-4.2-0.1-7.3-0.3c-0.8-0.1-1.3-0.8-1.3-1.5c0.1-0.8,0.8-1.3,1.5-1.3
					c5.5,0.5,9.2,0.3,9.3,0.3c0.8,0,1.5,0.5,1.5,1.3c0,0.8-0.5,1.5-1.3,1.5C174.8,213.9,173.9,213.9,172.5,213.9z"/>
				<path class="st16" d="M147.3,210.2c-0.1,0-0.3,0-0.4-0.1c-17.6-5.4-29.5-16.2-34.4-31.2c-6.4-19.4-2.7-33.4,1.6-41.7
					c4.6-9,10.7-13.4,10.9-13.6c0.6-0.4,1.5-0.3,2,0.3c0.4,0.6,0.3,1.5-0.3,2l0,0c-0.1,0-5.8,4.2-10.1,12.7
					c-5.6,11.2-6.1,24.8-1.3,39.5c4.7,14.3,15.6,24.2,32.5,29.4c0.7,0.2,1.2,1,0.9,1.7C148.4,209.9,147.9,210.2,147.3,210.2z"/>
				<g class="st17">
					<path class="st18" d="M144.1,135.9h90.4c1.9,0,3.5-1.6,3.5-3.5l0,0c0-1.9-1.6-3.5-3.5-3.5h-90.4c-1.9,0-3.5,1.6-3.5,3.5l0,0
						C140.6,134.3,142.1,135.9,144.1,135.9z"/>
					<path class="st19" d="M133.2,149.6h90.4c1.9,0,3.5-1.6,3.5-3.5l0,0c0-1.9-1.6-3.5-3.5-3.5h-90.4c-1.9,0-3.5,1.6-3.5,3.5l0,0
						C129.7,148,131.3,149.6,133.2,149.6z"/>
					<path class="st19" d="M158.9,177h64.7c1.9,0,3.5-1.6,3.5-3.5l0,0c0-1.9-1.6-3.5-3.5-3.5h-64.7c-1.9,0-3.5,1.6-3.5,3.5l0,0
						C155.4,175.4,157,177,158.9,177z"/>
					<path class="st18" d="M123.1,163.3h90.4c1.9,0,3.5-1.6,3.5-3.5l0,0c0-1.9-1.6-3.5-3.5-3.5h-90.4c-1.9,0-3.5,1.6-3.5,3.5l0,0
						C119.6,161.7,121.1,163.3,123.1,163.3z"/>
				</g>
			</g>
			<g>
				<path class="st14" d="M557.1,554.8c0,4.1,3.3,7.4,7.4,7.4h129.1c4.1,0,7.4-3.3,7.4-7.4V361.3c0-4.1-3.3-7.4-7.4-7.4l-130.2-0.4
					c-4.1,0-7.5,3.3-7.5,7.5L557.1,554.8z"/>
				<path class="st7" d="M563.2,370.8c-0.1-4.3,3.4-7.7,7.6-7.7l115.5,0.7c4.2,0,7.6,3.4,7.5,7.6L693.1,545c0,4.1-3.3,7.4-7.4,7.5
					l-112.2,2c-4.2,0.1-7.6-3.3-7.7-7.4L563.2,370.8z"/>
				<path class="st14" d="M575.6,372.8v0.8c0,1.2,1,2.3,2.3,2.3h89c1.2,0,2.3-1,2.3-2.3v-0.8c0-1.2-1-2.3-2.3-2.3h-89
					C576.6,370.5,575.6,371.6,575.6,372.8z"/>
				<path class="st14" d="M585.5,382.8L585.5,382.8c0.1,1.2,1,2.1,2.2,2.1l77.8,1.4c1.3,0,2.3-1,2.3-2.3v-0.2c0-1.2-1-2.3-2.2-2.3
					l-77.8-1.2C586.5,380.4,585.4,381.5,585.5,382.8z"/>
				<g>
					<path class="st14" d="M577.6,549c-3.7,0-6.7-3-6.8-6.6l-2.5-142c-0.1-3.7,2.9-6.8,6.6-6.9l105.1-2c1.8,0,3.5,0.7,4.8,1.9
						c1.3,1.3,2,2.9,2.1,4.8l2.7,142.8c0,1.8-0.7,3.6-1.9,4.8c-1.3,1.3-3,2-4.8,2.1L577.6,549C577.6,549,577.6,549,577.6,549z
						 M574.9,394.8l0,1.4c-2.2,0-3.9,1.9-3.9,4l2.5,142c0,2.1,1.8,3.9,4,3.9h0l105.2-1.3c1.1,0,2.1-0.4,2.8-1.2s1.1-1.8,1.1-2.8
						L684,398.1c0-1.1-0.4-2-1.2-2.8c-0.8-0.7-1.8-1.1-2.8-1.1l-105.1,2V394.8z"/>
				</g>
				<path class="st14" d="M685.6,408.5H571c-0.8,0-1.4-0.6-1.4-1.4c0-0.8,0.6-1.4,1.4-1.4h114.6c0.8,0,1.4,0.6,1.4,1.4
					C687,407.8,686.4,408.5,685.6,408.5z"/>
			</g>
			<g>
				
					<linearGradient id="SVGID_12_" gradientUnits="userSpaceOnUse" x1="238.7466" y1="783.4584" x2="284.9482" y2="972.5635" gradientTransform="matrix(1 0 0 -1 0 1348.36)">
					<stop  offset="0" style="stop-color:#020039"/>
					<stop  offset="1" style="stop-color:#090056"/>
				</linearGradient>
				<path class="st20" d="M210.8,417.2c-0.5,24.2-2.2,107.7-1.4,137.3c0.1,3.1,2.2,5.7,4.9,5.7c13.3,0.5,61.8,1.8,83.5,0.7
					c4.5-0.2,8.1-4.5,8.2-9.8c0.4-25.4,1.5-96.8-0.9-129.6c-0.3-3.9-2.9-7-6.2-7.4c-14.4-1.7-63.2-5.8-81.9-4.4
					C213.6,410,210.9,413.2,210.8,417.2z"/>
				
					<linearGradient id="SVGID_13_" gradientUnits="userSpaceOnUse" x1="283.1073" y1="901.6747" x2="82.4792" y2="645.022" gradientTransform="matrix(1 0 0 -1 0 1348.36)">
					<stop  offset="0" style="stop-color:#FE7062"/>
					<stop  offset="1" style="stop-color:#FF928E"/>
				</linearGradient>
				<path class="st21" d="M216.7,424.6c-0.7,19.5-3,84.5-2.3,108.5c0.1,3.5,2.5,6.4,5.5,6.6c12.4,0.8,54.5,2.7,72.6,1
					c3.3-0.3,5.8-3.4,6-7.2c0.9-19.9,3.6-80.4,2.9-104.2c-0.1-3.8-2.6-6.9-5.8-7.2c-13.4-1.4-58.1-4.8-73.5-3.7
					C219.2,418.5,216.9,421.2,216.7,424.6z"/>
				<path class="st22" d="M250.4,558.2c-3.4,0-6.1-3.2-6.1-7c0-3.9,2.8-7,6.1-7c3.4,0,6.1,3.2,6.1,7
					C256.5,555.1,253.8,558.2,250.4,558.2z M250.4,545.6c-2.6,0-4.8,2.5-4.8,5.7c0,3.1,2.1,5.7,4.8,5.7c2.6,0,4.8-2.5,4.8-5.7
					C255.1,548.1,253,545.6,250.4,545.6z"/>
				<path class="st23" d="M243.6,414L243.6,414c0,0.7,0.5,1.3,1.1,1.4c3.1,0.2,12,0.7,15.9,1c0.8,0,1.4-0.8,1.2-1.7l0-0.1
					c-0.1-0.6-0.5-1.1-1.1-1.1c-2.7-0.3-10.7-1.1-16-0.9C244.1,412.6,243.6,413.2,243.6,414z"/>
				<path class="st18" d="M277.3,479.8l-18.1-39.6c-0.5-1.1-2-1.1-2.5,0l-18.1,39.6c-0.4,0.9,0.3,1.9,1.2,1.9h5.8
					c0.8,0,1.4,0.6,1.4,1.4v42.5c0,0.8,0.6,1.4,1.4,1.4h19c0.8,0,1.4-0.6,1.4-1.4v-42.5c0-0.8,0.6-1.4,1.4-1.4h5.8
					C277,481.7,277.7,480.7,277.3,479.8z"/>
			</g>
			<g>
				<g>
					
						<linearGradient id="SVGID_14_" gradientUnits="userSpaceOnUse" x1="615.8618" y1="1612.4447" x2="598.4476" y2="1576.5503" gradientTransform="matrix(0.987 0.1608 0.1608 -0.987 -236.9521 1714.4243)">
						<stop  offset="0" style="stop-color:#09005D"/>
						<stop  offset="1" style="stop-color:#1A0F91"/>
					</linearGradient>
					<path class="st24" d="M596.7,252.2c-0.1,0.2-5.7,4.3-5.7,4.3s1.2,8.9,6.2,12.4c5.5,3.9,13.3-3.2,13.3-3.2s6.2,1.5,9.5-11.4
						c0.8-3-3.6-3.2-8.9-2.7C604.4,252.2,596.7,252.2,596.7,252.2z"/>
					
						<linearGradient id="SVGID_15_" gradientUnits="userSpaceOnUse" x1="605.1285" y1="1053.5038" x2="610.6714" y2="885.8309" gradientTransform="matrix(1 0 0 -1 0 1348.36)">
						<stop  offset="0" style="stop-color:#FE7062"/>
						<stop  offset="1" style="stop-color:#FF928E"/>
					</linearGradient>
					<path class="st25" d="M586.3,282.4c2.2-1.5,4.6-2.7,7.2-3.3c1-0.3,6.2,1.2,9.4,1.2c4.4-0.1,8.9-2.1,12.6-1.2
						c3.6,0.9,6.6,2.1,8.3,3.3c5.1,3.6,8.1,10.4,10,17.1c-3.5,3.6-7.8,5.2-7.8,5.2l-0.8,32.7l-19.3,9.9l-22.1-11.1l0.8-31.9
						c0,0-7-3.3-7.5-4.4C576.4,298.5,580.1,286.6,586.3,282.4z"/>
					
						<linearGradient id="SVGID_16_" gradientUnits="userSpaceOnUse" x1="572.4245" y1="1055.8062" x2="609.1495" y2="967.0938" gradientTransform="matrix(1 0 0 -1 0 1348.36)">
						<stop  offset="0" style="stop-color:#FF928E"/>
						<stop  offset="1" style="stop-color:#FEB3B1"/>
					</linearGradient>
					<path class="st26" d="M577.2,299.6c0,0-9.4,26,12,36.7c4.4-0.6,2.7-8,2.7-8s-9.3-2.1-6.5-23.8
						C582.9,302.4,577.2,299.6,577.2,299.6z"/>
					
						<linearGradient id="SVGID_17_" gradientUnits="userSpaceOnUse" x1="-5277.1826" y1="1055.9893" x2="-5240.4575" y2="967.2769" gradientTransform="matrix(-1 0 0 -1 -4639.6343 1348.36)">
						<stop  offset="0" style="stop-color:#FF928E"/>
						<stop  offset="1" style="stop-color:#FEB3B1"/>
					</linearGradient>
					<path class="st27" d="M633.2,299.6c0,0,6.5,27.2-12,36.7c-4.4-0.6-2.7-8-2.7-8s7.5-3.7,6.5-23.8
						C627.5,302.4,633.2,299.6,633.2,299.6z"/>
					<path class="st7" d="M622.8,338.1h-36.5c-1.6,0-3-1.3-3-3v-22.7c0-1.6,1.3-3,3-3h36.5c1.6,0,3,1.3,3,3v22.7
						C625.8,336.8,624.4,338.1,622.8,338.1z"/>
					<g>
						
							<linearGradient id="SVGID_18_" gradientUnits="userSpaceOnUse" x1="626.9802" y1="1021.2924" x2="647.0492" y2="1021.2924" gradientTransform="matrix(1 7.700000e-03 7.700000e-03 -1 -7.7555 1366.993)">
							<stop  offset="0" style="stop-color:#09005D"/>
							<stop  offset="1" style="stop-color:#1A0F91"/>
						</linearGradient>
						<path class="st28" d="M644.3,346.6c-4.9-1.1-16.1-0.5-16.1-0.5l-0.5,1.2l-0.8,6.1c0,0,10.7,1.9,15.9,1.9c0.5,0,1-0.1,1.5-0.2
							c0.1-0.1,0.3-0.3,0.5-0.5C647.2,352.2,646.5,348.7,644.3,346.6z"/>
						
							<linearGradient id="SVGID_19_" gradientUnits="userSpaceOnUse" x1="644.3367" y1="997.4727" x2="647.6654" y2="997.4727" gradientTransform="matrix(1 0 0 -1 0 1348.36)">
							<stop  offset="0" style="stop-color:#FE7062"/>
							<stop  offset="1" style="stop-color:#FF928E"/>
						</linearGradient>
						<path class="st29" d="M644.8,346.7c-0.1,0-0.3-0.1-0.5-0.1c2.2,2.1,2.8,5.7,0.6,8.1c-0.1,0.1-0.3,0.3-0.5,0.5
							C648.4,353.9,648.9,347.8,644.8,346.7z"/>
						
							<linearGradient id="SVGID_20_" gradientUnits="userSpaceOnUse" x1="640.3439" y1="1034.0011" x2="619.1599" y2="976.6219" gradientTransform="matrix(1 0 0 -1 0 1348.36)">
							<stop  offset="0" style="stop-color:#FF928E"/>
							<stop  offset="1" style="stop-color:#FEB3B1"/>
						</linearGradient>
						<path class="st30" d="M625.1,345.7l1.9,0.1c1,0,2,0.5,2.7,1.4c0.7,0.8,1.1,2,1,3.1c0,0.9-0.4,1.7-1,2.3
							c-0.6,0.6-1.4,0.9-2.2,0.8l-2.9-0.2L625.1,345.7z"/>
						<g>
							
								<linearGradient id="SVGID_21_" gradientUnits="userSpaceOnUse" x1="649.5562" y1="1021.7744" x2="631.9319" y2="1021.986" gradientTransform="matrix(1 7.700000e-03 7.700000e-03 -1 -7.7555 1366.993)">
								<stop  offset="0" style="stop-color:#FE7062"/>
								<stop  offset="1" style="stop-color:#FF928E"/>
							</linearGradient>
							<path class="st31" d="M635.2,352.2c-0.1,0-0.2-0.1-0.3-0.2c-0.5-1.9-2.4-3.9-2.4-3.9c-0.1-0.1-0.1-0.3,0-0.4s0.3-0.1,0.4,0
								c0.1,0.1,2,2.1,2.5,4.2c0,0.2,0,0.3-0.2,0.4C635.3,352.2,635.2,352.2,635.2,352.2z"/>
							
								<linearGradient id="SVGID_22_" gradientUnits="userSpaceOnUse" x1="649.4835" y1="1021.9057" x2="631.9429" y2="1022.1162" gradientTransform="matrix(1 7.700000e-03 7.700000e-03 -1 -7.7555 1366.993)">
								<stop  offset="0" style="stop-color:#FE7062"/>
								<stop  offset="1" style="stop-color:#FF928E"/>
							</linearGradient>
							<path class="st32" d="M632.7,352.1C632.6,352.1,632.6,352.1,632.7,352.1c-0.2,0-0.3-0.2-0.3-0.4c0.6-2.3,3-4.1,3.1-4.1
								c0.1-0.1,0.3-0.1,0.4,0.1c0.1,0.1,0,0.3-0.1,0.4c0,0-2.3,1.7-2.9,3.8C632.9,352,632.8,352.1,632.7,352.1z"/>
							
								<linearGradient id="SVGID_23_" gradientUnits="userSpaceOnUse" x1="643.3814" y1="1160.8695" x2="625.6407" y2="1161.0824" gradientTransform="matrix(0.9984 5.640000e-02 5.640000e-02 -0.9984 -58.1313 1473.599)">
								<stop  offset="0" style="stop-color:#FE7062"/>
								<stop  offset="1" style="stop-color:#FF928E"/>
							</linearGradient>
							<path class="st33" d="M640.4,352.6c-0.1,0-0.3-0.1-0.3-0.3c-0.4-2-2.2-4-2.2-4c-0.1-0.1-0.1-0.3,0-0.4s0.3-0.1,0.4,0
								c0.1,0.1,1.9,2.2,2.4,4.3C640.7,352.3,640.6,352.5,640.4,352.6C640.4,352.6,640.4,352.6,640.4,352.6z"/>
							
								<linearGradient id="SVGID_24_" gradientUnits="userSpaceOnUse" x1="643.2142" y1="1161.0234" x2="625.7605" y2="1161.2329" gradientTransform="matrix(0.9984 5.640000e-02 5.640000e-02 -0.9984 -58.1313 1473.599)">
								<stop  offset="0" style="stop-color:#FE7062"/>
								<stop  offset="1" style="stop-color:#FF928E"/>
							</linearGradient>
							<path class="st34" d="M637.8,352.2c0,0-0.1,0-0.1,0c-0.1-0.1-0.2-0.3-0.2-0.4c0.7-2.2,3.2-3.9,3.3-4c0.1-0.1,0.3,0,0.4,0.1
								c0.1,0.1,0,0.3-0.1,0.4c0,0-2.4,1.6-3.1,3.6C638,352.2,637.9,352.2,637.8,352.2z"/>
						</g>
					</g>
					<g>
						
							<linearGradient id="SVGID_25_" gradientUnits="userSpaceOnUse" x1="-5889.7549" y1="1059.9382" x2="-5869.6772" y2="1059.9382" gradientTransform="matrix(-0.9998 -2.000000e-02 2.000000e-02 -0.9998 -5331.3926 1292.3459)">
							<stop  offset="0" style="stop-color:#09005D"/>
							<stop  offset="1" style="stop-color:#1A0F91"/>
						</linearGradient>
						<path class="st35" d="M561.2,346c4.9-1,16.1,0,16.1,0l0.4,1.2l0.6,6.2c0,0-10.7,1.6-16,1.4c-0.5,0-1-0.1-1.5-0.3
							c-0.1-0.1-0.3-0.3-0.4-0.5C558.3,351.6,559,348,561.2,346z"/>
						
							<linearGradient id="SVGID_26_" gradientUnits="userSpaceOnUse" x1="557.8013" y1="998.1084" x2="561.2311" y2="998.1084" gradientTransform="matrix(1 0 0 -1 0 1348.36)">
							<stop  offset="0" style="stop-color:#FE7062"/>
							<stop  offset="1" style="stop-color:#FF928E"/>
						</linearGradient>
						<path class="st36" d="M560.7,346.1c0.1,0,0.3-0.1,0.5-0.1c-2.3,2-3,5.6-0.8,8.1c0.1,0.2,0.3,0.3,0.4,0.5
							C557,353.2,556.6,347.1,560.7,346.1z"/>
						
							<linearGradient id="SVGID_27_" gradientUnits="userSpaceOnUse" x1="597.9401" y1="1051.2787" x2="576.7448" y2="993.8686" gradientTransform="matrix(1 0 0 -1 0 1348.36)">
							<stop  offset="0" style="stop-color:#FF928E"/>
							<stop  offset="1" style="stop-color:#FEB3B1"/>
						</linearGradient>
						<path class="st37" d="M580.5,345.7l-1.9,0c-1,0-2,0.5-2.7,1.3c-0.7,0.8-1.1,1.9-1.1,3.1c0,0.9,0.4,1.7,1,2.4
							c0.6,0.6,1.4,0.9,2.2,0.9l2.9-0.1L580.5,345.7z"/>
						<g>
							
								<linearGradient id="SVGID_28_" gradientUnits="userSpaceOnUse" x1="-5867.2236" y1="1060.3961" x2="-5884.7856" y2="1060.6069" gradientTransform="matrix(-0.9998 -2.000000e-02 2.000000e-02 -0.9998 -5331.3926 1292.3459)">
								<stop  offset="0" style="stop-color:#FE7062"/>
								<stop  offset="1" style="stop-color:#FF928E"/>
							</linearGradient>
							<path class="st38" d="M570.2,351.9c0.1,0,0.3-0.1,0.3-0.2c0.5-1.9,2.5-3.8,2.5-3.9c0.1-0.1,0.1-0.3,0-0.4
								c-0.1-0.1-0.3-0.1-0.4,0c-0.1,0.1-2.1,2-2.7,4.1C569.9,351.7,570,351.8,570.2,351.9C570.1,351.9,570.2,351.9,570.2,351.9z"/>
							
								<linearGradient id="SVGID_29_" gradientUnits="userSpaceOnUse" x1="-5867.1914" y1="1060.5323" x2="-5884.7881" y2="1060.7434" gradientTransform="matrix(-0.9998 -2.000000e-02 2.000000e-02 -0.9998 -5331.3926 1292.3459)">
								<stop  offset="0" style="stop-color:#FE7062"/>
								<stop  offset="1" style="stop-color:#FF928E"/>
							</linearGradient>
							<path class="st39" d="M572.8,351.8C572.8,351.8,572.8,351.8,572.8,351.8c0.2,0,0.3-0.2,0.3-0.4c-0.6-2.3-2.9-4.1-3-4.2
								c-0.1-0.1-0.3-0.1-0.4,0.1c-0.1,0.1-0.1,0.3,0.1,0.4c0,0,2.3,1.8,2.8,3.9C572.5,351.8,572.6,351.8,572.8,351.8z"/>
							
								<linearGradient id="SVGID_30_" gradientUnits="userSpaceOnUse" x1="-5867.2563" y1="882.4572" x2="-5884.9312" y2="882.6693" gradientTransform="matrix(-0.9996 2.880000e-02 -2.880000e-02 -0.9996 -5283.6885 1401.2391)">
								<stop  offset="0" style="stop-color:#FE7062"/>
								<stop  offset="1" style="stop-color:#FF928E"/>
							</linearGradient>
							<path class="st40" d="M565.1,352.1c0.1,0,0.3-0.1,0.3-0.2c0.4-2,2.3-4,2.3-4c0.1-0.1,0.1-0.3,0-0.4s-0.3-0.1-0.4,0
								c-0.1,0.1-2,2.1-2.5,4.3C564.8,351.9,564.8,352,565.1,352.1C565,352.1,565,352.1,565.1,352.1z"/>
							
								<linearGradient id="SVGID_31_" gradientUnits="userSpaceOnUse" x1="-5867.3569" y1="882.5873" x2="-5884.8584" y2="882.7973" gradientTransform="matrix(-0.9996 2.880000e-02 -2.880000e-02 -0.9996 -5283.6885 1401.2391)">
								<stop  offset="0" style="stop-color:#FE7062"/>
								<stop  offset="1" style="stop-color:#FF928E"/>
							</linearGradient>
							<path class="st41" d="M567.6,351.9c0,0,0.1,0,0.1,0c0.1-0.1,0.2-0.2,0.2-0.4c-0.7-2.3-3.1-4-3.2-4.1c-0.1-0.1-0.3,0-0.4,0.1
								c-0.1,0.1,0,0.3,0.1,0.4c0,0,2.4,1.7,3,3.7C567.4,351.8,567.5,351.9,567.6,351.9z"/>
						</g>
					</g>
					
						<linearGradient id="SVGID_32_" gradientUnits="userSpaceOnUse" x1="649.3151" y1="1035.1106" x2="594.2468" y2="993.7435" gradientTransform="matrix(1 0 0 -1 0 1348.36)">
						<stop  offset="0" style="stop-color:#09005D"/>
						<stop  offset="1" style="stop-color:#1A0F91"/>
					</linearGradient>
					<path class="st42" d="M645.7,327.3c-2.2-5-7.6-5.9-12.2-3.5c-0.1,0.1-29.1,15-54.6,21.5c0.7,2.4,1.1,4.8,1.2,7.3
						c0,0.5,0,1.1,0,1.6c19.6-1,40.9-7.6,59.2-13.3C644.9,339.1,648.1,332.9,645.7,327.3z"/>
					
						<linearGradient id="SVGID_33_" gradientUnits="userSpaceOnUse" x1="599.5317" y1="998.0157" x2="585.0984" y2="1034.8207" gradientTransform="matrix(1 0 0 -1 0 1348.36)">
						<stop  offset="0" style="stop-color:#09005D"/>
						<stop  offset="1" style="stop-color:#1A0F91"/>
					</linearGradient>
					<path class="st43" d="M625.2,353c-0.1-2.8,0.5-5.4,1.6-7.9c0-0.1,0.1-0.2,0.1-0.3c-1.5-0.4-3.3-1.1-5.8-1.9
						c-18.2-6.2-32-12.5-45.2-19.7c-5.1-2.8-11-0.9-12.6,5.2c-1.5,5.4,1.7,10.1,6.6,11.7c14.6,4.9,7,3.5,11.8,5
						c12.8,4,28.8,7.6,43.5,8.6C625.2,353.4,625.2,353.2,625.2,353z"/>
					
						<linearGradient id="SVGID_34_" gradientUnits="userSpaceOnUse" x1="604.4522" y1="1074.0662" x2="604.4522" y2="1046.3716" gradientTransform="matrix(1 0 0 -1 0 1348.36)">
						<stop  offset="0" style="stop-color:#FF928E"/>
						<stop  offset="1" style="stop-color:#FEB3B1"/>
					</linearGradient>
					<path class="st44" d="M593.5,279c0,0,2,8.5,11.4,8.3c9.7-0.2,10.5-8.3,10.5-8.3l-6.3-1.3l-0.5-7l-9.5,0.7l-0.2,6.7L593.5,279z"
						/>
					
						<linearGradient id="SVGID_35_" gradientUnits="userSpaceOnUse" x1="603.8607" y1="1097.5358" x2="608.1581" y2="1071.5125" gradientTransform="matrix(1 0 0 -1 0 1348.36)">
						<stop  offset="0" style="stop-color:#FF928E"/>
						<stop  offset="1" style="stop-color:#FEB3B1"/>
					</linearGradient>
					<path class="st45" d="M600.4,250.7c0,0-10.9,21.1,2,26.2c9.1,3.6,14.8-14,13.1-18.7c-2.6-7.4-4.4-6.5-4.4-6.5L600.4,250.7z"/>
					
						<linearGradient id="SVGID_36_" gradientUnits="userSpaceOnUse" x1="615.9998" y1="1617.4913" x2="596.4051" y2="1577.1024" gradientTransform="matrix(0.987 0.1608 0.1608 -0.987 -236.9521 1714.4243)">
						<stop  offset="0" style="stop-color:#09005D"/>
						<stop  offset="1" style="stop-color:#1A0F91"/>
					</linearGradient>
					<path class="st46" d="M618.2,248.8c5.4,1.5,0.8,13.1-7.3,10.4c-8.1-2.8-11.3-2.7-12.5-0.5c-1.3,2.2-1.5,10.1-4.3,6.2
						c-3-4.3-4.7-12.9-1-15.6c3.3-2.5,4.1-6.3,8-6.2c5.2,0.2,9.3-2.1,11.6-0.5C615.4,244.5,614.2,247.7,618.2,248.8z"/>
					
						<linearGradient id="SVGID_37_" gradientUnits="userSpaceOnUse" x1="594.9073" y1="1096.0573" x2="599.2048" y2="1070.0341" gradientTransform="matrix(1 0 0 -1 0 1348.36)">
						<stop  offset="0" style="stop-color:#FF928E"/>
						<stop  offset="1" style="stop-color:#FEB3B1"/>
					</linearGradient>
					<path class="st47" d="M597.8,260.5c0,0-2.3-2.5-2.7,0.5s0.8,6.9,2.2,4.8S597.8,260.5,597.8,260.5z"/>
				</g>
				<path class="st5" d="M607,317.2c0.2,1.5-0.6,2.9-2.1,3.1c-1.5,0.2-2.9-0.8-3.2-2.3c-0.2-1.5,0.5-3,2-3.2
					C605.3,314.5,606.8,315.7,607,317.2z"/>
			</g>
			<g>
				
					<linearGradient id="SVGID_38_" gradientUnits="userSpaceOnUse" x1="627.9812" y1="839.4934" x2="622.1574" y2="801.0563" gradientTransform="matrix(1 0 0 -1 0 1348.36)">
					<stop  offset="0" style="stop-color:#09005D"/>
					<stop  offset="1" style="stop-color:#1A0F91"/>
				</linearGradient>
				<path class="st48" d="M641.4,511.8c0-0.6-0.7-1.2-1.8-1.6c1.2-0.7,1.8-1.3,1.8-2c-0.2-2.1-6.7-3.2-14.6-2.6
					c-7.9,0.7-14.2,2.8-14,4.9c0,0.6,0.7,1.2,1.8,1.6c-1.2,0.7-1.8,1.3-1.8,2c0,0.6,0.7,1.2,1.8,1.6c-1.2,0.7-1.8,1.3-1.8,2
					c0,0.6,0.7,1.2,1.8,1.6c-1.2,0.7-1.8,1.3-1.8,2c0.1,0.9,1.4,1.6,3.5,2.1c0,0.7,0,1.4,0,2.3c0.3,3.8,4.6,6.8,10.3,6.8
					c5.7,0,10.6-4.1,10.6-7.9c0-0.9,0-1.8-0.1-2.5c2.7-0.9,4.4-2,4.3-3.1c0-0.6-0.7-1.2-1.8-1.6c1.2-0.7,1.8-1.3,1.8-2
					c0-0.6-0.7-1.2-1.8-1.6C640.8,513.2,641.5,512.5,641.4,511.8z"/>
				<g>
					
						<linearGradient id="SVGID_39_" gradientUnits="userSpaceOnUse" x1="625.6565" y1="822.1928" x2="613.2344" y2="776.9409" gradientTransform="matrix(1 0 0 -1 0 1348.36)">
						<stop  offset="0" style="stop-color:#4042E2"/>
						<stop  offset="1" style="stop-color:#4F52FF"/>
					</linearGradient>
					<path class="st49" d="M623.1,524.4c-2.4,0-4.5-0.2-6.3-0.5c-0.1,0-0.2-0.1-0.1-0.2c0-0.1,0.1-0.2,0.2-0.1
						c2.8,0.5,6.5,0.7,10.5,0.3c3.2-0.3,6.3-0.8,8.8-1.5c0.1,0,0.2,0,0.2,0.1c0,0.1,0,0.2-0.1,0.2c-2.5,0.7-5.6,1.3-8.9,1.5
						C625.9,524.3,624.5,524.4,623.1,524.4z"/>
					
						<linearGradient id="SVGID_40_" gradientUnits="userSpaceOnUse" x1="625.2221" y1="822.3121" x2="612.8002" y2="777.0605" gradientTransform="matrix(1 0 0 -1 0 1348.36)">
						<stop  offset="0" style="stop-color:#4042E2"/>
						<stop  offset="1" style="stop-color:#4F52FF"/>
					</linearGradient>
					<path class="st50" d="M623.2,520.7c-3.1,0-5.8-0.3-7.7-0.8c-0.1,0-0.1-0.1-0.1-0.2c0-0.1,0.1-0.1,0.2-0.1
						c2.8,0.8,7.2,1,11.8,0.7c4.6-0.4,8.9-1.3,11.5-2.5c0.1,0,0.2,0,0.3,0.1s0,0.2-0.1,0.3c-2.6,1.2-7,2.1-11.6,2.5
						C625.9,520.6,624.5,520.7,623.2,520.7z"/>
					
						<linearGradient id="SVGID_41_" gradientUnits="userSpaceOnUse" x1="624.0518" y1="822.6333" x2="611.6297" y2="777.3813" gradientTransform="matrix(1 0 0 -1 0 1348.36)">
						<stop  offset="0" style="stop-color:#4042E2"/>
						<stop  offset="1" style="stop-color:#4F52FF"/>
					</linearGradient>
					<path class="st51" d="M623.1,517.1c-3.3,0-6.2-0.3-8.1-1c-0.1,0-0.1-0.1-0.1-0.3c0-0.1,0.1-0.1,0.3-0.1
						c2.7,0.9,7.3,1.2,12.2,0.8c4.6-0.4,8.9-1.3,11.5-2.5c0.1,0,0.2,0,0.3,0.1c0,0.1,0,0.2-0.1,0.3c-2.6,1.2-7,2.1-11.6,2.5
						C625.9,517,624.5,517.1,623.1,517.1z"/>
					
						<linearGradient id="SVGID_42_" gradientUnits="userSpaceOnUse" x1="623.7882" y1="822.7056" x2="611.3661" y2="777.4536" gradientTransform="matrix(1 0 0 -1 0 1348.36)">
						<stop  offset="0" style="stop-color:#4042E2"/>
						<stop  offset="1" style="stop-color:#4F52FF"/>
					</linearGradient>
					<path class="st52" d="M623.1,513.5c-2.6,0-5-0.2-6.8-0.6c-0.1,0-0.2-0.1-0.1-0.2c0-0.1,0.1-0.2,0.2-0.1c2.8,0.6,6.8,0.8,11,0.4
						c4.6-0.4,8.8-1.3,11.4-2.5c0.1,0,0.2,0,0.3,0.1c0,0.1,0,0.2-0.1,0.3c-2.6,1.2-6.9,2.1-11.6,2.5
						C625.9,513.4,624.5,513.5,623.1,513.5z"/>
				</g>
				
					<linearGradient id="SVGID_43_" gradientUnits="userSpaceOnUse" x1="628.7858" y1="928.4323" x2="623.9514" y2="837.1166" gradientTransform="matrix(1 0 0 -1 0 1348.36)">
					<stop  offset="0" style="stop-color:#FE7062"/>
					<stop  offset="1" style="stop-color:#FF928E"/>
				</linearGradient>
				<path class="st53" d="M607.4,493.4c-0.9-3.4-2.6-6.6-4.8-9.4c-4.7-6-12.4-18-13.3-34.5c-1.4-24,19.9-36,39.3-34.4
					c19.4,1.6,38.5,16.1,36.5,38.4c-1.3,13.7-9,24.1-14.7,30.1c-3.6,3.8-6.2,8.5-7.6,13.5c-1.7,6.2-5.8,13.9-15.5,14.4
					C614.6,512.3,609.4,500.5,607.4,493.4z"/>
				
					<linearGradient id="SVGID_44_" gradientUnits="userSpaceOnUse" x1="634.3043" y1="873.0091" x2="637.0929" y2="784.4066" gradientTransform="matrix(1 0 0 -1 0 1348.36)">
					<stop  offset="0" style="stop-color:#E1473D"/>
					<stop  offset="1" style="stop-color:#E9605A"/>
				</linearGradient>
				<path class="st54" d="M630.4,506.8l6.8-44.2c0.1-0.9,0.6-1.5,1-1.4c0.4,0.1,0.6,1,0.5,1.9c0,0,0,0,0,0.1L631,507
					c-0.1,0.3-0.2,0.5-0.4,0.5C630.4,507.5,630.4,507.2,630.4,506.8z"/>
				
					<linearGradient id="SVGID_45_" gradientUnits="userSpaceOnUse" x1="618.9316" y1="872.5252" x2="621.7203" y2="783.9226" gradientTransform="matrix(1 0 0 -1 0 1348.36)">
					<stop  offset="0" style="stop-color:#E1473D"/>
					<stop  offset="1" style="stop-color:#E9605A"/>
				</linearGradient>
				<path class="st55" d="M623.4,507.2l-6.8-44.2c-0.1-0.9-0.6-1.5-1-1.4c-0.4,0.1-0.6,1-0.5,1.9c0,0,0,0,0,0.1l7.7,43.7
					c0.1,0.3,0.2,0.5,0.4,0.5C623.4,507.8,623.4,507.5,623.4,507.2z"/>
				<path class="st16" d="M637.2,458.9c-0.2-0.3-0.6-0.4-0.9-0.2l-3.8,1.8l-1.3-3.7c-0.1-0.2-0.2-0.4-0.5-0.5
					c-0.4-0.2-0.9,0-1.2,0.4l0,0l-3.1,5.7l-2.9-8.1l0,0c-0.1-0.2-0.2-0.4-0.4-0.5c-0.5-0.3-1.1-0.1-1.4,0.3l-4.4,6
					c-0.2,0.3-0.1,0.6,0.1,0.8c0.3,0.2,0.7,0.1,0.9-0.1l3.8-4.3l3.5,7.7l0,0c0.1,0.1,0.1,0.2,0.3,0.3c0.3,0.1,0.7,0,0.9-0.2l3.3-5.3
					l1.2,2.7v0c0,0,0,0,0,0.1c0.2,0.3,0.6,0.4,0.9,0.2l4.5-2.1C637.2,459.5,637.3,459.2,637.2,458.9z"/>
				<path class="st16" d="M650.5,478.2c-0.2,0-0.4-0.1-0.6-0.2c-0.5-0.4-0.6-1-0.2-1.5c1.2-1.6,2.2-3.2,3.1-4.8
					c0.3-0.5,0.9-0.7,1.5-0.4c0.5,0.3,0.7,0.9,0.4,1.5c-1,1.7-2.1,3.3-3.3,5C651.2,478.1,650.8,478.2,650.5,478.2z"/>
				<path class="st16" d="M656.1,468.7c-0.1,0-0.3,0-0.4-0.1c-0.5-0.2-0.8-0.9-0.5-1.4c7.2-16.5,1-30.2,0.9-30.4
					c-0.3-0.5,0-1.2,0.5-1.4c0.5-0.3,1.2,0,1.4,0.5c0.3,0.6,6.6,14.8-0.9,32.1C656.9,468.4,656.5,468.7,656.1,468.7z"/>
			</g>
			<g>
				<g>
					<g>
						
							<linearGradient id="SVGID_46_" gradientUnits="userSpaceOnUse" x1="1220.6677" y1="783.2223" x2="1243.8795" y2="783.2223" gradientTransform="matrix(1 0 0 -1 -1140.7335 1348.36)">
							<stop  offset="0" style="stop-color:#4042E2"/>
							<stop  offset="1" style="stop-color:#4F52FF"/>
						</linearGradient>
						<path class="st56" d="M102.5,564c-4,0.3-10.9,0.9-16.3,1.1c-3.3,0.1-5.2-0.2-6.2-0.6c0,0.1,0,0.3,0,0.4c0,0.6,0.5,1,1.1,1.1
							c10.3,0.6,18.5,0.2,21.4,0c0.6,0,0.9-0.7,0.7-1.2C102.9,564.5,102.7,564.3,102.5,564z"/>
						
							<linearGradient id="SVGID_47_" gradientUnits="userSpaceOnUse" x1="1220.6654" y1="787.7351" x2="1243.2397" y2="787.7351" gradientTransform="matrix(1 0 0 -1 -1140.7335 1348.36)">
							<stop  offset="0" style="stop-color:#09005D"/>
							<stop  offset="1" style="stop-color:#1A0F91"/>
						</linearGradient>
						<path class="st57" d="M86.2,565.2c5.4-0.3,12.4-0.8,16.3-1.1c-3.9-4.8-16.3-8-16.3-8h-3.5c-2.4,3.5-2.8,6.8-2.7,8.6
							C81,565,82.9,565.3,86.2,565.2z"/>
						
							<linearGradient id="SVGID_48_" gradientUnits="userSpaceOnUse" x1="1222.8184" y1="794.1319" x2="1229.3573" y2="794.1319" gradientTransform="matrix(1 0 0 -1 -1140.7335 1348.36)">
							<stop  offset="0" style="stop-color:#F9B776"/>
							<stop  offset="1" style="stop-color:#F47960"/>
						</linearGradient>
						<path class="st58" d="M82.1,550.3l0.3,6.5c0,0.7,0.5,1.3,1.3,1.4c0.7,0.1,1.6,0.1,2.7-0.2c0.6-0.2,1.1-0.7,1.2-1.3l1.1-6.3
							L82.1,550.3L82.1,550.3z"/>
					</g>
					<g>
						<g>
							
								<linearGradient id="SVGID_49_" gradientUnits="userSpaceOnUse" x1="1174.3638" y1="783.7346" x2="1183.2655" y2="783.7346" gradientTransform="matrix(1 0 0 -1 -1140.7335 1348.36)">
								<stop  offset="0" style="stop-color:#4042E2"/>
								<stop  offset="1" style="stop-color:#4F52FF"/>
							</linearGradient>
							<path class="st59" d="M36.5,565.1c-1.7-0.3-2.5-1.1-2.8-2.1c0,0,0,0,0,0c-0.3,1,0.3,2.1,1.5,2.5c1.4,0.6,3,0.7,4.2,0.7
								c1.3,0,2.5-0.6,3.1-1.5l0,0C41.2,565.4,39.4,565.5,36.5,565.1z"/>
							
								<linearGradient id="SVGID_50_" gradientUnits="userSpaceOnUse" x1="1174.4226" y1="790.5725" x2="1187.4952" y2="790.5725" gradientTransform="matrix(1 0 0 -1 -1140.7335 1348.36)">
								<stop  offset="0" style="stop-color:#09005D"/>
								<stop  offset="1" style="stop-color:#1A0F91"/>
							</linearGradient>
							<path class="st60" d="M44.7,550.2h-2.9c-4.4-0.1-7.2,9.2-8.1,12.8c0.3,0.9,1.1,1.9,2.8,2.1c2.9,0.4,4.7,0.3,6-0.3
								c2.4-3.1,3.6-7.7,4.1-10.4C47.3,551.3,44.7,550.2,44.7,550.2z"/>
						</g>
						
							<linearGradient id="SVGID_51_" gradientUnits="userSpaceOnUse" x1="1181.2209" y1="799.5822" x2="1189.0408" y2="799.5822" gradientTransform="matrix(1 0 0 -1 -1140.7335 1348.36)">
							<stop  offset="0" style="stop-color:#F9B776"/>
							<stop  offset="1" style="stop-color:#F47960"/>
						</linearGradient>
						<path class="st61" d="M42.2,544.2l-1.6,6.4c-0.2,0.8,0.2,1.6,0.9,2c0.9,0.5,2.2,0.9,3.3,0.8c0.5-0.1,1-0.4,1.2-1l2.4-6.7
							L42.2,544.2z"/>
					</g>
					
						<linearGradient id="SVGID_52_" gradientUnits="userSpaceOnUse" x1="1163.0668" y1="776.7411" x2="1265.7909" y2="892.9619" gradientTransform="matrix(1 0 0 -1 -1140.7335 1348.36)">
						<stop  offset="0" style="stop-color:#09005D"/>
						<stop  offset="1" style="stop-color:#1A0F91"/>
					</linearGradient>
					<path class="st62" d="M40.2,546c2,1.8,8.5,2,8.5,2c23.4-56.2,33-64.2,33-64.2c-3.4,21.2-0.5,68.2-0.5,68.2c3.9,1.7,8.8,0,8.8,0
						c0.3-34.7,5.7-65,12-88.9c-15.8-0.4-24.2-5.8-27-8C61.8,476.5,40.2,546,40.2,546z"/>
					
						<linearGradient id="SVGID_53_" gradientUnits="userSpaceOnUse" x1="1080.8783" y1="744.3431" x2="1010.687" y2="661.9757" gradientTransform="matrix(1 0 0 -1 -1140.7335 1348.36)">
						<stop  offset="0" style="stop-color:#FE7062"/>
						<stop  offset="1" style="stop-color:#FF928E"/>
					</linearGradient>
					<path class="st63" d="M79,390.6c-3,14.9-1.9,41.7-1.2,53.9c0.2,3.4-2.2,8.2-4.1,11.4c-0.3,0.5-0.1,1.2,0.4,1.4
						c3.2,1.7,14.2,6.8,26.9,7.4c0.8,0,1.6-0.5,1.8-1.3c9.4-35.2,20.4-57.7,20.4-57.7C111.1,386.4,79,390.6,79,390.6z"/>
					
						<linearGradient id="SVGID_54_" gradientUnits="userSpaceOnUse" x1="1207.5791" y1="828.5275" x2="1211.3262" y2="836.0215" gradientTransform="matrix(1 0 0 -1 -1140.7335 1348.36)">
						<stop  offset="0" style="stop-color:#4042E2"/>
						<stop  offset="1" style="stop-color:#4F52FF"/>
					</linearGradient>
					<path class="st64" d="M83.3,482.5c-0.1,0-0.3,0-0.4-0.1c-0.4-0.2-0.5-0.7-0.3-1c0.1-0.2,3.2-5.1,9.3-8.1c0.4-0.2,0.8,0,1,0.4
						c0.2,0.4,0,0.8-0.4,1c-5.7,2.8-8.6,7.4-8.6,7.5C83.8,482.4,83.6,482.5,83.3,482.5z"/>
					<g>
						
							<linearGradient id="SVGID_55_" gradientUnits="userSpaceOnUse" x1="1217.0382" y1="913.5643" x2="1189.2013" y2="888.9141" gradientTransform="matrix(1 0 0 -1 -1140.7335 1348.36)">
							<stop  offset="0" style="stop-color:#FF928E"/>
							<stop  offset="1" style="stop-color:#FEB3B1"/>
						</linearGradient>
						<path class="st65" d="M60.2,433.5c0.9,7,3.8,14.6,9.5,22.6l2.2-1.8c0,0-2.5-10.1-1.1-21.6C67.3,432,63.2,432.7,60.2,433.5z"/>
						
							<linearGradient id="SVGID_56_" gradientUnits="userSpaceOnUse" x1="1063.6417" y1="759.0315" x2="993.4505" y2="676.6644" gradientTransform="matrix(1 0 0 -1 -1140.7335 1348.36)">
							<stop  offset="0" style="stop-color:#FE7062"/>
							<stop  offset="1" style="stop-color:#FF928E"/>
						</linearGradient>
						<path class="st66" d="M82.3,409L79,390.6c0,0-22.3,17.1-18.8,42.9c2.9-0.7,7.1-1.5,10.6-0.8C71.8,424.5,74.9,415.4,82.3,409z"
							/>
					</g>
					<g>
						
							<linearGradient id="SVGID_57_" gradientUnits="userSpaceOnUse" x1="1099.5708" y1="728.4123" x2="1029.3794" y2="646.0449" gradientTransform="matrix(1 0 0 -1 -1140.7335 1348.36)">
							<stop  offset="0" style="stop-color:#FE7062"/>
							<stop  offset="1" style="stop-color:#FF928E"/>
						</linearGradient>
						<path class="st67" d="M123.2,405.7l-8.6,18.6c1.4,11.2,7.4,16.1,13.9,17.9c0.4-5.1,1.7-9.2,2.9-12.1
							C123.1,421.5,123.2,405.7,123.2,405.7z"/>
						
							<linearGradient id="SVGID_58_" gradientUnits="userSpaceOnUse" x1="1269.2379" y1="911.2312" x2="1291.1436" y2="911.2312" gradientTransform="matrix(1 0 0 -1 -1140.7335 1348.36)">
							<stop  offset="0" style="stop-color:#FF928E"/>
							<stop  offset="1" style="stop-color:#FEB3B1"/>
						</linearGradient>
						<path class="st68" d="M131.4,430.1c-1.2,2.9-2.5,7-2.9,12.1c17.3,6.7,21.9-6.3,21.9-6.3l-3.2-0.6
							C140,436.1,134.9,433.8,131.4,430.1z"/>
					</g>
					
						<linearGradient id="SVGID_59_" gradientUnits="userSpaceOnUse" x1="1247.9052" y1="969.8083" x2="1247.6658" y2="928.8694" gradientTransform="matrix(1 0 0 -1 -1140.7335 1348.36)">
						<stop  offset="0" style="stop-color:#FF928E"/>
						<stop  offset="1" style="stop-color:#FEB3B1"/>
					</linearGradient>
					<path class="st69" d="M115.2,382.8l-4.2,15.3c-0.5,1.7-2.3,2.7-4,2c-1.8-0.7-4.1-1.7-6-2.7c-2.1-1.1-2.7-3.8-1.4-5.8l8.6-12.9
						L115.2,382.8z"/>
				</g>
				
					<linearGradient id="SVGID_60_" gradientUnits="userSpaceOnUse" x1="1186.989" y1="895.1628" x2="1301.7876" y2="895.1628" gradientTransform="matrix(1 0 0 -1 -1140.7335 1348.36)">
					<stop  offset="0" style="stop-color:#020039"/>
					<stop  offset="1" style="stop-color:#090056"/>
				</linearGradient>
				<path class="st70" d="M158.4,425.6L51.6,464.5c-4.5,1.6-6.6,6.7-4.6,11.1l0.3,0.7c1.7,3.9,6.3,5.5,10.1,3.7l103.6-48
					L158.4,425.6z"/>
				
					<linearGradient id="SVGID_61_" gradientUnits="userSpaceOnUse" x1="1295.4666" y1="946.069" x2="1400.817" y2="946.069" gradientTransform="matrix(1 0 0 -1 -1140.7335 1348.36)">
					<stop  offset="0" style="stop-color:#DAE3FE"/>
					<stop  offset="1" style="stop-color:#E9EFFD"/>
				</linearGradient>
				<ellipse class="st71" cx="207.4" cy="402.3" rx="52.7" ry="51.7"/>
				
					<linearGradient id="SVGID_62_" gradientUnits="userSpaceOnUse" x1="1289.5088" y1="946.069" x2="1406.7748" y2="946.069" gradientTransform="matrix(1 0 0 -1 -1140.7335 1348.36)">
					<stop  offset="0" style="stop-color:#020039"/>
					<stop  offset="1" style="stop-color:#090056"/>
				</linearGradient>
				<path class="st72" d="M207.4,344.7c-32.4,0-58.6,25.8-58.6,57.6s26.3,57.6,58.6,57.6s58.6-25.8,58.6-57.6
					C266,370.5,239.8,344.7,207.4,344.7z M207.4,451.4c-27.6,0-50-22-50-49.1s22.4-49.1,50-49.1s50,22,50,49.1
					S235.1,451.4,207.4,451.4z"/>
				<path class="st4" d="M153.2,409.4c-0.2,0-0.3-0.1-0.4-0.3c-0.2-1.4-0.3-2.8-0.4-4.1c0-0.2,0.1-0.4,0.3-0.4
					c0.2,0,0.4,0.1,0.4,0.3c0.1,1.3,0.2,2.7,0.4,4.1C153.6,409.2,153.5,409.3,153.2,409.4C153.3,409.4,153.3,409.4,153.2,409.4z
					 M153.6,393.3C153.6,393.3,153.6,393.3,153.6,393.3c-0.3,0-0.4-0.2-0.4-0.4c0.7-3.7,1.7-7.3,3.2-10.8l0,0
					c8.4-20.5,28.4-33.7,51-33.7c10.5,0,20.7,2.9,29.5,8.4c0.2,0.1,0.2,0.3,0.1,0.5c-0.1,0.2-0.3,0.2-0.5,0.1
					c-8.7-5.4-18.8-8.3-29.1-8.3c-22.2,0-42,13.1-50.3,33.3l0,0c-1.4,3.4-2.5,7-3.1,10.7C154,393.2,153.8,393.3,153.6,393.3z"/>
				<g>
					
						<linearGradient id="SVGID_63_" gradientUnits="userSpaceOnUse" x1="991.0274" y1="-710.0864" x2="970.8754" y2="-736.7458" gradientTransform="matrix(0.9897 -0.1428 -0.1428 -0.9897 -961.753 -189.436)">
						<stop  offset="0" style="stop-color:#FF928E"/>
						<stop  offset="1" style="stop-color:#FEB3B1"/>
					</linearGradient>
					<path class="st73" d="M124.4,371.2c0,0.3-3.5,17.5-3.5,17.5l-9.8-2.2l0.9-16.8C112,369.6,123.7,366.7,124.4,371.2z"/>
					
						<linearGradient id="SVGID_64_" gradientUnits="userSpaceOnUse" x1="102.097" y1="972.1392" x2="172.0156" y2="963.2989" gradientTransform="matrix(1 0 0 -1 0 1348.36)">
						<stop  offset="0" style="stop-color:#09005D"/>
						<stop  offset="1" style="stop-color:#1A0F91"/>
					</linearGradient>
					<path class="st74" d="M114.2,373.3l-1.2,8.8c0,0.1,0,0.2,0,0.3c0.1,0.7,0.6,3.1,3,2.4c2.1-0.6,4.1-1.1,5.5-0.7
						c0.6,0.2,1,0.8,0.8,1.5c-0.3,1.6-1.1,5.1-2.3,8c-0.2,0.6-0.9,0.9-1.5,0.7c-1.9-0.5-5.7-1.8-8.6-3.5c-0.4-0.2-0.6-0.7-0.6-1.1
						c0.1-2.2,0.4-9,0.1-10.9c-0.2-1.8-2.4-2.8-3.3-3.2c-0.3-0.1-0.5-0.4-0.7-0.7c-0.4-1.1-1.1-3.6,2.2-4.7c0.7-0.2,1-0.9,0.8-1.6
						c-0.5-1.3-0.7-3.3,1.8-4.5c2.5-1.1,4.4,0.2,5.4,1.3c0.4,0.4,1.1,0.5,1.6,0.2c0.3-0.2,0.7-0.3,1.1,0c0.6,0.4,1.4,0.1,1.7-0.5
						c0.6-1.2,1.9-2.6,4.3-2.1c4.4,0.8,4.9,5.6,3.7,8.5c-1.2,2.8-5.8,1.8-8.2,0.3c-1.8-1.1-4.1,0-5.1,0.7
						C114.5,372.6,114.3,373,114.2,373.3z"/>
					
						<linearGradient id="SVGID_65_" gradientUnits="userSpaceOnUse" x1="961.5306" y1="-731.2154" x2="977.6943" y2="-714.632" gradientTransform="matrix(0.9897 -0.1428 -0.1428 -0.9897 -961.753 -189.436)">
						<stop  offset="0" style="stop-color:#FF928E"/>
						<stop  offset="1" style="stop-color:#FEB3B1"/>
					</linearGradient>
					<path class="st75" d="M109.1,382c0,0,1.8-5,0-6.3s-4.6-0.6-4,3.1C105.8,383.3,109.1,382,109.1,382z"/>
				</g>
				
					<linearGradient id="SVGID_66_" gradientUnits="userSpaceOnUse" x1="1228.0393" y1="901.141" x2="1200.2024" y2="876.4908" gradientTransform="matrix(1 0 0 -1 -1140.7335 1348.36)">
					<stop  offset="0" style="stop-color:#FF928E"/>
					<stop  offset="1" style="stop-color:#FEB3B1"/>
				</linearGradient>
				<path class="st76" d="M71,454l10.1-0.8l4.4,4c0,0-1,1.4-4.3,0.6c-3.2-0.8-7.7-1-7.7-1s-4.5,2-4.5-1.7L71,454z"/>
				
					<linearGradient id="SVGID_67_" gradientUnits="userSpaceOnUse" x1="1288.8273" y1="913.8004" x2="1296.678" y2="913.8004" gradientTransform="matrix(1 0 0 -1 -1140.7335 1348.36)">
					<stop  offset="0" style="stop-color:#FF928E"/>
					<stop  offset="1" style="stop-color:#FEB3B1"/>
				</linearGradient>
				<path class="st77" d="M149.1,438.3c0.9,0.7,3.9-0.7,5.7-1.7c0.9-0.5,1.3-1.5,1-2.5c-0.4-1.4-1.2-3.2-2.1-3.4
					C152.3,430.3,145.5,435.5,149.1,438.3z"/>
				<path class="st4" d="M53.7,478.5c0,0-0.1,0-0.1,0c-4.1-1.4-5.1-3.9-5.2-5.7c-0.1-2.6,1.5-5.1,4.1-6.1l12.8-5
					c0.2-0.1,0.4,0,0.5,0.2c0.1,0.2,0,0.4-0.2,0.5l-12.8,5c-2.3,0.9-3.8,3.1-3.7,5.4c0.1,2.3,1.7,4,4.7,5c0.2,0.1,0.3,0.3,0.2,0.4
					C54,478.4,53.9,478.5,53.7,478.5z"/>
				<path class="st4" d="M69.4,460.9c-0.1,0-0.3-0.1-0.3-0.2c-0.1-0.2,0-0.4,0.2-0.5l1.7-0.7c0.2-0.1,0.4,0,0.5,0.2
					c0.1,0.2,0,0.4-0.2,0.5l-1.7,0.7C69.5,460.9,69.5,460.9,69.4,460.9z"/>
			</g>
			<g>
				<path class="st14" d="M196.7,313.8h-2.1c-0.8,0-1.4-0.6-1.4-1.4c0-0.8,0.6-1.4,1.4-1.4h2.1c0.8,0,1.4,0.6,1.4,1.4
					C198.1,313.1,197.5,313.8,196.7,313.8z M189.7,313.8h-2.1c-0.8,0-1.4-0.6-1.4-1.4c0-0.8,0.6-1.4,1.4-1.4h2.1
					c0.8,0,1.4,0.6,1.4,1.4C191.1,313.1,190.5,313.8,189.7,313.8z M182.7,313.8h-2.1c-0.8,0-1.4-0.6-1.4-1.4c0-0.8,0.6-1.4,1.4-1.4
					h2.1c0.8,0,1.4,0.6,1.4,1.4C184.1,313.1,183.5,313.8,182.7,313.8z M175.6,313.8h-2.1c-0.8,0-1.4-0.6-1.4-1.4
					c0-0.8,0.6-1.4,1.4-1.4h2.1c0.8,0,1.4,0.6,1.4,1.4C177,313.1,176.4,313.8,175.6,313.8z M168.6,313.8h-2.1
					c-0.8,0-1.4-0.6-1.4-1.4c0-0.8,0.6-1.4,1.4-1.4h2.1c0.8,0,1.4,0.6,1.4,1.4C170,313.1,169.4,313.8,168.6,313.8z M161.6,313.8
					h-2.1c-0.8,0-1.4-0.6-1.4-1.4c0-0.8,0.6-1.4,1.4-1.4h2.1c0.8,0,1.4,0.6,1.4,1.4C163,313.1,162.3,313.8,161.6,313.8z
					 M154.5,313.8h-2.1c-0.8,0-1.4-0.6-1.4-1.4c0-0.8,0.6-1.4,1.4-1.4h2.1c0.8,0,1.4,0.6,1.4,1.4
					C155.9,313.1,155.3,313.8,154.5,313.8z M147.5,313.8h-2.1c-0.8,0-1.4-0.6-1.4-1.4c0-0.8,0.6-1.4,1.4-1.4h2.1
					c0.8,0,1.4,0.6,1.4,1.4C148.9,313.1,148.3,313.8,147.5,313.8z M140.5,313.8h-2.1c-0.8,0-1.4-0.6-1.4-1.4c0-0.8,0.6-1.4,1.4-1.4
					h2.1c0.8,0,1.4,0.6,1.4,1.4C141.9,313.1,141.2,313.8,140.5,313.8z M133.4,313.8h-2.1c-0.8,0-1.4-0.6-1.4-1.4
					c0-0.8,0.6-1.4,1.4-1.4h2.1c0.8,0,1.4,0.6,1.4,1.4C134.8,313.1,134.2,313.8,133.4,313.8z M126.4,313.8h-2.1
					c-0.8,0-1.4-0.6-1.4-1.4c0-0.8,0.6-1.4,1.4-1.4h2.1c0.8,0,1.4,0.6,1.4,1.4C127.8,313.1,127.2,313.8,126.4,313.8z M119.3,313.8
					h-2.1c-0.8,0-1.4-0.6-1.4-1.4c0-0.8,0.6-1.4,1.4-1.4h2.1c0.8,0,1.4,0.6,1.4,1.4C120.8,313.1,120.1,313.8,119.3,313.8z
					 M112.3,313.8h-2.1c-0.8,0-1.4-0.6-1.4-1.4c0-0.8,0.6-1.4,1.4-1.4h2.1c0.8,0,1.4,0.6,1.4,1.4
					C113.7,313.1,113.1,313.8,112.3,313.8z M105.3,313.8h-2.1c-0.8,0-1.4-0.6-1.4-1.4c0-0.8,0.6-1.4,1.4-1.4h2.1
					c0.8,0,1.4,0.6,1.4,1.4C106.7,313.1,106.1,313.8,105.3,313.8z M98.2,313.8h-2.1c-0.8,0-1.4-0.6-1.4-1.4c0-0.8,0.6-1.4,1.4-1.4
					h2.1c0.8,0,1.4,0.6,1.4,1.4C99.7,313.1,99,313.8,98.2,313.8z M91.2,313.8h-2.1c-0.8,0-1.4-0.6-1.4-1.4c0-0.8,0.6-1.4,1.4-1.4
					h2.1c0.8,0,1.4,0.6,1.4,1.4C92.6,313.1,92,313.8,91.2,313.8z M84.2,313.8h-2.1c-0.8,0-1.4-0.6-1.4-1.4c0-0.8,0.6-1.4,1.4-1.4
					h2.1c0.8,0,1.4,0.6,1.4,1.4C85.6,313.1,84.9,313.8,84.2,313.8z M77.1,313.8H75c-0.8,0-1.4-0.6-1.4-1.4c0-0.8,0.6-1.4,1.4-1.4
					h2.1c0.8,0,1.4,0.6,1.4,1.4C78.6,313.1,77.9,313.8,77.1,313.8z M72.3,311.6C72.3,311.6,72.3,311.6,72.3,311.6
					c-0.8,0-1.4-0.7-1.4-1.5l0-2.1c0-0.8,0.7-1.4,1.5-1.4c0.8,0,1.4,0.7,1.4,1.5l0,2.1C73.7,311,73.1,311.6,72.3,311.6z M72.4,304.5
					L72.4,304.5c-0.8,0-1.4-0.7-1.4-1.5l0-2.1c0-0.8,0.7-1.4,1.5-1.4c0.8,0,1.4,0.7,1.4,1.5l0,2.1C73.8,303.9,73.2,304.5,72.4,304.5
					z M72.5,297.5L72.5,297.5c-0.8,0-1.4-0.7-1.4-1.5l0-2.1c0-0.8,0.7-1.4,1.4-1.4c0,0,0,0,0,0c0.8,0,1.4,0.7,1.4,1.5l0,2.1
					C73.9,296.9,73.3,297.5,72.5,297.5z M72.6,290.5C72.6,290.5,72.6,290.5,72.6,290.5c-0.8,0-1.4-0.7-1.4-1.5l0-2.1
					c0-0.8,0.7-1.4,1.5-1.4c0.8,0,1.4,0.7,1.4,1.5l0,2.1C74,289.9,73.4,290.5,72.6,290.5z M72.7,283.4L72.7,283.4
					c-0.8,0-1.4-0.7-1.4-1.5l0-2.1c0-0.8,0.7-1.5,1.5-1.4c0.8,0,1.4,0.7,1.4,1.5l0,2.1C74.1,282.8,73.5,283.4,72.7,283.4z
					 M72.8,276.4C72.8,276.4,72.8,276.4,72.8,276.4c-0.8,0-1.4-0.7-1.4-1.5l0-2.1c0-0.8,0.7-1.4,1.5-1.4c0.8,0,1.4,0.7,1.4,1.5
					l0,2.1C74.2,275.8,73.6,276.4,72.8,276.4z M72.9,269.4L72.9,269.4c-0.8,0-1.4-0.7-1.4-1.5l0-2.1c0-0.8,0.6-1.5,1.5-1.4
					c0.8,0,1.4,0.7,1.4,1.5l0,2.1C74.3,268.8,73.7,269.4,72.9,269.4z M73,262.3L73,262.3c-0.8,0-1.4-0.7-1.4-1.5l0-2.1
					c0-0.8,0.7-1.4,1.5-1.4c0.8,0,1.4,0.7,1.4,1.5l0,2.1C74.4,261.7,73.8,262.3,73,262.3z M73.1,255.3
					C73.1,255.3,73.1,255.3,73.1,255.3c-0.8,0-1.4-0.7-1.4-1.5l0-2.1c0-0.8,0.7-1.4,1.5-1.4c0.8,0,1.4,0.7,1.4,1.5l0,2.1
					C74.5,254.7,73.9,255.3,73.1,255.3z M73.2,248.3L73.2,248.3c-0.8,0-1.4-0.7-1.4-1.5l0-2.1c0-0.8,0.7-1.4,1.5-1.4
					c0.8,0,1.4,0.7,1.4,1.5l0,2.1C74.6,247.6,74,248.3,73.2,248.3z M73.3,241.2L73.3,241.2c-0.8,0-1.4-0.7-1.4-1.5l0-2.1
					c0-0.8,0.7-1.4,1.5-1.4c0.8,0,1.4,0.7,1.4,1.5l0,2.1C74.7,240.6,74,241.2,73.3,241.2z M73.4,234.2
					C73.4,234.2,73.4,234.2,73.4,234.2c-0.8,0-1.4-0.7-1.4-1.5l0-2.1c0-0.8,0.7-1.4,1.4-1.4c0,0,0,0,0,0c0.8,0,1.4,0.7,1.4,1.5
					l0,2.1C74.8,233.6,74.2,234.2,73.4,234.2z M73.5,227.2L73.5,227.2c-0.8,0-1.4-0.7-1.4-1.5l0-2.1c0-0.8,0.7-1.4,1.5-1.4
					s1.4,0.7,1.4,1.5l0,2.1C74.9,226.5,74.2,227.2,73.5,227.2z M73.6,220.1C73.6,220.1,73.5,220.1,73.6,220.1
					c-0.8,0-1.4-0.7-1.4-1.5l0-2.1c0-0.8,0.7-1.4,1.4-1.4c0,0,0,0,0,0c0.8,0,1.4,0.7,1.4,1.5l0,2.1C75,219.5,74.3,220.1,73.6,220.1z
					 M73.6,213.1L73.6,213.1c-0.8,0-1.4-0.7-1.4-1.5l0-2.1c0-0.8,0.7-1.4,1.5-1.4c0.8,0,1.4,0.7,1.4,1.5l0,2.1
					C75.1,212.5,74.4,213.1,73.6,213.1z M77.3,209.4c-0.7,0-1.3-0.6-1.4-1.3c-0.1-0.8,0.5-1.5,1.3-1.5l2.1-0.2
					c0.8-0.1,1.5,0.5,1.5,1.3c0.1,0.8-0.5,1.5-1.3,1.5l-2.1,0.2C77.4,209.4,77.3,209.4,77.3,209.4z M84.3,208.8
					c-0.7,0-1.3-0.6-1.4-1.3c-0.1-0.8,0.5-1.5,1.3-1.5l2.1-0.2c0.8-0.1,1.5,0.5,1.5,1.3s-0.5,1.5-1.3,1.5l-2.1,0.2
					C84.4,208.8,84.3,208.8,84.3,208.8z M91.3,208.3c-0.7,0-1.3-0.6-1.4-1.3c-0.1-0.8,0.5-1.5,1.3-1.5l2.1-0.2
					c0.8,0,1.5,0.5,1.5,1.3c0.1,0.8-0.5,1.5-1.3,1.5l-2.1,0.2C91.4,208.3,91.4,208.3,91.3,208.3z M98.4,207.7
					c-0.7,0-1.3-0.6-1.4-1.3c-0.1-0.8,0.5-1.5,1.3-1.5l2.1-0.2c0.8-0.1,1.5,0.5,1.5,1.3s-0.5,1.5-1.3,1.5l-2.1,0.2
					C98.4,207.7,98.4,207.7,98.4,207.7z"/>
			</g>
			<g>
				<path class="st14" d="M312.2,256.7c-0.8,0-1.4-0.6-1.4-1.4v-2.1c0-0.8,0.6-1.4,1.4-1.4c0.8,0,1.4,0.6,1.4,1.4v2.1
					C313.6,256,313,256.7,312.2,256.7z M312.2,249.6c-0.8,0-1.4-0.6-1.4-1.4v-2.1c0-0.8,0.6-1.4,1.4-1.4c0.8,0,1.4,0.6,1.4,1.4v2.1
					C313.6,249,313,249.6,312.2,249.6z M312.2,242.6c-0.8,0-1.4-0.6-1.4-1.4v-2.1c0-0.8,0.6-1.4,1.4-1.4c0.8,0,1.4,0.6,1.4,1.4v2.1
					C313.6,241.9,313,242.6,312.2,242.6z M312.2,235.5c-0.8,0-1.4-0.6-1.4-1.4V232c0-0.8,0.6-1.4,1.4-1.4c0.8,0,1.4,0.6,1.4,1.4v2.1
					C313.6,234.9,313,235.5,312.2,235.5z M312.2,228.5c-0.8,0-1.4-0.6-1.4-1.4V225c0-0.8,0.6-1.4,1.4-1.4c0.8,0,1.4,0.6,1.4,1.4v2.1
					C313.6,227.9,313,228.5,312.2,228.5z M312.2,221.5c-0.8,0-1.4-0.6-1.4-1.4V218c0-0.8,0.6-1.4,1.4-1.4c0.8,0,1.4,0.6,1.4,1.4v2.1
					C313.6,220.8,313,221.5,312.2,221.5z M312.2,214.4c-0.8,0-1.4-0.6-1.4-1.4v-2.1c0-0.8,0.6-1.4,1.4-1.4c0.8,0,1.4,0.6,1.4,1.4
					v2.1C313.6,213.8,313,214.4,312.2,214.4z M312.2,207.4c-0.8,0-1.4-0.6-1.4-1.4v-2.1c0-0.8,0.6-1.4,1.4-1.4
					c0.8,0,1.4,0.6,1.4,1.4v2.1C313.6,206.8,313,207.4,312.2,207.4z M312.2,200.4c-0.8,0-1.4-0.6-1.4-1.4v-2.1
					c0-0.8,0.6-1.4,1.4-1.4c0.8,0,1.4,0.6,1.4,1.4v2.1C313.6,199.7,313,200.4,312.2,200.4z M312.2,193.3c-0.8,0-1.4-0.6-1.4-1.4
					v-2.1c0-0.8,0.6-1.4,1.4-1.4c0.8,0,1.4,0.6,1.4,1.4v2.1C313.6,192.7,313,193.3,312.2,193.3z M312.2,186.3
					c-0.8,0-1.4-0.6-1.4-1.4v-2.1c0-0.8,0.6-1.4,1.4-1.4c0.8,0,1.4,0.6,1.4,1.4v2.1C313.6,185.7,313,186.3,312.2,186.3z
					 M312.2,179.3c-0.8,0-1.4-0.6-1.4-1.4v-2.1c0-0.8,0.6-1.4,1.4-1.4c0.8,0,1.4,0.6,1.4,1.4v2.1C313.6,178.6,313,179.3,312.2,179.3
					z M312.2,172.2c-0.8,0-1.4-0.6-1.4-1.4v-2.1c0-0.8,0.6-1.4,1.4-1.4c0.8,0,1.4,0.6,1.4,1.4v2.1
					C313.6,171.6,313,172.2,312.2,172.2z M312.2,165.2c-0.8,0-1.4-0.6-1.4-1.4v-2.1c0-0.8,0.6-1.4,1.4-1.4c0.8,0,1.4,0.6,1.4,1.4
					v2.1C313.6,164.6,313,165.2,312.2,165.2z M309.6,160.8h-2.1c-0.8,0-1.4-0.6-1.4-1.4c0-0.8,0.6-1.4,1.4-1.4h2.1
					c0.8,0,1.4,0.6,1.4,1.4C311,160.2,310.3,160.8,309.6,160.8z M302.5,160.8h-2.1c-0.8,0-1.4-0.6-1.4-1.4c0-0.8,0.6-1.4,1.4-1.4
					h2.1c0.8,0,1.4,0.6,1.4,1.4C303.9,160.2,303.3,160.8,302.5,160.8z M295.5,160.8h-2.1c-0.8,0-1.4-0.6-1.4-1.4
					c0-0.8,0.6-1.4,1.4-1.4h2.1c0.8,0,1.4,0.6,1.4,1.4C296.9,160.2,296.3,160.8,295.5,160.8z M288.5,160.8h-2.1
					c-0.8,0-1.4-0.6-1.4-1.4c0-0.8,0.6-1.4,1.4-1.4h2.1c0.8,0,1.4,0.6,1.4,1.4C289.9,160.2,289.2,160.8,288.5,160.8z M281.4,160.8
					h-2.1c-0.8,0-1.4-0.6-1.4-1.4c0-0.8,0.6-1.4,1.4-1.4h2.1c0.8,0,1.4,0.6,1.4,1.4C282.8,160.2,282.2,160.8,281.4,160.8z
					 M274.4,160.8h-2.1c-0.8,0-1.4-0.6-1.4-1.4c0-0.8,0.6-1.4,1.4-1.4h2.1c0.8,0,1.4,0.6,1.4,1.4
					C275.8,160.2,275.2,160.8,274.4,160.8z M267.3,160.8h-2.1c-0.8,0-1.4-0.6-1.4-1.4c0-0.8,0.6-1.4,1.4-1.4h2.1
					c0.8,0,1.4,0.6,1.4,1.4C268.8,160.2,268.1,160.8,267.3,160.8z"/>
			</g>
			<g>
				<path class="st14" d="M416.3,251.9c-0.8,0-1.4-0.6-1.4-1.4v-2.1c0-0.8,0.6-1.4,1.4-1.4c0.8,0,1.4,0.6,1.4,1.4v2.1
					C417.7,251.2,417.1,251.9,416.3,251.9z M416.3,244.8c-0.8,0-1.4-0.6-1.4-1.4v-2.1c0-0.8,0.6-1.4,1.4-1.4c0.8,0,1.4,0.6,1.4,1.4
					v2.1C417.7,244.2,417.1,244.8,416.3,244.8z M416.3,237.8c-0.8,0-1.4-0.6-1.4-1.4v-2.1c0-0.8,0.6-1.4,1.4-1.4
					c0.8,0,1.4,0.6,1.4,1.4v2.1C417.7,237.1,417.1,237.8,416.3,237.8z M416.3,230.8c-0.8,0-1.4-0.6-1.4-1.4v-2.1
					c0-0.8,0.6-1.4,1.4-1.4c0.8,0,1.4,0.6,1.4,1.4v2.1C417.7,230.1,417.1,230.8,416.3,230.8z M416.3,223.7c-0.8,0-1.4-0.6-1.4-1.4
					v-2.1c0-0.8,0.6-1.4,1.4-1.4c0.8,0,1.4,0.6,1.4,1.4v2.1C417.7,223.1,417.1,223.7,416.3,223.7z M416.3,216.7
					c-0.8,0-1.4-0.6-1.4-1.4v-2.1c0-0.8,0.6-1.4,1.4-1.4c0.8,0,1.4,0.6,1.4,1.4v2.1C417.7,216,417.1,216.7,416.3,216.7z
					 M416.3,209.6c-0.8,0-1.4-0.6-1.4-1.4v-2.1c0-0.8,0.6-1.4,1.4-1.4c0.8,0,1.4,0.6,1.4,1.4v2.1C417.7,209,417.1,209.6,416.3,209.6
					z M416.3,202.6c-0.8,0-1.4-0.6-1.4-1.4v-2.1c0-0.8,0.6-1.4,1.4-1.4c0.8,0,1.4,0.6,1.4,1.4v2.1
					C417.7,202,417.1,202.6,416.3,202.6z M416.3,195.6c-0.8,0-1.4-0.6-1.4-1.4v-2.1c0-0.8,0.6-1.4,1.4-1.4c0.8,0,1.4,0.6,1.4,1.4
					v2.1C417.7,194.9,417.1,195.6,416.3,195.6z M416.3,188.5c-0.8,0-1.4-0.6-1.4-1.4V185c0-0.8,0.6-1.4,1.4-1.4
					c0.8,0,1.4,0.6,1.4,1.4v2.1C417.7,187.9,417.1,188.5,416.3,188.5z M416.3,181.5c-0.8,0-1.4-0.6-1.4-1.4V178
					c0-0.8,0.6-1.4,1.4-1.4c0.8,0,1.4,0.6,1.4,1.4v2.1C417.7,180.9,417.1,181.5,416.3,181.5z M416.3,174.5c-0.8,0-1.4-0.6-1.4-1.4
					V171c0-0.8,0.6-1.4,1.4-1.4c0.8,0,1.4,0.6,1.4,1.4v2.1C417.7,173.8,417.1,174.5,416.3,174.5z M416.3,167.4
					c-0.8,0-1.4-0.6-1.4-1.4v-2.1c0-0.8,0.6-1.4,1.4-1.4c0.8,0,1.4,0.6,1.4,1.4v2.1C417.7,166.8,417.1,167.4,416.3,167.4z
					 M416.3,160.4c-0.8,0-1.4-0.6-1.4-1.4v-2.1c0-0.8,0.6-1.4,1.4-1.4c0.8,0,1.4,0.6,1.4,1.4v2.1
					C417.7,159.8,417.1,160.4,416.3,160.4z M416.3,153.4c-0.8,0-1.4-0.6-1.4-1.4v-2.1c0-0.8,0.6-1.4,1.4-1.4c0.8,0,1.4,0.6,1.4,1.4
					v2.1C417.7,152.7,417.1,153.4,416.3,153.4z M416.3,146.3c-0.8,0-1.4-0.6-1.4-1.4v-2.1c0-0.8,0.6-1.4,1.4-1.4
					c0.8,0,1.4,0.6,1.4,1.4v2.1C417.7,145.7,417.1,146.3,416.3,146.3z M416.3,139.3c-0.8,0-1.4-0.6-1.4-1.4v-2.1
					c0-0.8,0.6-1.4,1.4-1.4c0.8,0,1.4,0.6,1.4,1.4v2.1C417.7,138.7,417.1,139.3,416.3,139.3z M479.6,137.2h-2.1
					c-0.8,0-1.4-0.6-1.4-1.4c0-0.8,0.6-1.4,1.4-1.4h2.1c0.8,0,1.4,0.6,1.4,1.4C481.1,136.6,480.4,137.2,479.6,137.2z M472.6,137.2
					h-2.1c-0.8,0-1.4-0.6-1.4-1.4c0-0.8,0.6-1.4,1.4-1.4h2.1c0.8,0,1.4,0.6,1.4,1.4C474.1,136.6,473.4,137.2,472.6,137.2z
					 M465.6,137.2h-2.1c-0.8,0-1.4-0.6-1.4-1.4c0-0.8,0.6-1.4,1.4-1.4h2.1c0.8,0,1.4,0.6,1.4,1.4C467,136.6,466.4,137.2,465.6,137.2
					z M458.5,137.2h-2.1c-0.8,0-1.4-0.6-1.4-1.4c0-0.8,0.6-1.4,1.4-1.4h2.1c0.8,0,1.4,0.6,1.4,1.4
					C460,136.6,459.3,137.2,458.5,137.2z M451.5,137.2h-2.1c-0.8,0-1.4-0.6-1.4-1.4c0-0.8,0.6-1.4,1.4-1.4h2.1
					c0.8,0,1.4,0.6,1.4,1.4C452.9,136.6,452.3,137.2,451.5,137.2z M444.5,137.2h-2.1c-0.8,0-1.4-0.6-1.4-1.4c0-0.8,0.6-1.4,1.4-1.4
					h2.1c0.8,0,1.4,0.6,1.4,1.4C445.9,136.6,445.3,137.2,444.5,137.2z M437.4,137.2h-2.1c-0.8,0-1.4-0.6-1.4-1.4
					c0-0.8,0.6-1.4,1.4-1.4h2.1c0.8,0,1.4,0.6,1.4,1.4C438.9,136.6,438.2,137.2,437.4,137.2z M430.4,137.2h-2.1
					c-0.8,0-1.4-0.6-1.4-1.4c0-0.8,0.6-1.4,1.4-1.4h2.1c0.8,0,1.4,0.6,1.4,1.4C431.8,136.6,431.2,137.2,430.4,137.2z M423.4,137.2
					h-2.1c-0.8,0-1.4-0.6-1.4-1.4c0-0.8,0.6-1.4,1.4-1.4h2.1c0.8,0,1.4,0.6,1.4,1.4C424.8,136.6,424.2,137.2,423.4,137.2z"/>
			</g>
			<g>
				<path class="st14" d="M604.2,522h-1.4c-0.8,0-1.4-0.6-1.4-1.4s0.6-1.4,1.4-1.4h1.4c0.8,0,1.4,0.6,1.4,1.4
					C605.6,521.4,605,522,604.2,522z M597.9,522h-2.1c-0.8,0-1.4-0.6-1.4-1.4s0.6-1.4,1.4-1.4h2.1c0.8,0,1.4,0.6,1.4,1.4
					C599.3,521.4,598.7,522,597.9,522z M590.8,522h-2.1c-0.8,0-1.4-0.6-1.4-1.4s0.6-1.4,1.4-1.4h2.1c0.8,0,1.4,0.6,1.4,1.4
					C592.2,521.4,591.6,522,590.8,522z M583.8,522h-2.1c-0.8,0-1.4-0.6-1.4-1.4s0.6-1.4,1.4-1.4h2.1c0.8,0,1.4,0.6,1.4,1.4
					C585.2,521.4,584.6,522,583.8,522z M576.8,522h-2.1c-0.8,0-1.4-0.6-1.4-1.4s0.6-1.4,1.4-1.4h2.1c0.8,0,1.4,0.6,1.4,1.4
					C578.2,521.4,577.5,522,576.8,522z M569.7,522h-2.1c-0.8,0-1.4-0.6-1.4-1.4s0.6-1.4,1.4-1.4h2.1c0.8,0,1.4,0.6,1.4,1.4
					C571.1,521.4,570.5,522,569.7,522z M562.7,522h-2.1c-0.8,0-1.4-0.6-1.4-1.4s0.6-1.4,1.4-1.4h2.1c0.8,0,1.4,0.6,1.4,1.4
					C564.1,521.4,563.5,522,562.7,522z M555.6,522h-2.1c-0.8,0-1.4-0.6-1.4-1.4s0.6-1.4,1.4-1.4h2.1c0.8,0,1.4,0.6,1.4,1.4
					C557.1,521.4,556.4,522,555.6,522z M548.6,522h-2.1c-0.8,0-1.4-0.6-1.4-1.4s0.6-1.4,1.4-1.4h2.1c0.8,0,1.4,0.6,1.4,1.4
					C550,521.4,549.4,522,548.6,522z M541.6,522h-2.1c-0.8,0-1.4-0.6-1.4-1.4s0.6-1.4,1.4-1.4h2.1c0.8,0,1.4,0.6,1.4,1.4
					C543,521.4,542.3,522,541.6,522z M534.5,522h-2.1c-0.8,0-1.4-0.6-1.4-1.4s0.6-1.4,1.4-1.4h2.1c0.8,0,1.4,0.6,1.4,1.4
					C536,521.4,535.3,522,534.5,522z M527.5,522h-2.1c-0.8,0-1.4-0.6-1.4-1.4s0.6-1.4,1.4-1.4h2.1c0.8,0,1.4,0.6,1.4,1.4
					C528.9,521.4,528.3,522,527.5,522z M520.5,522h-2.1c-0.8,0-1.4-0.6-1.4-1.4s0.6-1.4,1.4-1.4h2.1c0.8,0,1.4,0.6,1.4,1.4
					C521.9,521.4,521.2,522,520.5,522z M514.1,521.3c-0.8,0-1.4-0.6-1.4-1.4v-2.1c0-0.8,0.6-1.4,1.4-1.4s1.4,0.6,1.4,1.4v2.1
					C515.5,520.7,514.9,521.3,514.1,521.3z M514.1,514.3c-0.8,0-1.4-0.6-1.4-1.4v-2.1c0-0.8,0.6-1.4,1.4-1.4s1.4,0.6,1.4,1.4v2.1
					C515.5,513.7,514.9,514.3,514.1,514.3z M514.1,507.2c-0.8,0-1.4-0.6-1.4-1.4v-2.1c0-0.8,0.6-1.4,1.4-1.4s1.4,0.6,1.4,1.4v2.1
					C515.5,506.6,514.9,507.2,514.1,507.2z M514.1,500.2c-0.8,0-1.4-0.6-1.4-1.4v-2.1c0-0.8,0.6-1.4,1.4-1.4s1.4,0.6,1.4,1.4v2.1
					C515.5,499.6,514.9,500.2,514.1,500.2z M514.1,493.2c-0.8,0-1.4-0.6-1.4-1.4v-2.1c0-0.8,0.6-1.4,1.4-1.4s1.4,0.6,1.4,1.4v2.1
					C515.5,492.6,514.9,493.2,514.1,493.2z M514.1,486.1c-0.8,0-1.4-0.6-1.4-1.4v-2.1c0-0.8,0.6-1.4,1.4-1.4s1.4,0.6,1.4,1.4v2.1
					C515.5,485.5,514.9,486.1,514.1,486.1z M514.1,479.1c-0.8,0-1.4-0.6-1.4-1.4v-2.1c0-0.8,0.6-1.4,1.4-1.4s1.4,0.6,1.4,1.4v2.1
					C515.5,478.5,514.9,479.1,514.1,479.1z M514.1,472.1c-0.8,0-1.4-0.6-1.4-1.4v-2.1c0-0.8,0.6-1.4,1.4-1.4s1.4,0.6,1.4,1.4v2.1
					C515.5,471.5,514.9,472.1,514.1,472.1z M514.1,465c-0.8,0-1.4-0.6-1.4-1.4v-2.1c0-0.8,0.6-1.4,1.4-1.4s1.4,0.6,1.4,1.4v2.1
					C515.5,464.4,514.9,465,514.1,465z M514.1,458c-0.8,0-1.4-0.6-1.4-1.4v-2.1c0-0.8,0.6-1.4,1.4-1.4s1.4,0.6,1.4,1.4v2.1
					C515.5,457.4,514.9,458,514.1,458z M514.1,451c-0.8,0-1.4-0.6-1.4-1.4v-2.1c0-0.8,0.6-1.4,1.4-1.4s1.4,0.6,1.4,1.4v2.1
					C515.5,450.4,514.9,451,514.1,451z"/>
			</g>
			<g>
				<path class="st14" d="M232.4,524.9h-1.1c-0.8,0-1.4-0.6-1.4-1.4s0.6-1.4,1.4-1.4h0.3l0.9-0.5c0.7-0.4,1.6-0.1,1.9,0.5
					c0.4,0.7,0.1,1.6-0.5,1.9L232.4,524.9z M226.4,524.9h-2.1c-0.8,0-1.4-0.6-1.4-1.4s0.6-1.4,1.4-1.4h2.1c0.8,0,1.4,0.6,1.4,1.4
					S227.2,524.9,226.4,524.9z M219.4,524.9h-2.1c-0.8,0-1.4-0.6-1.4-1.4s0.6-1.4,1.4-1.4h2.1c0.8,0,1.4,0.6,1.4,1.4
					S220.1,524.9,219.4,524.9z M212.3,524.9h-2.1c-0.8,0-1.4-0.6-1.4-1.4s0.6-1.4,1.4-1.4h2.1c0.8,0,1.4,0.6,1.4,1.4
					S213.1,524.9,212.3,524.9z M205.3,524.9h-2.1c-0.8,0-1.4-0.6-1.4-1.4s0.6-1.4,1.4-1.4h2.1c0.8,0,1.4,0.6,1.4,1.4
					S206.1,524.9,205.3,524.9z M198.3,524.9h-2.1c-0.8,0-1.4-0.6-1.4-1.4s0.6-1.4,1.4-1.4h2.1c0.8,0,1.4,0.6,1.4,1.4
					S199,524.9,198.3,524.9z M191.2,524.9h-2.1c-0.8,0-1.4-0.6-1.4-1.4s0.6-1.4,1.4-1.4h2.1c0.8,0,1.4,0.6,1.4,1.4
					S192,524.9,191.2,524.9z M184.2,524.9h-2.1c-0.8,0-1.4-0.6-1.4-1.4s0.6-1.4,1.4-1.4h2.1c0.8,0,1.4,0.6,1.4,1.4
					S185,524.9,184.2,524.9z M177.1,524.9H175c-0.8,0-1.4-0.6-1.4-1.4s0.6-1.4,1.4-1.4h2.1c0.8,0,1.4,0.6,1.4,1.4
					S177.9,524.9,177.1,524.9z M170.1,524.9H168c-0.8,0-1.4-0.6-1.4-1.4s0.6-1.4,1.4-1.4h2.1c0.8,0,1.4,0.6,1.4,1.4
					S170.9,524.9,170.1,524.9z M163.1,524.9h-2.1c-0.8,0-1.4-0.6-1.4-1.4s0.6-1.4,1.4-1.4h2.1c0.8,0,1.4,0.6,1.4,1.4
					S163.9,524.9,163.1,524.9z M156,524.9h-2.1c-0.8,0-1.4-0.6-1.4-1.4s0.6-1.4,1.4-1.4h2.1c0.8,0,1.4,0.6,1.4,1.4
					S156.8,524.9,156,524.9z M149,524.9h-2.1c-0.8,0-1.4-0.6-1.4-1.4s0.6-1.4,1.4-1.4h2.1c0.8,0,1.4,0.6,1.4,1.4
					S149.8,524.9,149,524.9z M141.9,524.9h-2.1c-0.8,0-1.4-0.6-1.4-1.4s0.6-1.4,1.4-1.4h2.1c0.8,0,1.4,0.6,1.4,1.4
					S142.7,524.9,141.9,524.9z M134.9,524.9h-2.1c-0.8,0-1.4-0.6-1.4-1.4s0.6-1.4,1.4-1.4h2.1c0.8,0,1.4,0.6,1.4,1.4
					S135.7,524.9,134.9,524.9z M127.9,524.9h-2.1c-0.8,0-1.4-0.6-1.4-1.4s0.6-1.4,1.4-1.4h2.1c0.8,0,1.4,0.6,1.4,1.4
					S128.6,524.9,127.9,524.9z M120.8,524.9h-2.1c-0.8,0-1.4-0.6-1.4-1.4s0.6-1.4,1.4-1.4h2.1c0.8,0,1.4,0.6,1.4,1.4
					S121.6,524.9,120.8,524.9z M114.5,524.1c-0.8,0-1.4-0.6-1.4-1.4v-2.1c0-0.8,0.6-1.4,1.4-1.4c0.8,0,1.4,0.6,1.4,1.4v2.1
					C115.9,523.5,115.3,524.1,114.5,524.1z M114.5,517.1c-0.8,0-1.4-0.6-1.4-1.4v-2.1c0-0.8,0.6-1.4,1.4-1.4c0.8,0,1.4,0.6,1.4,1.4
					v2.1C115.9,516.5,115.3,517.1,114.5,517.1z M114.5,510.1c-0.8,0-1.4-0.6-1.4-1.4v-2.1c0-0.8,0.6-1.4,1.4-1.4
					c0.8,0,1.4,0.6,1.4,1.4v2.1C115.9,509.4,115.3,510.1,114.5,510.1z M114.5,503c-0.8,0-1.4-0.6-1.4-1.4v-2.1
					c0-0.8,0.6-1.4,1.4-1.4c0.8,0,1.4,0.6,1.4,1.4v2.1C115.9,502.4,115.3,503,114.5,503z M114.5,496c-0.8,0-1.4-0.6-1.4-1.4v-2.1
					c0-0.8,0.6-1.4,1.4-1.4c0.8,0,1.4,0.6,1.4,1.4v2.1C115.9,495.4,115.3,496,114.5,496z M114.5,489c-0.8,0-1.4-0.6-1.4-1.4v-2.1
					c0-0.8,0.6-1.4,1.4-1.4c0.8,0,1.4,0.6,1.4,1.4v2.1C115.9,488.3,115.3,489,114.5,489z M114.5,481.9c-0.8,0-1.4-0.6-1.4-1.4v-2.1
					c0-0.8,0.6-1.4,1.4-1.4c0.8,0,1.4,0.6,1.4,1.4v2.1C115.9,481.3,115.3,481.9,114.5,481.9z M114.5,474.9c-0.8,0-1.4-0.6-1.4-1.4
					v-2.1c0-0.8,0.6-1.4,1.4-1.4c0.8,0,1.4,0.6,1.4,1.4v2.1C115.9,474.3,115.3,474.9,114.5,474.9z M114.5,467.9
					c-0.8,0-1.4-0.6-1.4-1.4v-2.1c0-0.8,0.6-1.4,1.4-1.4c0.8,0,1.4,0.6,1.4,1.4v2.1C115.9,467.2,115.3,467.9,114.5,467.9z
					 M132.8,462.9h-2.1c-0.8,0-1.4-0.6-1.4-1.4c0-0.8,0.6-1.4,1.4-1.4h2.1c0.8,0,1.4,0.6,1.4,1.4
					C134.2,462.3,133.6,462.9,132.8,462.9z M125.8,462.9h-2.1c-0.8,0-1.4-0.6-1.4-1.4c0-0.8,0.6-1.4,1.4-1.4h2.1
					c0.8,0,1.4,0.6,1.4,1.4C127.2,462.3,126.5,462.9,125.8,462.9z M118.7,462.9h-2.1c-0.8,0-1.4-0.6-1.4-1.4c0-0.8,0.6-1.4,1.4-1.4
					h2.1c0.8,0,1.4,0.6,1.4,1.4C120.1,462.3,119.5,462.9,118.7,462.9z"/>
			</g>
			<g>
				<path class="st5" d="M729,564.6c0,0,41-51.4,43.8-99.1c2.8-47.7-7.4-15.9-13.9,6.7s-14.6,37.8-20.4,41.9
					c-5.8,4.1,14.5-29.9,20.5-65.8c6-35.9,5.5-58.3-4-37.8c-9.4,20.5-15.7,57.3-26,77.6c-10.3,20.4-3.1-3.7-2.1-16.6
					c1-12.8,2.4-37.3-7.9-37.5c-10.3-0.1-7.5,33-18.7,59.3c-11.2,26.3-59.6,71.2-59.6,71.2H729z"/>
				<path class="st9" d="M768.9,453.5c-1.1,4.8-2.3,9.6-3.7,14.4c-0.3,1.2-0.7,2.4-1,3.6l-1,3.6l-2.1,7.1
					c-2.9,9.4-6.1,18.7-9.5,27.9c-3.4,9.2-7.3,18.1-11.4,26.9l-3.1,6.5c-0.3,0.5-0.5,1.1-0.8,1.6l-0.8,1.6l-1.7,3.2l-1.7,3.2
					c-0.6,1.1-1.2,2.1-1.8,3.1c-1.2,2.1-2.4,4.2-3.6,6.3l0,0c-0.1,0.1,0,0.3,0.1,0.4s0.2,0,0.3-0.1c1.3-2,2.6-4,3.9-6
					c0.7-1,1.3-2,1.9-3.1l1.8-3.1l1.8-3.2l0.9-1.6c0.3-0.5,0.6-1.1,0.9-1.6l3.3-6.5c1.1-2.1,2.1-4.4,3.1-6.6l1.5-3.3
					c0.3-0.5,0.5-1.1,0.8-1.7l0.7-1.7l2.8-6.8c0.9-2.3,1.7-4.6,2.6-6.9c3.5-9.2,6.5-18.6,9.2-28.2c0.7-2.4,1.3-4.8,2-7.2
					c0.6-2.4,1.2-4.8,1.8-7.2l0.8-3.6l0.8-3.6c0.5-2.4,1-4.9,1.5-7.3c0-0.1,0-0.3-0.2-0.3C769,453.3,768.9,453.4,768.9,453.5
					L768.9,453.5z"/>
				<path class="st9" d="M756.3,422.5c-3.6,11.9-7.2,23.8-10.8,35.6c-3.7,11.8-7.4,23.6-11.3,35.4c-1.9,5.9-4,11.7-6,17.5l-1.5,4.4
					c-0.5,1.5-1,2.9-1.6,4.4l-1.6,4.4l-1.6,4.3c-1.1,2.9-2.1,5.8-3.3,8.6c-0.5,1.4-1.1,2.9-1.7,4.3c-0.6,1.4-1.1,2.9-1.7,4.3
					c-2.3,5.7-4.8,11.3-7.5,16.7c-0.1,0.1,0,0.3,0.1,0.4s0.2,0,0.3-0.1c3.3-5,6.2-10.4,8.9-15.9c1.3-2.8,2.7-5.6,3.9-8.4
					c1.3-2.8,2.5-5.7,3.6-8.5c4.6-11.4,8.7-23.2,12.5-35s7.3-23.8,10.6-35.8c3.3-12,6.4-24.1,9-36.3c0-0.1,0-0.3-0.2-0.3
					C756.5,422.3,756.4,422.3,756.3,422.5z"/>
				<path class="st9" d="M719.7,453.6c-1.1,4.9-1.5,9.8-2,14.6c-0.2,2.4-0.5,4.8-0.8,7.2c-0.2,1.2-0.3,2.4-0.5,3.6
					c-0.1,0.6-0.2,1.2-0.3,1.8l-0.3,1.8c-0.3,2.4-0.9,4.7-1.4,7c-0.1,0.3-0.1,0.6-0.2,0.9l-0.2,0.9l-0.5,1.7l-0.9,3.5l-2.2,6.8
					l-2.4,6.8c-3.5,8.9-7.3,17.7-11.4,26.3c-1,2.2-2.1,4.3-3.1,6.4l-3.1,6.4c-2.2,4.3-4.3,8.5-6.5,12.8l0,0c-0.1,0.1,0,0.3,0.1,0.4
					c0.1,0.1,0.2,0,0.3-0.1c2.5-4,5-8,7.4-12.1c2.3-4.1,4.8-8.2,7-12.5c1.1-2.1,2.3-4.2,3.3-6.4l0.8-1.6c0.3-0.5,0.5-1.1,0.8-1.6
					l1.6-3.3c2.1-4.3,4-8.8,5.9-13.3c3.7-9,6.6-18.5,8.4-28.4l0.3-1.9c0.1-0.6,0.2-1.2,0.3-1.9c0.1-1.2,0.3-2.5,0.4-3.7
					c0.1-1.2,0.1-2.5,0.2-3.7c0.1-1.2,0.1-2.5,0.1-3.7c0-5-0.2-9.9-0.5-14.8c0-0.1-0.1-0.3-0.3-0.3
					C719.8,453.4,719.7,453.5,719.7,453.6z"/>
			</g>
		</g>
	</g>
</g>
</svg>
