<svg width="319" height="200" viewBox="0 0 319 200" fill="none" xmlns="http://www.w3.org/2000/svg">
<path d="M242.957 20.6948C246.903 56.5487 226.683 107.46 226.683 107.46C226.683 107.46 254.315 81.4387 253.712 50.6243L244.875 50.4768C244.875 50.4768 249.423 47.5023 253.295 45.0809C252.225 37.0669 249.091 28.8194 242.957 20.6948Z" fill="#07085B"/>
<path d="M211.256 62.1781L216.837 58.884L212.018 58.1834C213.456 52.1729 216.075 46.8508 219.184 42.2415C222.823 43.3477 226.99 44.5031 226.99 44.5031L222.38 37.9395C231.587 26.6438 242.945 20.707 242.945 20.707C246.89 56.5609 226.67 107.472 226.67 107.472C212.866 89.8582 209.462 74.6784 211.256 62.1781Z" fill="#55769F"/>
<path d="M256.896 56.106C250.848 58.7117 245.981 62.2885 242.084 66.3692C242.638 68.8644 243.24 71.8758 243.24 71.8758L239.515 69.2823C225.945 86.0231 226.13 108.664 226.13 108.664C239.454 103.17 247.419 95.8685 252.09 88.4691C251.143 87.0925 249.693 85.0644 249.693 85.0644L253.504 86.0477C255.507 82.3111 256.724 78.5991 257.425 75.133C255.446 74.6413 253.221 74.0145 253.221 74.0145L257.965 71.802C259.023 62.8047 256.896 56.106 256.896 56.106Z" fill="#FF5B7E"/>
<path d="M252.078 88.4695C251.131 87.0929 249.681 85.0648 249.681 85.0648L253.491 86.0481C255.495 82.3115 256.712 78.5995 257.412 75.1334C255.433 74.6417 253.208 74.0149 253.208 74.0149L257.953 71.8024C259.023 62.8174 256.896 56.1187 256.896 56.1187C239.773 74.6049 226.129 108.677 226.129 108.677C239.442 103.17 247.419 95.8812 252.078 88.4695Z" fill="#E03268"/>
<path d="M247.876 72.0336L202.365 152.135L243.075 175.263L288.586 95.1616L247.876 72.0336Z" fill="#8FD0D6"/>
<path d="M285.167 96.668L242.613 171.572L205.774 150.639L248.329 75.7358L285.167 96.668ZM241.568 167.774L281.381 97.7128L249.386 79.5339L209.572 149.595L241.568 167.774Z" fill="#CBEFEF"/>
<path d="M262.155 133.095C266.897 124.749 263.305 113.758 254.132 108.547C244.959 103.336 233.679 105.877 228.937 114.223C224.195 122.569 227.787 133.56 236.96 138.771C246.132 143.982 257.413 141.441 262.155 133.095Z" fill="#CBEFEF"/>
<path d="M241.888 118.215C240.867 117.944 239.909 117.907 238.987 118.559C239.11 118.67 239.196 118.756 239.306 118.817C240.732 119.641 242.158 120.44 243.572 121.275C243.879 121.46 244.051 121.423 244.321 121.177C244.936 120.612 245.587 120.071 246.264 119.579C248.636 117.846 251.107 118.166 253.319 119.8C255.986 121.767 256.724 124.274 255.728 127.458C255.544 128.036 255.679 128.306 256.183 128.54C256.552 128.712 256.896 128.933 257.277 129.166C256.921 129.781 256.589 130.371 256.22 130.998C255.667 130.678 255.114 130.359 254.573 130.051C251.623 133.69 248.058 133.235 245.821 132.165C246.325 131.01 246.829 129.855 247.345 128.675C248.722 129.056 250.013 129.031 251.414 128.245C250.627 127.79 249.939 127.396 249.263 127.003C248.329 126.462 247.394 125.946 246.472 125.393C246.128 125.184 245.907 125.196 245.612 125.467C244.653 126.339 243.596 127.077 242.33 127.433C239.749 128.146 237.585 127.274 235.84 125.467C234.205 123.783 233.972 121.669 234.746 119.456C234.795 119.309 234.844 119.161 234.894 119.014C234.906 118.965 234.918 118.903 234.93 118.792C234.488 118.547 234.045 118.289 233.554 118.006C233.91 117.379 234.242 116.801 234.623 116.138C234.955 116.322 235.299 116.494 235.606 116.715C235.938 116.949 236.135 116.863 236.381 116.568C237.463 115.24 238.815 114.392 240.572 114.282C241.494 114.22 242.392 114.368 243.313 114.749C242.834 115.904 242.367 117.035 241.888 118.215ZM247.677 123.586C249.349 124.545 250.984 125.491 252.618 126.425C253.159 125.221 252.68 123.734 251.5 122.91C250.344 122.111 248.869 122.345 247.677 123.586ZM237.819 120.489C237.647 121.792 238.188 122.959 239.122 123.426C240.154 123.943 241.445 123.746 242.183 122.996C240.757 122.173 239.319 121.349 237.819 120.489Z" fill="#8FD0D6"/>
<path d="M231.44 148.353C230.223 147.664 228.674 148.082 227.974 149.311C227.285 150.528 227.703 152.077 228.932 152.778C230.149 153.466 231.698 153.048 232.399 151.819C233.087 150.602 232.657 149.053 231.44 148.353Z" fill="#CBEFEF"/>
<path d="M262.157 94.2951C260.94 93.6067 259.391 94.0246 258.691 95.2538C258.002 96.4706 258.42 98.0194 259.649 98.72C260.866 99.4083 262.415 98.9904 263.116 97.7612C263.792 96.5321 263.374 94.9834 262.157 94.2951Z" fill="#CBEFEF"/>
<path d="M278.247 113.347C278.112 113.236 281.492 107.631 281.492 107.631L237.536 124.606L238.114 128.072L278.247 113.347Z" fill="#8FD0D6"/>
<path d="M302.744 104.151L216.347 136.136L232.603 180.042L319 148.057L302.744 104.151Z" fill="#8FD0D6"/>
<path d="M315.418 147.013L234.623 176.918L219.91 137.192L300.717 107.275L315.418 147.013ZM236.27 173.341L311.841 145.366L299.07 110.864L223.499 138.839L236.27 173.341Z" fill="#CBEFEF"/>
<path d="M274.362 160.061C283.364 156.728 287.693 146.006 284.03 136.114C280.367 126.221 270.1 120.903 261.098 124.235C252.096 127.568 247.768 138.289 251.43 148.182C255.093 158.075 265.36 163.393 274.362 160.061Z" fill="#CBEFEF"/>
<path d="M268.426 135.631C267.811 134.758 267.111 134.119 265.992 134.033C266.017 134.193 266.029 134.328 266.066 134.439C266.631 135.987 267.197 137.524 267.75 139.072C267.873 139.417 268.033 139.49 268.389 139.478C269.225 139.441 270.061 139.441 270.897 139.503C273.822 139.712 275.518 141.543 276.158 144.21C276.92 147.431 275.887 149.827 273.072 151.622C272.556 151.954 272.482 152.249 272.728 152.753C272.9 153.122 273.011 153.515 273.171 153.933C272.507 154.179 271.868 154.412 271.179 154.658C270.958 154.056 270.737 153.453 270.528 152.876C265.931 153.761 263.497 151.118 262.464 148.856C263.595 148.303 264.726 147.738 265.881 147.16C266.693 148.328 267.688 149.151 269.274 149.459C268.967 148.598 268.696 147.861 268.426 147.123C268.057 146.115 267.676 145.108 267.332 144.087C267.209 143.706 267.025 143.571 266.619 143.583C265.316 143.633 264.038 143.522 262.845 142.969C260.412 141.863 259.318 139.785 259.146 137.278C258.986 134.943 260.166 133.173 262.169 131.98C262.305 131.894 262.44 131.821 262.575 131.735C262.624 131.71 262.661 131.661 262.747 131.587C262.575 131.108 262.391 130.628 262.206 130.1C262.882 129.854 263.509 129.62 264.222 129.362C264.357 129.719 264.505 130.075 264.603 130.444C264.714 130.837 264.91 130.899 265.291 130.825C266.975 130.505 268.561 130.727 269.975 131.771C270.725 132.325 271.302 133.013 271.782 133.898C270.638 134.463 269.557 135.029 268.426 135.631ZM269.397 143.461C270.061 145.28 270.7 147.037 271.351 148.807C272.544 148.242 273.134 146.791 272.753 145.403C272.384 144.05 271.118 143.288 269.397 143.461ZM263.853 134.758C262.882 135.643 262.55 136.885 262.968 137.843C263.423 138.9 264.542 139.589 265.586 139.478C265.009 137.929 264.443 136.381 263.853 134.758Z" fill="#8FD0D6"/>
<path d="M241.027 151.966C240.536 150.651 239.085 149.975 237.77 150.467C236.455 150.958 235.779 152.409 236.27 153.724C236.762 155.039 238.213 155.715 239.528 155.223C240.843 154.744 241.507 153.281 241.027 151.966Z" fill="#CBEFEF"/>
<path d="M299.34 130.383C298.848 129.068 297.398 128.392 296.083 128.883C294.768 129.375 294.092 130.825 294.583 132.14C295.075 133.456 296.525 134.132 297.841 133.64C299.156 133.148 299.82 131.698 299.34 130.383Z" fill="#CBEFEF"/>
<path d="M304.112 137.801L211.985 138.084L212.129 184.902L304.257 184.619L304.112 137.801Z" fill="#8FD0D6"/>
<path d="M301.258 182.4L215.104 182.67L214.969 140.302L301.122 140.032L301.258 182.4ZM217.882 179.868L298.467 179.622L298.357 142.822L217.771 143.068L217.882 179.868Z" fill="#CBEFEF"/>
<path d="M258.21 180.52C267.809 180.49 275.565 171.914 275.532 161.365C275.499 150.816 267.691 142.289 258.092 142.319C248.493 142.348 240.737 150.924 240.77 161.473C240.803 172.022 248.611 180.55 258.21 180.52Z" fill="#CBEFEF"/>
<path d="M261.051 155.531C260.78 154.511 260.338 153.662 259.318 153.183C259.293 153.343 259.256 153.466 259.256 153.589C259.256 155.236 259.256 156.87 259.244 158.518C259.244 158.874 259.354 159.009 259.699 159.12C260.498 159.378 261.284 159.673 262.046 160.005C264.726 161.209 265.685 163.508 265.365 166.237C264.972 169.531 263.177 171.411 259.92 172.136C259.33 172.272 259.158 172.517 259.207 173.071C259.244 173.476 259.207 173.882 259.207 174.337C258.494 174.337 257.83 174.337 257.093 174.337C257.093 173.697 257.093 173.058 257.093 172.431C252.471 171.682 251.094 168.351 250.91 165.88C252.164 165.745 253.417 165.61 254.708 165.474C255.065 166.851 255.728 167.957 257.105 168.793C257.105 167.884 257.105 167.097 257.105 166.31C257.105 165.241 257.093 164.159 257.117 163.09C257.13 162.697 257.007 162.5 256.626 162.377C255.396 161.984 254.229 161.431 253.295 160.496C251.389 158.616 251.082 156.293 251.783 153.884C252.434 151.634 254.155 150.381 256.454 149.95C256.601 149.926 256.761 149.889 256.908 149.864C256.97 149.852 257.019 149.828 257.117 149.791C257.117 149.287 257.117 148.77 257.117 148.205C257.843 148.205 258.506 148.205 259.268 148.205C259.268 148.586 259.293 148.967 259.256 149.348C259.219 149.754 259.391 149.877 259.772 149.938C261.456 150.221 262.87 150.971 263.841 152.433C264.357 153.208 264.665 154.056 264.8 155.051C263.534 155.211 262.329 155.371 261.051 155.531ZM259.268 163.225C259.268 165.155 259.256 167.035 259.256 168.916C260.571 168.793 261.628 167.638 261.751 166.2C261.874 164.811 260.94 163.655 259.268 163.225ZM257.068 153.146C255.851 153.638 255.114 154.695 255.175 155.74C255.237 156.883 256.048 157.915 257.068 158.173C257.056 156.526 257.056 154.867 257.068 153.146Z" fill="#8FD0D6"/>
<path d="M229.707 161.431C229.707 160.03 228.564 158.899 227.162 158.899C225.761 158.899 224.63 160.042 224.63 161.443C224.63 162.844 225.773 163.975 227.175 163.975C228.576 163.975 229.707 162.832 229.707 161.431Z" fill="#CBEFEF"/>
<path d="M291.891 161.247C291.891 159.846 290.748 158.715 289.347 158.715C287.946 158.715 286.815 159.858 286.815 161.259C286.815 162.66 287.958 163.791 289.359 163.791C290.76 163.791 291.891 162.648 291.891 161.247Z" fill="#CBEFEF"/>
<path d="M304.159 153.54L304.109 137.795L239.786 137.93L239.159 134.206L307.625 133.997L307.674 152.249L304.159 153.54Z" fill="#8FD0D6"/>
<path d="M78.8453 54.16L59.834 58.9033L64.7531 78.6175L83.7644 73.8742L78.8453 54.16Z" fill="#CFE8EA"/>
<path d="M19.0184 69.0843L0.00708008 73.8276L4.92619 93.5418L23.9376 88.7985L19.0184 69.0843Z" fill="#CFE8EA"/>
<path d="M97.3227 128.244L83.7647 73.8672L64.7492 78.6116L78.4915 133.689L78.5898 133.972C78.6882 134.291 79.6838 137.573 79.9665 141.937C80.2124 145.673 79.9911 151.069 77.5082 155.519C75.0989 159.858 70.8336 162.807 64.5033 164.516C63.9502 164.639 63.397 164.749 62.8562 164.848L67.6009 183.887C67.8959 183.826 68.1786 183.764 68.4736 183.703V183.727C68.7317 183.666 68.9776 183.604 69.2357 183.531C69.4938 183.469 69.7397 183.408 69.9978 183.346V183.322C75.6275 181.748 80.5688 179.401 84.6989 176.328C88.8782 173.218 92.2461 169.371 94.7168 164.885C96.9048 160.902 98.3921 156.416 99.1173 151.561C99.6704 147.861 99.7811 143.928 99.4615 139.884C98.9944 134.083 97.7652 129.658 97.3227 128.244Z" fill="#74BDC1"/>
<path d="M48.7941 162.672C44.5165 159.906 41.7877 155.248 40.2512 151.831C38.4566 147.849 37.7929 144.481 37.7314 144.149L37.6822 143.854L23.9399 88.7886L4.92432 93.533L18.4946 147.91C18.7773 149.36 19.7606 153.847 22.0715 159.181C23.6818 162.905 25.6362 166.31 27.861 169.322C30.7865 173.267 34.1913 176.537 38.0018 179.019C42.2917 181.822 47.0732 183.641 52.2235 184.415C57.0543 185.153 62.2169 184.956 67.613 183.862L62.8683 164.823C57.2141 165.843 52.5923 165.13 48.7941 162.672Z" fill="#FF5B7E"/>
<path d="M258.553 175.444C271.566 162.431 271.566 141.333 258.553 128.32C245.539 115.308 224.44 115.308 211.427 128.32C198.413 141.333 198.413 162.431 211.427 175.444C224.44 188.457 245.539 188.457 258.553 175.444Z" fill="#F4A640"/>
<path d="M256.18 173.072C267.883 161.369 267.883 142.396 256.18 130.693C244.477 118.991 225.502 118.991 213.799 130.693C202.097 142.396 202.097 161.369 213.799 173.072C225.502 184.774 244.477 184.774 256.18 173.072Z" fill="#F9CC4B"/>
<path d="M235.299 179.929C219.836 180.089 207.114 167.65 206.942 152.176C206.782 136.713 219.221 123.991 234.697 123.819C250.16 123.66 262.882 136.098 263.054 151.573C263.214 167.048 250.762 179.77 235.299 179.929ZM234.709 124.864C219.811 125.024 207.814 137.278 207.974 152.176C208.134 167.073 220.389 179.069 235.287 178.909C250.185 178.749 262.182 166.495 262.022 151.598C261.862 136.688 249.607 124.704 234.709 124.864Z" fill="#F4A640"/>
<path opacity="0.5" d="M239.565 143.006C239.122 141.445 238.446 140.154 236.86 139.441C236.824 139.687 236.762 139.884 236.762 140.068C236.787 142.588 236.836 145.108 236.836 147.615C236.836 148.168 237.02 148.365 237.549 148.525C238.778 148.906 239.995 149.336 241.163 149.84C245.293 151.634 246.805 155.137 246.362 159.329C245.834 164.381 243.092 167.318 238.127 168.474C237.217 168.683 236.959 169.076 237.045 169.924C237.106 170.539 237.069 171.165 237.082 171.854C235.988 171.866 234.968 171.878 233.837 171.891C233.824 170.907 233.812 169.924 233.8 168.978C226.707 167.908 224.519 162.844 224.188 159.058C226.105 158.825 228.023 158.591 230.002 158.358C230.579 160.472 231.612 162.156 233.738 163.397C233.726 161.996 233.714 160.791 233.701 159.587C233.689 157.94 233.64 156.293 233.665 154.646C233.677 154.044 233.492 153.749 232.89 153.564C230.985 152.974 229.19 152.151 227.74 150.749C224.79 147.898 224.261 144.346 225.294 140.634C226.253 137.167 228.858 135.213 232.374 134.5C232.607 134.451 232.841 134.414 233.075 134.353C233.161 134.328 233.247 134.291 233.406 134.23C233.394 133.455 233.394 132.657 233.382 131.796C234.488 131.784 235.521 131.772 236.676 131.759C236.676 132.337 236.725 132.927 236.688 133.517C236.639 134.132 236.91 134.328 237.487 134.427C240.081 134.82 242.269 135.951 243.781 138.175C244.58 139.355 245.071 140.646 245.305 142.17C243.363 142.465 241.507 142.723 239.565 143.006ZM236.971 154.842C237.008 157.805 237.033 160.693 237.069 163.569C239.073 163.348 240.671 161.554 240.843 159.366C240.991 157.215 239.54 155.457 236.971 154.842ZM233.394 139.417C231.55 140.203 230.42 141.838 230.53 143.424C230.653 145.181 231.907 146.742 233.48 147.123C233.443 144.604 233.419 142.072 233.394 139.417Z" fill="#FFF9FF"/>
<path d="M75.2095 168.474C75.2095 168.474 89.8491 148.242 82.2527 144.494C82.2527 144.494 80.9006 142.343 75.4307 150.025C75.4307 150.025 72.0504 151.131 71.8661 147.222C71.6694 143.301 77.213 137.352 73.6853 133.948C70.1452 130.555 68.326 136.664 65.8307 137.819C63.3355 138.975 64.5155 123.365 61.0615 121.693C57.6074 120.021 56.661 126.179 54.7311 126.892C52.8013 127.605 47.0856 109.414 37.842 112.806C28.5985 116.187 39.1573 122.996 43.5947 127.212C48.032 131.428 38.8746 129.08 37.9158 134.464C36.957 139.847 53.3053 135.509 51.818 140.757C50.3429 145.993 45.6597 143.006 44.787 146.927C43.3734 153.257 59.5619 147.173 59.2054 151.536C58.9104 155.015 53.0471 152.729 52.4203 155.408C51.7688 158.088 61.9342 167.724 75.2095 168.474Z" fill="#07085B"/>
<path opacity="0.1" d="M82.7565 144.8C82.6951 144.751 82.6213 144.714 82.5476 144.665C82.2649 145.501 81.933 146.411 81.5028 147.345C79.954 150.811 77.0162 155.506 71.7799 158.186C70.4401 155.297 68.7929 152.261 66.8262 149.115C68.2152 141.199 70.9932 136.786 73.0705 134.476C73.2549 134.279 73.427 134.082 73.5991 133.91C73.5376 133.849 73.4761 133.8 73.4147 133.75C73.2426 133.922 73.0705 134.107 72.8984 134.304C70.8088 136.614 68.0431 141.002 66.6296 148.82C66.6173 148.807 66.6173 148.795 66.605 148.783C64.5768 145.55 62.2291 142.195 59.574 138.741C59.5248 138.397 59.07 135.053 59.0946 131.059C59.1192 128.182 59.3896 124.532 60.4344 121.496C60.3484 121.471 60.2746 121.459 60.2009 121.447C59.1561 124.507 58.8734 128.17 58.8611 131.059C58.8365 134.402 59.1561 137.29 59.2913 138.36C57.2631 135.729 55.0629 133.038 52.6905 130.309C46.0898 122.7 39.7595 116.518 36.4529 113.408C36.3792 113.445 36.3054 113.494 36.2317 113.531C39.5136 116.616 45.8808 122.811 52.5185 130.456C53.637 131.747 54.7802 133.111 55.9479 134.537C55.0506 134.377 52.3587 133.947 48.8555 133.8C45.9054 133.664 41.9351 133.714 37.8911 134.439C37.8911 134.451 37.8911 134.463 37.8788 134.476C37.8665 134.549 37.8542 134.623 37.8542 134.685C41.8983 133.947 45.8808 133.898 48.8309 134.033C52.8258 134.217 55.7758 134.746 56.1692 134.82C58.7504 137.979 61.3932 141.445 63.8639 145.071C58.1727 144.358 49.1259 146.324 44.6639 147.431C44.6516 147.517 44.6516 147.603 44.6516 147.677C49.1259 146.57 58.3817 144.555 64.036 145.341C67.5515 150.504 70.7105 155.985 72.8493 161.369C68.0923 162.143 62.438 160.029 58.5169 158.112C56.0954 156.92 54.0181 155.666 52.6537 154.781C52.6045 154.842 52.5553 154.904 52.5185 154.978C53.8829 155.863 55.9725 157.129 58.4063 158.321C62.3766 160.263 68.1046 162.402 72.9353 161.603C73.8449 163.926 74.5578 166.224 75.0372 168.474C75.0741 168.474 75.1233 168.474 75.1601 168.486C75.1601 168.486 75.197 168.437 75.2585 168.351C74.5947 165.265 73.4639 161.947 71.8536 158.419C72.1978 158.247 72.5297 158.063 72.8616 157.866C74.7914 156.723 76.5245 155.236 78.0242 153.429C79.4623 151.708 80.6915 149.692 81.6871 147.455C82.1419 146.509 82.4861 145.612 82.7565 144.8Z" fill="white"/>
<path d="M84.6623 173.648C84.6623 173.648 71.7435 159.145 47.5899 160.128L51.7814 165.905L45.0331 160.607C45.0331 160.607 31.0327 161.763 21.4941 165.192C21.4941 165.192 41.997 175.996 47.1719 176.942L54.08 174.89L50.331 180.052C50.331 180.052 61.6149 186.321 73.2185 185.042C84.8343 183.752 84.6623 173.648 84.6623 173.648Z" fill="#8FD0D6"/>
<path d="M146.502 63.8008H221.753C225.035 63.8008 227.69 66.4557 227.69 69.7375V179.733C227.69 183.015 225.035 185.67 221.753 185.67H146.502C143.22 185.67 140.565 183.015 140.565 179.733V69.7252C140.578 66.4557 143.233 63.8008 146.502 63.8008Z" fill="#333333"/>
<path d="M220.672 73.8184H148.42V92.4029H220.672V73.8184Z" fill="#3CB4C5"/>
<path opacity="0.5" d="M150.338 76.4979H220.672V73.8184H148.42V92.4029H150.338V76.4979Z" fill="#3CB4C5"/>
<path d="M166.551 104.411H151.014C149.576 104.411 148.42 103.243 148.42 101.818V100.306C148.42 98.8678 149.588 97.7124 151.014 97.7124H166.551C167.989 97.7124 169.144 98.8801 169.144 100.306V101.818C169.144 103.243 167.989 104.411 166.551 104.411Z" fill="#E87B50"/>
<path d="M192.314 104.411H176.777C175.339 104.411 174.184 103.243 174.184 101.818V100.306C174.184 98.8678 175.352 97.7124 176.777 97.7124H192.314C193.753 97.7124 194.908 98.8801 194.908 100.306V101.818C194.908 103.243 193.74 104.411 192.314 104.411Z" fill="#E87B50"/>
<path d="M218.066 104.411H202.529C201.091 104.411 199.936 103.243 199.936 101.818V100.306C199.936 98.8678 201.103 97.7124 202.529 97.7124H218.066C219.504 97.7124 220.66 98.8801 220.66 100.306V101.818C220.672 103.243 219.504 104.411 218.066 104.411Z" fill="#E87B50"/>
<path d="M160.835 124.729H152.059C150.055 124.729 148.42 123.106 148.42 121.09V113.347C148.42 111.343 150.043 109.708 152.059 109.708H160.835C162.839 109.708 164.473 111.331 164.473 113.347V121.09C164.461 123.094 162.839 124.729 160.835 124.729Z" fill="#CFE4FF"/>
<path d="M179.568 124.729H170.791C168.788 124.729 167.153 123.106 167.153 121.09V113.347C167.153 111.343 168.776 109.708 170.791 109.708H179.568C181.571 109.708 183.206 111.331 183.206 113.347V121.09C183.194 123.094 181.571 124.729 179.568 124.729Z" fill="#CFE4FF"/>
<path d="M198.301 124.729H189.524C187.521 124.729 185.886 123.106 185.886 121.09V113.347C185.886 111.343 187.509 109.708 189.524 109.708H198.301C200.304 109.708 201.939 111.331 201.939 113.347V121.09C201.927 123.094 200.304 124.729 198.301 124.729Z" fill="#CFE4FF"/>
<path d="M160.835 143.24H152.059C150.055 143.24 148.42 141.617 148.42 139.602V131.858C148.42 129.854 150.043 128.22 152.059 128.22H160.835C162.839 128.22 164.473 129.842 164.473 131.858V139.602C164.461 141.605 162.839 143.24 160.835 143.24Z" fill="#CFE4FF"/>
<path d="M179.568 143.24H170.791C168.788 143.24 167.153 141.617 167.153 139.602V131.858C167.153 129.854 168.776 128.22 170.791 128.22H179.568C181.571 128.22 183.206 129.842 183.206 131.858V139.602C183.194 141.605 181.571 143.24 179.568 143.24Z" fill="#CFE4FF"/>
<path d="M198.301 143.24H189.524C187.521 143.24 185.886 141.617 185.886 139.602V131.858C185.886 129.854 187.509 128.22 189.524 128.22H198.301C200.304 128.22 201.939 129.842 201.939 131.858V139.602C201.927 141.605 200.304 143.24 198.301 143.24Z" fill="#CFE4FF"/>
<path d="M217.402 109.708H207.901C206.094 109.708 204.631 111.171 204.631 112.978V117.624V121.459V139.97C204.631 141.777 206.094 143.239 207.901 143.239H217.402C219.209 143.239 220.672 141.777 220.672 139.97V121.459V117.624V112.978C220.672 111.171 219.209 109.708 217.402 109.708Z" fill="#FDB137"/>
<path d="M160.835 161.751H152.059C150.055 161.751 148.42 160.128 148.42 158.112V150.369C148.42 148.365 150.043 146.73 152.059 146.73H160.835C162.839 146.73 164.473 148.353 164.473 150.369V158.112C164.461 160.116 162.839 161.751 160.835 161.751Z" fill="#CFE4FF"/>
<path d="M179.568 161.751H170.791C168.788 161.751 167.153 160.128 167.153 158.112V150.369C167.153 148.365 168.776 146.73 170.791 146.73H179.568C181.571 146.73 183.206 148.353 183.206 150.369V158.112C183.194 160.116 181.571 161.751 179.568 161.751Z" fill="#CFE4FF"/>
<path d="M198.301 161.751H189.524C187.521 161.751 185.886 160.128 185.886 158.112V150.369C185.886 148.365 187.509 146.73 189.524 146.73H198.301C200.304 146.73 201.939 148.353 201.939 150.369V158.112C201.927 160.116 200.304 161.751 198.301 161.751Z" fill="#CFE4FF"/>
<path d="M217.034 161.751H208.257C206.254 161.751 204.619 160.128 204.619 158.112V150.369C204.619 148.365 206.241 146.73 208.257 146.73H217.034C219.037 146.73 220.672 148.353 220.672 150.369V158.112C220.672 160.116 219.037 161.751 217.034 161.751Z" fill="#FDB137"/>
<path d="M160.835 180.261H152.059C150.055 180.261 148.42 178.639 148.42 176.623V168.879C148.42 166.876 150.043 165.241 152.059 165.241H160.835C162.839 165.241 164.473 166.864 164.473 168.879V176.623C164.461 178.627 162.839 180.261 160.835 180.261Z" fill="#CFE4FF"/>
<path d="M179.568 180.261H170.791C168.788 180.261 167.153 178.639 167.153 176.623V168.879C167.153 166.876 168.776 165.241 170.791 165.241H179.568C181.571 165.241 183.206 166.864 183.206 168.879V176.623C183.194 178.627 181.571 180.261 179.568 180.261Z" fill="#CFE4FF"/>
<path d="M198.301 180.261H189.524C187.521 180.261 185.886 178.639 185.886 176.623V168.879C185.886 166.876 187.509 165.241 189.524 165.241H198.301C200.304 165.241 201.939 166.864 201.939 168.879V176.623C201.927 178.627 200.304 180.261 198.301 180.261Z" fill="#FDB137"/>
<path d="M217.034 180.261H208.257C206.254 180.261 204.619 178.639 204.619 176.623V168.879C204.619 166.876 206.241 165.241 208.257 165.241H217.034C219.037 165.241 220.672 166.864 220.672 168.879V176.623C220.672 178.627 219.037 180.261 217.034 180.261Z" fill="#E87B50"/>
<path d="M159.188 150.295V151.057L155.488 158.801H154.296L157.983 151.278V151.254H153.816V150.295H159.188Z" fill="white"/>
<path d="M172.365 156.637C172.365 155.568 173.004 154.806 174.049 154.363L174.036 154.326C173.09 153.884 172.684 153.146 172.684 152.421C172.684 151.069 173.827 150.16 175.315 150.16C176.962 150.16 177.786 151.192 177.786 152.249C177.786 152.974 177.429 153.736 176.384 154.24V154.277C177.441 154.695 178.093 155.445 178.093 156.477C178.093 157.952 176.827 158.948 175.204 158.948C173.434 158.948 172.365 157.879 172.365 156.637ZM176.95 156.588C176.95 155.556 176.224 155.052 175.081 154.732C174.086 155.015 173.545 155.678 173.545 156.49C173.508 157.35 174.159 158.112 175.241 158.112C176.286 158.112 176.95 157.461 176.95 156.588ZM173.778 152.335C173.778 153.183 174.418 153.638 175.401 153.909C176.138 153.663 176.692 153.134 176.692 152.36C176.692 151.684 176.286 150.971 175.253 150.971C174.307 150.971 173.778 151.598 173.778 152.335Z" fill="white"/>
<path d="M178.13 172.739C178.13 175.627 177.06 177.225 175.167 177.225C173.508 177.225 172.377 175.664 172.353 172.849C172.353 169.998 173.582 168.424 175.315 168.424C177.109 168.437 178.13 170.034 178.13 172.739ZM173.508 172.874C173.508 175.086 174.184 176.34 175.241 176.34C176.421 176.34 176.987 174.963 176.987 172.788C176.987 170.698 176.446 169.322 175.253 169.322C174.233 169.322 173.508 170.551 173.508 172.874Z" fill="white"/>
<path d="M192.143 157.989C192.388 158.014 192.683 157.989 193.077 157.952C193.74 157.866 194.367 157.584 194.859 157.129C195.424 156.613 195.83 155.875 195.99 154.867H195.953C195.486 155.445 194.798 155.789 193.949 155.789C192.413 155.789 191.442 154.634 191.442 153.183C191.442 151.573 192.61 150.16 194.343 150.16C196.088 150.16 197.158 151.573 197.158 153.749C197.158 155.617 196.531 156.932 195.695 157.743C195.043 158.383 194.134 158.776 193.224 158.887C192.806 158.948 192.438 158.96 192.167 158.948V157.989H192.143ZM192.56 153.097C192.56 154.154 193.2 154.904 194.195 154.904C194.97 154.904 195.572 154.523 195.867 154.019C195.928 153.909 195.978 153.786 195.978 153.601C195.978 152.151 195.437 151.032 194.232 151.032C193.261 151.032 192.56 151.893 192.56 153.097Z" fill="white"/>
<path d="M157.221 139.933V137.623H153.263V136.861L157.061 131.428H158.303V136.713H159.495V137.61H158.303V139.921H157.221V139.933ZM157.221 136.713V133.874C157.221 133.431 157.233 132.989 157.258 132.534H157.221C156.963 133.026 156.754 133.394 156.521 133.788L154.443 136.676V136.701H157.221V136.713Z" fill="white"/>
<path d="M177.552 132.387H174.307L173.975 134.574C174.172 134.55 174.356 134.525 174.663 134.525C175.315 134.525 175.966 134.673 176.495 134.98C177.159 135.361 177.712 136.086 177.712 137.168C177.712 138.827 176.384 140.069 174.541 140.069C173.606 140.069 172.832 139.811 172.426 139.54L172.709 138.667C173.065 138.876 173.754 139.134 174.528 139.134C175.61 139.134 176.544 138.422 176.544 137.291C176.532 136.197 175.794 135.41 174.098 135.41C173.619 135.41 173.238 135.459 172.918 135.496L173.471 131.416H177.54V132.387H177.552Z" fill="white"/>
<path d="M196.334 132.239C196.1 132.227 195.793 132.239 195.473 132.288C193.667 132.583 192.708 133.91 192.511 135.312H192.548C192.954 134.771 193.654 134.328 194.601 134.328C196.1 134.328 197.17 135.41 197.17 137.082C197.17 138.643 196.113 140.081 194.343 140.081C192.523 140.081 191.331 138.667 191.331 136.455C191.331 134.783 191.933 133.456 192.769 132.62C193.47 131.932 194.416 131.489 195.486 131.366C195.83 131.317 196.113 131.305 196.322 131.305V132.239H196.334ZM196.002 137.143C196.002 135.926 195.314 135.189 194.244 135.189C193.556 135.189 192.904 135.619 192.597 136.234C192.523 136.369 192.462 136.529 192.462 136.75C192.486 138.151 193.126 139.183 194.33 139.183C195.338 139.183 196.002 138.36 196.002 137.143Z" fill="white"/>
<path d="M156.164 114.404H156.139L154.664 115.203L154.443 114.331L156.299 113.335H157.283V121.841H156.164V114.404Z" fill="white"/>
<path d="M172.475 121.84V121.14L173.373 120.267C175.548 118.202 176.532 117.096 176.544 115.818C176.544 114.957 176.126 114.158 174.86 114.158C174.086 114.158 173.446 114.552 173.053 114.884L172.684 114.072C173.274 113.581 174.11 113.212 175.094 113.212C176.925 113.212 177.699 114.466 177.699 115.682C177.699 117.256 176.556 118.522 174.774 120.255L174.098 120.882V120.906H177.921V121.865H172.475V121.84Z" fill="white"/>
<path d="M191.749 120.525C192.081 120.734 192.831 121.066 193.63 121.066C195.105 121.066 195.572 120.12 195.56 119.419C195.547 118.227 194.478 117.723 193.359 117.723H192.72V116.862H193.359C194.195 116.862 195.252 116.432 195.252 115.424C195.252 114.748 194.822 114.146 193.765 114.146C193.089 114.146 192.425 114.441 192.069 114.711L191.774 113.876C192.216 113.544 193.077 113.224 193.999 113.224C195.67 113.224 196.432 114.22 196.432 115.252C196.432 116.125 195.904 116.875 194.859 117.256V117.28C195.904 117.489 196.752 118.276 196.752 119.468C196.752 120.832 195.695 122.025 193.654 122.025C192.696 122.025 191.86 121.73 191.442 121.447L191.749 120.525Z" fill="white"/>
<path d="M157.467 175.959C157.467 176.525 157.012 176.979 156.447 176.979C155.881 176.979 155.427 176.525 155.427 175.959C155.427 175.394 155.881 174.939 156.447 174.939C157.012 174.939 157.467 175.394 157.467 175.959Z" fill="white"/>
<path d="M218.742 127.015H213.346V121.619H211.957V127.015H206.549V128.403H211.957V133.799H213.346V128.403H218.742V127.015Z" fill="white"/>
<path d="M197.502 175.947L194.65 173.083L197.502 170.231L196.764 169.494L193.913 172.345L191.049 169.494L190.311 170.231L193.175 173.083L190.311 175.947L191.049 176.684L193.913 173.82L196.764 176.684L197.502 175.947Z" fill="white"/>
<path d="M216.837 153.945H207.79V155.334H216.837V153.945Z" fill="white"/>
<path d="M217.169 169.949H208.122V171.338H217.169V169.949Z" fill="white"/>
<path d="M217.169 173.439H208.122V174.828H217.169V173.439Z" fill="white"/>
<path d="M160.798 120.771H130.326V133.665H160.798V120.771Z" fill="#F4A640"/>
<path d="M130.326 120.771H99.8547V133.665H130.326V120.771Z" fill="#FEB546"/>
<path d="M99.8549 120.771H69.3833V133.665H99.8549V120.771Z" fill="#F9C27A"/>
<path d="M161.044 134.046H69.1497V120.402H161.044V134.046ZM69.6167 133.296H160.552V121.164H69.6167V133.296Z" fill="#E2881E"/>
<path d="M156.127 146.57H125.656V159.464H156.127V146.57Z" fill="#F4A640"/>
<path d="M125.656 146.57H95.1841V159.464H125.656V146.57Z" fill="#FEB546"/>
<path d="M95.184 146.57H64.7124V159.464H95.184V146.57Z" fill="#F9C27A"/>
<path d="M156.373 159.833H64.4788V146.177H156.373V159.833ZM64.9581 159.083H155.894V146.952H64.9581V159.083Z" fill="#E2881E"/>
<path d="M160.798 159.464H130.326V172.358H160.798V159.464Z" fill="#F4A640"/>
<path d="M130.326 159.464H99.8547V172.358H130.326V159.464Z" fill="#FEB546"/>
<path d="M99.8549 159.464H69.3833V172.358H99.8549V159.464Z" fill="#F9C27A"/>
<path d="M161.044 172.726H69.1497V159.071H161.044V172.726ZM69.6167 171.977H160.552V159.845H69.6167V171.977Z" fill="#E2881E"/>
<path d="M168.161 172.357H137.689V185.251H168.161V172.357Z" fill="#F4A640"/>
<path d="M137.69 172.357H107.218V185.251H137.69V172.357Z" fill="#FEB546"/>
<path d="M107.206 172.357H76.7341V185.251H107.206V172.357Z" fill="#F9C27A"/>
<path d="M168.395 185.632H76.5005V171.977H168.395V185.632ZM76.9799 184.87H167.915V172.739H76.9799V184.87Z" fill="#E2881E"/>
<path d="M165.825 133.665H135.354V146.558H165.825V133.665Z" fill="#F4A640"/>
<path d="M135.354 133.665H104.882V146.558H135.354V133.665Z" fill="#FEB546"/>
<path d="M104.882 133.665H74.4104V146.558H104.882V133.665Z" fill="#F9C27A"/>
<path d="M166.059 146.939H74.1646V133.284H166.059V146.939ZM74.6439 146.19H165.579V134.058H74.6439V146.19Z" fill="#E2881E"/>
<path d="M89.8616 35.2965L90.7835 42.2288L85.8667 38.6397L70.7969 30.9453L82.4496 32.0147C82.4496 32.0147 88.3866 33.4527 88.7062 33.7477C89.0258 34.0304 89.8616 35.2965 89.8616 35.2965Z" fill="#6DB1B5"/>
<path d="M182.936 79.7423V80.9345L185.603 81.6352L185.677 79.0171L182.936 79.7423Z" fill="#FFC0BB"/>
<path d="M188.996 79.4964V80.91C188.996 80.91 191.565 81.6843 191.552 81.6843C191.54 81.6843 191.761 79.3735 191.761 79.3735L188.996 79.4964Z" fill="#FFC0BB"/>
<path d="M95.0242 31.1174L70.7969 30.9453L89.8616 35.2965L95.0242 31.1174Z" fill="#8FD0D6"/>
<path d="M82.0809 42.2657L88.4235 37.177L70.7969 30.9453L82.0809 42.2657Z" fill="#8FD0D6"/>
<path d="M119.817 72.7366L119.497 72.2695C119.989 71.9376 120.432 71.532 120.825 71.0649L121.255 71.4337C120.837 71.9376 120.345 72.3801 119.817 72.7366Z" fill="#6DB1B5"/>
<path d="M123.013 68.09L122.472 67.9179C122.804 66.8608 123.025 65.6686 123.124 64.3657L123.689 64.4148C123.591 65.7546 123.357 66.996 123.013 68.09ZM123.677 60.6783L123.111 60.7397C123.099 60.5799 123.074 60.4324 123.062 60.2726C122.988 59.7441 122.89 59.2033 122.755 58.6748C122.632 58.1831 122.484 57.7038 122.325 57.2244L122.866 57.04C123.038 57.5317 123.197 58.0479 123.32 58.5519C123.456 59.0927 123.566 59.6581 123.64 60.2112C123.64 60.3587 123.652 60.5185 123.677 60.6783ZM120.751 53.9672C120.137 52.9716 119.412 51.9883 118.588 51.0541L119.018 50.6731C119.866 51.6318 120.616 52.6397 121.243 53.6599L120.751 53.9672ZM102.928 52.6151C102.535 52.7135 101.551 52.738 100.912 52.357C100.433 52.0743 100.039 51.6318 99.769 51.0664L100.285 50.8206C100.507 51.2877 100.826 51.6318 101.207 51.8654C101.662 52.1358 102.486 52.1358 102.793 52.062C102.83 52.0497 102.854 52.0497 102.854 52.0497C102.879 52.0374 102.903 52.0129 102.94 52.0006L103.26 52.4799C103.223 52.5045 103.198 52.5291 103.162 52.5414C103.088 52.566 103.014 52.5905 102.928 52.6151ZM115.982 48.5098C115.072 47.7355 114.089 46.998 113.057 46.3342L113.364 45.8549C114.409 46.5432 115.417 47.293 116.339 48.0796L115.982 48.5098ZM105.3 49.2596L104.747 49.1367C104.821 48.7802 104.858 48.4238 104.858 48.0673C104.858 47.5634 104.796 47.0471 104.661 46.5309C104.587 46.2482 104.501 45.9655 104.391 45.6828L104.919 45.4861C105.03 45.7934 105.128 46.1007 105.202 46.408C105.337 46.9734 105.411 47.5388 105.411 48.0796C105.423 48.4729 105.386 48.8786 105.3 49.2596ZM100.285 47.5142L99.769 47.2684C100.285 46.1867 101.256 45.2403 102.436 44.6749L102.51 44.638L102.756 45.1543L102.682 45.1911C101.625 45.6951 100.752 46.5432 100.285 47.5142ZM109.75 44.9576C108.718 44.638 107.894 44.4537 107.501 44.4291C107.046 44.4045 106.628 44.4045 106.222 44.4168L106.21 43.8514C106.628 43.8391 107.058 43.8391 107.525 43.8637C108.128 43.8883 109.283 44.2201 109.922 44.4168L109.75 44.9576ZM102.547 42.6468C101.773 41.7373 100.863 40.9506 99.8428 40.2992L100.15 39.8198C101.219 40.4958 102.166 41.3317 102.977 42.2781L102.547 42.6468Z" fill="#6DB1B5"/>
<path d="M96.5729 38.8241C95.9706 38.6643 95.3683 38.5414 94.7783 38.4799L94.8398 37.9146C95.4667 37.976 96.1058 38.0989 96.7327 38.271L96.5729 38.8241Z" fill="#6DB1B5"/>
<path d="M173.25 24.7383L172.758 27.8111L171.726 23.7058C171.726 23.7058 173.176 23.0052 173.237 23.251C173.299 23.5214 173.25 24.7383 173.25 24.7383Z" fill="#07085B"/>
<path d="M165.002 31.3633L164.547 36.6854L169.243 36.4642L168.702 31.7443L165.002 31.3633Z" fill="#FFC0BB"/>
<path d="M168.96 33.994L168.702 31.757L165.002 31.376L164.842 33.2197C165.58 33.9449 166.907 34.7069 168.96 33.994Z" fill="#F99893"/>
<path d="M171.836 27.7744C171.553 28.3643 171.701 29.0158 172.168 29.237C172.635 29.4583 173.237 29.1756 173.52 28.5856C173.803 27.9956 173.655 27.3442 173.188 27.1229C172.733 26.9017 172.119 27.1967 171.836 27.7744Z" fill="#F99893"/>
<path d="M171.443 31.2777C171.603 31.0319 171.75 30.7615 171.873 30.4788C172.205 29.729 172.402 28.9178 172.525 28.2049C172.549 28.0574 172.586 27.8976 172.623 27.7501C172.77 27.1478 172.807 26.4964 172.709 25.8204C172.377 23.6448 170.632 21.9117 168.456 21.6044C165.518 21.1988 162.925 23.3744 162.753 26.2506C162.445 26.0539 162.101 25.9924 161.782 26.1154C161.167 26.3489 160.909 27.1478 161.192 27.9099C161.474 28.672 162.199 29.1022 162.814 28.8809C162.9 28.844 162.974 28.8072 163.048 28.758C163.146 31.2286 165.027 33.2443 167.448 33.355C168.628 33.4041 169.722 32.9985 170.582 32.2733C170.644 32.2365 170.693 32.1873 170.767 32.1258C171 31.88 171.234 31.5973 171.443 31.2777Z" fill="#FFC0BB"/>
<path d="M168.862 26.5947C168.874 26.8774 168.874 27.1601 168.886 27.4428C168.898 27.7132 168.935 27.9959 169.046 28.1926L169.071 28.2172C169.083 28.2295 169.083 28.2295 169.095 28.2541C169.12 28.2909 169.157 28.3155 169.169 28.3647C169.218 28.4384 169.243 28.5368 169.243 28.6228C169.255 28.8072 169.144 28.9792 169.021 29.0899C168.763 29.3111 168.431 29.3234 168.161 29.262C168.444 29.2128 168.714 29.1145 168.862 28.9301C168.935 28.844 168.984 28.7334 168.96 28.6474C168.96 28.5982 168.935 28.5491 168.911 28.5122C168.898 28.4876 168.874 28.4753 168.862 28.4507L168.825 28.4016L168.788 28.3401C168.702 28.1926 168.665 28.0328 168.653 27.8853C168.64 27.7378 168.64 27.5903 168.653 27.4428C168.689 27.1478 168.751 26.8651 168.862 26.5947Z" fill="#F99893"/>
<path d="M167.202 26.9754C167.19 27.2212 166.981 27.4056 166.747 27.3933C166.502 27.381 166.317 27.172 166.329 26.9385C166.342 26.6927 166.551 26.5083 166.784 26.5206C167.018 26.5329 167.214 26.7418 167.202 26.9754Z" fill="#333333"/>
<path d="M170.939 27.4056C170.926 27.6514 170.718 27.8358 170.484 27.8235C170.238 27.8112 170.054 27.6022 170.066 27.3687C170.078 27.1229 170.287 26.9385 170.521 26.9508C170.767 26.9508 170.951 27.1597 170.939 27.4056Z" fill="#333333"/>
<path d="M166.465 29.9497C166.575 30.048 166.698 30.1464 166.821 30.2201C166.944 30.3062 167.079 30.3799 167.215 30.4414C167.485 30.5766 167.768 30.6626 168.063 30.6995C168.358 30.7364 168.653 30.7118 168.948 30.638C169.231 30.552 169.513 30.4291 169.771 30.2693C169.661 30.3676 169.526 30.4537 169.403 30.5397C169.267 30.6134 169.132 30.6749 168.985 30.7364C168.837 30.7855 168.69 30.8224 168.53 30.8347C168.37 30.847 168.223 30.847 168.063 30.8347C167.755 30.7978 167.448 30.6872 167.19 30.5397C166.907 30.3676 166.662 30.1832 166.465 29.9497Z" fill="#F99893"/>
<path d="M167.743 25.9923C167.522 25.9186 167.313 25.8694 167.104 25.8448C166.895 25.8079 166.698 25.8079 166.502 25.8325C166.305 25.8571 166.108 25.9063 165.912 25.9923C165.813 26.0292 165.727 26.0783 165.617 26.1275C165.518 26.1767 165.432 26.2381 165.322 26.2873C165.371 26.189 165.444 26.0906 165.518 25.9923C165.604 25.9063 165.678 25.8202 165.789 25.7588C165.985 25.6113 166.219 25.5252 166.465 25.5006C166.711 25.4761 166.956 25.5129 167.19 25.599C167.399 25.6727 167.608 25.8079 167.743 25.9923Z" fill="#07085B"/>
<path d="M169.673 26.2134C169.845 26.0536 170.078 25.9676 170.312 25.9184C170.546 25.8692 170.804 25.8815 171.037 25.9676C171.271 26.0413 171.492 26.1765 171.652 26.3609C171.738 26.4469 171.799 26.5453 171.861 26.6436C171.922 26.7419 171.959 26.8525 171.996 26.9632C171.898 26.8894 171.824 26.8157 171.738 26.7419C171.652 26.6805 171.566 26.6067 171.48 26.5575C171.308 26.4346 171.123 26.3609 170.939 26.2871C170.755 26.2257 170.546 26.1888 170.337 26.1765C170.128 26.1765 169.906 26.1888 169.673 26.2134Z" fill="#07085B"/>
<path d="M167.583 56.3275C167.583 56.3275 166.6 62.9649 173.016 64.1325C179.433 65.2879 187.422 64.9438 187.422 64.9438L188.529 80.1973L191.884 80.3694C191.884 80.3694 200.513 59.1668 188.565 55.8605L177.835 55.9096L173.422 55.59C173.422 55.59 168.948 54.4838 168.898 54.6928C168.849 54.9017 167.682 56.4259 167.583 56.3275Z" fill="#E03268"/>
<path d="M161.683 56.3646C161.683 56.3646 160.7 63.002 167.116 64.1696C173.532 65.325 181.522 64.9809 181.522 64.9809L182.628 80.2344L185.984 80.4065C185.984 80.4065 194.613 59.2039 182.665 55.8976L171.934 55.9467L167.522 55.6271C167.522 55.6271 163.047 54.5209 162.998 54.7299C162.949 54.9388 161.794 56.463 161.683 56.3646Z" fill="#FF5B7E"/>
<path d="M169.771 34.5597C169.771 34.5597 174.184 35.1251 175.315 36.0347C176.433 36.9442 181.842 50.3418 181.842 50.3418L177.355 55.6025L167.817 55.6763C167.817 55.6763 160.663 59.5358 156.176 55.8852C151.69 52.2347 154.001 39.5377 156.594 36.809C159.188 34.068 163.822 34.1418 163.822 34.1418C163.822 34.1418 168.013 37.0917 169.771 34.5597Z" fill="#333333"/>
<path d="M161.216 41.2212C161.376 41.9464 161.474 42.6962 161.536 43.4336C161.572 43.8024 161.585 44.1834 161.609 44.5522C161.622 44.9209 161.634 45.3019 161.622 45.6707C161.609 46.4204 161.56 47.1702 161.437 47.9077C161.314 48.6452 161.13 49.3827 160.786 50.0464C161.019 49.3335 161.13 48.6083 161.216 47.8708C161.302 47.1333 161.327 46.3959 161.339 45.6584C161.351 44.9209 161.339 44.1834 161.314 43.4336C161.29 42.7084 161.253 41.971 161.216 41.2212Z" fill="white"/>
<path d="M174.43 40.7422C174.626 41.8238 174.848 42.9055 175.057 43.9871C175.278 45.0687 175.511 46.1504 175.77 47.2074C176.028 48.2768 176.31 49.3338 176.667 50.3786C176.839 50.8949 177.036 51.4111 177.257 51.915C177.478 52.419 177.749 52.8983 178.105 53.3162C177.699 52.9352 177.404 52.4559 177.134 51.9765C176.876 51.4848 176.642 50.9809 176.458 50.4524C176.261 49.9361 176.089 49.4076 175.929 48.8791C175.77 48.3505 175.634 47.8097 175.499 47.2689C175.376 46.7281 175.253 46.1873 175.143 45.6464C175.032 45.1056 174.934 44.5648 174.848 44.0117C174.663 42.93 174.528 41.8361 174.43 40.7422Z" fill="white"/>
<path d="M176.654 52.5784C176.63 52.3571 174.946 52.1113 174.319 52.0744C173.852 52.0498 170.742 51.9515 169.685 51.9023L169.759 52.1728L169.746 53.3773L169.574 54.1762C170.508 54.2377 172.77 54.3237 173.25 54.4221C173.876 54.545 174.97 55.0243 174.97 55.0243C174.97 55.0243 175.425 54.926 174.847 54.6679C174.38 54.4712 174.061 54.1517 173.913 54.0042C173.84 53.9181 173.926 53.7583 173.975 53.7706C175.548 54.1885 175.708 54.25 175.708 54.25C175.708 54.25 177.564 54.2377 175.72 53.8198C174.614 53.574 174.221 53.4265 174.122 53.3036C174.085 53.2544 174.159 53.07 174.221 53.07C175.179 53.0086 176.9 53.3527 176.421 53.1315C176.04 52.9471 174.835 52.7504 174.356 52.6767C174.331 52.6767 174.282 52.4923 174.405 52.4923C175.339 52.394 176.679 52.775 176.654 52.5784Z" fill="#FFC0BB"/>
<path d="M160.134 49.8745C160.528 49.9728 160.909 50.0712 161.29 50.1572C161.671 50.2555 162.064 50.317 162.457 50.403C163.244 50.5505 164.019 50.6734 164.805 50.7841C165.592 50.8824 166.379 50.9807 167.178 51.0545C167.964 51.1282 168.763 51.202 169.55 51.2389H169.66L169.685 51.3249C169.747 51.5953 169.796 51.8411 169.833 52.1115C169.869 52.3697 169.882 52.6401 169.882 52.9105C169.882 53.1809 169.857 53.439 169.808 53.7094C169.759 53.9675 169.685 54.2257 169.574 54.4715L169.562 54.4961L169.55 54.5084L168.689 55.086C168.407 55.2827 168.112 55.4671 167.817 55.6637C168.087 55.4425 168.358 55.2335 168.64 55.0246L169.464 54.3854L169.439 54.4223C169.525 54.1888 169.587 53.943 169.624 53.6848C169.648 53.4267 169.673 53.1809 169.66 52.9228C169.648 52.6646 169.624 52.4065 169.587 52.1607C169.55 51.9149 169.501 51.6568 169.439 51.4109L169.562 51.5093C169.144 51.497 168.763 51.4724 168.358 51.4478C167.964 51.4232 167.559 51.3863 167.165 51.3495C166.366 51.2634 165.58 51.1651 164.793 51.0422C164.006 50.9193 163.22 50.7595 162.445 50.5751C162.052 50.4768 161.671 50.3785 161.29 50.2555C160.884 50.1449 160.503 50.0097 160.134 49.8745Z" fill="white"/>
<path d="M196.604 43.6426H179.347L174.454 55.5775H168.493C168.259 55.5775 168.063 55.811 168.075 55.9954C168.087 56.2289 168.259 56.4133 168.493 56.4133H190.864L196.604 43.6426Z" fill="#8FD0D6"/>
<path d="M188.049 50.4645C187.951 50.9684 187.508 51.3126 187.053 51.2265C186.611 51.1405 186.328 50.6488 186.427 50.1449C186.525 49.6409 186.967 49.2968 187.422 49.3828C187.877 49.4689 188.147 49.9482 188.049 50.4645Z" fill="#DAEEF7"/>
<path d="M173.336 21.8255C173.336 21.8255 174.811 21.8747 173.262 20.6333C171.713 19.3919 167.571 17.9292 164.903 19.3304C164.903 19.3304 164.375 18.1996 163.601 18.47C162.826 18.7404 164.104 19.5148 164.104 19.5148C164.104 19.5148 163.121 19.4779 162.826 19.9695C162.605 20.326 163.207 20.3383 163.539 20.326C162.986 20.4243 160.835 21.7764 161.917 26.0906C162.298 26.0046 164.473 22.8457 164.473 22.8457C164.473 22.8457 169.451 25.6113 168.96 23.4111C168.96 23.4111 174.122 26.6315 173.385 23.9765C173.385 23.9765 175.388 24.124 173.336 21.8255Z" fill="#07085B"/>
<path d="M161.904 26.1153C161.904 26.1153 162.322 25.9678 162.765 26.3242C163.207 26.6807 163.158 27.9098 163.158 27.9098C163.158 27.9098 165.272 29.2742 165.051 23.4972C164.817 17.3515 163.281 23.9889 163.281 23.9889L161.904 26.1153Z" fill="#07085B"/>
<path d="M66.6175 18.3223L53.7233 35.8006L58.382 38.0376L52.74 52.1235L66.6421 35.9604L61.1722 33.7971L66.6175 18.3223Z" fill="#FEB546"/>
<path d="M99.6335 119.247L102.313 117.588L104.636 118.989L103.825 119.567L101.01 119.96C101.01 119.96 99.9163 119.825 99.8671 119.788C99.8179 119.763 99.6335 119.247 99.6335 119.247Z" fill="#FFC0BB"/>
<path d="M99.6335 119.247L98.9575 119.689C98.6379 119.886 98.7854 120.378 99.1541 120.378L104.304 120.402C104.489 120.402 104.636 120.255 104.636 120.07V118.989C101.195 120.07 100.015 119.726 99.6335 119.247Z" fill="#FF5B7E"/>
<path d="M110.93 119.345L113.61 117.686L115.933 119.087L115.121 119.665L112.307 120.058C112.307 120.058 111.213 119.923 111.163 119.886C111.114 119.862 110.93 119.345 110.93 119.345Z" fill="#FFC0BB"/>
<path d="M110.93 119.345L110.254 119.788C109.934 119.984 110.082 120.476 110.451 120.476L115.601 120.5C115.785 120.5 115.933 120.353 115.933 120.169V119.087C112.491 120.169 111.311 119.824 110.93 119.345Z" fill="#FF5B7E"/>
<path d="M0.0078125 46.998L9.73071 60.7398L12.5087 57.8636L21.4941 65.4474L13.0004 51.2754L10.0749 54.7662L0.0078125 46.998Z" fill="#FEB546"/>
<path d="M30.5288 26.6318L28.98 39.0707L31.9423 38.874L33.0732 47.5517L35.5193 35.5062L32.1636 35.961L30.5288 26.6318Z" fill="#FEB546"/>
<path d="M137.222 73.7439C137.222 73.7439 138.882 72.6623 140.762 73.7439C142.643 74.8256 142.643 78.4884 141.905 79.3611C141.168 80.2337 141.942 81.426 140.455 82.5568C138.968 83.6999 136.608 84.1178 135.256 82.7781C133.903 81.4383 134.899 78.4638 134.899 78.4638L137.222 73.7439Z" fill="#FF5B7E"/>
<path d="M116.363 85.9252C116.326 85.9989 116.228 86.0112 116.179 85.9498C115.81 85.4212 114.654 83.7742 114.507 83.8357C114.323 83.9094 115.318 85.409 115.208 85.5565C115.097 85.7039 114.163 84.2167 113.978 84.3273C113.794 84.4379 114.691 85.7654 114.63 85.8392C114.568 85.9129 113.573 84.7329 113.425 84.7329C113.278 84.7329 114.187 86.1219 114.138 86.2325C114.089 86.3431 113.143 85.5933 113.069 85.6671C112.995 85.7408 112.934 85.7777 114.581 88.0762C114.581 88.0762 115.294 88.8014 115.343 89.0964L116.215 89.3668L117.1 88.4941C117.1 88.4941 117.187 84.8436 117.064 84.7575C116.953 84.6715 116.855 84.7452 116.363 85.9252Z" fill="#FFC0BB"/>
<path d="M119.485 107.742L116.117 119.259L112.036 118.128L113.401 108.455L117.617 105.566L119.485 107.742Z" fill="#191919"/>
<path d="M132.637 84.1182C132.637 84.1182 125.57 92.8204 124.365 94.1971L117.199 87.1295C117.199 87.1295 115.748 87.9285 115.011 88.7889C115.011 88.7889 117.899 95.4631 120.395 97.2085L125.373 100.564L124.414 102.838L126.196 104.227L127.131 101.978L129.7 96.2866L132.133 88.7274L132.6 84.9786L132.637 84.1182Z" fill="#07085B"/>
<path d="M132.613 84.9785C132.613 84.9785 129.626 89.8336 129.011 91.7142C128.397 93.5948 128.888 93.7422 128.606 96.0161C128.335 98.29 126.233 104.374 126.233 104.374L129.712 106.71C129.712 106.71 131.593 100.711 131.593 100.466C131.593 100.22 133.35 89.2436 133.35 89.2436L134.801 85.1506L132.613 84.9785Z" fill="white"/>
<path d="M129.38 106.452C129.38 106.452 123.419 101.105 118.809 100.023C114.2 98.9415 101.797 117.649 101.797 117.649L104.759 119.788C104.759 119.788 115.49 112.069 117.518 108.627C117.518 108.627 126.233 120.12 129.159 120.39C132.084 120.66 135.366 120.046 139.251 115.387C143.651 110.114 129.38 106.452 129.38 106.452Z" fill="#333333"/>
<path d="M135.317 80.2344L136.645 83.7989C136.645 83.7989 135.686 85.9744 132.478 85.1755C132.478 85.1755 132.81 84.4134 132.269 82.8893C131.716 81.3406 135.317 80.2344 135.317 80.2344Z" fill="#FFC0BB"/>
<path opacity="0.6" d="M135.317 80.2344L135.932 81.8937C135.649 83.1351 134.592 84.0201 132.576 84.352C132.564 83.9832 132.49 83.4916 132.269 82.877C131.716 81.3406 135.317 80.2344 135.317 80.2344Z" fill="#FC8D84"/>
<path d="M117.002 105.149C116.941 105.444 116.916 105.739 116.916 106.034C116.916 106.329 116.941 106.636 116.99 106.931C117.039 107.226 117.101 107.521 117.187 107.804C117.26 108.099 117.371 108.369 117.482 108.652L117.555 108.591C117.396 108.48 117.248 108.357 117.101 108.222C116.953 108.087 116.818 107.951 116.683 107.804C116.547 107.656 116.424 107.509 116.302 107.361C116.179 107.214 116.056 107.054 115.945 106.894C116.043 107.066 116.154 107.226 116.277 107.386C116.388 107.546 116.523 107.706 116.646 107.853C116.781 108.001 116.916 108.148 117.064 108.283C117.211 108.418 117.359 108.554 117.531 108.664L117.666 108.75L117.604 108.603C117.494 108.332 117.396 108.05 117.309 107.767C117.223 107.484 117.162 107.189 117.113 106.907C117.064 106.612 117.027 106.317 117.014 106.022C116.953 105.739 116.965 105.444 117.002 105.149Z" fill="white"/>
<path d="M127.966 77.8618C128.249 78.4395 128.102 79.091 127.634 79.3122C127.167 79.5335 126.577 79.2508 126.295 78.6731C126.012 78.0954 126.159 77.4439 126.627 77.2227C127.081 77.0014 127.684 77.2841 127.966 77.8618Z" fill="#F99893"/>
<path d="M128.36 81.3159C128.2 81.0701 128.053 80.812 127.942 80.5293C127.61 79.7918 127.413 78.9806 127.303 78.28C127.278 78.1325 127.241 77.985 127.204 77.8375C127.057 77.2352 127.02 76.5961 127.118 75.9323C127.438 73.7813 129.171 72.0728 131.322 71.7655C134.223 71.3599 136.78 73.5109 136.964 76.3625C137.259 76.1659 137.603 76.1044 137.923 76.2273C138.525 76.4486 138.783 77.2475 138.501 77.9973C138.218 78.747 137.505 79.1772 136.903 78.956C136.817 78.9191 136.743 78.8823 136.669 78.8331C136.571 81.2668 134.715 83.258 132.33 83.3809C131.162 83.4301 130.081 83.0244 129.245 82.3238C129.183 82.287 129.134 82.2378 129.073 82.1763C128.79 81.9182 128.557 81.6232 128.36 81.3159Z" fill="#FFC0BB"/>
<path d="M130.904 76.6943C130.916 76.977 130.929 77.2475 130.916 77.5302C130.904 77.6654 130.904 77.8006 130.88 77.9358C130.855 78.071 130.83 78.1939 130.769 78.2922L130.744 78.3291C130.732 78.3414 130.732 78.3537 130.72 78.366C130.695 78.4028 130.671 78.4274 130.646 78.4643C130.622 78.5012 130.609 78.5381 130.597 78.5749C130.585 78.6118 130.572 78.661 130.572 78.6978C130.56 78.8699 130.658 79.0297 130.769 79.128C130.88 79.2264 131.027 79.2878 131.162 79.3247C131.31 79.3493 131.445 79.3493 131.593 79.3247C131.457 79.3124 131.322 79.2878 131.187 79.2387C131.064 79.1895 130.953 79.128 130.867 79.0297C130.781 78.9314 130.732 78.8208 130.744 78.7101C130.744 78.6855 130.744 78.661 130.757 78.6241C130.757 78.5995 130.781 78.5749 130.794 78.5503C130.806 78.5258 130.83 78.5012 130.843 78.4766C130.855 78.452 130.892 78.4151 130.916 78.3783C131.003 78.2431 131.027 78.0956 131.052 77.9481C131.064 77.8006 131.064 77.6654 131.052 77.5179C131.039 77.2475 130.99 76.9647 130.904 76.6943Z" fill="#F99893"/>
<path d="M132.551 77.0755C132.564 77.309 132.76 77.4934 133.006 77.4811C133.24 77.4688 133.424 77.2721 133.424 77.0263C133.412 76.7928 133.215 76.6084 132.969 76.6084C132.723 76.633 132.539 76.8296 132.551 77.0755Z" fill="#333333"/>
<path d="M128.851 77.4934C128.864 77.727 129.06 77.9113 129.306 77.8991C129.54 77.8868 129.724 77.6901 129.724 77.4443C129.712 77.2107 129.515 77.0264 129.269 77.0387C129.023 77.051 128.839 77.2476 128.851 77.4934Z" fill="#333333"/>
<path opacity="0.3" d="M132.748 80.3572C132.748 80.3572 132.121 80.1606 131.556 80.5662C131.556 80.5662 130.916 80.1974 130.425 80.5908C130.425 80.5908 130.695 81.5126 131.715 81.4143C132.748 81.3037 132.748 80.3572 132.748 80.3572Z" fill="#F99893"/>
<path d="M133.277 80.0005C133.166 80.0988 133.043 80.1849 132.92 80.2709C132.797 80.3569 132.674 80.4307 132.539 80.4921C132.269 80.615 131.986 80.7134 131.703 80.7503C131.408 80.7871 131.113 80.7625 130.831 80.6888C130.548 80.6151 130.277 80.4798 130.019 80.3201C130.13 80.4184 130.253 80.5044 130.388 80.5782C130.523 80.6519 130.658 80.7134 130.806 80.7625C130.953 80.8117 131.101 80.8486 131.261 80.8609C131.408 80.8732 131.568 80.8732 131.728 80.8609C132.035 80.824 132.33 80.7134 132.588 80.5659C132.834 80.4184 133.08 80.234 133.277 80.0005Z" fill="#F99893"/>
<path d="M131.998 76.0919C132.22 76.0182 132.429 75.969 132.625 75.9444C132.834 75.9075 133.031 75.9075 133.227 75.9321C133.424 75.9567 133.621 76.0059 133.805 76.0796C133.904 76.1165 133.99 76.1657 134.088 76.2148C134.186 76.264 134.272 76.3255 134.383 76.3746C134.334 76.2763 134.26 76.178 134.186 76.0919C134.1 76.0059 134.026 75.9198 133.928 75.8584C133.744 75.7109 133.498 75.6248 133.252 75.6003C133.006 75.5757 132.76 75.6125 132.539 75.6986C132.342 75.7723 132.146 75.9075 131.998 76.0919Z" fill="#FF5B7E"/>
<path d="M130.093 76.3133C129.921 76.1535 129.7 76.0674 129.466 76.0183C129.232 75.9691 128.987 75.9937 128.753 76.0674C128.52 76.1412 128.298 76.2764 128.151 76.4485C128.065 76.5345 128.003 76.6328 127.942 76.7312C127.893 76.8295 127.844 76.9401 127.807 77.0508C127.905 76.977 127.979 76.9033 128.065 76.8418C128.151 76.7803 128.225 76.7066 128.323 76.6574C128.495 76.5345 128.679 76.4608 128.864 76.3993C129.048 76.3378 129.245 76.301 129.454 76.301C129.65 76.2764 129.872 76.2887 130.093 76.3133Z" fill="#FF5B7E"/>
<path d="M123.16 103.384C129.088 97.4555 129.088 87.8443 123.16 81.9162C117.231 75.9882 107.62 75.9882 101.691 81.9162C95.7631 87.8443 95.7631 97.4555 101.691 103.384C107.62 109.312 117.231 109.312 123.16 103.384Z" fill="#F4A640"/>
<path d="M126.073 93.2717C126.417 85.7374 120.589 79.3503 113.054 79.0058C105.52 78.6612 99.1322 84.4897 98.7877 92.024C98.4431 99.5583 104.272 105.945 111.806 106.29C119.341 106.634 125.728 100.806 126.073 93.2717Z" fill="#F9CC4B"/>
<path d="M117.211 104.51C110.672 107.14 103.211 103.969 100.58 97.4298C97.9499 90.8907 101.121 83.4299 107.66 80.7995C114.2 78.1692 121.661 81.3404 124.291 87.8794C126.922 94.4061 123.751 101.867 117.211 104.51ZM107.833 81.2297C101.539 83.7618 98.4784 90.9522 101.011 97.2454C103.543 103.539 110.733 106.599 117.027 104.067C123.32 101.535 126.381 94.3446 123.849 88.0514C121.317 81.7583 114.126 78.6977 107.833 81.2297Z" fill="#F4A640"/>
<path opacity="0.5" d="M112.897 88.1255C112.454 87.5355 111.95 87.1053 111.151 87.0684C111.176 87.179 111.188 87.2651 111.213 87.3511C111.643 88.4204 112.073 89.4775 112.491 90.5469C112.577 90.7804 112.7 90.8295 112.946 90.8173C113.524 90.7804 114.114 90.7558 114.704 90.7804C116.757 90.8541 117.973 92.0956 118.49 93.9516C119.104 96.1886 118.428 97.8848 116.511 99.2C116.167 99.4458 116.117 99.6547 116.289 99.9989C116.425 100.245 116.511 100.527 116.621 100.81C116.154 100.995 115.724 101.167 115.245 101.363C115.073 100.945 114.913 100.54 114.753 100.134C111.569 100.859 109.799 99.0648 109.025 97.516C109.799 97.0981 110.574 96.6802 111.373 96.25C111.963 97.049 112.688 97.5898 113.794 97.7742C113.561 97.1842 113.352 96.6679 113.143 96.164C112.86 95.4634 112.565 94.7751 112.307 94.0745C112.209 93.8163 112.086 93.718 111.803 93.7426C110.893 93.8041 109.996 93.7549 109.148 93.3984C107.427 92.6733 106.603 91.2597 106.431 89.5144C106.272 87.8796 107.046 86.6259 108.423 85.7409C108.509 85.6795 108.607 85.6303 108.693 85.5689C108.73 85.5443 108.755 85.5197 108.816 85.4582C108.681 85.1264 108.546 84.7945 108.398 84.4258C108.865 84.2414 109.295 84.057 109.787 83.8604C109.885 84.1062 110.008 84.352 110.082 84.6101C110.168 84.8805 110.316 84.9174 110.574 84.8559C111.741 84.5978 112.848 84.7085 113.868 85.4091C114.397 85.7778 114.827 86.2449 115.171 86.8472C114.421 87.2651 113.671 87.683 112.897 88.1255ZM113.757 93.5828C114.261 94.8365 114.753 96.0534 115.245 97.2702C116.056 96.84 116.437 95.8198 116.142 94.8611C115.859 93.927 114.95 93.423 113.757 93.5828ZM109.689 87.6338C109.037 88.273 108.828 89.1579 109.136 89.8094C109.48 90.5346 110.266 90.9893 111.004 90.891C110.574 89.8217 110.131 88.7523 109.689 87.6338Z" fill="#FFF9FF"/>
<path d="M117.813 95.4263C117.85 95.5123 117.776 95.5984 117.678 95.5861C116.99 95.4386 114.814 94.9961 114.728 95.1559C114.642 95.3525 116.572 95.795 116.596 96.004C116.621 96.2006 114.74 95.7213 114.679 95.9548C114.617 96.1883 116.338 96.5694 116.351 96.6677C116.363 96.7783 114.667 96.5817 114.544 96.6923C114.421 96.8029 116.203 97.2208 116.252 97.356C116.301 97.4789 114.974 97.6018 114.962 97.7124C114.962 97.8231 114.937 97.9091 117.998 98.4991L119.215 98.6835L120.284 98.2901L120.333 96.9135C120.333 96.9135 117.641 93.9267 117.481 93.9513C117.334 93.9882 117.297 94.1234 117.813 95.4263Z" fill="#FFC0BB"/>
<path d="M136.546 83.208C136.546 83.208 142.631 90.5337 141.807 103.452C140.971 116.358 140.836 116.456 140.836 116.456C140.836 116.456 137.099 116.051 134.334 113.838C131.568 111.626 128.188 110.114 128.188 110.114L130.437 102.825C130.437 102.825 127.512 102.923 125.398 102.026C123.271 101.129 118.846 98.7689 118.846 98.7689C118.846 98.7689 119.215 96.581 119.682 95.905C119.682 95.905 125.311 97.6258 128.139 97.6626C128.126 97.6626 131.408 87.5223 136.546 83.208Z" fill="#55769F"/>
<path d="M136.104 85.5566C135.182 86.3556 134.321 87.2406 133.522 88.1624C132.723 89.0843 131.974 90.0676 131.285 91.0877L131.027 91.4688C130.941 91.5917 130.855 91.7269 130.781 91.8498L130.302 92.6365C130.216 92.7717 130.154 92.9069 130.081 93.0421L129.859 93.4477L129.638 93.8533C129.564 93.9885 129.503 94.1237 129.441 94.2712L129.048 95.107L128.704 95.9551L128.532 96.3853L128.384 96.8155C128.286 97.1105 128.188 97.3932 128.102 97.6882C128.212 97.4055 128.323 97.1228 128.433 96.8401L128.593 96.4099L128.778 95.992L129.159 95.1562L129.577 94.345C129.65 94.2098 129.712 94.0746 129.786 93.9393L130.007 93.546L130.228 93.1527C130.302 93.0175 130.376 92.8823 130.462 92.7594L130.941 91.985C131.015 91.8498 131.101 91.7269 131.187 91.604L131.445 91.223C132.121 90.2151 132.859 89.2318 133.633 88.2976L134.223 87.597C134.42 87.3635 134.629 87.1422 134.825 86.9087C135.243 86.4293 135.673 85.9868 136.104 85.5566Z" fill="#07085B"/>
<path d="M138.734 90.6699C138.23 91.8007 137.702 92.9069 137.148 94.0132C136.866 94.5663 136.583 95.1071 136.288 95.6479C135.993 96.1887 135.698 96.7295 135.378 97.2581C135.071 97.7866 134.739 98.3151 134.395 98.8191C134.223 99.0772 134.051 99.323 133.866 99.5811C133.682 99.827 133.498 100.073 133.313 100.319C132.932 100.798 132.527 101.265 132.084 101.695C131.642 102.125 131.162 102.506 130.609 102.789C131.175 102.543 131.679 102.175 132.158 101.769C132.625 101.351 133.043 100.896 133.436 100.429C133.842 99.9499 134.198 99.4582 134.555 98.942C134.899 98.4257 135.231 97.9095 135.55 97.381C136.177 96.3116 136.755 95.2177 137.284 94.0992C137.824 92.9684 138.304 91.8376 138.734 90.6699Z" fill="#07085B"/>
<path d="M126.934 72.1708C127.647 70.6221 129.036 69.7494 130.228 69.2578C131.703 68.6555 133.35 68.6186 134.838 69.1717C139.029 70.745 138.193 75.3666 137.997 76.2393C137.8 76.1901 137.517 76.2024 137.185 76.3745C137.05 76.4482 136.927 76.5343 136.841 76.608C136.03 76.3622 135.784 75.0101 135.354 74.3587C134.776 73.4737 132.564 74.3218 131.605 73.6827C130.646 73.0558 130.486 72.4044 130.486 72.4044C126.799 72.9944 127.069 77.1488 127.069 77.1488C126.909 77.112 126.541 76.5097 126.541 76.5097C126.541 76.5097 125.619 75.0224 126.934 72.1708Z" fill="#FF5B7E"/>
<path d="M263.976 130.825L256.085 135.779L255.507 182.363L257.068 183.444L258.617 183.1L263.091 152.47L266.742 132.706L263.976 130.825Z" fill="#FFC0BB"/>
<path d="M279.993 176.5C276.465 167.023 270.319 160.57 270.319 160.57C270.319 160.57 271.474 157.46 272.654 147.197C273.834 136.934 268.844 130.481 268.844 130.481L259.994 133.124C259.994 133.124 264.492 160.017 265.218 161.726C265.783 163.065 272.986 172.702 276.071 176.807V176.881L277.473 178.663L278.8 180.347L280.361 179.634L280.632 177.68L279.993 176.5Z" fill="#FFC0BB"/>
<path d="M256.085 135.127C256.085 135.127 254.02 150.946 254.241 162.758C254.241 162.758 262.243 164.024 268.119 163.582L268.377 156.822L269.643 163.201C269.643 163.201 272.544 163.078 273.871 161.996C273.871 161.996 273.06 155.248 273.306 150.061C273.552 144.874 273.331 138.348 271.622 134.009C269.913 129.67 260.424 134.427 260.424 134.427L256.085 135.127Z" fill="#333333"/>
<path d="M266.767 95.291C266.767 95.291 268.586 96.6799 269.127 98.6466C269.594 100.33 271.671 100.035 272.974 102.285C274.412 104.78 276.477 108.504 271.757 111.024C268.832 112.585 264.173 113.79 263.116 112.732C262.059 111.675 259.539 112.106 260.104 101.019C260.104 101.019 266.988 97.1224 267.062 97.1101C267.148 97.0856 266.767 95.291 266.767 95.291Z" fill="#333333"/>
<path d="M257.609 127.027L258.457 123.401L256.355 117.772C256.355 117.772 255.212 122.234 253.491 126.216L247.173 126.978L245.833 127.236C245.833 127.236 254.475 132.165 256.835 128.539C257.081 128.601 257.24 128.638 257.24 128.638L257.462 127.679C257.584 127.47 257.695 127.249 257.757 127.027H257.609Z" fill="#E03268"/>
<path d="M265.648 107.398L265.476 110.065L261.85 110.815H261.211L261.346 107.631L265.193 106.267L265.648 107.398Z" fill="#FFC0BB"/>
<path d="M259.957 111.663C259.797 113.458 260.535 113.79 260.535 113.79L266.017 109.721C262.612 110.053 260.412 110.422 260.412 110.422C260.412 110.422 260.129 111.712 259.957 111.663Z" fill="#FFC0BB"/>
<path d="M269.041 101.609C269.041 101.609 270.159 97.0239 267.492 95.3031C264.824 93.5823 261.997 93.779 260.08 94.7992C258.15 95.8317 257.007 99.4207 257.867 101.473L264.259 99.5191L269.041 101.609Z" fill="#333333"/>
<path d="M265.722 106.71C265.722 106.71 265.648 107.484 265.574 108.443C264.198 109.955 261.604 109.439 261.26 109.291C261.284 108.812 261.26 107.828 261.26 107.828L265.722 106.71Z" fill="#F99893"/>
<path d="M258.703 102.285C258.924 102.899 258.715 103.551 258.224 103.735C257.732 103.919 257.142 103.563 256.921 102.948C256.7 102.334 256.908 101.682 257.4 101.498C257.892 101.313 258.47 101.67 258.703 102.285Z" fill="#F99893"/>
<path d="M258.752 105.861C258.605 105.591 258.494 105.308 258.396 105.013C258.125 104.214 258.015 103.379 257.966 102.653C257.953 102.494 257.941 102.346 257.916 102.186C257.83 101.559 257.855 100.896 258.027 100.232C258.568 98.0686 260.51 96.483 262.747 96.397C265.759 96.2741 268.156 98.7324 268.057 101.658C268.377 101.486 268.746 101.461 269.053 101.609C269.643 101.904 269.84 102.739 269.471 103.477C269.102 104.214 268.328 104.583 267.738 104.3C267.652 104.263 267.578 104.202 267.516 104.153C267.172 106.636 265.07 108.492 262.624 108.369C261.432 108.307 260.362 107.779 259.576 106.968C259.527 106.918 259.465 106.869 259.404 106.796C259.133 106.513 258.924 106.193 258.752 105.861Z" fill="#FFC0BB"/>
<path d="M263.337 102.346C263.325 102.605 263.522 102.838 263.792 102.85C264.05 102.863 264.284 102.666 264.296 102.396C264.308 102.125 264.112 101.904 263.841 101.892C263.571 101.879 263.35 102.088 263.337 102.346Z" fill="#333333"/>
<path d="M259.084 102.346C259.072 102.605 259.269 102.838 259.539 102.85C259.797 102.863 260.031 102.666 260.043 102.396C260.055 102.125 259.859 101.904 259.588 101.892C259.33 101.879 259.097 102.088 259.084 102.346Z" fill="#333333"/>
<path d="M262.931 101.56C263.153 101.449 263.374 101.363 263.607 101.302C263.841 101.252 264.075 101.228 264.308 101.252C264.419 101.265 264.542 101.289 264.652 101.314C264.714 101.326 264.763 101.351 264.824 101.363C264.849 101.375 264.874 101.388 264.91 101.4C264.935 101.412 264.96 101.424 264.996 101.437C265.205 101.535 265.414 101.67 265.611 101.818C265.464 101.621 265.279 101.449 265.058 101.314C264.947 101.252 264.837 101.191 264.714 101.154C264.591 101.117 264.468 101.08 264.345 101.068C264.087 101.043 263.829 101.08 263.595 101.166C263.472 101.203 263.362 101.265 263.251 101.326C263.116 101.388 263.017 101.461 262.931 101.56Z" fill="#333333"/>
<path d="M261.001 101.56C260.915 101.474 260.817 101.4 260.706 101.338C260.596 101.277 260.485 101.215 260.362 101.179C260.129 101.093 259.871 101.056 259.613 101.08C259.49 101.093 259.354 101.117 259.244 101.166C259.121 101.203 259.01 101.265 258.9 101.326C258.678 101.461 258.494 101.633 258.346 101.83C258.543 101.683 258.74 101.547 258.961 101.449C258.986 101.437 259.01 101.424 259.047 101.412C259.072 101.4 259.096 101.388 259.133 101.375C259.195 101.351 259.244 101.338 259.305 101.326C259.416 101.289 259.526 101.277 259.649 101.265C259.883 101.24 260.116 101.265 260.35 101.314C260.559 101.351 260.78 101.437 261.001 101.56Z" fill="#333333"/>
<path d="M271.929 117.637C271.818 117.514 271.708 117.379 271.609 117.243C271.511 117.108 271.413 116.961 271.339 116.813C271.253 116.666 271.179 116.506 271.118 116.346C271.044 116.186 270.995 116.027 270.946 115.854C270.97 116.027 271.007 116.199 271.056 116.371C271.081 116.457 271.118 116.543 271.142 116.617C271.179 116.703 271.216 116.776 271.253 116.862C271.327 117.022 271.425 117.17 271.523 117.317C271.609 117.428 271.696 117.538 271.794 117.649C271.708 117.661 271.609 117.674 271.523 117.686C271.4 117.686 271.265 117.686 271.142 117.674C271.081 117.661 271.019 117.649 270.958 117.637C270.897 117.624 270.835 117.6 270.774 117.575C270.651 117.538 270.54 117.477 270.429 117.403C270.528 117.489 270.638 117.563 270.761 117.612C270.884 117.674 271.007 117.71 271.13 117.747C271.265 117.772 271.388 117.784 271.523 117.784C271.659 117.784 271.794 117.772 271.929 117.735L272.027 117.71L271.929 117.637Z" fill="white"/>
<path d="M261.567 102.137C261.432 102.358 261.321 102.58 261.21 102.813C261.112 103.047 261.014 103.28 260.94 103.538C260.903 103.661 260.879 103.784 260.866 103.932C260.866 103.969 260.866 104.006 260.866 104.042C260.866 104.067 260.879 104.079 260.879 104.104C260.891 104.128 260.891 104.141 260.903 104.165C260.915 104.178 260.915 104.19 260.928 104.19L260.952 104.202C260.965 104.214 260.977 104.227 260.989 104.239C261.014 104.264 261.051 104.276 261.075 104.301C261.186 104.374 261.309 104.423 261.432 104.46C261.555 104.497 261.678 104.534 261.8 104.559C261.567 104.448 261.333 104.337 261.137 104.202C261.112 104.19 261.087 104.165 261.063 104.141L261.026 104.116L261.014 104.104C261.014 104.104 261.014 104.104 261.014 104.092C261.001 104.067 261.001 104.006 261.001 103.944C261.014 103.833 261.038 103.711 261.075 103.588C261.137 103.342 261.223 103.108 261.309 102.875C261.407 102.617 261.493 102.371 261.567 102.137Z" fill="#F99893"/>
<path d="M271.069 125.22C271.72 121.594 272.003 117.698 272.003 117.698C272.04 116.801 270.97 115.559 270.934 114.859C270.024 114.121 269.815 113.519 269.815 113.519L268.229 110.237L267.172 109.721C266.349 109.647 265.943 109.721 265.943 109.721L263.227 111.761C262.096 112.622 260.461 111.835 260.412 110.421C258.027 112.327 256.429 113.199 256.097 116.26C255.864 118.398 257.031 120.218 257.154 122.258L256.085 135.127C256.085 135.127 265.07 135.225 271.622 134.008C271.622 134.008 271.007 130.37 271.069 125.22Z" fill="#FF5B7E"/>
<path d="M255.347 134.562L245.969 135.128C245.379 135.164 244.715 134.783 244.506 134.279L239.577 122.861C239.356 122.357 239.663 121.914 240.253 121.877L249.632 121.312C250.222 121.275 250.885 121.656 251.094 122.16L256.023 133.579C256.232 134.083 255.937 134.525 255.347 134.562Z" fill="#333333"/>
<path d="M246.841 122.05L243.645 122.246C243.387 122.258 243.104 122.099 243.006 121.877L242.92 121.668C242.822 121.447 242.957 121.263 243.215 121.251L246.411 121.054C246.669 121.042 246.952 121.201 247.05 121.423L247.136 121.632C247.222 121.853 247.099 122.037 246.841 122.05Z" fill="#C8EEF1"/>
<path d="M243.35 131.637L243.313 131.649C243.08 131.747 242.797 131.661 242.674 131.44L241.199 128.883C241.125 128.761 241.125 128.601 241.211 128.49C241.457 128.121 241.998 127.359 242.182 127.384C242.428 127.421 241.691 128.687 241.789 128.711C241.887 128.736 242.932 127.888 243.018 128.035C243.092 128.158 242.182 129.142 242.219 129.215C242.256 129.289 243.326 128.674 243.436 128.785C243.535 128.883 242.539 129.682 242.551 129.732L243.35 131.637Z" fill="#FFC0BB"/>
<path d="M242.478 129.781C242.478 129.781 243.535 129.461 243.633 129.572C243.732 129.695 242.478 130.371 242.478 130.334C242.49 130.309 242.478 129.781 242.478 129.781Z" fill="#FFC0BB"/>
<path d="M268.696 100.982L268.573 100.97L268.487 99.9739L268.045 99.0521C268.045 99.0521 266.299 96.5692 266.238 96.5078C266.177 96.4463 264.849 95.6474 264.763 95.6105C264.677 95.5736 262.821 95.8809 262.821 95.8809C262.821 95.8809 259.539 95.1803 260.104 97.0117C260.657 98.8431 263.054 99.7895 263.177 99.7158C262.784 99.3102 262.747 98.1425 262.747 98.1425C264.591 100.269 268.057 101.67 268.057 101.67C268.057 101.67 268.426 101.387 269.053 101.621L268.696 100.982Z" fill="#333333"/>
<path d="M260.498 105.296C260.62 105.862 261.174 106.28 261.825 106.267C262.477 106.255 263.005 105.812 263.116 105.247L260.498 105.296Z" fill="white"/>
<path d="M272.691 118.608C272.691 118.608 271.364 111.282 267.27 109.758C266.164 109.34 264.984 110.164 264.972 111.344C264.96 113.028 270.147 125.503 269.606 126.142C268.881 127.015 255.593 130.149 255.138 130.26L253.553 130.113C252.25 130.027 250.861 129.842 250.787 129.941C250.676 130.076 250.75 130.211 252.139 130.862C252.225 130.899 252.237 131.034 252.151 131.084C251.488 131.489 249.423 132.768 249.484 132.964C249.558 133.185 251.438 132.091 251.611 132.227C251.783 132.374 249.927 133.394 250.049 133.628C250.172 133.861 251.832 132.866 251.918 132.94C252.004 133.013 250.517 134.144 250.504 134.316C250.492 134.488 252.225 133.493 252.36 133.554C252.496 133.616 251.524 134.71 251.611 134.808C251.697 134.906 251.377 135.041 254.253 133.21C254.253 133.21 254.966 132.731 255.224 132.534C255.224 132.534 271.732 130.199 272.765 128.896C274.67 126.462 272.691 118.608 272.691 118.608Z" fill="#FFC0BB"/>
<path d="M272.691 118.608C272.691 118.608 271.364 111.282 267.271 109.758C266.164 109.34 264.984 110.164 264.972 111.344C264.96 113.028 270.147 125.503 269.606 126.142C268.881 127.015 255.593 130.149 255.139 130.26H255.114C255.274 130.985 255.458 131.76 255.704 132.46C258.433 132.067 271.831 130.063 272.753 128.896C274.67 126.462 272.691 118.608 272.691 118.608Z" fill="#E03268"/>
<path d="M146.072 11.771C146.416 10.296 147.732 9.20206 149.305 9.20206C149.6 9.20206 149.87 9.23893 150.141 9.31268C150.915 7.65335 152.599 6.49796 154.554 6.49796C155.058 6.49796 155.549 6.57171 156.004 6.7192C157.061 4.97383 158.966 3.80615 161.154 3.80615C163.748 3.80615 165.961 5.45319 166.809 7.76397C167.399 7.4321 168.087 7.24773 168.812 7.24773C171.086 7.24773 172.93 9.09144 172.93 11.3653C172.93 11.5005 172.918 11.6357 172.905 11.771H146.072Z" fill="white"/>
<path d="M230.038 8.67379C230.383 7.19882 231.698 6.10489 233.271 6.10489C233.554 6.10489 233.837 6.14177 234.107 6.21551C234.881 4.55618 236.565 3.40079 238.52 3.40079C239.024 3.40079 239.515 3.47454 239.97 3.62204C241.027 1.87666 242.932 0.708984 245.12 0.708984C247.714 0.708984 249.927 2.35603 250.775 4.6668C251.365 4.33494 252.053 4.15057 252.778 4.15057C255.052 4.15057 256.896 5.99427 256.896 8.26817C256.896 8.40338 256.884 8.53858 256.871 8.67379H230.038Z" fill="white"/>
<path d="M252.545 183.457L255.802 181.441L258.617 183.138L257.634 183.838L254.216 184.318C254.216 184.318 252.889 184.145 252.827 184.109C252.778 184.084 252.545 183.457 252.545 183.457Z" fill="#FFC0BB"/>
<path d="M252.545 183.457L251.722 183.985C251.34 184.231 251.513 184.821 251.955 184.821L258.212 184.846C258.433 184.846 258.617 184.674 258.617 184.452L258.63 183.137C254.45 184.452 253.012 184.047 252.545 183.457Z" fill="#07085B"/>
<path d="M277.952 183.15L277.866 179.143L280.644 177.692L280.779 178.897L279.538 182.117C279.538 182.117 278.739 183.199 278.677 183.223C278.603 183.26 277.952 183.15 277.952 183.15Z" fill="#FFC0BB"/>
<path d="M277.952 183.149L278.013 184.132C278.038 184.587 278.64 184.722 278.862 184.329L281.947 178.884C282.057 178.687 281.984 178.454 281.799 178.343L280.656 177.704C279.747 181.981 278.689 183.026 277.952 183.149Z" fill="#07085B"/>
<path d="M193.261 85.3718L187.668 83.2085C187.533 83.1593 187.46 82.9995 187.509 82.8643L187.546 82.7537C187.595 82.6185 187.755 82.5447 187.89 82.5939L193.483 84.7572C193.618 84.8063 193.692 84.9661 193.642 85.1013L193.605 85.212C193.556 85.3472 193.397 85.4209 193.261 85.3718Z" fill="white"/>
<path d="M188.652 80.7378L187.791 82.3603C187.681 82.5569 187.73 82.8028 187.89 82.8519L193.261 84.9292C193.396 84.9783 193.569 84.9537 193.704 84.8185C193.839 84.6833 193.962 84.4375 193.851 83.995C193.63 83.1346 192.118 82.348 191.565 81.4753L189.057 80.5043C188.922 80.4674 188.75 80.5657 188.652 80.7378Z" fill="#333333"/>
<path d="M190.803 82.3358C190.778 82.2989 190.778 82.2252 190.828 82.1883C191.024 81.9916 191.577 81.5491 192.204 81.9301C192.241 81.9547 192.241 82.0162 192.217 82.0654C192.192 82.1145 192.143 82.1391 192.106 82.1145C191.54 81.7826 191.073 82.176 190.914 82.3358C190.864 82.3604 190.828 82.3604 190.803 82.3358Z" fill="white"/>
<path d="M191.27 82.7659C191.245 82.7291 191.245 82.6553 191.295 82.6185C191.491 82.4218 192.044 81.9793 192.671 82.3603C192.708 82.3849 192.708 82.4464 192.684 82.4955C192.659 82.5447 192.61 82.5693 192.573 82.5447C192.008 82.2128 191.54 82.6062 191.381 82.7659C191.344 82.8028 191.295 82.8028 191.27 82.7659Z" fill="white"/>
<path d="M191.713 83.1717C191.688 83.1348 191.688 83.0611 191.737 83.0242C191.934 82.8275 192.487 82.385 193.114 82.7661C193.151 82.7907 193.151 82.8521 193.126 82.9013C193.102 82.9505 193.053 82.975 193.016 82.9505C192.45 82.6186 191.983 83.0119 191.823 83.1717C191.786 83.1963 191.737 83.2086 191.713 83.1717Z" fill="white"/>
<path opacity="0.3" d="M189.316 83.4173C189.426 81.8808 188.75 81.4383 188.344 81.3154L187.791 82.3602C187.681 82.5569 187.73 82.8027 187.89 82.8519L189.316 83.4173Z" fill="#E87B50"/>
<path d="M187.569 85.3838L181.841 83.6139C181.694 83.5647 181.62 83.4172 181.657 83.2697L181.694 83.1591C181.743 83.0116 181.891 82.9379 182.038 82.9747L187.766 84.7447C187.914 84.7939 187.987 84.9414 187.951 85.0888L187.914 85.1995C187.864 85.347 187.705 85.433 187.569 85.3838Z" fill="white"/>
<path d="M182.653 81.0943L181.903 82.7782C181.817 82.9872 181.866 83.2207 182.026 83.2699L187.533 84.9661C187.68 85.0152 187.84 84.9661 187.975 84.8186C188.11 84.6711 188.196 84.4129 188.061 83.995C187.778 83.1469 186.217 82.4832 185.603 81.6351L183.034 80.8485C182.899 80.7993 182.727 80.8976 182.653 81.0943Z" fill="#333333"/>
<path d="M184.902 82.52C184.865 82.4832 184.878 82.4094 184.914 82.3726C185.099 82.1636 185.615 81.6842 186.267 82.0161C186.303 82.0407 186.316 82.1021 186.291 82.1513C186.267 82.2005 186.217 82.225 186.181 82.2128C185.603 81.9178 185.148 82.348 185 82.52C184.976 82.5446 184.927 82.5569 184.902 82.52Z" fill="white"/>
<path d="M185.406 82.9253C185.369 82.8885 185.381 82.8147 185.418 82.7778C185.603 82.5689 186.119 82.0895 186.77 82.4214C186.807 82.4459 186.82 82.5074 186.795 82.5566C186.77 82.6057 186.721 82.6303 186.684 82.618C186.107 82.323 185.652 82.7532 185.504 82.9253C185.48 82.9499 185.431 82.9622 185.406 82.9253Z" fill="white"/>
<path d="M185.873 83.2945C185.836 83.2576 185.849 83.1838 185.886 83.147C186.07 82.938 186.586 82.4586 187.238 82.7905C187.275 82.8151 187.287 82.8766 187.262 82.9257C187.238 82.9749 187.189 82.9995 187.152 82.9872C186.574 82.6922 186.119 83.1224 185.972 83.2945C185.947 83.3313 185.898 83.3313 185.873 83.2945Z" fill="white"/>
<path opacity="0.3" d="M183.501 83.7121C183.501 82.1634 182.8 81.7824 182.382 81.6841L181.903 82.7657C181.817 82.9747 181.866 83.2082 182.026 83.2574L183.501 83.7121Z" fill="#E87B50"/>
</svg>
