<svg width="260" height="184" viewBox="0 0 260 184" fill="none" xmlns="http://www.w3.org/2000/svg">
<path d="M173.304 4.00049H54.9946V72.5966H173.304V4.00049Z" fill="#2A4E96"/>
<path d="M171.996 5.62061H56.3037V70.9767H171.996V5.62061Z" fill="#D4E4F8"/>
<path d="M121.777 74.2297H106.575C105.681 74.2297 104.955 73.5039 104.955 72.6097V70.9897H123.358V72.6616C123.345 73.5299 122.645 74.2297 121.777 74.2297Z" fill="#2A4E96"/>
<path d="M113.754 72.6095C113.754 72.3892 113.923 72.2207 114.143 72.2207C114.364 72.2207 114.532 72.3892 114.532 72.6095C114.532 72.8298 114.364 72.9983 114.143 72.9983C113.936 72.9983 113.754 72.8169 113.754 72.6095Z" fill="#F99746"/>
<path d="M169.468 5.60693H57.3662V100.732H169.468V5.60693Z" fill="#9FC6ED"/>
<path d="M257.854 101.367L12.6235 101.281C34.3055 100.879 34.475 100.581 12.6235 101.281L19.169 101.355C37.5782 101.756 14.7927 101.367 14.9612 101.367L257.854 100.667C258.022 100.667 258.152 100.797 258.152 100.965V101.069C258.152 101.237 258.022 101.367 257.854 101.367Z" fill="#2E3552"/>
<path d="M130.265 57.8605H57.3145V21.3787C62.8872 19.6292 68.8098 18.6831 74.9527 18.6831C81.6918 18.6831 88.1717 19.8236 94.198 21.923C103.892 25.2926 112.419 31.1245 119.042 38.68C123.915 44.2398 127.764 50.7326 130.265 57.8605Z" fill="#80B3DD"/>
<path d="M66.3086 19.3054C69.0431 18.2168 71.8943 17.2577 74.8232 16.4154C80.7587 14.7176 86.6814 13.642 92.4355 13.2143C97.9952 12.7996 103.153 13.0199 107.767 13.8493C112.407 14.6787 116.256 16.0914 119.236 18.0483C122.347 20.0959 124.355 22.636 125.211 25.6298C126.066 28.6105 125.703 31.8375 124.148 35.22C123.319 37.0344 122.165 38.8358 120.688 40.6372C119.534 42.0498 118.174 43.4624 116.644 44.8621C113.171 48.0113 108.907 50.9272 103.97 53.5192C100.885 55.1392 97.6064 56.5906 94.198 57.8737H92.3448C104.747 53.5192 114.752 46.9875 120.299 40.1577C124.213 35.3107 125.898 30.3212 124.615 25.8241C123.798 22.986 121.88 20.5625 118.899 18.6056C115.996 16.7005 112.212 15.3138 107.663 14.4973C104.605 13.953 101.313 13.6679 97.8138 13.6679C96.0902 13.6679 94.3017 13.7327 92.4873 13.8752C86.785 14.3029 80.9013 15.3656 75.0046 17.0633C72.957 17.6465 70.9482 18.3075 68.9783 19.0073L66.3086 19.3054Z" fill="white"/>
<path d="M115.828 56.0202C115.828 56.0202 117.616 55.0871 118.161 55.2426C118.705 55.3981 120.921 56.2794 121.206 56.6811C121.634 57.3032 122.411 58.314 121.919 58.3659C121.413 58.4177 117.059 58.2233 116.567 58.1326C116.074 58.0419 114.947 57.4457 115.828 56.0202Z" fill="#EA9E6A"/>
<path d="M99.7965 40.1188L99.8224 59.7528C99.8224 59.7528 97.5026 61.8005 89.1176 61.7875C88.9102 61.7875 88.6899 61.7875 88.4826 61.7875C83.6745 61.7227 82.4692 55.3983 82.3915 49.5794C82.3267 44.6288 83.0654 40.041 83.0654 40.041C94.6514 36.3993 99.7965 40.1188 99.7965 40.1188Z" fill="#2B478B"/>
<path d="M116.541 57.9256C114.817 58.5477 104.929 58.2496 104.009 57.8738C103.542 57.6794 101.676 55.6447 99.8355 53.1694C98.0989 50.8366 96.3753 48.1151 95.8828 46.2359C94.8719 42.3739 96.3234 39.1729 96.3234 39.1729C96.3234 39.1729 98.8376 39.4061 99.7967 40.1448C100.769 40.8835 105.616 52.5733 106.367 52.9361C107.119 53.312 116.333 54.7635 117.344 55.3985C117.357 55.3985 118.264 57.2906 116.541 57.9256Z" fill="#2B478B"/>
<path d="M94.0554 38.9393L93.9906 39.5484C93.9906 39.5484 93.9777 41.4665 91.606 41.5313C89.2344 41.5961 87.5496 40.4038 87.757 38.9393C88.068 37.8248 88.3791 37.0602 88.4827 36.1271C88.5216 35.7771 88.5346 35.4013 88.5087 34.9736L93.0575 35.2976L94.3794 35.6346L94.0554 38.9393Z" fill="#EA9E6A"/>
<path d="M94.3796 35.6475L94.0556 38.9393C93.5501 39.1208 92.9929 39.2115 92.3838 39.1467C90.2972 38.9523 88.5347 35.4013 88.5088 34.9736L94.3796 35.6475Z" fill="#D88D59"/>
<path d="M94.4962 37.2678C94.4962 37.2678 88.5736 37.9028 88.2366 34.2093C87.8997 30.5157 86.9018 28.1052 90.6731 27.5479C94.4444 26.9907 95.3127 28.3255 95.7274 29.5308C96.1291 30.736 96.0384 37.0086 94.4962 37.2678Z" fill="#EA9E6A"/>
<path d="M97.101 26.9386C97.101 26.9386 95.494 26.6664 93.6537 25.6556C92.1633 24.8391 90.1416 25.3964 89.4677 25.6815C89.4936 25.5778 89.5455 25.4482 89.6621 25.3186C89.6621 25.3186 89.364 25.5001 89.2863 25.7722C89.2603 25.7852 89.2344 25.8111 89.2474 25.8111C89.2474 25.8111 88.9234 25.7204 88.716 25.7981C88.716 25.7981 88.8586 25.7852 88.9104 25.8889C88.9104 25.9018 88.9234 25.9148 88.9364 25.9148C86.4092 26.8608 85.826 30.671 86.5258 31.63C87.3682 32.7834 88.2624 35.2847 88.2624 35.2847C88.2624 35.2847 88.729 34.7533 88.6383 33.8073C88.5605 32.8482 89.364 32.926 90.4267 32.602C91.4894 32.2651 90.7507 30.995 91.7097 30.36C92.6688 29.712 95.9087 30.4507 95.9217 29.8934C97.1788 29.5306 97.088 27.0682 97.101 26.9386Z" fill="#233862"/>
<path d="M89.1048 61.7877C88.8974 61.7877 88.6771 61.7877 88.4698 61.7877C83.6617 61.7229 82.4564 55.3985 82.3787 49.5796C82.9359 49.9165 90.3878 54.6339 89.1048 61.7877Z" fill="#233862"/>
<path d="M85.3723 56.0202C85.3723 56.0202 87.1607 55.0871 87.705 55.2426C88.2493 55.3981 90.4655 56.2794 90.7506 56.6811C91.1782 57.3032 91.9558 58.314 91.4634 58.3659C90.9709 58.4177 86.6034 58.2233 86.111 58.1326C85.6185 58.0419 84.491 57.4457 85.3723 56.0202Z" fill="#EA9E6A"/>
<path d="M85.1651 39.561C85.1651 39.561 81.5752 40.0146 79.6183 41.8679C77.8428 43.5526 72.3608 52.0931 70.7927 55.2035C70.5465 55.696 71.013 56.8753 71.4407 57.2252C72.5163 58.1065 74.8361 58.8841 80.7976 58.4693L86.1111 58.1972C86.1111 58.1972 86.7203 55.8774 85.6187 55.2812L77.13 54.3611C77.13 54.3611 82.4694 49.7863 83.5451 48.4255C84.6337 47.0518 85.1651 39.561 85.1651 39.561Z" fill="#2B478B"/>
<path d="M116.541 57.9252C114.817 58.5473 104.929 58.2492 104.009 57.8733C103.542 57.6789 101.676 55.6443 99.8354 53.1689C99.9391 53.1949 103.101 53.9854 104.916 55.9423C104.916 55.9423 105.978 56.5644 109.037 56.5774C112.095 56.5903 115.996 56.8625 116.541 57.9252Z" fill="#233862"/>
<path d="M85.787 39.2891C85.787 39.2891 82.0287 39.7686 80.7327 40.6758C79.4238 41.5829 79.6311 41.881 79.6311 41.881C79.6311 41.881 80.0329 42.6327 81.9769 42.0365C83.9208 41.4404 86.5128 40.1444 86.5128 40.1444C86.5128 40.1444 86.4998 39.3798 85.787 39.2891Z" fill="#EE9849"/>
<path d="M94.7939 38.5637C94.7939 38.5637 94.9624 39.121 95.2994 39.2246C95.6234 39.3283 98.8763 40.5465 99.3428 40.3262C99.8094 40.1059 98.6819 38.9525 96.9323 38.7192C95.1698 38.473 94.7939 38.5637 94.7939 38.5637Z" fill="#EE9849"/>
<path d="M129.5 57.1742C129.98 57.7315 131.652 56.267 131.885 56.0726C131.898 56.0467 131.911 56.0467 131.911 56.0467L131.639 54.7637C131.639 54.7637 129.747 54.4397 129.384 54.7119C129.034 54.9711 128.969 56.5781 129.5 57.1742Z" fill="#ED985F"/>
<path d="M147.994 45.9896C147.981 46.2099 147.955 46.4561 147.903 46.7024C147.722 47.778 146.996 49.0611 146.05 50.3311C146.011 50.3959 145.972 50.4478 145.92 50.5126C144.106 52.8972 141.501 55.1651 140.011 55.8261C139.816 55.9168 139.57 55.9816 139.285 56.0464C138.132 56.2797 136.33 56.2926 134.788 56.2408C133.492 56.2019 132.364 56.1241 131.898 56.0853C131.755 56.0723 131.665 56.0593 131.665 56.0593L131.639 54.7634C131.639 54.7634 132.74 54.4782 134.114 54.0894C135.319 53.7395 136.732 53.2989 137.743 52.8972C138.326 52.6639 138.78 52.4565 138.987 52.2751C140.309 51.1605 142.253 47.0653 143.912 44.4215C144.067 44.1752 144.21 43.9419 144.365 43.7087C144.378 43.6828 144.391 43.6568 144.417 43.6439C144.495 43.5402 144.56 43.4365 144.624 43.3458C144.624 43.3328 144.637 43.3199 144.65 43.3199C144.948 42.8922 145.259 42.5553 145.519 42.3479V42.3349C145.545 42.322 145.557 42.309 145.583 42.2831C145.881 42.0498 146.154 41.985 146.374 42.1146C146.374 42.1146 146.84 42.4386 147.255 43.0996C147.307 43.1644 147.346 43.2292 147.385 43.294C147.644 43.7216 147.864 44.2789 147.955 44.9528C147.994 45.2638 148.02 45.6138 147.994 45.9896Z" fill="#FFB27D"/>
<path d="M160.293 60.5568C160.047 62.1639 146.141 62.4749 146.659 60.7383C146.659 60.7383 145.92 50.6037 145.143 48.0636C145.117 47.9729 145.091 47.8822 145.065 47.7915C144.508 45.368 146.542 43.1907 145.519 42.3095C145.519 42.3095 146.18 41.7004 148.15 41.2209C148.15 41.2209 148.305 41.182 148.564 41.1042C148.707 40.9098 148.668 40.1452 148.577 39.3547C148.461 38.3438 148.266 37.2681 148.266 37.2681L151.61 36.2054L151.804 36.1406C152.05 38.4863 152.841 39.9638 153.333 40.3137C153.606 40.3137 153.93 40.3266 154.241 40.3526C154.241 40.3526 155.537 40.3526 156.638 40.6506C156.936 40.7284 157.234 40.845 157.468 40.9746C157.468 40.9746 157.286 41.2597 157.066 41.7004C156.897 42.0503 156.69 42.5168 156.547 42.9963C156.522 43.1 156.496 43.2037 156.47 43.3074C156.418 43.5277 156.379 43.748 156.366 43.9683C156.34 44.2534 156.457 44.5386 156.664 44.8107C156.846 45.0699 157.118 45.3291 157.416 45.6142C157.61 45.7957 157.818 45.9901 158.038 46.2104C157.882 47.5193 157.506 49.6577 157.442 51.9775C157.429 52.5607 157.545 53.1439 157.779 53.6752C157.869 53.8826 157.986 54.0899 158.116 54.2843C159.191 55.8654 161.006 58.911 160.293 60.5568Z" fill="#FFB27D"/>
<path d="M151.571 27.7167C151.597 27.5223 154.513 30.5808 154.305 30.516C154.422 30.7622 154.526 31.0214 154.629 31.3195C155.537 34.0281 153.917 36.3479 152.906 35.9332C152.258 35.661 151.908 36.7885 151.908 36.7885L146.076 30.6197C146.076 30.6197 149.134 25.9671 151.571 27.7167Z" fill="#2C3A64"/>
<path d="M148.266 37.281C148.266 37.281 148.461 38.3437 148.577 39.3675C150.482 39.0953 151.299 37.2421 151.61 36.2183L148.266 37.281Z" fill="#ED985F"/>
<path d="M147.735 38.3174C147.735 38.3174 152.284 37.8897 151.96 35.0645C151.649 32.2393 152.025 30.2823 149.109 30.4378C146.193 30.5934 145.752 31.7338 145.622 32.7058C145.506 33.6648 146.556 38.3563 147.735 38.3174Z" fill="#FFB27D"/>
<path d="M145.596 31.1117C146.205 30.1786 146.75 30.3082 147.074 30.5285C149.393 28.8826 151.221 30.7229 151.221 30.7229C151.752 32.7187 153.346 33.7166 153.346 33.7166C153.346 33.7166 152.581 34.3258 150.612 34.0406C150.015 33.9499 149.445 33.6 148.953 33.1464C149.873 34.3517 151.026 35.1681 151.026 35.1681C148.629 34.3646 147.359 31.3061 147.242 30.9821C146.996 31.2672 146.503 31.8634 146.4 32.4077C146.257 33.1464 146.322 34.6497 145.881 34.6368C145.868 34.6497 144.689 32.5114 145.596 31.1117Z" fill="#2C3A64"/>
<path d="M134.866 52.0163L127.958 51.0962L134.01 60.9197L140.581 61.788L134.866 52.0163Z" fill="#CAD8E5"/>
<path d="M134.788 52.0163L127.867 51.0962L133.933 60.9197L140.49 61.788L134.788 52.0163Z" fill="#E9F3FE"/>
<path d="M136.369 57.3554C136.952 57.4332 137.873 57.5109 138.417 57.3813C138.417 57.3813 136.732 57.1351 137.16 56.6426C137.238 56.5519 138.067 56.7333 139 56.8629C139.389 56.9148 140.257 57.5628 140.205 57.5887C140.892 57.5887 141.527 57.5368 141.735 57.5239C141.786 57.5239 141.812 57.5109 141.812 57.5109L142.175 59.3383C142.175 59.3383 142.046 59.3512 141.812 59.3642C141.242 59.429 140.05 59.5715 138.909 59.8437C137.315 60.2454 136.304 59.3512 135.864 58.7551C135.592 58.3792 135.397 57.8997 135.449 57.5757C135.553 57.2258 136.019 57.3036 136.369 57.3554Z" fill="#FFB27D"/>
<path d="M151.247 27.8461C151.247 27.8461 152.245 26.0317 154.37 27.4832C156.884 29.2069 154.772 33.9372 154.772 33.9372L151.247 27.8461Z" fill="#2C3A64"/>
<path d="M160.293 60.5563C160.163 61.3728 156.522 61.8523 153.035 61.9042C149.653 61.956 146.4 61.5931 146.659 60.7378C146.659 60.7378 146.581 59.6751 146.452 58.1329C146.4 57.5626 146.348 56.9146 146.283 56.2407C146.193 55.3336 146.102 54.3745 145.998 53.4285C145.752 51.1864 145.454 49.0481 145.143 48.0631C145.117 47.9724 145.091 47.8817 145.065 47.791C144.508 45.3675 146.542 43.1902 145.519 42.309C145.583 42.3479 147.761 43.5531 150.793 43.255C153.865 42.944 156.651 40.6631 156.651 40.6631C156.651 40.6631 157.208 40.8056 157.481 40.9871C157.817 41.2074 156.703 42.5293 156.56 43.0218C156.534 43.1254 156.509 43.2291 156.483 43.3328C156.431 43.5531 156.392 43.7734 156.379 43.9937C156.353 44.2789 156.47 44.564 156.677 44.8361C156.858 45.0953 157.131 45.3545 157.429 45.6396C157.623 45.8211 157.83 46.0155 158.051 46.2358C157.908 47.467 157.558 49.4369 157.468 51.6011C157.468 51.7307 157.455 51.8603 157.455 51.9899C157.442 52.5731 157.558 53.1563 157.792 53.6877C157.882 53.895 157.999 54.1024 158.129 54.2968C159.191 55.8649 161.006 58.9104 160.293 60.5563Z" fill="#B64C41"/>
<path d="M144.987 56.2148C145.35 57.122 145.842 58.1459 146.439 58.9234C145.855 59.0012 145.272 59.066 144.715 59.1308C144.585 59.1438 144.456 59.1567 144.326 59.1697H144.313C143.523 59.2345 142.797 59.2993 142.188 59.3381C142.188 59.3381 142.058 59.3511 141.838 59.3641C141.086 59.4029 140.607 59.4289 140.607 59.4289L140.412 58.0292C140.412 58.0292 140.944 57.8348 141.747 57.5238C142.24 57.3294 142.836 57.0961 143.471 56.8499C143.523 56.824 143.575 56.811 143.613 56.7851C144.067 56.6036 144.534 56.4092 144.987 56.2148Z" fill="#FFB27D"/>
<path d="M147.994 45.9897C147.981 46.21 147.955 46.4562 147.903 46.7025C147.722 47.7781 146.996 49.0612 146.05 50.3312C146.011 50.396 145.972 50.4479 145.921 50.5127C145.843 50.6163 145.752 50.733 145.674 50.8367C143.873 53.0917 141.436 55.2041 140.011 55.8262C139.816 55.9169 139.57 55.9817 139.285 56.0465C138.806 55.6836 138.469 55.2041 138.235 54.7116C137.924 54.0507 137.795 53.3638 137.743 52.8973C138.326 52.664 138.78 52.4566 138.987 52.2752C140.309 51.1606 142.253 47.0654 143.912 44.4216C144.067 44.1753 144.21 43.9421 144.365 43.7088C144.378 43.6829 144.391 43.6569 144.417 43.644C144.495 43.5403 144.56 43.4366 144.625 43.3459C144.625 43.3329 144.638 43.32 144.65 43.32C144.949 42.8923 145.26 42.5554 145.519 42.348V42.335C145.545 42.3221 145.558 42.3091 145.584 42.2832C146.413 43.1385 147.294 44.6419 147.994 45.9897Z" fill="#B64C41"/>
<path d="M145.674 50.8237C143.873 53.0787 141.436 55.1912 140.011 55.8132C139.816 55.904 139.57 55.9688 139.285 56.0336C138.806 55.6707 138.469 55.1912 138.235 54.6987C140.089 55.1134 143.536 52.0808 144.132 51.4976C144.767 50.8885 145.635 50.8237 145.674 50.8237Z" fill="#A53F3A"/>
<path d="M158.051 46.249C157.908 47.4802 157.558 49.4501 157.467 51.6144C156.716 54.1674 155.083 59.1958 153.035 61.9044C149.653 61.9563 146.4 61.5934 146.659 60.7381C146.659 60.7381 146.581 59.6754 146.452 58.1331C146.905 57.4722 147.67 56.876 148.797 56.4354C152.426 54.9969 156.068 49.6186 158.051 46.249Z" fill="#A53F3A"/>
<path d="M149.977 56.4354C148.59 56.6946 147.139 56.7853 146.283 56.2539C146.193 55.3467 146.102 54.3877 145.998 53.4417C147.592 52.3012 154.461 47.7264 155.55 45.6917C156.781 43.4108 152.439 55.9688 149.977 56.4354Z" fill="#A53F3A"/>
<path d="M158.569 44.6681C158.556 44.8365 158.517 45.018 158.492 45.1994C158.401 45.7308 158.206 46.3658 157.96 47.0656C157.545 48.232 156.949 49.5669 156.237 50.9017C156.042 51.2646 155.835 51.6275 155.627 52.0033C154.111 54.673 152.31 57.1094 150.949 57.8352C150.884 57.8741 150.845 57.9 150.793 57.9259C150.236 58.1851 149.433 58.4054 148.525 58.5998C147.346 58.8331 145.985 59.0016 144.741 59.1312C143.925 58.4184 143.704 57.4594 143.653 56.7855C145.143 56.1893 146.828 55.4506 148.02 54.8156C148.72 54.4397 149.264 54.0898 149.472 53.8177C149.796 53.403 150.184 52.729 150.625 51.8867C150.858 51.446 151.104 50.9665 151.351 50.4481C151.778 49.6057 152.232 48.6856 152.686 47.7784C153.502 46.1066 154.37 44.4348 155.148 43.1647C155.653 42.3612 156.12 41.7132 156.535 41.3244C156.859 41.0134 157.157 40.8709 157.416 40.9486C157.455 40.9616 157.481 40.9745 157.52 40.9875C157.494 41.0004 158.945 41.6225 158.569 44.6681Z" fill="#B64C41"/>
<path d="M166.112 100.667H46.9597C43.8624 100.667 41.4518 98.0618 40.9205 94.8478C40.7131 93.6426 40.7909 92.3466 41.1797 91.0636L48.6056 67.1009C50.3293 61.5412 54.8393 57.8477 59.9065 57.8477H149.29C153.01 57.8477 156.288 60.7247 157.312 64.8978L166.112 100.667Z" fill="#BAD4F4"/>
<path d="M177.348 100.667H74.4344C70.365 100.667 66.7751 98.3342 64.8571 94.848C63.9888 93.2929 63.4574 91.4915 63.3667 89.5734L62.4984 71.8444C62.1226 64.237 67.8638 57.8608 75.0694 57.8608H172.825C176.946 57.8608 180.562 60.7379 181.702 64.911L187.547 86.3983C189.478 93.5521 184.398 100.667 177.348 100.667Z" fill="#D2E3FC"/>
<path d="M65.4143 30.2435C65.4143 30.399 65.3106 30.4638 65.1162 30.4638L64.2998 30.4508C64.1961 30.4508 64.1183 30.4249 64.0794 30.386C64.0406 30.3342 64.0146 30.2694 64.0146 30.1657L64.0406 28.0273C64.0406 27.82 64.1183 27.7163 64.2868 27.7163C64.4423 27.7163 64.5201 27.82 64.5201 28.0403L64.4942 30.0232H65.1033C65.3106 30.0232 65.4143 30.0879 65.4143 30.2435Z" fill="white"/>
<path d="M66.0882 30.1914C66.0882 30.3987 66.0104 30.5024 65.8419 30.5024C65.6864 30.5024 65.6086 30.3987 65.6086 30.1914L65.6346 28.04C65.6346 27.8327 65.7123 27.729 65.8808 27.729C66.0363 27.729 66.1141 27.8327 66.1141 28.04L66.0882 30.1914Z" fill="white"/>
<path d="M68.5376 27.9752C68.5376 28.0271 68.5247 28.0789 68.5117 28.1308L67.6693 30.321C67.6175 30.4635 67.5268 30.5283 67.4231 30.5283C67.3065 30.5283 67.2287 30.4635 67.1769 30.3339L66.3604 28.1048C66.3345 28.053 66.3345 28.0012 66.3345 27.9623C66.3345 27.8975 66.3604 27.8327 66.3993 27.7938C66.4382 27.7549 66.5029 27.729 66.5677 27.729C66.6714 27.729 66.7621 27.8068 66.801 27.9493L67.4231 29.7637C67.4231 29.7637 67.4231 29.7507 67.4361 29.7378L68.0711 27.9752C68.1229 27.8327 68.2007 27.7679 68.3173 27.7679C68.4728 27.742 68.5376 27.8197 68.5376 27.9752Z" fill="white"/>
<path d="M70.1705 30.2952C70.1705 30.4378 70.0668 30.5155 69.8724 30.5026L69.0171 30.4896C68.9134 30.4896 68.8356 30.4637 68.7967 30.4248C68.7579 30.3859 68.7319 30.3082 68.7319 30.2045L68.7579 28.0791C68.7579 27.8717 68.8615 27.7681 69.043 27.7681L69.9113 27.781C70.1057 27.781 70.1964 27.8588 70.1964 28.0013C70.1964 28.1439 70.0927 28.2217 69.8983 28.2217L69.2244 28.2087L69.2114 28.8567H69.8205C70.0149 28.8567 70.1186 28.9344 70.1186 29.077C70.1186 29.2196 70.0149 29.2844 69.8205 29.2844H69.2114L69.1985 30.036L69.8853 30.049C70.0797 30.0749 70.1705 30.1397 70.1705 30.2952Z" fill="white"/>
<path d="M61.0598 29.0901C61.0598 28.7402 61.3449 28.4551 61.6948 28.4551C62.0448 28.4551 62.3299 28.7402 62.3299 29.0901C62.3299 29.44 62.0448 29.7251 61.6948 29.7251C61.332 29.7122 61.0598 29.4271 61.0598 29.0901Z" fill="white"/>
<path d="M171.996 67.4648H56.3037V70.9899H171.996V67.4648Z" fill="#F99746"/>
<path d="M168.392 121.326C168.483 122.414 164.53 126.224 161.394 129.063C160.539 129.827 159.748 130.54 159.113 131.084C158.348 131.745 158.076 132.795 158.387 133.754C158.543 134.221 158.608 134.7 158.491 135.128C158.336 135.685 158.089 136.216 157.506 136.216H154.448H150.663C150.028 136.216 149.639 135.491 150.015 134.972C150.469 134.337 151.208 133.897 152.063 133.715C152.361 133.65 152.685 133.482 153.022 133.249C154.175 132.432 155.381 130.799 155.886 129.866C156.34 129.024 156.754 128.117 157.143 127.183C159.502 121.494 160.811 114.664 164.686 112.137C165.658 111.476 168.237 119.511 168.392 121.326Z" fill="#EA9C68"/>
<path d="M161.394 129.062C160.539 129.827 159.748 130.54 159.113 131.084C158.349 131.745 158.077 132.795 158.388 133.754C158.543 134.22 158.608 134.7 158.491 135.127C158.336 135.685 158.089 136.216 157.506 136.216H154.448H150.664C150.029 136.216 149.64 135.49 150.016 134.972C150.469 134.337 151.208 133.896 152.063 133.715C152.361 133.65 152.685 133.482 153.022 133.248C154.176 132.432 155.381 130.799 155.886 129.866C156.34 129.023 156.755 128.116 157.143 127.183C158.193 127.339 160.085 127.818 161.394 129.062Z" fill="#35488B"/>
<path d="M154.461 136.204H150.676C150.041 136.204 149.652 135.478 150.028 134.959C150.482 134.324 151.221 133.884 152.076 133.702C152.374 133.638 152.698 133.469 153.035 133.236C153.579 133.858 154.396 134.972 154.461 136.204Z" fill="#25386D"/>
<path d="M176.998 84.1699C176.998 84.1699 177.386 83.0035 176.972 82.1611C176.972 82.1611 176.946 83.3146 176.492 83.82C176.039 84.3384 176.998 84.1699 176.998 84.1699Z" fill="#2C3A64"/>
<path d="M176.816 83.3529C176.816 83.3529 177.892 83.2363 178.397 84.0528C178.397 84.0528 177.646 83.5473 176.881 84.0787L176.816 83.3529Z" fill="#2C3A64"/>
<path d="M188.376 126.121C188.376 126.121 187.949 136.229 174.6 136.229C164.88 136.229 158.012 112.111 158.012 112.111C158.012 112.111 160.396 110.66 160.915 110.789C165.567 111.956 188.376 126.121 188.376 126.121Z" fill="#FFB27D"/>
<path d="M167.861 99.1645L173.071 101.562L174.237 97.5056C174.237 97.5056 173.499 96.106 173.162 93.8121C173.019 92.8401 172.954 91.7256 173.045 90.4814L168.289 92.9179C168.289 92.9179 168.405 93.3585 168.483 94.0065C168.561 94.7063 168.6 95.6524 168.405 96.5466C168.224 97.3242 168.03 98.1536 167.861 99.1645Z" fill="#FFB27D"/>
<path d="M168.393 96.5592C171.101 96.4815 173.162 93.8247 173.162 93.8247L168.47 94.0191C168.561 94.706 168.6 95.652 168.393 96.5592Z" fill="#EA9C68"/>
<path d="M167.084 95.0428C167.084 95.0428 172.475 96.4684 174.341 92.1787C176.35 87.5521 174.147 84.1696 172.319 83.9493C168.665 83.4957 166.539 84.8824 165.904 86.3598C165.256 87.8372 164.103 94.2912 167.084 95.0428Z" fill="#FFB27D"/>
<path d="M181.223 136.216C181.223 136.216 172.721 136.216 171.866 136.216C171.658 136.216 171.27 136.061 170.79 135.84C169.287 135.128 166.954 133.624 166.954 133.624C166.021 125.46 173.201 121.675 173.201 121.675C173.201 121.675 185.681 123.399 187.068 128.181C187.145 128.44 187.197 128.699 187.223 128.946C187.703 133.3 181.223 136.216 181.223 136.216Z" fill="#35488B"/>
<path d="M181.223 136.216C181.223 136.216 172.721 136.216 171.866 136.216C171.658 136.216 171.27 136.06 170.79 135.84C170.984 135.853 171.192 135.866 171.425 135.879C181.171 136.631 179.888 128.479 179.888 128.479L187.236 128.946C187.703 133.3 181.223 136.216 181.223 136.216Z" fill="#25386D"/>
<path d="M166.293 85.6991C164.868 85.8157 163.649 84.6234 165.269 82.3814C166.747 80.3337 172.514 79.945 175.132 81.863C182.376 87.1635 177.102 92.4252 173.875 94.0581C173.46 94.2655 172.967 94.1359 172.695 93.773C172.151 93.0214 171.334 91.7513 171.555 91.2459C171.879 90.4942 171.918 88.628 170.907 89.0297C169.896 89.4185 167.706 85.5824 166.293 85.6991Z" fill="#2C3A64"/>
<path d="M188.273 129.698C181.87 135.245 174.872 123.464 171.982 119.796C171.593 119.304 171.282 118.954 171.049 118.812C169.131 117.645 166.371 113.239 166.215 111.373C166.073 109.688 166.137 107.951 166.306 106.292C166.798 101.381 168.25 97.1817 168.25 97.1817C173.317 97.3242 173.835 96.5337 173.835 96.5337C185.577 98.3351 190.554 127.715 188.273 129.698Z" fill="#FFB93E"/>
<path d="M171.982 119.796C171.593 119.303 171.282 118.954 171.049 118.811C169.131 117.645 166.371 113.238 166.215 111.372C166.073 109.687 166.137 107.951 166.306 106.292C167.032 104.763 168.25 103.531 170.129 102.832H171.801C171.814 102.845 176.518 107.316 171.982 119.796Z" fill="#FFA412"/>
<path d="M161.732 121.325C161.745 121.455 161.693 121.623 161.602 121.831C160.889 123.321 157.494 126.561 154.733 129.062C153.878 129.827 153.087 130.54 152.452 131.084C151.688 131.745 151.416 132.795 151.727 133.754C151.882 134.22 151.947 134.7 151.83 135.127C151.675 135.685 151.429 136.216 150.845 136.216L144.003 136.203C143.368 136.203 142.979 135.477 143.355 134.959C143.808 134.324 144.547 133.883 145.402 133.702C146.75 133.404 148.577 131.045 149.225 129.853C149.679 129.01 150.094 128.103 150.483 127.17C151.351 125.071 152.077 122.803 152.854 120.664C153.399 119.161 153.956 117.709 154.591 116.426C155.511 114.586 156.587 113.057 158.025 112.124C158.038 112.111 158.038 112.111 158.051 112.111C158.453 111.929 159.088 113.07 159.723 114.638C160.06 115.48 160.41 116.439 160.708 117.372C161.252 119.031 161.667 120.638 161.732 121.325Z" fill="#FFB27D"/>
<path d="M154.733 129.062C153.877 129.827 153.087 130.539 152.452 131.084C151.687 131.745 151.415 132.794 151.726 133.753C151.881 134.22 151.946 134.7 151.83 135.127C151.674 135.684 151.428 136.216 150.845 136.216L144.002 136.203C143.367 136.203 142.978 135.477 143.354 134.959C143.808 134.324 144.546 133.883 145.402 133.702C146.749 133.404 148.577 131.045 149.225 129.853C149.678 129.01 150.093 128.103 150.482 127.17C151.532 127.338 153.411 127.818 154.733 129.062Z" fill="#35488B"/>
<path d="M165.593 112.85C165.515 112.927 163.546 115.26 160.707 117.36C160.474 117.541 160.228 117.71 159.969 117.878C157.856 119.317 155.368 120.535 152.841 120.651C153.385 119.148 153.942 117.697 154.577 116.414C155.951 115.882 157.455 115.351 158.893 114.884C159.165 114.794 159.437 114.703 159.71 114.612C162.885 113.601 165.541 112.863 165.593 112.85Z" fill="#EA9C68"/>
<path d="M167.498 98.2961C167.498 98.2961 161.822 111.139 159.45 112.111C157.066 113.096 151.947 118.086 151.947 118.086L153.048 119.848C153.048 119.848 160.215 117.023 161.939 116.038C163.649 115.053 172.319 106.577 171.788 104.296C171.27 102.016 172.838 97.4666 167.498 98.2961Z" fill="#FFB27D"/>
<path d="M169.585 97.2202C169.585 97.2202 167.33 97.8034 165.917 100.058C164.505 102.313 163.17 104.659 163.17 104.659C163.17 104.659 165.956 108.625 172.112 106.888C178.268 105.139 173.836 96.987 169.585 97.2202Z" fill="#FFB93E"/>
<path d="M151.947 118.085C151.947 118.085 149.756 120.82 151.856 123.503L153.398 119.174L151.947 118.085Z" fill="#FFB27D"/>
<path d="M224.962 154.347L223.51 159.829L217.484 182.664H216.849L220.335 163.73C220.335 163.717 220.348 163.691 220.348 163.678L222.072 154.308L224.962 154.347Z" fill="#2B478B"/>
<path d="M224.962 154.347L223.511 159.829C223.433 159.868 220.789 161.229 220.348 163.665L222.072 154.295L224.962 154.347Z" fill="#163560"/>
<path d="M253.421 182.664H252.786L247.875 164.067L246.76 159.842L245.309 154.36L248.199 154.308L249.184 159.66L249.922 163.678C249.922 163.704 249.935 163.717 249.935 163.73L253.421 182.664Z" fill="#2B478B"/>
<path d="M249.197 159.66C248.666 160.438 247.927 161.903 247.888 164.067L246.774 159.842L245.322 154.36L248.212 154.308L249.197 159.66Z" fill="#163560"/>
<path d="M258.022 154.84H210.577C209.929 154.84 209.41 154.308 209.41 153.673V150.278C209.41 149.63 209.942 149.111 210.577 149.111H258.022C258.67 149.111 259.189 149.643 259.189 150.278V153.673C259.202 154.321 258.67 154.84 258.022 154.84Z" fill="#2B478B"/>
<path d="M253.888 146.674H239.23V149.137H253.888V146.674Z" fill="#EFDECE"/>
<path d="M254.199 148.877H232.129L232.064 146.674H254.186C254.251 146.674 254.316 146.622 254.316 146.545C254.316 146.467 254.251 146.415 254.173 146.415H232.064H231.416C231.26 146.415 231.105 146.506 231.027 146.635C230.781 147.076 230.379 148.087 231.17 149.137H231.183H232.142H254.173C254.251 149.137 254.316 149.072 254.316 148.994C254.316 148.929 254.264 148.877 254.199 148.877Z" fill="#2A4E96"/>
<path d="M245.827 148.878L231.611 148.891C231.364 148.891 231.157 148.683 231.157 148.437V146.934C231.157 146.778 231.274 146.662 231.429 146.662H245.815V148.878H245.827Z" fill="#FCECDB"/>
<path d="M241.589 147.867L245.827 147.815V147.97L241.589 147.867Z" fill="#EFDECE"/>
<path d="M244.298 148.372L245.827 148.294V148.398L244.298 148.372Z" fill="#EFDECE"/>
<path d="M249.987 143.953H237.028V146.415H249.987V143.953Z" fill="#EFDECE"/>
<path d="M250.259 146.156H230.755L230.69 143.953H250.234C250.298 143.953 250.35 143.901 250.35 143.823C250.35 143.746 250.298 143.694 250.234 143.694H230.69H230.12C229.977 143.694 229.848 143.785 229.783 143.914C229.563 144.355 229.2 145.366 229.913 146.415H229.926H230.768H250.234C250.311 146.415 250.363 146.351 250.363 146.273C250.363 146.208 250.311 146.156 250.259 146.156Z" fill="#A9453D"/>
<path d="M242.859 146.156L230.301 146.169C230.081 146.169 229.9 145.975 229.9 145.715V144.212C229.9 144.057 230.003 143.94 230.133 143.94H242.846V146.156H242.859Z" fill="#FCECDB"/>
<path d="M239.114 145.132L242.859 145.093V145.236L239.114 145.132Z" fill="#EFDECE"/>
<path d="M241.511 145.651L242.859 145.573V145.663L241.511 145.651Z" fill="#EFDECE"/>
<path d="M243.002 143.681H231.235C230.936 143.681 230.69 143.435 230.69 143.137V142.139C230.69 141.789 230.975 141.504 231.325 141.504H243.002V143.681Z" fill="#2A4E96"/>
<path d="M248.652 143.512H242.717C242.432 143.512 242.186 143.279 242.186 142.981V142.139C242.186 141.892 242.38 141.685 242.639 141.685H248.652V143.512Z" fill="#FCECDB"/>
<path d="M248.95 141.517H232.388V141.698H248.95V141.517Z" fill="#2A4E96"/>
<path d="M248.951 143.513H232.855V143.694H248.951V143.513Z" fill="#2A4E96"/>
<path d="M224.158 141.776C224.158 141.776 221.566 142.826 219.726 140.182C219.713 140.182 222.707 139.677 224.158 141.776Z" fill="#6BB7BF"/>
<path d="M224.34 140.688C224.34 140.688 224.521 139.755 225.61 139.729C225.61 139.729 225.195 140.662 224.34 140.688Z" fill="#6BB7BF"/>
<path d="M223.796 135.258C223.796 135.258 222.539 135.387 222.072 134.014C222.059 134.014 223.42 134.169 223.796 135.258Z" fill="#6BB7BF"/>
<path d="M220.802 117.049C223.342 116.505 223.381 114.431 223.381 114.431C220.4 115.364 220.802 117.049 220.802 117.049Z" fill="#6BB7BF"/>
<path d="M220.633 116.569C220.633 116.569 219.052 117.217 217.925 115.597C217.925 115.597 219.752 115.286 220.633 116.569Z" fill="#6BB7BF"/>
<path d="M224.107 147.854L224.431 148.23C224.482 148.282 224.573 148.256 224.573 148.178C224.56 137.499 223.199 128 222.059 122.401C220.815 116.284 219.558 112.681 219.545 112.643C219.558 112.681 220.698 116.349 221.929 122.44C223.07 128.052 224.379 135.387 224.042 147.712C224.055 147.764 224.068 147.815 224.107 147.854Z" fill="#6BB7BF"/>
<path d="M219.571 111.191C219.972 111.515 221.528 112.902 220.024 113.977C220.024 113.977 218.871 114.34 218.495 113.459C218.21 112.785 218.119 112.02 218.106 111.709C218.106 111.632 218.158 111.554 218.249 111.554C218.339 111.541 218.456 111.528 218.573 111.476C218.715 111.424 218.793 111.204 218.974 111.152C219.091 111.126 219.221 111.1 219.363 111.113C219.428 111.1 219.506 111.139 219.571 111.191Z" fill="#F99746"/>
<path d="M220.426 113.588C220.426 113.588 219.972 113.951 220.141 114.547V114.768C220.141 114.768 220.024 114.223 219.454 114.055C219.454 114.042 219.972 114.107 220.426 113.588Z" fill="#6BB7BF"/>
<path d="M220.802 117.049C223.342 116.505 223.381 114.431 223.381 114.431C223.381 114.431 221.372 115.533 220.802 117.049Z" fill="#8AD8DB"/>
<path d="M223.239 115.623C223.239 115.623 224.833 116.232 225.921 114.599C225.934 114.599 224.107 114.327 223.239 115.623Z" fill="#6BB7BF"/>
<path d="M220.401 146.974L220.077 147.362C220.025 147.414 219.934 147.388 219.934 147.311C219.74 136.632 220.906 127.106 221.93 121.495C223.044 115.365 224.237 111.723 224.25 111.684C224.237 111.723 223.174 115.416 222.059 121.534C221.036 127.171 219.869 134.519 220.452 146.844C220.452 146.883 220.426 146.935 220.401 146.974Z" fill="#6BB7BF"/>
<path d="M224.198 110.219C223.796 110.556 222.28 111.969 223.809 113.006C223.809 113.006 224.962 113.343 225.338 112.449C225.61 111.762 225.675 111.01 225.688 110.686C225.688 110.608 225.623 110.53 225.546 110.53C225.455 110.53 225.338 110.505 225.222 110.466C225.079 110.414 225.001 110.194 224.807 110.155C224.69 110.129 224.561 110.103 224.418 110.116C224.34 110.129 224.263 110.168 224.198 110.219Z" fill="#F99746"/>
<path d="M223.394 112.63C223.394 112.63 223.861 112.993 223.705 113.576V113.796C223.705 113.796 223.822 113.252 224.379 113.071C224.366 113.071 223.861 113.135 223.394 112.63Z" fill="#6BB7BF"/>
<path d="M222.565 113.744C222.565 113.744 220.88 114.029 220.128 112.202C220.141 112.215 221.982 112.306 222.565 113.744Z" fill="#6BB7BF"/>
<path d="M219.13 145.042L219.364 145.483C219.403 145.548 219.493 145.535 219.519 145.457C221.826 135.024 222.578 125.473 222.681 119.758C222.798 113.524 222.357 109.714 222.357 109.688C222.357 109.727 222.668 113.563 222.552 119.771C222.448 125.499 222.111 132.938 219.104 144.887C219.104 144.939 219.104 145.003 219.13 145.042Z" fill="#6BB7BF"/>
<path d="M222.707 108.262C223.031 108.664 224.237 110.362 222.539 111.075C222.539 111.075 221.334 111.178 221.152 110.232C221.01 109.507 221.1 108.755 221.152 108.431C221.165 108.353 221.243 108.288 221.321 108.301C221.411 108.314 221.528 108.314 221.658 108.301C221.813 108.275 221.93 108.081 222.124 108.081C222.254 108.081 222.37 108.081 222.513 108.12C222.591 108.159 222.656 108.211 222.707 108.262Z" fill="#F99746"/>
<path d="M223.018 110.79C223.018 110.79 222.487 111.049 222.526 111.658L222.487 111.866C222.487 111.866 222.487 111.308 221.969 111.023C221.969 111.036 222.461 111.192 223.018 110.79Z" fill="#6BB7BF"/>
<path d="M221.178 111.878C221.178 111.878 221.178 110.543 220.024 110.129C220.024 110.116 219.778 111.23 221.178 111.878Z" fill="#6BB7BF"/>
<path d="M223.874 109.727C223.874 109.727 223.835 108.703 224.781 108.418C224.781 108.418 225.014 109.364 223.874 109.727Z" fill="#ED9F4A"/>
<path d="M220.789 115.857C220.75 115.883 220.296 114.872 221.23 114.042C221.23 114.042 221.618 115.131 220.789 115.857Z" fill="#ED9F4A"/>
<path d="M220.141 115.779C220.167 115.792 220.154 115.274 219.661 115.196C219.661 115.196 219.584 115.623 220.141 115.779Z" fill="#6BB7BF"/>
<path d="M224.949 114.042C224.949 114.042 225.351 113.2 226.66 113.342C226.66 113.342 226.465 114.25 224.949 114.042Z" fill="#6BB7BF"/>
<path d="M217.743 149.111H226.102C226.66 149.111 227.1 148.619 227.01 148.062L223.122 121.222C223.083 120.976 222.875 120.781 222.616 120.781H221.372C221.1 120.781 220.88 120.976 220.828 121.248L216.836 148.088C216.771 148.619 217.199 149.111 217.743 149.111Z" fill="#F99746"/>
<path d="M224.249 148.295L222.188 120.781C222.409 120.807 222.59 120.989 222.629 121.209L226.517 148.049C226.595 148.606 226.167 149.098 225.61 149.098H223.938C224.145 148.917 224.275 148.619 224.249 148.295Z" fill="#FFB278"/>
<path d="M150.106 91.3105C150.106 91.3105 149.562 94.8614 150.69 96.7017H143.549C143.549 96.7017 144.119 93.6432 143.834 91.7122C143.549 89.7812 150.106 91.3105 150.106 91.3105Z" fill="#FFB27D"/>
<path d="M143.834 91.7121C143.834 91.7121 141.644 92.6322 141.151 86.1782C140.762 81.098 141.242 80.1908 146.503 80.0483C151.48 79.9057 152.452 81.3572 152.452 83.1197C152.465 92.4378 145.804 91.2585 143.834 91.7121Z" fill="#FFB27D"/>
<path d="M148.305 77.2098C150.288 77.7671 153.1 79.2963 153.1 81.9142C153.1 84.3636 152.867 86.7482 152.231 87.3573C151.596 87.9664 151.791 90.7398 148.953 90.7398C146.335 90.7398 143.665 89.0939 143.263 87.5646C142.862 86.0354 140.944 87.111 140.555 85.517C139.777 82.3678 139.907 80.7478 141.98 79.0371C143.795 77.5467 146.063 76.5748 148.305 77.2098Z" fill="#B22929"/>
<path d="M152.452 86.515C152.452 86.515 153.074 86.0095 153.294 86.6316C153.515 87.2666 152.076 89.3532 151.532 88.6534C150.987 87.9665 152.452 86.515 152.452 86.515Z" fill="#FFB27D"/>
<path d="M165.826 107.38V124.915L123.292 123.891C122.191 123.839 118.057 119.329 118.16 118.241L120.415 114.677C121.426 113.199 123.759 110.763 124.381 110.257C126.74 108.288 132.714 103.181 133.22 101.458C134.282 97.9068 135.656 96.6238 137.043 96.1313C139.09 95.4055 141.436 94.926 143.821 94.6668C144.326 94.615 144.832 94.5761 145.324 94.5372C146.931 94.4336 148.538 94.4336 150.054 94.5372C153.476 94.7575 156.431 95.4963 157.986 96.7015C159.424 97.829 163.105 103.207 165.826 107.38Z" fill="#2B478B"/>
<path d="M146.089 75.7846C146.84 75.8623 147.592 75.8364 148.344 75.7198C149.795 75.4865 152.18 75.4217 153.307 77.0028C157.662 83.1328 152.309 86.619 153.1 88.7962C153.903 90.9734 159.126 93.9153 157.973 96.7017C155.109 103.635 150.262 98.2439 145.544 96.6757C144.637 96.3777 145.078 91.5955 149.938 89.172C151.402 88.4463 142.564 86.8782 141.125 86.1913C139.026 85.1804 138.922 83.4309 139.246 81.772C139.803 79.0375 142.175 75.3569 146.089 75.7846Z" fill="#B22929"/>
<path d="M143.626 86.7094C143.626 86.7094 143.717 85.893 143.056 85.9578C141.41 86.1133 141.449 88.4849 142.343 88.6664C143.238 88.8348 143.626 86.7094 143.626 86.7094Z" fill="#FFB27D"/>
<path d="M89.4287 84.2596C89.4287 84.2596 90.0119 88.0957 88.7937 90.0915H96.5177C96.5177 90.0915 95.9086 86.7868 96.2067 84.7003C96.5177 82.6137 89.4287 84.2596 89.4287 84.2596Z" fill="#FFB27D"/>
<path d="M92.824 86.0746C92.824 86.0746 98.5782 85.6858 99.1095 78.7264C99.5242 73.2314 99.0058 72.2594 93.3294 72.1039C87.9511 71.9484 86.9014 73.5165 86.9014 75.4216C86.8884 85.4784 90.6856 85.5821 92.824 86.0746Z" fill="#FFB27D"/>
<path d="M91.3726 69.0323C89.2343 69.6285 86.1887 71.2873 86.1887 74.1125C86.1887 76.7563 86.4479 79.3353 87.1218 79.9963C87.7957 80.6572 89.5064 84.9469 92.5649 84.9469C95.4031 84.9469 96.8417 83.5861 97.2823 81.9402C97.7229 80.2943 99.317 79.7241 99.7446 78.0005C100.587 74.605 100.444 72.8554 98.2024 71.0022C96.2455 69.3952 93.7961 68.3454 91.3726 69.0323Z" fill="#B22929"/>
<path d="M86.9015 79.0888C86.9015 79.0888 86.2406 78.5315 85.9944 79.2184C85.7611 79.8923 87.3162 82.1603 87.8994 81.4086C88.4826 80.644 86.9015 79.0888 86.9015 79.0888Z" fill="#FFB27D"/>
<path d="M80.927 90.0916C84.6853 87.1757 96.0122 86.7998 103.542 89.4825C105.032 90.0139 106.523 91.4006 107.663 95.2237C108.22 97.0769 114.661 102.598 117.214 104.723C117.875 105.268 120.402 107.898 121.491 109.492L123.928 113.341C124.044 114.521 119.573 119.381 118.394 119.446L67.8117 120.664L65.8936 112.953C65.5826 111.721 65.8677 110.426 66.6712 109.441C67.7858 108.054 69.3539 106.434 69.7427 105.825C72.0754 102.131 78.7756 91.7634 80.927 90.0916Z" fill="#B64C41"/>
<path d="M92.6557 67.7104C92.6557 67.7104 88.5086 66.9458 85.9685 68.812C83.4283 70.6782 82.9877 73.5553 82.1324 75.901C81.264 78.2467 78.2574 78.804 79.5015 81.8236C82.5989 89.3014 94.6385 87.2538 99.7317 85.556C100.717 85.232 99.7706 83.638 98.371 83.0807C96.7251 82.4327 97.5545 79.4649 99.1097 78.7133C101.378 77.6246 101.481 75.7325 101.131 73.9311C100.509 70.756 97.5545 66.3626 92.6557 67.7104Z" fill="#163560"/>
<path d="M97.5804 78.9335C97.5804 78.9335 97.9303 78.0911 98.4876 78.6095C99.0448 79.1279 98.6949 82.005 97.7877 81.5903C96.8806 81.1756 97.5804 78.9335 97.5804 78.9335Z" fill="#FFB27D"/>
<path d="M255.839 183.532H0.356306C0.160912 183.532 0 183.334 0 183.093V183.036C0 182.796 0.160912 182.597 0.356306 182.597H255.851C256.046 182.597 256.207 182.796 256.207 183.036V183.093C256.207 183.334 256.046 183.532 255.839 183.532Z" fill="#2E3552"/>
<path d="M173.304 4H54.9944V72.5961H173.304V4Z" stroke="#140094" stroke-width="8" stroke-miterlimit="10"/>
<path d="M114.869 103.687C114.869 103.687 119.417 102.922 120.739 103.272C122.061 103.622 124.796 106.201 124.303 107.328C123.811 108.443 119.275 106.577 118.64 106.577C118.005 106.577 114.143 106.577 114.143 106.577L114.869 103.687Z" fill="#FFB27D"/>
<path d="M56.7959 90.1827L61.0726 92.982L67.2415 91.8286C67.1508 91.3361 66.749 89.2626 66.3732 87.3963C66.3473 87.2797 66.3343 87.176 66.3084 87.0723C65.9844 85.4783 65.7122 84.1175 65.7122 84.1175L59.9451 81.5774L57.7938 80.6313C57.7938 80.6702 57.9623 82.3939 57.9882 82.6531C58.4029 87.1242 56.7959 90.1827 56.7959 90.1827Z" fill="#FFB27D"/>
<path d="M72.7753 121.675H45.8967C48.3591 105.164 51.923 89.8719 56.1738 88.6148C58.053 88.0575 68.1357 91.3234 68.1357 91.3234C68.1357 91.3234 69.7168 95.4575 70.7536 100.732C71.0776 102.404 72.0496 112.863 72.7753 121.675Z" fill="#2B478B"/>
<path d="M58.4287 82.7181C59.6987 84.8694 64.4161 86.7227 66.386 87.3966C66.3601 87.28 66.3471 87.1763 66.3212 87.0726C65.9972 85.4785 65.725 84.1178 65.725 84.1178L59.9579 81.5777C58.6749 81.5388 57.9103 81.8239 58.4287 82.7181Z" fill="#FCA56B"/>
<path d="M67.9027 83.7546C67.9027 83.7546 58.6105 86.6576 56.8998 80.8387C55.1892 75.0197 52.8305 71.4817 58.6883 69.3952C64.5461 67.2957 66.3605 69.1749 67.4102 70.9763C68.447 72.7777 70.2743 82.8475 67.9027 83.7546Z" fill="#FFB27D"/>
<path d="M67.0341 70.4062C67.0341 70.4062 66.438 77.1712 65.0383 76.8732C63.6387 76.5751 62.3686 76.3677 62.576 78.4024C62.7833 80.4371 64.7144 82.7958 60.4117 83.1587C56.0961 83.5215 49.9013 72.402 51.0807 70.2896C54.502 64.2244 71.9718 63.0062 67.0341 70.4062Z" fill="#163560"/>
<path d="M65.6604 88.7698C65.5438 88.718 58.7399 85.6725 57.9493 85.9317C57.1588 86.1909 56.1609 88.6273 56.1609 88.6273L68.1228 91.3359C68.1357 91.3229 67.1897 89.4049 65.6604 88.7698Z" fill="#163560"/>
<path d="M60.8394 89.6772C60.8394 89.6772 89.4286 100.278 94.5996 100.589C99.7705 100.9 109.97 102.365 114.869 103.7C114.869 103.7 115.309 104.555 115.115 105.177C114.804 106.227 114.143 106.577 114.143 106.577L70.2741 106.447L60.8394 89.6772Z" fill="#2B478B"/>
<path d="M56.1739 88.6147C56.1739 88.6147 49.4089 89.2498 48.0092 91.3233C46.6096 93.3969 43.6288 106.81 45.2099 107.925C46.791 109.039 50.4586 108.949 50.4586 108.949L56.1739 88.6147Z" fill="#2B478B"/>
<path d="M41.0628 122.323H36.6824C31.5633 122.323 27.6365 126.872 28.3752 131.926L33.1185 164.403C33.6368 167.928 36.6565 170.533 40.2074 170.533H53.245L41.0628 122.323Z" fill="#ED7D2B"/>
<path d="M193.561 122.323H197.941C203.06 122.323 206.987 126.872 206.248 131.926L201.505 164.403C200.987 167.928 197.967 170.533 194.416 170.533H181.378L193.561 122.323Z" fill="#ED7D2B"/>
<path d="M184.23 170.533H50.8476C47.3225 170.533 44.3936 168.382 44.1344 165.595L39.2097 112.175C38.9246 109.091 42.009 106.46 45.9229 106.46H188.882C192.783 106.46 195.867 109.078 195.595 112.149L190.943 165.57C190.696 168.369 187.768 170.533 184.23 170.533Z" fill="#F99746"/>
<path d="M53.2451 170.533L52.2472 181.562C52.1824 182.249 52.7267 182.832 53.4136 182.832C53.8931 182.832 54.3208 182.508 54.4374 182.041L57.4441 170.533H53.2451Z" fill="#2A4E96"/>
<path d="M180.368 170.533L181.366 181.562C181.43 182.249 180.886 182.832 180.199 182.832C179.72 182.832 179.292 182.508 179.175 182.041L176.169 170.533H180.368Z" fill="#2A4E96"/>
</svg>
