<svg width="270" height="286" viewBox="0 0 270 286" fill="none" xmlns="http://www.w3.org/2000/svg">
<path d="M86.8002 261.063C86.8002 261.063 81.9364 265.927 80.0657 268.172H68.4674C66.9708 265.927 61.7329 261.063 61.7329 261.063H52.7534H52.3794H43.3999C43.3999 261.063 38.5362 265.927 36.6655 268.172H24.6929C23.1964 265.927 17.9585 261.063 17.9585 261.063H8.60498V268.172V269.294V277.151H95.4055V269.294V268.172V261.063H86.8002Z" fill="#CD412B"/>
<path d="M96.1539 274.158H9.35352V277.525H96.1539V274.158Z" fill="#9F3123"/>
<path d="M96.1542 261.063H90.168V277.151H96.1542V261.063Z" fill="#9F3123"/>
<path d="M102.141 157.426H3.36768V220.281H102.141V157.426Z" fill="#CD412B"/>
<path d="M3.74121 163.038H101.766V160.045V141.712V137.597C101.766 112.155 80.0657 105.046 53.5018 105.046C26.1896 105.046 3.74121 111.781 3.74121 137.597V141.712V160.045V163.038Z" fill="#CD412B"/>
<path d="M52.7531 109.91L78.1947 108.788C78.1947 108.788 72.5826 108.04 66.9705 102.802C63.2291 99.4346 63.6033 94.5708 63.6033 94.5708H52.7531H41.5289C41.5289 94.5708 41.9031 99.4346 38.1617 102.802C32.5496 108.04 26.9375 108.788 26.9375 108.788L52.3791 109.91H52.7531Z" fill="#CD412B"/>
<path d="M82.6852 71H80.4405H70.3386H33.2988H23.197H20.9521V73.9931H23.197V116.645H33.2988V73.9931H70.3386V116.645H80.4405V73.9931H82.6852V71Z" fill="#CD412B"/>
<path d="M33.2981 73.9932H23.1963V76.6121H33.2981V73.9932Z" fill="#9F3123"/>
<path d="M80.4402 73.9932H70.3384V76.6121H80.4402V73.9932Z" fill="#9F3123"/>
<path d="M56.8692 85.5908H49.0122V97.5633H56.8692V85.5908Z" fill="#9A7F30"/>
<path d="M63.978 81.8496H40.4072V85.591H63.978V81.8496Z" fill="#A3A38C"/>
<path d="M52.7538 79.605C50.8831 79.605 49.7607 80.7274 49.7607 81.8498H56.1212C56.1212 80.7274 54.6245 79.605 52.7538 79.605Z" fill="#7A7A6B"/>
<path d="M44.5227 81.8496H42.2778V85.591H44.5227V81.8496Z" fill="#D2D2B8"/>
<path d="M52.3796 81.8496H49.0122V85.591H52.3796V81.8496Z" fill="#D2D2B8"/>
<path d="M49.0122 85.5908V87.0874L56.495 89.3322V85.5908H49.0122Z" fill="#786027"/>
<path d="M55.373 85.5908H53.8765V97.5633H55.373V85.5908Z" fill="#786027"/>
<path d="M102.14 142.087V137.971C102.14 121.135 92.7865 112.53 78.9434 108.414C87.5486 113.278 93.1607 121.509 93.1607 134.23V138.345V156.678V163.787L102.14 163.413V160.419V142.087Z" fill="#9F3123"/>
<path d="M65.1005 94.5708H40.4072V97.5639H65.1005V94.5708Z" fill="#CD412B"/>
<path d="M64.352 81.8496H62.8555V85.591H64.352V81.8496Z" fill="#7A7A6B"/>
<path d="M57.2433 81.8496H55.3726V85.591H57.2433V81.8496Z" fill="#7A7A6B"/>
<path d="M26.1904 114.026L35.5439 114.4C35.5439 114.4 32.5507 124.502 31.8025 133.107C31.4283 137.971 32.1765 157.052 32.1765 157.052H17.9592C17.9592 157.052 17.5851 135.352 18.3334 130.863C20.5782 119.638 26.1904 114.026 26.1904 114.026Z" fill="#F26747"/>
<path d="M41.5293 97.5635H63.9777L64.3519 99.4342L41.1553 98.3118L41.5293 97.5635Z" fill="#9F3123"/>
<path d="M105.507 161.167C105.507 162.29 104.011 163.038 102.514 163.038H2.99307C1.12237 163.038 0 162.29 0 161.167V159.296C0 158.174 1.49651 157.426 2.99307 157.426H102.514C104.385 157.426 105.507 158.174 105.507 159.296V161.167Z" fill="#CD412B"/>
<path d="M104.386 159.297C104.386 159.671 104.011 160.045 103.637 160.045H2.24528C1.87114 160.045 1.49707 159.671 1.49707 159.297C1.49707 158.922 1.87114 158.548 2.24528 158.548H103.637C104.011 158.548 104.386 158.922 104.386 159.297Z" fill="#F26747"/>
<path d="M42.2782 71.748H25.4419V73.2446H42.2782V71.748Z" fill="#F26747"/>
<path d="M80.4405 112.529V111.781L82.3112 112.529H80.4405ZM33.2988 112.903V109.162L52.38 109.91H52.754H53.1282L70.3386 109.162V112.529L33.2988 112.903Z" fill="#EA573A"/>
<path d="M52.754 109.91H52.38L33.2988 109.162V108.04L34.047 107.666H70.3386V109.162L52.754 109.91Z" fill="#EA573A"/>
<path d="M70.3386 112.529V108.788V107.292H72.9577L80.4405 111.033V111.781L70.3386 112.529ZM23.9453 112.904L33.2988 108.04V109.162V112.904H23.9453Z" fill="#EA573A"/>
<path d="M3.74121 163.038H101.766V167.527L3.74121 165.282V163.038Z" fill="#9F3123"/>
<path d="M101.766 219.534H3.74121V222.527V240.86V244.975C3.74121 251.336 5.23777 256.574 7.48261 261.063H97.6502C100.269 256.948 101.392 251.336 101.392 244.975V240.86V222.527L101.766 219.534Z" fill="#CD412B"/>
<path d="M92.7868 225.52V237.118V241.234C92.7868 247.594 91.2903 252.832 89.0454 257.322H5.98633C6.36047 258.818 7.10875 259.941 7.85703 261.063H98.0247C100.644 256.947 101.766 251.335 101.766 244.975V240.859V225.146L92.7868 225.52Z" fill="#9F3123"/>
<path d="M32.9241 225.52H17.9585V254.702H32.9241V225.52Z" fill="#F26747"/>
<path d="M3.74121 225.146H101.766V229.635L3.74121 227.39V225.146Z" fill="#9F3123"/>
<path d="M105.507 223.275C105.507 224.398 104.011 225.146 102.514 225.146H2.99307C1.12237 225.146 0 224.398 0 223.275V221.404C0 220.282 1.49651 219.534 2.99307 219.534H102.514C104.385 219.534 105.507 220.282 105.507 221.404V223.275Z" fill="#CD412B"/>
<path d="M104.386 221.03C104.386 221.404 104.011 221.778 103.637 221.778H2.24528C1.87114 221.778 1.49707 221.404 1.49707 221.03C1.49707 220.655 1.87114 220.281 2.24528 220.281H103.637C104.011 220.655 104.386 220.655 104.386 221.03Z" fill="#F26747"/>
<path d="M101.018 204.942H92.7866V210.18H101.018V204.942Z" fill="#9F3123"/>
<path d="M26.5637 219.534H17.9585V165.658L26.5637 166.032V219.534Z" fill="#F26747"/>
<path d="M200.671 5.4319C201.191 5.60537 201.538 5.77885 201.538 5.77885C206.915 7.68711 213.506 11.5036 216.801 16.0141C216.801 16.0141 220.617 19.6571 220.617 24.5145C224.78 14.6262 216.801 5.08494 210.037 2.65624C208.476 2.13581 206.915 1.78885 205.528 1.44189C205.007 1.61537 202.406 2.30929 200.671 5.4319Z" fill="#FFB469"/>
<path d="M197.723 4.73777C198.59 3.17647 199.804 1.61516 201.538 1.09473C197.723 1.09473 194.948 2.48255 193.04 4.39081C194.601 4.21734 196.335 4.39081 197.723 4.73777Z" fill="#FFB469"/>
<path d="M189.05 16.5344C187.489 15.1466 186.622 13.0649 187.143 10.8097C187.663 7.34008 191.132 4.91139 194.601 5.43182C196.335 5.77878 197.723 6.64617 198.763 7.86052C200.671 8.034 211.077 9.42182 213.853 15.1466C214.893 17.0549 215.24 18.6162 215.414 19.4836C217.668 21.7388 219.576 25.3818 214.72 29.5453C214.72 29.5453 214.72 29.5453 214.893 29.5453C215.934 30.2392 215.067 31.974 213.679 33.5353C215.76 33.1884 218.015 31.974 219.576 29.3718C220.617 27.637 220.964 25.9023 220.964 24.341C220.964 19.4836 217.148 15.8405 217.148 15.8405C213.853 11.3301 207.262 7.51356 201.885 5.6053C201.885 5.6053 201.538 5.43182 201.018 5.25834C202.752 2.13574 205.354 1.44182 205.874 1.26834H206.048C206.048 1.26834 206.048 1.26834 203.966 0.921387C202.926 0.921387 202.232 0.921387 201.538 1.09487C199.804 1.6153 198.59 3.00313 197.723 4.73791C196.335 4.39095 194.774 4.21747 193.04 4.39095C190.611 4.56443 188.01 5.25834 186.102 7.34008C182.113 11.5036 184.888 16.5344 188.01 18.9631C188.357 17.9223 188.704 17.0549 189.05 16.5344Z" fill="#FF9C43"/>
<path d="M227.728 85.4055C238.655 86.2729 250.275 84.0177 259.121 77.9459C253.917 71.8742 247.5 65.8025 242.991 61.4655C237.614 56.2611 233.972 54.1794 231.89 53.312C225.993 67.8842 226.514 79.1603 227.728 85.4055Z" fill="#8E5783"/>
<path d="M227.728 85.4054C227.901 86.6197 228.248 87.6606 228.422 88.528L243.511 95.2936C243.511 95.2936 257.213 94.9467 263.804 84.191C262.416 82.1093 260.855 80.0275 258.947 77.9458C250.275 84.0175 238.828 86.2728 227.728 85.4054Z" fill="#824E78"/>
<path d="M154.016 272.589C159.566 272.589 164.249 272.415 165.289 272.415C165.289 269.987 164.422 266.344 164.075 262.354C158.352 262.7 154.536 267.211 154.016 272.589Z" fill="#634454"/>
<path d="M147.078 230.954C147.078 231.821 147.251 232.688 147.251 233.729C148.986 233.209 151.934 233.209 153.148 233.556C154.015 233.729 154.362 236.678 154.536 240.668C154.883 240.842 155.056 240.842 155.403 241.015C155.576 240.495 155.923 240.321 156.444 240.321C156.964 240.321 157.311 240.842 157.311 241.362C157.311 241.883 156.79 242.23 156.27 242.23C155.75 242.23 155.403 241.883 155.403 241.362C155.229 241.362 154.883 241.362 154.709 241.362C154.709 242.924 154.709 244.485 154.709 246.22C155.056 246.393 155.229 246.567 155.403 246.74C155.576 246.393 155.923 246.22 156.444 246.22C156.964 246.22 157.311 246.74 157.311 247.261C157.311 247.781 156.79 248.128 156.27 248.128C155.75 248.128 155.403 247.608 155.403 247.087C155.229 247.087 154.883 246.914 154.709 246.914C154.709 248.822 154.536 250.73 154.362 252.638C154.536 252.812 154.883 253.159 155.056 253.332C155.056 252.812 155.576 252.465 156.097 252.465C156.617 252.465 156.964 252.985 156.964 253.506C156.964 254.026 156.444 254.373 155.923 254.373C155.403 254.373 155.056 253.853 155.056 253.332C154.883 253.332 154.536 253.159 154.362 253.159C154.189 255.067 153.842 256.802 153.495 258.19C153.495 258.363 153.495 258.363 153.495 258.537C153.668 258.71 153.842 259.057 154.189 259.231C154.362 259.057 154.709 259.057 154.883 259.057C155.403 259.057 155.75 259.578 155.75 260.098C155.75 260.618 155.229 260.965 154.709 260.965C154.189 260.965 153.842 260.445 153.842 259.924V259.751C153.668 259.578 153.495 259.578 153.322 259.404C151.761 263.221 148.639 265.823 146.557 267.211C145.517 267.904 143.956 267.904 142.915 267.037L141.528 265.823C141.007 265.302 141.007 264.435 141.701 264.088C142.395 263.741 143.089 263.394 143.609 262.874C142.048 263.914 140.487 264.782 139.62 264.782C139.273 264.782 138.753 264.782 138.232 264.955C139.62 267.384 140.14 269.986 140.14 272.762C144.476 272.762 149.679 272.588 154.362 272.588C154.883 267.211 158.698 262.7 164.422 262.353C164.248 260.792 164.248 259.057 164.422 257.322C164.942 251.251 168.411 245.873 169.278 231.648C160.433 233.382 148.292 231.127 147.078 230.954Z" fill="#755162"/>
<path d="M137.885 264.956C135.11 265.303 130.774 266.17 130.948 272.936C131.988 272.936 135.457 272.936 139.793 272.762C139.793 269.986 139.273 267.384 137.885 264.956Z" fill="#634454"/>
<path d="M139.793 272.762C135.457 272.762 131.988 272.936 130.948 272.936C130.774 272.936 130.601 272.936 130.601 272.936L129.56 277.446H152.454L154.882 275.538L155.056 275.364L156.443 277.273L165.983 277.099L165.289 272.242H165.116C164.075 272.242 159.392 272.242 153.842 272.415C149.332 272.589 144.129 272.762 139.793 272.762Z" fill="#4B3C4F"/>
<path d="M191.999 158.613C187.49 157.399 185.582 152.194 184.715 146.643C181.072 145.776 175.175 144.214 167.891 141.265C167.717 141.265 167.544 141.092 167.544 141.092L147.425 180.992C147.251 181.165 147.251 181.339 147.078 181.686C141.528 231.127 147.078 230.954 147.078 230.954C148.292 231.127 160.433 233.382 168.931 231.647C176.91 227.137 171.186 199.381 169.625 193.135L192.693 163.991L191.999 158.613ZM181.072 164.164L178.124 168.328L175.175 172.491C173.267 175.267 171.186 178.043 169.278 180.645L163.555 188.625C163.902 190.36 164.248 192.094 164.769 193.656C165.116 195.391 165.463 197.299 165.809 199.034C166.33 202.677 166.85 206.32 167.197 210.136C167.544 213.779 167.544 217.596 167.37 221.239C167.197 223.147 167.024 224.882 166.503 226.79C166.33 227.657 165.983 228.525 165.636 229.392C165.289 230.26 164.769 231.127 164.248 231.821C164.769 231.127 165.116 230.26 165.463 229.392C165.809 228.525 165.983 227.657 166.156 226.79C166.503 225.055 166.677 223.147 166.677 221.412C166.677 219.504 166.677 217.769 166.503 215.861C166.33 213.953 166.33 212.218 165.983 210.31C165.636 206.667 164.942 203.024 164.422 199.381C163.728 195.737 163.034 192.094 162.167 188.625V188.278L162.341 187.931L168.411 179.777C170.492 177.002 172.4 174.4 174.482 171.624L177.603 167.634L180.725 163.644C182.807 161.042 184.888 158.266 186.969 155.664C184.888 158.613 182.98 161.389 181.072 164.164Z" fill="#493B4F"/>
<path d="M217.148 150.806C217.148 151.5 217.148 152.194 217.321 152.888C217.495 154.97 217.495 157.225 217.495 159.307C217.495 161.389 217.668 163.644 217.668 165.726V172.144V178.563C217.668 182.9 217.668 187.237 217.668 191.4V197.819V200.768C218.015 201.809 218.362 202.85 218.709 203.891C219.923 208.054 221.137 212.218 222.004 216.381C222.872 220.545 223.739 224.882 224.086 229.219C224.086 229.913 224.259 230.78 224.259 231.474C225.993 229.045 226.861 226.096 226.861 223.147C224.953 214.126 221.831 204.585 220.27 200.421V172.665C221.311 170.063 224.086 161.389 223.045 150.459C222.351 150.633 221.831 150.806 221.137 150.806C219.75 150.806 218.535 150.806 217.148 150.806Z" fill="#615166"/>
<path d="M205.181 156.011C205.701 157.226 206.221 158.266 206.915 159.307C207.609 160.348 208.476 161.389 209.517 162.083C210.557 162.95 211.598 163.471 212.812 163.818C213.506 163.991 214.026 164.165 214.72 164.165C215.414 164.165 215.934 164.165 216.628 163.991C215.934 163.991 215.414 163.818 214.893 163.644C214.373 163.471 213.679 163.297 213.159 163.124C212.118 162.603 211.078 161.909 210.21 161.216C208.476 159.654 207.435 157.572 206.395 155.491C205.701 153.756 205.007 152.021 204.66 150.113C204.314 150.113 203.793 150.113 203.446 149.939C203.793 152.021 204.313 154.103 205.181 156.011Z" fill="#504156"/>
<path d="M148.118 256.628C148.292 256.628 148.292 256.628 148.465 256.628C148.639 256.628 148.639 256.628 148.812 256.628C149.159 256.628 149.679 256.628 150.026 256.802C150.2 256.802 150.373 256.975 150.547 256.975C150.72 256.975 150.72 256.975 150.893 256.975L151.24 257.149C151.934 257.496 152.628 257.843 153.322 258.363L153.495 258.537C153.495 258.363 153.495 258.363 153.495 258.19C153.842 256.802 154.189 255.067 154.362 253.159C154.015 252.985 153.495 252.985 153.148 252.812C152.454 252.638 151.761 252.465 151.067 252.465H150.893H150.72C150.547 252.465 150.373 252.465 150.2 252.465C149.853 252.465 149.506 252.465 149.159 252.465C148.986 252.465 148.812 252.465 148.639 252.465C148.465 252.465 148.292 252.465 148.118 252.465C147.945 252.465 147.771 252.465 147.425 252.465C147.425 254.2 147.425 255.761 147.425 256.802C147.598 256.802 147.598 256.802 147.771 256.802C147.598 256.802 147.771 256.802 148.118 256.628Z" fill="#634454"/>
<path d="M148.465 245.352C149.332 245.179 150.373 245.005 151.24 245.179C152.107 245.179 153.148 245.526 153.842 245.873C154.189 246.046 154.362 246.046 154.536 246.22C154.536 244.485 154.536 242.924 154.536 241.362C154.189 241.362 153.842 241.362 153.495 241.362C152.628 241.362 151.761 241.362 151.067 241.362C150.2 241.362 149.332 241.536 148.639 241.536C148.292 241.536 147.771 241.709 147.425 241.709C147.078 241.709 146.731 241.883 146.557 241.883C146.731 243.271 146.731 244.658 146.904 246.046C147.078 245.873 147.251 245.873 147.425 245.873C147.598 245.526 148.118 245.352 148.465 245.352Z" fill="#634454"/>
<path d="M148.119 251.597C148.292 251.597 148.292 251.597 148.465 251.424C148.639 251.424 148.639 251.424 148.812 251.424C149.159 251.25 149.506 251.25 150.026 251.25C150.373 251.25 150.894 251.25 151.24 251.25C152.108 251.424 152.801 251.597 153.495 251.944C153.842 252.118 154.189 252.291 154.362 252.638C154.536 250.903 154.709 248.822 154.709 246.913C154.362 246.913 154.016 246.74 153.669 246.74C152.801 246.566 151.934 246.566 151.24 246.393C150.373 246.393 149.506 246.22 148.812 246.393C148.465 246.393 147.945 246.393 147.598 246.393C147.425 246.393 147.251 246.393 147.078 246.393C147.251 248.301 147.425 250.383 147.425 252.118C147.598 251.944 147.772 251.944 147.945 251.771C147.772 251.771 147.945 251.771 148.119 251.597Z" fill="#634454"/>
<path d="M147.077 241.015C147.424 240.842 147.945 240.495 148.292 240.495C149.159 240.148 150.026 239.974 150.893 239.974C151.76 239.974 152.801 239.974 153.668 240.321C154.015 240.321 154.362 240.495 154.535 240.668C154.362 236.852 153.842 233.903 153.148 233.556C151.934 233.209 148.985 233.209 147.251 233.729C146.21 233.903 145.69 234.423 145.69 234.944C145.69 235.464 146.037 238.24 146.384 241.709C146.384 241.709 146.557 241.709 146.557 241.536C146.731 241.362 146.904 241.189 147.077 241.015Z" fill="#634454"/>
<path d="M141.181 265.823L142.568 267.037C143.609 267.905 144.996 267.905 146.21 267.211C148.292 265.823 151.587 263.394 152.975 259.404C152.801 259.404 152.628 259.231 152.454 259.231C151.761 258.884 151.24 258.537 150.546 258.363L150.373 258.19H150.2C150.026 258.19 149.853 258.017 149.679 258.017C149.506 258.017 149.332 257.843 149.159 257.843H148.986H148.639C148.465 257.843 148.292 257.67 148.118 257.67C147.945 257.67 147.771 257.67 147.598 257.496C147.425 257.496 147.425 257.496 147.251 257.496C147.251 258.19 147.078 258.71 146.904 258.884C146.21 260.445 144.823 261.833 143.262 263.047C142.568 263.568 142.048 263.915 141.354 264.262C140.66 264.435 140.487 265.303 141.181 265.823Z" fill="#634454"/>
<path d="M147.945 257.496C148.118 257.496 148.292 257.496 148.465 257.669H148.812C148.985 257.669 148.985 257.669 148.985 257.669C149.159 257.669 149.332 257.843 149.506 257.843C149.679 257.843 149.853 258.016 150.026 258.016H150.2L150.373 258.19C151.067 258.363 151.761 258.71 152.281 259.057C152.454 259.057 152.628 259.231 152.801 259.231C152.975 259.404 153.148 259.404 153.321 259.578C153.321 259.404 153.495 259.231 153.668 259.057C153.495 258.884 153.321 258.537 152.975 258.363L152.801 258.19C152.281 257.669 151.414 257.322 150.72 256.976L150.373 256.802C150.2 256.802 150.2 256.802 150.026 256.802C149.853 256.802 149.679 256.629 149.506 256.629C149.159 256.629 148.639 256.455 148.292 256.455C148.118 256.455 148.118 256.455 147.945 256.455C147.771 256.455 147.771 256.455 147.598 256.455C147.424 256.455 147.251 256.455 147.078 256.629C146.904 256.629 146.904 256.629 146.731 256.629C146.557 256.629 146.557 256.629 146.384 256.802C146.21 256.802 146.037 256.976 145.864 256.976C146.21 256.976 146.384 257.149 146.731 257.149C146.904 257.149 146.904 257.149 147.078 257.149C147.598 257.496 147.771 257.496 147.945 257.496Z" fill="#4B354C"/>
<path d="M148.292 252.465C148.465 252.465 148.639 252.465 148.812 252.465C149.159 252.465 149.506 252.465 149.853 252.465C150.026 252.465 150.2 252.465 150.373 252.465H150.547H150.72C151.414 252.465 152.108 252.639 152.801 252.812C153.148 252.986 153.669 252.986 154.016 253.159C154.189 253.159 154.536 253.333 154.709 253.333C154.709 253.333 154.709 253.333 154.709 253.159C154.536 252.986 154.189 252.639 154.016 252.465C153.669 252.292 153.322 251.945 153.148 251.772C152.455 251.425 151.761 251.078 150.894 251.078C150.547 251.078 150.026 251.078 149.68 251.078C149.333 251.078 148.812 251.078 148.465 251.251C148.292 251.251 148.292 251.251 148.119 251.251C147.945 251.251 147.945 251.251 147.772 251.425C147.598 251.425 147.425 251.598 147.251 251.598C147.078 251.598 146.904 251.772 146.731 251.945C146.558 252.118 146.384 252.118 146.211 252.292C146.384 252.292 146.558 252.292 146.731 252.292C146.904 252.292 147.078 252.292 147.425 252.292C147.945 252.465 148.119 252.465 148.292 252.465Z" fill="#4B354C"/>
<path d="M148.639 246.393C149.506 246.393 150.373 246.393 151.067 246.393C151.934 246.393 152.628 246.567 153.495 246.74C153.842 246.74 154.189 246.913 154.536 246.913C154.709 246.913 154.883 247.087 155.23 247.087C155.23 246.913 155.23 246.74 155.403 246.74C155.23 246.567 154.883 246.393 154.709 246.22C154.536 246.046 154.189 245.873 154.016 245.873C153.148 245.526 152.281 245.352 151.414 245.179C150.547 245.179 149.506 245.179 148.639 245.352C148.119 245.526 147.772 245.699 147.425 245.873C147.251 245.873 147.078 246.046 146.904 246.046C146.904 246.046 146.731 246.046 146.731 246.22C146.558 246.393 146.384 246.393 146.211 246.567C146.558 246.567 146.731 246.567 146.904 246.567C147.078 246.567 147.251 246.567 147.425 246.567C147.772 246.393 148.292 246.393 148.639 246.393Z" fill="#4B354C"/>
<path d="M148.639 241.536C149.506 241.362 150.373 241.362 151.067 241.362C151.934 241.362 152.801 241.362 153.495 241.362C153.842 241.362 154.189 241.362 154.536 241.362C154.709 241.362 155.056 241.362 155.229 241.362V241.189V241.015C155.056 240.842 154.709 240.669 154.362 240.669C154.015 240.495 153.842 240.495 153.495 240.322C152.628 240.148 151.761 239.975 150.72 239.975C149.853 239.975 148.812 240.148 148.118 240.495C147.771 240.669 147.251 240.842 146.904 241.015C146.731 241.189 146.557 241.189 146.384 241.362C146.384 241.362 146.21 241.362 146.21 241.536C146.037 241.709 146.037 241.709 145.864 241.883C146.037 241.883 146.21 241.883 146.21 241.883C146.557 241.883 146.904 241.709 147.078 241.709C147.771 241.709 148.118 241.536 148.639 241.536Z" fill="#4B354C"/>
<path d="M155.403 241.362C155.403 241.883 155.75 242.23 156.27 242.23C156.79 242.23 157.311 241.883 157.311 241.362C157.311 240.842 156.964 240.321 156.443 240.321C155.923 240.321 155.576 240.495 155.403 241.015V241.189C155.403 241.189 155.403 241.189 155.403 241.362Z" fill="white"/>
<path d="M155.403 247.087C155.403 247.607 155.75 248.128 156.27 248.128C156.79 248.128 157.311 247.781 157.311 247.26C157.311 246.74 156.964 246.219 156.443 246.219C156.097 246.219 155.75 246.393 155.403 246.74C155.403 246.74 155.403 246.913 155.403 247.087Z" fill="white"/>
<path d="M155.056 253.506C155.056 254.026 155.403 254.373 155.923 254.546C156.443 254.546 156.964 254.2 156.964 253.679C156.964 253.159 156.617 252.638 156.096 252.638C155.576 252.291 155.056 252.812 155.056 253.506C155.056 253.332 155.056 253.332 155.056 253.506C155.056 253.332 155.056 253.332 155.056 253.506Z" fill="white"/>
<path d="M153.495 259.751V259.924C153.495 260.444 153.842 260.965 154.362 260.965C154.882 260.965 155.403 260.618 155.403 260.097C155.403 259.577 155.056 259.057 154.536 259.057C154.189 259.057 154.015 259.057 153.842 259.23C153.668 259.23 153.668 259.404 153.495 259.751Z" fill="white"/>
<path d="M211.598 280.221C217.148 280.221 222.004 280.048 222.872 280.048C222.872 277.619 222.004 273.976 221.657 269.639C215.76 270.16 212.118 274.67 211.598 280.221Z" fill="#634454"/>
<path d="M211.771 245.179C211.771 245.873 211.944 246.567 211.944 247.261C212.118 247.261 212.291 247.434 212.465 247.434C212.638 246.914 212.985 246.74 213.505 246.74C214.026 246.74 214.373 247.261 214.373 247.781C214.373 248.302 213.852 248.649 213.332 248.649C212.812 248.649 212.465 248.302 212.465 247.781C212.291 247.781 212.118 247.781 212.118 247.781C212.291 249.69 212.291 251.771 212.118 253.853C212.465 254.026 212.812 254.2 213.159 254.547C213.332 254.2 213.679 254.026 214.199 254.026C214.72 254.026 215.066 254.547 215.066 255.067C215.066 255.588 214.546 255.935 214.026 255.935C213.505 255.935 213.159 255.414 213.159 254.894C212.812 254.894 212.465 254.72 212.291 254.72C212.291 256.455 212.118 258.19 211.944 259.751C212.118 259.925 212.465 260.098 212.638 260.445C212.638 259.925 213.159 259.578 213.679 259.578C214.199 259.578 214.546 260.098 214.546 260.619C214.546 261.139 214.026 261.486 213.505 261.486C212.985 261.486 212.638 260.966 212.638 260.445C212.465 260.445 212.118 260.272 211.944 260.272C211.771 262.18 211.424 263.915 211.077 265.303C211.077 265.476 211.077 265.476 211.077 265.65C211.251 265.823 211.598 266.17 211.771 266.343C211.944 266.17 212.291 266.17 212.465 266.17C212.985 266.17 213.332 266.69 213.332 267.211C213.332 267.731 212.812 268.078 212.291 268.078C211.771 268.078 211.424 267.558 211.424 267.037V266.864C211.251 266.69 211.077 266.69 210.904 266.517C209.516 270.333 206.221 272.936 204.14 274.323C203.099 275.017 201.538 275.017 200.497 274.15L199.11 273.109C198.59 272.589 198.59 271.721 199.283 271.374C199.977 271.027 200.671 270.68 201.191 270.16C199.63 271.374 198.069 272.068 197.202 272.068C196.855 272.068 196.335 272.068 195.814 272.242C197.202 274.67 197.722 277.273 197.896 280.222C202.232 280.222 207.435 280.048 212.118 280.048C212.638 274.497 216.281 269.987 222.178 269.466C222.004 267.905 222.004 266.17 222.178 264.435C222.698 258.884 225.473 253.853 226.514 242.23C226.514 242.23 226.34 242.403 226.167 242.403C221.484 244.312 216.107 244.832 211.771 245.179Z" fill="#755162"/>
<path d="M195.294 272.588C192.519 272.935 188.183 273.803 188.53 280.568C189.571 280.568 193.04 280.568 197.376 280.395C197.376 277.619 196.855 274.844 195.294 272.588Z" fill="#634454"/>
<path d="M197.375 280.395C193.039 280.395 189.571 280.568 188.53 280.568C188.356 280.568 188.183 280.568 188.183 280.568L187.142 285.079H210.037L212.638 282.997L214.026 285.079L223.565 284.905L222.871 280.048C222.871 280.048 222.871 280.048 222.698 280.048C221.657 280.048 216.974 280.048 211.424 280.221C206.915 280.395 201.711 280.395 197.375 280.395Z" fill="#4B3C4F"/>
<path d="M224.432 231.648C224.432 233.036 224.432 234.424 224.432 235.811C224.432 236.852 224.259 237.893 224.085 239.108C223.912 240.148 223.565 241.189 223.045 242.23C223.392 241.189 223.739 240.148 223.739 239.108C223.912 238.067 223.912 237.026 223.912 235.985C223.912 234.771 223.912 233.73 223.739 232.515C223.218 233.036 222.871 233.556 222.178 233.903C222.698 229.913 222.004 226.27 221.31 222.454C222.178 228.872 220.617 235.811 214.893 239.455C214.893 235.118 215.24 230.781 213.332 226.791C213.332 231.128 212.638 236.158 208.649 237.893C207.088 238.761 204.66 235.985 203.966 233.903C203.619 235.118 204.313 236.679 204.313 237.893C202.579 236.505 200.671 234.944 199.457 232.862C200.844 241.189 202.232 243.965 203.099 244.832C202.926 243.445 202.926 242.577 202.926 242.23C202.926 240.669 208.476 240.322 210.384 240.842C210.904 241.016 211.424 242.577 211.598 245.179C215.934 245.006 221.31 244.312 225.473 242.751C225.646 242.751 225.646 242.577 225.82 242.577C228.942 239.801 228.421 231.821 226.687 223.321C226.861 226.27 226.167 229.219 224.432 231.648Z" fill="#514256"/>
<path d="M204.313 237.893C204.313 236.679 203.62 235.118 203.966 233.903C204.66 236.159 207.088 238.934 208.649 237.893C212.639 235.985 213.332 231.128 213.332 226.791C215.24 230.781 214.893 235.118 214.893 239.455C220.79 235.812 222.178 228.872 221.311 222.454C222.004 226.27 222.698 229.913 222.178 233.903C222.698 233.383 223.218 233.036 223.739 232.516C223.739 231.475 223.565 230.607 223.392 229.566C223.045 227.485 222.698 225.403 222.351 223.148C222.004 221.066 221.484 218.984 220.964 216.902C219.923 212.739 218.709 208.576 217.321 204.586L216.281 201.463V201.289V201.116V200.942V200.596V199.728V198.167V191.748C216.281 187.411 216.281 183.074 216.281 178.911C216.281 174.574 216.454 170.237 216.454 166.073C216.628 161.736 216.628 157.399 216.454 153.236C216.454 152.542 216.454 151.848 216.454 151.154C211.771 150.981 207.782 150.807 204.487 150.46C205.007 152.369 205.527 154.103 206.221 155.838C207.088 157.92 208.302 160.002 210.037 161.563C210.904 162.43 211.771 162.951 212.985 163.471C213.506 163.645 214.026 163.818 214.72 163.992C215.24 164.165 215.934 164.165 216.454 164.339C215.934 164.512 215.24 164.512 214.546 164.512C213.853 164.512 213.332 164.339 212.639 164.165C211.424 163.818 210.21 163.298 209.343 162.43C208.302 161.563 207.435 160.696 206.741 159.655C206.048 158.614 205.354 157.573 205.007 156.359C204.14 154.45 203.62 152.369 203.273 150.287C191.132 149.246 187.836 147.685 187.316 147.511C186.622 147.338 185.755 147.164 184.541 146.991C185.408 152.542 187.316 157.746 191.826 158.961H191.999L192.519 164.165L195.468 194.524C191.652 199.728 194.601 205.453 197.029 208.922C197.723 220.025 198.59 227.658 199.457 233.036C200.844 234.771 202.579 236.506 204.313 237.893Z" fill="#615166"/>
<path d="M205.527 264.088C205.701 264.088 205.701 264.088 205.874 264.088C206.048 264.088 206.048 264.088 206.221 264.088C206.568 264.088 207.088 264.088 207.435 264.088C207.609 264.088 207.782 264.261 207.955 264.261C208.129 264.261 208.129 264.261 208.302 264.261L208.649 264.435C209.343 264.782 210.037 265.129 210.73 265.649L210.904 265.823C210.904 265.649 210.904 265.649 210.904 265.476C211.251 264.088 211.598 262.353 211.771 260.445C211.424 260.271 210.904 260.271 210.557 260.098C209.863 259.924 209.17 259.751 208.476 259.751H208.302H208.129C207.955 259.751 207.782 259.751 207.609 259.751C207.262 259.751 206.915 259.751 206.568 259.751C206.394 259.751 206.221 259.751 206.048 259.751C205.874 259.751 205.701 259.751 205.527 259.751C205.354 259.751 205.18 259.751 204.833 259.751C204.833 261.486 205.007 263.047 204.833 264.088C205.007 264.088 205.007 264.088 205.18 264.088C205.18 264.261 205.354 264.261 205.527 264.088Z" fill="#634454"/>
<path d="M205.354 247.087C206.221 246.74 207.088 246.567 207.955 246.567C208.823 246.567 209.863 246.567 210.73 246.74C211.077 246.914 211.598 246.914 211.945 247.087C211.945 246.393 211.771 245.7 211.771 245.006C211.424 242.577 211.077 240.842 210.557 240.669C208.649 240.148 202.926 240.669 203.099 242.056C203.099 242.403 203.273 243.271 203.273 244.659C203.446 245.526 203.446 246.74 203.619 247.955C203.793 247.781 203.966 247.781 204.14 247.608C204.487 247.608 204.833 247.261 205.354 247.087Z" fill="#634454"/>
<path d="M204.833 253.852C205.18 253.679 205.701 253.506 206.047 253.332C206.915 253.159 207.782 252.985 208.823 252.985C209.69 252.985 210.73 253.332 211.424 253.679C211.598 253.679 211.771 253.852 211.944 253.852C211.944 251.771 211.944 249.689 211.944 247.781C211.424 247.781 211.077 247.781 210.557 247.781C209.69 247.781 208.823 247.781 208.129 247.781C207.262 247.781 206.394 247.954 205.701 248.128C205.354 248.128 204.833 248.301 204.486 248.301C204.313 248.301 203.966 248.301 203.793 248.475C203.966 250.209 204.14 252.291 204.313 254.199C204.486 254.026 204.66 254.026 204.833 253.852Z" fill="#634454"/>
<path d="M205.527 259.057C205.701 259.057 205.701 259.057 205.874 258.884C206.048 258.884 206.048 258.884 206.221 258.884C206.568 258.71 206.915 258.71 207.435 258.71C207.782 258.71 208.302 258.71 208.649 258.71C209.516 258.71 210.21 259.057 210.904 259.404C211.251 259.578 211.598 259.751 211.771 260.098C211.945 258.537 211.945 256.802 212.118 255.067C211.771 255.067 211.598 254.894 211.251 254.894C210.384 254.72 209.516 254.72 208.823 254.547C207.955 254.547 207.088 254.547 206.394 254.547C206.048 254.547 205.527 254.547 205.18 254.547C205.007 254.547 204.66 254.547 204.487 254.547C204.66 256.282 204.833 258.016 204.833 259.578C205.007 259.404 205.18 259.404 205.354 259.231C205.18 259.231 205.354 259.057 205.527 259.057Z" fill="#634454"/>
<path d="M198.59 273.282L199.977 274.323C201.018 275.19 202.405 275.19 203.619 274.496C205.701 273.109 208.996 270.506 210.384 266.69C210.21 266.69 210.037 266.517 209.863 266.517C209.169 266.17 208.649 265.823 207.955 265.649L207.782 265.476H207.608C207.435 265.476 207.262 265.302 207.088 265.302C206.915 265.302 206.741 265.302 206.568 265.129H206.394H206.048C205.874 265.129 205.701 264.955 205.527 264.955C205.354 264.955 205.18 264.955 205.007 264.782C204.833 264.782 204.833 264.782 204.66 264.782C204.66 265.476 204.487 265.996 204.313 266.17C203.619 267.731 202.232 269.119 200.671 270.333C199.977 270.853 199.457 271.2 198.763 271.547C198.243 272.068 198.069 272.935 198.59 273.282Z" fill="#634454"/>
<path d="M205.528 264.955C205.701 264.955 205.874 264.955 206.048 265.129H206.395C206.568 265.129 206.568 265.129 206.568 265.129C206.742 265.129 206.915 265.302 207.089 265.302C207.262 265.302 207.435 265.476 207.609 265.476H207.782L207.956 265.649C208.65 265.823 209.343 266.17 209.864 266.517C210.037 266.517 210.21 266.69 210.384 266.69C210.557 266.864 210.731 266.863 210.904 267.037C210.904 266.863 211.078 266.69 211.251 266.517C211.078 266.343 210.904 265.996 210.557 265.823L210.384 265.649C209.864 265.129 208.996 264.782 208.303 264.435L207.956 264.261C207.782 264.261 207.782 264.261 207.609 264.261C207.435 264.261 207.262 264.088 207.089 264.088C206.742 264.088 206.221 263.914 205.874 264.088C205.701 264.088 205.701 264.088 205.528 264.088C205.354 264.088 205.354 264.088 205.181 264.088C205.007 264.088 204.834 264.088 204.66 264.261C204.487 264.261 204.487 264.261 204.313 264.261C204.14 264.261 204.14 264.261 203.967 264.435C203.793 264.435 203.62 264.608 203.446 264.608C203.793 264.608 203.967 264.782 204.313 264.782C204.487 264.782 204.487 264.782 204.66 264.782C205.181 264.955 205.354 264.955 205.528 264.955Z" fill="#4B354C"/>
<path d="M205.701 259.924C205.874 259.924 206.048 259.924 206.221 259.924C206.568 259.924 206.915 259.924 207.262 259.924C207.435 259.924 207.609 259.924 207.782 259.924H207.955H208.129C208.823 259.924 209.516 260.098 210.21 260.271C210.557 260.445 211.077 260.445 211.424 260.618C211.598 260.618 211.945 260.792 212.118 260.792C212.118 260.792 212.118 260.792 212.118 260.618C211.945 260.445 211.598 260.098 211.424 259.924C211.077 259.751 210.73 259.404 210.557 259.231C209.863 258.884 208.996 258.71 208.302 258.537C207.955 258.537 207.435 258.537 207.088 258.537C206.741 258.537 206.221 258.71 205.874 258.71C205.701 258.71 205.701 258.71 205.527 258.71C205.354 258.71 205.354 258.71 205.18 258.884C205.007 258.884 204.833 259.057 204.66 259.057C204.487 259.057 204.313 259.231 204.14 259.404C203.966 259.577 203.793 259.577 203.619 259.751C203.793 259.751 203.966 259.751 204.14 259.751C204.313 259.751 204.487 259.751 204.833 259.751C205.354 259.924 205.527 259.924 205.701 259.924Z" fill="#4B354C"/>
<path d="M206.221 254.547C207.088 254.547 207.955 254.547 208.649 254.547C209.516 254.547 210.21 254.72 211.077 254.894C211.424 254.894 211.598 255.067 211.944 255.067C212.291 255.067 212.638 255.241 212.812 255.241C212.812 255.067 212.812 254.894 212.985 254.894C212.638 254.72 212.291 254.373 211.944 254.2C211.771 254.2 211.598 254.026 211.424 254.026C210.557 253.679 209.69 253.506 208.823 253.333C207.955 253.333 206.915 253.333 206.047 253.679C205.527 253.853 205.18 254.026 204.833 254.2C204.66 254.373 204.486 254.373 204.313 254.547C204.14 254.72 203.966 254.72 203.793 254.894C203.966 254.894 204.14 254.894 204.313 254.894C204.66 254.894 204.833 254.894 205.007 254.894C205.354 254.547 205.874 254.373 206.221 254.547Z" fill="#4B354C"/>
<path d="M205.527 248.128C206.395 247.955 207.262 247.955 207.956 247.781C208.823 247.781 209.69 247.781 210.384 247.781C210.904 247.781 211.251 247.781 211.771 247.781C211.945 247.781 212.118 247.781 212.118 247.781V247.608V247.434C211.945 247.261 211.771 247.261 211.598 247.261C211.251 247.087 210.731 246.914 210.384 246.914C209.517 246.74 208.649 246.567 207.609 246.74C206.741 246.74 205.701 246.914 205.007 247.261C204.66 247.434 204.14 247.608 203.793 247.781C203.62 247.955 203.446 247.955 203.273 248.128C203.273 248.128 203.273 248.128 203.099 248.128C202.926 248.302 202.752 248.475 202.579 248.649C202.752 248.649 203.099 248.649 203.273 248.475C203.446 248.475 203.793 248.475 203.966 248.302C204.66 248.302 205.18 248.128 205.527 248.128Z" fill="#4B354C"/>
<path d="M212.465 247.954C212.465 248.475 212.812 248.822 213.332 248.822C213.853 248.822 214.373 248.475 214.373 247.954C214.373 247.434 214.026 246.914 213.506 246.914C212.985 246.914 212.639 247.087 212.465 247.607V247.781C212.465 247.781 212.465 247.781 212.465 247.954Z" fill="white"/>
<path d="M212.986 255.067C212.986 255.588 213.332 256.108 213.853 256.108C214.373 256.108 214.893 255.761 214.893 255.241C214.893 254.72 214.547 254.2 214.026 254.2C213.679 254.2 213.332 254.373 212.986 254.72C212.986 254.72 212.986 254.894 212.986 255.067Z" fill="white"/>
<path d="M212.465 260.792C212.465 261.312 212.812 261.659 213.332 261.833C213.853 261.833 214.373 261.486 214.373 260.965C214.373 260.445 214.026 259.925 213.506 259.925C212.985 259.751 212.465 260.098 212.465 260.792C212.465 260.618 212.465 260.618 212.465 260.792Z" fill="white"/>
<path d="M211.077 267.037V267.211C211.077 267.731 211.424 268.252 211.945 268.252C212.465 268.252 212.985 267.905 212.985 267.384C212.985 266.864 212.638 266.343 212.118 266.343C211.771 266.343 211.598 266.343 211.424 266.517C211.251 266.69 211.077 266.864 211.077 267.037Z" fill="white"/>
<path d="M177.43 167.634L174.308 171.624C172.226 174.226 170.319 177.002 168.237 179.777L162.167 187.931L161.993 188.278V188.625C162.861 192.094 163.554 195.737 164.248 199.38C164.942 203.023 165.462 206.667 165.809 210.31C165.983 212.218 166.156 213.953 166.329 215.861C166.503 217.769 166.503 219.504 166.503 221.412C166.503 223.32 166.329 225.055 165.983 226.79C165.809 227.657 165.636 228.525 165.289 229.392C164.942 230.26 164.595 231.127 164.075 231.821C164.595 231.127 165.115 230.26 165.462 229.392C165.809 228.525 166.156 227.657 166.329 226.79C166.85 225.055 167.023 223.147 167.197 221.239C167.544 217.596 167.37 213.779 167.023 210.136C166.676 206.493 166.156 202.677 165.636 199.033C165.289 197.125 164.942 195.39 164.595 193.656C164.248 191.921 163.901 190.186 163.381 188.625L169.105 180.645C171.012 177.869 173.094 175.093 175.002 172.491L177.95 168.328L180.898 164.164C182.806 161.389 184.714 158.613 186.622 155.837C184.541 158.44 182.459 161.215 180.378 163.817L177.43 167.634Z" fill="#34293A"/>
<path d="M216.628 165.726C216.454 170.063 216.454 174.4 216.454 178.563C216.454 182.9 216.454 187.237 216.454 191.401V197.819V199.381V200.248V200.595V200.769V200.942V201.115L217.495 204.238C218.882 208.402 219.923 212.392 221.137 216.555C221.657 218.637 222.178 220.719 222.525 222.8C222.871 224.882 223.218 226.964 223.565 229.219C223.739 230.26 223.739 231.127 223.912 232.168C223.912 233.382 224.086 234.423 224.086 235.638C224.086 236.679 224.086 237.719 223.912 238.76C223.739 239.801 223.565 240.842 223.218 241.883C223.739 240.842 223.912 239.801 224.259 238.76C224.432 237.719 224.606 236.679 224.606 235.464C224.779 234.076 224.779 232.689 224.606 231.301C224.606 230.607 224.606 229.739 224.432 229.045C224.086 224.709 223.392 220.545 222.351 216.208C221.484 212.045 220.27 207.881 219.056 203.718C218.709 202.677 218.362 201.636 218.015 200.595V197.646V191.227C218.015 186.89 218.015 182.553 218.015 178.39V171.971V165.552C218.015 163.471 218.015 161.215 217.842 159.134C217.842 157.052 217.668 154.797 217.668 152.715C217.668 152.021 217.668 151.327 217.495 150.633C217.321 150.633 217.148 150.633 216.974 150.633C216.974 151.327 216.974 152.021 216.974 152.715C216.628 157.052 216.628 161.389 216.628 165.726Z" fill="#504156"/>
<path d="M124.01 69.0983C120.715 68.4044 115.858 67.7105 111.869 67.0166C107.88 70.6596 105.452 77.2518 104.411 80.0275C105.972 80.7214 107.533 81.4153 109.267 82.2827C110.135 82.1092 111.002 82.1092 111.869 81.7623C117.94 80.201 120.368 73.9557 124.01 69.0983Z" fill="#FAD4C8"/>
<path d="M124.53 70.3131C124.53 70.3131 124.877 69.7927 125.397 69.2723C124.877 69.0988 124.53 69.0988 124.01 68.9253C120.368 73.7827 117.939 80.0279 111.869 81.5892C111.002 81.7627 110.135 81.9362 109.267 82.1096C114.297 84.3649 119.327 86.4466 122.449 87.8344C121.929 81.9362 122.796 72.3949 124.53 70.3131Z" fill="#E8BEB3"/>
<path d="M163.034 73.9559C162.514 66.8433 159.565 59.7306 155.403 54.0059C146.904 58.1693 138.752 63.7206 134.243 66.8433C136.671 74.3028 142.395 80.7215 149.506 84.0176C154.536 81.7624 159.739 78.4663 163.034 73.9559Z" fill="#A06493"/>
<path d="M169.105 48.8013C164.769 49.8421 159.912 51.7504 155.403 54.1791C159.739 59.7304 162.514 67.0165 163.034 74.1291C159.739 78.6395 154.536 81.9356 149.506 84.3643C142.221 81.0682 136.498 74.6495 134.243 67.19C133.896 67.5369 133.376 67.7104 133.029 68.0574C132.682 69.7921 131.121 82.4561 140.14 90.783C140.14 90.783 140.14 90.783 140.14 90.9565C150.026 89.9156 163.728 80.8948 164.422 80.5478C165.289 80.0274 166.156 79.6804 166.85 79.3335C171.013 71.3535 169.798 55.0465 169.105 48.8013Z" fill="#8E5783"/>
<path d="M104.758 74.8233C106.666 70.4864 108.92 67.3638 111.349 65.4555L97.1263 63.2003C96.7795 61.8125 95.5654 59.0368 92.9637 57.9959C90.5356 57.1286 89.148 54.5264 88.6277 53.1386C88.4543 52.6181 87.5871 52.4446 87.2402 52.9651C86.7199 53.659 86.373 54.6999 86.8933 56.2612C87.2402 57.4755 88.1074 58.8633 88.9746 59.9042C88.4543 59.7307 88.1074 59.7307 87.5871 59.5572C87.9339 59.7307 88.4543 59.7307 88.9746 59.9042C88.9746 59.9042 88.4543 64.2412 89.4949 65.8025C85.5058 68.2312 78.5681 65.4555 78.5681 65.4555L82.5573 59.0368C82.5573 59.0368 82.7307 59.0368 83.251 59.0368C82.9041 59.0368 82.7307 59.0368 82.3838 59.0368L80.1291 56.9551C80.1291 56.9551 80.476 54.5264 79.9556 52.7916C79.6088 51.7507 78.0478 51.9242 78.0478 52.9651L77.5275 57.649L79.2619 60.5981L77.354 60.0777C77.354 60.0777 75.2727 55.9142 73.018 55.2203C72.1508 55.0468 71.6305 55.9142 71.9773 56.6081C75.2727 60.9451 75.6196 61.639 75.6196 61.639L76.4868 62.1594L74.7524 61.639C74.7524 61.639 73.018 57.8225 70.9367 56.4346C70.0695 55.9142 68.8554 56.9551 69.3757 57.8225L72.4977 63.3738L75.0993 65.1086L73.7118 65.282C73.7118 65.282 70.4164 62.5064 68.1616 62.5064C67.121 62.5064 66.7741 63.7207 67.4679 64.4146C72.6711 68.7516 72.6711 68.7516 72.6711 68.7516L80.476 69.0986C82.7307 69.7925 89.148 71.5273 89.6684 71.8742L103.023 80.5481C102.85 79.8542 103.544 77.599 104.758 74.8233Z" fill="#615166"/>
<path d="M129.56 68.4043C127.826 67.537 126.265 68.5778 125.398 69.2717C124.877 69.7922 124.53 70.3126 124.53 70.3126C122.796 72.2209 121.929 81.9356 122.449 87.8339C122.622 90.0891 122.969 91.9974 123.49 92.5178C128.173 94.4261 130.774 92.6913 130.774 92.6913C130.774 92.6913 126.091 77.5987 129.56 68.4043Z" fill="#A06493"/>
<path d="M133.029 67.884C133.029 67.7105 133.029 67.7105 133.029 67.7105C133.029 67.7105 130.601 66.8431 129.56 68.5779C129.56 68.5779 128.173 88.3544 136.151 93.2118C135.978 93.2118 135.804 93.2118 135.631 93.2118C137.365 93.0383 139.099 92.5179 139.967 90.9566C139.967 90.9566 139.967 90.9566 139.967 90.7831C131.121 82.2827 132.856 69.6188 133.029 67.884Z" fill="#A06493"/>
<path d="M129.56 68.4043C126.091 77.4252 130.774 92.5178 130.774 92.5178C130.774 92.5178 133.029 93.2117 135.804 93.0382C135.977 93.0382 136.151 93.0382 136.324 93.0382C128.173 88.1808 129.56 68.4043 129.56 68.4043Z" fill="#8E5783"/>
<path d="M82.7308 58.8629L78.7417 65.2816C78.7417 65.2816 85.6794 68.0573 89.6685 65.6286C88.6279 64.0673 89.1482 59.7303 89.1482 59.7303C88.6279 59.5568 88.281 59.5568 87.7606 59.3834C85.5059 58.8629 84.1184 58.6895 83.4246 58.6895C82.9043 58.8629 82.7308 58.8629 82.7308 58.8629Z" fill="#56475B"/>
<path d="M111.869 67.0168C112.216 66.6699 112.389 66.4964 112.736 66.3229C113.083 65.976 113.083 65.629 112.91 65.2821C112.563 64.9351 112.216 64.9351 111.869 65.1086C111.695 65.2821 111.695 65.2821 111.522 65.4555C109.094 67.3638 106.839 70.6599 104.931 74.8234C103.717 77.599 103.023 79.8542 102.677 80.7216C102.677 80.8951 102.677 80.8951 102.677 80.8951C102.503 81.2421 102.85 81.7625 103.197 81.936H103.37C103.717 81.936 104.064 81.7625 104.064 81.4155C104.064 81.4155 104.237 80.8951 104.411 80.2012C105.452 77.2521 107.88 70.6599 111.869 67.0168Z" fill="#56475B"/>
<path d="M190.958 44.8113H191.132C193.213 45.3317 194.774 44.8113 195.814 44.1174C195.988 44.1174 195.988 44.1174 196.161 44.1174C201.018 44.4643 205.701 42.5561 206.568 35.6169C206.741 34.0556 206.741 32.6678 206.568 31.6269C206.394 29.8921 205.701 28.6778 205.18 28.1574C205.007 27.9839 204.833 27.8104 204.66 27.6369C205.18 23.4734 205.007 17.2282 199.283 16.3608C197.549 19.6569 191.132 20.1774 189.397 17.0548C189.224 16.8813 188.877 16.7078 188.703 16.5343C188.357 17.0548 188.01 17.9221 187.836 18.963C187.663 19.6569 187.489 20.3508 187.316 21.0448C187.489 20.8713 187.836 20.6978 188.183 20.6978C188.703 20.5243 189.397 20.5243 189.917 20.8713C190.438 21.0448 190.958 21.3917 191.132 21.9121C190.611 21.7387 190.091 21.7387 189.744 21.7387C189.224 21.7387 188.877 21.7387 188.53 21.9121C188.183 22.0856 187.663 22.0856 187.316 22.4326L187.142 22.6061C186.796 24.1674 186.449 25.7287 186.275 27.29C185.408 27.8104 182.113 30.2391 183.327 37.0048C183.847 39.7804 185.408 41.1682 187.316 42.0356C187.663 42.903 188.357 44.1174 190.958 44.8113C190.785 45.1582 190.611 45.6787 190.438 46.0256V46.1991C190.785 45.8522 190.958 45.5052 190.958 44.8113ZM193.039 37.6987C192.866 37.6987 192.519 37.6987 192.346 37.6987C192.172 37.6987 191.999 37.6987 191.652 37.6987C191.478 37.6987 191.305 37.6987 190.958 37.5252C190.785 37.5252 190.611 37.3517 190.264 37.3517C190.438 37.1782 190.611 37.1782 190.958 37.0048C191.132 37.0048 191.478 37.0048 191.652 37.0048C191.825 37.0048 192.172 37.1782 192.346 37.1782C192.866 37.3517 193.039 37.5252 193.039 37.6987ZM199.804 29.1982C199.804 29.1982 199.457 27.9839 197.722 27.29C197.896 27.6369 197.722 28.1574 197.549 28.6778C197.202 29.1982 196.682 29.1982 196.508 28.8513C196.161 28.5043 196.161 27.6369 196.508 27.1165L196.682 26.943C196.508 26.943 196.508 26.943 196.335 26.943C198.59 26.0756 200.151 27.4634 199.804 29.1982ZM191.999 28.1574C191.999 27.9839 192.172 27.9839 192.172 27.8104C192.346 27.6369 192.519 27.29 192.519 27.1165C192.693 26.943 192.693 26.5961 192.866 26.2491C193.039 25.9021 193.039 25.7287 193.039 25.3817C193.386 24.1674 193.386 22.953 193.733 21.7387C193.907 22.953 193.907 24.1674 193.733 25.3817C193.733 25.7287 193.56 26.0756 193.56 26.2491C193.56 26.5961 193.386 26.943 193.213 27.1165C193.039 27.4635 192.866 27.6369 192.693 27.9839C192.519 28.1574 192.519 28.3308 192.346 28.3308C192.172 28.5043 192.172 28.5043 191.999 28.6778C191.652 28.8513 191.478 29.0248 191.305 29.1982C191.132 29.3717 190.785 29.5452 190.785 29.7187C190.611 29.8921 190.611 30.0656 190.611 30.2391C190.611 30.4126 190.785 30.5861 190.958 30.7595C191.825 31.4535 192.866 31.8004 194.08 32.1474C193.56 32.3208 192.866 32.3208 192.172 32.1474C191.825 32.1474 191.478 31.9739 191.305 31.8004C190.958 31.6269 190.785 31.4535 190.438 31.28C190.264 31.1065 189.917 30.7595 189.744 30.4126C189.744 30.2391 189.571 30.0656 189.744 29.7187C189.744 29.5452 189.917 29.3717 189.917 29.1982C190.091 28.8513 190.438 28.6778 190.611 28.5043C190.785 28.3308 191.132 28.1574 191.305 27.9839C191.825 28.3308 191.825 28.1574 191.999 28.1574ZM190.091 34.4026C190.611 34.4026 190.958 34.5761 191.305 34.7495L191.652 35.0965L191.999 34.923C192.519 34.7495 193.039 34.7495 193.56 34.923C194.254 35.27 195.641 35.7904 197.896 35.7904C196.161 36.6578 190.785 36.6578 188.53 34.5761C188.357 34.4026 189.397 34.4026 190.091 34.4026ZM199.283 22.7795C199.977 22.953 200.844 23.1265 201.365 23.6469C201.711 23.8204 202.058 24.1674 202.232 24.5143C202.405 24.8613 202.752 25.2082 202.752 25.5552C202.926 25.9021 202.926 26.2491 202.926 26.7695C202.926 27.1165 202.752 27.4635 202.579 27.8104C202.405 27.1165 202.232 26.4226 201.885 25.9021C201.538 25.3817 201.191 25.0348 200.671 24.6878C200.151 24.3408 199.63 23.9939 198.936 23.8204C198.243 23.6469 197.722 23.3 197.029 23.3C197.896 22.7795 198.59 22.7795 199.283 22.7795ZM187.836 24.8613C190.091 23.9939 191.478 25.3817 191.305 27.1165C191.305 27.1165 190.958 25.9021 189.224 25.2082C189.397 25.5552 189.224 26.0756 189.05 26.5961C188.703 27.1165 188.183 27.1165 188.01 26.7695C187.663 26.4226 187.663 25.5552 188.01 25.0348L188.183 24.8613C188.01 24.8613 188.01 24.8613 187.836 24.8613Z" fill="#FAD4C8"/>
<path d="M191.132 48.9752L193.213 57.1286L192.866 57.3021L194.427 63.7208L198.243 55.0469L207.956 44.9852C207.956 41.8626 208.303 38.7399 208.823 36.6582C208.476 36.6582 208.303 36.8317 207.956 36.8317C207.088 41.5156 203.966 52.6182 191.132 48.9752Z" fill="#FAD4C8"/>
<path d="M206.915 21.5653C207.089 19.657 206.395 17.7487 204.66 16.8813C203.446 16.3609 201.192 15.8405 198.763 15.667C197.376 17.7487 194.948 18.7896 192.346 18.4426C191.305 18.2692 190.438 17.9222 189.571 17.2283C191.305 20.3509 197.723 19.8305 199.457 16.5344C205.181 17.4018 205.354 23.647 204.834 27.8105C205.007 27.984 205.181 28.1574 205.354 28.3309C206.048 26.2492 206.742 23.647 206.915 21.5653Z" fill="#E8BEB3"/>
<path d="M214.546 29.7188C219.403 25.5553 217.495 21.9122 215.24 19.657C215.066 18.6161 214.546 17.2283 213.679 15.3201C210.904 9.4218 200.671 8.03397 198.59 7.86049C197.549 6.64614 196.161 5.60527 194.427 5.43179C190.958 4.91136 187.489 7.16658 186.969 10.8096C186.622 13.0648 187.489 15.1466 189.05 16.5344C189.224 16.7079 189.397 16.8814 189.744 17.0548C190.611 17.5753 191.478 18.0957 192.519 18.2692C195.121 18.6161 197.549 17.5753 198.936 15.4935C201.365 15.667 203.619 16.1875 204.833 16.7079C206.568 17.5753 207.262 19.4835 207.088 21.3918C206.915 23.4735 206.048 26.0757 205.354 28.1575C205.874 28.8514 206.394 29.8922 206.741 31.627C207.609 31.2801 212.465 28.5044 214.546 29.7188Z" fill="#4B3C4F"/>
<path d="M188.704 21.9121C189.05 21.7386 189.571 21.7386 189.918 21.7386C190.438 21.7386 190.785 21.7386 191.305 21.9121C191.132 21.3917 190.611 21.0447 190.091 20.8712C189.571 20.6978 188.877 20.6978 188.357 20.6978C188.01 20.6978 187.836 20.8712 187.489 21.0447C187.316 21.2182 186.969 21.3917 186.796 21.5651C186.449 22.0856 186.102 22.606 186.275 23.1265C186.622 22.7795 186.969 22.606 187.143 22.4325L187.316 22.2591C187.836 22.2591 188.357 22.0856 188.704 21.9121Z" fill="#4B3C4F"/>
<path d="M200.844 24.6877C201.365 25.0347 201.712 25.3817 202.058 25.9021C202.405 26.4225 202.579 26.943 202.752 27.8104C202.926 27.4634 203.099 27.1164 203.099 26.7695C203.099 26.4225 203.099 25.9021 202.926 25.5551C202.752 25.2082 202.579 24.8612 202.405 24.5143C202.232 24.1673 201.885 23.9938 201.538 23.6469C200.844 23.1264 200.151 22.953 199.457 22.7795C198.763 22.606 197.896 22.7795 197.202 23.1264C197.896 23.2999 198.59 23.4734 199.11 23.6469C199.804 23.9938 200.324 24.3408 200.844 24.6877Z" fill="#4B3C4F"/>
<path d="M196.335 26.943C196.508 26.943 196.508 26.943 196.682 26.943L196.508 27.1165C196.161 27.6369 196.161 28.3308 196.508 28.8513C196.855 29.1982 197.375 29.1982 197.549 28.6778C197.722 28.3308 197.896 27.8104 197.722 27.29C199.457 27.9839 199.804 29.1982 199.804 29.1982C200.15 27.4635 198.59 26.0756 196.335 26.943Z" fill="#4B3C4F"/>
<path d="M188.01 25.2083C187.663 25.7287 187.663 26.4226 188.01 26.9431C188.357 27.29 188.877 27.29 189.05 26.7696C189.224 26.4226 189.397 25.9022 189.224 25.3818C190.958 26.0757 191.305 27.29 191.305 27.29C191.479 25.5552 190.091 24.1674 187.836 25.0348C188.01 25.0348 188.01 25.0348 188.183 25.0348C188.183 25.0348 188.01 25.0348 188.01 25.2083Z" fill="#4B3C4F"/>
<path d="M214.72 29.8928C214.72 29.7194 214.547 29.7194 214.72 29.8928C212.465 28.505 207.609 31.2807 206.568 31.8011C206.742 32.842 206.742 34.2298 206.568 35.7911C205.701 42.7302 201.018 44.465 196.162 44.2915C195.988 44.2915 195.988 44.2915 195.815 44.2915C194.774 44.9855 193.387 45.5059 191.132 44.9855H190.959C190.959 45.5059 190.612 46.0263 190.438 46.3733L191.132 49.1489C203.967 52.792 207.089 41.6894 207.782 37.0054C208.129 37.0054 208.303 37.0055 208.65 36.832C210.211 36.3115 212.118 35.0972 213.332 33.7094C214.893 32.1481 215.761 30.5868 214.72 29.8928ZM209.343 34.0563C209.17 34.0563 208.996 34.0563 208.823 34.0563C208.65 34.0563 208.476 33.8828 208.476 33.8828C208.303 33.8828 208.303 33.7094 208.129 33.7094C207.782 34.0563 207.435 34.4033 206.915 34.7502C207.089 34.0563 207.262 33.5359 207.782 33.0155C208.129 32.495 208.65 31.9746 209.17 31.6276C209.69 31.2807 210.384 31.1072 210.904 30.9337C211.078 30.9337 211.251 30.9337 211.425 30.9337C211.598 30.9337 211.772 30.9337 211.945 30.9337C212.118 30.9337 212.292 30.9337 212.465 30.9337C212.639 30.9337 212.812 31.1072 212.986 31.1072C212.639 31.1072 212.465 31.1072 212.118 31.2807L211.772 31.4541L211.425 31.6276C210.904 31.8011 210.384 32.1481 209.864 32.495C209.517 32.6685 209.343 32.842 208.996 33.0155C209.17 33.0155 209.17 33.0155 209.17 33.0155C209.343 33.0155 209.517 33.1889 209.69 33.3624C209.864 33.5359 209.864 33.7094 209.864 34.0563C209.69 34.0563 209.517 34.0563 209.343 34.0563Z" fill="#D6ABA3"/>
<path d="M209.863 33.3618C209.69 33.1883 209.516 33.0148 209.343 33.0148H209.169C209.516 32.8414 209.69 32.6679 210.037 32.4944C210.557 32.1475 211.077 31.974 211.598 31.627L211.944 31.4535L212.291 31.2801C212.638 31.1066 212.812 31.1066 213.159 31.1066C212.985 30.9331 212.812 30.9331 212.638 30.9331C212.465 30.9331 212.291 30.9331 212.118 30.9331C211.944 30.9331 211.771 30.9331 211.598 30.9331C211.424 30.9331 211.251 30.9331 211.077 30.9331C210.384 31.1066 209.863 31.2801 209.343 31.627C208.823 31.974 208.302 32.4944 207.955 33.0148C207.608 33.5353 207.262 34.0557 207.088 34.7496C207.435 34.4027 207.955 34.0557 208.302 33.7088C208.476 33.8822 208.649 33.8822 208.649 33.8822C208.823 33.8822 208.996 34.0557 208.996 34.0557C209.169 34.0557 209.343 34.0557 209.516 34.0557C209.69 34.0557 209.863 34.0557 210.21 34.0557C210.037 33.7088 210.037 33.5353 209.863 33.3618Z" fill="#B5807C"/>
<path d="M197.376 127.213C197.723 127.213 198.07 127.387 198.59 127.387C198.243 127.213 197.896 127.213 197.376 127.213Z" fill="#7DB4EA"/>
<path d="M193.733 126.519C193.386 126.519 193.04 126.346 192.519 126.346C193.04 126.346 193.386 126.519 193.733 126.519Z" fill="#7DB4EA"/>
<path d="M196.161 127.04C195.814 127.04 195.468 126.867 194.947 126.867C195.468 126.867 195.814 126.867 196.161 127.04Z" fill="#7DB4EA"/>
<path d="M191.478 126.173C191.132 126.173 190.785 126 190.264 126C190.611 126 190.958 126 191.478 126.173Z" fill="#7DB4EA"/>
<path d="M201.018 127.734C200.671 127.734 200.324 127.561 199.804 127.561C200.324 127.561 200.671 127.561 201.018 127.734Z" fill="#7DB4EA"/>
<path d="M207.088 128.428C207.435 128.428 207.782 128.428 208.129 128.601C207.782 128.428 207.435 128.428 207.088 128.428Z" fill="#7DB4EA"/>
<path d="M205.874 128.254C205.527 128.254 205.18 128.254 204.66 128.081C205.007 128.081 205.527 128.254 205.874 128.254Z" fill="#7DB4EA"/>
<path d="M202.406 127.908C202.752 127.908 203.099 127.908 203.446 128.081C203.099 127.908 202.752 127.908 202.406 127.908Z" fill="#7DB4EA"/>
<path d="M194.427 70.6597C197.549 68.5779 200.151 65.2818 202.405 61.6388L198.243 55.3936L194.427 64.0675L192.866 57.6488L188.53 59.904C189.224 63.2001 190.785 67.1901 194.427 70.6597Z" fill="#A06493"/>
<path d="M191.131 92.865C191.305 91.8242 191.305 90.7833 191.478 89.5689C191.999 84.7115 192.692 79.8541 193.56 74.9968C189.57 72.0476 186.795 67.8841 186.275 62.5063C185.061 63.7207 184.367 65.282 183.5 66.4963C183.847 59.3837 181.939 52.965 181.939 46.0259C178.47 46.0259 174.134 46.7198 169.278 48.6281C169.972 54.8733 171.186 71.1802 167.023 78.8133C166.85 79.1602 166.503 79.5072 166.329 79.8541C166.503 81.7624 166.85 84.3646 167.197 87.8341C175.001 90.0894 182.98 91.6507 191.131 92.865Z" fill="#FFB469"/>
<path d="M183.501 66.6697C184.368 65.4553 185.062 63.894 186.276 62.6797C186.796 68.0575 189.571 72.221 193.56 75.1701C193.734 73.6088 194.08 72.221 194.254 70.6597C190.785 67.1901 189.051 63.3736 188.357 59.7305L186.102 60.9449L184.541 46.3727C183.674 46.3727 182.807 46.1992 181.766 46.1992C181.94 52.9649 183.674 59.5571 183.501 66.6697Z" fill="#FF9C43"/>
<path d="M176.39 91.1304L178.297 91.4774C179.511 91.6509 180.899 91.9978 182.113 92.1713C185.062 92.6917 188.01 93.2122 190.959 93.7326C190.959 93.3856 190.959 93.0387 191.132 92.6917C182.98 91.4774 175.002 89.9161 167.024 88.0078C167.024 88.1813 167.024 88.3548 167.024 88.5282C169.452 89.3956 171.88 89.9161 174.482 90.61C175.175 90.7835 175.696 90.9569 176.39 91.1304Z" fill="white"/>
<path d="M190.265 101.192C190.265 100.845 190.265 100.498 190.438 99.9773H190.091C187.49 99.4568 185.061 98.7629 182.46 98.2425C177.43 96.8547 172.4 95.4668 167.544 93.5586C168.758 94.079 169.972 94.426 171.186 94.7729C171.88 94.9464 172.4 95.1199 173.094 95.2934L175.002 95.8138C177.43 96.5077 180.032 97.2016 182.46 97.722C185.061 98.416 187.663 98.9364 190.265 99.4568C190.265 99.2834 190.265 99.2833 190.265 99.1099C190.438 97.5486 190.612 95.9873 190.785 94.426C190.438 94.426 189.918 94.2525 189.571 94.2525L185.755 93.5586C184.541 93.3851 183.154 93.0381 181.94 92.8647C180.725 92.5177 179.338 92.3442 178.124 91.9973L176.216 91.4768C175.522 91.3034 175.002 91.1299 174.308 90.9564L172.4 90.436L170.492 89.9155C169.799 89.742 169.278 89.5686 168.585 89.3951C168.064 89.2216 167.37 89.0481 166.85 88.7012C167.024 90.436 167.197 92.3442 167.37 94.426C175.002 97.2016 182.633 99.4568 190.265 101.192Z" fill="white"/>
<path d="M188.704 117.499L189.051 113.509L189.397 108.651C189.571 107.09 189.744 105.529 189.918 103.794C190.091 102.926 190.091 102.059 190.265 101.018C182.633 99.1098 175.175 96.8546 167.717 94.2524C168.238 99.6303 168.584 105.702 168.584 112.294C175.175 114.549 181.939 116.284 188.704 117.499Z" fill="#FFB469"/>
<path d="M184.714 146.644C185.928 146.817 186.796 147.164 187.489 147.164C187.316 146.991 187.316 144.735 187.663 141.092C187.836 136.755 188.01 132.245 188.183 127.908C188.183 127.214 188.183 126.52 188.357 125.826C181.766 127.214 174.828 127.908 167.891 127.734C167.544 131.031 167.023 134.327 166.156 137.449C165.809 138.837 166.503 140.225 167.717 140.919C167.891 140.919 167.891 141.092 168.064 141.092C175.175 144.215 181.072 145.776 184.714 146.644Z" fill="#FF9C43"/>
<path d="M188.183 125.826C188.183 125.652 188.183 125.479 188.183 125.305C181.419 123.918 174.828 121.836 168.411 119.407C168.238 122.183 168.064 124.959 167.717 127.734C174.655 128.081 181.419 127.387 188.183 125.826Z" fill="#FFB469"/>
<path d="M188.183 125.479C188.183 125.132 188.183 124.611 188.183 124.264C186.622 123.918 184.888 123.571 183.327 123.224C178.471 122.183 173.614 120.795 169.105 118.887C170.319 119.407 171.359 119.754 172.574 120.101C173.094 120.274 173.788 120.448 174.308 120.621L176.042 121.142C178.471 121.836 180.899 122.356 183.327 122.877C184.888 123.224 186.449 123.571 188.183 123.744C188.183 123.571 188.183 123.397 188.183 123.224C188.357 122.009 188.357 120.621 188.53 119.407C186.796 119.06 185.061 118.713 183.327 118.366C178.471 117.325 173.614 115.938 169.105 114.029C170.319 114.55 171.359 114.897 172.574 115.244C173.094 115.417 173.788 115.591 174.308 115.764L176.042 116.285C178.471 116.978 180.899 117.499 183.327 118.019C185.061 118.366 186.796 118.713 188.53 119.06C188.53 118.887 188.53 118.713 188.53 118.713V117.846C181.766 116.458 175.002 114.897 168.411 112.815C168.411 115.07 168.411 117.325 168.238 119.754C174.828 122.009 181.419 123.918 188.183 125.479Z" fill="white"/>
<path d="M186.102 60.7713L188.53 59.5569L192.866 57.4752L193.213 57.1282L191.132 48.9747L190.438 46.3726V46.1991L190.265 45.1582L184.541 45.8521V46.1991L186.102 60.7713Z" fill="#8E5783"/>
<path d="M218.188 134.674C216.107 135.021 211.424 137.102 208.476 137.97C207.955 138.143 207.435 138.317 206.915 138.317C205.874 138.49 205.527 137.102 206.394 136.582C206.394 136.582 206.568 136.582 206.568 136.408C206.568 136.408 206.568 136.408 206.394 136.408C205.527 136.755 204.833 137.102 203.966 137.276C203.619 137.449 203.272 137.449 202.926 137.623C201.885 137.796 201.191 136.408 202.058 135.715C202.926 135.194 203.966 134.327 205.007 133.633C205.007 133.633 204.833 133.633 204.833 133.806L205.007 133.633C204.487 133.806 203.966 133.98 203.446 134.153C203.099 134.327 202.752 134.327 202.405 134.327C201.365 134.5 200.671 133.112 201.711 132.418C202.232 132.071 202.752 131.725 203.446 131.378C203.966 130.857 204.487 130.337 205.18 129.99C205.874 129.469 206.394 129.122 207.088 128.775C207.262 128.602 207.435 128.602 207.782 128.428C207.435 128.428 207.088 128.428 206.741 128.255C206.394 128.255 205.874 128.255 205.527 128.081C205.18 128.081 204.833 128.081 204.313 127.908C203.966 127.908 203.446 127.735 203.099 127.735C202.752 127.735 202.405 127.735 202.058 127.561C201.885 127.561 201.885 127.561 201.711 127.561C201.365 127.561 201.018 127.561 200.671 127.388C200.324 127.388 199.977 127.214 199.457 127.214C199.11 127.214 198.59 127.041 198.243 127.041C197.896 127.041 197.549 126.867 197.029 126.867C196.682 126.867 196.161 126.694 195.815 126.694C195.468 126.694 195.121 126.52 194.6 126.52C194.254 126.52 193.733 126.347 193.386 126.347C193.039 126.347 192.693 126.173 192.172 126.173C191.825 126.173 191.305 126 190.958 126C190.611 126 190.264 125.826 189.744 125.826C189.397 125.826 189.05 125.653 188.703 125.653H188.53C188.53 125.653 188.53 125.653 188.53 125.479L188.703 124.265V123.745V123.051C188.877 121.836 188.877 120.622 189.05 119.408C189.05 119.234 189.05 119.061 189.05 118.887C189.05 118.714 189.05 118.54 189.05 118.367V117.673L189.397 113.509L189.918 108.652C190.091 107.091 190.264 105.529 190.438 103.795L190.611 101.192L190.785 99.978V99.4576V99.1106L191.825 94.6002V94.0797L191.999 93.0389L192.346 89.7428L193.386 80.2015C193.733 77.0789 194.08 73.7828 194.427 70.6602C194.254 72.2215 193.907 73.6093 193.733 75.1706C193.039 80.028 192.346 84.8854 191.652 89.7428C191.478 90.7836 191.305 91.8245 191.305 93.0389C191.305 93.3858 191.305 93.7328 191.132 94.0797C191.132 94.2532 191.132 94.4267 191.132 94.6002C190.958 96.1615 190.785 97.7228 190.611 99.2841C190.611 99.4576 190.611 99.4576 190.611 99.631C190.611 99.8045 190.611 99.978 190.611 100.151C190.611 100.498 190.611 100.845 190.438 101.366C190.264 102.233 190.264 103.101 190.091 104.141C189.917 105.703 189.744 107.264 189.571 108.999L189.224 113.856L188.877 117.846V118.714C188.877 118.887 188.877 119.061 188.877 119.061C188.877 119.234 188.877 119.408 188.877 119.581C188.53 120.622 188.357 121.836 188.357 123.224C188.357 123.398 188.357 123.571 188.357 123.745C188.357 123.918 188.357 124.091 188.357 124.265C188.357 124.612 188.357 125.132 188.357 125.479C188.357 125.653 188.357 125.826 188.357 126C188.357 126.694 188.357 127.388 188.183 128.081C187.836 132.418 187.663 136.929 187.663 141.266C187.489 144.909 187.316 147.164 187.489 147.338C188.01 147.511 191.305 149.072 203.446 150.113C203.793 150.113 204.313 150.113 204.66 150.287C207.955 150.634 211.945 150.807 216.627 150.981C216.801 150.981 216.974 150.981 217.148 150.981C218.362 150.981 219.749 150.981 221.137 151.154C221.831 151.154 222.524 150.981 223.045 150.807C224.779 150.113 225.993 148.552 226.167 146.644C226.687 142.307 227.207 137.623 227.554 132.939C224.606 133.633 220.963 134.327 218.188 134.674Z" fill="#FF8827"/>
<path d="M198.069 120.275C199.977 120.621 201.885 120.795 203.793 120.968C204.486 120.621 205.18 120.448 205.874 120.101C200.497 119.581 194.947 118.713 189.744 117.672V118.366C189.744 118.54 189.744 118.713 189.744 118.887C192.346 119.407 195.294 119.928 198.069 120.275Z" fill="white"/>
<path d="M193.56 124.611C196.682 123.744 199.63 122.703 202.579 121.489C201.018 121.315 199.457 121.142 197.896 120.968L196.161 120.621C195.468 120.621 194.947 120.448 194.254 120.274L190.611 119.754C190.264 119.754 189.744 119.581 189.397 119.581C189.224 120.795 189.224 122.009 189.05 123.224V123.918C190.611 124.091 191.999 124.265 193.56 124.611Z" fill="white"/>
<path d="M192.172 124.958L190.785 124.785C190.264 124.611 189.744 124.611 189.224 124.438L189.05 125.652H189.224C190.091 125.479 191.132 125.132 192.172 124.958Z" fill="white"/>
<path d="M196.161 125.479C195.468 125.479 194.947 125.305 194.254 125.132L191.999 124.785C190.958 125.132 190.091 125.305 189.05 125.479C189.397 125.479 189.744 125.652 190.091 125.652C190.438 125.652 190.785 125.826 191.305 125.826C191.652 125.826 192.172 125.999 192.519 125.999C192.866 125.999 193.213 126.172 193.733 126.172C194.08 126.172 194.6 126.346 194.947 126.346C195.294 126.346 195.641 126.519 196.161 126.519C196.508 126.519 197.029 126.693 197.375 126.693C197.722 126.693 198.069 126.866 198.59 126.866C198.936 126.866 199.457 127.04 199.804 127.04C200.151 127.04 200.497 127.213 201.018 127.213C201.365 127.213 201.711 127.213 202.058 127.387C201.365 127.213 201.191 126.346 201.538 125.826C200.324 125.652 199.283 125.479 198.069 125.305L196.161 125.479Z" fill="#DDD8EF"/>
<path d="M212.465 126.173C211.771 126.346 210.73 126.52 209.69 126.693C210.21 126.693 210.73 126.867 211.424 126.867C211.771 126.52 212.118 126.346 212.465 126.173Z" fill="#DDD8EF"/>
<path d="M205.874 120.101C205.18 120.448 204.486 120.622 203.793 120.968C204.313 120.968 205.007 121.142 205.527 121.142C207.955 121.489 210.383 121.662 212.638 121.836C213.679 121.836 215.066 122.009 216.454 122.183L220.096 122.53C221.484 122.703 222.698 122.703 224.085 122.877C224.606 122.356 225.126 121.836 225.646 121.142C219.056 121.142 212.465 120.795 205.874 120.101Z" fill="#DDD8EF"/>
<path d="M219.75 122.876C220.964 123.223 222.351 123.397 223.565 123.744C223.739 123.57 223.912 123.397 224.259 123.05C223.045 123.05 221.657 122.876 220.443 122.876H219.75Z" fill="#DDD8EF"/>
<path d="M207.262 122.009H206.395L205.527 121.836C204.66 121.662 203.62 121.662 202.752 121.489C199.804 122.703 196.682 123.744 193.733 124.611C195.294 124.785 196.855 125.132 198.243 125.305C199.63 125.479 201.018 125.652 202.405 125.826C205.007 124.785 208.996 123.05 211.251 122.356C210.557 122.356 209.863 122.183 209.343 122.183L207.262 122.009Z" fill="#DDD8EF"/>
<path d="M204.66 128.081C205.007 128.081 205.354 128.081 205.874 128.255C206.221 128.255 206.742 128.255 207.088 128.428C207.435 128.428 207.782 128.428 208.129 128.602C208.649 128.255 208.996 128.081 209.517 127.908C209.863 127.734 210.21 127.561 210.557 127.387C210.037 127.387 209.69 127.387 209.17 127.214L207.956 127.041C206.395 127.387 204.834 127.734 203.446 127.908C203.099 127.908 202.752 127.908 202.406 127.908C202.752 127.908 203.099 127.908 203.446 128.081C203.793 128.081 204.313 128.081 204.66 128.081Z" fill="#DDD8EF"/>
<path d="M227.034 106.917C220.443 112.294 213.332 116.805 205.701 120.101C212.291 120.795 219.056 121.142 225.646 121.142C226.34 120.274 227.381 119.407 228.421 118.366C228.595 114.376 228.768 110.56 228.942 107.09C228.422 106.917 227.728 106.917 227.034 106.917Z" fill="#FF8827"/>
<path d="M205.875 120.101C213.506 116.631 220.617 112.294 227.208 106.916C215.067 106.049 203.099 104.314 191.132 101.539L190.959 104.141C190.785 105.702 190.612 107.263 190.438 108.998L189.918 113.682L189.571 117.846C194.948 118.713 200.324 119.58 205.875 120.101Z" fill="#FF9C43"/>
<path d="M228.595 105.702C228.595 105.702 228.421 105.702 228.595 105.702C228.074 106.049 227.554 106.396 227.034 106.743C227.727 106.743 228.248 106.743 228.942 106.916C228.942 106.396 228.942 105.702 228.942 105.182C228.942 105.355 228.595 105.529 228.595 105.702C228.595 105.702 228.421 105.702 228.595 105.702Z" fill="#DDD8EF"/>
<path d="M227.034 106.916C227.555 106.569 227.901 106.222 228.422 105.702C225.82 105.529 223.392 105.182 220.79 105.008L212.985 103.967C211.771 103.794 210.384 103.62 209.17 103.447C207.956 103.273 206.568 103.1 205.354 102.926C202.752 102.579 200.151 102.059 197.723 101.539L195.815 101.192C195.121 101.018 194.601 101.018 193.907 100.845L191.305 100.324L191.132 101.539C202.926 104.314 215.067 106.049 227.034 106.916Z" fill="white"/>
<path d="M197.723 101.019C200.324 101.539 202.752 101.886 205.354 102.406C207.956 102.927 210.557 103.274 212.985 103.621L220.617 104.662C223.218 105.009 225.647 105.356 228.248 105.702C228.422 105.529 228.595 105.356 228.942 105.182C229.115 101.886 229.115 98.9368 229.115 96.6816C216.628 95.8142 204.14 94.7734 191.826 93.0386V93.906C193.733 94.2529 195.641 94.4264 197.549 94.7734C198.763 94.9468 200.151 95.1203 201.365 95.2938L205.181 95.8142C205.874 95.8142 206.395 95.9877 207.088 95.9877L208.996 96.1612C210.21 96.3347 211.598 96.3347 212.812 96.5081C215.414 96.6816 218.015 97.0286 220.617 97.2021C223.218 97.3755 225.82 97.549 228.422 97.7225C225.82 97.7225 223.218 97.549 220.617 97.3755C218.015 97.2021 215.414 97.0286 212.812 96.8551C207.609 96.5081 202.406 95.9877 197.202 95.2938L195.294 95.1203C194.601 94.9468 194.08 94.9468 193.387 94.7734C192.866 94.5999 192.172 94.5999 191.652 94.4264L191.132 99.1103V99.4573C193.387 100.151 195.641 100.498 197.723 101.019Z" fill="white"/>
<path d="M203.619 63.547L202.232 61.4652C199.977 65.1083 197.376 68.4044 194.254 70.4861C193.907 73.6087 193.56 76.9048 193.213 80.0274L192.172 89.5687L191.825 92.8648C204.14 94.5996 216.801 95.6405 229.115 96.5079C229.115 93.0383 229.115 90.9566 229.115 90.9566C229.115 90.9566 228.768 90.0892 228.248 88.5279C228.075 87.6605 227.728 86.6196 227.554 85.4053C226.34 79.16 225.82 68.0574 231.717 53.4852C226.861 48.4544 215.934 47.24 211.077 46.8931L213.159 50.3626L203.619 63.547Z" fill="#FF9C43"/>
<path d="M202.232 61.4654L203.619 63.5472L213.506 50.3628L211.424 46.7198L209.343 43.5972L207.782 45.1585L198.069 55.2202L202.232 61.4654Z" fill="#8E5783"/>
<path d="M244.031 103.621C242.644 105.008 241.256 106.743 239.695 108.305C242.123 109.345 247.153 112.295 250.275 118.713C254.611 115.591 258.774 112.295 262.069 109.172C260.855 107.958 259.468 107.09 257.907 106.223C253.744 103.968 248.888 103.274 244.031 103.621Z" fill="#FAD4C8"/>
<path d="M246.113 101.365C245.766 101.712 245.419 102.059 245.072 102.58C244.725 102.926 244.378 103.273 244.205 103.62C249.061 103.273 253.918 103.967 258.254 106.396C259.641 107.263 261.029 108.131 262.416 109.345C262.763 108.998 262.937 108.825 263.283 108.651C265.885 106.223 267.273 103.967 267.966 102.233C264.151 99.9774 252.53 99.11 246.113 101.365Z" fill="#E8BEB3"/>
<path d="M267.966 92.5176C267.966 92.5176 254.264 99.9771 245.072 98.5893C244.378 100.498 246.113 101.365 246.286 101.538C252.703 99.2832 264.324 100.151 267.966 102.059C268.66 101.885 269.18 101.365 269.527 100.324C271.088 96.8545 268.313 92.8645 267.966 92.5176Z" fill="#A06493"/>
<path d="M243.511 95.2935C243.511 95.6405 243.338 97.8957 244.899 98.4161C244.899 98.4161 260.682 95.1201 266.752 87.3135C266.926 87.487 267.099 87.834 267.099 88.0074C266.579 86.2727 265.538 84.5379 263.804 84.1909C257.213 94.9466 243.511 95.2935 243.511 95.2935Z" fill="#A06493"/>
<path d="M244.899 98.4161C254.091 99.8039 267.793 92.3444 267.793 92.3444C267.793 92.1709 268.14 90.0891 267.099 88.0074C266.926 87.8339 266.926 87.487 266.752 87.3135C260.682 95.2935 244.899 98.4161 244.899 98.4161Z" fill="#8E5783"/>
<path d="M190.265 29.7184C190.091 29.8918 190.091 30.0653 190.091 30.2388C190.091 30.4123 190.091 30.7592 190.091 30.9327C190.265 31.2797 190.438 31.6266 190.785 31.8001C190.958 31.9736 191.305 32.1471 191.652 32.3205C191.999 32.494 192.346 32.494 192.519 32.6675C193.213 32.841 193.733 32.841 194.427 32.6675C193.213 32.3205 192.172 31.9736 191.305 31.2797C191.132 31.1062 190.958 30.9327 190.958 30.7592C190.958 30.5857 190.958 30.4123 191.132 30.2388C191.305 30.0653 191.479 29.8918 191.652 29.7184C191.825 29.5449 192.172 29.3714 192.346 29.1979C192.519 29.0244 192.519 29.0244 192.693 28.851C192.866 28.6775 192.866 28.504 193.04 28.504C193.213 28.1571 193.386 27.9836 193.56 27.6366C193.733 27.2897 193.733 26.9427 193.907 26.7692C193.907 26.4223 194.08 26.0753 194.08 25.9018C194.254 24.6875 194.254 23.4731 194.08 22.2588C193.907 23.4731 193.733 24.6875 193.386 25.9018C193.386 26.2488 193.213 26.4223 193.213 26.7692C193.04 27.1162 193.04 27.2897 192.866 27.6366C192.693 27.8101 192.693 28.1571 192.519 28.3305C192.519 28.504 192.346 28.504 192.346 28.6775C192.346 28.851 192.172 28.851 192.172 29.0244C191.999 29.1979 191.825 29.3714 191.479 29.5449C190.785 29.1979 190.438 29.3714 190.265 29.7184Z" fill="#D19A93"/>
<path d="M192.52 37.3517C192.346 37.1782 191.999 37.1782 191.826 37.1782C191.652 37.1782 191.305 37.1782 191.132 37.1782C190.959 37.1782 190.612 37.3517 190.438 37.5252C190.612 37.6987 190.959 37.6987 191.132 37.6987C191.305 37.6987 191.479 37.6987 191.826 37.8721C191.999 37.8721 192.173 37.8721 192.52 37.8721C192.693 37.8721 192.866 37.8721 193.213 37.8721C193.04 37.5252 192.866 37.3517 192.52 37.3517Z" fill="#D19A93"/>
<path d="M197.896 35.7902C195.641 35.7902 194.254 35.2697 193.56 34.9228C193.039 34.7493 192.519 34.5758 191.999 34.9228L191.825 35.0963L191.479 34.7493C191.132 34.4023 190.611 34.4023 190.264 34.4023C189.571 34.4023 188.53 34.5758 188.53 34.7493C190.785 36.6576 196.335 36.6576 197.896 35.7902Z" fill="#D1A299"/>
<path d="M170.666 89.9157L172.574 90.4361L174.482 90.9565C175.175 91.13 175.696 91.3035 176.389 91.477L178.297 91.9974C179.511 92.3444 180.899 92.5178 182.113 92.8648C183.327 93.0383 184.715 93.3852 185.929 93.5587L189.744 94.2526C190.091 94.2526 190.612 94.4261 190.958 94.4261C190.958 94.2526 190.958 94.0791 190.958 93.9057C188.01 93.3852 185.061 92.8648 182.113 92.3444C180.899 92.1709 179.511 91.8239 178.297 91.6504L176.389 91.13C175.696 90.9565 175.175 90.7831 174.482 90.6096C172.053 90.0891 169.452 89.3952 167.024 88.5278C167.024 88.5278 167.024 88.5278 166.85 88.5278C166.85 88.5278 166.85 88.5278 167.024 88.5278C167.544 88.7013 168.238 88.8748 168.758 89.2217C169.452 89.5687 170.145 89.7422 170.666 89.9157Z" fill="#F1EBFF"/>
<path d="M193.56 94.7732C194.254 94.9466 194.774 94.9466 195.468 95.1201L197.376 95.2936C202.579 95.9875 207.782 96.5079 212.985 96.8549C215.587 97.0284 218.189 97.2019 220.79 97.3753C223.392 97.5488 225.994 97.5488 228.595 97.7223C225.994 97.5488 223.392 97.3753 220.79 97.2019C218.189 97.0284 215.587 96.8549 212.985 96.5079C211.771 96.3345 210.557 96.3345 209.17 96.161L207.262 95.9875C206.568 95.9875 206.048 95.814 205.354 95.814L201.538 95.2936C200.324 95.1201 198.937 94.9466 197.723 94.7732C195.815 94.5997 193.907 94.2527 191.999 93.9058V94.4262C192.346 94.5997 193.04 94.7732 193.56 94.7732Z" fill="#F1EBFF"/>
<path d="M176.216 116.111L174.481 115.591C173.961 115.417 173.267 115.244 172.747 115.07C171.533 114.723 170.319 114.376 169.278 113.856C173.788 115.938 178.644 117.152 183.5 118.193C185.235 118.54 186.969 118.887 188.703 119.234C188.703 119.06 188.703 118.887 188.703 118.713C186.969 118.366 185.235 118.019 183.5 117.672C181.072 117.326 178.644 116.805 176.216 116.111Z" fill="#F1EBFF"/>
<path d="M205.527 121.142C205.007 121.142 204.313 120.968 203.793 120.968C201.885 120.795 199.977 120.448 198.069 120.275C195.121 119.928 192.346 119.407 189.397 118.887C189.397 119.06 189.397 119.234 189.397 119.407C189.744 119.407 190.264 119.581 190.611 119.581L194.254 120.101C194.947 120.275 195.468 120.275 196.161 120.448L198.069 120.622C199.63 120.795 201.191 120.968 202.752 121.142C203.619 121.315 204.66 121.315 205.527 121.489L206.394 121.662H207.262L209.17 121.836C209.863 121.836 210.557 122.009 211.077 122.009C211.251 122.009 211.598 121.836 211.771 121.836C211.945 121.836 212.291 121.662 212.638 121.662C210.21 121.662 207.782 121.489 205.527 121.142Z" fill="#F1EBFF"/>
<path d="M216.627 122.356C217.668 122.53 218.709 122.703 219.749 122.877H220.27C221.484 122.877 222.871 123.05 224.085 123.05L224.259 122.877C222.871 122.703 221.657 122.703 220.27 122.53L216.627 122.356Z" fill="#F1EBFF"/>
<path d="M176.216 121.142L174.481 120.622C173.961 120.448 173.267 120.275 172.747 120.101C171.533 119.754 170.319 119.407 169.278 118.887C173.788 120.968 178.644 122.183 183.5 123.224C185.061 123.571 186.796 123.918 188.357 124.265C188.357 124.091 188.357 123.918 188.357 123.744C186.796 123.397 185.061 123.224 183.5 122.877C181.072 122.356 178.644 121.662 176.216 121.142Z" fill="#F1EBFF"/>
<path d="M193.56 124.611C191.999 124.438 190.611 124.091 189.05 123.917V124.438C189.571 124.611 190.091 124.611 190.611 124.785L191.999 124.958L194.254 125.305C194.947 125.479 195.468 125.479 196.161 125.652L198.069 125.826C199.283 125.999 200.324 126.173 201.538 126.346C201.711 126.173 201.885 125.999 202.058 125.999C202.058 125.999 202.232 125.999 202.405 125.826C201.018 125.652 199.63 125.479 198.243 125.305C196.508 124.958 195.121 124.785 193.56 124.611Z" fill="#F1EBFF"/>
<path d="M210.557 127.213C210.731 127.213 210.731 127.04 210.904 127.04C211.078 126.866 211.251 126.866 211.425 126.693C210.904 126.693 210.384 126.52 209.69 126.52C209.17 126.693 208.476 126.693 207.782 126.866L208.996 127.04C209.517 127.04 210.037 127.213 210.557 127.213Z" fill="#F1EBFF"/>
<path d="M175.002 95.8143L173.094 95.2939C172.4 95.1204 171.88 94.9469 171.186 94.7734C169.972 94.4265 168.758 93.906 167.544 93.5591C172.4 95.6408 177.43 97.0286 182.46 98.243C185.061 98.9369 187.489 99.4573 190.091 99.9778H190.438C190.438 99.8043 190.438 99.6308 190.438 99.4573C187.836 98.9369 185.235 98.4165 182.633 97.7226C180.031 97.2021 177.603 96.5082 175.002 95.8143Z" fill="#F1EBFF"/>
<path d="M193.907 100.845C194.601 101.018 195.121 101.018 195.815 101.192L197.723 101.538C200.324 102.059 202.926 102.406 205.354 102.926C206.568 103.1 207.956 103.273 209.17 103.447C210.384 103.62 211.771 103.794 212.986 103.967L220.79 105.008C223.392 105.182 225.82 105.529 228.422 105.702C228.422 105.702 228.422 105.702 228.595 105.702C228.595 105.702 228.595 105.702 228.422 105.702C225.82 105.355 223.392 105.008 220.79 104.661L213.159 103.62C210.557 103.273 207.956 102.753 205.528 102.406C202.926 101.885 200.324 101.538 197.896 101.018C195.641 100.671 193.56 100.151 191.305 99.8037V100.324L193.907 100.845Z" fill="#F1EBFF"/>
<path d="M237.961 109.345C237.787 109.345 237.787 109.172 237.614 109.172C234.145 112.641 231.023 115.764 228.421 118.366C227.381 119.407 226.514 120.448 225.646 121.142C224.953 121.836 224.432 122.356 224.085 122.877L223.912 123.05C223.739 123.224 223.392 123.571 223.218 123.744C222.004 123.397 220.79 123.224 219.402 122.877C218.362 122.703 217.148 122.53 216.281 122.356C214.72 122.183 213.332 122.009 212.465 122.009C212.118 122.009 211.771 122.009 211.598 122.183C211.424 122.183 211.251 122.356 210.904 122.356C208.649 123.05 204.66 124.785 202.058 125.826C201.885 125.826 201.885 125.826 201.711 125.999C201.538 126.173 201.365 126.173 201.191 126.346C200.844 126.867 201.191 127.734 201.711 127.908C201.885 127.908 201.885 127.908 202.058 127.908C202.405 127.908 202.752 127.908 203.099 127.908C204.313 127.734 205.874 127.387 207.608 127.04C208.302 126.867 208.823 126.867 209.516 126.693C210.557 126.52 211.424 126.346 212.291 126.173C211.945 126.346 211.598 126.52 211.251 126.867C211.077 127.04 210.904 127.04 210.73 127.214C210.904 127.04 211.251 127.04 211.424 126.867C210.904 127.387 210.21 127.908 209.69 128.428C208.996 128.948 208.476 129.295 207.782 129.642C207.088 129.989 206.394 130.51 205.701 130.857C205.007 131.204 204.313 131.551 203.619 131.724C203.619 131.724 203.619 131.724 203.793 131.551C203.099 131.898 202.579 132.418 202.058 132.591C201.018 133.112 201.711 134.673 202.752 134.5C203.099 134.5 203.446 134.326 203.793 134.326C204.313 134.153 204.833 133.979 205.354 133.806C205.874 133.285 206.394 132.938 206.915 132.591C207.608 132.071 208.129 131.724 208.823 131.377C209.516 131.03 210.21 130.51 210.904 130.163C211.598 129.816 212.291 129.469 212.985 129.295C212.465 129.816 211.771 130.336 211.251 130.857C210.557 131.377 210.037 131.724 209.343 132.071C208.649 132.418 207.955 132.938 207.262 133.285C206.568 133.632 206.048 133.806 205.354 134.153C204.313 134.847 203.272 135.541 202.405 136.234C201.538 136.928 202.058 138.316 203.272 138.143C203.619 138.143 203.966 137.969 204.313 137.796C205.007 137.622 205.874 137.275 206.741 136.928C207.262 136.408 207.955 135.888 208.476 135.541C209.169 135.02 209.69 134.673 210.384 134.326C211.077 133.979 211.771 133.459 212.465 133.112C213.159 132.765 213.852 132.418 214.546 132.244C214.026 132.765 213.332 133.285 212.812 133.806C212.118 134.326 211.598 134.673 210.904 135.02C210.21 135.367 209.516 135.888 208.823 136.234C208.129 136.581 207.435 136.928 206.741 137.102C206.741 137.102 206.568 137.102 206.568 137.275C205.701 137.796 206.221 139.184 207.088 139.01C207.435 139.01 207.955 138.837 208.649 138.663C211.598 137.796 216.281 135.541 218.362 135.367C221.137 135.02 224.606 134.326 227.728 133.285C230.156 132.591 232.237 131.724 233.625 130.857C235.359 129.989 246.633 122.356 249.408 120.448C249.408 120.448 249.408 120.448 249.408 120.274C245.245 111.601 238.134 109.345 237.961 109.345Z" fill="#615166"/>
<path d="M239.869 108.304C239.001 107.957 238.481 107.784 238.481 107.784C238.134 107.61 237.614 107.957 237.44 108.304C237.44 108.651 237.44 108.825 237.614 108.998C237.787 109.172 237.787 109.172 237.961 109.172C237.961 109.172 245.245 111.427 249.061 119.58C249.061 119.58 249.061 119.58 249.061 119.754C249.234 119.927 249.408 120.101 249.755 120.101C249.928 120.101 249.928 120.101 250.102 120.101C250.449 119.927 250.622 119.407 250.449 119.06C250.449 118.887 250.275 118.887 250.275 118.713C247.327 112.294 242.297 109.345 239.869 108.304Z" fill="#56475B"/>
<path d="M209.516 127.734C208.996 127.908 208.649 128.255 208.129 128.428C207.955 128.602 207.782 128.602 207.435 128.775C206.741 129.122 206.221 129.642 205.527 129.989C205.007 130.336 204.313 130.857 203.793 131.377C203.793 131.377 203.793 131.377 203.619 131.551C204.313 131.377 205.007 131.03 205.701 130.683C206.394 130.336 207.088 129.989 207.782 129.469C208.476 129.122 208.996 128.602 209.69 128.255C210.384 127.734 210.904 127.387 211.424 126.693C211.251 126.693 210.904 126.867 210.73 127.04C210.557 127.04 210.557 127.214 210.384 127.214C210.21 127.387 209.863 127.561 209.516 127.734Z" fill="#56475B"/>
<path d="M205.354 133.806C206.048 133.632 206.568 133.285 207.262 132.938C207.956 132.591 208.649 132.244 209.343 131.724C210.037 131.377 210.557 130.856 211.251 130.51C211.945 129.989 212.465 129.642 212.986 128.948C212.292 129.122 211.598 129.469 210.904 129.816C210.21 130.163 209.517 130.51 208.823 131.03C208.129 131.377 207.609 131.897 206.915 132.244C206.395 132.938 205.874 133.285 205.354 133.806C205.354 133.806 205.181 133.806 205.181 133.979C205.354 133.979 205.354 133.979 205.354 133.806Z" fill="#56475B"/>
<path d="M206.742 136.581C207.435 136.408 208.129 136.061 208.823 135.714C209.517 135.367 210.21 135.02 210.904 134.5C211.598 134.153 212.118 133.632 212.812 133.285C213.506 132.765 214.026 132.418 214.546 131.724C213.853 131.898 213.159 132.245 212.465 132.592C211.771 132.938 211.078 133.285 210.384 133.806C209.69 134.153 209.17 134.673 208.476 135.02C207.782 135.541 207.262 136.061 206.742 136.581C206.568 136.581 206.742 136.581 206.742 136.581Z" fill="#56475B"/>
</svg>
