<?xml version="1.0" encoding="utf-8"?>
<!-- Generator: Adobe Illustrator 24.3.0, SVG Export Plug-In . SVG Version: 6.00 Build 0)  -->
<svg version="1.1" id="Layer_1" xmlns="http://www.w3.org/2000/svg" xmlns:xlink="http://www.w3.org/1999/xlink" x="0px" y="0px"
	 viewBox="0 0 750 645.7" style="enable-background:new 0 0 750 645.7;" xml:space="preserve">
<style type="text/css">
	.st0{clip-path:url(#SVGID_2_);}
	.st1{fill:url(#SVGID_3_);}
	.st2{fill:#BDD0FB;}
	.st3{fill:#DCE5FE;}
	.st4{fill:url(#SVGID_4_);}
	.st5{fill:#91B3FA;}
	.st6{fill:url(#SVGID_5_);}
	.st7{fill:url(#SVGID_6_);}
	.st8{fill:url(#SVGID_7_);}
	.st9{fill:url(#SVGID_8_);}
	.st10{fill:url(#SVGID_9_);}
	.st11{fill:url(#SVGID_10_);}
	.st12{fill:url(#SVGID_11_);}
	.st13{fill:url(#SVGID_12_);}
	.st14{fill:url(#SVGID_13_);}
	.st15{fill:url(#SVGID_14_);}
	.st16{fill:url(#SVGID_15_);}
	.st17{fill:url(#SVGID_16_);}
	.st18{fill:#7D97F4;}
	.st19{fill:url(#SVGID_17_);}
	.st20{fill:url(#SVGID_18_);}
	.st21{fill:url(#SVGID_19_);}
	.st22{fill:url(#SVGID_20_);}
	.st23{fill:url(#SVGID_21_);}
	.st24{fill:url(#SVGID_22_);}
	.st25{fill:url(#SVGID_23_);}
	.st26{fill:url(#SVGID_24_);}
	.st27{fill:url(#SVGID_25_);}
	.st28{fill:url(#SVGID_26_);}
	.st29{fill:url(#SVGID_27_);}
	.st30{fill:url(#SVGID_28_);}
	.st31{fill:url(#SVGID_29_);}
	.st32{fill:url(#SVGID_30_);}
	.st33{fill:url(#SVGID_31_);}
	.st34{fill:url(#SVGID_32_);}
	.st35{fill:url(#SVGID_33_);}
	.st36{fill:url(#SVGID_34_);}
	.st37{fill:url(#SVGID_35_);}
	.st38{fill:url(#SVGID_36_);}
	.st39{fill:url(#SVGID_37_);}
	.st40{fill:url(#SVGID_38_);}
	.st41{fill:url(#SVGID_39_);}
	.st42{fill:url(#SVGID_40_);}
	.st43{fill:url(#SVGID_41_);}
	.st44{fill:url(#SVGID_42_);}
	.st45{fill:url(#SVGID_43_);}
	.st46{fill:url(#SVGID_44_);}
	.st47{fill:url(#SVGID_45_);}
	.st48{fill:url(#SVGID_46_);}
	.st49{fill:url(#SVGID_47_);}
	.st50{fill:url(#SVGID_48_);}
	.st51{fill:url(#SVGID_49_);}
	.st52{fill:url(#SVGID_50_);}
	.st53{fill:url(#SVGID_51_);}
	.st54{fill:url(#SVGID_52_);}
	.st55{fill:url(#SVGID_53_);}
	.st56{fill:url(#SVGID_54_);}
	.st57{fill:url(#SVGID_55_);}
	.st58{fill:url(#SVGID_56_);}
</style>
<g>
	<defs>
		<rect id="SVGID_1_" width="750" height="645.7"/>
	</defs>
	<clipPath id="SVGID_2_">
		<use xlink:href="#SVGID_1_"  style="overflow:visible;"/>
	</clipPath>
	<g id="Illustration" class="st0">
		<g>
			
				<linearGradient id="SVGID_3_" gradientUnits="userSpaceOnUse" x1="166.4777" y1="-171.8554" x2="1040.7175" y2="463.0093" gradientTransform="matrix(1 0 0 -1 -252.5898 510.04)">
				<stop  offset="0" style="stop-color:#DAE3FE"/>
				<stop  offset="1" style="stop-color:#E9EFFD"/>
			</linearGradient>
			<path class="st1" d="M792.7,272c-22.5-33.6-70.1-51.6-71.3-101.9c-0.8-32.7,13-50.4-9.1-78.3c-53.6-67.4-136.2-75.4-206.8-47.2
				c-70.5,28.2-126.9,84.6-205.3,81.2c-42.7-1.9-82.4-23.6-124.6-27.6c-13-1.2-39-4.7-50.3-1.6c-42.6,11.7-66.5,60.2-80.7,109
				C33,245.2,47.7,284.3,29.7,323C10.5,364.3-27.5,392.9-37,440.6c-11.5,57.2,32.3,106.9,79.3,108.5c29.9,1,88,25.6,113.4,5.9
				c30.9-24.1,91,6.7,127.1,7.7c68.7,1.7,136.6-10.1,204.4,1.6c58.1,10.1,83.9-8.7,142.7-6.8c43.2,1.4,79.9,2,103.3-48.2
				C761.3,449.1,839.8,342.4,792.7,272z"/>
			<g>
				<path class="st2" d="M711.3,138.7c-1.7-11.6-5.1-22.8-8.9-33.8c-1.2-3.4-6-3.5-7.3-0.2c-5.6,14-18.1,25.3-31.5,33.1
					c-17,9.9-36.2,15.8-52.7,26.4c-34,21.9-52.9,61.1-64.1,100c-11.1,38.9-16.2,79.7-31.2,117.3c-7.1,17.9-16.8,35.4-31.2,48.1
					c-14.2,12.6-33.7,20.1-52.3,16.9c-0.5-0.1-1,0.3-1,0.9l0,0c0,0.3,0.2,0.6,0.4,0.8c20.2,12.5,48.3,5,65.3-11.6
					c17.2-16.8,25.3-40.7,30.8-64c5.5-23.4,9.1-47.5,19.4-69.2c10.3-21.7,27.2-40.1,48-52.2c18.8-11,40.3-16.6,60.4-25.1
					c20.1-8.5,40-20.9,49.9-40.3C712.5,171.3,713.7,154.6,711.3,138.7z"/>
				<path class="st2" d="M748,237.1c-18.1,10.4-40.7,13.7-62,14.9c-27.9,1.5-56.9,0.7-82.3,12.4c-26.5,12.2-45.5,36.5-59.7,62
					s-24.4,53.1-39.7,78c-14.5,23.7-34.6,45.5-60.5,54.9c18.6,3.4,38.3-6.7,51-21.1c13.6-15.4,21.3-34.9,30-53.5
					c8.7-18.6,19.1-37.4,36.2-48.9c33.4-22.5,79.4-9.4,117.5-22.5c19.7-6.8,36.5-20.4,50.1-36.2c9.2-10.8,17.1-22.6,24.6-34.7
					C755.1,239,751.4,235.1,748,237.1z"/>
				<path class="st3" d="M690.8,136.3c-1.9,4.1-4.3,7.7-6.9,11.3c-2.6,3.5-5.5,6.9-8.6,10c-1.5,1.6-3.1,3.1-4.8,4.6
					c-1.6,1.5-3.3,2.9-5,4.3c-1.7,1.4-3.5,2.7-5.2,4l-5.5,3.8c-1.9,1.2-3.8,2.3-5.6,3.4c-1.9,1.1-3.9,2.1-5.8,3.2
					c-3.9,2.1-7.8,3.9-11.6,5.9c-7.7,3.9-15.4,8-22.6,12.6c-7.2,4.7-13.9,10.1-19.9,16.1c-3.1,2.9-5.8,6.3-8.7,9.5
					c-2.6,3.4-5.3,6.8-7.6,10.4c-4.9,7.1-8.9,14.8-12.8,22.4c-1.9,3.9-3.6,7.9-5.5,11.8l-5,12l0,0c-0.2,0.4-0.6,0.5-1,0.4
					c-0.3-0.2-0.5-0.5-0.4-0.9c5.7-16.4,12.6-32.6,22.2-47.3c9.2-14.9,21.9-27.8,36.6-37.4c7.4-4.8,15.1-9,22.8-13
					c3.9-2,7.8-3.9,11.6-5.9c1.9-1,3.8-2,5.6-3.1c1.8-1.1,3.7-2.2,5.5-3.3l5.4-3.6c1.7-1.3,3.5-2.5,5.2-3.8c1.7-1.4,3.4-2.6,5-4.1
					c1.6-1.4,3.2-2.8,4.8-4.3c3.2-2.9,6-6.1,8.9-9.3c2.7-3.3,5.3-6.8,7.5-10.4l0,0c0.2-0.3,0.7-0.5,1-0.3
					C690.8,135.5,690.9,136,690.8,136.3z"/>
			</g>
			
				<linearGradient id="SVGID_4_" gradientUnits="userSpaceOnUse" x1="11149.2842" y1="-438.7529" x2="11147.4463" y2="-443.5393" gradientTransform="matrix(-0.9942 -0.1073 0.1073 -0.9942 11413.9668 1221.1537)">
				<stop  offset="0" style="stop-color:#A737D5"/>
				<stop  offset="1" style="stop-color:#EF497A"/>
			</linearGradient>
			<path class="st4" d="M284.5,465.7l-0.5-0.4c-0.9-0.8-1.9-1.6-3-2.6l-1.1-1l1.5,0.3c1.2,0.2,2.3,0.4,3.5,0.6l0.5,0L284.5,465.7z
				 M282.6,463.1c0.5,0.4,0.9,0.9,1.4,1.2l0.2-1C283.7,463.3,283.2,463.2,282.6,463.1z"/>
			<path class="st2" d="M100.7,179.5c13.1,14.5,32.1,24,50.7,31.2c24.3,9.4,50.3,17.2,69.5,34.9c20,18.5,29.8,45.6,35,72.4
				c5.1,26.8,6.3,54.2,12.6,80.7c6,25.2,17.5,50.4,37.8,66.2c-17.6-2.4-32-17.1-39.2-33.5c-7.6-17.6-8.8-37.2-11.1-56.2
				c-2.3-19-6.2-38.8-17.9-53.8c-23.2-29.6-67.7-31.4-97.8-54c-15.5-11.7-26.5-28.7-34-46.6c-5.1-12.3-8.7-25-11.8-37.9
				C93.7,179.1,98.2,176.8,100.7,179.5z"/>
			<g>
				<path class="st5" d="M161.7,102.8c4.8-9.8,11.1-18.7,17.8-27.4c2.1-2.7,6.3-1.4,6.5,2c0.9,14,8.7,27.7,18.4,38.5
					c12.3,13.7,27.5,24.5,39.1,38.7c23.9,29.3,29.3,69.6,27.9,107.3c-1.4,37.8-8.7,75.4-6.3,113.1c1.1,18,4.6,36.2,13.7,51.8
					c9,15.2,24.1,27.6,41.5,30.1c0.5,0.1,0.9,0.6,0.7,1l0,0c-0.1,0.3-0.3,0.5-0.6,0.6c-21.6,5.2-44.3-9.5-54.6-29.2
					c-10.4-19.9-10.7-43.4-8.8-65.8c1.9-22.4,5.7-44.8,2.9-67.1c-2.9-22.2-12.5-43.5-27.4-60.2c-13.5-15.2-30.9-26.5-46.3-39.8
					s-29.4-30.1-32.6-50.3C151.2,131.4,155.1,116.2,161.7,102.8z"/>
				<path class="st3" d="M181.9,106.4c0.8,3.9,2.1,7.7,3.6,11.5c1.5,3.7,3.2,7.4,5.1,10.9c0.9,1.8,2,3.5,3,5.2
					c1,1.7,2.2,3.4,3.2,5.1c1.1,1.7,2.3,3.2,3.5,4.9l3.8,4.7c1.3,1.5,2.6,3,3.9,4.5c1.3,1.5,2.7,2.9,4.1,4.4
					c2.8,2.9,5.7,5.7,8.6,8.6c5.7,5.8,11.4,11.7,16.5,18.1c10.3,12.8,17.8,27.9,21.7,43.8c4.1,15.9,5.6,32.2,6,48.4
					c0,0.3-0.3,0.6-0.6,0.6c-0.3,0-0.6-0.2-0.6-0.6l0,0l-0.9-12.1c-0.5-4-0.9-8-1.4-12c-1.3-8-2.6-15.9-4.9-23.7
					c-1-3.9-2.4-7.7-3.7-11.5c-1.5-3.7-3-7.4-4.9-10.9c-3.6-7.2-8-13.9-13-20.1c-5-6.3-10.6-12-16.4-17.8l-4.3-4.3
					c-1.4-1.4-2.9-2.8-4.3-4.3c-1.4-1.5-2.9-2.9-4.2-4.5c-1.3-1.5-2.7-3.1-4-4.7l-3.8-4.9c-1.2-1.7-2.4-3.4-3.5-5.1
					c-1.1-1.7-2.2-3.5-3.2-5.3c-1-1.8-2-3.6-2.9-5.5c-1.9-3.7-3.4-7.5-4.7-11.4c-1.3-3.9-2.4-7.9-2.9-12c0-0.3,0.2-0.7,0.5-0.7
					C181.6,105.9,181.9,106.1,181.9,106.4L181.9,106.4z"/>
			</g>
			<g>
				<path class="st2" d="M324.6,541.8c0.9-1.3,0.1-3.1-1.5-3.1c-17.5-0.7-90.8-7.4-87.6-71.6c3.5-72.9,9-93.7-25.1-118.6
					c-31.1-22.8-58.4-19.8-79.8-9.4c-1.5,0.7-1,3,0.7,3c14.2,0,46.9,2.5,58.8,25.6c15.5,29.9,13.9,104.1,45.6,139.2
					c31.4,34.6,58.3,33.7,87.2,35.9C323.6,542.6,324.2,542.3,324.6,541.8L324.6,541.8z"/>
				<path class="st2" d="M59.1,420.1c-1.9-0.6-2.4-3-1.1-4.4c3.7-3.9,9.9-12,14-25.3c4.1-13.2,16.2-42.6,53.4-42.8
					c37.2-0.2,61.4,60.6,80.7,121.4s93.8,69.7,93.8,69.7l20.2,3.6c0,0-69,2.1-103.6-39.5s-44.8-114.4-85.6-105.3
					C92,406.4,91.2,431,59.1,420.1z"/>
				<g>
					<path class="st5" d="M66,492.2c-1.9,1.2-4.2-0.7-3.4-2.8c4.3-12.2,15.4-35.2,37.8-38.9c30.7-5.1,55.9,4.4,94.7,48.3
						c37.8,42.7,106.1,46.8,123.8,43.8c0.8-0.2,1.6,0.3,1.9,1.1l0,0c0.4,1-0.3,2.2-1.4,2.3c-12.5,1.8-78.1,10.4-114.3-0.7
						C167.1,533.8,102.1,468.8,66,492.2z"/>
					<path class="st3" d="M80.9,473.4c4.5-3.2,9.5-5.5,14.8-7.1c5.2-1.6,10.7-2.5,16.2-2.6c11-0.2,22,2.6,31.9,7.4
						c5,2.4,9.6,5.3,14.1,8.4l3.3,2.4l3.2,2.6l1.6,1.3l1.5,1.4l3.1,2.7c2,1.9,3.9,3.8,5.8,5.7l5.7,5.6l2.8,2.8c1,0.9,2,1.8,3,2.7
						l6,5.4c8.2,6.8,16.8,13.2,26,18.5c9.3,5.1,19.2,9.1,29.6,11.4c10.4,2.4,21.1,3.2,31.8,3.5c10.7,0.3,21.5,0,32.2-0.2
						c0.2,0,0.4,0.2,0.4,0.4s-0.2,0.4-0.4,0.4c-10.8,0.7-21.5,1.3-32.3,1.4c-10.8,0.1-21.7-0.7-32.3-2.8
						c-10.6-2.2-21.1-5.9-30.6-11.2s-18.4-11.7-26.7-18.6l-6.1-5.4c-1-0.9-2.1-1.8-3-2.7l-2.9-2.8l-11.5-11.3
						c-7.8-7.2-16.3-13.7-25.7-18.4c-4.7-2.3-9.6-4.3-14.7-5.6c-5.1-1.4-10.3-2.1-15.6-2.1c-2.6,0-5.3,0.1-7.9,0.5
						c-2.6,0.3-5.2,0.8-7.8,1.5c-2.6,0.7-5.1,1.5-7.5,2.5c-2.4,1-4.9,2.2-7,3.6l0,0c-0.3,0.2-0.8,0.1-1-0.2
						C80.5,474.1,80.6,473.7,80.9,473.4z"/>
				</g>
				<path class="st3" d="M61.1,415.7c1.7-0.4,3.4-1.1,5.1-1.9c0.8-0.4,1.6-0.9,2.4-1.3c0.8-0.5,1.5-1,2.2-1.5
					c2.9-2.2,5.3-4.8,7.3-7.8c1.9-3,3.4-6.3,4.5-9.7c0.3-0.9,0.5-1.7,0.7-2.6l0.7-2.7l0.3-1.4l0.5-1.4c0.3-0.9,0.6-1.8,1-2.7
					c1.4-3.6,3.3-7,5.4-10.1c2.2-3.2,4.6-6.2,7.4-8.9c2.8-2.7,5.9-5.1,9.4-6.9c0.9-0.4,1.7-0.9,2.6-1.3l2.7-1.1l2.9-0.8
					c0.5-0.2,1-0.2,1.5-0.3l1.5-0.2c1-0.2,2-0.2,3-0.2c1,0,2-0.1,3,0c1,0.1,2,0.1,3,0.3l2.9,0.6c3.8,1,7.5,2.5,10.8,4.6
					c6.7,4,12.2,9.4,17,15.2c0.6,0.7,1.2,1.4,1.8,2.2l1.7,2.3c1.1,1.5,2.3,3,3.3,4.6l3.1,4.7c1,1.6,1.9,3.2,2.9,4.8
					c1.9,3.2,3.5,6.6,5.3,9.9c1.7,3.3,3.2,6.7,4.7,10.1c0.1,0.3,0,0.7-0.3,0.8c-0.3,0.1-0.6,0-0.7-0.2v0l-2.7-4.8
					c-0.9-1.6-1.7-3.2-2.7-4.8c-1.9-3.1-3.7-6.4-5.8-9.4c-3.9-6.2-8.4-12.1-13.2-17.6c-4.8-5.4-10.2-10.4-16.3-14
					c-0.8-0.4-1.5-0.9-2.3-1.3l-2.4-1.1c-0.8-0.4-1.6-0.7-2.4-0.9l-1.2-0.4c-0.4-0.2-0.8-0.3-1.2-0.3l-2.6-0.5
					c-0.9-0.2-1.7-0.2-2.6-0.2c-0.9-0.1-1.7,0-2.6,0c-0.9,0-1.7,0-2.6,0.2l-1.3,0.2c-0.4,0.1-0.9,0.1-1.3,0.3l-2.5,0.7l-2.4,0.9
					c-0.8,0.3-1.5,0.8-2.4,1.1c-3.1,1.7-5.9,3.8-8.5,6.2c-5.2,4.9-9.4,10.9-12.3,17.4c-0.3,0.8-0.7,1.6-1,2.5l-0.5,1.2l-0.4,1.3
					l-0.8,2.7c-0.3,0.9-0.5,1.9-0.9,2.7c-1.4,3.6-3.1,7-5.4,10.2c-4.6,6.2-11.4,10.8-19,12c-0.3,0-0.5-0.2-0.5-0.4
					c0-0.2,0.1-0.5,0.3-0.5L61.1,415.7z"/>
			</g>
			<g>
				<path class="st2" d="M457.8,541.8c-0.9-1.3-0.1-3.1,1.5-3.1c17.5-0.7,90.8-7.4,87.6-71.6c-3.5-72.9-9-93.7,25.1-118.6
					c31.1-22.8,58.4-19.8,79.8-9.4c1.5,0.7,1,3-0.7,3c-14.2,0-46.9,2.5-58.8,25.6c-15.5,29.9-13.9,104.1-45.6,139.2
					c-31.4,34.6-58.3,33.7-87.2,35.9C458.8,542.6,458.2,542.3,457.8,541.8L457.8,541.8z"/>
				<path class="st2" d="M723.3,420.1c1.9-0.6,2.4-3,1.1-4.4c-3.7-3.9-9.9-12-14-25.3c-4.1-13.2-16.2-42.6-53.4-42.8
					c-37.2-0.2-61.4,60.6-80.7,121.4s-93.8,69.7-93.8,69.7l-20.2,3.6c0,0,69,2.1,103.6-39.5c34.6-41.6,44.8-114.4,85.6-105.3
					C690.4,406.4,691.2,431,723.3,420.1z"/>
				<g>
					<path class="st2" d="M716.4,492.2c1.9,1.2,4.2-0.7,3.4-2.8c-4.3-12.2-15.4-35.2-37.8-38.9c-30.7-5.1-55.9,4.4-94.7,48.3
						c-37.8,42.7-106.1,46.8-123.8,43.8c-0.8-0.2-1.6,0.3-1.9,1.1l0,0c-0.4,1,0.3,2.2,1.4,2.3c12.5,1.8,78.1,10.4,114.3-0.7
						C615.2,533.8,680.3,468.8,716.4,492.2z"/>
					<path class="st3" d="M701.6,473.4c-4.5-3.2-9.5-5.5-14.8-7.1c-5.2-1.6-10.7-2.5-16.2-2.6c-11-0.2-22,2.6-31.9,7.4
						c-5,2.4-9.6,5.3-14.1,8.4l-3.3,2.4l-3.2,2.6l-1.6,1.3l-1.5,1.4L612,490c-2,1.9-3.9,3.8-5.8,5.7l-5.7,5.6l-2.8,2.8
						c-1,0.9-2,1.8-3,2.7l-6,5.4c-8.2,6.8-16.8,13.2-26,18.5c-9.3,5.1-19.2,9.1-29.6,11.4c-10.4,2.4-21.1,3.2-31.8,3.5
						c-10.7,0.3-21.5,0-32.2-0.2c-0.2,0-0.4,0.2-0.4,0.4s0.2,0.4,0.4,0.4c10.8,0.7,21.5,1.3,32.3,1.4c10.8,0.1,21.7-0.7,32.3-2.8
						c10.6-2.2,21.1-5.9,30.6-11.2s18.4-11.7,26.7-18.6l6.1-5.4c1-0.9,2.1-1.8,3-2.7l2.9-2.8l11.5-11.3c7.8-7.2,16.3-13.7,25.7-18.4
						c4.7-2.3,9.6-4.3,14.7-5.6c5.1-1.4,10.3-2.1,15.6-2.1c2.6,0,5.3,0.1,7.9,0.5c2.6,0.3,5.2,0.8,7.8,1.5c2.6,0.7,5.1,1.5,7.5,2.5
						c2.4,1,4.9,2.2,7,3.6l0,0c0.3,0.2,0.8,0.1,1-0.2C701.9,474.1,701.9,473.7,701.6,473.4z"/>
				</g>
				<path class="st3" d="M721.3,415.7c-1.7-0.4-3.4-1.1-5.1-1.9c-0.8-0.4-1.6-0.9-2.4-1.3c-0.8-0.5-1.5-1-2.2-1.5
					c-2.9-2.2-5.3-4.8-7.3-7.8c-1.9-3-3.4-6.3-4.5-9.7c-0.3-0.9-0.5-1.7-0.7-2.6l-0.7-2.7l-0.3-1.4l-0.5-1.4c-0.3-0.9-0.6-1.8-1-2.7
					c-1.4-3.6-3.3-7-5.4-10.1c-2.2-3.2-4.6-6.2-7.4-8.9c-2.8-2.7-5.9-5.1-9.4-6.9c-0.9-0.4-1.7-0.9-2.6-1.3l-2.7-1.1l-2.9-0.8
					c-0.5-0.2-1-0.2-1.5-0.3l-1.5-0.2c-1-0.2-2-0.2-3-0.2c-1,0-2-0.1-3,0c-1,0.1-2,0.1-3,0.3l-2.9,0.6c-3.8,1-7.5,2.5-10.8,4.6
					c-6.7,4-12.2,9.4-17,15.2c-0.6,0.7-1.2,1.4-1.8,2.2l-1.7,2.3c-1.1,1.5-2.3,3-3.3,4.6l-3.1,4.7c-1,1.6-1.9,3.2-2.9,4.8
					c-1.9,3.2-3.5,6.6-5.3,9.9c-1.7,3.3-3.2,6.7-4.7,10.1c-0.1,0.3,0,0.7,0.3,0.8c0.3,0.1,0.6,0,0.7-0.2v0l2.7-4.8
					c0.9-1.6,1.7-3.2,2.7-4.8c1.9-3.1,3.7-6.4,5.8-9.4c3.9-6.2,8.4-12.1,13.2-17.6c4.8-5.4,10.2-10.4,16.3-14
					c0.8-0.4,1.5-0.9,2.3-1.3l2.4-1.1c0.8-0.4,1.6-0.7,2.4-0.9l1.2-0.4c0.4-0.2,0.8-0.3,1.2-0.3l2.6-0.5c0.9-0.2,1.7-0.2,2.6-0.2
					c0.9-0.1,1.7,0,2.6,0c0.9,0,1.7,0,2.6,0.2l1.3,0.2c0.4,0.1,0.9,0.1,1.3,0.3l2.5,0.7l2.4,0.9c0.8,0.3,1.5,0.8,2.4,1.1
					c3.1,1.7,5.9,3.8,8.5,6.2c5.2,4.9,9.4,10.9,12.3,17.4c0.3,0.8,0.7,1.6,1,2.5l0.5,1.2l0.4,1.3l0.8,2.7c0.3,0.9,0.5,1.9,0.9,2.7
					c1.4,3.6,3.1,7,5.4,10.2c4.6,6.2,11.4,10.8,19,12c0.3,0,0.5-0.2,0.5-0.4c0-0.2-0.1-0.5-0.3-0.5L721.3,415.7z"/>
			</g>
			
				<linearGradient id="SVGID_5_" gradientUnits="userSpaceOnUse" x1="539.2996" y1="320.9847" x2="-18.8717" y2="-315.2413" gradientTransform="matrix(1 0 0 -1 0 510.04)">
				<stop  offset="0" style="stop-color:#09005D"/>
				<stop  offset="1" style="stop-color:#1A0F91"/>
			</linearGradient>
			<path class="st6" d="M605,359.5c0,117.4-95.2,212.7-212.7,212.7c-117.4,0-217.9-99.4-217.9-216.8s100.5-208.5,217.9-208.5
				C509.8,146.8,605,242,605,359.5z"/>
			<g>
				
					<linearGradient id="SVGID_6_" gradientUnits="userSpaceOnUse" x1="190.6947" y1="216.327" x2="200.1993" y2="216.327" gradientTransform="matrix(1 0 0 -1 0 510.04)">
					<stop  offset="0" style="stop-color:#DAE3FE"/>
					<stop  offset="1" style="stop-color:#E9EFFD"/>
				</linearGradient>
				<path class="st7" d="M191.2,306.7c0,0-0.1,0-0.1,0c-0.2-0.1-0.4-0.3-0.3-0.5c2.3-8.5,5.2-17,8.6-25.2c0.1-0.2,0.3-0.3,0.6-0.2
					c0.2,0.1,0.3,0.3,0.2,0.6c-3.4,8.1-6.3,16.6-8.6,25.1C191.5,306.6,191.3,306.7,191.2,306.7z"/>
				
					<linearGradient id="SVGID_7_" gradientUnits="userSpaceOnUse" x1="223.2036" y1="311.6609" x2="474.273" y2="311.6609" gradientTransform="matrix(1 0 0 -1 0 510.04)">
					<stop  offset="0" style="stop-color:#DAE3FE"/>
					<stop  offset="1" style="stop-color:#E9EFFD"/>
				</linearGradient>
				<path class="st8" d="M223.6,240.3c-0.1,0-0.2,0-0.3-0.1c-0.2-0.2-0.2-0.4-0.1-0.6c39.2-52,102.4-83.1,169-83.1
					c28.4,0,55.9,5.8,81.7,17.1c0.2,0.1,0.3,0.3,0.2,0.6c-0.1,0.2-0.3,0.3-0.6,0.2c-25.7-11.3-53.1-17.1-81.4-17.1
					c-66.3,0-129.2,30.9-168.2,82.7C223.9,240.2,223.8,240.3,223.6,240.3z"/>
			</g>
			
				<linearGradient id="SVGID_8_" gradientUnits="userSpaceOnUse" x1="399.0641" y1="161.857" x2="164.9087" y2="-120.8967" gradientTransform="matrix(1 0 0 -1 0 510.04)">
				<stop  offset="0" style="stop-color:#4042E2"/>
				<stop  offset="1" style="stop-color:#4F52FF"/>
			</linearGradient>
			<path class="st9" d="M576.1,359.5c0,101.7-82.4,184.1-184.1,184.1s-188.7-86-188.7-187.7s87-180.5,188.7-180.5
				S576.1,257.8,576.1,359.5z"/>
			
				<linearGradient id="SVGID_9_" gradientUnits="userSpaceOnUse" x1="434.7517" y1="-276.9532" x2="450.2252" y2="-637.4907" gradientTransform="matrix(1 0 0 -1 0 510.04)">
				<stop  offset="0" style="stop-color:#4042E2"/>
				<stop  offset="1" style="stop-color:#4F52FF"/>
			</linearGradient>
			<path class="st10" d="M576.1,359.5c0-101.7-82.4-184.1-184.1-184.1c-55,0-105.8,23.1-140.8,60.5l141.8,118l29.2,187.3
				C509.5,526.7,576.1,450.9,576.1,359.5z"/>
			
				<linearGradient id="SVGID_10_" gradientUnits="userSpaceOnUse" x1="290.4287" y1="1052.3873" x2="347.6819" y2="481.4059" gradientTransform="matrix(1 0 0 -1 0 510.04)">
				<stop  offset="0" style="stop-color:#4042E2"/>
				<stop  offset="1" style="stop-color:#4F52FF"/>
			</linearGradient>
			<path class="st11" d="M551.1,346.7c0,91.8-75.9,166.1-169.6,166.1s-173.8-77.6-173.8-169.4s80.1-162.9,173.8-162.9
				C475.1,180.5,551.1,254.9,551.1,346.7z"/>
			<path class="st2" d="M250.4,349.9c-0.5,7.8-7.2,13.8-15,13.3c-7.8-0.5-13.8-7.2-13.3-15c0.5-7.8,7.2-13.8,15-13.3
				C244.9,335.4,250.9,342.1,250.4,349.9z"/>
			<path class="st2" d="M556.6,367.8c-0.5,7.8-7.2,13.8-15,13.3c-7.8-0.5-13.8-7.2-13.3-15c0.5-7.8,7.2-13.8,15-13.3
				C551.1,353.2,557.1,359.9,556.6,367.8z"/>
			<path class="st2" d="M364.4,494.9c7.7,1.4,12.8,8.8,11.4,16.5c-1.4,7.7-8.8,12.8-16.5,11.4s-12.8-8.8-11.4-16.5
				C349.3,498.6,356.7,493.5,364.4,494.9z"/>
			<path class="st2" d="M419.5,193.2c7.7,1.4,12.8,8.8,11.4,16.5c-1.4,7.7-8.8,12.8-16.5,11.4s-12.8-8.8-11.4-16.5
				C404.4,196.9,411.8,191.8,419.5,193.2z"/>
			<path class="st2" d="M465.1,503c1.4,3.6,1.1,7-0.8,7.6c-1.9,0.6-4.6-1.9-6-5.6c-1.4-3.6-1.1-7,0.8-7.6
				C461,496.9,463.7,499.4,465.1,503z"/>
			<path class="st2" d="M341.9,216.9c1.4,3.6,1.1,7-0.8,7.6c-1.9,0.6-4.6-1.9-6-5.6c-1.4-3.6-1.1-7,0.8-7.6
				C337.8,210.7,340.5,213.2,341.9,216.9z"/>
			<path class="st2" d="M529.4,448.6c3.1,2.4,4.6,5.5,3.2,6.9c-1.3,1.5-4.9,0.7-8-1.6c-3.1-2.4-4.6-5.5-3.2-6.9
				C522.8,445.6,526.4,446.2,529.4,448.6z"/>
			<path class="st2" d="M275.6,268c3.1,2.4,4.6,5.5,3.2,6.9c-1.3,1.5-4.9,0.7-8-1.6c-3.1-2.4-4.6-5.5-3.2-6.9
				C268.9,264.9,272.5,265.6,275.6,268z"/>
			<path class="st2" d="M537.5,286.6c3.5-1.7,7-1.5,7.6,0.3c0.7,1.9-1.6,4.7-5.1,6.4c-3.5,1.7-7,1.5-7.6-0.3
				C531.7,291.1,534,288.3,537.5,286.6z"/>
			<path class="st2" d="M260.2,428.6c3.5-1.7,7-1.5,7.6,0.3c0.7,1.9-1.6,4.7-5.1,6.4c-3.5,1.7-7,1.5-7.6-0.3
				C254.4,433.2,256.7,430.3,260.2,428.6z"/>
			<path class="st2" d="M478.9,226.1c2.1-3.3,5.1-4.9,6.7-3.7c1.5,1.2,1,4.8-1.1,8.1c-2.1,3.2-5.1,4.9-6.7,3.7
				C476.3,232.9,476.8,229.3,478.9,226.1z"/>
			<path class="st2" d="M315.7,491.4c2.1-3.2,5.1-4.9,6.7-3.7c1.5,1.2,1,4.8-1.1,8.1c-2.1,3.2-5.1,4.9-6.7,3.7
				C313.1,498.4,313.6,494.7,315.7,491.4z"/>
			<g>
				
					<linearGradient id="SVGID_11_" gradientUnits="userSpaceOnUse" x1="550.6415" y1="461.0198" x2="796.6979" y2="618.8676" gradientTransform="matrix(1 0 0 -1 0 510.04)">
					<stop  offset="0" style="stop-color:#FE7062"/>
					<stop  offset="1" style="stop-color:#FF928E"/>
				</linearGradient>
				<path class="st12" d="M457,129.8v-10.2l10.4-9.6c20.7-19.2,30.5-29.8,30.6-41.4c0-7.9-4.2-14.8-15.7-14.8
					c-7.7,0-14.4,3.9-18.8,7.3l-4.9-11.8c6.4-5.1,16-9.1,27.1-9.1c19.5,0,29,12.3,29,26.7c0,15.4-11.1,27.9-26.4,42.1l-7.7,6.7v0.3
					h36.2v13.8L457,129.8L457,129.8z"/>
				
					<linearGradient id="SVGID_12_" gradientUnits="userSpaceOnUse" x1="573.6305" y1="425.1849" x2="819.6866" y2="583.0325" gradientTransform="matrix(1 0 0 -1 0 510.04)">
					<stop  offset="0" style="stop-color:#FE7062"/>
					<stop  offset="1" style="stop-color:#FF928E"/>
				</linearGradient>
				<path class="st13" d="M566.2,129.8v-22.4h-39.8V96.7l35.9-54.9h19.7v53.1h11.4v12.6h-11.4v22.4H566.2z M566.2,94.9v-24
					c0-5,0.1-10.2,0.5-15.3h-0.5c-2.7,5.6-5,10-7.7,14.9l-16.1,24.1l-0.1,0.3L566.2,94.9L566.2,94.9z"/>
				
					<linearGradient id="SVGID_13_" gradientUnits="userSpaceOnUse" x1="587.6668" y1="403.3047" x2="833.7231" y2="561.1523" gradientTransform="matrix(1 0 0 -1 0 510.04)">
					<stop  offset="0" style="stop-color:#FE7062"/>
					<stop  offset="1" style="stop-color:#FF928E"/>
				</linearGradient>
				<path class="st14" d="M597.4,135.3l33-98.2h11.6l-33,98.2H597.4z"/>
				
					<linearGradient id="SVGID_14_" gradientUnits="userSpaceOnUse" x1="599.2751" y1="385.2093" x2="845.3318" y2="543.0573" gradientTransform="matrix(1 0 0 -1 0 510.04)">
					<stop  offset="0" style="stop-color:#FE7062"/>
					<stop  offset="1" style="stop-color:#FF928E"/>
				</linearGradient>
				<path class="st15" d="M708.2,41.8v10.7L671,129.8h-17.6l37.1-73.9v-0.3h-41.4V41.8L708.2,41.8L708.2,41.8z"/>
			</g>
			
				<linearGradient id="SVGID_15_" gradientUnits="userSpaceOnUse" x1="54.0941" y1="381.4988" x2="106.0471" y2="381.4988" gradientTransform="matrix(1 0 0 -1 0 510.04)">
				<stop  offset="0" style="stop-color:#FE7062"/>
				<stop  offset="1" style="stop-color:#FF928E"/>
			</linearGradient>
			<path class="st16" d="M106,92.1c0,0-46.9-12.7-52,40.1c0,0,1.7,40.1,52,33.3c0,0-24.5-9.7-24.1-38.8C82.4,97.6,106,92.1,106,92.1
				z"/>
			
				<linearGradient id="SVGID_16_" gradientUnits="userSpaceOnUse" x1="848.056" y1="455.5363" x2="480.8385" y2="267.3086" gradientTransform="matrix(1 0 0 -1 0 510.04)">
				<stop  offset="0" style="stop-color:#FE7062"/>
				<stop  offset="1" style="stop-color:#FF928E"/>
			</linearGradient>
			<circle class="st17" cx="758.4" cy="100.4" r="33.7"/>
			<g>
				<g>
					<path class="st18" d="M403.1,104c-0.7,0.4-1.3,0.7-2,1.1c-0.7,0.3-1.3,0.7-2,1c-0.3,0.2-0.7,0-0.9-0.3c-0.2-0.3,0-0.7,0.3-0.9
						c0.7-0.3,1.3-0.7,2-1c0.7-0.3,1.3-0.7,1.9-1.1l0,0c0.3-0.2,0.7-0.1,0.9,0.2C403.6,103.4,403.5,103.9,403.1,104L403.1,104z"/>
					<path class="st18" d="M395.1,108c-1.4,0.6-2.8,1.1-4.2,1.6c-0.3,0.1-0.7,0-0.9-0.4c-0.1-0.3,0-0.7,0.4-0.9
						c1.4-0.5,2.7-1,4.1-1.6c0.3-0.2,0.7,0,0.9,0.3C395.6,107.5,395.4,107.9,395.1,108L395.1,108z"/>
					<path class="st18" d="M386.7,111c-1.4,0.4-2.9,0.8-4.3,1.2c-0.3,0.1-0.7-0.2-0.8-0.5c-0.1-0.3,0.2-0.7,0.5-0.8
						c1.4-0.3,2.9-0.7,4.3-1.2c0.3-0.1,0.7,0.1,0.9,0.5C387.2,110.5,387,110.9,386.7,111L386.7,111z"/>
					<path class="st18" d="M377.9,113.1c-1.5,0.3-3,0.5-4.4,0.6c-0.3,0-0.7-0.2-0.7-0.6c0-0.3,0.2-0.7,0.6-0.7
						c1.5-0.2,2.9-0.3,4.4-0.6c0.3-0.1,0.7,0.2,0.8,0.5C378.5,112.7,378.3,113,377.9,113.1L377.9,113.1z"/>
					<path class="st18" d="M369,114c-1.5,0-3,0-4.5,0c-0.3,0-0.7-0.3-0.6-0.7c0-0.3,0.3-0.7,0.7-0.6c1.5,0.1,2.9,0.1,4.4,0
						c0.3,0,0.7,0.3,0.7,0.6C369.6,113.7,369.3,114,369,114L369,114z"/>
					<path class="st18" d="M360,113.6c-1.5-0.2-3-0.5-4.4-0.8c-0.3-0.1-0.6-0.4-0.5-0.8c0.1-0.3,0.4-0.6,0.8-0.5
						c1.4,0.3,2.9,0.6,4.3,0.7c0.3,0,0.6,0.4,0.6,0.7C360.7,113.4,360.4,113.6,360,113.6L360,113.6z"/>
					<path class="st18" d="M351.2,111.6c-1.4-0.5-2.8-1-4.2-1.5c-0.3-0.1-0.5-0.5-0.4-0.9c0.1-0.3,0.5-0.5,0.9-0.4
						c1.4,0.5,2.7,1,4.1,1.5c0.3,0.1,0.5,0.5,0.4,0.8C351.9,111.6,351.5,111.7,351.2,111.6L351.2,111.6z"/>
					<path class="st18" d="M342.8,108.4l-4.1-1.9c-0.3-0.2-0.5-0.5-0.3-0.9c0.2-0.3,0.5-0.5,0.9-0.3h0l4,1.9h0
						c0.3,0.2,0.5,0.5,0.3,0.9C343.5,108.4,343.2,108.6,342.8,108.4L342.8,108.4z"/>
					<path class="st18" d="M334.8,104.5c-1.3-0.7-2.6-1.5-3.9-2.2c-0.3-0.2-0.4-0.6-0.2-0.9s0.6-0.4,0.9-0.2
						c1.2,0.8,2.5,1.5,3.8,2.2c0.3,0.2,0.4,0.5,0.3,0.9C335.5,104.6,335.1,104.7,334.8,104.5L334.8,104.5z"/>
					<path class="st18" d="M327.2,99.8c-1.2-0.9-2.4-1.8-3.5-2.8c-0.3-0.2-0.3-0.6,0-0.9c0.2-0.3,0.6-0.3,0.9,0
						c1.1,1,2.2,1.9,3.4,2.7c0.3,0.2,0.3,0.6,0.2,0.9C327.9,99.9,327.5,99.9,327.2,99.8L327.2,99.8z"/>
					<path class="st18" d="M320.5,93.7c-1-1.2-1.9-2.4-2.6-3.8c-0.2-0.3,0-0.7,0.3-0.9s0.7,0,0.9,0.3c0.7,1.3,1.5,2.4,2.4,3.6
						c0.2,0.3,0.2,0.7-0.1,0.9C321.1,94,320.7,94,320.5,93.7L320.5,93.7z"/>
					<path class="st18" d="M316.5,85.5c-0.1-0.8-0.1-1.6,0-2.4c0-0.4,0.1-0.8,0.2-1.2c0.1-0.4,0.2-0.7,0.3-1.1
						c0.1-0.3,0.5-0.5,0.8-0.4c0.3,0.1,0.5,0.5,0.4,0.8v0c-0.1,0.3-0.2,0.7-0.3,1c-0.1,0.3-0.2,0.7-0.2,1c-0.1,0.7-0.1,1.4,0,2.1
						c0,0.3-0.2,0.7-0.5,0.7C316.9,86.1,316.6,85.8,316.5,85.5L316.5,85.5z"/>
					<path class="st18" d="M320.4,77.4c1.4-0.8,2.9-1.2,4.4-1.5c0.3-0.1,0.7,0.2,0.7,0.5c0.1,0.3-0.2,0.7-0.5,0.7
						c-1.4,0.2-2.8,0.7-4,1.4c-0.3,0.2-0.7,0.1-0.9-0.2C320,77.9,320.1,77.5,320.4,77.4L320.4,77.4z"/>
					<path class="st18" d="M329.4,75.8c0.8,0.2,1.5,0.4,2.3,0.8c0.3,0.2,0.7,0.4,1,0.7c0.3,0.3,0.6,0.6,0.8,0.9
						c0.2,0.3,0.2,0.7-0.1,0.9c-0.3,0.2-0.7,0.2-0.9-0.1s-0.4-0.5-0.7-0.7c-0.2-0.2-0.5-0.4-0.8-0.5c-0.6-0.3-1.2-0.5-1.9-0.6
						c-0.3-0.1-0.5-0.4-0.5-0.7C328.8,76,329.1,75.8,329.4,75.8L329.4,75.8z"/>
					<path class="st18" d="M335.1,82.7c0,1.6-0.3,3.1-0.9,4.6c-0.1,0.3-0.5,0.5-0.8,0.4c-0.3-0.1-0.5-0.5-0.4-0.8
						c0.5-1.4,0.8-2.7,0.8-4.1c0-0.3,0.3-0.6,0.6-0.6C334.8,82.1,335.1,82.3,335.1,82.7L335.1,82.7z"/>
					<path class="st18" d="M332.4,91.4c-0.7,1.3-1.6,2.6-2.6,3.8c-0.2,0.3-0.6,0.3-0.9,0.1c-0.3-0.2-0.3-0.6-0.1-0.9
						c0.9-1.1,1.7-2.3,2.5-3.6c0.2-0.3,0.5-0.4,0.8-0.2C332.5,90.7,332.6,91.1,332.4,91.4L332.4,91.4z"/>
					<path class="st18" d="M326.7,98.4c-1.1,1-2.3,2-3.5,2.8c-0.3,0.2-0.7,0.1-0.8-0.2c-0.2-0.3-0.1-0.7,0.2-0.8
						c1.2-0.9,2.3-1.8,3.4-2.7c0.2-0.2,0.6-0.2,0.9,0C327,97.8,326.9,98.2,326.7,98.4L326.7,98.4z"/>
					<path class="st18" d="M319.4,103.7c-1.3,0.7-2.6,1.4-4,2.1c-0.3,0.2-0.7,0-0.8-0.3c-0.2-0.3,0-0.7,0.3-0.8
						c1.3-0.6,2.6-1.3,3.9-2c0.3-0.2,0.7-0.1,0.8,0.2C319.8,103.2,319.7,103.5,319.4,103.7L319.4,103.7z"/>
					<path class="st18" d="M311.3,107.5c-0.7,0.3-1.4,0.5-2.1,0.7L307,109c-0.3,0.1-0.6-0.1-0.7-0.3c-0.1-0.3,0.1-0.7,0.3-0.7h0
						l2.1-0.7c0.7-0.2,1.4-0.5,2.1-0.7c0.3-0.1,0.7,0,0.8,0.3C311.7,107,311.6,107.4,311.3,107.5L311.3,107.5L311.3,107.5z"/>
					<path class="st18" d="M302.7,110.2c-1.5,0.3-2.9,0.7-4.4,0.9c-0.3,0-0.6-0.2-0.7-0.5c0-0.3,0.2-0.6,0.5-0.7
						c1.4-0.3,2.9-0.6,4.3-0.9c0.3-0.1,0.6,0.1,0.7,0.4C303.2,109.8,303,110.1,302.7,110.2L302.7,110.2z"/>
					<path class="st18" d="M293.9,111.7c-1.5,0.2-3,0.3-4.4,0.4c-0.3,0-0.6-0.2-0.6-0.5s0.2-0.6,0.5-0.6c1.5-0.1,2.9-0.2,4.4-0.4
						c0.3,0,0.6,0.2,0.7,0.5C294.4,111.4,294.2,111.7,293.9,111.7L293.9,111.7z"/>
					<path class="st18" d="M284.9,112.4h-4.5c-0.3,0-0.6-0.3-0.6-0.6c0-0.3,0.3-0.6,0.6-0.6h0h4.4h0c0.3,0,0.6,0.3,0.6,0.6
						C285.5,112.1,285.3,112.4,284.9,112.4L284.9,112.4z"/>
					<path class="st18" d="M276,112.2l-4.4-0.3c-0.3,0-0.5-0.3-0.5-0.6c0-0.3,0.3-0.5,0.6-0.5l0,0l4.4,0.3l0,0
						c0.3,0,0.5,0.3,0.5,0.6C276.6,112,276.3,112.2,276,112.2L276,112.2z"/>
					<path class="st18" d="M267.1,111.5l-4.4-0.5c-0.3,0-0.5-0.3-0.5-0.6c0-0.3,0.3-0.5,0.6-0.5l0,0l4.4,0.5l0,0
						c0.3,0,0.5,0.3,0.5,0.6C267.7,111.4,267.4,111.6,267.1,111.5L267.1,111.5z"/>
					<path class="st18" d="M258.3,110.5l-4.4-0.6c-0.3,0-0.5-0.3-0.5-0.6c0-0.3,0.3-0.5,0.6-0.5l4.4,0.6l0,0c0.3,0,0.5,0.3,0.5,0.6
						C258.8,110.3,258.5,110.5,258.3,110.5L258.3,110.5z"/>
					<path class="st18" d="M249.4,109.2l-4.4-0.7c-0.3,0-0.5-0.3-0.5-0.6c0-0.3,0.3-0.5,0.6-0.5l4.4,0.6c0.3,0,0.5,0.3,0.5,0.6
						C250,109,249.8,109.3,249.4,109.2L249.4,109.2z"/>
					<path class="st18" d="M240.6,108l-4.4-0.6l0,0c-0.3,0-0.5-0.3-0.5-0.6c0-0.3,0.3-0.5,0.6-0.5l4.4,0.6c0.3,0,0.5,0.3,0.5,0.6
						C241.2,107.8,240.9,108,240.6,108L240.6,108L240.6,108z"/>
					<path class="st18" d="M231.8,106.8l-4.4-0.5l0,0c-0.3,0-0.5-0.3-0.5-0.6c0-0.3,0.3-0.5,0.6-0.5l4.4,0.5c0.3,0,0.5,0.3,0.5,0.6
						C232.4,106.6,232.1,106.9,231.8,106.8L231.8,106.8L231.8,106.8z"/>
					<path class="st18" d="M223,106l-4.4-0.2l0,0c-0.3,0-0.5-0.3-0.5-0.6s0.3-0.5,0.5-0.5l4.4,0.2c0.3,0,0.5,0.3,0.5,0.6
						C223.5,105.8,223.3,106,223,106L223,106L223,106z"/>
					<path class="st18" d="M214.1,105.7l-4.4,0.1h0c-0.3,0-0.5-0.2-0.5-0.5c0-0.3,0.2-0.5,0.5-0.5l4.5-0.1c0.3,0,0.5,0.2,0.5,0.5
						C214.7,105.4,214.4,105.7,214.1,105.7L214.1,105.7L214.1,105.7z"/>
					<path class="st18" d="M205.3,106.1c-1.5,0.2-2.9,0.3-4.4,0.5h0c-0.3,0-0.5-0.2-0.6-0.5s0.2-0.5,0.5-0.6
						c1.5-0.2,2.9-0.3,4.4-0.5c0.3,0,0.5,0.2,0.6,0.5C205.8,105.8,205.6,106.1,205.3,106.1L205.3,106.1L205.3,106.1z"/>
					<path class="st18" d="M196.5,107.2c-1.5,0.2-2.9,0.5-4.3,0.9c-0.3,0.1-0.5-0.1-0.6-0.4c-0.1-0.3,0.1-0.5,0.4-0.6
						c1.5-0.3,2.9-0.6,4.4-0.9c0.3,0,0.5,0.1,0.6,0.4C197,106.9,196.8,107.1,196.5,107.2L196.5,107.2z"/>
					<path class="st18" d="M187.9,109.2c-1.4,0.4-2.8,0.9-4.2,1.4c-0.2,0.1-0.5,0-0.6-0.3c-0.1-0.2,0-0.5,0.3-0.6
						c1.4-0.5,2.8-1,4.3-1.4c0.3-0.1,0.5,0.1,0.6,0.3C188.3,108.8,188.2,109.1,187.9,109.2L187.9,109.2z"/>
					<path class="st18" d="M179.7,112.3c-1.3,0.6-2.6,1.3-3.9,2.1c-0.2,0.1-0.5,0.1-0.6-0.2c-0.1-0.2-0.1-0.5,0.2-0.6
						c1.3-0.8,2.6-1.5,3.9-2.1c0.2-0.1,0.5,0,0.6,0.2C180,111.9,179.9,112.2,179.7,112.3L179.7,112.3z"/>
				</g>
				<g>
					<polygon class="st18" points="405,88.6 406.5,100.4 413.9,94.3 					"/>
					<path class="st5" d="M457.3,75.2l-28.4,32c-0.5,0.6-1.3,1-2.1,1c-0.8,0-1.6-0.3-2.2-0.9l-31-29.7c-0.3-0.3-0.5-0.9-0.3-1.3
						s0.6-0.8,1.1-0.8L457.3,75.2z"/>
					<polygon class="st18" points="405,88.6 457.3,75.2 410,93.4 410.3,96.7 					"/>
					<polygon class="st18" points="413,96.2 406.5,100.4 410,93.4 					"/>
				</g>
			</g>
			<g>
				<g>
					
						<linearGradient id="SVGID_17_" gradientUnits="userSpaceOnUse" x1="262.6646" y1="-337.5949" x2="510.0435" y2="-281.5153" gradientTransform="matrix(0.8167 0.577 0.577 -0.8167 285.8742 -44.6432)">
						<stop  offset="0" style="stop-color:#FE7062"/>
						<stop  offset="1" style="stop-color:#FF928E"/>
					</linearGradient>
					<path class="st19" d="M471.8,389.4c-2.8-0.5-5.7,0.7-7.2,3.2c-1,1.7-2.1,3.4-3.3,5.1c-27.3,38.7-81,47.9-119.7,20.6
						c-7.4-5.2-13.7-11.5-18.9-18.3l-39.5,16.8c9,14.1,20.7,26.5,34.9,36.3c27.6,19.2,61.5,26.8,94.7,21.1
						c33.7-5.8,63.1-24.3,82.7-52.2c3.8-5.4,7.2-11.1,10.1-16.9c2-4-0.3-8.9-4.8-9.7C491.5,393.3,481.7,391.4,471.8,389.4z"/>
					
						<linearGradient id="SVGID_18_" gradientUnits="userSpaceOnUse" x1="267.409" y1="-358.5187" x2="514.784" y2="-302.4399" gradientTransform="matrix(0.8167 0.577 0.577 -0.8167 285.8742 -44.6432)">
						<stop  offset="0" style="stop-color:#FE7062"/>
						<stop  offset="1" style="stop-color:#FF928E"/>
					</linearGradient>
					<path class="st20" d="M339.5,416.4L290,437.9c-7,3-14.7-2.3-14.3-9.9l3.2-60.3c0.5-8.4,10.3-12.7,16.8-7.3l46.3,38.8
						C347.8,404,346.5,413.3,339.5,416.4z"/>
				</g>
				<g>
					
						<linearGradient id="SVGID_19_" gradientUnits="userSpaceOnUse" x1="556.8267" y1="257.2153" x2="340.3849" y2="327.9653" gradientTransform="matrix(0.9475 -0.3198 -0.3198 -0.9475 22.7159 682.7509)">
						<stop  offset="0" style="stop-color:#FE7062"/>
						<stop  offset="1" style="stop-color:#FF928E"/>
					</linearGradient>
					<path class="st21" d="M313.3,301.5c2.8,1,6,0,7.7-2.4c10.1-13.7,24.3-24.5,41.5-30.3c27.3-9.2,56.1-3.9,77.8,11.8
						c10.9-10.1,21.7-20,31.3-28.9c-8.4-6.9-17.7-12.8-27.9-17.6c-29.9-13.9-64.2-15.6-95.3-4.9c-27.9,9.6-51.1,28.1-66.6,52.8
						c-2.3,3.7-0.5,8.7,3.6,10.1C293.5,294.7,302.8,297.9,313.3,301.5z"/>
					
						<linearGradient id="SVGID_20_" gradientUnits="userSpaceOnUse" x1="553.0923" y1="245.7833" x2="336.6446" y2="316.5352" gradientTransform="matrix(0.9475 -0.3198 -0.3198 -0.9475 22.7159 682.7509)">
						<stop  offset="0" style="stop-color:#FE7062"/>
						<stop  offset="1" style="stop-color:#FF928E"/>
					</linearGradient>
					<path class="st22" d="M423.6,270.6l41.2-34.9c5.8-4.9,14.7-2,16.5,5.4l14.2,58.6c2,8.2-6.2,15.1-14,11.8l-55.5-23.8
						C419.2,284.8,417.8,275.5,423.6,270.6z"/>
				</g>
			</g>
			<g>
				<g>
					<g>
						<path class="st18" d="M737.1,224.6c-0.3,0-0.6-0.2-0.7-0.4c-0.7-1-1.4-1.9-2.1-2.9c-0.3-0.4-0.2-1,0.2-1.2
							c0.4-0.3,1-0.2,1.2,0.2c0.7,1,1.4,1.9,2.1,2.9c0.3,0.4,0.2,1-0.2,1.2C737.5,224.5,737.3,224.6,737.1,224.6z"/>
						<path class="st18" d="M662.8,363.9L662.8,363.9c-2.3,0-4.7-0.1-7-0.3c-0.5,0-0.9-0.5-0.8-1c0-0.5,0.5-0.9,1-0.8
							c2.3,0.2,4.6,0.3,6.9,0.3c0.5,0,0.9,0.4,0.9,0.9C663.6,363.4,663.3,363.9,662.8,363.9z M674,363.2c-0.4,0-0.8-0.3-0.9-0.8
							c-0.1-0.5,0.3-0.9,0.8-1c2.3-0.3,4.6-0.7,6.8-1.1c0.5-0.1,1,0.2,1,0.7c0.1,0.5-0.2,1-0.7,1c-2.3,0.5-4.6,0.9-6.9,1.1
							C674.1,363.2,674.1,363.2,674,363.2z M691.8,359.2c-0.4,0-0.7-0.2-0.9-0.6c-0.2-0.5,0.1-1,0.6-1.1c2.2-0.7,4.3-1.5,6.5-2.4
							c0.5-0.2,1,0,1.2,0.5c0.2,0.5,0,1-0.5,1.2c-2.1,0.9-4.4,1.7-6.6,2.5C692,359.2,691.9,359.2,691.8,359.2z M708.4,351.7
							c-0.3,0-0.6-0.2-0.8-0.4c-0.2-0.4-0.1-1,0.3-1.2c2-1.2,3.9-2.4,5.8-3.7c0.4-0.3,1-0.2,1.2,0.2c0.3,0.4,0.2,1-0.2,1.2
							c-1.9,1.3-3.9,2.6-5.9,3.8C708.7,351.6,708.6,351.7,708.4,351.7z M723.1,340.9c-0.2,0-0.5-0.1-0.7-0.3
							c-0.3-0.3-0.3-0.9,0.1-1.2c1.7-1.5,3.4-3.1,4.9-4.8c0.3-0.3,0.9-0.4,1.3,0c0.3,0.3,0.4,0.9,0,1.3c-1.6,1.7-3.3,3.4-5,4.9
							C723.6,340.8,723.4,340.9,723.1,340.9z M735.4,327.4c-0.2,0-0.3,0-0.5-0.2c-0.4-0.3-0.5-0.9-0.2-1.2c1.4-1.9,2.6-3.8,3.8-5.7
							c0.3-0.4,0.8-0.5,1.2-0.3c0.4,0.3,0.5,0.8,0.3,1.2c-1.2,2-2.6,3.9-3.9,5.8C735.9,327.3,735.6,327.4,735.4,327.4z M744.6,311.7
							c-0.1,0-0.2,0-0.4-0.1c-0.5-0.2-0.7-0.7-0.4-1.2c1-2.1,1.8-4.2,2.6-6.4c0.2-0.5,0.7-0.7,1.1-0.5c0.5,0.2,0.7,0.7,0.5,1.1
							c-0.8,2.2-1.7,4.4-2.7,6.5C745.2,311.5,744.9,311.7,744.6,311.7z M750.4,294.4c-0.1,0-0.1,0-0.2,0c-0.5-0.1-0.8-0.6-0.7-1.1
							c0.5-2.2,0.9-4.5,1.3-6.8c0.1-0.5,0.5-0.8,1-0.7c0.5,0.1,0.8,0.5,0.7,1c-0.3,2.3-0.8,4.6-1.3,6.9
							C751.2,294.1,750.8,294.4,750.4,294.4z M752.6,276.3L752.6,276.3c-0.5,0-0.9-0.4-0.9-0.9c0-0.5,0-1,0-1.5c0-1.8,0-3.6-0.2-5.4
							c0-0.5,0.3-0.9,0.9-0.9c0.5,0,0.9,0.3,0.9,0.9c0.1,1.8,0.2,3.7,0.2,5.5c0,0.5,0,1,0,1.5C753.5,275.9,753.1,276.3,752.6,276.3z
							 M751,258.1c-0.4,0-0.8-0.3-0.9-0.7c-0.4-2.2-1-4.5-1.5-6.7c-0.1-0.5,0.2-1,0.6-1.1c0.5-0.1,1,0.2,1.1,0.6
							c0.6,2.2,1.2,4.6,1.6,6.8c0.1,0.5-0.2,1-0.7,1C751.1,258.1,751.1,258.1,751,258.1z M745.8,240.6c-0.3,0-0.7-0.2-0.8-0.5
							c-0.9-2.1-1.9-4.2-2.9-6.3c-0.2-0.4,0-1,0.4-1.2c0.4-0.2,1,0,1.2,0.4c1,2.1,2.1,4.2,2.9,6.4c0.2,0.5,0,1-0.5,1.2
							C746,240.6,745.9,240.6,745.8,240.6z"/>
						<path class="st18" d="M644.6,361.8c-0.1,0-0.1,0-0.2,0c-1.2-0.3-2.4-0.5-3.5-0.9c-0.5-0.1-0.8-0.6-0.6-1.1
							c0.1-0.5,0.6-0.8,1.1-0.6c1.1,0.3,2.3,0.6,3.4,0.8c0.5,0.1,0.8,0.6,0.7,1C645.4,361.5,645,361.8,644.6,361.8z"/>
					</g>
					<g>
						<path class="st18" d="M587.7,321.6c-0.3,0-0.6-0.2-0.8-0.4c-0.6-1-1.2-2.1-1.8-3.1c-0.2-0.4-0.1-1,0.3-1.2
							c0.4-0.2,1-0.1,1.2,0.3c0.6,1,1.2,2.1,1.8,3c0.3,0.4,0.1,1-0.3,1.2C588.1,321.5,587.9,321.6,587.7,321.6z"/>
						<path class="st18" d="M581.1,308.5c-0.3,0-0.7-0.2-0.8-0.5c-0.9-2.1-1.7-4.3-2.4-6.5c-0.2-0.5,0.1-1,0.6-1.1
							c0.5-0.2,1,0.1,1.1,0.6c0.7,2.2,1.5,4.3,2.3,6.4c0.2,0.5,0,1-0.5,1.2C581.3,308.5,581.2,308.5,581.1,308.5z M576,291.3
							c-0.4,0-0.8-0.3-0.9-0.7c-0.4-2.2-0.8-4.6-1-6.8c0-0.5,0.3-0.9,0.8-1c0.5,0,0.9,0.3,1,0.8c0.2,2.2,0.6,4.5,1,6.7
							c0.1,0.5-0.2,1-0.7,1C576.1,291.3,576.1,291.3,576,291.3z M574.4,273.4L574.4,273.4c-0.5,0-0.9-0.4-0.9-0.9
							c0-2.3,0.2-4.6,0.4-6.9c0-0.5,0.5-0.9,1-0.8c0.5,0,0.9,0.5,0.8,1c-0.2,2.2-0.3,4.5-0.3,6.8C575.3,273,574.9,273.4,574.4,273.4
							z M576.5,255.6c-0.1,0-0.1,0-0.2,0c-0.5-0.1-0.8-0.6-0.7-1c0.5-2.2,1.1-4.5,1.7-6.7c0.2-0.5,0.7-0.7,1.1-0.6
							c0.5,0.2,0.7,0.7,0.6,1.1c-0.7,2.2-1.2,4.4-1.7,6.5C577.3,255.3,577,255.6,576.5,255.6z M582.1,238.6c-0.1,0-0.2,0-0.3-0.1
							c-0.5-0.2-0.7-0.7-0.5-1.2c0.9-2.1,2-4.2,3.1-6.2c0.2-0.4,0.8-0.6,1.2-0.3c0.4,0.2,0.6,0.8,0.3,1.2c-1.1,2-2.1,4-3,6.1
							C582.8,238.4,582.5,238.6,582.1,238.6z M591,223c-0.2,0-0.3,0-0.5-0.2c-0.4-0.3-0.5-0.9-0.2-1.2c1.3-1.9,2.7-3.7,4.2-5.5
							c0.3-0.4,0.9-0.4,1.2-0.1c0.4,0.3,0.4,0.9,0.1,1.2c-1.4,1.7-2.8,3.5-4.1,5.4C591.6,222.8,591.3,223,591,223z M602.9,209.5
							c-0.2,0-0.5-0.1-0.7-0.3c-0.3-0.3-0.3-0.9,0-1.3c1.7-1.5,3.4-3.1,5.2-4.5c0.4-0.3,0.9-0.2,1.2,0.2c0.3,0.4,0.2,0.9-0.2,1.2
							c-1.7,1.4-3.5,2.9-5.1,4.4C603.3,209.4,603.1,209.5,602.9,209.5z M617.2,198.7c-0.3,0-0.6-0.2-0.8-0.4c-0.3-0.4-0.1-1,0.3-1.2
							c2-1.2,4-2.3,6-3.4c0.4-0.2,1,0,1.2,0.4c0.2,0.4,0,1-0.4,1.2c-2,1-4,2.1-5.9,3.3C617.5,198.6,617.3,198.7,617.2,198.7z
							 M633.4,190.9c-0.3,0-0.7-0.2-0.9-0.6c-0.2-0.5,0.1-1,0.5-1.1c1.7-0.6,3.5-1.2,5.3-1.7c0.4-0.1,0.9-0.3,1.3-0.4
							c0.5-0.1,1,0.2,1.1,0.6c0.1,0.5-0.2,1-0.6,1.1c-0.4,0.1-0.9,0.2-1.3,0.3c-1.7,0.5-3.5,1.1-5.2,1.7
							C633.6,190.9,633.5,190.9,633.4,190.9z M650.8,186.6c-0.4,0-0.8-0.3-0.9-0.8c-0.1-0.5,0.3-0.9,0.7-1c2.3-0.3,4.6-0.6,6.9-0.7
							c0.5,0,0.9,0.3,0.9,0.8c0,0.5-0.3,0.9-0.8,0.9c-2.2,0.2-4.5,0.4-6.7,0.7C650.9,186.6,650.8,186.6,650.8,186.6z M675.5,186.5
							c0,0-0.1,0-0.1,0c-2.2-0.3-4.5-0.5-6.7-0.7c-0.5,0-0.9-0.5-0.9-0.9c0-0.5,0.5-0.9,0.9-0.9c2.3,0.1,4.6,0.3,6.9,0.7
							c0.5,0.1,0.8,0.5,0.8,1C676.3,186.1,675.9,186.5,675.5,186.5z"/>
						<path class="st18" d="M689.9,189.7c-0.1,0-0.2,0-0.3,0c-1.1-0.3-2.2-0.7-3.4-1c-0.5-0.1-0.8-0.6-0.6-1.1
							c0.1-0.5,0.6-0.8,1.1-0.6c1.2,0.3,2.3,0.7,3.4,1c0.5,0.2,0.7,0.7,0.6,1.1C690.6,189.4,690.3,189.7,689.9,189.7z"/>
					</g>
					<g>
						<g>
							<path class="st5" d="M691.8,211.6c-0.4-0.2-0.9-0.2-1.2,0.1l-9.9,8.4c-5.8-1.8-11.9-2.7-18.2-2.6l-7.2-10.8
								c-0.2-0.4-0.7-0.5-1.2-0.5l-15.1,3.9c-0.4,0.1-0.8,0.5-0.8,1l-1,13c-5.5,2.9-10.5,6.7-14.7,11l-12.8-2.6
								c-0.5-0.1-0.9,0.1-1.1,0.5l-7.9,13.4c-0.2,0.4-0.2,0.9,0.1,1.2l8.4,9.9c-1.8,5.8-2.7,11.9-2.6,18.2l-10.8,7.2
								c-0.4,0.2-0.5,0.7-0.5,1.2l3.9,15.1c0.1,0.4,0.5,0.8,1,0.8l13,1c2.9,5.5,6.7,10.5,11,14.7l-2.6,12.8
								c-0.1,0.5,0.1,0.9,0.5,1.1l13.4,7.9c0.4,0.2,0.9,0.2,1.2-0.1l9.9-8.4c5.8,1.8,11.9,2.7,18.2,2.6l7.2,10.8
								c0.2,0.4,0.7,0.5,1.2,0.5l15.1-3.9c0.4-0.1,0.8-0.5,0.8-1l1-13c5.5-2.9,10.5-6.7,14.7-11l12.8,2.6c0.5,0.1,0.9-0.1,1.1-0.5
								l7.9-13.4c0.2-0.4,0.2-0.9-0.1-1.2l-8.4-9.9c1.8-5.8,2.7-11.9,2.6-18.2l10.8-7.2c0.4-0.2,0.5-0.7,0.5-1.2l-3.9-15.1
								c-0.1-0.4-0.5-0.8-1-0.8l-13-1c-2.9-5.5-6.7-10.5-11-14.7l2.6-12.8c0.1-0.5-0.1-0.9-0.5-1.1L691.8,211.6z"/>
						</g>
						<g>
							<path class="st2" d="M663.7,289.7c-1.4,0-2.9-0.2-4.3-0.6c-3.9-1.2-7.1-3.8-9.1-7.3c-4-7.4-1.3-16.6,6.1-20.6
								s16.6-1.3,20.6,6.1c1.9,3.6,2.4,7.7,1.2,11.6s-3.8,7.1-7.3,9.1C668.7,289.1,666.2,289.7,663.7,289.7z M663.7,262
								c-2.1,0-4.1,0.5-6,1.5c-6.1,3.3-8.3,10.9-5,17c1.6,2.9,4.3,5.1,7.5,6c3.2,0.9,6.6,0.6,9.5-1c2.9-1.6,5.1-4.3,6-7.5
								c0.9-3.2,0.6-6.6-1-9.5c-1.6-2.9-4.3-5.1-7.5-6C666.1,262.2,664.9,262,663.7,262z"/>
						</g>
						<path class="st2" d="M663.6,313.8c-17.4,0-33.2-11.7-37.8-29.3c-0.9-3.2-1.2-6.5-1.2-9.8c0-6.9,1.9-13.7,5.5-19.8
							c5.3-9,13.8-15.3,23.9-17.9l0,0c2.4-0.6,4.9-1,7.4-1.2c0.3,0,0.5,0,0.8,0l0.1,2.7c-2.6,0.1-5.1,0.5-7.7,1.1
							c-0.3,0.1-0.6,0.2-0.9,0.2l0,0l0,0c-8.2,2.4-15.2,7.4-20,14.5c-0.4,0.7-0.9,1.3-1.3,2c-3.4,5.7-5.1,12-5.1,18.4
							c0,3.1,0.4,6.1,1.2,9.1c5,19.4,24.8,31.1,44.2,26.1c16.4-4.2,27.3-19,27.3-35.2c0-3-0.4-6-1.2-9.1c-1.6-6.4-5-12.2-9.6-16.8
							l1.9-1.9c5,5,8.6,11.2,10.3,18c0.9,3.2,1.2,6.5,1.2,9.7c0,17.4-11.7,33.3-29.3,37.8C670,313.4,666.8,313.8,663.6,313.8z"/>
					</g>
				</g>
				<g>
					<g>
						<path class="st18" d="M812.3,332.3c-0.3,0-0.6-0.2-0.8-0.4c-0.6-1-1.3-1.9-2-2.9c-0.3-0.4-0.2-1,0.2-1.2
							c0.4-0.3,1-0.2,1.2,0.2c0.7,1,1.4,2,2.1,3c0.3,0.4,0.1,1-0.3,1.2C812.6,332.2,812.5,332.3,812.3,332.3z"/>
						<path class="st18" d="M777.1,402.2c-0.5,0-0.9-0.3-0.9-0.8c0-0.5,0.3-0.9,0.8-1c2.3-0.2,4.6-0.5,6.9-1.1
							c0.5-0.1,1,0.2,1.1,0.7c0.1,0.5-0.2,1-0.7,1.1C782.1,401.6,779.6,402,777.1,402.2C777.2,402.2,777.2,402.2,777.1,402.2z
							 M795.1,397c-0.3,0-0.6-0.2-0.8-0.5c-0.2-0.4-0.1-1,0.4-1.2c2.1-1.1,4.1-2.4,5.9-3.8c0.4-0.3,1-0.2,1.2,0.2
							c0.3,0.4,0.2,1-0.2,1.2c-1.9,1.5-4,2.8-6.2,3.9C795.3,397,795.2,397,795.1,397z M809.4,385.1c-0.2,0-0.4-0.1-0.5-0.2
							c-0.4-0.3-0.5-0.9-0.2-1.2c1.4-1.8,2.7-3.8,3.9-5.8c0.2-0.4,0.8-0.6,1.2-0.3c0.4,0.2,0.6,0.8,0.3,1.2c-1.2,2.1-2.6,4.1-4.1,6
							C809.9,384.9,809.6,385.1,809.4,385.1z M817.8,368.4c-0.1,0-0.2,0-0.2,0c-0.5-0.1-0.8-0.6-0.6-1.1c0.6-2.2,1-4.6,1.3-6.9
							c0-0.5,0.5-0.9,1-0.8c0.5,0,0.9,0.5,0.8,1c-0.3,2.4-0.7,4.8-1.3,7.2C818.5,368.1,818.1,368.4,817.8,368.4z M818.8,349.8
							c-0.4,0-0.8-0.3-0.9-0.8c-0.3-2-0.7-3.9-1.3-5.8c-0.1-0.3-0.2-0.7-0.3-1c-0.2-0.5,0.1-1,0.6-1.1c0.5-0.2,1,0.1,1.1,0.6
							c0.1,0.3,0.2,0.7,0.3,1c0.6,2,1,4.1,1.4,6.1c0.1,0.5-0.3,0.9-0.7,1C818.9,349.8,818.8,349.8,818.8,349.8z"/>
						<path class="st18" d="M765.5,401.6c0,0-0.1,0-0.2,0c-1.2-0.2-2.4-0.5-3.6-0.8c-0.5-0.1-0.8-0.6-0.6-1.1
							c0.1-0.5,0.6-0.8,1.1-0.6c1.1,0.3,2.3,0.5,3.4,0.7c0.5,0.1,0.8,0.5,0.7,1C766.3,401.4,765.9,401.6,765.5,401.6z"/>
					</g>
					<g>
						<path class="st18" d="M734.6,380.7c-0.3,0-0.6-0.2-0.8-0.4c-0.6-1-1.2-2.1-1.8-3.2c-0.2-0.4,0-1,0.4-1.2c0.4-0.2,1,0,1.2,0.4
							c0.5,1,1.1,2.1,1.7,3.1c0.3,0.4,0.1,1-0.3,1.2C734.9,380.6,734.8,380.7,734.6,380.7z"/>
						<path class="st18" d="M728.9,366.9c-0.4,0-0.8-0.3-0.9-0.7c-0.5-2.3-0.9-4.7-1.1-7.1c0-0.5,0.3-0.9,0.8-1c0.5,0,0.9,0.3,1,0.8
							c0.2,2.3,0.5,4.6,1,6.8c0.1,0.5-0.2,1-0.7,1.1C729.1,366.8,729,366.9,728.9,366.9z M728.5,348.5c0,0-0.1,0-0.2,0
							c-0.5-0.1-0.8-0.5-0.7-1c0.4-2.4,1-4.7,1.8-6.9c0.2-0.5,0.7-0.7,1.1-0.5c0.5,0.2,0.7,0.7,0.5,1.1c-0.7,2.2-1.4,4.4-1.7,6.7
							C729.3,348.2,728.9,348.5,728.5,348.5z M735.3,331.5c-0.2,0-0.3,0-0.5-0.2c-0.4-0.3-0.5-0.8-0.3-1.2c1.3-2,2.8-3.9,4.4-5.7
							c0.3-0.3,0.9-0.4,1.2-0.1c0.3,0.3,0.4,0.9,0.1,1.2c-1.5,1.7-2.9,3.5-4.2,5.5C735.9,331.3,735.6,331.5,735.3,331.5z
							 M748.2,318.5c-0.3,0-0.6-0.2-0.7-0.4c-0.3-0.4-0.2-1,0.2-1.2c2-1.3,4.1-2.5,6.3-3.5c0.5-0.2,1,0,1.2,0.4c0.2,0.5,0,1-0.4,1.2
							c-2.1,1-4.1,2.1-6,3.4C748.6,318.4,748.4,318.5,748.2,318.5z M765.3,311.6c-0.4,0-0.8-0.3-0.9-0.7c-0.1-0.5,0.2-0.9,0.7-1
							c2.4-0.4,4.8-0.7,7.1-0.8c0.5,0,0.9,0.4,0.9,0.9c0,0.5-0.4,0.9-0.9,0.9c-2.3,0.1-4.6,0.3-6.8,0.7
							C765.4,311.6,765.3,311.6,765.3,311.6z"/>
						<path class="st18" d="M787.1,312.9c-0.1,0-0.2,0-0.3,0c-1.1-0.3-2.2-0.7-3.4-0.9c-0.5-0.1-0.8-0.6-0.7-1.1
							c0.1-0.5,0.6-0.8,1.1-0.7c1.2,0.3,2.4,0.6,3.5,0.9c0.5,0.2,0.7,0.7,0.6,1.1C787.8,312.7,787.5,312.9,787.1,312.9z"/>
					</g>
					<g>
						<g>
							<path class="st5" d="M788.1,323.7c-0.2-0.1-0.5-0.1-0.6,0l-5.1,4.3c-3-0.9-6.1-1.4-9.3-1.3l-3.7-5.6
								c-0.1-0.2-0.4-0.3-0.6-0.2l-7.8,2c-0.2,0.1-0.4,0.3-0.4,0.5l-0.5,6.7c-2.9,1.5-5.4,3.4-7.5,5.7l-6.5-1.4
								c-0.2,0-0.5,0-0.6,0.3l-4.1,6.9c-0.1,0.2-0.1,0.5,0,0.6l4.3,5.1c-0.9,3-1.4,6.1-1.3,9.3l-5.6,3.7c-0.2,0.1-0.3,0.4-0.2,0.6
								l2,7.8c0.1,0.2,0.3,0.4,0.5,0.4l6.7,0.5c1.5,2.9,3.4,5.4,5.7,7.5l-1.4,6.5c0,0.2,0,0.5,0.3,0.6l6.9,4.1
								c0.2,0.1,0.5,0.1,0.6,0l5.1-4.3c3,0.9,6.1,1.4,9.3,1.3l3.7,5.6c0.1,0.2,0.4,0.3,0.6,0.2l7.8-2c0.2-0.1,0.4-0.3,0.4-0.5
								l0.5-6.7c2.9-1.5,5.4-3.4,7.5-5.7l6.5,1.4c0.2,0,0.5,0,0.6-0.3l4.1-6.9c0.1-0.2,0.1-0.5,0-0.6l-4.3-5.1
								c0.9-3,1.4-6.1,1.3-9.3l5.6-3.7c0.2-0.1,0.3-0.4,0.2-0.6l-2-7.8c-0.1-0.2-0.3-0.4-0.5-0.4l-6.7-0.5c-1.5-2.9-3.4-5.4-5.7-7.5
								l1.4-6.5c0-0.2,0-0.5-0.3-0.6L788.1,323.7z"/>
						</g>
						<g>
							<path class="st2" d="M773.7,364.5c-0.8,0-1.6-0.1-2.4-0.3c-2.2-0.6-3.9-2.1-5-4.1c-2.2-4.1-0.7-9.2,3.4-11.5
								c2-1.1,4.3-1.3,6.4-0.7s3.9,2.1,5,4.1c1.1,2,1.3,4.3,0.7,6.4s-2.1,3.9-4.1,5C776.4,364.2,775.1,364.5,773.7,364.5z
								 M773.6,350.3c-1,0-1.9,0.2-2.7,0.7l0,0c-2.8,1.5-3.8,5-2.3,7.9c0.7,1.4,2,2.4,3.4,2.8c1.5,0.4,3.1,0.3,4.4-0.5
								c1.4-0.7,2.4-2,2.8-3.4c0.4-1.5,0.3-3.1-0.5-4.4s-2-2.4-3.4-2.8C774.7,350.4,774.2,350.3,773.6,350.3z M770.2,349.8
								L770.2,349.8L770.2,349.8z"/>
						</g>
						<path class="st2" d="M773.5,376.9c-9.2,0-17.6-6.2-20-15.5c-0.4-1.7-0.7-3.4-0.7-5.1c0-9.2,6.2-17.6,15.5-20l0,0
							c0,0,0.1,0,0.2,0c1.2-0.3,2.5-0.5,3.7-0.6c0.1,0,0.2,0,0.3,0c0,0,0.1,0,0.2,0l0.1,2.7c-1.3,0-2.6,0.2-3.8,0.5
							c-8.9,2.3-14.5,10.9-13.3,19.8c0.1,0.7,0.2,1.4,0.4,2.1c2.5,9.6,12.3,15.4,21.9,13c8.1-2.1,13.5-9.4,13.5-17.4
							c0-1.5-0.2-3-0.6-4.5c-0.8-3.2-2.5-6-4.8-8.3l1.9-1.9c2.7,2.6,4.6,5.9,5.5,9.6c0.4,1.7,0.7,3.4,0.7,5.1
							c0,9.2-6.2,17.6-15.5,20C777,376.7,775.2,376.9,773.5,376.9z"/>
					</g>
				</g>
				<g>
					
						<linearGradient id="SVGID_21_" gradientUnits="userSpaceOnUse" x1="686.6128" y1="169.867" x2="670.1571" y2="119.4268" gradientTransform="matrix(1 0 0 -1 0 510.04)">
						<stop  offset="0" style="stop-color:#FF928E"/>
						<stop  offset="1" style="stop-color:#FEB3B1"/>
					</linearGradient>
					<path class="st23" d="M670.6,343.9c0,0-22.9,29.3,3.2,59.1l9.8-0.9c0,0-18.9-30.4-10.5-54.5l13.9,1l7.7-5L670.6,343.9z"/>
					
						<linearGradient id="SVGID_22_" gradientUnits="userSpaceOnUse" x1="683.1391" y1="-9.3799" x2="717.813" y2="-9.3799" gradientTransform="matrix(1 0 0 -1 0 510.04)">
						<stop  offset="0" style="stop-color:#FF928E"/>
						<stop  offset="1" style="stop-color:#FEB3B1"/>
					</linearGradient>
					<path class="st24" d="M683.1,487.4c0,0,18.5,40.4,28.3,57.2c0,0,1.9,10.5,0,13.8l-1.7,0.7l7.7-0.2c0,0,0.7-14.2,0.2-15
						c-0.5-0.8-1.6-0.7-1.6-0.7s-3.3-26.1-12.8-31.7l-9.2-31.9L683.1,487.4z"/>
					
						<linearGradient id="SVGID_23_" gradientUnits="userSpaceOnUse" x1="730.8156" y1="68.1598" x2="713.6442" y2="-43.4529" gradientTransform="matrix(1 0 0 -1 0 510.04)">
						<stop  offset="0" style="stop-color:#09005D"/>
						<stop  offset="1" style="stop-color:#1A0F91"/>
					</linearGradient>
					<path class="st25" d="M706.5,561.1c0,0.2,6,0.1,9.3,0c1.2,0,2.2-0.9,2.5-2.1l2.5-13c0.2-1.2-0.5-2.4-1.8-2.7l-1.4-0.3
						c0,0-2,2.7-1.4,5.2c0.6,2.6,1.2,9.1-0.4,9.9c-1.5,0.8-6.1,0.9-6.1,0.9S706.6,559.5,706.5,561.1z"/>
					
						<linearGradient id="SVGID_24_" gradientUnits="userSpaceOnUse" x1="694.4776" y1="73.7478" x2="677.3066" y2="-37.8632" gradientTransform="matrix(1 0 0 -1 0 510.04)">
						<stop  offset="0" style="stop-color:#09005D"/>
						<stop  offset="1" style="stop-color:#1A0F91"/>
					</linearGradient>
					<path class="st26" d="M665.6,561.4c-0.6,0.3-0.3,1.3,0.3,1.3c5.5,0,17.7-0.2,18.8-0.7c1.4-0.6-0.5-5.6-2.5-7.3l-11.1,3.6
						L665.6,561.4z"/>
					
						<linearGradient id="SVGID_25_" gradientUnits="userSpaceOnUse" x1="662.0948" y1="-11.933" x2="682.172" y2="-11.933" gradientTransform="matrix(1 0 0 -1 0 510.04)">
						<stop  offset="0" style="stop-color:#FF928E"/>
						<stop  offset="1" style="stop-color:#FEB3B1"/>
					</linearGradient>
					<path class="st27" d="M662.1,484.8c0,0,12,58,15.4,69.3l-8,5c0,0,4-0.7,7-0.9c3-0.2,5.7-3.6,5.7-3.6l-1-1.5
						c0,0-3-57.7-2.3-64.2L662.1,484.8z"/>
					
						<linearGradient id="SVGID_26_" gradientUnits="userSpaceOnUse" x1="618.8379" y1="138.6905" x2="658.149" y2="138.6905" gradientTransform="matrix(1 0 0 -1 0 510.04)">
						<stop  offset="0" style="stop-color:#FF928E"/>
						<stop  offset="1" style="stop-color:#FEB3B1"/>
					</linearGradient>
					<path class="st28" d="M632.3,349.6c0,0-1.7,30.2,25.8,45.6l-6.6,15.1c0,0-24.9-15-23.9-56.1c0-1.2-0.4-2.3-1.2-3.2l-5.3-6.1
						c-2-2.3-2.7-5.5-2-8.5l0.7-2.8c0.2-0.9,1.3-1.4,2.1-0.9l0.5,0.3c1.7,1,3.1,2.6,4,4.4l2.6,5.8c1,2.2,3.2,3.5,5.6,3.3l1.6-0.2
						L632.3,349.6z"/>
					
						<linearGradient id="SVGID_27_" gradientUnits="userSpaceOnUse" x1="661.9062" y1="117.3109" x2="735.5992" y2="-28.6442" gradientTransform="matrix(1 0 0 -1 0 510.04)">
						<stop  offset="0" style="stop-color:#FE7062"/>
						<stop  offset="1" style="stop-color:#FF928E"/>
					</linearGradient>
					<path class="st29" d="M657.2,392.9c4.6,1.3,20.2,5.4,29.9,5.2l-6,33.7l0.5,5.5l-19.5-0.1c0,0-5.5-12.7-9.8-19.1
						c-1.2-1.8-0.3-4,0.4-6.1l-1-0.7c-1-0.7-1.4-1.9-1-3l4.7-14.5C655.7,393.1,656.4,392.7,657.2,392.9z"/>
					
						<linearGradient id="SVGID_28_" gradientUnits="userSpaceOnUse" x1="644.3931" y1="78.7697" x2="708.7849" y2="6.1501" gradientTransform="matrix(1 0 0 -1 0 510.04)">
						<stop  offset="0" style="stop-color:#4042E2"/>
						<stop  offset="1" style="stop-color:#4F52FF"/>
					</linearGradient>
					<path class="st30" d="M660.6,434.3l0.4,3.3c0,0-5.5,16.5,2.7,54.9c0,0,17.9,5.1,32.5-7c0,0-4.1-36.3-5.3-38
						c-5.6-8.4-9.4-10.3-9.4-10.3l-0.2-3.6C681.4,433.6,665.7,436.5,660.6,434.3z"/>
					
						<linearGradient id="SVGID_29_" gradientUnits="userSpaceOnUse" x1="668.1858" y1="119.3774" x2="680.4727" y2="119.3774" gradientTransform="matrix(1 0 0 -1 0 510.04)">
						<stop  offset="0" style="stop-color:#F9B776"/>
						<stop  offset="1" style="stop-color:#F47960"/>
					</linearGradient>
					<path class="st31" d="M668.2,395.6c-0.1-0.1,4.1-12.5,4.1-12.5l5.9,0.5l2.3,14C680.5,397.7,671.2,399.6,668.2,395.6z"/>
					
						<linearGradient id="SVGID_30_" gradientUnits="userSpaceOnUse" x1="687.7139" y1="135.2697" x2="777.1469" y2="129.1883" gradientTransform="matrix(1 0 0 -1 0 510.04)">
						<stop  offset="0" style="stop-color:#FF928E"/>
						<stop  offset="1" style="stop-color:#FEB3B1"/>
					</linearGradient>
					<path class="st32" d="M676.8,363.6c-0.4,0.2-12.6,5.3-10,18c0.2,0.7,0.7,1.4,1.4,1.7c1.8,0.8,5.6,2.2,10.3,1.7
						c6.4-0.7,10.6-11.8,10.4-15.1C688.6,366.7,680.7,361.2,676.8,363.6z"/>
					
						<linearGradient id="SVGID_31_" gradientUnits="userSpaceOnUse" x1="702.3959" y1="140.6661" x2="670.9155" y2="77.7055" gradientTransform="matrix(1 0 0 -1 0 510.04)">
						<stop  offset="0" style="stop-color:#09005D"/>
						<stop  offset="1" style="stop-color:#1A0F91"/>
					</linearGradient>
					<path class="st33" d="M680.5,358.7c-0.3,0-7.1,2.4-3.7,7.3c3.4,4.9,4.6,7.8,3,9.9c-1.4,2-4.6,0.9-4.4,4.9c0,0.8-0.3,1.6-1,2.1
						c-3,2.1-10.4,8.3-3.1,17.3c0.6,0.7,0.7,1.7,0.3,2.6c-2.1,3.8-6.6,15,9.6,21.2c16,6.2,21.8-4.3,23.4-8.5
						c0.3-0.9,1.2-1.5,2.2-1.4c1.8,0.1,4.3-0.2,4.1-2.6c-0.1-1.4-1-2.7-2-3.8c-1-1-0.9-2.8,0.4-3.5c1-0.5,1.8-1.4,2.2-2.7
						c1-3.6-1-14.4-11.3-16.2c-0.9-0.2-1.8-1-1.9-1.8v0c-0.2-0.9,0.2-1.7,0.8-2.2c1.7-1.2,3.8-3.6,2.1-7.5c-1.5-3.4-4.4-4.6-6.6-5
						c-1.3-0.2-2.1-1.4-1.9-2.7C693.5,362.6,692.9,357,680.5,358.7z"/>
				</g>
			</g>
			<g>
				
					<linearGradient id="SVGID_32_" gradientUnits="userSpaceOnUse" x1="388.9419" y1="161.7058" x2="611.4238" y2="161.7058" gradientTransform="matrix(1 0 0 -1 0 510.04)">
					<stop  offset="0" style="stop-color:#09005D"/>
					<stop  offset="1" style="stop-color:#1A0F91"/>
				</linearGradient>
				<path class="st34" d="M392.2,360.3l111.3-3.6c2.5,0,4.1,2.6,2.9,4.8l-6.7,13c-1.3,2.5,1,5.4,3.8,4.6l105.6-29.7
					c3.2-0.9,3.1-5.5-0.1-6.3l-105.4-25.5c-2.5-0.6-4.7,1.8-3.8,4.3l5.9,16.4c0.7,2-0.7,4.2-2.8,4.4L392,353.8
					c-1.8,0.1-3.1,1.7-3,3.4l0,0C389,358.9,390.5,360.3,392.2,360.3z"/>
				
					<linearGradient id="SVGID_33_" gradientUnits="userSpaceOnUse" x1="515.032" y1="170.3012" x2="597.879" y2="170.3012" gradientTransform="matrix(1 0 0 -1 0 510.04)">
					<stop  offset="0" style="stop-color:#DAE3FE"/>
					<stop  offset="1" style="stop-color:#E9EFFD"/>
				</linearGradient>
				<path class="st35" d="M573.8,354c-0.2,0-0.4-0.2-0.4-0.3c-0.1-0.2,0.1-0.5,0.3-0.5l22.7-5.6c0.5-0.1,0.7-0.5,0.7-0.9
					c0-0.3-0.2-0.7-0.7-0.9c-24-5.7-80-19-81-19.3c-0.2-0.1-0.3-0.3-0.3-0.6s0.3-0.3,0.6-0.3c1.2,0.4,62.2,14.9,80.9,19.3
					c0.8,0.2,1.4,0.9,1.4,1.7c0,0.9-0.5,1.5-1.4,1.7L573.8,354C573.9,354,573.8,354,573.8,354z"/>
			</g>
			<g>
				
					<linearGradient id="SVGID_34_" gradientUnits="userSpaceOnUse" x1="265.3592" y1="260.8089" x2="386.6778" y2="260.8089" gradientTransform="matrix(1 0 0 -1 0 510.04)">
					<stop  offset="0" style="stop-color:#09005D"/>
					<stop  offset="1" style="stop-color:#1A0F91"/>
				</linearGradient>
				<path class="st36" d="M386.3,348.6L326,236.5c-1.2-2.2,0.4-4.8,2.9-4.8h14.7c2.9,0,4.3-3.4,2.4-5.5l-75-80.1
					c-2.3-2.4-6.3-0.3-5.5,3l25.9,105.3c0.6,2.5,3.8,3.3,5.6,1.4l11.8-12.8c1.5-1.6,4-1.3,5.1,0.5l66.7,108.2c0.9,1.5,2.9,2,4.4,1.1
					l0,0C386.6,352,387.1,350.1,386.3,348.6z"/>
				
					<linearGradient id="SVGID_35_" gradientUnits="userSpaceOnUse" x1="272.7622" y1="311.3215" x2="293.7481" y2="311.3215" gradientTransform="matrix(1 0 0 -1 0 510.04)">
					<stop  offset="0" style="stop-color:#DAE3FE"/>
					<stop  offset="1" style="stop-color:#E9EFFD"/>
				</linearGradient>
				<path class="st37" d="M293.3,240.4c-0.2,0-0.4-0.2-0.4-0.4c-0.2-1-10.5-42.4-20.1-80.7c-0.2-0.8,0.2-1.6,0.9-2s1.6-0.2,2.2,0.4
					l15.4,17.6c0.2,0.2,0.2,0.5,0,0.6c-0.2,0.2-0.5,0.2-0.6,0l-15.4-17.6c-0.3-0.4-0.8-0.3-1.1-0.2c-0.3,0.2-0.6,0.5-0.5,1
					c4.7,18.7,19.9,79.7,20.1,80.8C293.8,240.1,293.6,240.3,293.3,240.4C293.4,240.4,293.4,240.4,293.3,240.4z"/>
			</g>
			
				<linearGradient id="SVGID_36_" gradientUnits="userSpaceOnUse" x1="375.9473" y1="155.8987" x2="406.1984" y2="155.8987" gradientTransform="matrix(1 0 0 -1 0 510.04)">
				<stop  offset="0" style="stop-color:#09005D"/>
				<stop  offset="1" style="stop-color:#1A0F91"/>
			</linearGradient>
			<path class="st38" d="M406.2,354.1c0,8.4-6.8,15.1-15.1,15.1c-8.4,0-15.1-6.8-15.1-15.1s6.8-15.1,15.1-15.1
				C399.4,339,406.2,345.8,406.2,354.1z"/>
			<g>
				<g>
					<g>
						<path class="st18" d="M147.3,249.1c-0.3,0-0.6-0.2-0.7-0.4c-0.7-1-1.3-1.9-2-2.9c-0.3-0.4-0.2-1,0.2-1.2
							c0.4-0.3,1-0.2,1.2,0.2c0.7,1,1.4,2,2.1,2.9c0.3,0.4,0.2,1-0.2,1.2C147.6,249,147.5,249.1,147.3,249.1z"/>
						<path class="st18" d="M89.9,356c-0.7,0-1.5,0-2.2,0c-0.5,0-0.9-0.4-0.9-0.9c0-0.5,0.4-0.9,0.9-0.9c2.4,0.1,4.7,0,7.1-0.2
							c0.5,0,0.9,0.3,1,0.8c0,0.5-0.3,0.9-0.8,1C93.3,356,91.6,356,89.9,356z M106.4,354c-0.4,0-0.8-0.3-0.9-0.7
							c-0.1-0.5,0.2-1,0.7-1.1c0.9-0.2,1.9-0.5,2.8-0.7c1.4-0.4,2.7-0.9,4-1.3c0.5-0.2,1,0.1,1.1,0.5c0.2,0.5-0.1,1-0.5,1.1
							c-1.4,0.5-2.7,0.9-4.1,1.4c-0.9,0.3-1.9,0.5-2.9,0.8C106.5,354,106.5,354,106.4,354z M123.8,347.1c-0.3,0-0.6-0.2-0.8-0.5
							c-0.2-0.4-0.1-1,0.3-1.2c2.1-1.2,4.1-2.4,6-3.8c0.4-0.3,1-0.2,1.2,0.2c0.3,0.4,0.2,1-0.2,1.2c-2,1.4-4,2.7-6.2,3.9
							C124.2,347.1,124,347.1,123.8,347.1z M138.8,335.7c-0.2,0-0.5-0.1-0.6-0.3c-0.3-0.3-0.3-0.9,0-1.3c1.7-1.7,3.2-3.4,4.7-5.3
							c0.3-0.4,0.9-0.4,1.2-0.2c0.4,0.3,0.4,0.9,0.2,1.2c-1.5,1.9-3.1,3.7-4.8,5.4C139.2,335.7,139,335.7,138.8,335.7z M150.1,320.7
							c-0.2,0-0.3,0-0.4-0.1c-0.4-0.2-0.6-0.8-0.3-1.2c1.2-2.1,2.2-4.2,3.1-6.3c0.2-0.5,0.7-0.7,1.2-0.5s0.7,0.7,0.5,1.2
							c-1,2.2-2,4.4-3.2,6.5C150.7,320.5,150.4,320.7,150.1,320.7z M156.9,303.2c-0.1,0-0.2,0-0.2,0c-0.5-0.1-0.8-0.6-0.7-1.1
							c0.5-2.3,1-4.6,1.3-7c0.1-0.5,0.5-0.8,1-0.8c0.5,0.1,0.8,0.5,0.8,1c-0.3,2.4-0.8,4.8-1.3,7.2
							C157.7,302.9,157.3,303.2,156.9,303.2z M158.8,284.5c-0.5,0-0.9-0.4-0.9-0.9c-0.1-2.4-0.3-4.7-0.7-7c-0.1-0.5,0.3-0.9,0.7-1
							s0.9,0.3,1,0.7c0.3,2.4,0.6,4.8,0.7,7.2C159.7,284,159.3,284.5,158.8,284.5L158.8,284.5z M155.4,266c-0.4,0-0.7-0.2-0.9-0.6
							c-0.7-2.2-1.6-4.5-2.5-6.6c-0.2-0.5,0-1,0.5-1.2c0.5-0.2,1,0,1.2,0.5c1,2.2,1.9,4.5,2.6,6.8c0.2,0.5-0.1,1-0.6,1.1
							C155.6,266,155.5,266,155.4,266z"/>
						<path class="st18" d="M76.1,354.6c-0.1,0-0.1,0-0.2,0c-1.2-0.2-2.4-0.5-3.5-0.8c-0.5-0.1-0.8-0.6-0.6-1.1
							c0.1-0.5,0.6-0.8,1.1-0.6c1.1,0.3,2.3,0.6,3.4,0.8c0.5,0.1,0.8,0.6,0.7,1C76.9,354.4,76.5,354.6,76.1,354.6z"/>
					</g>
					<g>
						<path class="st18" d="M31.3,323.4c-0.3,0-0.6-0.2-0.8-0.4c-0.6-1-1.2-2.1-1.8-3.1c-0.2-0.4-0.1-1,0.3-1.2
							c0.4-0.2,1-0.1,1.2,0.3c0.5,1,1.2,2.1,1.8,3c0.3,0.4,0.1,1-0.3,1.2C31.7,323.3,31.5,323.4,31.3,323.4z"/>
						<path class="st18" d="M24.9,309.8c-0.4,0-0.7-0.2-0.9-0.6c-0.4-1.1-0.8-2.3-1.1-3.4c-0.3-1.1-0.6-2.3-0.9-3.4
							c-0.1-0.5,0.2-1,0.7-1.1c0.5-0.1,1,0.2,1.1,0.7c0.3,1.1,0.6,2.2,0.9,3.4c0.3,1.1,0.7,2.2,1.1,3.3c0.2,0.5-0.1,1-0.5,1.1
							C25.1,309.8,25,309.8,24.9,309.8z M21.2,291.7c-0.5,0-0.9-0.3-0.9-0.8c-0.1-1.5-0.2-3.1-0.2-4.6c0-0.9,0-1.7,0-2.6
							c0-0.5,0.4-0.9,0.9-0.9c0.5,0,0.9,0.4,0.9,0.9c0,0.8,0,1.7,0,2.5c0,1.5,0,3,0.2,4.5C22.1,291.3,21.8,291.7,21.2,291.7
							C21.3,291.7,21.3,291.7,21.2,291.7z M22.5,273.3c-0.1,0-0.1,0-0.2,0c-0.5-0.1-0.8-0.6-0.7-1c0.5-2.3,1.1-4.6,1.8-6.9
							c0.2-0.5,0.7-0.7,1.1-0.6c0.5,0.2,0.7,0.7,0.6,1.1c-0.7,2.2-1.3,4.5-1.8,6.7C23.3,273,22.9,273.3,22.5,273.3z M28.6,255.8
							c-0.2,0-0.3,0-0.4-0.1c-0.4-0.2-0.6-0.8-0.4-1.2c1.1-2.1,2.3-4.2,3.6-6.2c0.3-0.4,0.8-0.5,1.2-0.3c0.4,0.3,0.5,0.8,0.3,1.2
							c-1.3,1.9-2.4,4-3.5,6C29.3,255.7,28.9,255.8,28.6,255.8z M39.2,240.6c-0.2,0-0.4-0.1-0.6-0.2c-0.3-0.3-0.4-0.9,0-1.2
							c1.6-1.7,3.3-3.4,5.1-5c0.3-0.3,0.9-0.3,1.2,0.1c0.3,0.3,0.3,0.9-0.1,1.2c-1.7,1.5-3.4,3.2-5,4.9
							C39.7,240.6,39.4,240.6,39.2,240.6z M53.4,228.8c-0.3,0-0.6-0.2-0.8-0.4c-0.3-0.4-0.1-1,0.3-1.2c2-1.3,4.1-2.4,6.3-3.5
							c0.4-0.2,1,0,1.2,0.4c0.2,0.4,0,1-0.4,1.2c-2.1,1-4.1,2.2-6.1,3.4C53.7,228.8,53.6,228.8,53.4,228.8z M70.2,221.2
							c-0.4,0-0.7-0.2-0.9-0.6c-0.2-0.5,0.1-1,0.6-1.1l0.5-0.1c2.1-0.6,4.3-1.2,6.5-1.5c0.5-0.1,1,0.2,1,0.7c0.1,0.5-0.2,1-0.7,1
							c-2.1,0.4-4.3,0.9-6.3,1.5l-0.4,0.1C70.4,221.2,70.3,221.2,70.2,221.2z M95.6,218.6C95.5,218.6,95.5,218.6,95.6,218.6
							c-2.4-0.2-4.7-0.3-7-0.2c-0.5,0-0.9-0.4-0.9-0.9c0-0.5,0.4-0.9,0.9-0.9c2.4,0,4.8,0,7.2,0.2c0.5,0,0.9,0.5,0.8,1
							C96.4,218.2,96,218.6,95.6,218.6z"/>
						<path class="st18" d="M110.3,221.4c-0.1,0-0.2,0-0.3,0c-1.1-0.3-2.2-0.7-3.4-1c-0.5-0.1-0.8-0.6-0.7-1.1s0.6-0.8,1.1-0.7
							c1.2,0.3,2.3,0.6,3.5,1c0.5,0.2,0.7,0.7,0.6,1.1C111,221.1,110.7,221.4,110.3,221.4z"/>
					</g>
					<g>
						<g>
							<path class="st5" d="M111.8,238.1c-0.3-0.2-0.7-0.2-1,0.1l-7.7,6.5c-4.5-1.4-9.2-2.1-14-2l-5.6-8.4c-0.2-0.3-0.5-0.4-0.9-0.3
								L71,237c-0.3,0.1-0.6,0.4-0.6,0.7l-0.8,10c-4.3,2.2-8.1,5.1-11.3,8.5l-9.9-2c-0.3-0.1-0.7,0.1-0.9,0.4l-6.2,10.4
								c-0.2,0.3-0.2,0.7,0.1,1l6.6,7.6c-1.4,4.5-2.1,9.2-2,14l-8.4,5.5c-0.3,0.2-0.4,0.5-0.3,0.9l3,11.7c0.1,0.3,0.4,0.6,0.7,0.6
								l10,0.8c2.2,4.3,5.1,8.1,8.5,11.3l-2,9.9c-0.1,0.3,0.1,0.7,0.4,0.9l10.4,6.2c0.3,0.2,0.7,0.2,1-0.1l7.7-6.5
								c4.5,1.4,9.2,2.1,14,2l5.5,8.4c0.2,0.3,0.5,0.4,0.9,0.3l11.7-3c0.3-0.1,0.6-0.4,0.6-0.7l0.8-10c4.3-2.2,8.1-5.1,11.3-8.5
								l9.9,2c0.3,0.1,0.7-0.1,0.9-0.4l6.2-10.4c0.2-0.3,0.2-0.7-0.1-1l-6.5-7.7c1.4-4.5,2.1-9.2,2-14l8.4-5.5
								c0.3-0.2,0.4-0.5,0.3-0.9l-3-11.7c-0.1-0.3-0.4-0.6-0.7-0.6l-10-0.8c-2.2-4.3-5.1-8.1-8.5-11.3l2-9.9
								c0.1-0.3-0.1-0.7-0.4-0.9L111.8,238.1z"/>
						</g>
						<g>
							<path class="st2" d="M90.1,298.9c-1.2,0-2.3-0.2-3.4-0.5c-3.1-0.9-5.6-3-7.2-5.8c-1.5-2.8-1.9-6.1-1-9.2
								c0.9-3.1,3-5.6,5.8-7.2l0,0c2.8-1.5,6.1-1.9,9.2-1c3.1,0.9,5.6,3,7.2,5.8c1.5,2.8,1.9,6.1,1,9.2c-0.9,3.1-3,5.6-5.8,7.2
								C94.1,298.4,92.1,298.9,90.1,298.9z M90.1,277.4c-1.5,0-3.1,0.4-4.5,1.2l0,0c-2.2,1.2-3.8,3.2-4.5,5.6
								c-0.7,2.4-0.4,5,0.8,7.1c1.2,2.2,3.2,3.8,5.6,4.5c2.4,0.7,5,0.4,7.2-0.8c2.2-1.2,3.8-3.2,4.5-5.6c0.7-2.4,0.4-5-0.8-7.1
								c-1.2-2.2-3.2-3.8-5.6-4.5C91.8,277.5,91,277.4,90.1,277.4z M85,277.4L85,277.4L85,277.4z"/>
						</g>
						<path class="st2" d="M89.9,317.5c-5.4,0-10.7-1.4-15.4-4.3c-7-4.1-12-10.8-14-18.6c-0.7-2.5-1-5.1-1-7.6
							c0-5.4,1.4-10.7,4.3-15.4c4.1-7,10.8-12,18.6-14l0,0c0.1,0,0.2,0,0.2,0c1.8-0.5,3.6-0.7,5.5-0.9c0.1,0,0.3,0,0.4,0
							c0.1,0,0.3,0,0.4,0l0.1,2.7c-2,0.1-3.9,0.3-5.8,0.9c-7.2,1.9-13.2,6.4-17,12.8c-2.6,4.3-3.9,9.2-3.9,14.1c0,2.3,0.3,4.6,0.9,7
							c1.9,7.2,6.4,13.2,12.8,17c6.4,3.8,13.8,4.8,21,3c7.2-1.9,13.2-6.4,17-12.8c2.6-4.3,3.9-9.2,3.9-14.1c0-2.3-0.3-4.6-0.9-7
							c-1.2-4.9-3.8-9.3-7.4-12.8l1.9-1.9c3.9,3.9,6.7,8.7,8.1,14.1c0.7,2.5,1,5.1,1,7.6c0,5.4-1.4,10.7-4.3,15.4
							c-4.1,7-10.8,12-18.6,14C95,317.2,92.5,317.5,89.9,317.5z"/>
					</g>
				</g>
				<g>
					<g>
						<path class="st18" d="M51.8,368.3c-0.3,0-0.6-0.2-0.8-0.4c-0.6-1-1.2-2-1.9-2.9c-0.3-0.4-0.2-1,0.2-1.2c0.4-0.3,1-0.2,1.2,0.2
							c0.7,1,1.4,2,2,3c0.2,0.4,0.1,1-0.3,1.2C52.1,368.2,52,368.3,51.8,368.3z"/>
						<path class="st18" d="M26.7,421.3c-0.4,0-0.8-0.3-0.9-0.8c-0.1-0.5,0.3-0.9,0.7-1c1.5-0.2,3-0.6,4.5-1
							c0.6-0.2,1.2-0.3,1.7-0.6c0.5-0.2,1,0.1,1.1,0.5c0.2,0.5-0.1,1-0.5,1.1c-0.6,0.2-1.2,0.4-1.9,0.6
							C30,420.7,28.4,421,26.7,421.3C26.8,421.3,26.8,421.3,26.7,421.3z M42.6,414.7c-0.3,0-0.5-0.1-0.7-0.3c-0.3-0.4-0.2-1,0.2-1.2
							c1.7-1.3,3.3-2.7,4.8-4.3c0.3-0.3,0.9-0.4,1.3,0c0.3,0.3,0.4,0.9,0,1.3c-1.5,1.7-3.2,3.2-5,4.5
							C43,414.7,42.8,414.7,42.6,414.7z M53.4,401.5c-0.1,0-0.3,0-0.4-0.1c-0.4-0.2-0.6-0.7-0.4-1.2c0.9-1.9,1.7-4,2.2-6
							c0.1-0.5,0.6-0.8,1.1-0.6c0.5,0.1,0.8,0.6,0.6,1.1c-0.6,2.2-1.4,4.3-2.3,6.3C54.1,401.3,53.7,401.5,53.4,401.5z M56.8,384.7
							c-0.5,0-0.9-0.4-0.9-0.9c-0.1-2.1-0.4-4.3-0.9-6.3c-0.1-0.5,0.2-1,0.7-1.1c0.5-0.1,1,0.2,1.1,0.7c0.5,2.2,0.9,4.4,1,6.7
							C57.7,384.2,57.3,384.6,56.8,384.7C56.8,384.7,56.8,384.7,56.8,384.7z"/>
						<path class="st18" d="M16,421.3c0,0-0.1,0-0.2,0c-1.2-0.2-2.4-0.4-3.6-0.7c-0.5-0.1-0.8-0.6-0.6-1.1c0.1-0.5,0.6-0.8,1.1-0.6
							c1.1,0.3,2.2,0.5,3.4,0.7c0.5,0.1,0.8,0.5,0.7,1C16.8,421,16.5,421.3,16,421.3z"/>
					</g>
					<g>
						<path class="st18" d="M-8.7,405c-0.3,0-0.6-0.2-0.8-0.4c-0.6-1-1.2-2.1-1.7-3.2c-0.2-0.4,0-1,0.4-1.2c0.4-0.2,1,0,1.2,0.4
							c0.5,1,1.1,2.1,1.7,3.1c0.3,0.4,0.1,1-0.3,1.2C-8.3,404.9-8.5,405-8.7,405z"/>
						<path class="st18" d="M-13.5,391.8c-0.4,0-0.8-0.3-0.9-0.7c-0.3-1.9-0.4-3.8-0.4-5.6c0-0.3,0-0.7,0-1c0-0.5,0.4-0.9,0.9-0.9
							c0.5,0,0.9,0.4,0.9,0.9c0,0.3,0,0.7,0,1c0,1.8,0.2,3.6,0.4,5.3c0.1,0.5-0.3,0.9-0.7,1C-13.4,391.8-13.5,391.8-13.5,391.8z
							 M-12.1,375c-0.1,0-0.2,0-0.3,0c-0.5-0.2-0.7-0.7-0.5-1.1c0.7-2.1,1.6-4.1,2.7-6.1c0.2-0.4,0.8-0.6,1.2-0.3
							c0.4,0.2,0.6,0.8,0.3,1.2c-1,1.9-1.9,3.8-2.6,5.8C-11.4,374.8-11.7,375-12.1,375z M-3,360.8c-0.2,0-0.5-0.1-0.7-0.3
							c-0.3-0.3-0.3-0.9,0-1.3c1.6-1.5,3.4-2.9,5.2-4.1c0.4-0.3,1-0.2,1.2,0.3c0.3,0.4,0.2,1-0.3,1.2c-1.7,1.2-3.4,2.5-5,3.9
							C-2.6,360.7-2.8,360.8-3,360.8z M11.6,352.4c-0.4,0-0.7-0.3-0.9-0.7c-0.2-0.5,0.1-1,0.6-1.1c2.1-0.6,4.3-1,6.5-1.3
							c0.5,0,0.9,0.3,1,0.8c0,0.5-0.3,0.9-0.8,1c-2.1,0.2-4.2,0.6-6.2,1.2C11.7,352.4,11.7,352.4,11.6,352.4z"/>
						<path class="st18" d="M31.9,352.6c-0.1,0-0.2,0-0.3,0c-1.1-0.3-2.2-0.6-3.4-0.9c-0.5-0.1-0.8-0.6-0.7-1c0.1-0.5,0.6-0.8,1-0.7
							c1.2,0.2,2.4,0.5,3.5,0.9c0.5,0.2,0.7,0.7,0.6,1.1C32.6,352.3,32.3,352.6,31.9,352.6z"/>
					</g>
					<g>
						<g>
							<path class="st5" d="M32.7,360.7c-0.2-0.1-0.3-0.1-0.5,0l-3.9,3.4c-2.3-0.7-4.7-1.1-7.2-1l-2.9-4.3c-0.1-0.2-0.3-0.2-0.5-0.2
								l-6,1.5c-0.2,0-0.3,0.2-0.3,0.4l-0.4,5.1c-2.2,1.2-4.2,2.6-5.8,4.4l-5.1-1c-0.2,0-0.3,0-0.5,0.2l-3.1,5.3
								c-0.1,0.2-0.1,0.3,0,0.5l3.4,3.9c-0.7,2.3-1.1,4.7-1,7.2l-4.3,2.9c-0.2,0.1-0.2,0.3-0.2,0.5l1.5,6c0,0.2,0.2,0.3,0.4,0.3
								l5.1,0.4c1.2,2.2,2.6,4.2,4.4,5.8l-1,5.1c0,0.2,0,0.3,0.2,0.5l5.3,3.1c0.2,0.1,0.3,0.1,0.5,0l3.9-3.4c2.3,0.7,4.7,1.1,7.2,1
								l2.9,4.3c0.1,0.2,0.3,0.2,0.5,0.2l6-1.5c0.2,0,0.3-0.2,0.3-0.4l0.4-5.1c2.2-1.2,4.2-2.6,5.8-4.4l5.1,1c0.2,0,0.3,0,0.5-0.2
								l3.1-5.3c0.1-0.2,0.1-0.3,0-0.5l-3.4-3.9c0.7-2.3,1.1-4.7,1-7.2l4.3-2.9c0.2-0.1,0.2-0.3,0.2-0.5l-1.5-6
								c0-0.2-0.2-0.3-0.4-0.3l-5.1-0.4c-1.2-2.2-2.6-4.2-4.4-5.8l1-5.1c0-0.2,0-0.3-0.2-0.5L32.7,360.7z"/>
						</g>
						<g>
							<path class="st2" d="M21.5,392.6c-0.7,0-1.3-0.1-1.9-0.3c-1.7-0.5-3.2-1.7-4.1-3.3c-0.9-1.6-1.1-3.4-0.5-5.2
								c0.5-1.7,1.7-3.2,3.3-4.1l0,0c3.3-1.8,7.5-0.6,9.3,2.7c1.8,3.3,0.6,7.5-2.7,9.3C23.8,392.3,22.6,392.6,21.5,392.6z
								 M21.5,381.6c-0.7,0-1.4,0.2-2,0.5l0,0c-1,0.5-1.7,1.4-2,2.5c-0.3,1.1-0.2,2.2,0.3,3.2c0.5,1,1.4,1.7,2.5,2
								c1.1,0.3,2.2,0.2,3.2-0.3c2-1.1,2.7-3.6,1.7-5.6C24.4,382.3,23,381.6,21.5,381.6z M18.9,380.9L18.9,380.9L18.9,380.9z"/>
						</g>
						<path class="st2" d="M21.4,402.1c-7.3,0-13.9-4.9-15.8-12.2c-0.3-1.4-0.5-2.7-0.5-4.1c0-7.3,4.9-13.9,12.2-15.8l0,0
							c1-0.3,2.2-0.4,3.2-0.5c0.1,0,0.1,0,0.2,0l0.1,2.7c-1,0-1.9,0.2-2.9,0.4l0,0c-7.3,1.9-11.7,9.3-9.8,16.6
							c1.9,7.3,9.3,11.7,16.6,9.8c6.2-1.6,10.2-7.1,10.2-13.2c0-1.1-0.2-2.2-0.4-3.4c-0.6-2.4-1.9-4.6-3.6-6.3l1.9-1.9
							c2.1,2.1,3.6,4.7,4.3,7.5c0.3,1.4,0.5,2.7,0.5,4.1c0,7.3-4.9,13.9-12.2,15.8C24.2,402,22.8,402.1,21.4,402.1z"/>
					</g>
				</g>
			</g>
			<g>
				<g>
					
						<linearGradient id="SVGID_37_" gradientUnits="userSpaceOnUse" x1="187.4407" y1="-217.3741" x2="253.282" y2="-204.9177" gradientTransform="matrix(1 0 0 -1 -939.6452 510.04)">
						<stop  offset="0" style="stop-color:#09005D"/>
						<stop  offset="1" style="stop-color:#1A0F91"/>
					</linearGradient>
					<path class="st39" d="M119,553.7c0,0-0.8,4.6-1.2,9.1c-0.2,1.8,1.2,3.3,3,3.4c6,0.2,18.8,0.7,23.4,0.5c0.7,0,1.2-0.7,0.9-1.4
						l0,0c-0.2-0.5-0.6-1-1.2-1.2l-21.2-9.7L119,553.7z"/>
					
						<linearGradient id="SVGID_38_" gradientUnits="userSpaceOnUse" x1="1058.0326" y1="-43.6606" x2="1064.9308" y2="-43.6606" gradientTransform="matrix(1 0 0 -1 -939.6452 510.04)">
						<stop  offset="0" style="stop-color:#FF928E"/>
						<stop  offset="1" style="stop-color:#FEB3B1"/>
					</linearGradient>
					<path class="st40" d="M118.4,551l0.7,5.5c0,0,3.7,1.7,6.3-0.2l-1.5-6.1L118.4,551z"/>
					
						<linearGradient id="SVGID_39_" gradientUnits="userSpaceOnUse" x1="1041.673" y1="9.091" x2="1064.4817" y2="9.091" gradientTransform="matrix(1 0 0 -1 -939.6452 510.04)">
						<stop  offset="0" style="stop-color:#09005D"/>
						<stop  offset="1" style="stop-color:#1A0F91"/>
					</linearGradient>
					<path class="st41" d="M118.9,448.6c-0.3,1.4-1.5,71,5.9,102.1c0.1,0.5-0.2,1-0.6,1.2c-1.1,0.5-3.4,1.1-6.1,1.2
						c-0.8,0-1.6-0.5-1.8-1.3c-2.1-7.2-12.3-43.5-13.7-78.1c-1.5-38.7,0-1.3,0-1.3l0.9-23.9L118.9,448.6z"/>
					
						<linearGradient id="SVGID_40_" gradientUnits="userSpaceOnUse" x1="186.542" y1="-212.6093" x2="252.3832" y2="-200.1529" gradientTransform="matrix(1 0 0 -1 -939.6452 510.04)">
						<stop  offset="0" style="stop-color:#09005D"/>
						<stop  offset="1" style="stop-color:#1A0F91"/>
					</linearGradient>
					<path class="st42" d="M94.6,556.1c0,0-1.3,2.3-2.5,8.4c-0.2,1.1,0.5,2.2,1.7,2.3c2,0.2,5,0.5,7.5,0.4c1.1,0,2-1,1.9-2.1
						c-0.3-2.2-1.1-5.9-3.7-8.7L94.6,556.1z"/>
					
						<linearGradient id="SVGID_41_" gradientUnits="userSpaceOnUse" x1="1033.1692" y1="-43.2989" x2="1039.1266" y2="-43.2989" gradientTransform="matrix(1 0 0 -1 -939.6452 510.04)">
						<stop  offset="0" style="stop-color:#FF928E"/>
						<stop  offset="1" style="stop-color:#FEB3B1"/>
					</linearGradient>
					<path class="st43" d="M93.5,549.1l1.5,8.2c0,0,1.5,1.1,4.4,0.3l-0.7-8.9L93.5,549.1z"/>
					
						<linearGradient id="SVGID_42_" gradientUnits="userSpaceOnUse" x1="1026.7588" y1="9.8533" x2="1059.1544" y2="9.8533" gradientTransform="matrix(1 0 0 -1 -939.6452 510.04)">
						<stop  offset="0" style="stop-color:#09005D"/>
						<stop  offset="1" style="stop-color:#1A0F91"/>
					</linearGradient>
					<path class="st44" d="M89.5,450.8c-6.1,36.7,1.3,90.7,3.8,101.3c0.2,0.7,0.7,1.2,1.3,1.2c1.1,0.2,2.9,0.3,4.8-0.2
						c0.6-0.2,1-0.7,1.1-1.4c0.3-8.5-0.3-61,5.4-81.7c0.3-1,0.9-2,1.8-2.6l11-7.8l0.9-12.6L89.5,450.8z"/>
					<g>
						
							<linearGradient id="SVGID_43_" gradientUnits="userSpaceOnUse" x1="1049.1294" y1="80.3917" x2="1033.1399" y2="30.6179" gradientTransform="matrix(1 0 0 -1 -939.6452 510.04)">
							<stop  offset="0" style="stop-color:#FE7062"/>
							<stop  offset="1" style="stop-color:#FF928E"/>
						</linearGradient>
						<path class="st45" d="M128.2,381.3c-18.2-0.3-38.3,4.8-38.3,4.8c-5.4,31.7-1,68.2-1,68.2c14.1,3.7,30-2.2,30-2.2
							c2.4-13.2,13.3-50.5,13.3-50.5c8.9-1.1,16.2-3.7,22.3-7.1c-4.6-5.3-6.8-12.1-7.7-16.2C140.3,380.3,133.8,381.3,128.2,381.3z"
							/>
						
							<linearGradient id="SVGID_44_" gradientUnits="userSpaceOnUse" x1="1086.4269" y1="136.2956" x2="1121.6682" y2="136.2956" gradientTransform="matrix(1 0 0 -1 -939.6452 510.04)">
							<stop  offset="0" style="stop-color:#FF928E"/>
							<stop  offset="1" style="stop-color:#FEB3B1"/>
						</linearGradient>
						<path class="st46" d="M182,354.4c-1.8-2.2-4.1-1.1-4.1-1.1c-2.7,11.3-16.8,20.5-31.2,25c0.9,4,3.1,10.8,7.7,16.2
							C178.5,380.9,182,354.4,182,354.4z"/>
					</g>
					<g>
						
							<linearGradient id="SVGID_45_" gradientUnits="userSpaceOnUse" x1="8021.0737" y1="142.2203" x2="8044.7217" y2="88.416" gradientTransform="matrix(-1 0 0 -1 8195.2529 510.04)">
							<stop  offset="0" style="stop-color:#FF928E"/>
							<stop  offset="1" style="stop-color:#FEB3B1"/>
						</linearGradient>
						<path class="st47" d="M181.6,355c0.2,0.6-2,1.5-3.2-0.9c0-1.2-0.8-6.2,0-7.1c3.7-5.1,10.9-11.4,10.9-11.4
							c1.2,1.2,0.2,2.4,0.2,2.4l-3.5,3.6c0.7,1.3,1.6,2.4,2.1,4c0.3,1.2,0.1,2.5-0.5,3.6c-0.6,1.1-1.4,2.6-2.2,3.7
							C183.7,355,181.6,355,181.6,355z"/>
						
							<linearGradient id="SVGID_46_" gradientUnits="userSpaceOnUse" x1="182.0281" y1="195.5972" x2="182.8018" y2="154.334" gradientTransform="matrix(1 0 0 -1 0 510.04)">
							<stop  offset="0" style="stop-color:#FF928E"/>
							<stop  offset="1" style="stop-color:#FEB3B1"/>
						</linearGradient>
						<path class="st48" d="M184.4,343.9l-3.2,2.7l-1,2.7l2.8,3.1c0,0,1-5.3,1.7-6.5C185.4,344.8,185,344.2,184.4,343.9z"/>
					</g>
					
						<linearGradient id="SVGID_47_" gradientUnits="userSpaceOnUse" x1="1019.1136" y1="90.0342" x2="1003.1241" y2="40.2603" gradientTransform="matrix(1 0 0 -1 -939.6452 510.04)">
						<stop  offset="0" style="stop-color:#FE7062"/>
						<stop  offset="1" style="stop-color:#FF928E"/>
					</linearGradient>
					<path class="st49" d="M96.8,403.7l-7-17.6c0,0-17,11.6-19.8,26.2c3.2,0.2,9.1,1.1,14.8,4C86.1,409.3,96.8,403.7,96.8,403.7z"/>
					
						<linearGradient id="SVGID_48_" gradientUnits="userSpaceOnUse" x1="1009.327" y1="86.4063" x2="1053.932" y2="86.4063" gradientTransform="matrix(1 0 0 -1 -939.6452 510.04)">
						<stop  offset="0" style="stop-color:#FF928E"/>
						<stop  offset="1" style="stop-color:#FEB3B1"/>
					</linearGradient>
					<path class="st50" d="M111.7,420.3c0,0-19.1,10.8-25.6,1.6c-1.4-1.9-1.7-3.8-1.3-5.6c-5.7-2.9-11.6-3.7-14.8-4
						c-0.9,4.4-0.4,9.1,2.2,13.9c11.3,20.7,42-1.2,42-1.2L111.7,420.3z"/>
					<g>
						
							<linearGradient id="SVGID_49_" gradientUnits="userSpaceOnUse" x1="1067.3828" y1="118.108" x2="1091.9059" y2="15.9284" gradientTransform="matrix(1 0 0 -1 -939.6452 510.04)">
							<stop  offset="0" style="stop-color:#4042E2"/>
							<stop  offset="1" style="stop-color:#4F52FF"/>
						</linearGradient>
						<path class="st51" d="M109.4,433.9l10.4-36.4c0.1-0.4,0.5-0.7,0.9-0.8c1.9-0.2,7.4-0.9,13.7-1.4c7.6-0.7,16.4-1.2,21.7-0.7
							c0.7,0.1,1.2,0.9,0.9,1.5c-3,6.1-15.4,30.8-21.5,38.9c-0.2,0.3-0.5,0.4-0.9,0.4l-24.2-0.2
							C109.7,435.3,109.2,434.6,109.4,433.9z"/>
						
							<linearGradient id="SVGID_50_" gradientUnits="userSpaceOnUse" x1="1082.7445" y1="134.2167" x2="1077.5217" y2="111.2818" gradientTransform="matrix(1 0 0 -1 -939.6452 510.04)">
							<stop  offset="0" style="stop-color:#09005D"/>
							<stop  offset="1" style="stop-color:#1A0F91"/>
						</linearGradient>
						<path class="st52" d="M135.5,392.2l7.5-1.3c0.4-0.1,0.7,0.3,0.6,0.7l-0.7,2.3c-0.1,0.2-0.2,0.3-0.4,0.4l-7.3,1
							c-0.4,0-0.7-0.3-0.6-0.7l0.5-2C135.1,392.4,135.3,392.2,135.5,392.2z"/>
						
							<linearGradient id="SVGID_51_" gradientUnits="userSpaceOnUse" x1="1080.0289" y1="124.5931" x2="1077.5311" y2="109.606" gradientTransform="matrix(1 0 0 -1 -939.6452 510.04)">
							<stop  offset="0" style="stop-color:#09005D"/>
							<stop  offset="1" style="stop-color:#1A0F91"/>
						</linearGradient>
						<path class="st53" d="M129.9,398.6l0.6-3.2c0.1-0.3,0.3-0.6,0.7-0.6l15.3-1.5c0.5,0,0.9,0.4,0.8,0.9l-1,4.1
							c-0.1,0.3-0.3,0.5-0.7,0.6l-14.9,0.7C130.1,399.5,129.8,399.1,129.9,398.6z"/>
						
							<linearGradient id="SVGID_52_" gradientUnits="userSpaceOnUse" x1="1050.5875" y1="91.0877" x2="1064.4725" y2="91.0877" gradientTransform="matrix(1 0 0 -1 -939.6452 510.04)">
							<stop  offset="0" style="stop-color:#FF928E"/>
							<stop  offset="1" style="stop-color:#FEB3B1"/>
						</linearGradient>
						<path class="st54" d="M112,425.1c0,0-1.5-6-0.9-8.1c0.6-2.1,1.7-4.8,5.5-4.3c3.8,0.6,8.2,2.2,8.2,2.2s-0.2,2.7-3.1,1.9
							l1.8,1.4c0,0-0.3,2.2-2.7,1l1.7,1.8c0,0-1,1.8-2.8,0.7C117.9,420.6,117,425.9,112,425.1z"/>
					</g>
					
						<linearGradient id="SVGID_53_" gradientUnits="userSpaceOnUse" x1="116.4941" y1="150.5351" x2="109.5309" y2="117.2665" gradientTransform="matrix(1 0 0 -1 0 510.04)">
						<stop  offset="0" style="stop-color:#FF928E"/>
						<stop  offset="1" style="stop-color:#FEB3B1"/>
					</linearGradient>
					<path class="st55" d="M109.7,366.4l-5.8,16.8c-0.1,0.3,0,0.6,0.3,0.7c1.6,0.9,7.3,3.4,14.1-1c0.7-0.5,1.2-1.2,1.3-2.1l1.9-14.5
						L109.7,366.4L109.7,366.4z"/>
					<g>
						
							<linearGradient id="SVGID_54_" gradientUnits="userSpaceOnUse" x1="131.8526" y1="158.1462" x2="111.7368" y2="143.4462" gradientTransform="matrix(1 0 0 -1 0 510.04)">
							<stop  offset="0" style="stop-color:#FF928E"/>
							<stop  offset="1" style="stop-color:#FEB3B1"/>
						</linearGradient>
						<path class="st56" d="M122.3,350.9c0,0,6.4,12,5.5,16.8c-0.8,4.8-8.7,4.5-15.6,0.6l-4.8-13L122.3,350.9z"/>
						
							<linearGradient id="SVGID_55_" gradientUnits="userSpaceOnUse" x1="-4855.7686" y1="2277.7449" x2="-4850.2568" y2="2246.3074" gradientTransform="matrix(0.746 -0.6659 -0.6659 -0.746 5235.2354 -1193.8112)">
							<stop  offset="0" style="stop-color:#09005D"/>
							<stop  offset="1" style="stop-color:#1A0F91"/>
						</linearGradient>
						<path class="st57" d="M112.6,362c0.3-0.1,0.4-0.5,0.2-0.7c-0.5-0.8-1.5-2.4-1.8-3.8c0,0-1.2-0.7,2.9-1.7
							c4.1-1,10.1-2.5,11.4-5.9c1.2-3.4-2-11.8-7.2-5.1c-0.2,0.3-0.6,0.3-0.8,0c-0.9-1.1-3.1-3.4-6.2-2c-2.9,1.3-3.2,3.4-3.2,4.5
							c0,0.3-0.3,0.6-0.6,0.5c-1.5-0.3-5-0.5-6.7,3.1c-1.4,3-0.5,4.7,0.3,5.5c0.3,0.3,0.2,0.7-0.2,0.8c-1,0.3-2.2,1.1-2.1,3.4
							c0.2,3.1,3.7,2.9,4.7,2.7c0.2,0,0.3,0,0.4,0.2c0.9,0.9,4.7,5,8.9,5.5c0.3,0,0.7-0.3,0.5-0.7l-1.8-5.3c-0.1-0.2,0-0.5,0.3-0.6
							L112.6,362z"/>
						
							<linearGradient id="SVGID_56_" gradientUnits="userSpaceOnUse" x1="130.249" y1="160.3406" x2="110.1332" y2="145.6406" gradientTransform="matrix(1 0 0 -1 0 510.04)">
							<stop  offset="0" style="stop-color:#FF928E"/>
							<stop  offset="1" style="stop-color:#FEB3B1"/>
						</linearGradient>
						<path class="st58" d="M113.3,362.7c0,0-4.5-3.1-4.9-0.5c-0.3,2.6,4.1,3.8,6.3,2.8L113.3,362.7z"/>
					</g>
				</g>
			</g>
		</g>
	</g>
</g>
</svg>
