<svg width="135" height="237" viewBox="0 0 135 237" fill="none" xmlns="http://www.w3.org/2000/svg">
<path d="M13.4163 8.28716H15.3573H21.0807H43.1134L124.235 8.22754H124.322V8.30703C125.984 12.2675 127.4 16.3272 128.561 20.4628C129.78 24.7927 130.583 29.229 130.959 33.7115C131.35 38.397 131.109 43.1138 130.244 47.7353C129.293 52.5259 127.57 57.1302 125.143 61.3683C123.885 63.5298 122.464 65.5916 120.89 67.5355C119.284 69.5055 117.547 71.3646 115.69 73.1C113.81 74.8671 111.839 76.5365 109.788 78.1014C107.734 79.6913 105.588 81.1884 103.495 82.7782C102.448 83.5665 101.507 84.4542 100.487 85.3419C99.4669 86.2295 98.4534 87.0576 97.4067 87.8922C95.3201 89.5616 93.2135 91.2044 91.2262 93.0526C87.0784 96.6478 83.8911 101.219 81.9521 106.354C81.0204 108.988 80.4325 111.731 80.2032 114.516C80.1436 115.178 80.0509 115.907 80.0244 116.609C79.9979 117.311 79.9714 118.013 80.0244 118.715C80.0395 120.125 80.1814 121.531 80.4483 122.915C80.9736 125.721 82.1188 128.373 83.8003 130.679C85.5306 132.985 87.4905 135.109 89.6496 137.019C93.9356 140.934 98.4865 144.676 102.839 148.717C107.191 152.758 111.45 156.971 115.558 161.429C117.653 163.636 119.613 165.968 121.427 168.411C123.251 170.886 124.837 173.527 126.163 176.301C128.844 181.923 130.491 187.982 131.025 194.187C131.566 200.478 131.195 206.815 129.926 213C129.309 216.125 128.499 219.209 127.501 222.235C126.521 225.285 125.325 228.262 123.924 231.144L123.878 231.237H10.7798L10.7335 231.164C5.43939 223.193 2.19255 214.04 1.28047 204.514C0.362844 195.365 1.70489 186.129 5.18885 177.619C8.50007 169.485 13.5986 162.199 20.1069 156.302C23.2652 153.514 26.676 151.026 30.2952 148.87C33.8194 146.684 37.3767 144.657 40.7352 142.444C44.097 140.343 47.1854 137.833 49.9299 134.972C52.5508 132.162 54.4949 128.79 55.6136 125.115C56.5941 121.528 56.7481 117.766 56.064 114.112C55.4105 110.585 54.2339 107.175 52.573 103.996C50.9844 100.935 49.0795 98.0485 46.8893 95.3844C44.7752 92.8286 42.477 90.4308 40.0132 88.2102C35.237 83.8116 30.3416 79.9629 25.943 76.0081C23.7371 74.0208 21.6504 72.0335 19.7227 69.9998C17.8544 68.0088 16.132 65.8857 14.569 63.647C11.7433 59.5414 9.56502 55.0262 8.1102 50.2592C6.83585 46.1425 6.09668 41.8789 5.91091 37.5735C5.81817 36.5931 5.85792 35.6259 5.85792 34.6787C5.85792 33.7314 5.85791 32.8106 5.94403 31.9163C6.03014 31.022 6.07652 30.1476 6.14276 29.2665C6.209 28.3855 6.38787 27.5972 6.50048 26.7956C7.23234 21.9161 8.72553 17.1817 10.9256 12.7652C11.2235 12.082 11.5643 11.4183 11.9457 10.7779L12.7605 9.39343C13.1911 8.65812 13.4229 8.28716 13.4229 8.28716L12.7605 9.4133L11.9722 10.7779C11.5999 11.4211 11.2637 12.0846 10.9653 12.7652C8.78519 17.1924 7.31005 21.933 6.59322 26.8155C6.48061 27.6105 6.34812 28.4319 6.24875 29.2732C6.14939 30.1145 6.11626 30.9955 6.05002 31.8898C5.98378 32.7841 5.98378 33.7049 5.97715 34.6455C5.97053 35.5862 5.94403 36.5534 6.03677 37.5338C6.2284 41.8249 6.97431 46.0733 8.25594 50.1731C9.70902 54.923 11.8853 59.4207 14.7081 63.5079C16.2672 65.7373 17.9875 67.8495 19.8552 69.8276C21.7763 71.8679 23.863 73.8552 26.0689 75.7895C30.4675 79.7641 35.343 83.5731 40.1523 87.9784C42.6353 90.2151 44.9511 92.6306 47.0814 95.2055C49.2837 97.889 51.1997 100.795 52.7982 103.877C54.4749 107.076 55.6628 110.508 56.3224 114.059C57.0162 117.752 56.8622 121.555 55.8719 125.181C54.7481 128.899 52.7855 132.31 50.1352 135.151C47.3773 138.028 44.2758 140.555 40.9008 142.676C37.529 144.895 33.9717 146.922 30.4542 149.108C26.8503 151.259 23.453 153.738 20.3057 156.514C13.8373 162.381 8.76871 169.625 5.4737 177.712C2.0108 186.179 0.680081 195.367 1.59844 204.468C2.51062 213.939 5.74129 223.039 11.005 230.965L10.8726 230.893H123.765L123.613 230.985C125.012 228.111 126.203 225.14 127.177 222.095C128.169 219.083 128.974 216.012 129.588 212.901C130.852 206.746 131.22 200.441 130.681 194.18C130.157 188.009 128.521 181.983 125.852 176.394C124.535 173.64 122.963 171.016 121.155 168.557C119.346 166.126 117.395 163.804 115.312 161.602C111.227 157.154 106.994 152.924 102.613 148.909C98.2679 144.875 93.7302 141.139 89.431 137.204C87.2547 135.278 85.2774 133.139 83.5287 130.818C81.8144 128.484 80.6401 125.798 80.0906 122.955C79.8254 121.55 79.6813 120.125 79.66 118.696C79.6269 117.987 79.66 117.278 79.66 116.569C79.66 115.86 79.7793 115.158 79.8323 114.456C80.0754 111.655 80.6765 108.897 81.6209 106.248C83.5767 101.068 86.7939 96.4573 90.9811 92.834C92.9684 90.9924 95.0948 89.3231 97.1815 87.6604C98.2282 86.8257 99.2549 85.9844 100.255 85.1233C101.255 84.2621 102.243 83.3347 103.276 82.5398C105.382 80.9499 107.522 79.4528 109.569 77.8696C111.615 76.3116 113.58 74.6511 115.458 72.8947C117.303 71.167 119.031 69.3192 120.632 67.3633C122.193 65.4261 123.607 63.3758 124.865 61.2291C127.278 57.0204 128.992 52.4474 129.939 47.6889C130.801 43.105 131.043 38.4262 130.661 33.7777C130.291 29.296 129.495 24.8597 128.283 20.529C127.138 16.382 125.74 12.3092 124.096 8.33353L124.209 8.40639L43.1333 8.34678H21.0873H15.3506L13.4163 8.28716Z" fill="#F0F0F0" stroke="#F0F0F0" stroke-width="0.8"/>
<path d="M119.731 38.9517C136.358 41.6875 110.146 71.1395 95.3004 82.7586C86.6887 89.4824 77.4808 96.7824 73.4002 106.904C68.7631 118.391 72.2012 131.295 69.9622 142.848C69.89 143.247 69.6698 143.603 69.3458 143.846C69.0218 144.088 68.6179 144.2 68.2153 144.157C67.8127 144.114 67.4412 143.921 67.1755 143.615C66.9097 143.31 66.7693 142.915 66.7825 142.51C66.8885 134.926 66.6897 127.347 65.4576 119.882C63.6756 109.283 59.6083 98.8227 52.2089 91.0656C46.1476 84.7261 38.2049 80.5196 31.7462 74.5974C22.3131 65.9526 12.6216 54.8038 11.6743 42.0452C11.6743 42.0452 29.7854 27.4716 39.8411 29.2933C51.5928 31.4463 63.1589 49.5772 81.3627 47.5037C94.0285 46.053 100.448 35.7852 119.731 38.9517Z" fill="#FF725E"/>
<path d="M121.208 196.578C120.791 192.418 119.678 187.715 115.988 185.754C113.756 184.562 111.033 184.694 108.582 185.337C106.131 185.979 103.832 187.099 101.408 187.821C96.588 189.238 91.4408 189.073 86.7216 187.351C82.2104 185.695 78.3417 182.714 74.1353 180.342C69.9288 177.971 65.0466 176.235 60.3831 177.394C52.3411 179.382 48.1545 189.08 40.2052 191.418C36.6678 192.451 32.872 191.868 29.2816 191.06C25.6912 190.252 22.0809 189.199 18.4044 189.338C15.5162 189.444 12.5154 190.444 10.4949 192.418L10.4419 192.478C10.1056 192.807 9.79959 193.167 9.52776 193.551C7.06349 196.863 6.66603 201.255 7.42783 205.27C8.27575 209.768 10.3757 213.921 12.628 217.902C15.2777 222.592 18.2984 227.256 22.6838 230.383C28.1025 234.245 34.9057 231.582 41.5367 232.105C56.9914 233.324 73.6186 234.152 89.0798 232.959C97.2477 232.297 104.899 233.211 111.377 228.197C115.935 224.672 118.903 219.36 120.334 213.782C121.764 208.204 121.784 202.309 121.208 196.578Z" fill="#FF725E"/>
<g opacity="0.24">
<path opacity="0.24" d="M92.0342 188.616C91.1664 189.941 90.7889 191.742 91.6302 193.094C92.4715 194.445 93.6175 195.684 93.9752 197.241C94.5515 199.678 93.0809 202.063 91.9879 204.322C89.9648 208.361 89.2009 212.914 89.7952 217.392C90.4219 221.885 92.7419 225.968 96.2805 228.806C97.8504 230.018 99.8907 230.959 101.785 230.363C103.567 229.806 104.713 227.998 105.098 226.163C105.482 224.328 105.157 222.44 104.925 220.592C103.846 211.978 104.07 203.251 105.588 194.704C105.839 193.279 106.078 191.65 105.177 190.517C104.527 189.857 103.702 189.398 102.799 189.192C99.3542 188.046 95.6379 189.318 92.0674 188.642" fill="black"/>
</g>
<path d="M2.58522 236.193C2.58522 236.193 2.27388 231.012 9.03074 228.124H127.773C127.773 228.124 133.966 231.264 134.728 236.073L2.58522 236.193Z" fill="#F0F0F0"/>
<path d="M125.249 8.91659L125.057 9.0027L13.4031 8.28727C13.4031 8.28727 13.0056 8.03555 12.416 7.56521C11.72 7.01995 11.2122 6.27041 10.9638 5.42181C10.7155 4.57321 10.7391 3.66815 11.0314 2.83367C11.3237 1.99919 11.87 1.27719 12.5935 0.769002C13.3171 0.260816 14.1816 -0.00803462 15.0658 0.000182916L123.44 0.8746C127.899 0.914346 129.303 7.00877 125.249 8.91659Z" fill="#F0F0F0"/>
<g opacity="0.24">
<path opacity="0.24" d="M107.363 51.5112C107.588 51.9418 106.747 52.8361 105.151 54.2934C103.554 55.7508 101.176 57.6652 98.2215 60.0699C94.6742 63.0007 90.9096 65.6581 86.9601 68.0191C84.5067 69.4398 81.9251 70.6263 79.2493 71.5632C77.7993 72.0644 76.3191 72.4737 74.8176 72.7887C73.2403 73.1236 71.6387 73.3319 70.0282 73.4114C66.7646 73.589 63.4972 73.1392 60.403 72.0865C57.6673 71.0916 55.0678 69.7562 52.6657 68.1119C50.4399 66.6413 48.5255 65.1839 46.7038 63.7862C44.8821 62.3884 43.2591 61.0437 41.7885 59.7718C35.9259 54.6909 32.839 50.9548 33.4352 50.2327C34.0314 49.5106 38.2047 51.8623 44.6966 55.8369L49.9961 59.0829C51.8973 60.2355 53.931 61.514 56.011 62.6931C58.0751 63.9048 60.2625 64.893 62.536 65.641C64.8624 66.3376 67.2922 66.6245 69.7169 66.4889C74.8044 66.2239 79.7395 64.4354 84.0123 62.3686C88.285 60.3017 92.1536 57.8905 95.5055 56.0092C98.1582 54.4437 100.932 53.0925 103.799 51.9683C105.899 51.233 107.171 51.0939 107.363 51.5112Z" fill="black"/>
</g>
<path d="M66.8618 156.686C67.3312 156.5 67.8552 156.505 68.3204 156.702C68.7856 156.899 69.1546 157.271 69.3475 157.738C69.5403 158.205 69.5416 158.729 69.3509 159.197C69.1602 159.664 68.793 160.038 68.3287 160.237C67.8644 160.436 67.3404 160.444 66.8702 160.26C66.4 160.075 66.0214 159.713 65.8163 159.251C65.6112 158.79 65.5963 158.266 65.7746 157.793C65.9529 157.321 66.3102 156.937 66.7691 156.726" fill="#FF725E"/>
<path d="M26.9298 69.9867C26.7846 69.8676 26.6515 69.7344 26.5323 69.5893L25.4526 68.4101C24.9955 67.8868 24.3927 67.2773 23.7766 66.5023L21.6701 63.8525C20.948 62.8324 20.1332 61.7327 19.3118 60.5404L18.0995 58.6127C17.8942 58.2815 17.6756 57.9502 17.4768 57.5991L16.8939 56.526C15.1309 53.4015 13.7497 50.0766 12.7801 46.6226C11.8058 43.1714 11.2804 39.6091 11.2168 36.0236C11.2168 35.1955 11.2632 34.394 11.2764 33.6057C11.2764 33.2148 11.2764 32.8306 11.3294 32.453C11.3824 32.0754 11.4089 31.7045 11.4487 31.3401C11.5348 30.6114 11.5878 29.9026 11.6871 29.227C11.7865 28.5513 11.9256 27.9021 12.0382 27.2993C12.2237 26.0605 12.5549 24.9807 12.7868 23.9871C12.9126 23.5101 13.012 23.0597 13.1379 22.6622L13.5022 21.5559L14.0123 20.039C14.061 19.8584 14.1276 19.683 14.211 19.5156C14.1838 19.7004 14.1394 19.8822 14.0785 20.0588C13.9659 20.443 13.8202 20.9531 13.6281 21.5957L13.2968 22.7019C13.1842 23.106 13.0915 23.5565 12.9723 24.0268C12.7603 24.9874 12.4489 26.0738 12.3098 27.339C12.2038 27.9484 12.0978 28.591 11.9852 29.2601C11.8726 29.9291 11.8461 30.6313 11.7666 31.36C11.7666 31.7243 11.6938 32.0887 11.654 32.4663C11.6143 32.8439 11.654 33.2281 11.6143 33.6123C11.6143 34.394 11.5613 35.1889 11.5679 36.0103C11.6326 39.5747 12.1512 43.1164 13.1114 46.5497C14.0758 49.9783 15.4386 53.2821 17.1721 56.3935C17.3642 56.7512 17.5563 57.1089 17.7418 57.4667C17.9273 57.8244 18.1591 58.1291 18.3579 58.4736L19.5503 60.4013C20.3584 61.6201 21.16 62.7198 21.8622 63.7134L23.929 66.3632C24.5252 67.1515 25.1147 67.7676 25.5519 68.3108L26.5853 69.5363C26.7095 69.679 26.8246 69.8295 26.9298 69.9867V69.9867Z" fill="#263238"/>
<path d="M20.6436 168.398C20.6763 168.322 20.7163 168.248 20.7628 168.179L21.1603 167.557C21.3391 167.279 21.5577 166.947 21.8227 166.55L22.24 165.887C22.4056 165.669 22.5977 165.45 22.7899 165.225L24.1147 163.635C24.6248 163.085 25.2078 162.516 25.8238 161.893C27.2522 160.518 28.7703 159.238 30.3681 158.064C33.8857 155.414 38.4234 152.765 43.3387 149.658C45.9233 148.065 48.4076 146.315 50.7778 144.418C53.3205 142.392 55.5661 140.02 57.4486 137.37C60.8942 132.076 62.7664 125.912 62.8474 119.596C62.9314 114.448 62.0692 109.329 60.3037 104.493C59.1343 101.229 57.6663 98.0802 55.9183 95.0861C55.3023 94.0196 54.7988 93.2114 54.4544 92.6616L54.0635 92.0389C53.9774 91.8998 53.9377 91.8203 53.9377 91.8203C53.9967 91.8798 54.0479 91.9466 54.09 92.019L54.514 92.6285C54.8783 93.1584 55.4016 93.9534 56.031 95.0199C57.833 97.9978 59.3416 101.144 60.5355 104.413C62.3485 109.27 63.2468 114.42 63.1853 119.603C63.1572 121.097 63.0355 122.589 62.8209 124.068C62.6063 125.615 62.2809 127.145 61.8472 128.645C60.9423 131.822 59.5357 134.835 57.6804 137.568C55.7786 140.247 53.5084 142.645 50.9368 144.689C48.5526 146.588 46.055 148.34 43.4579 149.936C38.5227 153.016 33.9784 155.64 30.4609 158.269C28.8635 159.428 27.3412 160.687 25.9033 162.039C25.2872 162.655 24.6977 163.211 24.181 163.754L22.8561 165.311C22.6574 165.55 22.4653 165.768 22.2996 165.974L21.8691 166.603L21.2066 167.59L20.7827 168.193C20.7419 168.265 20.6954 168.333 20.6436 168.398Z" fill="#F0F0F0" stroke="#F0F0F0" stroke-width="0.8"/>
<path d="M14.4827 180.104C14.4427 180.211 14.394 180.316 14.337 180.415L13.86 181.257C13.648 181.614 13.3963 182.065 13.138 182.581C12.8796 183.098 12.5484 183.708 12.2702 184.403C12.1244 184.748 11.9654 185.105 11.8065 185.476C11.6475 185.847 11.515 186.258 11.356 186.669C11.038 187.49 10.7863 188.391 10.4948 189.318C9.34262 193.471 8.94547 197.797 9.32232 202.09C9.43494 203.071 9.51443 204.011 9.68667 204.872C9.75953 205.303 9.81915 205.727 9.90527 206.124C9.99139 206.522 10.0841 206.906 10.1702 207.27C10.316 208.006 10.5346 208.648 10.6936 209.218C10.8526 209.788 11.0115 210.278 11.1573 210.675L11.4686 211.59C11.5133 211.693 11.5423 211.802 11.5547 211.914C11.4909 211.822 11.4397 211.722 11.4024 211.616C11.303 211.371 11.1838 211.079 11.0314 210.722C10.8312 210.25 10.6565 209.768 10.5081 209.278C10.3292 208.708 10.0974 208.065 9.93176 207.33C9.83902 206.966 9.74629 206.581 9.64692 206.184C9.54755 205.787 9.48793 205.356 9.40181 204.925C9.21633 204.051 9.12359 203.11 9.00436 202.123C8.58968 197.803 8.98966 193.444 10.1835 189.272C10.4816 188.318 10.7466 187.411 11.0844 186.589C11.25 186.178 11.3825 185.774 11.5547 185.397L12.0449 184.317C12.3364 183.655 12.7074 183.038 12.9657 182.508C13.1992 182.053 13.4579 181.61 13.7408 181.184L14.2707 180.369C14.4032 180.19 14.4695 180.097 14.4827 180.104Z" fill="#F0F0F0" stroke="#F0F0F0" stroke-width="0.8"/>
<path d="M96.38 196.029L96.2475 196.121L95.8368 196.38L94.2271 197.347L93.0612 198.009C92.624 198.254 92.1404 198.48 91.6237 198.738C90.577 199.241 89.4244 199.884 88.0598 200.401L85.94 201.268C85.2047 201.56 84.4031 201.792 83.5949 202.07C81.9852 202.66 80.1966 203.083 78.3352 203.567C70.1621 205.481 61.6842 205.707 53.4209 204.23C51.5264 203.845 49.7245 203.514 48.0817 203.011C47.2602 202.772 46.4521 202.587 45.6969 202.348L43.5374 201.56C42.1529 201.116 40.9605 200.54 39.8939 200.089C39.364 199.857 38.8672 199.652 38.4233 199.427L37.2177 198.798L35.5616 197.916L35.1377 197.678L34.9985 197.592C34.9985 197.592 35.0582 197.592 35.1575 197.652L35.5947 197.857L37.2773 198.678L38.4896 199.274C38.94 199.486 39.4435 199.679 39.9734 199.904C41.04 200.328 42.2324 200.891 43.6235 201.315L45.7565 202.09C46.5117 202.342 47.3199 202.52 48.1413 202.752C49.7775 203.242 51.5727 203.554 53.4408 203.931C61.6658 205.356 70.092 205.131 78.2292 203.269C80.084 202.792 81.866 202.388 83.4757 201.812C84.2839 201.54 85.0788 201.321 85.8141 201.03L87.9339 200.189C89.2985 199.685 90.4578 199.063 91.5044 198.579C92.0211 198.327 92.5113 198.109 92.9485 197.916L94.1277 197.254L95.7639 196.34L96.1945 196.115C96.327 196.042 96.38 196.022 96.38 196.029Z" fill="#263238"/>
<path d="M103.289 55.8237C103.249 55.8717 103.202 55.9141 103.15 55.9496L102.713 56.3073C102.309 56.6319 101.746 57.089 101.024 57.6322C99.5532 58.7981 97.4201 60.4873 94.724 62.5011C91.5865 64.9029 88.2961 67.098 84.8736 69.0725C82.8382 70.2115 80.7163 71.1883 78.5274 71.9938C76.1664 72.8529 73.7035 73.4007 71.2009 73.6234C66.3353 73.8965 61.4834 72.8868 57.1307 70.6954C55.2483 69.7393 53.4315 68.6594 51.6921 67.4628C50.0757 66.3234 48.5985 65.2171 47.2935 64.1506C44.6438 62.044 42.6167 60.2621 41.1858 59.0432L39.5496 57.6256L39.1323 57.2546L38.9932 57.1155C38.9932 57.1155 39.0528 57.1155 39.1522 57.2215L39.596 57.5726L41.2719 58.9372C42.7293 60.1296 44.8094 61.8784 47.4459 63.9585C48.7707 64.9985 50.2347 66.0915 51.8577 67.2176C53.591 68.3936 55.3988 69.4558 57.2698 70.3973C61.5791 72.5453 66.3735 73.5339 71.181 73.2657C73.6536 73.0464 76.0874 72.5076 78.4214 71.6626C80.5954 70.8678 82.704 69.9043 84.7278 68.781C88.1452 66.8424 91.4394 64.6942 94.5915 62.3487C97.2943 60.3614 99.4472 58.7053 100.951 57.5726L102.68 56.2477L103.137 55.9165C103.183 55.8781 103.234 55.8468 103.289 55.8237Z" fill="#263238"/>
<g opacity="0.24">
<path opacity="0.24" d="M43.5439 201.593C46.6839 199.169 51.0957 199.752 54.9776 200.573C58.8595 201.395 62.7679 202.713 66.6961 202.163C69.6572 201.746 72.3732 200.295 75.3078 199.659C78.2424 199.023 81.7732 199.493 83.3962 202.004C70.4245 206.184 56.4465 206.04 43.5638 201.593" fill="black"/>
</g>
</svg>
