<?xml version="1.0" encoding="utf-8"?>
<!-- Generator: Adobe Illustrator 24.3.0, SVG Export Plug-In . SVG Version: 6.00 Build 0)  -->
<svg version="1.1" id="Layer_1" xmlns="http://www.w3.org/2000/svg" xmlns:xlink="http://www.w3.org/1999/xlink" x="0px" y="0px"
	 viewBox="0 0 750 645.7" style="enable-background:new 0 0 750 645.7;" xml:space="preserve">
<style type="text/css">
	.st0{clip-path:url(#SVGID_3_);}
	.st1{fill:#FFFFFF;}
	.st2{clip-path:url(#SVGID_5_);}
	.st3{opacity:0.3;fill:#DEE5F8;enable-background:new    ;}
	.st4{opacity:0.8;fill:#DEE5F8;enable-background:new    ;}
	.st5{clip-path:url(#SVGID_7_);}
	.st6{fill:#DEE5F8;}
	.st7{opacity:0.4;fill:#FFFFFF;enable-background:new    ;}
	.st8{clip-path:url(#SVGID_9_);}
	.st9{fill:#1F3C88;}
	.st10{opacity:0.1;fill:#DEE5F8;enable-background:new    ;}
	.st11{fill:#102048;}
	.st12{fill:#F9B384;}
	.st13{opacity:0.3;}
	.st14{fill:#E28B6D;}
	.st15{fill:#ACBFEE;}
	.st16{fill:#6F3428;}
	.st17{fill:#BB9132;}
	.st18{fill:#FBC343;}
	.st19{opacity:0.6;fill:#FFFFFF;enable-background:new    ;}
	.st20{opacity:0.15;fill:#102048;enable-background:new    ;}
	.st21{fill:#708CD5;}
</style>
<g>
	<defs>
		<rect id="SVGID_2_" width="750" height="645.7"/>
	</defs>
	<clipPath id="SVGID_3_">
		<use xlink:href="#SVGID_2_"  style="overflow:visible;"/>
	</clipPath>
	<g class="st0">
		<g>
			<rect id="SVGID_1_" x="-134.8" y="4" class="st1" width="956.5" height="637.7"/>
		</g>
		<g>
			<defs>
				<rect id="SVGID_4_" x="-134.8" y="4" width="956.5" height="637.7"/>
			</defs>
			<clipPath id="SVGID_5_">
				<use xlink:href="#SVGID_4_"  style="overflow:visible;"/>
			</clipPath>
			<g class="st2">
				<path class="st3" d="M873.7,511.9c-1.4-9.4,1.1-19,6.9-26.6c14.5-19,21.5-41.6,18.2-64.6c-7.8-53.3-68.5-88.5-135.5-78.7
					c-45,6.6-81.4,31.8-98.2,63.7c-6.6,12.6-19.9,20.2-34.1,19c-5.3-0.4-10.7-0.3-16.2,0.5c-13.6,2-25.7,7.7-34.8,15.8
					c-8.7,7.7-20.7,10.5-31.9,7.7c-15.4-3.8-33.6-4.6-52.6-1.8c-21.4,3.1-40.4,10.3-54.7,19.8c-10,6.6-22.5,8.1-33.5,3.4
					c-8.3-3.5-17.6-4.9-27.1-3.5c-12.7,1.8-23.6,8.3-31.4,17.5c-6,7.1-14.3,12-23.6,13.1c-0.4,0.1-0.9,0.1-1.4,0.2
					c-1-0.9-2-1.8-2.9-2.8c-8.1-8.5-19-14.3-31.4-15.8c-8.5-1-16.8,0.1-24.4,3c-13.7,5.2-29,3.6-41.8-3.6
					c-14.4-8.1-32.5-14-52.5-16.4c-17.6-2.1-34.4-1.2-49,2.1c-14.1,3.2-29.1,0.4-40.7-8.2c-9.2-6.8-20.5-11.4-33.1-12.9
					c-3.8-0.4-7.6-0.6-11.4-0.4c-17.7,0.7-34.1-8.3-43.6-23.2c-19.1-29.8-55.5-52.3-99.3-57.5c-69-8.2-130.1,29.6-136.6,84.4
					c-2.6,22.3,4.2,44,17.9,62.5c7.6,10.2,11.2,22.8,9.7,35.4l-8.9,74.9c-3.2,26.9,16,51.3,42.9,54.5l504.1,59.8
					c18,2.1,35-5.8,45.1-19.4l489.1-71.4c19.4-2.8,32.8-20.8,30-40.2L873.7,511.9z"/>
				<g>
					<path class="st4" d="M944.7,518.1c-2.5-40.7-45.9-71.2-97.1-68.1c-43.4,2.6-78.4,28.5-86.6,61.1c-8.4-5.5-19.2-8.5-30.7-7.9
						c-16.1,1-29.8,8.9-37.4,20.1c-13.1-8.2-32.6-12.8-54-11.4c-24,1.4-44.7,9.9-56.3,21.5c-7.7-9.2-19.3-14.8-32-14
						c-13.6,0.8-25.2,8.7-31.5,20.1c-10.7-1.2-22.7-0.4-35,3c-34.1,9.4-56.9,34.6-50.9,56.2c4,14.6,20.2,23.8,40.8,25.4l5,83.7
						l446.8-26.8l-6.5-107.8C936,558.6,946,539,944.7,518.1z"/>
					<path class="st4" d="M-258,558.8c0.4-40.7,42.3-73.4,93.6-72.9c43.5,0.4,79.7,24.5,89.6,56.7c8.2-6,18.7-9.5,30.3-9.4
						c16.1,0.2,30.2,7.4,38.4,18.2c12.7-8.8,31.9-14.4,53.4-14.2c24,0.2,45.1,7.6,57.3,18.6c7.2-9.6,18.6-15.7,31.2-15.6
						c13.6,0.1,25.6,7.5,32.5,18.4c10.6-1.8,22.7-1.5,35.1,1.3c34.6,7.7,58.6,31.7,53.7,53.6c-3.3,14.8-19,24.8-39.4,27.4l-0.8,83.9
						l-447.6-4.3l1.1-108C-247.3,598.8-258.2,579.8-258,558.8z"/>
				</g>
			</g>
		</g>
		<g>
			<defs>
				<rect id="SVGID_6_" x="-134.8" y="4" width="956.5" height="637.7"/>
			</defs>
			<clipPath id="SVGID_7_">
				<use xlink:href="#SVGID_6_"  style="overflow:visible;"/>
			</clipPath>
			<g class="st5">
				<g>
					<g>
						<path class="st6" d="M663.5,257.7c0,1.2-0.2,2.4-0.6,3.4h-37.1c0,0,0-0.1-0.1-0.1c0,0,0,0.1,0,0.1c0,0-1,0-2.8,0
							c-18.4,0.1-120.9,0.7-120.9-0.2c0-10.5,8-18.9,17.9-18.9c2.3,0,4.5,0.4,6.5,1.3c1.9-1.6,4.3-2.6,6.9-2.6c3.8,0,7.1,2,9.1,5
							c0-0.1,0.1-0.1,0.1-0.2c1.9-4.1,5.6-7.5,10.5-9.8c3.9-1.8,8.4-2.9,13.3-2.9c1.4,0,2.8,0.1,4.1,0.3c5.2-10.1,15.3-17,27-17
							c14.9,0,27.4,11.3,30.1,26.2c1.7-1.1,3.6-1.7,5.8-1.7c4.2,0,7.9,2.6,9.8,6.3c1.8-0.7,3.9-1,6-1c5.8,0,10.7,2.7,13.1,6.6
							C663,254.1,663.5,255.8,663.5,257.7z"/>
					</g>
					<path class="st7" d="M662,252.6c-4.7-1.3-9.8-1.2-14.7-1.1c-11,0.1-22.1,0.3-33.1,0.4c-13.2,0.2-25-7.4-38.5-6.2
						c-6.5,0.6-13.1,3.3-19.3,3.6c-4.9,0.3-10.9-0.6-14-3.6c1.9-4.1,5.6-7.5,10.5-9.8c3.9-1.8,8.4-2.9,13.3-2.9
						c1.4,0,2.8,0.1,4.1,0.3c5.2-10.1,15.3-17,27-17c14.9,0,27.4,11.3,30.1,26.2c1.7-1.1,3.6-1.7,5.8-1.7c4.2,0,7.9,2.6,9.8,6.3
						c1.8-0.7,3.9-1,6-1C654.7,246,659.6,248.7,662,252.6z"/>
				</g>
				<g>
					<path class="st6" d="M183.4,328.5c0,0.8-0.2,1.6-0.4,2.3h-24.3c0,0,0,0-0.1-0.1c0,0,0,0,0,0.1c0,0-81.2,0.5-81.2-0.1
						c0-6.9,5.2-12.4,11.7-12.4c1.5,0,3,0.3,4.3,0.9c1.2-1.1,2.8-1.7,4.5-1.7c2.5,0,4.7,1.3,6,3.3c1.8-3.9,6-6.9,11.3-7.9
						c1.4-0.3,2.8-0.4,4.3-0.4c0.9,0,1.8,0.1,2.7,0.2c3.4-6.6,10.1-11.2,17.7-11.2c9.8,0,17.9,7.4,19.8,17.2
						c1.1-0.7,2.4-1.1,3.8-1.1c2.8,0,5.2,1.7,6.4,4.1c1.2-0.4,2.6-0.7,4-0.7C179.1,320.8,183.4,324.2,183.4,328.5z"/>
					<path class="st7" d="M183.4,328.5c0,0.8-0.2,1.6-0.4,2.3h-14.1c-0.9-1.3-1.5-2.9-2.6-4.1c-4.8-5.5-14.9-1.1-20.7-5.5
						c-1.1-0.8-1.9-1.8-3-2.6c-3.4-2.2-7.9-0.8-11.8,0.2c-4,1.1-8.5,1.7-12.1-0.4c-1.9-1.1-3.4-3.4-3.6-5.6c1.4-0.3,2.8-0.4,4.3-0.4
						c0.9,0,1.8,0.1,2.7,0.2c3.4-6.6,10.1-11.2,17.7-11.2c9.8,0,17.9,7.4,19.8,17.2c1.1-0.7,2.4-1.1,3.8-1.1c2.8,0,5.2,1.7,6.4,4.1
						c1.2-0.4,2.6-0.7,4-0.7C179.1,320.8,183.4,324.2,183.4,328.5z"/>
				</g>
				<g>
					<path class="st6" d="M259.8,150.2c0,1-119.9,0.2-119.9,0.2c0,0,0,0,0-0.1c0,0-0.1,0-0.1,0.1h-36c-0.4-1.1-0.6-2.2-0.6-3.3
						c0-6.2,6.3-11.3,14.1-11.3c2.1,0,4,0.4,5.8,1c1.8-3.6,5.4-6.1,9.5-6.1c2,0,4,0.6,5.6,1.7c2.7-14.5,14.8-25.4,29.2-25.4
						c0.1,0,0.2,0,0.3,0c11.2,0.1,20.9,6.8,25.9,16.5c1.3-0.2,2.6-0.3,4-0.3c10.7,0,19.8,5.2,23.1,12.4c1.9-2.9,5.2-4.9,8.8-4.9
						c2.5,0,4.8,0.9,6.7,2.5c1.9-0.8,4.1-1.3,6.3-1.3c6.9,0,12.9,4.3,15.7,10.5C259.2,144.8,259.8,147.4,259.8,150.2z"/>
					<path class="st7" d="M258.1,142.4c-5.4,1.8-11.5,2-17.2,2.2c-13.5,0.3-27.8,0.4-39.3-6.7c-4-2.5-7.5-5.7-11.8-7.6
						c-7.2-3.1-16.4-2.3-21.6-8c-3.4-3.7-4-9.7-1.4-14.1c0.3-0.4,0.6-0.9,1-1.3c11.2,0.1,20.9,6.8,25.9,16.5c1.3-0.2,2.6-0.3,4-0.3
						c10.7,0,19.8,5.2,23.1,12.4c1.9-2.9,5.2-4.9,8.8-4.9c2.5,0,4.8,0.9,6.7,2.5c1.9-0.8,4.1-1.3,6.3-1.3
						C249.4,131.9,255.4,136.2,258.1,142.4z"/>
				</g>
			</g>
		</g>
		<g>
			<defs>
				<rect id="SVGID_8_" x="-134.8" y="4" width="956.5" height="637.7"/>
			</defs>
			<clipPath id="SVGID_9_">
				<use xlink:href="#SVGID_8_"  style="overflow:visible;"/>
			</clipPath>
			<g class="st8">
				<g>
					<polygon class="st9" points="644.1,732.4 162.9,734.8 52.6,735.4 101.5,637.6 151.9,593.3 220.7,571.9 252.5,528.7 
						397.2,528.7 453.8,575.9 538.6,603.4 588.2,649.8 589.3,651.6 642.6,730.2 					"/>
					<polygon class="st10" points="642.6,730.2 605.7,726.2 519.1,669.2 410.9,652.9 377.3,606.3 372.5,572.4 328.5,561.3 
						311.5,528.7 397.2,528.7 453.8,575.9 538.6,603.4 588.2,649.8 589.3,651.6 					"/>
					<polygon class="st11" points="254.6,601 183.3,642.7 162.9,734.8 52.6,735.4 101.5,637.6 151.9,593.3 220.7,571.9 252.5,528.7 
											"/>
				</g>
				<g>
					<g>
						<path class="st12" d="M369.1,512.5l0.1-11.9l-17.2,1.2l-0.5,9.8C357,512.8,363.3,513,369.1,512.5z"/>
						<path class="st11" d="M387.8,528.6c-4.7-7.7-11.1-10.2-18.7-11.2l0-5c-5.9,0.6-12.1,0.3-17.6-0.9l-0.9,17L387.8,528.6
							L387.8,528.6z"/>
					</g>
					<g>
						<path class="st11" d="M283.7,513.6l-1.6,3.6c-7.6,1-14.4,5.1-20.7,11.4h36.1l3.9-14.9C295.2,514.7,289.3,514.6,283.7,513.6z"
							/>
						<path class="st12" d="M301.3,513.6l3.1-11.9l-15.2-0.8l-5.5,12.7C289.3,514.6,295.2,514.7,301.3,513.6z"/>
					</g>
					<path class="st11" d="M377.1,327.8c9.1,59,6.5,117.7-6.1,177h-21.6c2.6-38.5,4.6-84.2-1.5-114.5l-41.3,115h-23.7l39-163.7
						l13.4-26.3l31.4-3.8L377.1,327.8z"/>
					<path class="st12" d="M405.9,201.9l5.8-17.5l15.8,3.7c1.2,5.8-5.9,14.7-11.2,21.4L405.9,201.9z"/>
					<polygon class="st12" points="352.8,264.2 334.6,264.5 332.8,240.7 332.6,237.8 350.9,237.7 351.5,246.7 					"/>
					<path class="st11" d="M351.4,245.1c-5.9,4.2-13.7,1.6-18.6-4.4l-0.2-2.8l18.2-0.2L351.4,245.1z"/>
					<path class="st12" d="M347.2,243.1c-9.2,2.1-19.5-3.8-23.5-11.6l-0.5-14.1l5.2-7.3l21.9,1.9c-0.1,0-0.1,0.3,0,0.9
						c0.3,1.4,1.1,4.3,1.9,7.8C353.9,229.1,355.5,241.2,347.2,243.1z"/>
					<path class="st1" d="M331.7,255.2c0,0,13.6,10.8,25.3-4.6l22.3,74.2c-13.7,9.7-31,13-51.7,10.3L331.7,255.2z"/>
					<g class="st13">
						<path class="st9" d="M334.6,264.5c1.9,0.7,3.8,1.1,5.7,1.3c1.9,0.2,3.8,0.2,5.7-0.2c1.8-0.4,3.7-1,5.4-1.9
							c0.9-0.4,1.7-1,2.5-1.5c0.8-0.5,1.6-1.2,2.4-1.8c-0.6,0.8-1.3,1.6-2,2.3c-0.8,0.6-1.5,1.4-2.4,1.9c-1.7,1.2-3.7,1.9-5.7,2.3
							C342.3,267.6,337.9,266.7,334.6,264.5z"/>
					</g>
					<path class="st9" d="M405.3,198.7c-12.2,20.7-24.2,38.9-35,47.5c-1.6,1.3-3.6,1.8-5.7,1.8c-4-0.2-8.3,0.3-12.9,1.4
						c1,37.1,4.5,71.5,17.1,92.6c7.6-2.2,16.8-5.7,21.9-10c-4.1-14.1-9.1-34.3-12.7-52l40.5-72.3L405.3,198.7z"/>
					<path class="st14" d="M352,220.5c-13.9,7.9-25.5-6.5-25.5-6.5l23.7-1.2C350.4,214.1,351.2,217,352,220.5z"/>
					<path class="st11" d="M326.7,228.7c1.7-2.2,2.5-5.9,1-13.4c5.1,5.7,12.6,7.1,23.7,2.2c0,0,7.2-2.8,5.5-10.1
						c-1.5-6.6-7-10.1-11.4-4.8c-9.8-2.9-19.5-3.4-23.8,5.5c0,0-13.8,7.2-2,18.8L326.7,228.7z"/>
					<g>
						<polygon class="st9" points="306.6,382 304.2,381.4 306.7,370.3 290.3,366.3 288.1,376.5 285.8,375.9 288.4,363.4 
							309.6,368.5 						"/>
					</g>
					<path class="st12" d="M296.9,346.9c-0.4,0.6-1.9,12-1.9,12s-6.6,6.2-2.2,10c4.5,3.8,9.9,3.7,12.5,0.9c0.9-2.8,1-6-0.1-9.9
						l2.6-12.7L296.9,346.9z"/>
					<polygon class="st15" points="318.8,381.2 312.2,408.9 309.7,419.6 267.2,403.7 272.8,380.3 275.4,369.2 					"/>
					<g>
						<polygon class="st16" points="437.8,196.9 415.3,210.5 414.3,202.6 431.3,192.3 						"/>
						<polygon class="st17" points="425.7,195.7 419.9,199.2 406.1,179.7 414.7,174.5 						"/>
						<path class="st18" d="M415.9,173.8l-10.9,6.6c-2.4,1.5-5.6,1-7.4-1.2l-18.2-22l27.7-16.8l11.1,26.3
							C419.3,169.3,418.3,172.3,415.9,173.8z"/>
						<g>
							<path class="st18" d="M414.5,159.9l-1.5-0.6c4.2-10,3.4-18.2,0.4-20c-1.6-0.9-3.8,0.2-6.1,3l-1.3-1c4-5.1,7-4.1,8.2-3.4
								C418,140,419.1,148.9,414.5,159.9z"/>
						</g>
						<g>
							<path class="st18" d="M392.9,173c-11.9-1.1-19.2-6.1-19.4-10.5c-0.1-1.3,0.5-4.5,6.8-5.6l0.3,1.6c-3.6,0.7-5.6,2.1-5.5,4
								c0.2,3.5,7.1,8,17.9,8.9L392.9,173z"/>
						</g>
						<path class="st19" d="M403,154.6c-1-1.7-0.9-3.5,0.1-4c1-0.6,2.6,0.3,3.6,1.9c1,1.7,0.9,3.5-0.1,4
							C405.5,157.1,403.9,156.2,403,154.6z"/>
					</g>
					<path class="st12" d="M427.5,187.7c0.4,2.8-1.4,5.3-5.1,5.3c-2.4,0-5.6-3.2-6.3-7c-0.6-3.2,0.6-5.2,2.9-6.1
						C421.2,178.9,426.7,182.4,427.5,187.7z"/>
					<g>
						<g>
							
								<rect x="363.9" y="130.5" transform="matrix(0.3005 -0.9538 0.9538 0.3005 121.1003 446.8276)" class="st18" width="2.6" height="20.7"/>
						</g>
						<g>
							
								<rect x="387.1" y="119.8" transform="matrix(0.1739 -0.9848 0.9848 0.1739 209.1225 491.3778)" class="st18" width="20.7" height="2.6"/>
						</g>
						<g>
							
								<rect x="376.3" y="115.1" transform="matrix(0.8422 -0.5391 0.5391 0.8422 -8.0667 223.3667)" class="st18" width="2.6" height="20.7"/>
						</g>
					</g>
					<path class="st9" d="M320.4,301.5l-3.3,49c18.1-0.8,30.3-6.8,30.3-6.8c1.6-29.2-2.2-62-13.7-91.4
						c-29.4,10.9-37.7,47.1-42.1,100.9l17.2,2L320.4,301.5z"/>
					<path class="st12" d="M327,233.6c-5.5,2-9.1,1.5-9.4-3.8c-0.2-3,3-5.5,5.7-4.2c1.2,0.5,2.3,1.6,3.4,3.1L327,233.6z"/>
					<path class="st20" d="M312.2,408.9l-2.5,10.7l-42.5-16l5.6-23.4C278,391.1,289.1,404.5,312.2,408.9z"/>
					<path class="st11" d="M374.4,263.1c0.7,2.3,1.4,4.7,2,7c0.6,2.4,1.2,4.7,1.8,7.1c0.5,2.4,1.1,4.8,1.5,7.1
						c0.4,2.4,0.9,4.8,1.2,7.2l-0.6,0.1c-0.8-2.3-1.4-4.7-2-7c-0.6-2.4-1.2-4.7-1.7-7.1c-0.5-2.4-1.1-4.8-1.5-7.1
						c-0.5-2.4-0.9-4.8-1.3-7.2L374.4,263.1z"/>
					<path class="st11" d="M321.2,285c0.1,2.4,0.1,4.7,0,7c0,2.4-0.1,4.7-0.2,7c-0.1,2.4-0.3,4.7-0.4,7c-0.2,2.3-0.4,4.7-0.7,7
						l-0.6,0c-0.1-2.4-0.1-4.7-0.1-7c0-2.4,0.1-4.7,0.3-7s0.3-4.7,0.4-7c0.2-2.3,0.4-4.7,0.7-7L321.2,285z"/>
					<path class="st21" d="M343.9,400.5c0.7-2.7,1.6-5.3,2.4-8s1.8-5.3,2.6-7.9c0.9-2.6,1.8-5.2,2.8-7.8c1-2.6,2-5.2,3.1-7.7
						l0.6,0.2c-0.7,2.7-1.5,5.3-2.4,8c-0.9,2.6-1.8,5.3-2.6,7.9c-1,2.6-1.8,5.2-2.8,7.8c-1,2.6-2,5.2-3.1,7.7L343.9,400.5z"/>
					<path class="st11" d="M323.7,230.7c-0.3-0.4-0.5-0.8-0.8-1.2s-0.5-0.8-0.9-1c-0.3-0.3-0.6-0.4-0.9-0.4c-0.4,0-0.7,0.4-1.1,0.7
						l-0.3-0.2c0.2-0.5,0.4-1,1.1-1.3c0.7-0.3,1.4,0,1.8,0.4c0.8,0.8,1.2,1.8,1.4,2.8L323.7,230.7z"/>
					<path class="st12" d="M415.8,188.6c0.6-2.2,0.3-4.3-0.7-4.5c-1-0.3-2.5,0.8-3.1,3c-0.6,2.2-1.3,5.5,0.3,6.2
						C415,194.5,415.2,190.8,415.8,188.6z"/>
				</g>
			</g>
		</g>
	</g>
</g>
</svg>
