<svg width="763" height="1004" viewBox="0 0 763 1004" fill="none" xmlns="http://www.w3.org/2000/svg">
<path d="M263.435 484.649C263.435 484.649 276.932 496.925 278.875 498.622C280.818 500.318 289.236 510.234 288.891 513.41C288.547 516.585 287.844 518.574 285.418 519.92C282.991 521.265 282.532 526.711 278.566 529.058C276.069 530.538 273.446 531.792 270.726 532.804C270.23 533.534 269.572 534.139 268.804 534.575C268.037 535.01 267.179 535.263 266.298 535.314C263.448 535.374 260.852 534.855 256.572 528.181C254.254 524.946 252.632 521.265 251.808 517.372L247.381 502.412L263.435 484.649Z" fill="white"/>
<path d="M268.375 536.352C269.659 535.879 270.786 535.058 271.63 533.981C274.286 532.962 276.851 531.719 279.298 530.266C281.503 528.739 283.2 526.587 284.171 524.086C284.594 522.952 285.282 521.934 286.177 521.118C287.463 520.313 288.522 519.194 289.256 517.867C289.989 516.539 290.373 515.046 290.369 513.529C290.897 509.403 281.364 498.751 279.857 497.511C277.87 495.861 264.593 483.69 264.454 483.556C264.165 483.306 263.791 483.176 263.409 483.192C263.031 483.176 262.661 483.307 262.377 483.556L246.341 501.283C246.179 501.471 246.067 501.697 246.014 501.939C245.961 502.182 245.969 502.434 246.038 502.673L250.455 517.605C251.317 521.63 253.004 525.434 255.407 528.776C259.651 535.432 262.56 536.665 266.385 536.597C267.057 536.621 267.729 536.538 268.375 536.352ZM263.517 486.697C266.757 489.645 276.228 498.304 277.956 499.74C280.323 501.684 287.714 511.199 287.466 513.18C287.068 516.375 286.381 517.717 284.721 518.639C283.282 519.682 282.187 521.132 281.579 522.802C280.843 524.801 279.534 526.538 277.815 527.797C275.404 529.211 272.878 530.42 270.264 531.409C269.949 531.521 269.68 531.734 269.501 532.015C269.138 532.541 268.663 532.978 268.109 533.296C267.555 533.613 266.936 533.802 266.3 533.848C264.205 533.885 262.02 533.923 257.896 527.347C255.702 524.275 254.151 520.793 253.334 517.108L249.081 502.728L263.517 486.697Z" fill="#2E353A"/>
<path d="M360.415 909.292C360.415 909.292 378.675 924.071 380.286 928.633C381.897 933.195 368.892 947.225 363.123 952.683C357.353 958.14 346.031 964.826 336.645 969.728C327.259 974.63 308.148 985.898 311.399 976.077C314.651 966.255 344.193 932.979 344.86 930.025C345.947 927.103 347.332 924.301 348.994 921.663L360.415 909.292Z" fill="white"/>
<path d="M318.432 980.251C324.144 977.97 329.688 975.288 335.022 972.225L337.332 970.982C350.379 963.993 359.385 958.186 364.097 953.713C364.921 952.933 383.993 934.807 381.644 928.154C379.947 923.347 363.219 909.707 361.324 908.146C361.037 907.923 360.677 907.814 360.314 907.84C359.951 907.867 359.611 908.027 359.359 908.29L347.947 920.688C346.108 923.506 344.602 926.528 343.461 929.694C343.078 930.685 338.427 936.542 333.927 942.223C324.312 954.261 312.381 969.255 310.161 975.597C309.355 977.898 309.548 979.57 310.759 980.578C311.971 981.586 314.658 981.584 318.432 980.251ZM360.641 911.228C367.61 916.952 377.993 926.205 379.038 929.165C380.083 932.125 370.992 943.398 362.249 951.678C357.661 955.985 348.898 961.614 336.059 968.499L333.776 969.733C329.057 972.285 314.704 980.071 312.707 978.394C312.707 978.394 312.515 977.851 312.975 976.559C315.02 970.675 327.29 955.256 336.234 943.913C343.452 934.859 346.017 931.571 346.341 930.326C347.384 927.54 348.713 924.87 350.308 922.359L360.641 911.228Z" fill="#2E353A"/>
<path d="M352.747 945.442L350.822 952.964C348.788 961.157 344.767 968.724 339.115 974.995C330.324 984.696 315.965 997.31 299.936 998.449C273.654 1000.31 321.101 942.659 321.101 942.659C321.101 942.659 347.855 950.01 352.747 945.442Z" fill="white"/>
<path d="M310.351 997.673C322.408 993.416 333.008 983.992 340.189 975.959C345.992 969.528 350.133 961.775 352.25 953.376L354.166 945.827C354.254 945.535 354.246 945.222 354.145 944.934C354.043 944.646 353.852 944.398 353.6 944.225C353.329 944.066 353.014 943.998 352.702 944.032C352.389 944.065 352.095 944.198 351.864 944.411C348.898 947.168 332.378 944.236 321.596 941.293C321.328 941.223 321.045 941.234 320.783 941.326C320.522 941.419 320.294 941.588 320.13 941.811C316.554 946.128 285.427 984.606 291.51 996.385C292.849 998.966 295.913 1000.21 300.153 999.93C303.638 999.638 307.068 998.879 310.351 997.673ZM350.623 947.903L349.45 952.624C347.455 960.576 343.548 967.921 338.069 974.02C329.099 983.907 315.257 995.91 299.828 997.021C295.17 997.322 294.247 995.571 293.954 995.003C289.597 986.554 311.932 956.22 321.649 944.298C326.983 945.652 342.984 949.623 350.623 947.903Z" fill="#2E353A"/>
<path d="M346.866 950.756C343.792 963.067 336.354 973.844 325.934 981.084C308.231 993.657 302.084 994.239 295.89 990.104" fill="white"/>
<path d="M308.887 992.662C315.271 989.994 321.275 986.497 326.747 982.263C337.515 974.846 345.177 963.726 348.274 951.023C348.312 950.838 348.312 950.647 348.275 950.462C348.238 950.277 348.164 950.101 348.057 949.945C347.951 949.789 347.814 949.655 347.656 949.553C347.497 949.451 347.319 949.381 347.133 949.349C346.755 949.28 346.366 949.362 346.048 949.577C345.73 949.792 345.509 950.123 345.432 950.499C342.38 962.417 335.166 972.851 325.094 979.915C307.812 992.125 302.091 992.618 296.688 988.906C296.368 988.702 295.982 988.629 295.609 988.704C295.237 988.778 294.908 988.994 294.692 989.306C294.48 989.624 294.403 990.013 294.478 990.387C294.553 990.762 294.773 991.091 295.091 991.303C297.079 992.697 299.394 993.555 301.811 993.793C304.228 994.031 306.665 993.642 308.887 992.662Z" fill="#2E353A"/>
<path d="M377.565 925.685C377.565 925.685 361.335 948.916 350.822 952.964L377.565 925.685Z" fill="white"/>
<path d="M351.41 954.283C362.167 950.149 378.124 927.442 378.8 926.501C379.01 926.183 379.089 925.797 379.019 925.422C378.95 925.048 378.738 924.715 378.428 924.494C378.276 924.384 378.103 924.305 377.92 924.262C377.737 924.219 377.548 924.213 377.363 924.244C377.177 924.275 377 924.343 376.842 924.444C376.683 924.545 376.546 924.676 376.439 924.83C376.279 925.07 360.322 947.777 350.37 951.596C350.012 951.739 349.725 952.015 349.569 952.367C349.414 952.719 349.402 953.118 349.538 953.478C349.608 953.654 349.712 953.815 349.844 953.95C349.976 954.086 350.133 954.194 350.307 954.269C350.481 954.344 350.668 954.383 350.857 954.386C351.047 954.388 351.234 954.353 351.41 954.283Z" fill="#2E353A"/>
<path d="M275.459 486.267C275.459 486.267 267.464 525.037 265.954 533.908C264.444 542.779 233.422 620.65 230.868 679.153C228.314 737.656 224.783 790.885 230.879 805.469C236.975 820.053 349.048 921.644 349.048 921.644L360.47 909.273C360.47 909.273 297.306 798.72 295.378 785.474C293.449 772.228 325.84 622.377 325.84 622.377C325.84 622.377 352.615 585.069 357.257 550.903" fill="#2E353A"/>
<path d="M300.917 567.101C300.917 567.101 319.803 586.423 320.973 589.736C322.143 593.049 324.557 791.908 321.491 838.497C319.659 868.295 319.36 898.166 320.596 927.994C320.596 927.994 316.846 938.481 324.769 945.09C332.692 951.699 354.493 950.385 355.993 941.487C357.493 932.588 384.309 879.568 387.904 834.563C391.499 789.558 392.982 714.788 398.304 685.055C405.637 646.801 410.587 608.129 413.125 569.261C416.16 519.904 418.436 466.752 418.436 466.752C394.637 477.46 368.973 483.409 342.89 484.264C300.5 485.305 275.835 467.351 275.835 467.351C275.835 467.351 274.893 495.477 274.11 501.129" fill="#2E353A"/>
<path d="M319.865 638.841C320.051 638.772 320.213 638.649 320.331 638.488C320.448 638.327 320.514 638.136 320.523 637.937L322.08 581.801C322.081 581.594 322.02 581.392 321.905 581.221C321.79 581.049 321.626 580.916 321.435 580.838L293.701 570.107C293.461 570.002 293.19 569.993 292.944 570.08C292.697 570.167 292.492 570.345 292.371 570.576C292.267 570.811 292.257 571.077 292.342 571.319C292.428 571.562 292.602 571.762 292.831 571.88L319.932 582.376L318.427 637.883C318.418 638.145 318.512 638.401 318.689 638.595C318.866 638.789 319.112 638.907 319.374 638.922L319.865 638.841Z" fill="white"/>
<path d="M321.44 582.669C321.673 582.59 321.866 582.423 321.978 582.204C322.042 582.084 322.08 581.953 322.09 581.818C322.1 581.683 322.082 581.547 322.037 581.42C321.989 581.284 316.725 566.375 320.088 554.621C320.891 551.619 321.55 549.248 322.117 547.307C323.848 541.137 324.38 539.27 324.132 536.578C323.542 533.536 322.505 530.599 321.054 527.861C320.923 527.638 320.713 527.471 320.466 527.395C320.218 527.318 319.951 527.337 319.717 527.448C319.601 527.507 319.498 527.589 319.414 527.689C319.33 527.789 319.267 527.905 319.229 528.029C319.19 528.154 319.177 528.285 319.19 528.414C319.202 528.544 319.241 528.67 319.303 528.785C320.624 531.306 321.577 534.004 322.132 536.796C322.337 539.106 321.874 540.735 320.168 546.804C319.629 548.736 318.942 551.116 318.139 554.118C315.169 564.909 318.719 577.644 319.839 581.249L280.723 593.381C280.477 593.467 280.272 593.642 280.15 593.872C280.027 594.102 279.996 594.37 280.062 594.622C280.098 594.747 280.159 594.863 280.241 594.963C280.323 595.064 280.425 595.146 280.541 595.206C280.656 595.265 280.783 595.3 280.912 595.309C281.042 595.318 281.171 595.3 281.294 595.256L321.37 582.816L321.44 582.669Z" fill="white"/>
<path d="M254.2 804.137C271.39 798.067 289.292 779.224 290.097 778.39C290.272 778.198 290.365 777.945 290.353 777.686C290.342 777.426 290.228 777.182 290.036 777.007C289.943 776.917 289.833 776.846 289.712 776.799C289.591 776.752 289.462 776.729 289.333 776.732C289.203 776.735 289.075 776.764 288.957 776.817C288.839 776.87 288.732 776.946 288.643 777.04C288.447 777.262 268.095 798.681 250.568 803.19C250.44 803.222 250.321 803.28 250.216 803.36C250.112 803.439 250.024 803.539 249.959 803.654C249.894 803.768 249.852 803.894 249.837 804.025C249.822 804.155 249.833 804.287 249.87 804.414C249.901 804.539 249.958 804.657 250.035 804.76C250.112 804.864 250.209 804.951 250.321 805.016C250.432 805.082 250.555 805.125 250.683 805.143C250.811 805.161 250.941 805.154 251.066 805.121C252.1 804.848 253.141 804.511 254.2 804.137Z" fill="white"/>
<path d="M261.571 817.66L261.789 817.583C275.671 808.375 287.832 788.322 288.354 787.466C288.458 787.231 288.468 786.965 288.382 786.723C288.297 786.48 288.122 786.28 287.894 786.162C287.784 786.094 287.661 786.049 287.534 786.028C287.406 786.008 287.276 786.013 287.15 786.043C287.025 786.073 286.906 786.128 286.802 786.204C286.698 786.28 286.609 786.376 286.542 786.487C286.427 786.68 274.099 807.037 260.576 815.965C260.469 816.038 260.378 816.132 260.307 816.241C260.236 816.349 260.188 816.471 260.165 816.599C260.142 816.726 260.144 816.857 260.172 816.983C260.2 817.11 260.253 817.23 260.327 817.336C260.456 817.536 260.656 817.68 260.886 817.74C261.117 817.8 261.361 817.772 261.571 817.66Z" fill="white"/>
<path d="M317.099 567.954C317.247 567.901 317.38 567.816 317.489 567.703C317.597 567.59 317.678 567.454 317.725 567.305C317.761 567.179 317.771 567.046 317.755 566.916C317.739 566.786 317.696 566.661 317.631 566.547C317.565 566.433 317.477 566.334 317.372 566.255C317.268 566.176 317.148 566.119 317.021 566.088C312.453 564.829 304.906 561.966 304.053 559.549C303.487 557.947 304.798 555.346 306.236 552.67C307.889 549.885 308.979 546.802 309.445 543.596C309.689 539.876 310.181 525.439 308.165 522.669C308.087 522.566 307.989 522.479 307.877 522.414C307.766 522.349 307.642 522.307 307.514 522.289C307.386 522.272 307.255 522.281 307.13 522.314C307.006 522.347 306.888 522.405 306.786 522.484C306.578 522.648 306.442 522.888 306.41 523.151C306.377 523.414 306.449 523.68 306.61 523.89C307.766 525.345 308.056 535.596 307.529 543.357C307.067 546.281 306.047 549.088 304.523 551.626C302.851 554.934 301.407 557.765 302.251 560.155C303.728 564.337 315.252 567.567 316.57 567.926C316.741 567.981 316.924 567.99 317.099 567.954Z" fill="white"/>
<path d="M409.462 541.327C409.661 541.266 409.835 541.142 409.959 540.975C410.083 540.808 410.151 540.606 410.152 540.398C410.154 540.19 410.089 539.986 409.967 539.818C409.845 539.649 409.672 539.523 409.474 539.459L399.723 536.061C390.366 532.829 380.613 519.567 380.501 519.423C380.343 519.214 380.109 519.075 379.85 519.035C379.591 518.996 379.327 519.059 379.113 519.211C378.904 519.369 378.765 519.603 378.725 519.862C378.686 520.121 378.749 520.385 378.901 520.599C379.311 521.156 389.147 534.481 399.063 537.913L408.815 541.311C409.022 541.392 409.251 541.397 409.462 541.327Z" fill="white"/>
<path d="M349.938 947.778C350.072 947.726 350.194 947.644 350.294 947.54C350.394 947.437 350.471 947.312 350.519 947.176C356.033 931.825 360.343 916.068 363.412 900.049C367.286 877.546 379.36 815.468 379.542 814.946C380.157 807.771 379.944 800.55 378.906 793.424C378.732 792.325 378.532 791.327 378.409 790.546C376.997 783.348 376.435 780.37 383.461 771.292C390.487 762.214 387.452 751.802 384.348 740.59C383.6 737.953 382.85 735.224 382.219 732.485C379.606 721.191 391.186 662.127 399.689 619.176C401.592 609.342 403.367 600.53 404.759 593.228C412.157 554.149 410.138 506.912 410.12 506.43C410.104 506.168 409.987 505.923 409.794 505.746C409.6 505.569 409.345 505.475 409.083 505.483C408.954 505.486 408.827 505.516 408.71 505.57C408.593 505.625 408.488 505.702 408.402 505.798C408.316 505.895 408.251 506.007 408.209 506.13C408.168 506.252 408.153 506.381 408.163 506.51C408.181 506.992 410.187 554.02 402.822 592.843C401.43 600.145 399.683 609.039 397.752 618.792C389.206 661.971 377.537 721.127 380.296 732.92C380.956 735.741 381.725 738.523 382.436 741.143C385.538 752.264 388.25 761.935 381.909 770.099C374.331 779.861 375.002 783.319 376.457 790.899C376.773 791.795 376.828 792.814 377.029 793.904C378.022 800.823 378.222 807.833 377.626 814.797C377.545 815.345 365.445 877.433 361.524 899.891C358.466 915.785 354.184 931.418 348.716 946.652C348.672 946.774 348.652 946.903 348.659 947.032C348.665 947.161 348.697 947.287 348.752 947.404C348.808 947.521 348.886 947.625 348.982 947.712C349.078 947.798 349.19 947.865 349.312 947.908C349.529 947.934 349.749 947.888 349.938 947.778Z" fill="white"/>
<path d="M418.436 466.752C418.436 466.752 423.487 486.592 418.031 495.359C412.575 504.127 391.643 517.504 358.359 522.538C325.075 527.571 281.461 513.04 275.16 504.881C268.858 496.722 275.899 467.359 275.899 467.359C275.899 467.359 302.89 486.538 356.027 477.182C409.164 467.826 418.436 466.752 418.436 466.752Z" fill="white"/>
<path d="M386.172 517.145C404.557 510.654 415.651 501.941 419.274 496.112C424.977 486.921 420.048 467.251 419.842 466.408C419.756 466.074 419.553 465.782 419.271 465.585C418.988 465.388 418.644 465.298 418.301 465.333C417.948 465.458 408.319 466.384 355.726 475.639C303.969 484.752 276.973 466.247 276.696 466.07C276.506 465.939 276.288 465.855 276.06 465.824C275.831 465.794 275.599 465.817 275.381 465.893C275.161 465.976 274.964 466.113 274.808 466.29C274.652 466.467 274.543 466.68 274.489 466.91C273.741 469.984 267.502 497.292 273.999 505.657C280.867 514.471 325.278 528.751 358.546 523.846C367.948 522.504 377.2 520.26 386.172 517.145ZM417.326 468.365C418.286 472.729 421.092 487.681 416.815 494.598C411.944 502.426 392.263 515.972 358.122 521.002C324.563 525.95 281.837 511.075 276.244 503.887C271.817 498.181 274.826 478.764 276.831 469.565C283.707 473.642 310.096 486.62 356.323 478.452C398.946 470.976 413.37 468.754 417.326 468.365Z" fill="#2E353A"/>
<path d="M152.192 351.155C161.726 338.626 231.767 229.234 239.694 222.709C247.621 216.183 266.85 213.12 266.85 213.12C266.85 213.12 325.262 200.192 338.661 200.774C339.928 200.816 370.276 206.409 371.359 206.882C383.084 211.11 429.33 215.366 448.199 234.725C469.581 256.617 418.565 451.894 418.255 466.846C417.946 481.799 393.054 494.253 367.933 499.397C342.812 504.541 320.086 507.129 295.724 493.405C291.182 490.562 287.015 487.159 283.322 483.277C279.023 479 276.325 473.375 275.68 467.345C272.763 439.361 262.304 359.4 255.367 306.539C241.948 323.891 213.848 359.437 195.668 374.897C171.424 395.674 147.278 395.709 144.066 386.612C140.854 377.515 142.724 363.783 152.192 351.155Z" fill="white"/>
<path d="M191.396 355.362C207.376 347.882 221.625 337.162 233.24 323.881C233.24 323.881 208.26 321.554 205.69 316.872C203.121 312.19 235.138 305.558 230.426 305.359C225.713 305.16 218.471 303.074 228.383 299.574C236.102 296.265 243.298 291.851 249.748 286.472L255.528 306.39C248.236 315.837 236.592 330.608 224.616 344.61C213.093 357.045 200.855 368.8 187.967 379.815C187.967 379.815 163.672 368.877 191.396 355.362Z" fill="#C53F3F"/>
<g style="mix-blend-mode:multiply">
<path d="M368.113 499.302L364.891 499.952C357.134 499.087 345.209 501.037 333.333 502.176C315.365 503.879 333.532 497.464 355.84 473.797C378.147 450.131 381.613 425.695 395.88 387.215C410.146 348.734 414.804 330.353 408.674 328.822C402.544 327.291 417.416 322.009 422.03 316.654C426.645 311.298 412.723 316.244 396.962 308.799C381.2 301.354 420.156 303.389 423.154 301.414C426.153 299.439 415.784 291.005 415.784 291.005L448.48 307.314L425.664 426.847L423.223 430.488L421.339 437.262L418.723 464.451C418.576 465.419 418.517 466.204 418.49 466.733C418.163 481.722 393.244 494.186 368.113 499.302Z" fill="#C53F3F"/>
</g>
<path d="M396.064 229.708C376.829 233.445 336.145 280.49 336.145 280.49C357.431 251.595 375.635 225.132 389.552 211.178L428.099 222L430.917 223.235C427.083 223.795 412.547 226.392 396.064 229.708Z" fill="#C53F3F"/>
<path opacity="0.5" d="M191.396 355.362C207.376 347.882 221.625 337.162 233.24 323.881C233.24 323.881 208.26 321.554 205.69 316.872C203.121 312.19 235.138 305.558 230.426 305.359C225.713 305.16 218.471 303.074 228.383 299.574C236.102 296.265 243.298 291.851 249.748 286.472L255.528 306.39C248.236 315.837 236.592 330.608 224.616 344.61C213.093 357.045 200.855 368.8 187.967 379.815C187.967 379.815 163.672 368.877 191.396 355.362Z" fill="white"/>
<path opacity="0.5" d="M368.113 499.302L364.891 499.952C357.134 499.087 345.209 501.037 333.333 502.176C315.365 503.879 333.532 497.464 355.84 473.797C378.147 450.131 381.613 425.695 395.88 387.215C410.146 348.734 414.804 330.353 408.674 328.822C402.544 327.291 417.416 322.009 422.03 316.654C426.645 311.298 412.723 316.244 396.962 308.799C381.2 301.354 420.156 303.389 423.154 301.414C426.153 299.439 415.784 291.005 415.784 291.005L448.48 307.314L425.664 426.847L423.223 430.488L421.339 437.262L418.723 464.451C418.576 465.419 418.517 466.204 418.49 466.733C418.163 481.722 393.244 494.186 368.113 499.302Z" fill="white"/>
<path opacity="0.5" d="M396.064 229.708C376.829 233.445 336.145 280.49 336.145 280.49C357.431 251.595 375.635 225.132 389.552 211.178L428.099 222L430.917 223.235C427.083 223.795 412.547 226.392 396.064 229.708Z" fill="white"/>
<path d="M386.404 495.746C404.707 489.283 419.647 479.091 419.885 466.79C419.948 463.164 423.364 447.236 427.737 427.184C446.22 341.739 464.65 249.226 449.4 233.629C435.04 218.909 405.822 212.885 386.488 208.901C381.611 208.027 376.789 206.875 372.044 205.449C370.789 205.007 340.367 199.378 338.818 199.314C325.354 198.724 269.028 211.16 266.624 211.703C265.897 211.807 246.897 214.912 238.762 221.541C233.51 225.869 203.243 271.71 178.928 308.546C165.745 328.472 154.401 345.733 151.037 350.219C140.448 364.342 139.858 378.416 142.85 386.888C143.505 388.426 144.531 389.777 145.838 390.819C147.144 391.861 148.689 392.562 150.334 392.859C160.262 395.461 178.497 391.313 196.749 375.798C209.5 364.943 229.456 342.229 254.526 309.951C261.93 365.519 271.625 440.465 274.423 467.331C275.097 473.697 277.938 479.638 282.472 484.157C286.267 488.147 290.573 491.618 295.279 494.479C320.735 508.793 344.423 505.56 368.455 500.617C374.543 499.407 380.54 497.779 386.404 495.746ZM250.708 218.697C256.079 216.892 261.577 215.491 267.157 214.508C267.808 214.278 325.605 201.597 338.695 202.167C340.428 202.319 369.543 207.706 371.081 208.171C375.951 209.647 380.905 210.825 385.918 211.698C404.896 215.625 433.565 221.567 447.389 235.805C462.899 251.707 438.215 365.517 424.978 426.723C420.254 448.548 417.168 463.076 417.044 466.877C416.764 481.391 391.369 493.199 367.872 498.013C344.375 502.828 321.251 506.015 296.668 492.186C292.228 489.416 288.159 486.09 284.561 482.29C280.508 478.246 277.965 472.935 277.354 467.242C274.501 439.785 264.359 362.279 257.041 306.437C257.001 306.152 256.878 305.886 256.688 305.671C256.498 305.456 256.249 305.301 255.972 305.226C255.699 305.158 255.412 305.172 255.147 305.266C254.881 305.359 254.649 305.529 254.479 305.753C228.531 339.348 207.952 362.893 194.976 373.889C177.648 388.65 160.115 392.795 151.201 390.384C150.017 390.176 148.899 389.691 147.938 388.969C146.977 388.246 146.2 387.308 145.671 386.228C142.929 378.462 143.528 365.453 153.432 352.244C156.858 347.675 168.239 330.432 181.43 310.442C204.379 275.707 235.773 228.125 240.693 224.066C243.716 221.742 247.099 219.929 250.708 218.697Z" fill="#2E353A"/>
<path d="M429.136 222.429C429.136 222.429 442.883 229.791 448.513 233.453C478.593 252.732 574.525 314.668 577.685 321.279C580.844 327.891 579.351 333.61 565.434 345.488C551.516 357.365 405.674 287.459 405.674 287.459" fill="white"/>
<g style="mix-blend-mode:multiply" opacity="0.8">
<path d="M429.088 222.812L430.789 223.219C433.585 224.737 439.646 228.063 444.423 230.866L517.61 278.813C517.61 278.813 519.772 280.004 523.232 282.019C550.828 300.404 575.144 317.198 577.568 320.863C577.616 320.999 577.664 321.134 577.702 321.243C580.646 327.503 579.241 333.558 565.395 345.379C562.927 347.472 556.416 347.023 547.325 344.888C550.824 342.801 553.915 340.095 556.447 336.903C563.501 327.906 554.018 324.749 554.018 324.749C554.018 324.749 543.874 333.646 533.346 340.936C530.287 339.97 527.071 338.907 523.762 337.754C525.67 335.252 527.38 332.606 528.878 329.839C535.587 317.269 540.63 305.257 540.63 305.257L427.611 226.327L429.088 222.812Z" fill="#C53F3F"/>
</g>
<path opacity="0.5" d="M429.088 222.812L430.789 223.219C433.585 224.737 439.646 228.063 444.423 230.866L517.61 278.813C517.61 278.813 519.772 280.004 523.232 282.019C550.828 300.404 575.144 317.198 577.568 320.863C577.616 320.999 577.664 321.134 577.702 321.243C580.646 327.503 579.241 333.558 565.395 345.379C562.927 347.472 556.416 347.023 547.325 344.888C550.824 342.801 553.915 340.095 556.447 336.903C563.501 327.906 554.018 324.749 554.018 324.749C554.018 324.749 543.874 333.646 533.346 340.936C530.287 339.97 527.071 338.907 523.762 337.754C525.67 335.252 527.38 332.606 528.878 329.839C535.587 317.269 540.63 305.257 540.63 305.257L427.611 226.327L429.088 222.812Z" fill="white"/>
<path d="M564.741 347.504C565.354 347.296 565.925 346.98 566.427 346.572C579.375 335.495 582.85 328.557 579.077 320.727C575.957 314.224 496.473 262.545 449.395 232.318C443.794 228.737 430.478 221.558 429.917 221.267C429.75 221.164 429.564 221.096 429.37 221.067C429.175 221.038 428.977 221.049 428.788 221.1C428.598 221.15 428.421 221.239 428.267 221.361C428.113 221.482 427.985 221.634 427.892 221.807C427.798 221.979 427.741 222.169 427.724 222.365C427.707 222.56 427.73 222.757 427.791 222.944C427.853 223.13 427.952 223.302 428.082 223.448C428.213 223.595 428.372 223.713 428.55 223.796C428.55 223.796 442.324 231.149 447.844 234.759C523.907 283.583 574.417 317.822 576.386 322.013C579.053 327.577 577.956 333.034 564.488 344.539C554.797 352.817 464.569 314.217 406.291 286.264C405.945 286.099 405.548 286.077 405.186 286.205C404.824 286.333 404.528 286.599 404.363 286.945C404.198 287.291 404.176 287.688 404.304 288.05C404.432 288.411 404.698 288.707 405.044 288.873C419.583 295.711 543.939 354.849 564.741 347.504Z" fill="#2E353A"/>
<path d="M209.411 294.454L255.528 306.39C249.829 307.548 220.863 307.513 220.863 307.513" fill="white"/>
<path d="M256.008 307.748C256.282 307.656 256.521 307.48 256.69 307.245C256.859 307.01 256.95 306.728 256.95 306.438C256.965 306.115 256.868 305.797 256.676 305.537C256.484 305.276 256.209 305.09 255.896 305.009L209.751 293.082C209.569 293.031 209.38 293.017 209.193 293.041C209.006 293.064 208.825 293.125 208.662 293.22C208.499 293.315 208.357 293.441 208.243 293.591C208.13 293.742 208.048 293.914 208.002 294.096C207.911 294.47 207.97 294.864 208.167 295.194C208.364 295.525 208.682 295.765 209.053 295.863L246.872 305.66C236.487 306.09 221.066 306.098 220.847 306.084C220.445 306.092 220.063 306.26 219.784 306.55C219.506 306.84 219.354 307.229 219.363 307.631C219.371 308.033 219.539 308.415 219.829 308.694C220.119 308.972 220.508 309.124 220.91 309.116C222.094 309.095 250.193 309.099 255.866 307.951L256.008 307.748Z" fill="#2E353A"/>
<path d="M216.512 309.722C216.825 309.604 217.089 309.383 217.259 309.095C217.43 308.807 217.497 308.47 217.45 308.138C217.389 307.763 217.182 307.427 216.874 307.204C216.566 306.981 216.183 306.889 215.807 306.947L206.906 308.379C206.528 308.441 206.188 308.649 205.96 308.957C205.733 309.266 205.635 309.652 205.688 310.031C205.716 310.222 205.782 310.406 205.882 310.571C205.982 310.736 206.114 310.879 206.271 310.992C206.428 311.105 206.605 311.185 206.794 311.227C206.982 311.27 207.177 311.275 207.367 311.241L216.268 309.808L216.512 309.722Z" fill="#2E353A"/>
<path d="M526.907 309.553C532.596 307.352 538.697 306.417 544.784 306.814L526.907 309.553Z" fill="white"/>
<path d="M545.292 308.253C545.677 308.194 546.022 307.986 546.252 307.672C546.482 307.359 546.578 306.967 546.52 306.583C546.461 306.199 546.252 305.853 545.939 305.623C545.625 305.393 545.234 305.297 544.849 305.355C538.535 304.936 532.206 305.91 526.309 308.206C526.136 308.283 525.979 308.393 525.848 308.531C525.717 308.668 525.615 308.831 525.547 309.008C525.479 309.185 525.447 309.374 525.452 309.564C525.457 309.754 525.5 309.941 525.578 310.114C525.739 310.459 526.028 310.729 526.384 310.865C526.74 311.002 527.135 310.995 527.485 310.845C532.956 308.733 538.821 307.84 544.672 308.228C544.874 308.283 545.086 308.292 545.292 308.253Z" fill="#2E353A"/>
<path d="M432.565 300.993C432.565 300.993 409.365 301.977 402.32 299.669L432.565 300.993Z" fill="white"/>
<path d="M433.045 302.35C433.423 302.273 433.754 302.05 433.967 301.728C434.18 301.407 434.257 301.014 434.18 300.636C434.103 300.258 433.88 299.926 433.558 299.713C433.237 299.5 432.844 299.424 432.466 299.5C432.276 299.567 409.475 300.472 402.741 298.268C402.379 298.15 401.985 298.179 401.645 298.351C401.305 298.523 401.047 298.822 400.927 299.184C400.816 299.546 400.849 299.937 401.02 300.275C401.191 300.613 401.485 300.872 401.842 300.998C409.089 303.357 431.634 302.421 432.589 302.358C432.74 302.387 432.895 302.384 433.045 302.35Z" fill="#2E353A"/>
<path d="M396.44 299.363C396.44 299.363 391.963 297.584 390.687 298.035L396.44 299.363Z" fill="white"/>
<path d="M396.919 300.721C397.113 300.651 397.29 300.541 397.44 300.399C397.589 300.257 397.708 300.085 397.788 299.895C397.947 299.548 397.965 299.153 397.838 298.793C397.711 298.433 397.449 298.137 397.107 297.967C395.012 296.925 392.677 296.463 390.343 296.629C389.983 296.756 389.688 297.021 389.524 297.366C389.359 297.711 389.338 298.106 389.465 298.466C389.598 298.822 389.864 299.112 390.207 299.276C390.549 299.44 390.942 299.464 391.302 299.345C392.95 299.556 394.556 300.019 396.063 300.718C396.341 300.81 396.64 300.811 396.919 300.721Z" fill="#2E353A"/>
<path d="M256.008 307.748C256.343 307.625 256.621 307.385 256.791 307.072C256.962 306.759 257.013 306.394 256.934 306.047L248.007 269.953C247.962 269.768 247.881 269.594 247.769 269.441C247.657 269.288 247.515 269.158 247.353 269.06C247.19 268.961 247.01 268.895 246.822 268.866C246.634 268.837 246.443 268.846 246.258 268.891C246.073 268.936 245.899 269.017 245.746 269.129C245.593 269.242 245.463 269.383 245.365 269.546C245.266 269.708 245.2 269.888 245.171 270.076C245.142 270.264 245.151 270.456 245.196 270.64L254.105 306.771C254.149 306.954 254.229 307.127 254.341 307.279C254.453 307.431 254.594 307.559 254.756 307.656C254.919 307.752 255.098 307.815 255.285 307.841C255.472 307.867 255.663 307.855 255.845 307.806L256.008 307.748Z" fill="#2E353A"/>
<path d="M577.891 321.604C577.891 321.604 589.189 338.291 561.061 356.805C547.7 365.585 459.148 423.332 459.148 423.332C459.148 423.332 443.927 407.816 448.869 406.071C453.811 404.326 522.157 313.399 522.157 313.399" fill="white"/>
<path d="M571.255 348.655L469.064 416.99L463.565 410.93C463.565 410.93 502.882 387.518 524.625 364.937C546.369 342.355 549.52 345.915 556.557 336.956C563.594 327.996 554.129 324.802 554.129 324.802C554.129 324.802 532.835 343.469 519.898 348.953C506.961 354.437 522.28 342.553 528.98 329.956C531.757 324.761 534.226 319.644 536.093 315.503L577.935 321.558C577.935 321.558 586.065 333.683 571.255 348.655Z" fill="#C53F3F"/>
<path opacity="0.5" d="M571.255 348.655L469.064 416.99L463.565 410.93C463.565 410.93 502.882 387.518 524.625 364.937C546.369 342.355 549.52 345.915 556.557 336.956C563.594 327.996 554.129 324.802 554.129 324.802C554.129 324.802 532.835 343.469 519.898 348.953C506.961 354.437 522.28 342.553 528.98 329.956C531.757 324.761 534.226 319.644 536.093 315.503L577.935 321.558C577.935 321.558 586.065 333.683 571.255 348.655Z" fill="white"/>
<path d="M459.704 424.907L460.03 424.792C460.03 424.792 548.543 366.936 561.943 358.265C573.099 350.936 579.569 342.879 581.263 334.615C582.318 329.995 581.568 325.147 579.165 321.062C578.948 320.75 578.617 320.535 578.244 320.462C577.87 320.388 577.483 320.463 577.164 320.669C576.853 320.886 576.64 321.217 576.571 321.59C576.503 321.963 576.585 322.348 576.798 322.662C578.724 326.157 579.295 330.238 578.404 334.128C576.889 341.688 570.806 349.027 560.333 355.78C547.953 363.968 469.246 415.429 459.448 421.76C453.5 415.553 448.877 409.122 449.435 407.673C454.594 405.851 511.862 329.739 523.25 314.418C523.477 314.108 523.574 313.721 523.519 313.341C523.465 312.96 523.264 312.616 522.959 312.383C522.808 312.269 522.636 312.187 522.453 312.141C522.271 312.095 522.08 312.087 521.894 312.115C521.708 312.144 521.529 312.21 521.369 312.309C521.208 312.408 521.069 312.538 520.96 312.691C494.068 348.544 452.535 402.699 448.402 404.922C447.962 405.085 447.568 405.353 447.255 405.703C446.943 406.054 446.72 406.475 446.607 406.93C445.609 411.284 455.236 421.506 458.231 424.541C458.418 424.733 458.655 424.869 458.916 424.934C459.176 424.998 459.449 424.989 459.704 424.907Z" fill="#2E353A"/>
<path d="M448.898 406.152C448.898 406.152 422.353 432.262 421.339 437.262C420.325 442.262 422.225 465.719 424.565 472.345C426.904 478.971 427.709 478.657 431.837 477.199C435.965 475.742 441.176 456.248 442.477 452.063C443.779 447.877 449.454 445.873 455.297 438.374C456.929 436.297 458.119 433.907 458.793 431.353C459.467 428.799 459.61 426.134 459.215 423.522L448.898 406.152Z" fill="white"/>
<path d="M432.208 478.595C435.765 477.339 439.128 468.18 443.082 454.812C443.356 453.86 443.57 453.082 443.752 452.56C444.759 450.469 446.318 448.693 448.261 447.425C451.257 444.997 453.959 442.229 456.313 439.176C458.09 436.932 459.387 434.347 460.124 431.581C460.86 428.815 461.019 425.927 460.592 423.096C460.558 422.956 460.51 422.82 460.448 422.689L450.16 405.401C450.047 405.216 449.896 405.057 449.716 404.936C449.536 404.815 449.332 404.734 449.118 404.7C448.9 404.672 448.678 404.696 448.471 404.769C448.263 404.842 448.076 404.963 447.923 405.122C443.374 409.538 420.997 431.794 419.949 436.959C418.902 442.123 420.719 466.037 423.125 472.853C425.532 479.67 427.184 480.369 432.208 478.595ZM457.811 423.956C458.114 426.355 457.934 428.79 457.282 431.118C456.63 433.446 455.52 435.62 454.016 437.513C451.788 440.386 449.233 442.99 446.402 445.271C444.027 446.874 442.161 449.122 441.024 451.752C440.842 452.274 440.601 453.062 440.336 454.041C435.248 471.291 432.626 475.455 431.268 475.934C427.684 477.2 427.683 477.2 425.833 471.958C423.57 465.55 421.768 442.455 422.847 437.554C423.463 434.282 438.534 418.577 448.711 408.478L457.811 423.956Z" fill="#2E353A"/>
<path d="M468.392 418.113C468.536 418.091 468.674 418.042 468.799 417.969C468.952 417.857 469.081 417.714 469.177 417.55C469.274 417.387 469.337 417.205 469.361 417.017C469.386 416.828 469.373 416.637 469.321 416.454C469.27 416.271 469.183 416.1 469.064 415.952L458.704 402.354C458.592 402.196 458.449 402.062 458.284 401.961C458.119 401.859 457.936 401.792 457.744 401.763C457.553 401.735 457.357 401.745 457.17 401.793C456.983 401.842 456.807 401.927 456.653 402.045C456.5 402.163 456.371 402.311 456.276 402.479C456.181 402.648 456.121 402.834 456.099 403.027C456.078 403.219 456.095 403.414 456.15 403.599C456.206 403.785 456.298 403.957 456.422 404.106L466.782 417.704C466.977 417.927 467.236 418.085 467.523 418.158C467.811 418.231 468.114 418.215 468.392 418.113Z" fill="#2E353A"/>
<path d="M180.502 370.784C180.502 370.784 198.563 395.987 207.815 411.289C217.066 426.592 263.406 484.568 263.406 484.568L247.955 503.95C247.955 503.95 172.154 428.707 156.798 411.772C141.442 394.838 138.759 379.11 144.1 367.939" fill="white"/>
<path d="M248.463 505.389C248.712 505.295 248.93 505.133 249.092 504.923L264.544 485.54C264.75 485.285 264.862 484.967 264.863 484.639C264.864 484.311 264.753 483.993 264.548 483.736C264.101 483.161 218.044 425.727 209.088 410.656C200.132 395.585 181.86 370.304 181.754 370.006C181.526 369.681 181.179 369.461 180.788 369.392C180.398 369.324 179.996 369.414 179.671 369.642C179.347 369.87 179.126 370.217 179.058 370.608C178.99 370.999 179.079 371.4 179.307 371.725C179.403 371.996 197.552 397.015 206.555 412.131C215.126 426.544 255.394 477.012 261.55 484.673L247.809 501.894C238.341 492.379 171.93 426.342 157.882 410.778C144.327 395.743 139.832 380.502 145.413 368.544C145.576 368.203 145.597 367.811 145.471 367.455C145.345 367.098 145.083 366.806 144.742 366.643C144.401 366.48 144.009 366.459 143.653 366.585C143.296 366.711 143.004 366.973 142.841 367.314C136.648 380.221 141.367 396.788 155.812 412.7C170.892 429.457 246.185 504.3 246.972 505.06C247.114 505.204 247.284 505.315 247.473 505.385C247.661 505.456 247.863 505.485 248.064 505.469L248.463 505.389Z" fill="#2E353A"/>
<path d="M256.322 476.44C254.828 476.968 239.672 493.986 239.672 493.986L256.322 476.44Z" fill="#2E353A"/>
<path d="M333.891 281.286C338.185 278.915 356.905 254.347 369.069 235.514C381.233 216.681 389.552 211.178 389.552 211.178L403.642 214.755C403.406 208.588 400.735 202.766 396.215 198.564C388.699 191.811 369.779 189.085 351.663 188.64C333.548 188.195 313.467 189.452 302.035 193.489C290.602 197.525 289.199 203.152 291.347 209.235C293.494 215.318 300.206 234.327 309.109 247.431C318.012 260.536 333.891 281.286 333.891 281.286Z" fill="white"/>
<g style="mix-blend-mode:multiply">
<path d="M313.061 199.46C313.061 199.46 327.536 218.05 336.803 221.894C343.842 224.53 351.13 226.449 358.555 227.621C358.555 227.621 357.558 211.389 368.094 207.669C378.631 203.948 397.272 205.276 397.272 205.276C397.272 205.276 395.287 199.655 379.47 197.33L363.635 195.041L328.513 194.004L313.061 199.46Z" fill="#C53F3F"/>
</g>
<path opacity="0.5" d="M313.061 199.46C313.061 199.46 327.536 218.05 336.803 221.894C343.842 224.53 351.13 226.449 358.555 227.621C358.555 227.621 357.558 211.389 368.094 207.669C378.631 203.948 397.272 205.276 397.272 205.276C397.272 205.276 395.287 199.655 379.47 197.33L363.635 195.041L328.513 194.004L313.061 199.46Z" fill="white"/>
<path d="M334.37 282.644L334.615 282.558C339.369 279.933 358.52 254.509 370.232 236.386C380.382 220.586 387.877 214.305 389.827 212.822L403.249 216.237C403.465 216.282 403.687 216.282 403.902 216.237C404.118 216.193 404.322 216.105 404.502 215.978C404.673 215.842 404.811 215.669 404.906 215.472C405 215.274 405.048 215.058 405.046 214.839C404.942 211.579 404.19 208.373 402.833 205.407C401.476 202.441 399.542 199.774 397.144 197.564C388.127 189.325 364.743 187.625 351.639 187.274C341.351 187.028 315.865 186.987 301.418 192.088C290.8 195.837 286.994 201.579 289.851 209.671C292.057 215.917 298.778 234.953 307.793 248.202C316.808 261.45 332.511 282.049 332.65 282.183C332.84 282.446 333.115 282.635 333.428 282.719C333.742 282.803 334.074 282.777 334.37 282.644ZM389.072 209.821L388.747 209.936C388.366 210.07 380.016 215.828 367.834 234.698C356.397 252.388 339.583 274.573 334.183 279.259C330.751 274.729 317.814 257.552 310.357 246.38C301.548 233.456 294.923 214.691 292.746 208.527C291.125 203.938 291.014 198.693 302.556 194.618C312.386 191.147 330.3 189.464 351.714 189.996C373.129 190.528 389.166 193.997 395.34 199.545C399.094 203.019 401.505 207.703 402.15 212.777L390.009 209.704C389.692 209.634 389.362 209.675 389.072 209.821Z" fill="#2E353A"/>
<path d="M367.513 160.87C362.073 173.841 360.035 187.985 361.59 201.963C364.232 225.189 342.083 261.413 334.643 264.04C327.202 266.667 314.716 229.662 313.399 218.063C312.083 206.464 311.783 174.043 311.783 174.043C311.783 174.043 344.61 141.073 367.513 160.87Z" fill="white"/>
<path d="M335.013 265.436C342.997 262.617 365.603 225.437 362.918 201.83C361.425 188.118 363.42 174.25 368.717 161.514C368.852 161.23 368.89 160.909 368.826 160.601C368.761 160.292 368.597 160.014 368.359 159.808C344.825 139.347 311.003 172.699 310.673 173.06C310.536 173.196 310.427 173.357 310.354 173.536C310.28 173.714 310.243 173.905 310.245 174.097C310.25 175.409 310.548 206.7 311.855 218.272C313.027 228.426 322.924 259.657 331.168 264.839C331.719 265.23 332.353 265.488 333.02 265.592C333.688 265.695 334.37 265.642 335.013 265.436ZM365.653 161.313C360.425 174.254 358.507 188.294 360.072 202.163C362.657 225.225 340.382 260.486 334.055 262.721C334.055 262.721 333.539 262.903 332.709 262.371C326.051 258.217 315.927 228.593 314.727 217.93C313.527 207.267 313.268 179.199 313.133 174.666C316.959 171.055 345.539 145.173 365.653 161.313Z" fill="#2E353A"/>
<g style="mix-blend-mode:multiply">
<path d="M313.061 199.46C313.061 199.46 327.536 218.05 336.803 221.894C343.842 224.53 351.13 226.449 358.555 227.621C358.555 227.621 357.558 211.389 368.094 207.669C378.631 203.948 397.272 205.276 397.272 205.276C397.272 205.276 395.287 199.655 379.47 197.33L363.635 195.041L328.513 194.004L313.061 199.46Z" fill="#C53F3F"/>
</g>
<path opacity="0.5" d="M313.061 199.46C313.061 199.46 327.536 218.05 336.803 221.894C343.842 224.53 351.13 226.449 358.555 227.621C358.555 227.621 357.558 211.389 368.094 207.669C378.631 203.948 397.272 205.276 397.272 205.276C397.272 205.276 395.287 199.655 379.47 197.33L363.635 195.041L328.513 194.004L313.061 199.46Z" fill="white"/>
<path d="M367.513 160.87C362.073 173.841 360.035 187.985 361.59 201.963C364.232 225.189 342.083 261.413 334.643 264.04C327.202 266.667 314.716 229.662 313.399 218.063C312.083 206.464 311.783 174.043 311.783 174.043C311.783 174.043 344.61 141.073 367.513 160.87Z" fill="white"/>
<path d="M335.013 265.437C342.997 262.618 365.603 225.438 362.918 201.831C361.425 188.118 363.42 174.25 368.717 161.514C368.852 161.23 368.89 160.909 368.826 160.601C368.761 160.293 368.597 160.014 368.359 159.808C344.825 139.348 311.003 172.7 310.673 173.061C310.536 173.196 310.427 173.358 310.354 173.536C310.28 173.714 310.243 173.905 310.245 174.098C310.25 175.409 310.548 206.701 311.855 218.273C313.027 228.426 322.924 259.657 331.168 264.84C331.719 265.231 332.353 265.489 333.02 265.592C333.688 265.696 334.37 265.643 335.013 265.437ZM365.653 161.314C360.425 174.254 358.507 188.295 360.072 202.163C362.657 225.226 340.382 260.487 334.055 262.721C334.055 262.721 333.539 262.903 332.709 262.371C326.051 258.217 315.927 228.593 314.727 217.93C313.527 207.267 313.268 179.2 313.133 174.666C316.959 171.055 345.539 145.174 365.653 161.314Z" fill="#2E353A"/>
<path d="M379.552 111.845C379.32 129.747 377.518 147.593 374.165 165.179C368.897 190.221 348.797 210.451 333.456 209.82C318.116 209.19 302.837 195.068 296.929 166.918C295.626 160.72 299.932 156.482 299.738 150.656C298.973 129.547 298.557 109.078 298.183 101.361C297.725 91.4135 316.068 74.8579 340.687 73.2203C365.305 71.5827 375.533 89.045 379.552 111.845Z" fill="white"/>
<path d="M299.308 121.671C299.308 121.671 309.593 124.85 326.659 114.884C343.725 104.919 356.603 101.257 357.604 106.34C358.605 111.423 359.446 118.303 359.446 118.303C359.446 118.303 374.703 91.5371 353.014 93.5146C337.362 94.857 331.074 103.43 327.849 105.454C324.624 107.479 299.308 121.671 299.308 121.671Z" fill="#C53F3F"/>
<path opacity="0.5" d="M299.308 121.671C299.308 121.671 309.593 124.85 326.659 114.884C343.725 104.919 356.603 101.257 357.604 106.34C358.605 111.423 359.446 118.303 359.446 118.303C359.446 118.303 374.703 91.5371 353.014 93.5146C337.362 94.857 331.074 103.43 327.849 105.454C324.624 107.479 299.308 121.671 299.308 121.671Z" fill="white"/>
<path d="M341.929 209.943C356.512 204.794 371.284 186.171 375.611 165.554C379.007 147.859 380.841 129.899 381.092 111.882C381.083 111.805 381.056 111.73 381.016 111.664C376.052 83.3337 362.823 70.2601 340.624 71.7456C314.868 73.4489 296.259 90.8927 296.754 101.377C296.936 105.008 297.231 111.379 297.374 119.483C297.535 128.588 297.947 139.529 298.364 150.744C298.286 153.032 297.775 155.284 296.86 157.383C295.478 160.464 295.029 163.882 295.568 167.216C302.202 198.805 319.472 210.696 333.418 211.269C336.314 211.374 339.203 210.924 341.929 209.943ZM378.097 111.962C377.86 129.721 376.08 147.425 372.775 164.876C367.464 190.054 347.286 208.938 333.494 208.371C320.633 207.842 304.631 196.603 298.344 166.602C297.918 163.809 298.297 160.952 299.437 158.367C300.489 155.879 301.03 153.206 301.029 150.505C300.622 139.318 300.309 128.312 300.049 119.271C299.825 111.287 299.63 104.851 299.455 101.156C299.07 92.8013 315.773 76.1837 340.59 74.4151C361.171 73.195 373.402 85.43 378.097 111.962Z" fill="#2E353A"/>
<path d="M373.837 147.123C373.837 147.123 385.987 135.778 389.098 141.735C392.209 147.691 387.503 154.515 382.243 159.426C380.992 160.822 379.354 161.814 377.537 162.276C375.72 162.738 373.807 162.649 372.042 162.02" fill="white"/>
<path d="M378.552 163.417C380.286 162.78 381.871 161.794 383.209 160.52C390.747 153.583 393.304 146.724 390.41 141.21C390.103 140.571 389.646 140.017 389.076 139.595C388.507 139.173 387.843 138.897 387.143 138.791C381.971 137.898 373.824 145.356 372.91 146.229C372.661 146.498 372.524 146.852 372.527 147.218C372.53 147.585 372.673 147.936 372.926 148.201C373.179 148.466 373.524 148.625 373.89 148.644C374.256 148.664 374.616 148.543 374.896 148.307C377.924 145.466 383.823 141.154 386.673 141.613C386.933 141.655 387.177 141.762 387.384 141.924C387.59 142.086 387.753 142.298 387.856 142.54C390.863 148.289 385.023 154.932 381.241 158.405C380.191 159.593 378.815 160.448 377.285 160.863C375.755 161.279 374.136 161.237 372.629 160.743C372.29 160.615 371.915 160.619 371.579 160.756C371.242 160.892 370.97 161.15 370.816 161.478C370.662 161.807 370.637 162.181 370.747 162.527C370.857 162.872 371.094 163.164 371.409 163.343C373.695 164.269 376.247 164.295 378.552 163.417Z" fill="#2E353A"/>
<path d="M302.685 132.36C302.685 132.36 317.337 122.91 318.021 146.644C318.149 151.332 310.57 159.536 310.57 159.536C310.57 159.536 313.747 166.111 317.817 165.529" fill="white"/>
<path d="M318.324 166.877C318.634 166.762 318.896 166.546 319.068 166.264C319.24 165.982 319.311 165.649 319.271 165.321C319.244 165.132 319.18 164.95 319.082 164.786C318.984 164.622 318.854 164.479 318.7 164.366C318.547 164.253 318.372 164.171 318.186 164.126C318 164.08 317.808 164.073 317.619 164.103C315.52 164.386 313.374 161.509 312.361 159.851C314.361 157.557 319.622 151.179 319.479 146.709C319.232 137.878 317.02 132.307 312.929 130.147C307.9 127.495 302.216 131.12 301.964 131.27C301.645 131.477 301.421 131.802 301.34 132.174C301.26 132.545 301.33 132.934 301.535 133.254C301.634 133.415 301.766 133.555 301.92 133.664C302.075 133.773 302.25 133.85 302.436 133.89C302.621 133.93 302.812 133.933 302.998 133.897C303.184 133.862 303.361 133.789 303.519 133.684C303.519 133.684 308.068 130.825 311.599 132.694C315.129 134.562 316.395 139.185 316.575 146.788C316.665 149.81 312.287 155.662 309.525 158.653C309.337 158.871 309.216 159.138 309.176 159.423C309.135 159.708 309.178 159.999 309.299 160.26C309.587 161.075 313.084 167.781 318.054 167.064L318.324 166.877Z" fill="#2E353A"/>
<path d="M331.578 177.773C331.578 177.773 343.789 176.027 346.472 169.094L331.578 177.773Z" fill="white"/>
<path d="M337.736 177.829C339.892 177.255 341.905 176.239 343.648 174.845C345.39 173.452 346.824 171.711 347.858 169.734C347.927 169.558 347.959 169.37 347.954 169.181C347.95 168.992 347.908 168.805 347.831 168.633C347.755 168.46 347.645 168.304 347.508 168.173C347.371 168.043 347.21 167.941 347.033 167.873C346.857 167.805 346.669 167.772 346.48 167.777C346.29 167.781 346.104 167.823 345.931 167.9C345.758 167.976 345.602 168.086 345.472 168.223C345.342 168.36 345.239 168.522 345.171 168.698C342.829 174.778 331.548 176.563 331.439 176.601C331.252 176.623 331.071 176.683 330.908 176.777C330.744 176.871 330.602 176.998 330.489 177.149C330.377 177.301 330.297 177.473 330.253 177.657C330.21 177.84 330.205 178.031 330.238 178.216C330.264 178.404 330.326 178.584 330.422 178.747C330.518 178.91 330.645 179.053 330.796 179.167C330.947 179.281 331.119 179.364 331.302 179.412C331.485 179.459 331.675 179.471 331.863 179.445C333.863 179.076 335.829 178.535 337.736 177.829Z" fill="#2E353A"/>
<path d="M335.687 136.13C335.687 136.13 342.978 130.135 348.882 132.326C351.924 133.163 354.653 134.876 356.73 137.252" fill="white"/>
<path d="M357.091 138.62L357.417 138.505C357.574 138.4 357.709 138.264 357.814 138.107C357.919 137.949 357.992 137.772 358.029 137.586C358.065 137.4 358.064 137.209 358.027 137.023C357.989 136.837 357.915 136.661 357.809 136.504C355.605 133.877 352.675 131.959 349.387 130.987C342.786 128.553 335.09 134.783 334.785 135.043C334.635 135.161 334.511 135.307 334.42 135.474C334.328 135.641 334.271 135.824 334.253 136.013C334.234 136.203 334.253 136.394 334.31 136.575C334.367 136.757 334.46 136.925 334.584 137.069C334.826 137.364 335.175 137.551 335.555 137.589C335.935 137.627 336.314 137.512 336.609 137.27C336.609 137.27 343.336 131.841 348.387 133.692C351.091 134.493 353.522 136.022 355.415 138.113C355.603 138.366 355.867 138.552 356.169 138.644C356.471 138.735 356.794 138.727 357.091 138.62Z" fill="#2E353A"/>
<path d="M340.498 149.061C340.303 151.97 341.403 154.391 342.962 154.482C344.521 154.573 345.93 152.335 346.124 149.426C346.319 146.517 345.202 144.132 343.633 144.014C342.064 143.896 340.694 146.243 340.498 149.061Z" fill="#2E353A"/>
<path d="M308.453 145.41C308.249 148.292 309.376 150.704 310.917 150.832C312.459 150.959 313.903 148.647 314.08 145.775C314.257 142.903 313.175 140.444 311.616 140.354C310.057 140.263 308.657 142.528 308.453 145.41Z" fill="#2E353A"/>
<path d="M379.104 149.325C379.104 149.325 367.704 145.929 367.318 139.56C366.932 133.191 370.218 132.031 365.745 129.915C361.272 127.798 358.233 126.978 357.303 121.748C356.372 116.518 366.672 103.566 360.8 100.081C354.927 96.5958 354.493 90.0909 323.583 110.412C292.673 130.733 266.494 125.011 272.034 109.128C277.573 93.2453 285.244 88.6738 285.244 88.6738C285.244 88.6738 263.358 87.2391 276.091 73.3057C288.825 59.3724 324.431 47.0749 349.758 55.6626C375.086 64.2504 375.628 78.9328 375.628 78.9328C375.628 78.9328 386.939 76.8018 393.621 93.0424C400.302 109.283 379.104 149.325 379.104 149.325Z" fill="#2E353A"/>
<path d="M305.532 113.09C312.643 110.238 319.192 106.147 324.874 101.007C329.311 96.9351 334.409 93.6477 339.95 91.2862C353.066 86.6549 358.409 93.1367 358.633 93.4242C358.71 93.5272 358.808 93.6135 358.92 93.6776C359.031 93.7417 359.155 93.7824 359.283 93.7971C359.411 93.8119 359.541 93.8005 359.665 93.7635C359.788 93.7266 359.903 93.6649 360.002 93.5822C360.105 93.5042 360.191 93.4065 360.257 93.2948C360.322 93.1831 360.364 93.0596 360.382 92.9315C360.399 92.8033 360.39 92.673 360.357 92.548C360.324 92.4231 360.266 92.306 360.187 92.2035C359.926 91.8984 353.816 84.2825 339.288 89.4124C333.526 91.8386 328.229 95.2485 323.636 99.4899C316.255 105.486 308.586 111.706 296.698 113.155C290.254 113.934 285.993 113.026 284.117 110.481C281.682 107.218 283.861 102.142 283.869 102.078C283.98 101.844 283.994 101.576 283.908 101.332C283.821 101.087 283.642 100.887 283.408 100.775C283.168 100.671 282.898 100.661 282.651 100.749C282.404 100.836 282.199 101.013 282.078 101.245C281.982 101.492 279.436 107.431 282.534 111.62C284.904 114.785 289.743 115.947 296.95 115.082C299.873 114.724 302.75 114.056 305.532 113.09Z" fill="white"/>
<path d="M365.311 89.4171C365.551 89.3089 365.739 89.1112 365.835 88.8661C365.931 88.621 365.928 88.348 365.825 88.1055C365.758 87.9155 357.828 70.5583 340.522 72.1486C330.319 73.0941 320.107 78.6851 311.889 83.1751C306.774 85.989 302.191 88.4928 299.877 88.4244C299.636 88.4555 299.415 88.5722 299.253 88.7532C299.092 88.9342 299.001 89.1673 298.998 89.4097C298.994 89.6522 299.078 89.8878 299.235 90.0733C299.391 90.2588 299.609 90.3818 299.848 90.4197C302.672 90.4609 307.156 88.0225 312.84 84.9162C320.895 80.4837 330.936 75.0142 340.693 74.1039C356.617 72.6655 363.942 88.74 364.027 88.8933C364.076 89.0122 364.149 89.1201 364.241 89.2108C364.332 89.3015 364.441 89.3732 364.56 89.4219C364.679 89.4706 364.807 89.4952 364.936 89.4944C365.065 89.4935 365.192 89.4673 365.311 89.4171Z" fill="white"/>
<path d="M385.716 113.731C385.899 113.663 386.058 113.543 386.174 113.386C387.89 110.48 388.855 107.193 388.982 103.821C389.108 100.449 388.392 97.0981 386.898 94.0722C381.919 82.3921 372.692 85.4973 372.584 85.5357C372.376 85.6515 372.216 85.8371 372.132 86.0597C372.048 86.2822 372.045 86.5273 372.124 86.7516C372.204 86.9759 372.36 87.165 372.565 87.2854C372.77 87.4058 373.011 87.4497 373.245 87.4094C373.571 87.2944 380.852 84.9067 385.036 94.8521C386.407 97.5638 387.08 100.574 386.996 103.612C386.911 106.649 386.071 109.617 384.551 112.249C384.475 112.352 384.42 112.469 384.391 112.594C384.361 112.719 384.357 112.849 384.379 112.975C384.401 113.101 384.448 113.222 384.518 113.33C384.587 113.438 384.678 113.53 384.784 113.602C384.914 113.705 385.069 113.771 385.232 113.794C385.396 113.817 385.563 113.795 385.716 113.731Z" fill="white"/>
<path d="M377.371 108.003C377.549 107.941 377.705 107.828 377.82 107.679C377.936 107.53 378.005 107.351 378.021 107.163C378.254 105.688 378.169 104.179 377.771 102.74C377.373 101.3 376.672 99.9618 375.715 98.8149C373.603 96.6495 370.749 95.3654 367.727 95.2216C367.598 95.2132 367.469 95.231 367.347 95.2742C367.226 95.3174 367.114 95.3849 367.019 95.4727C366.924 95.5605 366.848 95.6666 366.796 95.7847C366.744 95.9028 366.716 96.0303 366.715 96.1595C366.706 96.4179 366.799 96.6695 366.975 96.8592C367.15 97.0489 367.394 97.1614 367.652 97.1722C370.138 97.3246 372.483 98.3738 374.254 100.125C375.021 101.074 375.579 102.174 375.89 103.354C376.201 104.534 376.259 105.766 376.06 106.97C376.038 107.233 376.12 107.494 376.289 107.698C376.458 107.901 376.7 108.029 376.962 108.056C377.101 108.067 377.24 108.049 377.371 108.003Z" fill="white"/>
<path d="M380.477 123.46C380.626 123.404 380.76 123.314 380.867 123.196C380.974 123.079 381.052 122.938 381.094 122.785L382.871 116.66C382.944 116.407 382.913 116.136 382.786 115.906C382.659 115.676 382.446 115.506 382.194 115.433C381.941 115.36 381.67 115.39 381.44 115.517C381.21 115.645 381.04 115.858 380.967 116.11L379.199 122.262C379.131 122.51 379.163 122.775 379.288 122.999C379.413 123.223 379.621 123.39 379.867 123.462C380.065 123.533 380.281 123.533 380.477 123.46Z" fill="white"/>
</svg>
