<svg width="377" height="270" viewBox="0 0 377 270" fill="none" xmlns="http://www.w3.org/2000/svg">
<path d="M82.12 48.8968C88.7278 48.8968 94.0845 43.5401 94.0845 36.9323C94.0845 30.3245 88.7278 24.9678 82.12 24.9678C75.5122 24.9678 70.1555 30.3245 70.1555 36.9323C70.1555 43.5401 75.5122 48.8968 82.12 48.8968Z" fill="#D4DEFF"/>
<path d="M85.1625 45.7219L84.2365 43.6347C83.0312 44.1345 81.6202 44.3108 80.6795 44.1198L80.5619 42.5176C81.5173 42.6793 82.7666 42.6058 83.9278 42.0914C85.3977 41.4446 86.015 40.1659 85.5005 38.99C85.0008 37.8582 83.8837 37.5055 82.0905 37.5643C79.6212 37.6672 77.9015 37.285 77.1077 35.4918C76.3581 33.7721 77.0049 31.9348 78.7687 30.7883L77.8427 28.7011L79.1214 28.1426L80.0033 30.1416C81.2674 29.6418 82.2522 29.5977 83.0018 29.6859L83.09 31.2733C82.5462 31.2145 81.5026 31.1411 80.1797 31.7143C78.5923 32.4198 78.4159 33.6251 78.7687 34.4482C79.239 35.5212 80.2385 35.727 82.3698 35.6682C84.8832 35.5947 86.4265 36.1973 87.235 38.0346C87.9552 39.6661 87.4848 41.6945 85.5152 42.988L86.4559 45.1339L85.1625 45.7219Z" fill="white"/>
<path d="M47.4906 99.3418L37.3928 88.0093C37.3928 88.0093 41.1115 80.0575 52.003 79.7635C58.7643 79.5871 64.7319 72.7817 64.7319 72.7817L74.8738 84.173C74.8738 84.173 68.3036 93.5212 60.5722 93.58C52.4146 93.6682 47.4906 99.3418 47.4906 99.3418Z" fill="#D4DEFF"/>
<path d="M61.9098 83.7027C62.9681 86.6277 61.0573 89.9936 57.6619 91.2283C54.2519 92.4629 50.6361 91.096 49.5778 88.171C48.5195 85.246 50.4303 81.8801 53.8257 80.6454C57.2357 79.4108 60.8515 80.7777 61.9098 83.7027Z" fill="#E3EAFF"/>
<path d="M363.183 112.247L358.303 97.8723C358.303 97.8723 349.543 97.1815 343.928 106.515C340.445 112.306 331.567 114.143 331.567 114.143L336.476 128.592C336.476 128.592 347.838 127.49 351.718 120.802C355.805 113.732 363.183 112.247 363.183 112.247Z" fill="#D4DEFF"/>
<path d="M342.458 117.083C344.472 119.449 348.352 119.449 351.101 117.098C353.85 114.746 354.452 110.924 352.439 108.558C350.425 106.191 346.545 106.191 343.796 108.543C341.033 110.895 340.43 114.717 342.458 117.083Z" fill="#E3EAFF"/>
<path d="M358.186 269.299H1.77851C0.793715 269.299 0 268.506 0 267.521V267.183C0 266.198 0.793715 265.404 1.77851 265.404H358.186C359.171 265.404 359.964 266.198 359.964 267.183V267.521C359.95 268.52 359.156 269.299 358.186 269.299Z" fill="#95A6DB"/>
<path d="M224.9 122.668C226.797 129.092 223.122 135.823 216.699 137.705C210.276 139.601 203.544 135.926 201.662 129.503C199.766 123.08 203.441 116.348 209.864 114.467C216.287 112.585 223.019 116.26 224.9 122.668Z" fill="white"/>
<path d="M215.185 135.309L214.538 133.09C213.259 133.443 211.834 133.428 210.908 133.119L210.996 131.502C211.937 131.796 213.201 131.87 214.435 131.517C215.993 131.061 216.772 129.856 216.405 128.607C216.052 127.401 214.979 126.902 213.157 126.725C210.658 126.505 208.982 125.902 208.424 124.006C207.895 122.184 208.776 120.42 210.687 119.508L210.04 117.289L211.393 116.892L212.025 119.023C213.348 118.685 214.347 118.759 215.097 118.95L214.979 120.552C214.435 120.42 213.406 120.214 211.995 120.625C210.305 121.125 209.967 122.316 210.232 123.198C210.57 124.344 211.54 124.668 213.686 124.903C216.214 125.153 217.684 125.961 218.257 127.916C218.771 129.65 218.036 131.62 215.89 132.663L216.567 134.942L215.185 135.309Z" fill="#E3EAFF"/>
<path d="M197.752 151.315L183.127 161.693L137.136 194.279L132.374 197.66L136.004 202.819L156.112 231.436L191.27 206.449L209.173 193.735L209.379 193.588L211.201 170.467L197.752 151.315Z" fill="#3F964F"/>
<path d="M208.482 178.684L199.384 165.735C196.238 167.94 191.917 167.19 189.698 164.044L147.072 194.397C149.277 197.542 148.527 201.878 145.382 204.083L154.48 217.032C157.626 214.827 161.947 215.577 164.166 218.723L206.792 188.37C204.587 185.225 205.337 180.889 208.482 178.684Z" fill="#4EAD60"/>
<path d="M188.286 183.858C184.626 178.64 177.424 177.391 172.221 181.051C167.003 184.71 165.754 191.913 169.414 197.116C173.073 202.334 180.276 203.583 185.479 199.923C190.682 196.263 191.946 189.061 188.286 183.858Z" fill="#3F964F"/>
<path d="M211.202 170.468L198.179 182.917L209.173 193.735L209.364 193.926L209.379 193.588L211.202 170.468Z" fill="#3F964F"/>
<path opacity="0.2" d="M204.587 196.969L198.179 182.917L209.173 193.735L204.587 196.969Z" fill="#193F1E"/>
<path opacity="0.2" d="M211.202 170.468L198.179 182.917L210.305 169.189L211.202 170.468Z" fill="#193F1E"/>
<path opacity="0.2" d="M183.127 161.692L137.136 194.279L136.004 202.819L156.112 231.436L191.27 206.464L189.477 199.658C188.801 197.086 184.244 195.954 178.468 196.601L183.127 161.692Z" fill="#193F1E"/>
<path d="M142.345 138.179L129.614 233.708L170.524 239.16L183.255 143.631L142.345 138.179Z" fill="#3F964F"/>
<path d="M169.737 148.832L154.039 146.745C153.54 150.552 150.041 153.227 146.234 152.712L137.166 220.692C140.972 221.192 143.648 224.69 143.133 228.497L158.831 230.584C159.345 226.778 162.829 224.102 166.636 224.617L175.705 156.637C171.913 156.122 169.237 152.639 169.737 148.832Z" fill="#4EAD60"/>
<path d="M168.498 191.375C169.765 185.13 165.73 179.04 159.485 177.772C153.24 176.505 147.15 180.54 145.883 186.785C144.615 193.03 148.65 199.12 154.895 200.387C161.14 201.655 167.23 197.62 168.498 191.375Z" fill="#3F964F"/>
<path d="M171.119 199.908L131.801 210.286L142.339 250.192L181.658 239.815L174.25 211.726C182.099 209.624 187.757 205.317 186.905 202.069C186.038 198.821 178.997 197.851 171.119 199.908Z" fill="#3F964F"/>
<path d="M142.648 213.745L150.06 241.828L194.244 230.166L186.832 202.083L142.648 213.745Z" fill="#4EAD60"/>
<path d="M171.501 231.257C176.276 228.162 177.639 221.782 174.545 217.007C171.45 212.232 165.07 210.869 160.295 213.963C155.519 217.058 154.157 223.438 157.251 228.213C160.346 232.989 166.725 234.351 171.501 231.257Z" fill="#3F964F"/>
<path opacity="0.2" d="M171.119 199.909L167.091 200.967L177.63 240.873L195.871 236.052L186.905 202.055C186.038 198.821 178.997 197.851 171.119 199.909Z" fill="#193F1E"/>
<path d="M186.89 202.069C187.743 205.318 182.099 209.624 174.235 211.726L184.774 251.632C192.623 249.531 198.281 245.224 197.429 241.976L186.89 202.069Z" fill="#3F964F"/>
<path d="M188.801 209.271C189.183 210.712 188.213 212.314 186.435 213.563C186.964 215.783 185.729 217.988 183.657 218.546H183.642L188.963 238.727H188.977C190.888 238.227 192.858 239.3 193.666 241.167C195.474 239.918 196.459 238.301 196.077 236.846L188.801 209.271Z" fill="#4EAD60"/>
<path d="M140.135 265.316L82.2965 265.346C73.1688 265.346 65.7754 257.967 65.7754 248.839L65.6873 107.308C65.6873 98.1805 73.0659 90.7872 82.1936 90.7872L140.032 90.7578C149.16 90.7578 156.553 98.1364 156.553 107.264L156.641 248.795C156.641 257.908 149.248 265.316 140.135 265.316Z" fill="#2C2858"/>
<path d="M140.723 262.494L81.6939 262.538C75.2854 262.538 70.0821 257.35 70.0674 250.926L69.9792 106.294C69.9792 99.8856 75.1678 94.6823 81.591 94.6676L140.62 94.6235C147.028 94.6235 152.232 99.8121 152.246 106.235L152.334 250.868C152.334 257.276 147.146 262.479 140.723 262.494Z" fill="#95A6DB"/>
<path d="M65.1435 137.058C63.7178 137.058 62.5713 135.897 62.5713 134.486V121.125C62.5713 119.699 63.7325 118.553 65.1435 118.553C66.5693 118.553 67.7157 119.699 67.7157 121.125V134.486C67.7157 135.912 66.5693 137.058 65.1435 137.058Z" fill="#2C2858"/>
<path d="M157.038 137.058C155.612 137.058 154.466 135.897 154.466 134.486V121.125C154.466 119.699 155.627 118.553 157.038 118.553C158.464 118.553 159.61 119.699 159.61 121.125V134.486C159.625 135.912 158.464 137.058 157.038 137.058Z" fill="#2C2858"/>
<path d="M296.643 265.316L238.805 265.346C229.677 265.346 222.284 257.967 222.284 248.839L222.196 107.308C222.196 98.1805 229.574 90.7872 238.702 90.7872L296.54 90.7578C305.668 90.7578 313.061 98.1364 313.061 107.264L313.15 248.795C313.164 257.908 305.771 265.316 296.643 265.316Z" fill="#2C2858"/>
<path d="M297.246 262.494L238.217 262.538C231.809 262.538 226.605 257.35 226.591 250.926L226.502 106.294C226.502 99.8856 231.691 94.6823 238.114 94.6676L297.143 94.6235C303.552 94.6235 308.755 99.8121 308.769 106.235L308.858 250.868C308.858 257.276 303.654 262.479 297.246 262.494Z" fill="#95A6DB"/>
<path d="M221.667 137.058C220.241 137.058 219.094 135.897 219.094 134.486V121.125C219.094 119.699 220.241 118.553 221.667 118.553C223.092 118.553 224.239 119.699 224.239 121.125V134.486C224.239 135.912 223.078 137.058 221.667 137.058Z" fill="#2C2858"/>
<path d="M313.561 137.058C312.135 137.058 310.989 135.897 310.989 134.486V121.125C310.989 119.699 312.15 118.553 313.561 118.553C314.987 118.553 316.133 119.699 316.133 121.125V134.486C316.133 135.912 314.987 137.058 313.561 137.058Z" fill="#2C2858"/>
<path d="M221.667 156.828C220.241 156.828 219.094 155.681 219.094 154.255V140.894C219.094 139.469 220.241 138.322 221.667 138.322C223.092 138.322 224.239 139.469 224.239 140.894V154.255C224.239 155.681 223.078 156.828 221.667 156.828Z" fill="#2C2858"/>
<path d="M38.5684 256.32C36.6282 264.478 29.6759 259.995 31.131 265.154C31.2339 265.536 31.6014 265.786 31.9982 265.801L36.0697 265.963C36.4665 265.977 36.8487 265.86 37.1721 265.639C39.318 264.169 40.7879 262.097 45.4326 261.832C45.4032 259.848 45.4914 257.011 44.8299 255.997L38.5684 256.32Z" fill="#0E6A41"/>
<path d="M49.3129 199.056C49.3129 199.056 37.4513 217.149 35.8197 222.779C34.1882 228.408 37.6129 237.948 36.9809 257.158C40.6849 258.114 45.6383 257.291 45.6383 257.291C45.6383 257.291 48.6074 233.185 45.1091 227.497C50.3565 219.501 63.5263 202.025 63.5263 202.025L49.3129 199.056Z" fill="#201D40"/>
<path d="M55.898 258.952C52.8849 263.068 45.3446 260.628 45.6532 266.14C57.0739 265.963 61.8215 265.978 61.8215 265.978C61.7921 264.714 61.5422 261.701 61.263 260.525L55.898 258.952Z" fill="#0E6A41"/>
<path d="M52.3558 195.411C52.3558 195.411 48.5783 224.925 49.4455 230.716C50.3127 236.507 53.0172 241.049 53.1201 260.275C56.8535 261.098 62.5712 261.833 62.5712 261.833C62.5712 261.833 64.9817 238.639 60.0284 232.26C61.4394 222.794 68.1272 198.997 68.1272 198.997L52.3558 195.411Z" fill="#2C2858"/>
<path d="M32.9832 182.417L28.3679 177.243C28.265 177.126 28.118 177.067 27.971 177.067L24.1788 177.038C24.076 177.038 23.7379 177.64 23.8114 177.714L27.0597 180.609C27.0744 180.624 27.0891 180.639 27.1185 180.639L32.7039 182.711C32.8068 182.755 33.0567 182.505 32.9832 182.417Z" fill="#C4204A"/>
<path d="M32.6304 182.755L28.2355 177.875C28.1326 177.758 27.9857 177.699 27.8387 177.699L23.9289 177.625C23.826 177.625 23.7672 177.758 23.8407 177.831L26.9274 181.241C26.9421 181.256 26.9568 181.271 26.9862 181.271L32.4981 182.946C32.6157 182.99 32.7038 182.843 32.6304 182.755Z" fill="#E62552"/>
<path d="M41.3024 187.209L38.1276 185.651C38.1276 185.651 34.9968 182.476 34.5265 181.771C33.8356 181.418 32.5128 180.536 32.2188 180.492C31.9248 180.462 31.3075 180.551 31.3075 180.551L32.7774 182.226C32.7774 182.226 32.0718 182.358 31.1899 181.8C30.2933 181.227 28.7206 179.713 27.9563 180.007C27.677 180.242 27.677 180.242 27.677 180.242C27.677 180.242 27.192 179.727 26.7363 179.919C26.2807 180.11 27.192 182.403 29.7789 184.828C29.9553 185.475 30.8078 186.606 30.8078 186.606L36.0404 188.444L41.3024 187.209Z" fill="#F37A50"/>
<path d="M27.5153 178.61C27.7064 178.801 27.971 178.831 28.118 178.684C28.2649 178.537 28.2209 178.272 28.0445 178.081C27.8534 177.89 27.5888 177.861 27.4418 178.008C27.2948 178.169 27.3242 178.434 27.5153 178.61Z" fill="#C4204A"/>
<path d="M56.1037 163.838C55.163 165.058 62.5416 166.396 63.541 163.853C64.5258 161.31 62.8355 154.329 62.8355 154.329L56.1037 155.754C56.089 155.754 57.3236 162.251 56.1037 163.838Z" fill="#F37A50"/>
<path d="M57.6481 159.204C61.8864 158.759 64.8627 154.02 64.2957 148.62C63.7287 143.219 59.8332 139.201 55.5949 139.646C51.3565 140.091 48.3803 144.83 48.9472 150.231C49.5142 155.632 53.4097 159.649 57.6481 159.204Z" fill="#F37A50"/>
<path d="M51.4297 151.83C51.2827 152.241 50.8123 152.462 50.4008 152.315C49.9892 152.168 49.7688 151.698 49.9157 151.286C50.0627 150.874 50.5331 150.654 50.9446 150.801C51.3709 150.948 51.5914 151.418 51.4297 151.83Z" fill="black"/>
<path d="M56.7065 150.683C56.5448 151.139 56.0451 151.374 55.5894 151.212C55.1338 151.051 54.8986 150.551 55.0603 150.095C55.222 149.64 55.7217 149.404 56.1774 149.566C56.633 149.728 56.8682 150.228 56.7065 150.683Z" fill="black"/>
<path d="M52.9731 151.668C52.7967 152.932 52.5615 154.49 52.5615 154.49C52.5615 154.49 53.3993 155.372 54.7663 154.755C54.0755 154.784 53.3258 154.652 53.2083 153.77C53.1054 152.888 52.9731 151.668 52.9731 151.668Z" fill="#DE623C"/>
<path d="M51.1946 149.993C51.1064 150.051 50.9889 150.051 50.886 149.993C50.8713 149.993 50.5479 149.816 50.2245 149.934C50.0041 150.022 49.8277 150.242 49.6954 150.581C49.6366 150.742 49.4602 150.816 49.2985 150.757C49.1369 150.698 49.0634 150.522 49.1222 150.36C49.3132 149.846 49.6219 149.493 50.0188 149.346C50.6067 149.125 51.1652 149.419 51.1799 149.434C51.3269 149.522 51.3857 149.699 51.2975 149.846C51.2828 149.934 51.2387 149.963 51.1946 149.993Z" fill="#020205"/>
<path d="M55.2072 149.111C55.3101 149.125 55.4277 149.096 55.5012 149.022C55.5159 149.008 55.7658 148.743 56.1038 148.758C56.339 148.758 56.5742 148.905 56.8093 149.199C56.9122 149.331 57.118 149.346 57.2503 149.243C57.3826 149.14 57.3973 148.934 57.2944 148.802C56.9416 148.376 56.5448 148.155 56.1185 148.14C55.5012 148.126 55.0749 148.596 55.0455 148.611C54.928 148.743 54.9427 148.934 55.0602 149.052C55.1043 149.081 55.1631 149.111 55.2072 149.111Z" fill="#020205"/>
<path d="M62.7181 152.065C59.9254 149.728 60.6897 146.156 60.6897 146.156C59.3374 146.244 58.9553 146.818 58.9553 146.818C57.8676 145.568 58.1321 144.392 58.1321 144.392C55.1925 144.069 54.34 146.156 52.0911 147.376C49.0191 149.052 44.6096 148.831 43.1545 144.936C42.9487 144.378 43.4778 143.819 44.0511 144.01C44.5802 144.187 45.2416 144.275 45.9765 144.054C45.9765 144.054 45.0799 143.466 44.7566 142.393C44.5802 141.805 45.1828 141.306 45.7414 141.556C46.5792 141.938 47.9902 142.129 50.1362 141.1C51.562 140.409 54.3546 137.073 56.6329 136.97C58.4849 136.882 60.2781 137.999 61.454 139.968C61.454 139.968 65.8782 139.248 67.5832 143.878C69.2588 148.42 62.9679 155.431 62.9679 155.431C62.9679 155.431 63.453 152.77 62.7181 152.065Z" fill="#020205"/>
<path d="M53.3111 156.827C53.1347 156.709 53.1788 156.445 53.3846 156.401C53.899 156.269 54.7368 156.048 55.5159 155.754C56.2949 155.46 57.0739 155.078 57.5442 154.828C57.7353 154.725 57.9411 154.902 57.8823 155.107C57.7059 155.725 57.2356 156.739 56.045 157.18C54.8691 157.621 53.8549 157.165 53.3111 156.827Z" fill="white"/>
<path d="M60.7191 148.875C59.8078 149.772 59.6608 151.109 60.3957 151.844C61.1306 152.594 62.4682 152.462 63.3648 151.565C64.2761 150.668 64.4231 149.331 63.6881 148.596C62.9679 147.861 61.6304 147.979 60.7191 148.875Z" fill="#F37A50"/>
<path d="M61.6158 151.463C61.5717 151.448 61.5423 151.418 61.5129 151.389C61.0719 150.919 60.9691 150.345 61.2336 149.86C61.5129 149.361 62.1008 149.081 62.6447 149.184C62.7917 149.214 62.8945 149.361 62.8652 149.508C62.8358 149.655 62.6888 149.758 62.5418 149.728C62.2478 149.669 61.8951 149.846 61.7334 150.125C61.5864 150.404 61.6452 150.713 61.9244 150.992C62.0273 151.11 62.0273 151.286 61.9098 151.389C61.8216 151.477 61.704 151.507 61.6158 151.463Z" fill="#DE623C"/>
<path d="M47.8875 201.231C53.1495 202.304 62.6153 204.156 67.6274 202.216C69.5235 199.496 70.0086 184.107 70.0086 184.107C70.5524 168.277 68.6563 165.925 64.3791 160.619C62.5859 161.442 58.0882 162.148 56.1039 162.162C56.1039 162.162 51.6208 168.38 50.7536 172.907C49.8717 177.493 49.7689 185.636 49.6807 190.295C49.5925 195.469 48.5636 197.968 47.8875 201.231Z" fill="#3F964F"/>
<path d="M64.9963 165.411C68.083 171.408 67.3775 178.052 58.4261 191.119C52.1499 190.575 50.9299 185.342 50.9299 185.342C50.9299 185.342 52.6496 178.846 54.8985 170.688C57.118 162.53 63.6588 162.795 64.9963 165.411Z" fill="#0E6A41"/>
<path d="M37.6133 184.093L51.0476 185.166C51.0476 185.166 56.8094 184.122 58.4262 191.119C55.5453 193.367 48.1079 194.205 35.8936 189.678C37.187 187.929 37.6133 184.093 37.6133 184.093Z" fill="#0E6A41"/>
<path d="M56.1479 161.707L56.0156 165.323L65.0992 161.516L63.9969 158.591L56.1479 161.707Z" fill="white"/>
<path d="M123.966 74.1777C120.997 80.9537 113.09 84.0551 106.314 81.086C99.5376 78.1169 96.4362 70.2092 99.4053 63.4332C102.374 56.6572 110.282 53.5559 117.058 56.5249C123.849 59.494 126.935 67.4018 123.966 74.1777Z" fill="#FABA23"/>
<path d="M121.776 73.2221C119.131 79.4395 111.223 81.7472 105.637 77.9991C102.08 75.6767 100.14 71.3554 100.816 67.1222C101.86 59.9788 109.68 55.8045 116.117 58.7147C121.571 61.0665 124.246 67.6661 121.776 73.2221Z" fill="#FAD332"/>
<path d="M110.929 78.0577V75.7794C109.621 75.7647 108.269 75.3531 107.475 74.7946L108.019 73.2807C108.827 73.8245 110.003 74.2508 111.267 74.2361C112.869 74.2361 113.957 73.3101 113.942 72.0166C113.942 70.7819 113.06 70.0176 111.385 69.3415C109.077 68.4449 107.651 67.416 107.651 65.4464C107.651 63.5797 108.974 62.154 111.047 61.8012V59.5229H112.443V61.713C113.795 61.7571 114.721 62.1099 115.383 62.492L114.824 63.9766C114.354 63.712 113.428 63.2123 111.973 63.2123C110.238 63.2123 109.577 64.2558 109.591 65.1524C109.591 66.3283 110.429 66.9163 112.399 67.7247C114.721 68.6654 115.897 69.8412 115.912 71.8402C115.912 73.6187 114.677 75.2944 112.355 75.6912V78.043L110.929 78.0577Z" fill="#FABA23"/>
<path d="M148.013 35.3008C145.044 42.0768 137.136 45.1781 130.36 42.209C123.584 39.24 120.483 31.3322 123.452 24.5562C126.421 17.7803 134.329 14.6789 141.105 17.648C147.881 20.6171 150.982 28.5101 148.013 35.3008Z" fill="#FABA23"/>
<path d="M145.823 34.3305C143.177 40.5479 135.27 42.8556 129.684 39.1075C126.127 36.7851 124.187 32.4638 124.863 28.2306C125.907 21.0872 133.726 16.9129 140.164 19.8231C145.617 22.1749 148.292 28.7892 145.823 34.3305Z" fill="#FAD332"/>
<path d="M134.976 39.1807V36.9024C133.667 36.8877 132.315 36.4762 131.521 35.9176L132.065 34.4037C132.874 34.9476 134.05 35.3738 135.314 35.3591C136.916 35.3591 138.003 34.4331 137.989 33.1396C137.989 31.905 137.107 31.1407 135.431 30.4645C133.124 29.5679 131.698 28.539 131.698 26.5695C131.698 24.7028 133.021 23.277 135.093 22.9243V20.646H136.49V22.8361C137.842 22.8802 138.768 23.2329 139.429 23.6151L138.871 25.0996C138.4 24.835 137.474 24.3353 136.019 24.3353C134.285 24.3353 133.623 25.3789 133.638 26.2755C133.638 27.4514 134.476 28.0393 136.445 28.8477C138.768 29.7884 139.944 30.9643 139.958 32.9633C139.958 34.7418 138.724 36.4174 136.401 36.8143V39.166L134.976 39.1807Z" fill="#FABA23"/>
<path d="M240.128 43.1598C247.443 42.016 252.445 35.1592 251.301 27.8446C250.157 20.5301 243.301 15.5278 235.986 16.6716C228.672 17.8154 223.669 24.6723 224.813 31.9868C225.957 39.3013 232.814 44.3036 240.128 43.1598Z" fill="#FABA23"/>
<path d="M248.139 34.331C245.493 40.5484 237.585 42.856 232 39.1079C228.443 36.7856 226.503 32.4643 227.179 28.2311C228.222 21.0877 236.042 16.9133 242.48 19.8236C247.948 22.1754 250.623 28.7897 248.139 34.331Z" fill="#FAD332"/>
<path d="M237.306 39.1812V36.9029C235.998 36.8882 234.646 36.4767 233.852 35.9181L234.396 34.4042C235.204 34.948 236.38 35.3743 237.644 35.3596C239.246 35.3596 240.334 34.4336 240.319 33.1401C240.319 31.9055 239.437 31.1412 237.762 30.465C235.454 29.5684 234.028 28.5395 234.028 26.5699C234.028 24.7032 235.351 23.2775 237.424 22.9247V20.6465H238.82V22.8365C240.172 22.8806 241.098 23.2334 241.76 23.6156L241.201 25.1001C240.731 24.8355 239.805 24.3358 238.35 24.3358C236.615 24.3358 235.954 25.3794 235.968 26.276C235.968 27.4519 236.806 28.0398 238.776 28.8482C241.098 29.7889 242.274 30.9648 242.289 32.9638C242.289 34.7423 241.054 36.4179 238.732 36.8147V39.1665L237.306 39.1812Z" fill="#FABA23"/>
<path d="M277.653 74.1777C274.684 80.9537 266.776 84.0551 260 81.086C253.224 78.1169 250.123 70.2092 253.092 63.4332C256.061 56.6572 263.969 53.5559 270.745 56.5249C277.536 59.494 280.622 67.4018 277.653 74.1777Z" fill="#FABA23"/>
<path d="M275.463 73.2221C272.817 79.4395 264.91 81.7472 259.324 77.9991C255.767 75.6767 253.827 71.3554 254.503 67.1222C255.547 59.9788 263.366 55.8045 269.804 58.7147C275.257 61.0665 277.932 67.6661 275.463 73.2221Z" fill="#FAD332"/>
<path d="M264.616 78.0577V75.7794C263.307 75.7647 261.955 75.3531 261.161 74.7946L261.705 73.2807C262.514 73.8245 263.689 74.2508 264.954 74.2361C266.556 74.2361 267.643 73.3101 267.629 72.0166C267.629 70.7819 266.747 70.0176 265.071 69.3415C262.764 68.4449 261.338 67.416 261.338 65.4464C261.338 63.5797 262.661 62.154 264.733 61.8012V59.5229H266.129V61.713C267.482 61.7571 268.408 62.1099 269.069 62.492L268.511 63.9766C268.04 63.712 267.114 63.2123 265.659 63.2123C263.925 63.2123 263.263 64.2558 263.278 65.1524C263.278 66.3283 264.116 66.9163 266.085 67.7247C268.408 68.6654 269.584 69.8412 269.598 71.8402C269.598 73.6187 268.364 75.2944 266.041 75.6912V78.043L264.616 78.0577Z" fill="#FABA23"/>
<path d="M203.132 18.7798C200.163 25.5558 192.255 28.6571 185.479 25.688C178.703 22.719 175.602 14.8112 178.571 8.03525C181.54 1.25928 189.448 -1.84208 196.224 1.127C203.014 4.09608 206.101 12.0038 203.132 18.7798Z" fill="#FABA23"/>
<path d="M200.942 17.8246C198.296 24.042 190.388 26.3497 184.803 22.6016C181.246 20.2792 179.306 15.9579 179.982 11.7248C181.026 4.58134 188.845 0.406991 195.283 3.31728C200.751 5.65433 203.411 12.2686 200.942 17.8246Z" fill="#FAD332"/>
<path d="M190.095 22.6607V20.3824C188.786 20.3677 187.434 19.9562 186.64 19.3976L187.184 17.8837C187.993 18.4275 189.168 18.8538 190.433 18.8391C192.035 18.8391 193.122 17.9131 193.108 16.6196C193.108 15.385 192.226 14.6206 190.55 13.9445C188.243 13.0479 186.817 12.019 186.817 10.0494C186.817 8.18274 188.14 6.75699 190.212 6.40423V4.12598H191.608V6.31604C192.961 6.36014 193.887 6.7129 194.548 7.09506L193.99 8.5796C193.519 8.31503 192.593 7.81528 191.138 7.81528C189.404 7.81528 188.742 8.85887 188.757 9.75547C188.757 10.9313 189.595 11.5193 191.564 12.313C193.887 13.2537 195.063 14.4296 195.077 16.4286C195.077 18.2071 193.843 19.8827 191.52 20.2795V22.6313L190.095 22.6607Z" fill="#FABA23"/>
<path d="M244.008 89.7736C243.361 89.7736 242.832 89.2445 242.832 88.5977C242.832 87.6424 242.803 86.6723 242.759 85.7169C242.729 85.0701 243.229 84.5116 243.876 84.4822C244.523 84.4528 245.081 84.9525 245.111 85.5993C245.155 86.5988 245.184 87.5983 245.184 88.5977C245.184 89.2445 244.655 89.7736 244.008 89.7736Z" fill="#95A6DB"/>
<path d="M243.317 80.9103C242.744 80.9103 242.244 80.4987 242.156 79.9108C241.862 78 241.451 76.0745 240.951 74.2078C240.789 73.5758 241.157 72.929 241.789 72.7674C242.421 72.6057 243.067 72.9731 243.229 73.6052C243.744 75.5601 244.17 77.5591 244.478 79.5433C244.581 80.1901 244.14 80.7927 243.494 80.8809C243.45 80.9103 243.391 80.9103 243.317 80.9103ZM131.095 80.8662C131.036 80.8662 130.977 80.8662 130.904 80.8515C130.257 80.7486 129.831 80.146 129.919 79.5139C130.228 77.515 130.654 75.516 131.183 73.5758C131.345 72.9437 131.991 72.5763 132.624 72.738C133.256 72.8997 133.623 73.5464 133.461 74.1784C132.962 76.0451 132.55 77.9559 132.256 79.8814C132.153 80.4546 131.653 80.8662 131.095 80.8662ZM240.26 69.4308C239.79 69.4308 239.334 69.1369 239.158 68.6812C238.467 66.8733 237.673 65.0801 236.791 63.3604C236.497 62.7871 236.732 62.0669 237.306 61.773C237.879 61.479 238.599 61.7142 238.893 62.2874C239.804 64.0806 240.642 65.9473 241.362 67.8434C241.598 68.446 241.289 69.1369 240.686 69.3573C240.539 69.4014 240.407 69.4308 240.26 69.4308ZM134.152 69.3867C134.005 69.3867 133.873 69.3573 133.726 69.3132C133.123 69.0781 132.815 68.4019 133.05 67.7993C133.77 65.9179 134.608 64.0512 135.519 62.258C135.813 61.6848 136.519 61.4496 137.107 61.7436C137.68 62.0375 137.915 62.743 137.621 63.331C136.739 65.0507 135.945 66.8439 135.255 68.6518C135.078 69.1075 134.637 69.3867 134.152 69.3867ZM234.866 58.848C234.484 58.848 234.101 58.6569 233.881 58.3188C232.823 56.702 231.676 55.1146 230.456 53.6006C230.045 53.1009 230.118 52.3513 230.633 51.9397C231.132 51.5282 231.882 51.6017 232.293 52.1161C233.558 53.6888 234.763 55.335 235.865 57.0254C236.218 57.5692 236.071 58.3041 235.527 58.6569C235.307 58.7892 235.086 58.848 234.866 58.848ZM139.561 58.8186C139.341 58.8186 139.12 58.7598 138.914 58.6275C138.371 58.2747 138.209 57.5398 138.576 56.996C139.679 55.3056 140.884 53.6594 142.148 52.0867C142.56 51.587 143.295 51.4988 143.809 51.9103C144.309 52.3219 144.397 53.0568 143.985 53.5712C142.765 55.0705 141.619 56.6579 140.561 58.2747C140.325 58.6275 139.943 58.8186 139.561 58.8186ZM227.384 49.6174C227.09 49.6174 226.782 49.4998 226.546 49.2793C225.179 47.9123 223.724 46.6042 222.225 45.3842C221.725 44.9727 221.637 44.2377 222.049 43.7233C222.46 43.2236 223.195 43.1354 223.71 43.5469C225.282 44.811 226.796 46.1779 228.222 47.6184C228.678 48.074 228.678 48.8236 228.222 49.2793C227.987 49.4998 227.693 49.6174 227.384 49.6174ZM147.043 49.588C146.749 49.588 146.44 49.4704 146.205 49.2499C145.749 48.7943 145.749 48.0446 146.205 47.589C147.631 46.1632 149.145 44.7963 150.717 43.5322C151.217 43.1207 151.967 43.1942 152.378 43.7086C152.79 44.2083 152.716 44.958 152.202 45.3695C150.703 46.5895 149.247 47.8977 147.866 49.2646C147.645 49.4704 147.337 49.588 147.043 49.588ZM218.168 42.1359C217.948 42.1359 217.727 42.0771 217.522 41.9448C215.905 40.8865 214.2 39.9017 212.48 39.0198C211.907 38.7258 211.672 38.0203 211.966 37.4324C212.26 36.8591 212.965 36.624 213.553 36.9179C215.346 37.8292 217.11 38.8581 218.8 39.9605C219.344 40.3133 219.506 41.0482 219.138 41.592C218.918 41.9448 218.55 42.1359 218.168 42.1359ZM156.273 42.1065C155.891 42.1065 155.509 41.9154 155.288 41.5773C154.936 41.0335 155.083 40.2986 155.627 39.9458C157.317 38.8434 159.081 37.8292 160.889 36.9032C161.462 36.6093 162.182 36.8444 162.476 37.4177C162.77 37.9909 162.535 38.7111 161.962 39.0051C160.242 39.887 158.537 40.8718 156.92 41.9154C156.714 42.0477 156.494 42.1065 156.273 42.1065ZM207.585 36.7269C207.438 36.7269 207.306 36.6975 207.159 36.6534C205.351 35.9625 203.485 35.3599 201.618 34.8455C200.986 34.6838 200.618 34.037 200.78 33.405C200.942 32.773 201.588 32.4055 202.221 32.5672C204.175 33.0816 206.116 33.7137 207.997 34.4486C208.6 34.6838 208.908 35.3599 208.673 35.9625C208.511 36.4476 208.056 36.7269 207.585 36.7269ZM166.856 36.7122C166.386 36.7122 165.945 36.4182 165.754 35.9625C165.519 35.3599 165.827 34.6691 166.43 34.4486C168.311 33.7284 170.251 33.0963 172.206 32.5819C172.838 32.4202 173.485 32.7877 173.647 33.4197C173.808 34.0517 173.441 34.6985 172.809 34.8602C170.942 35.3599 169.076 35.9625 167.268 36.6534C167.135 36.6828 167.003 36.7122 166.856 36.7122ZM196.121 33.6549C196.062 33.6549 196.003 33.6549 195.93 33.6402C194.019 33.3462 192.079 33.1404 190.138 33.0376C189.492 33.0082 188.992 32.4496 189.021 31.8029C189.051 31.1562 189.609 30.6564 190.256 30.6858C192.27 30.7887 194.298 31.0092 196.297 31.3178C196.944 31.4207 197.37 32.0234 197.282 32.6554C197.179 33.2433 196.679 33.6549 196.121 33.6549ZM178.336 33.6549C177.762 33.6549 177.263 33.2433 177.174 32.6554C177.072 32.0087 177.512 31.406 178.159 31.3178C180.143 31.0092 182.172 30.7887 184.2 30.6858C184.847 30.6564 185.406 31.1562 185.435 31.8029C185.464 32.4496 184.965 33.0082 184.318 33.0376C182.378 33.1404 180.437 33.3315 178.527 33.6402C178.453 33.6402 178.394 33.6549 178.336 33.6549Z" fill="#95A6DB"/>
<path d="M130.389 89.7736C129.743 89.7736 129.214 89.2445 129.214 88.5977C129.214 87.5983 129.243 86.5988 129.287 85.5993C129.317 84.9525 129.875 84.4528 130.522 84.4822C131.169 84.5116 131.668 85.0701 131.639 85.7169C131.595 86.6723 131.565 87.6424 131.565 88.5977C131.565 89.2445 131.036 89.7736 130.389 89.7736Z" fill="#95A6DB"/>
<path d="M146.308 89.7732C145.661 89.7732 145.132 89.2441 145.132 88.5973C145.132 87.5979 145.161 86.569 145.235 85.5695C145.279 84.9227 145.838 84.4377 146.484 84.4818C147.131 84.5259 147.616 85.0844 147.572 85.7312C147.499 86.6719 147.469 87.642 147.469 88.5826C147.484 89.2441 146.955 89.7732 146.308 89.7732Z" fill="#95A6DB"/>
<path d="M147.234 81.0573C147.146 81.0573 147.072 81.0426 146.984 81.0279C146.352 80.8957 145.94 80.2636 146.087 79.6316C146.514 77.6767 147.087 75.7365 147.778 73.8698C147.998 73.2672 148.689 72.9585 149.292 73.179C149.894 73.3995 150.203 74.0903 149.983 74.6929C149.321 76.4567 148.792 78.294 148.38 80.1313C148.263 80.6752 147.778 81.0573 147.234 81.0573ZM227.149 81.0279C226.605 81.0279 226.12 80.6458 226.003 80.1019C225.606 78.2646 225.062 76.4273 224.401 74.6635C224.18 74.0609 224.474 73.3848 225.091 73.1496C225.694 72.9291 226.37 73.2231 226.605 73.8404C227.311 75.7071 227.869 77.6473 228.296 79.6022C228.428 80.2342 228.031 80.8663 227.399 80.9985C227.326 81.0132 227.237 81.0279 227.149 81.0279ZM151.305 70.1511C151.114 70.1511 150.923 70.107 150.747 70.0041C150.174 69.6955 149.968 68.9752 150.276 68.402C151.232 66.6529 152.334 64.9626 153.525 63.3604C153.922 62.846 154.657 62.7431 155.171 63.1253C155.686 63.5221 155.788 64.257 155.406 64.7715C154.274 66.2854 153.246 67.8876 152.334 69.5338C152.128 69.9306 151.732 70.1511 151.305 70.1511ZM223.078 70.1364C222.666 70.1364 222.255 69.9159 222.049 69.5191C221.138 67.8729 220.109 66.2707 218.977 64.7568C218.58 64.2423 218.698 63.5074 219.212 63.1106C219.727 62.7137 220.461 62.8313 220.858 63.3457C222.064 64.9479 223.151 66.6382 224.107 68.3873C224.415 68.9605 224.21 69.6661 223.636 69.9894C223.475 70.0923 223.269 70.1364 223.078 70.1364ZM158.287 60.847C157.993 60.847 157.684 60.7294 157.449 60.509C156.994 60.0533 156.994 59.3037 157.449 58.848C158.86 57.437 160.389 56.1141 161.976 54.9236C162.491 54.5414 163.226 54.6443 163.623 55.1587C164.005 55.6732 163.902 56.4228 163.387 56.8049C161.874 57.9367 160.448 59.1861 159.11 60.509C158.89 60.7294 158.596 60.847 158.287 60.847ZM216.096 60.8323C215.802 60.8323 215.493 60.7147 215.258 60.4943C213.921 59.1567 212.48 57.9073 210.981 56.7902C210.467 56.4081 210.349 55.6585 210.746 55.144C211.128 54.6296 211.878 54.512 212.392 54.9089C213.994 56.0994 215.508 57.4223 216.934 58.8333C217.389 59.289 217.389 60.0386 216.934 60.4943C216.699 60.7147 216.405 60.8323 216.096 60.8323ZM167.606 53.8653C167.194 53.8653 166.783 53.6448 166.577 53.2479C166.268 52.6747 166.474 51.9692 167.047 51.6458C168.797 50.6904 170.634 49.8526 172.5 49.1471C173.103 48.9266 173.779 49.2353 174.014 49.8379C174.235 50.4405 173.926 51.1167 173.324 51.3518C171.56 52.0133 169.825 52.807 168.179 53.7036C167.988 53.8212 167.797 53.8653 167.606 53.8653ZM206.777 53.8653C206.586 53.8653 206.395 53.8212 206.219 53.7183C204.558 52.807 202.823 52.028 201.06 51.3665C200.457 51.1461 200.148 50.4699 200.369 49.8526C200.589 49.25 201.265 48.9413 201.883 49.1618C203.749 49.8526 205.587 50.6904 207.336 51.6605C207.909 51.9692 208.115 52.6894 207.806 53.2626C207.6 53.6448 207.203 53.8653 206.777 53.8653ZM178.497 49.8085C177.954 49.8085 177.469 49.4263 177.351 48.8825C177.219 48.2505 177.616 47.6184 178.248 47.4862C180.188 47.0599 182.187 46.7806 184.186 46.6336C184.832 46.5895 185.391 47.0746 185.435 47.7213C185.479 48.3681 184.994 48.9266 184.347 48.9707C182.466 49.103 180.585 49.3676 178.747 49.7644C178.659 49.7938 178.586 49.8085 178.497 49.8085ZM195.871 49.7938C195.783 49.7938 195.709 49.7791 195.621 49.7644C193.784 49.3676 191.902 49.103 190.021 48.9707C189.374 48.9266 188.889 48.3681 188.933 47.7213C188.977 47.0746 189.536 46.5895 190.183 46.6336C192.182 46.7806 194.181 47.0599 196.121 47.4715C196.753 47.6037 197.164 48.2358 197.017 48.8678C196.9 49.4263 196.415 49.7938 195.871 49.7938Z" fill="#95A6DB"/>
<path d="M228.09 89.7737C227.443 89.7737 226.914 89.2445 226.914 88.5978C226.914 87.6424 226.885 86.687 226.811 85.7463C226.767 85.0996 227.252 84.541 227.899 84.4969C228.546 84.4528 229.104 84.9379 229.148 85.5846C229.222 86.5841 229.251 87.5983 229.251 88.6125C229.266 89.2445 228.737 89.7737 228.09 89.7737Z" fill="#95A6DB"/>
<path d="M243.802 90.4641C243.802 90.4641 243.788 90.4641 243.802 90.4641C243.567 90.4641 243.347 90.3465 243.214 90.1701L235.704 80.0723C235.468 79.749 235.527 79.2933 235.851 79.0434C236.174 78.8083 236.63 78.8671 236.879 79.1904L243.817 88.5239L250.725 79.94C250.975 79.6314 251.446 79.5726 251.754 79.8224C252.063 80.0723 252.122 80.5427 251.872 80.8513L244.361 90.1701C244.243 90.3612 244.023 90.4641 243.802 90.4641Z" fill="#95A6DB"/>
<path d="M146.293 90.4641C146.278 90.4641 146.278 90.4641 146.293 90.4641C146.058 90.4641 145.837 90.3465 145.705 90.1701L138.194 80.0723C137.959 79.749 138.018 79.2933 138.341 79.0434C138.665 78.8083 139.12 78.8671 139.37 79.1904L146.308 88.5239L153.216 79.94C153.466 79.6314 153.936 79.5726 154.245 79.8224C154.554 80.0723 154.612 80.5427 154.363 80.8513L146.852 90.1701C146.719 90.3612 146.514 90.4641 146.293 90.4641Z" fill="#95A6DB"/>
<path d="M295.511 248.825V251.808C295.511 252.97 294.571 253.91 293.41 253.91H257.06C255.899 253.91 254.958 252.97 254.958 251.808V248.825C254.958 248.31 255.15 247.825 255.458 247.458C255.84 247.002 256.428 246.708 257.06 246.708H293.41C294.056 246.708 294.63 247.002 295.012 247.458C295.32 247.825 295.511 248.295 295.511 248.825Z" fill="#FAD332"/>
<path d="M258.016 246.708H256.958V253.896H258.016V246.708Z" fill="#FABA23"/>
<path d="M262.455 246.708H261.396V253.896H262.455V246.708Z" fill="#FABA23"/>
<path d="M266.879 246.708H265.821V253.896H266.879V246.708Z" fill="#FABA23"/>
<path d="M271.303 246.708H270.245V253.896H271.303V246.708Z" fill="#FABA23"/>
<path d="M275.727 246.708H274.669V253.896H275.727V246.708Z" fill="#FABA23"/>
<path d="M280.152 246.708H279.093V253.896H280.152V246.708Z" fill="#FABA23"/>
<path d="M284.591 246.708H283.532V253.896H284.591V246.708Z" fill="#FABA23"/>
<path d="M289.015 246.708H287.957V253.896H289.015V246.708Z" fill="#FABA23"/>
<path d="M293.439 246.708H292.381V253.896H293.439V246.708Z" fill="#FABA23"/>
<path d="M295.012 247.458H255.444C255.826 247.002 256.414 246.708 257.046 246.708H293.395C294.042 246.708 294.63 247.002 295.012 247.458Z" fill="#FABA23"/>
<path d="M295.012 253.161H255.444C255.826 253.616 256.414 253.91 257.046 253.91H293.395C294.042 253.91 294.63 253.616 295.012 253.161Z" fill="#FABA23"/>
<path d="M298.054 241.622V244.606C298.054 245.767 297.113 246.708 295.952 246.708H259.603C258.442 246.708 257.501 245.767 257.501 244.606V241.622C257.501 241.108 257.692 240.623 258.001 240.255C258.383 239.8 258.971 239.506 259.603 239.506H295.952C296.599 239.506 297.172 239.8 297.554 240.255C297.863 240.638 298.054 241.108 298.054 241.622Z" fill="#FAD332"/>
<path d="M260.558 239.521H259.5V246.709H260.558V239.521Z" fill="#FABA23"/>
<path d="M264.997 239.521H263.939V246.709H264.997V239.521Z" fill="#FABA23"/>
<path d="M269.422 239.521H268.363V246.709H269.422V239.521Z" fill="#FABA23"/>
<path d="M273.846 239.521H272.787V246.709H273.846V239.521Z" fill="#FABA23"/>
<path d="M278.27 239.521H277.212V246.709H278.27V239.521Z" fill="#FABA23"/>
<path d="M282.694 239.521H281.636V246.709H282.694V239.521Z" fill="#FABA23"/>
<path d="M287.133 239.521H286.075V246.709H287.133V239.521Z" fill="#FABA23"/>
<path d="M291.557 239.521H290.499V246.709H291.557V239.521Z" fill="#FABA23"/>
<path d="M295.982 239.521H294.923V246.709H295.982V239.521Z" fill="#FABA23"/>
<path d="M297.554 240.271H257.986C258.368 239.815 258.956 239.521 259.588 239.521H295.937C296.584 239.521 297.172 239.815 297.554 240.271Z" fill="#FABA23"/>
<path d="M297.554 245.973H257.986C258.368 246.429 258.956 246.723 259.588 246.723H295.937C296.584 246.708 297.172 246.429 297.554 245.973Z" fill="#FABA23"/>
<path d="M296.085 234.45V237.433C296.085 238.595 295.144 239.535 293.983 239.535H257.634C256.472 239.535 255.532 238.595 255.532 237.433V234.45C255.532 233.935 255.723 233.45 256.031 233.083C256.414 232.627 257.002 232.333 257.634 232.333H293.968C294.615 232.333 295.188 232.627 295.57 233.083C295.894 233.465 296.085 233.935 296.085 234.45Z" fill="#FAD332"/>
<path d="M258.589 232.348H257.531V239.535H258.589V232.348Z" fill="#FABA23"/>
<path d="M263.013 232.348H261.955V239.535H263.013V232.348Z" fill="#FABA23"/>
<path d="M267.452 232.348H266.394V239.535H267.452V232.348Z" fill="#FABA23"/>
<path d="M271.876 232.348H270.818V239.535H271.876V232.348Z" fill="#FABA23"/>
<path d="M276.301 232.348H275.242V239.535H276.301V232.348Z" fill="#FABA23"/>
<path d="M280.725 232.348H279.667V239.535H280.725V232.348Z" fill="#FABA23"/>
<path d="M285.149 232.348H284.091V239.535H285.149V232.348Z" fill="#FABA23"/>
<path d="M289.588 232.348H288.53V239.535H289.588V232.348Z" fill="#FABA23"/>
<path d="M294.012 232.348H292.954V239.535H294.012V232.348Z" fill="#FABA23"/>
<path d="M295.585 233.097H256.017C256.399 232.642 256.987 232.348 257.619 232.348H293.968C294.615 232.348 295.188 232.627 295.585 233.097Z" fill="#FABA23"/>
<path d="M295.585 238.786H256.017C256.399 239.241 256.987 239.535 257.619 239.535H293.968C294.615 239.535 295.188 239.241 295.585 238.786Z" fill="#FABA23"/>
<path d="M296.893 227.41V230.393C296.893 231.554 295.952 232.495 294.791 232.495H258.442C257.281 232.495 256.34 231.554 256.34 230.393V227.41C256.34 226.895 256.531 226.41 256.84 226.043C257.222 225.587 257.81 225.293 258.442 225.293H294.791C295.438 225.293 296.011 225.587 296.393 226.043C296.702 226.41 296.893 226.88 296.893 227.41Z" fill="#FAD332"/>
<path d="M259.397 225.292H258.339V232.48H259.397V225.292Z" fill="#FABA23"/>
<path d="M263.836 225.292H262.778V232.48H263.836V225.292Z" fill="#FABA23"/>
<path d="M268.26 225.292H267.202V232.48H268.26V225.292Z" fill="#FABA23"/>
<path d="M272.684 225.292H271.626V232.48H272.684V225.292Z" fill="#FABA23"/>
<path d="M277.109 225.292H276.051V232.48H277.109V225.292Z" fill="#FABA23"/>
<path d="M281.533 225.292H280.475V232.48H281.533V225.292Z" fill="#FABA23"/>
<path d="M285.972 225.292H284.914V232.48H285.972V225.292Z" fill="#FABA23"/>
<path d="M290.396 225.292H289.338V232.48H290.396V225.292Z" fill="#FABA23"/>
<path d="M294.821 225.292H293.762V232.48H294.821V225.292Z" fill="#FABA23"/>
<path d="M296.393 226.042H256.825C257.207 225.586 257.795 225.292 258.427 225.292H294.776C295.423 225.292 296.011 225.586 296.393 226.042Z" fill="#FABA23"/>
<path d="M296.393 231.745H256.825C257.207 232.201 257.795 232.495 258.427 232.495H294.776C295.423 232.48 296.011 232.201 296.393 231.745Z" fill="#FABA23"/>
<path d="M292.366 220.104V223.088C292.366 224.249 291.425 225.19 290.264 225.19H253.915C252.754 225.19 251.813 224.249 251.813 223.088V220.104C251.813 219.589 252.004 219.104 252.313 218.737C252.695 218.281 253.283 217.987 253.915 217.987H290.264C290.911 217.987 291.484 218.281 291.866 218.737C292.175 219.104 292.366 219.589 292.366 220.104Z" fill="#FAD332"/>
<path d="M254.87 218.001H253.812V225.189H254.87V218.001Z" fill="#FABA23"/>
<path d="M259.295 218.001H258.236V225.189H259.295V218.001Z" fill="#FABA23"/>
<path d="M263.734 218.001H262.675V225.189H263.734V218.001Z" fill="#FABA23"/>
<path d="M268.158 218.001H267.099V225.189H268.158V218.001Z" fill="#FABA23"/>
<path d="M272.582 218.001H271.524V225.189H272.582V218.001Z" fill="#FABA23"/>
<path d="M277.006 218.001H275.948V225.189H277.006V218.001Z" fill="#FABA23"/>
<path d="M281.43 218.001H280.372V225.189H281.43V218.001Z" fill="#FABA23"/>
<path d="M285.869 218.001H284.811V225.189H285.869V218.001Z" fill="#FABA23"/>
<path d="M290.294 218.001H289.235V225.189H290.294V218.001Z" fill="#FABA23"/>
<path d="M291.866 218.736H252.298C252.68 218.281 253.268 217.987 253.9 217.987H290.249C290.896 218.002 291.469 218.281 291.866 218.736Z" fill="#FABA23"/>
<path d="M291.866 224.439H252.298C252.68 224.895 253.268 225.189 253.9 225.189H290.249C290.896 225.189 291.469 224.895 291.866 224.439Z" fill="#FABA23"/>
<path d="M296.82 212.99V215.973C296.82 217.135 295.879 218.075 294.718 218.075H258.368C257.207 218.075 256.267 217.135 256.267 215.973V212.99C256.267 212.475 256.458 211.99 256.766 211.623C257.149 211.167 257.736 210.873 258.368 210.873H294.718C295.364 210.873 295.938 211.167 296.32 211.623C296.628 212.005 296.82 212.475 296.82 212.99Z" fill="#FAD332"/>
<path d="M259.339 210.888H258.281V218.076H259.339V210.888Z" fill="#FABA23"/>
<path d="M263.763 210.888H262.705V218.076H263.763V210.888Z" fill="#FABA23"/>
<path d="M268.187 210.888H267.129V218.076H268.187V210.888Z" fill="#FABA23"/>
<path d="M272.611 210.888H271.553V218.076H272.611V210.888Z" fill="#FABA23"/>
<path d="M277.036 210.888H275.977V218.076H277.036V210.888Z" fill="#FABA23"/>
<path d="M281.475 210.888H280.416V218.076H281.475V210.888Z" fill="#FABA23"/>
<path d="M285.899 210.888H284.841V218.076H285.899V210.888Z" fill="#FABA23"/>
<path d="M290.323 210.888H289.265V218.076H290.323V210.888Z" fill="#FABA23"/>
<path d="M294.747 210.888H293.689V218.076H294.747V210.888Z" fill="#FABA23"/>
<path d="M296.32 211.638H256.752C257.134 211.182 257.722 210.888 258.354 210.888H294.703C295.35 210.888 295.938 211.182 296.32 211.638Z" fill="#FABA23"/>
<path d="M296.32 217.326H256.752C257.134 217.781 257.722 218.075 258.354 218.075H294.703C295.35 218.075 295.938 217.796 296.32 217.326Z" fill="#FABA23"/>
<path d="M295.232 205.788V208.772C295.232 209.933 294.291 210.874 293.13 210.874H256.781C255.62 210.874 254.679 209.933 254.679 208.772V205.788C254.679 205.274 254.87 204.788 255.179 204.421C255.561 203.965 256.149 203.671 256.781 203.671H293.13C293.777 203.671 294.35 203.965 294.732 204.421C295.056 204.788 295.232 205.259 295.232 205.788Z" fill="#FAD332"/>
<path d="M257.751 203.671H256.693V210.858H257.751V203.671Z" fill="#FABA23"/>
<path d="M262.175 203.671H261.117V210.858H262.175V203.671Z" fill="#FABA23"/>
<path d="M266.6 203.671H265.541V210.858H266.6V203.671Z" fill="#FABA23"/>
<path d="M271.038 203.671H269.98V210.858H271.038V203.671Z" fill="#FABA23"/>
<path d="M275.463 203.671H274.404V210.858H275.463V203.671Z" fill="#FABA23"/>
<path d="M279.887 203.671H278.829V210.858H279.887V203.671Z" fill="#FABA23"/>
<path d="M284.311 203.671H283.253V210.858H284.311V203.671Z" fill="#FABA23"/>
<path d="M288.735 203.671H287.677V210.858H288.735V203.671Z" fill="#FABA23"/>
<path d="M293.174 203.671H292.116V210.858H293.174V203.671Z" fill="#FABA23"/>
<path d="M294.732 204.421H255.164C255.546 203.965 256.134 203.671 256.766 203.671H293.115C293.777 203.671 294.35 203.965 294.732 204.421Z" fill="#FABA23"/>
<path d="M294.732 210.124H255.164C255.546 210.579 256.134 210.873 256.766 210.873H293.115C293.777 210.873 294.35 210.579 294.732 210.124Z" fill="#FABA23"/>
<path d="M297.407 198.629V201.613C297.407 202.774 296.467 203.715 295.306 203.715H258.956C257.795 203.715 256.854 202.774 256.854 201.613V198.629C256.854 198.115 257.046 197.63 257.354 197.262C257.736 196.807 258.324 196.513 258.956 196.513H295.306C295.952 196.513 296.526 196.807 296.908 197.262C297.216 197.644 297.407 198.115 297.407 198.629Z" fill="#FAD332"/>
<path d="M259.927 196.527H258.868V203.715H259.927V196.527Z" fill="#FABA23"/>
<path d="M264.351 196.527H263.292V203.715H264.351V196.527Z" fill="#FABA23"/>
<path d="M268.775 196.527H267.717V203.715H268.775V196.527Z" fill="#FABA23"/>
<path d="M273.199 196.527H272.141V203.715H273.199V196.527Z" fill="#FABA23"/>
<path d="M277.638 196.527H276.58V203.715H277.638V196.527Z" fill="#FABA23"/>
<path d="M282.062 196.527H281.004V203.715H282.062V196.527Z" fill="#FABA23"/>
<path d="M286.487 196.527H285.428V203.715H286.487V196.527Z" fill="#FABA23"/>
<path d="M290.911 196.527H289.853V203.715H290.911V196.527Z" fill="#FABA23"/>
<path d="M295.335 196.527H294.277V203.715H295.335V196.527Z" fill="#FABA23"/>
<path d="M296.908 197.277H257.34C257.722 196.821 258.31 196.527 258.942 196.527H295.291C295.952 196.527 296.526 196.807 296.908 197.277Z" fill="#FABA23"/>
<path d="M296.908 202.965H257.34C257.722 203.421 258.31 203.715 258.942 203.715H295.291C295.952 203.715 296.526 203.421 296.908 202.965Z" fill="#FABA23"/>
<path d="M262.541 253.153C273.92 249.4 280.102 237.133 276.35 225.754C272.597 214.375 260.33 208.193 248.951 211.945C237.572 215.698 231.39 227.965 235.142 239.344C238.895 250.723 251.162 256.905 262.541 253.153Z" fill="#FABA23"/>
<path d="M272.699 238.021C269.671 247.384 259.632 252.528 250.269 249.5C249.299 249.192 248.359 248.795 247.477 248.339C245.992 247.56 244.64 246.59 243.464 245.473C243.023 245.047 242.597 244.606 242.2 244.136C239.275 240.711 237.717 236.242 237.952 231.627C238.026 230.113 238.305 228.599 238.79 227.085C241.039 220.104 247.198 215.474 254.076 214.812C256.413 214.592 258.839 214.827 261.22 215.606C263.278 216.267 265.144 217.282 266.746 218.546C267.231 218.928 267.702 219.325 268.143 219.751C269.333 220.912 270.362 222.22 271.185 223.646C273.596 227.85 274.301 233.038 272.699 238.021Z" fill="#FAD332"/>
<path d="M266.746 218.531L242.2 244.121C239.275 240.696 237.717 236.228 237.952 231.613L254.076 214.812C256.413 214.592 258.839 214.827 261.22 215.606C263.278 216.253 265.13 217.267 266.746 218.531Z" fill="#FAEE6C"/>
<path d="M271.171 223.631L247.477 248.325C245.992 247.546 244.64 246.576 243.464 245.459L268.143 219.736C269.333 220.898 270.348 222.206 271.171 223.631Z" fill="#FAEE6C"/>
<path d="M256.943 215.621C254.841 215.4 254.459 215.606 253.503 217.473C253.738 215.4 253.533 215.003 251.651 214.033C253.753 214.254 254.135 214.048 255.091 212.181C254.855 214.283 255.076 214.665 256.943 215.621Z" fill="white"/>
<path d="M249.49 249.074C247.712 248.883 247.389 249.06 246.595 250.632C246.786 248.883 246.624 248.56 245.037 247.737C246.815 247.928 247.139 247.751 247.932 246.179C247.741 247.957 247.918 248.281 249.49 249.074Z" fill="white"/>
<path d="M269.804 160.546C256.679 160.546 245.993 149.86 245.993 136.734C245.993 123.609 256.679 112.923 269.804 112.923C282.93 112.923 293.616 123.609 293.616 136.734C293.601 149.86 282.93 160.546 269.804 160.546ZM269.804 114.099C257.325 114.099 247.169 124.255 247.169 136.734C247.169 149.213 257.325 159.37 269.804 159.37C282.283 159.37 292.44 149.213 292.44 136.734C292.425 124.255 282.283 114.099 269.804 114.099Z" fill="#E3EAFF"/>
<path d="M269.804 150.242C268.055 150.242 266.644 148.831 266.644 147.082V103.398C266.644 101.649 268.055 100.238 269.804 100.238C271.554 100.238 272.965 101.649 272.965 103.398V147.082C272.965 148.831 271.539 150.242 269.804 150.242Z" fill="#E3EAFF"/>
<path d="M269.804 160.547C256.679 160.547 245.993 149.861 245.993 136.735C245.993 123.61 256.679 112.924 269.804 112.924C282.93 112.924 293.616 123.61 293.616 136.735C293.601 149.861 282.93 160.547 269.804 160.547ZM269.804 114.1C257.325 114.1 247.169 124.256 247.169 136.735C247.169 149.214 257.325 159.371 269.804 159.371C282.283 159.371 292.44 149.214 292.44 136.735C292.425 124.256 282.283 114.1 269.804 114.1Z" fill="#E3EAFF"/>
<path d="M269.804 150.243C268.055 150.243 266.644 148.832 266.644 147.083V103.399C266.644 101.65 268.055 100.239 269.804 100.239C271.553 100.239 272.964 101.65 272.964 103.399V147.083C272.964 148.832 271.539 150.243 269.804 150.243Z" fill="#E3EAFF"/>
<path d="M270.01 152.845C269.966 152.845 269.922 152.845 269.893 152.845C268.922 152.801 268.026 152.331 267.467 151.552L254.342 134.737C253.313 133.325 253.621 131.356 255.032 130.327C256.443 129.298 258.413 129.607 259.442 131.018L270.201 144.599L280.299 130.812C281.431 129.489 283.43 129.327 284.753 130.459C286.075 131.591 286.237 133.59 285.105 134.913L272.421 151.728C271.818 152.433 270.936 152.845 270.01 152.845Z" fill="#E3EAFF"/>
<path d="M112.046 158.121C98.9204 158.121 88.2346 147.435 88.2346 134.309C88.2346 121.184 98.9204 110.498 112.046 110.498C125.172 110.498 135.857 121.184 135.857 134.309C135.843 147.435 125.172 158.121 112.046 158.121ZM112.046 111.689C99.5671 111.689 89.4105 121.845 89.4105 134.324C89.4105 146.803 99.5671 156.96 112.046 156.96C124.525 156.96 134.682 146.803 134.682 134.324C134.667 121.831 124.51 111.689 112.046 111.689Z" fill="#E3EAFF"/>
<path d="M124.219 146.487C130.947 139.759 130.947 128.852 124.219 122.125C117.492 115.397 106.585 115.397 99.8576 122.125C93.1303 128.852 93.1303 139.759 99.8576 146.487C106.585 153.214 117.492 153.214 124.219 146.487Z" fill="#E3EAFF"/>
<path d="M125.083 141.541C122.555 146.142 117.661 149.258 112.031 149.258C106.402 149.258 101.507 146.142 98.979 141.541C100.581 138.689 103.08 136.426 106.108 135.118C104.814 133.692 104.035 131.811 104.035 129.738C104.035 125.314 107.622 121.742 112.031 121.742C116.455 121.742 120.027 125.329 120.027 129.738C120.027 131.811 119.233 133.692 117.955 135.118C120.983 136.426 123.481 138.704 125.083 141.541Z" fill="#95A6DB"/>
<path d="M294.63 175.127L284.635 169.762C284.355 170.291 284.076 170.806 283.782 171.335C283.371 172.099 285.296 173.922 288.059 175.406C290.837 176.891 293.41 177.494 293.821 176.729C293.88 176.67 294.63 175.127 294.63 175.127Z" fill="#FABA23"/>
<path d="M294.644 175.245C294.233 176.009 291.661 175.407 288.883 173.922C286.105 172.437 284.194 170.6 284.605 169.851C285.017 169.086 287.589 169.689 290.367 171.173C293.13 172.658 295.056 174.495 294.644 175.245Z" fill="#FAD332"/>
<path d="M250.255 195.322L240.143 196.968C240.231 197.498 240.319 198.027 240.407 198.556C240.525 199.32 242.906 199.585 245.713 199.114C248.521 198.659 250.696 197.659 250.564 196.895C250.549 196.836 250.255 195.322 250.255 195.322Z" fill="#FABA23"/>
<path d="M250.315 195.396C250.432 196.16 248.272 197.16 245.464 197.615C242.657 198.071 240.276 197.821 240.158 197.057C240.041 196.292 242.201 195.293 245.009 194.837C247.816 194.367 250.197 194.631 250.315 195.396Z" fill="#FAD332"/>
<path d="M262.323 177.581L253.136 173.054C252.901 173.539 252.666 174.024 252.431 174.495C252.093 175.2 253.871 176.773 256.429 178.037C258.986 179.286 261.323 179.742 261.676 179.051C261.691 178.992 262.323 177.581 262.323 177.581Z" fill="#FABA23"/>
<path d="M262.337 177.684C261.999 178.39 259.647 177.934 257.09 176.67C254.532 175.421 252.754 173.833 253.092 173.128C253.43 172.422 255.782 172.878 258.339 174.142C260.897 175.406 262.69 176.993 262.337 177.684Z" fill="#FAD332"/>
<path d="M248.639 160.517L238.056 162.237C238.144 162.795 238.232 163.339 238.32 163.898C238.453 164.706 240.937 164.971 243.876 164.486C246.816 164.001 249.094 162.972 248.962 162.163C248.947 162.105 248.639 160.517 248.639 160.517Z" fill="#FABA23"/>
<path d="M248.713 160.59C248.845 161.399 246.567 162.427 243.627 162.913C240.687 163.383 238.203 163.118 238.071 162.325C237.939 161.516 240.217 160.487 243.157 160.002C246.097 159.517 248.581 159.796 248.713 160.59Z" fill="#FAD332"/>
<path d="M143.559 196.057H79.4008C76.5494 196.057 74.2417 193.75 74.2417 190.898V177.332C74.2417 174.48 76.5494 172.172 79.4008 172.172H143.574C146.426 172.172 148.733 174.48 148.733 177.332V190.898C148.733 193.75 146.411 196.057 143.559 196.057Z" fill="#E3EAFF"/>
<path d="M97.377 180.742V187.459C97.377 189.267 95.9072 190.737 94.0993 190.737H81.3852C80.7237 190.737 80.0917 190.531 79.5773 190.193C78.6954 189.605 78.1074 188.605 78.1074 187.459V180.742C78.1074 178.934 79.5773 177.464 81.3852 177.464H94.0993C94.8342 177.464 95.525 177.714 96.0689 178.125C96.8626 178.728 97.377 179.669 97.377 180.742Z" fill="#FABA23"/>
<path d="M123.29 186.841H102.198C100.684 186.841 99.4641 185.621 99.4641 184.107C99.4641 182.594 100.684 181.374 102.198 181.374H123.29C124.804 181.374 126.024 182.594 126.024 184.107C126.024 185.621 124.804 186.841 123.29 186.841Z" fill="#95A6DB"/>
<path d="M142.134 186.841H131.551C130.037 186.841 128.817 185.621 128.817 184.107C128.817 182.594 130.037 181.374 131.551 181.374H142.134C143.648 181.374 144.868 182.594 144.868 184.107C144.868 185.621 143.633 186.841 142.134 186.841Z" fill="#4EAD60"/>
<path d="M96.0689 178.125L79.5773 190.207C78.6954 189.619 78.1074 188.62 78.1074 187.473V180.756C78.1074 178.948 79.5773 177.478 81.3852 177.478H94.0993C94.8342 177.463 95.525 177.713 96.0689 178.125Z" fill="#FAD332"/>
<path d="M93.1146 186.974C93.1146 188.194 92.1298 189.179 90.9098 189.179C89.6899 189.179 88.7051 188.194 88.7051 186.974C88.7051 185.754 89.6899 184.769 90.9098 184.769C92.1298 184.769 93.1146 185.754 93.1146 186.974Z" fill="#E62552"/>
<path d="M95.7308 186.974C95.7308 188.194 94.746 189.179 93.5261 189.179C92.3061 189.179 91.3213 188.194 91.3213 186.974C91.3213 185.754 92.3061 184.769 93.5261 184.769C94.746 184.769 95.7308 185.754 95.7308 186.974Z" fill="#95A6DB"/>
<path d="M329.377 156.872C330.655 152.859 330.347 148.964 327.525 146.333C324.673 143.673 320.087 144.511 320.087 144.511C320.087 144.511 316.883 142.423 312.87 145.157C308.858 147.891 310.519 151.551 308.608 153.785C307.476 155.108 303.493 154.476 303.316 159.65C303.272 161.135 304.742 162.501 306.168 162.942C308.667 163.721 311.43 163.207 312.062 164.53C314.208 169.072 322.468 169.219 324.232 166.514C324.776 165.676 331.111 169.072 331.934 162.663C332.36 159.415 328.23 160.458 329.377 156.872Z" fill="#020205"/>
<path d="M313.018 155.284C312.503 160.223 315.222 164.559 319.103 164.971C322.983 165.382 326.555 161.708 327.069 156.754C327.584 151.816 324.864 147.479 320.984 147.068C317.104 146.671 313.532 150.346 313.018 155.284Z" fill="#F37A50"/>
<path d="M324.967 157.371C325.011 157.739 325.349 158.003 325.717 157.959C326.084 157.915 326.349 157.577 326.305 157.209C326.261 156.842 325.923 156.577 325.555 156.622C325.188 156.651 324.923 157.004 324.967 157.371Z" fill="black"/>
<path d="M319.514 156.827C319.558 157.224 319.926 157.518 320.337 157.474C320.734 157.43 321.028 157.063 320.984 156.651C320.94 156.254 320.573 155.96 320.161 156.004C319.749 156.063 319.456 156.431 319.514 156.827Z" fill="black"/>
<path d="M318.941 155.99C319 155.99 319.044 155.961 319.088 155.917C319.705 155.285 320.69 155.476 320.705 155.476C320.837 155.505 320.984 155.417 320.999 155.27C321.028 155.138 320.94 154.991 320.793 154.976C320.734 154.961 319.529 154.726 318.72 155.564C318.618 155.667 318.618 155.828 318.72 155.931C318.794 155.975 318.867 155.99 318.941 155.99Z" fill="#020205"/>
<path d="M326.702 156.93C326.731 156.93 326.761 156.916 326.775 156.901C326.908 156.842 326.952 156.681 326.893 156.563C326.408 155.578 325.408 155.563 325.364 155.563C325.217 155.563 325.114 155.681 325.1 155.813C325.1 155.96 325.217 156.063 325.349 156.078C325.379 156.078 326.099 156.107 326.422 156.798C326.481 156.886 326.584 156.945 326.702 156.93Z" fill="#020205"/>
<path d="M324.071 158.621C324.291 159.106 324.467 159.591 324.732 159.914C324.82 160.032 324.806 160.194 324.703 160.282C324.262 160.664 323.336 160.782 322.777 160.811C322.689 160.811 322.674 160.708 322.748 160.679C323.394 160.429 323.718 160.179 323.865 160.032C323.938 159.958 323.968 159.856 323.968 159.753C323.938 159.518 323.879 159.047 323.865 158.665C323.835 158.533 324.012 158.489 324.071 158.621Z" fill="#DE623C"/>
<path d="M318.823 160.855C318.765 160.679 318.941 160.532 319.103 160.605C319.514 160.811 320.19 161.12 320.866 161.37C321.543 161.605 322.277 161.781 322.718 161.884C322.895 161.928 322.939 162.149 322.792 162.252C322.336 162.56 321.469 162.972 320.44 162.604C319.411 162.237 318.985 161.384 318.823 160.855Z" fill="white"/>
<path d="M313.076 154.858C317.545 155.799 325.07 153.565 326.349 151.492C326.467 148.523 322.542 145.613 319.617 145.98C316.692 146.333 312.459 150.831 313.076 154.858Z" fill="#020205"/>
<path d="M326.246 168.219C330.847 169.366 338.725 180.125 339.46 188.194C336.932 188.724 334.051 186.71 334.051 186.71L327.789 177.714L326.246 168.219Z" fill="#DE623C"/>
<path d="M330.685 260.496L333.154 250.781L327.04 249.943C326.834 254.543 326.481 259.056 326.511 260.291L330.685 260.496Z" fill="#F37A50"/>
<path d="M316.089 249.898H309.696C309.901 251.427 310.739 259.717 310.739 259.717C311.283 260.937 316.045 260.658 316.045 259.967C315.693 258.482 316.06 250.09 316.089 249.898Z" fill="#F37A50"/>
<path d="M326.54 253.691L332.846 254.617L337.211 228.498C336.314 218.576 327.584 197.484 327.584 197.484L317.75 200.923L317.515 210.227L329.362 230.291C327.804 234.171 326.746 246.709 326.54 253.691Z" fill="#C4204A"/>
<path d="M321.675 198.189C321.587 197.572 321.557 197.381 321.043 197.072L311.592 194.397L309.343 196.616C307.212 204.348 308.535 215.107 310.21 223.647C307.756 231.04 308.711 246.268 309.696 253.426H316.413C316.81 248.634 316.677 239.771 316.707 235.479C317.574 232.04 318.412 228.365 319.161 224.499C320.117 219.561 321.322 214.769 321.646 210.301C321.969 206.038 322.057 201.482 321.675 198.189Z" fill="#E62552"/>
<path d="M309.754 167.029C307.535 168.484 298.172 180.669 303.331 190.693C303.566 190.826 307.697 183.829 307.697 183.829L312.576 174.172L309.754 167.029Z" fill="#F37A50"/>
<path d="M314.458 160.693L320.322 164.03C320.322 164.03 320.837 166.411 321.101 167.175C321.631 168.763 319.588 169.454 317.853 168.469C316.119 167.484 314.987 166.161 314.987 166.161L314.458 160.693Z" fill="#F37A50"/>
<path d="M329.039 199.027C329.039 199.027 326.614 201.893 326.217 202.114L324.056 199.747L324.041 199.791L323.527 201.144L322.924 202.731C322.424 202.731 307.3 199.351 307.3 199.351C307.329 197.984 308.608 193.574 310.68 188.871C310.181 184.887 310.666 180.757 310.504 178.464C311.724 172.305 310.857 169.954 309.754 167.043L313.591 165.912L320.499 168.352L321.013 166.691C321.013 166.691 325.335 167.734 326.246 168.234L327.878 175.054L327.525 189.547C327.525 189.532 328.069 195.367 329.039 199.027Z" fill="#3F964F"/>
<path d="M314.913 165.133L312.209 166.279C312.488 169.528 319.764 171.468 319.764 171.468L320.484 168.337L314.913 165.133Z" fill="#0E6A41"/>
<path d="M320.484 168.337L322.63 170.718C322.63 170.718 324.482 168.807 323.806 167.617C323.13 166.441 320.69 165.632 320.69 165.632L320.484 168.337Z" fill="#0E6A41"/>
<path d="M329.2 260.349C329.847 258.674 331.214 258.482 331.214 258.482C333.874 262.025 340.401 259.849 340.18 264.656C330.244 264.597 326.128 264.656 326.128 264.656C326.143 263.553 326.334 260.937 326.569 259.908L327.084 259.996L329.2 260.349Z" fill="#2C2858"/>
<path d="M339.607 265.92H326.702C326.378 265.92 326.128 265.655 326.128 265.347V264.509H340.195V265.347C340.195 265.67 339.93 265.92 339.607 265.92Z" fill="#2C2858"/>
<path d="M324.027 199.777L323.512 201.129C323.042 198.013 321.307 184.975 322.292 181.374C323.218 177.994 322.057 174.422 320.955 170.983C320.69 170.145 320.396 169.263 320.161 168.425L320.499 168.322L320.837 168.219C321.072 169.057 321.351 169.924 321.631 170.747C322.777 174.29 323.953 177.964 322.983 181.536C322.116 184.681 323.424 195.382 324.027 199.777Z" fill="#0E6A41"/>
<path d="M317.191 264.7C317.191 264.7 316.398 261.731 316.324 261.349C316.251 260.908 316.015 259.894 315.957 259.365C315.942 259.232 314.575 258.395 313.531 258.395C312.12 258.395 310.827 259.218 310.798 259.365C310.636 260.364 310.621 261.525 310.357 262.495C310.151 263.216 309.607 264.891 309.607 264.891L317.191 264.7Z" fill="#2C2858"/>
<path d="M317.192 264.465C317 265.053 314.708 264.376 313.047 264.376C311.636 264.376 309.828 264.92 309.622 264.715C309.269 265.332 309.563 266.625 309.563 266.625C309.563 266.625 311.033 266.699 312.782 266.625C314.531 266.552 316.56 266.655 317.324 266.434C317.794 265.611 317.192 264.465 317.192 264.465Z" fill="#2C2858"/>
<path d="M320.117 180.684C320.117 180.684 308.02 192.81 303.317 190.708C301.773 188.621 305.051 184.417 308.138 183.006C311.21 181.61 316.354 179.39 316.354 179.39L320.117 180.684Z" fill="#F37A50"/>
<path d="M322.41 176.568L327.437 172.688C327.54 172.599 327.687 172.57 327.819 172.599L331.244 173.217C331.347 173.231 331.538 173.834 331.464 173.893L328.039 175.951C328.025 175.965 328.01 175.965 327.981 175.98L322.601 176.906C322.513 176.891 322.322 176.627 322.41 176.568Z" fill="#F9CD2D"/>
<path d="M322.675 176.935L327.452 173.29C327.554 173.202 327.701 173.173 327.834 173.202L331.376 173.805C331.479 173.819 331.508 173.952 331.42 174.01L328.054 176.553C328.04 176.568 328.025 176.568 327.995 176.583L322.748 177.156C322.645 177.156 322.586 177.009 322.675 176.935Z" fill="#F9F93A"/>
<path d="M316.237 179.449L319.059 178.038C319.059 178.038 320.852 176.083 321.411 175.51C322.131 175.304 323.513 174.701 323.807 174.716C324.086 174.731 324.571 174.907 324.571 174.907L322.939 176.186C322.939 176.186 323.601 176.495 324.541 176.127C325.482 175.76 327.217 174.613 327.893 175.025C328.113 175.304 328.113 175.304 328.113 175.304C328.113 175.304 328.701 174.848 329.054 175.157C330.156 176.127 323.086 180.346 323.086 180.346L320.147 180.698L316.237 179.449Z" fill="#F37A50"/>
<path d="M327.966 174.069C327.76 174.201 327.525 174.187 327.422 174.04C327.319 173.893 327.393 173.658 327.599 173.511C327.804 173.378 328.039 173.393 328.142 173.54C328.245 173.702 328.172 173.937 327.966 174.069Z" fill="#F9CD2D"/>
<path d="M339.445 188.18C339.445 188.18 333.169 195.353 328.803 196.367C328.539 194.926 328.304 193.824 328.304 193.824L334.257 185.99L339.445 188.18Z" fill="#DE623C"/>
<path d="M328.024 196.764C328.039 196.705 328.083 196.646 328.113 196.602C328.098 196.602 328.098 196.602 328.083 196.587C327.466 196.382 327.084 195.852 327.231 195.412C327.26 195.338 327.29 195.279 327.334 195.22C327.01 194.971 326.834 194.603 326.951 194.294C326.996 194.162 327.069 194.059 327.187 193.986C326.849 193.751 326.672 193.368 326.79 193.016C326.937 192.575 327.481 192.354 328.01 192.531C328.539 192.707 328.848 193.207 328.701 193.648C328.657 193.765 328.598 193.853 328.524 193.942C329.039 194.177 329.347 194.647 329.215 195.044C329.186 195.118 329.156 195.176 329.112 195.235C329.436 195.485 329.612 195.852 329.494 196.161C329.45 196.279 329.377 196.382 329.289 196.455C329.597 196.646 329.774 196.999 329.671 197.308C329.553 197.69 329.083 197.866 328.642 197.719C328.157 197.557 327.892 197.146 328.024 196.764Z" fill="#DE623C"/>
<path d="M314.487 155.593C315.222 156.725 315.046 158.136 314.12 158.724C313.194 159.327 311.841 158.886 311.121 157.739C310.386 156.607 310.563 155.196 311.489 154.608C312.415 154.021 313.752 154.447 314.487 155.593Z" fill="#F37A50"/>
<path d="M312.973 158.048C313.018 158.048 313.062 158.033 313.106 158.004C313.679 157.622 313.914 157.063 313.752 156.49C313.591 155.902 313.047 155.476 312.459 155.461C312.297 155.461 312.165 155.593 312.165 155.755C312.165 155.917 312.297 156.049 312.459 156.049C312.782 156.049 313.106 156.313 313.194 156.652C313.282 156.975 313.15 157.269 312.797 157.504C312.665 157.592 312.621 157.783 312.709 157.916C312.753 158.018 312.856 158.063 312.973 158.048Z" fill="#DE623C"/>
<path d="M29.8231 202.348C32.704 207.61 30.7638 214.21 25.5018 217.091C20.2397 219.972 13.6401 218.032 10.7592 212.77C7.87835 207.508 9.81855 200.908 15.0806 198.027C20.3426 195.146 26.9422 197.086 29.8231 202.348Z" fill="white"/>
<path d="M23.7085 215.268L22.709 213.446C21.6507 214.004 20.4014 214.269 19.5195 214.166L19.299 212.725C20.1809 212.799 21.298 212.637 22.3122 212.079C23.5909 211.388 24.0466 210.168 23.488 209.154C22.9442 208.169 21.9153 207.934 20.2838 208.125C18.0496 208.404 16.4769 208.198 15.6097 206.64C14.7866 205.141 15.2422 203.436 16.7415 202.26L15.742 200.438L16.859 199.835L17.8144 201.584C18.9168 201.026 19.8134 200.908 20.4895 200.937L20.6953 202.363C20.1956 202.348 19.2402 202.363 18.0937 202.995C16.7121 203.745 16.6386 204.862 17.0354 205.582C17.5499 206.523 18.4612 206.626 20.3867 206.42C22.6502 206.155 24.0907 206.582 24.9726 208.184C25.7516 209.609 25.487 211.476 23.7967 212.799L24.8256 214.666L23.7085 215.268Z" fill="#E3EAFF"/>
<path d="M371.811 169.247C369.239 174.671 362.757 176.964 357.333 174.392C351.91 171.82 349.617 165.338 352.189 159.914C354.761 154.49 361.243 152.197 366.667 154.769C372.09 157.342 374.383 163.824 371.811 169.247Z" fill="white"/>
<path d="M357.76 171.878L358.656 170.011C357.598 169.482 356.643 168.615 356.216 167.851L357.245 166.822C357.701 167.586 358.495 168.395 359.538 168.88C360.846 169.512 362.096 169.174 362.595 168.115C363.08 167.101 362.654 166.131 361.552 164.926C360.023 163.294 359.259 161.883 360.023 160.266C360.758 158.738 362.404 158.091 364.242 158.62L365.138 156.753L366.285 157.297L365.432 159.09C366.52 159.649 367.137 160.31 367.534 160.884L366.49 161.883C366.211 161.472 365.638 160.707 364.462 160.149C363.036 159.473 362.096 160.061 361.743 160.81C361.287 161.766 361.743 162.574 363.036 164.014C364.565 165.705 365.079 167.116 364.286 168.762C363.595 170.217 361.919 171.114 359.862 170.511L358.95 172.437L357.76 171.878Z" fill="#E3EAFF"/>
<path d="M337.373 58.8625C339.798 64.3597 337.299 70.7682 331.802 73.1787C326.305 75.5893 319.896 73.1052 317.486 67.608C315.061 62.1108 317.559 55.7023 323.056 53.2918C328.539 50.8812 334.948 53.3653 337.373 58.8625Z" fill="#D4DEFF"/>
<path d="M330.185 71.2237L329.347 69.3276C328.245 69.7833 326.981 69.945 326.114 69.7686L326.011 68.3134C326.878 68.4604 328.01 68.3869 329.068 67.9313C330.406 67.3433 330.964 66.1822 330.494 65.1092C330.038 64.0803 329.024 63.7569 327.393 63.8157C325.144 63.9039 323.586 63.5658 322.865 61.9343C322.175 60.3763 322.763 58.7154 324.365 57.6718L323.527 55.7757L324.688 55.2612L325.496 57.0838C326.643 56.6282 327.54 56.5841 328.23 56.6723L328.304 58.1127C327.804 58.0539 326.863 57.9804 325.658 58.5096C324.218 59.1416 324.056 60.244 324.379 60.9936C324.806 61.9637 325.717 62.1548 327.642 62.1107C329.921 62.0519 331.332 62.5957 332.067 64.2567C332.713 65.7412 332.302 67.5785 330.509 68.7544L331.361 70.7093L330.185 71.2237Z" fill="white"/>
<path d="M0.0881348 126.401L7.26096 113.026C7.26096 113.026 16.0065 113.775 20.0339 123.917C22.5179 130.208 30.9695 133.457 30.9695 133.457L23.7526 146.906C23.7526 146.906 12.7288 143.951 9.99487 136.72C7.11398 129.077 0.0881348 126.401 0.0881348 126.401Z" fill="#D4DEFF"/>
<path d="M19.7399 134.574C17.3588 136.573 13.5372 135.941 11.2148 133.163C8.87778 130.385 8.92188 126.519 11.303 124.52C13.6842 122.521 17.5058 123.153 19.8281 125.931C22.1505 128.695 22.1211 132.575 19.7399 134.574Z" fill="#E3EAFF"/>
<path d="M284.561 39.5488L274.464 28.2163C274.464 28.2163 278.182 20.2645 289.074 19.9705C295.835 19.7941 301.803 12.9888 301.803 12.9888L311.945 24.38C311.945 24.38 305.374 33.7282 297.643 33.787C289.485 33.8752 284.561 39.5488 284.561 39.5488Z" fill="#D4DEFF"/>
<path d="M298.995 23.9097C300.054 26.8347 298.143 30.2006 294.747 31.4353C291.337 32.67 287.722 31.303 286.663 28.378C285.605 25.4531 287.516 22.0871 290.911 20.8525C294.306 19.6178 297.937 20.9847 298.995 23.9097Z" fill="#E3EAFF"/>
<path d="M350.881 209.55L352.527 197.277C352.527 197.277 359.42 195.337 365.403 201.937C369.107 206.023 376.5 206.096 376.5 206.096L374.839 218.443C374.839 218.443 365.564 219.34 361.419 214.607C357.01 209.58 350.881 209.55 350.881 209.55Z" fill="#D4DEFF"/>
<path d="M368.239 210.153C366.99 212.358 363.903 212.975 361.317 211.52C358.744 210.065 357.657 207.096 358.906 204.891C360.155 202.686 363.242 202.069 365.829 203.524C368.401 204.979 369.474 207.948 368.239 210.153Z" fill="#E3EAFF"/>
<path d="M192.182 96.49L190.477 83.8052C190.477 83.8052 183.348 81.8063 177.189 88.6263C173.368 92.8448 165.739 92.9183 165.739 92.9183L167.444 105.662C167.444 105.662 177.028 106.588 181.305 101.693C185.847 96.5047 192.182 96.49 192.182 96.49Z" fill="#D4DEFF"/>
<path d="M174.249 97.1073C175.528 99.3855 178.732 100.018 181.393 98.5183C184.053 97.0191 185.17 93.9618 183.877 91.6688C182.598 89.3906 179.394 88.7586 176.733 90.2578C174.088 91.757 172.971 94.829 174.249 97.1073Z" fill="#E3EAFF"/>
<path d="M143.559 225.013H79.4008C76.5494 225.013 74.2417 222.706 74.2417 219.854V206.288C74.2417 203.436 76.5494 201.128 79.4008 201.128H143.574C146.426 201.128 148.733 203.436 148.733 206.288V219.854C148.733 222.706 146.411 225.013 143.559 225.013Z" fill="#E3EAFF"/>
<path d="M97.377 209.698V216.415C97.377 218.223 95.9072 219.693 94.0993 219.693H81.3852C80.7237 219.693 80.0917 219.487 79.5773 219.149C78.6954 218.561 78.1074 217.561 78.1074 216.415V209.698C78.1074 207.89 79.5773 206.42 81.3852 206.42H94.0993C94.8342 206.42 95.525 206.67 96.0689 207.081C96.8626 207.684 97.377 208.625 97.377 209.698Z" fill="#D6224C"/>
<path d="M123.29 215.797H102.198C100.684 215.797 99.4641 214.577 99.4641 213.063C99.4641 211.55 100.684 210.33 102.198 210.33H123.29C124.804 210.33 126.024 211.55 126.024 213.063C126.024 214.577 124.804 215.797 123.29 215.797Z" fill="#95A6DB"/>
<path d="M142.134 215.797H131.551C130.037 215.797 128.817 214.577 128.817 213.063C128.817 211.55 130.037 210.33 131.551 210.33H142.134C143.648 210.33 144.868 211.55 144.868 213.063C144.868 214.577 143.633 215.797 142.134 215.797Z" fill="#4EAD60"/>
<path d="M96.0689 207.081L79.5773 219.163C78.6954 218.575 78.1074 217.576 78.1074 216.429V209.712C78.1074 207.904 79.5773 206.434 81.3852 206.434H94.0993C94.8342 206.42 95.525 206.669 96.0689 207.081Z" fill="#E62552"/>
<path d="M90.9774 218.14C92.1946 218.105 93.1523 217.089 93.1166 215.872C93.0808 214.655 92.0651 213.697 90.8479 213.733C89.6308 213.768 88.673 214.784 88.7088 216.001C88.7446 217.218 89.7603 218.176 90.9774 218.14Z" fill="#FAC832"/>
<path d="M95.7308 215.929C95.7308 217.149 94.746 218.134 93.5261 218.134C92.3061 218.134 91.3213 217.149 91.3213 215.929C91.3213 214.709 92.3061 213.725 93.5261 213.725C94.746 213.725 95.7308 214.709 95.7308 215.929Z" fill="#95A6DB"/>
<path d="M143.559 253.969H79.4008C76.5494 253.969 74.2417 251.661 74.2417 248.81V235.243C74.2417 232.392 76.5494 230.084 79.4008 230.084H143.574C146.426 230.084 148.733 232.392 148.733 235.243V248.81C148.733 251.647 146.411 253.969 143.559 253.969Z" fill="#E3EAFF"/>
<path d="M97.377 238.653V245.37C97.377 247.178 95.9072 248.648 94.0993 248.648H81.3852C80.7237 248.648 80.0917 248.442 79.5773 248.104C78.6954 247.516 78.1074 246.517 78.1074 245.37V238.653C78.1074 236.845 79.5773 235.375 81.3852 235.375H94.0993C94.8342 235.375 95.525 235.625 96.0689 236.037C96.8626 236.625 97.377 237.58 97.377 238.653Z" fill="#FABA23"/>
<path d="M123.29 244.753H102.198C100.684 244.753 99.4641 243.533 99.4641 242.019C99.4641 240.505 100.684 239.285 102.198 239.285H123.29C124.804 239.285 126.024 240.505 126.024 242.019C126.024 243.533 124.804 244.753 123.29 244.753Z" fill="#95A6DB"/>
<path d="M142.134 244.753H131.551C130.037 244.753 128.817 243.533 128.817 242.019C128.817 240.505 130.037 239.285 131.551 239.285H142.134C143.648 239.285 144.868 240.505 144.868 242.019C144.868 243.533 143.633 244.753 142.134 244.753Z" fill="#4EAD60"/>
<path d="M96.0689 236.037L79.5773 248.119C78.6954 247.531 78.1074 246.531 78.1074 245.385V238.668C78.1074 236.86 79.5773 235.39 81.3852 235.39H94.0993C94.8342 235.375 95.525 235.625 96.0689 236.037Z" fill="#FAD332"/>
<path d="M93.1146 244.87C93.1146 246.09 92.1298 247.075 90.9098 247.075C89.6899 247.075 88.7051 246.09 88.7051 244.87C88.7051 243.65 89.6899 242.666 90.9098 242.666C92.1298 242.666 93.1146 243.665 93.1146 244.87Z" fill="#E62552"/>
<path d="M95.7308 244.87C95.7308 246.09 94.746 247.075 93.5261 247.075C92.3061 247.075 91.3213 246.09 91.3213 244.87C91.3213 243.65 92.3061 242.666 93.5261 242.666C94.746 242.666 95.7308 243.665 95.7308 244.87Z" fill="#95A6DB"/>
</svg>
