<svg xmlns="http://www.w3.org/2000/svg" viewBox="0 0 37.22 37.22"><defs><style>.cls-1{fill:#f9ebd4;stroke:#f2a408;stroke-miterlimit:10;}.cls-2{fill:#f2a408;}</style></defs><g id="Layer_2" data-name="Layer 2"><g id="Layer_1-2" data-name="Layer 1"><circle class="cls-1" cx="18.61" cy="18.61" r="18.11"/><circle class="cls-2" cx="18.61" cy="12.26" r="5.75"/><path class="cls-2" d="M18,37l-1.7-.1a11.21,11.21,0,0,1-3.39-.71l-.94-.37a8.75,8.75,0,0,1-1.17-.53l-.45-.24a2,2,0,0,1-1.05-1.75V27.74a7.87,7.87,0,0,1,7.88-7.87h2.52A8.28,8.28,0,0,1,28,28.14V33.4a1.45,1.45,0,0,1-.68,1.22h0a15.42,15.42,0,0,1-4.6,1.94,17.18,17.18,0,0,1-2,.36A14.64,14.64,0,0,1,18,37Z"/></g></g></svg>