<svg width="1028" height="747" viewBox="0 0 1028 747" fill="none" xmlns="http://www.w3.org/2000/svg">
<path d="M960.04 553.488C959.866 553.141 974.949 544.233 993.715 533.611C1012.48 522.99 1027.82 514.658 1028 515.024C1028.17 515.389 1013.07 524.279 994.306 534.9C975.539 545.522 960.196 553.815 960.04 553.488Z" fill="#E0E0E0"/>
<g opacity="0.3">
<path opacity="0.3" d="M136.375 511.252C136.293 511.092 136.224 510.925 136.167 510.752C136.028 510.367 135.836 509.906 135.611 509.309L133.543 503.69C131.805 498.765 129.147 491.607 125.828 482.525C119.242 464.303 109.842 438.269 98.582 407.175L99.2423 407.502L0.719453 450.834C0.632572 451.026 1.34499 449.218 1.0496 449.987V450.083V450.199V450.41L1.20598 450.853L1.51875 451.757L2.16167 453.528L3.43014 457.087C4.28157 459.435 5.16775 461.802 5.94968 464.13L10.9366 478.061L20.563 504.999L38.1303 554.296L37.47 553.988L108.817 522.99L128.973 514.293L134.325 512.022L135.715 511.445C135.878 511.371 136.047 511.313 136.219 511.272L135.802 511.483L134.481 512.099L129.268 514.466L109.32 523.375L38.0087 555.027L37.5222 555.258L37.331 554.719C31.8575 539.499 25.9149 522.951 19.6421 505.461C16.5028 496.712 13.2824 487.733 9.98094 478.522C8.34758 473.924 6.67948 469.287 5.01137 464.611C4.15994 462.263 3.27375 459.916 2.47444 457.549L1.20598 453.989L0.563067 452.219L0.250296 451.334L0.0939099 450.872V450.661V450.545C-0.201485 451.296 0.493563 449.468 0.441434 449.66L99.0164 406.501L99.5029 406.29L99.6941 406.809L126.575 482.717L133.995 503.883L135.923 509.424C136.115 510.021 136.271 510.483 136.393 510.829C136.399 510.97 136.393 511.112 136.375 511.252V511.252Z" fill="#E0E0E0"/>
</g>
<path d="M787.582 157.284L898.754 237.714L851.908 323.281L738.042 237.887L787.582 157.284Z" fill="#F5F5F5"/>
<path d="M787.581 157.284L868.068 148.856C869.72 148.682 871.375 149.144 872.755 150.164C874.135 151.184 875.156 152.7 875.644 154.456L898.754 237.714" fill="#407BFF"/>
<path d="M787.581 157.284L868.068 148.856C869.72 148.682 871.375 149.144 872.755 150.164C874.135 151.184 875.156 152.7 875.644 154.456L898.754 237.714" fill="#E0E0E0"/>
<path d="M738.042 237.926C738.042 237.676 753.264 233.481 772.169 228.555C791.074 223.629 806.504 219.781 806.504 220.031C806.504 220.281 791.283 224.457 772.395 229.402C753.507 234.347 738.094 238.137 738.042 237.926Z" fill="#E0E0E0"/>
<path d="M851.908 323.281C851.682 323.281 849.337 306.483 846.695 285.683C844.054 264.883 842.073 247.988 842.299 247.969C842.525 247.95 844.854 264.748 847.512 285.567C850.171 306.387 852.134 323.242 851.908 323.281Z" fill="#E0E0E0"/>
<path d="M787.581 157.284L813.733 246.026L898.754 237.714L787.581 157.284Z" fill="#E0E0E0"/>
<path d="M790.431 165.924L813.194 127.537L910.83 197.48L887.79 238.541L814.115 245.372L790.431 165.924Z" fill="#FAFAFA"/>
<path d="M790.431 165.924C790.431 165.924 790.605 166.424 790.9 167.367L792.221 171.561C793.35 175.294 794.984 180.682 797.086 187.57C801.256 201.405 807.234 221.224 814.462 245.295L814.08 245.007L887.755 238.08L887.407 238.31L901.1 213.893C904.262 208.274 907.378 202.726 910.448 197.249L910.587 197.942L813.037 127.845H813.437L796.582 155.976C794.619 159.228 793.107 161.748 792.047 163.48L790.848 165.404C790.587 165.847 790.431 166.058 790.431 166.058C790.431 166.058 790.535 165.827 790.779 165.385C791.022 164.942 791.404 164.269 791.891 163.461L796.269 155.899L812.951 127.517L813.107 127.248L813.35 127.421L911.074 197.21L911.439 197.48L911.213 197.903L901.864 214.547L888.172 238.811L888.05 239.022H887.824L814.15 245.776H813.854L813.767 245.468L796.669 187.532C794.653 180.643 793.072 175.237 791.995 171.504L790.796 167.309C790.535 166.405 790.431 165.924 790.431 165.924Z" fill="#E0E0E0"/>
<path d="M883.967 205.485C883.828 205.716 868.85 195.113 850.501 181.798C832.152 168.483 817.382 157.515 817.486 157.284C817.59 157.054 832.603 167.656 850.953 180.971C869.302 194.286 884.106 205.215 883.967 205.485Z" fill="#E0E0E0"/>
<path d="M877.486 216.298C877.347 216.529 862.369 205.927 844.02 192.612C825.67 179.297 810.901 168.329 811.005 168.098C811.109 167.867 826.122 178.469 844.489 191.784C862.855 205.1 877.625 216.067 877.486 216.298Z" fill="#E0E0E0"/>
<path d="M843.603 243.044C843.038 242.801 842.501 242.484 842.004 242.101L837.782 239.273L824.107 229.652C818.772 225.804 813.994 222.359 810.553 219.781C808.816 218.492 807.46 217.414 806.522 216.664C806.006 216.316 805.533 215.896 805.115 215.413C805.683 215.638 806.221 215.949 806.713 216.337L810.901 219.184L824.593 228.805C829.928 232.654 834.706 236.079 838.129 238.676C839.867 239.965 841.222 241.024 842.16 241.793C842.689 242.138 843.174 242.558 843.603 243.044V243.044Z" fill="#E0E0E0"/>
<path d="M399.312 229.305L382.231 257.475L375.576 254.435L326.036 289.07L316.375 260.034C316.375 260.034 344.42 250.856 350.502 240.966C356.584 231.076 351.127 227.939 351.127 227.939L365.393 213.816L399.312 229.305Z" fill="#EBEBEB"/>
<path d="M387.947 165.635C387.947 165.635 368.243 157.938 343.047 123.9C317.852 89.8616 308.816 47.7418 305.306 47.4339C301.796 47.1261 287.426 37.3321 250.936 103.235C214.446 169.137 224.09 186.839 229.876 187.474C235.663 188.109 276.062 181.221 300.163 187.474C324.264 193.728 354.151 212.046 354.151 212.046L387.947 165.635Z" fill="#EBEBEB"/>
<path d="M426.748 212.007L418.269 225.63L414.481 231.73C411.971 235.765 408.158 238.579 403.828 239.593C399.499 240.606 394.984 239.741 391.214 237.175L349.65 214.682L381.814 154.167L422.491 185.492C426.218 188.394 428.758 192.811 429.555 197.778C430.353 202.745 429.344 207.861 426.748 212.007V212.007Z" fill="#E0E0E0"/>
<path d="M253.143 104.851C233.647 140.583 223.603 173.389 230.676 178.142C237.748 182.895 259.329 157.765 278.808 122.034C298.286 86.302 308.347 53.4759 301.275 48.7425C294.203 44.009 272.622 69.1193 253.143 104.851Z" fill="#E0E0E0"/>
<path d="M417.417 213.316C417.209 213.7 411.614 210.41 404.924 205.927C398.234 201.443 393.004 197.499 393.212 197.114C393.421 196.729 399.033 200.02 405.706 204.484C412.378 208.948 417.643 212.911 417.417 213.316Z" fill="#EBEBEB"/>
<path d="M422.022 204.657C421.796 205.061 416.809 201.867 410.762 197.557C404.715 193.246 400.093 189.437 400.337 189.033C400.58 188.628 405.549 191.823 411.596 196.152C417.643 200.481 422.248 204.272 422.022 204.657Z" fill="#EBEBEB"/>
<path d="M411.822 222.282C411.735 222.494 410.38 221.955 408.243 220.897C407.165 220.358 405.897 219.704 404.489 218.973C403.082 218.241 401.692 217.164 400.18 216.125C394.098 211.969 389.529 208.082 389.754 207.716C389.98 207.351 394.967 210.583 400.979 214.701C402.491 215.701 403.881 216.798 405.202 217.626C406.522 218.453 407.739 219.184 408.677 219.838C410.71 221.147 411.909 222.07 411.822 222.282Z" fill="#EBEBEB"/>
<path d="M285.463 100.618C285.463 100.618 269.164 86.2058 256.705 111.239C244.246 136.272 262.266 143.065 262.266 143.065C271.759 130.192 279.568 115.902 285.463 100.618V100.618Z" fill="#FAFAFA"/>
<path d="M307.548 71.7358C307.275 73.4165 306.862 75.0656 306.314 76.6617C305.411 79.7981 304.125 84.3583 302.387 89.9576C301.327 92.6707 300.18 95.7301 298.912 98.8472L296.983 103.792C296.653 104.639 296.323 105.505 295.975 106.371C295.628 107.237 295.176 108.083 294.776 108.949C293.108 112.4 291.371 116.011 289.564 119.782C289.112 120.706 288.66 121.649 288.208 122.611C287.756 123.573 287.166 124.535 286.644 125.381L283.482 131.019L280.198 136.638C279.659 137.542 279.173 138.562 278.564 139.351L276.827 141.91L270.085 151.646C269.529 152.416 269.025 153.205 268.469 153.936L266.731 156.014L263.447 160.016L257.574 167.174C253.717 171.234 250.502 174.428 248.313 176.641C247.213 177.849 246.021 178.95 244.75 179.931C245.703 178.556 246.754 177.269 247.896 176.083L256.827 166.231L262.526 158.996L265.706 154.975C266.262 154.301 266.818 153.59 267.444 152.878C268.069 152.166 268.486 151.377 269.025 150.607L275.645 140.871L277.383 138.312C277.974 137.465 278.443 136.522 278.999 135.618L282.231 130.019L285.48 124.439C285.984 123.515 286.575 122.649 287.027 121.687L288.399 118.878C290.137 115.164 291.961 111.585 293.612 108.179C294.012 107.314 294.464 106.486 294.829 105.64C295.193 104.793 295.524 103.927 295.854 103.08L297.835 98.193L301.414 89.4381L305.793 76.3923C306.267 74.7917 306.854 73.2348 307.548 71.7358V71.7358Z" fill="#E0E0E0"/>
<path d="M213.386 123.592C213.386 123.881 200.615 123.4 184.872 122.553C169.129 121.706 156.392 120.783 156.41 120.513C156.427 120.244 169.181 120.706 184.924 121.552C200.667 122.399 213.404 123.323 213.386 123.592Z" fill="#EBEBEB"/>
<path d="M225.81 82.3576C225.706 82.6078 210.901 74.661 192.795 64.4629C174.69 54.2649 159.989 45.914 160.111 45.6831C160.233 45.4522 175.02 53.3798 193.126 63.5586C211.232 73.7374 225.932 82.069 225.81 82.3576Z" fill="#EBEBEB"/>
<path d="M248.121 55.7846C247.878 55.7846 244.646 43.4316 240.962 28.0383C237.278 12.645 234.446 0.080251 234.689 0.00328465C234.933 -0.0736817 238.165 12.3756 241.848 27.7689C245.532 43.1622 248.364 55.7077 248.121 55.7846Z" fill="#EBEBEB"/>
<path d="M747.182 90.7272C745.869 86.14 743.316 82.1101 739.867 79.1822C736.592 76.1863 732.55 74.403 728.312 74.0832C726.075 73.998 723.845 74.4124 721.755 75.3016C719.665 76.1908 717.759 77.5368 716.149 79.2592C714.237 81.3368 712.811 83.8994 711.996 86.7249C709.765 83.7569 706.737 81.6546 703.352 80.7237C699.968 79.7928 696.403 80.0819 693.177 81.5489C689.279 83.4286 686.014 86.6196 683.846 90.6694C681.453 94.6938 680.24 99.4377 680.371 104.254C680.654 110.376 682.714 116.234 686.244 120.956C690.21 125.679 695.145 129.276 700.632 131.442C709.563 135.291 721.275 140.005 721.275 140.005C721.275 140.005 729.129 130.827 736.374 123.861C740.898 119.783 744.473 114.564 746.8 108.641C748.654 102.869 748.788 96.5901 747.182 90.7272V90.7272Z" fill="#EBEBEB"/>
<path d="M669.232 39.7375C669.282 36.8947 668.549 34.1026 667.13 31.733C665.819 29.3474 663.861 27.4818 661.535 26.4031C660.292 25.8682 658.965 25.618 657.633 25.6676C656.301 25.7172 654.992 26.0656 653.785 26.6917C652.331 27.4887 651.073 28.6639 650.118 30.1167C649.598 28.6557 648.791 27.3411 647.755 26.2684C646.79 25.2533 645.648 24.467 644.4 23.9575C643.151 23.448 641.821 23.226 640.492 23.3052C638.009 23.4868 635.64 24.5228 633.715 26.2684C631.694 28.0288 630.208 30.4329 629.458 33.1569C628.557 36.645 628.691 40.3616 629.84 43.759C631.248 47.2483 633.393 50.3108 636.096 52.6871C640.423 56.7471 646.174 61.8846 646.174 61.8846C646.174 61.8846 652.151 58.4211 657.416 56.1121C660.657 54.7984 663.561 52.6326 665.879 49.8009C667.948 46.9354 669.125 43.405 669.232 39.7375V39.7375Z" fill="#EBEBEB"/>
<g opacity="0.3">
<path opacity="0.3" d="M915.122 347.738H252.142C195.648 347.738 149.85 418.227 149.85 505.179V516.293C149.85 603.245 195.648 673.734 252.142 673.734H915.122C971.616 673.734 1017.41 603.245 1017.41 516.293V505.179C1017.41 418.227 971.616 347.738 915.122 347.738Z" fill="black"/>
</g>
<path d="M911.562 320.973H255.414C196.891 320.973 149.448 393.965 149.448 484.005C149.448 574.046 196.891 647.038 255.414 647.038H911.562C970.085 647.038 1017.53 574.046 1017.53 484.005C1017.53 393.965 970.085 320.973 911.562 320.973Z" fill="#215481"/>
<g opacity="0.3">
<path opacity="0.3" d="M752.499 321.046C752.499 321.046 747.478 321.15 744.941 321.046C736.253 321.046 720.614 321.046 720.614 321.046L709.389 341.706C711.978 347.18 715.349 353.279 721.274 354.495C724.258 354.889 727.292 354.506 730.084 353.383C737.118 351.22 743.696 347.786 749.493 343.253C753.104 340.69 755.797 337.035 757.174 332.827C758.268 328.535 756.496 322.923 752.499 321.046Z" fill="black"/>
</g>
<g opacity="0.3">
<path opacity="0.3" d="M354.935 343.339C352.312 336.892 348.124 325.32 342.65 321.045C342.65 321.045 307.603 321.636 307.429 321.045L323.71 379.36C328.923 383.513 331.564 389.247 333.25 394.668C334.935 400.09 336.326 405.911 340.2 409.994C344.075 414.077 351.756 415.207 355.127 410.706C358.932 405.615 354.796 398.543 354.675 392.201C354.553 385.858 358.567 380.263 360.2 374.13C362.998 363.86 358.932 353.157 354.935 343.339Z" fill="black"/>
</g>
<path d="M618.581 140.855C621.014 134.686 623.464 128.327 623.499 121.741C623.534 115.155 620.597 107.962 614.811 105.112C609.424 102.488 602.943 104 597.261 102.175C590.31 99.9166 585.636 93.053 582.335 86.2589C579.033 79.4648 576.34 72.0973 570.971 66.9192C567.368 63.5813 562.822 61.4377 557.954 60.7815C553.087 60.1252 548.135 60.9883 543.777 63.2529C537.484 59.1694 530.182 56.9136 522.682 56.7368C513.317 56.7368 502.682 57.8141 496.357 64.7298C491.457 70.0817 488.434 76.8932 482.335 80.7333C473.925 86.1547 462.891 82.106 452.917 82.7837C450.884 82.9227 448.521 83.5135 447.704 85.3901C447.499 86.2471 447.478 87.1379 447.642 88.0037C447.807 88.8694 448.154 89.6902 448.66 90.4118L456.879 106.294C454.793 107.302 452.506 107.825 450.189 107.825C447.872 107.825 445.585 107.302 443.499 106.294C444.318 116.889 448.825 126.861 456.236 134.478C454.498 133.279 451.805 134.652 451.023 136.667C450.395 138.763 450.493 141.011 451.301 143.044C453.245 149.444 456.54 155.353 460.964 160.371C465.387 165.389 470.835 169.4 476.941 172.132C483.046 174.865 489.667 176.255 496.356 176.21C503.045 176.165 509.646 174.686 515.715 171.871L570.884 174.321C571.706 176.422 573.023 178.293 574.723 179.776C576.423 181.258 578.456 182.308 580.649 182.836C586.661 178.092 587.6 175.503 587.6 175.503C591.492 178.196 588.469 176.876 591.492 178.196C598.442 181.237 608.382 177.067 609.685 169.421C609.996 166.312 611.204 163.361 613.16 160.924C615.28 158.631 618.373 157.692 621.066 156.215C625.392 153.828 628.821 150.094 630.832 145.581C628.574 145.684 626.319 145.317 624.211 144.503C622.102 143.69 620.185 142.447 618.581 140.855V140.855Z" fill="#263238"/>
<path d="M482.544 119.934C482.643 106.616 487.752 93.823 496.853 84.0998C505.955 74.3766 518.383 68.4354 531.666 67.458L534.411 67.2668C564.055 66.8324 580.997 91.7498 580.615 121.394L585.011 257.918L517.348 262.749L514.776 218.335C514.776 218.335 486.088 216.007 483.656 187.666C482.474 174.026 482.353 145.633 482.544 119.934Z" fill="#FFBE9D"/>
<path d="M496.757 141.393C496.824 142.45 497.301 143.439 498.087 144.15C498.872 144.861 499.904 145.237 500.962 145.199C501.48 145.199 501.993 145.096 502.47 144.896C502.948 144.696 503.381 144.404 503.745 144.035C504.109 143.667 504.396 143.229 504.589 142.749C504.783 142.269 504.879 141.755 504.872 141.237C504.809 140.178 504.333 139.187 503.547 138.475C502.761 137.763 501.726 137.389 500.667 137.432C500.148 137.427 499.633 137.526 499.153 137.724C498.673 137.922 498.238 138.215 497.873 138.584C497.508 138.954 497.222 139.393 497.03 139.876C496.838 140.358 496.745 140.874 496.757 141.393V141.393Z" fill="#263238"/>
<path d="M491.11 130.794C491.649 131.298 494.585 128.796 498.912 128.483C503.238 128.17 506.627 130.116 507.061 129.56C507.287 129.3 506.696 128.379 505.237 127.475C503.248 126.309 500.949 125.781 498.651 125.963C496.387 126.122 494.232 126.998 492.5 128.466C491.232 129.595 490.797 130.586 491.11 130.794Z" fill="#263238"/>
<path d="M520.007 166.206C520.007 165.946 517.261 165.685 512.83 165.442C511.701 165.442 510.641 165.268 510.398 164.521C510.214 163.38 510.383 162.209 510.884 161.167C511.741 158.387 512.633 155.491 513.56 152.479C517.244 140.073 519.833 129.89 519.329 129.769C518.825 129.647 515.437 139.551 511.753 151.958C510.872 155.016 510.027 157.912 509.216 160.646C508.619 162.042 508.527 163.603 508.955 165.06C509.148 165.442 509.424 165.775 509.765 166.033C510.105 166.292 510.5 166.47 510.919 166.554C511.541 166.684 512.179 166.725 512.813 166.676C517.261 166.641 520.007 166.467 520.007 166.206Z" fill="#263238"/>
<path d="M489.772 120.299C490.762 121.237 494.377 119.969 498.808 119.656C503.238 119.343 507.026 119.795 507.808 118.718C508.156 118.179 507.513 117.223 505.81 116.389C503.469 115.36 500.9 114.959 498.356 115.225C495.819 115.408 493.375 116.253 491.266 117.675C489.772 118.787 489.32 119.847 489.772 120.299Z" fill="#263238"/>
<path d="M577.869 142.714C578.338 142.471 596.983 135.52 597.73 154.877C598.477 174.234 578.86 171.124 578.79 170.516C578.721 169.908 577.869 142.714 577.869 142.714Z" fill="#FFBE9D"/>
<path d="M582.717 163.148C582.804 163.148 583.082 163.374 583.656 163.617C584.471 163.937 585.377 163.937 586.193 163.617C588.208 162.783 589.807 159.447 589.755 155.937C589.735 154.268 589.344 152.623 588.608 151.124C588.401 150.525 588.05 149.985 587.587 149.552C587.124 149.119 586.561 148.805 585.949 148.639C585.559 148.558 585.152 148.614 584.797 148.798C584.443 148.981 584.163 149.281 584.003 149.647C583.76 150.203 583.899 150.585 583.795 150.62C583.691 150.655 583.36 150.307 583.482 149.508C583.57 149.022 583.822 148.581 584.194 148.257C584.714 147.828 585.383 147.622 586.054 147.684C586.861 147.803 587.623 148.13 588.266 148.632C588.909 149.135 589.41 149.796 589.72 150.551C590.616 152.199 591.094 154.043 591.11 155.92C591.11 159.847 589.373 163.583 586.523 164.521C586.006 164.696 585.457 164.753 584.915 164.687C584.374 164.621 583.854 164.433 583.395 164.139C582.787 163.618 582.665 163.2 582.717 163.148Z" fill="#EB996E"/>
<path d="M584.437 98.3004C582.946 92.6503 580.38 87.3406 576.879 82.6618C566.714 68.535 543.499 61.932 530.311 63.1136C517.122 64.2952 503.447 74.0606 491.162 78.9607C483.117 82.1753 477.018 89.5602 480.094 95.2769C475.328 97.1303 470.293 98.1984 465.185 98.4394C465.185 98.4394 464.716 105.685 468.747 107.614L481.431 115.92C498.338 118.161 528.017 101.515 533.734 96.2847C539.041 91.4148 544.916 87.2025 551.232 83.7391C545.845 97.866 563.395 94.7382 562.908 100.212C557.539 120.073 573.751 127.405 573.751 127.405L574.151 144.782C573.786 149.23 575.697 152.653 580.146 152.358C580.146 152.358 584.976 145.72 585.793 140.316C587.391 129.89 586.366 108.709 584.437 98.3004Z" fill="#263238"/>
<path d="M514.551 218.335C527.725 217.373 540.348 212.651 550.919 204.729C550.919 204.729 543.673 225.824 515.124 225.285L514.551 218.335Z" fill="#EB996E"/>
<path d="M537.713 138.787C537.78 139.844 538.257 140.833 539.042 141.544C539.828 142.255 540.859 142.631 541.918 142.593C542.437 142.597 542.952 142.498 543.432 142.3C543.912 142.102 544.347 141.809 544.712 141.44C545.076 141.07 545.363 140.631 545.555 140.148C545.746 139.666 545.839 139.15 545.828 138.631C545.76 137.574 545.283 136.585 544.498 135.874C543.713 135.163 542.681 134.787 541.622 134.825C541.105 134.825 540.592 134.928 540.114 135.128C539.636 135.328 539.203 135.62 538.839 135.989C538.476 136.357 538.189 136.795 537.995 137.275C537.802 137.755 537.706 138.269 537.713 138.787V138.787Z" fill="#263238"/>
<path d="M532.951 128.604C533.49 129.16 536.913 127.006 541.64 127.18C546.366 127.353 549.841 129.682 550.328 129.178C550.588 128.935 550.05 127.962 548.59 126.902C546.535 125.503 544.124 124.719 541.64 124.643C539.202 124.526 536.785 125.13 534.689 126.38C533.212 127.423 532.691 128.361 532.951 128.604Z" fill="#263238"/>
<path d="M532.5 114.93C532.917 116.128 537.279 115.59 542.404 116.25C547.53 116.91 551.666 118.335 552.361 117.275C552.674 116.771 551.961 115.642 550.293 114.478C548.068 113.058 545.549 112.163 542.927 111.862C540.304 111.561 537.648 111.861 535.159 112.74C533.282 113.435 532.326 114.373 532.5 114.93Z" fill="#263238"/>
<path d="M519.606 174.617C523.267 173.389 527.013 172.43 530.814 171.75L533.577 170.881C534.273 172.123 534.689 173.502 534.797 174.921C534.905 176.341 534.702 177.767 534.202 179.1C533.618 180.058 532.838 180.882 531.913 181.517C530.987 182.152 529.938 182.584 528.833 182.784C528.059 182.987 527.25 183.026 526.46 182.897C525.67 182.768 524.915 182.475 524.246 182.036C524.246 182.036 520.666 180.629 519.606 174.617" fill="#EB996E"/>
<path d="M527.165 182.801C528.659 182.566 530.073 181.97 531.284 181.063C532.539 180.068 533.456 178.708 533.907 177.171C534.49 175.298 534.49 173.292 533.907 171.419L533.803 171.106L534.324 171.402C530.154 172.323 526.383 173.139 523.655 173.643C522.193 174.013 520.697 174.234 519.19 174.304C520.591 173.747 522.039 173.317 523.516 173.018C526.21 172.34 529.963 171.454 534.133 170.516L534.533 170.429L534.655 170.794L534.759 171.141C535.42 173.186 535.42 175.387 534.759 177.431C534.22 179.108 533.154 180.565 531.718 181.584C530.758 182.263 529.639 182.682 528.469 182.801C527.6 182.957 527.148 182.853 527.165 182.801Z" fill="#263238"/>
<path d="M615.575 157.657C615.173 157.627 614.779 157.527 614.411 157.362C613.335 156.884 612.401 156.136 611.7 155.19C610.58 153.708 609.889 151.947 609.702 150.099C609.514 147.68 609.613 145.248 609.997 142.853C610.496 140.034 610.372 137.139 609.632 134.373C609.142 132.889 608.23 131.579 607.009 130.603C605.676 129.569 604.216 128.711 602.665 128.048C600.98 127.333 599.363 126.466 597.834 125.459C596.217 124.321 594.962 122.74 594.22 120.907C592.639 117.223 592.795 113.087 591.909 109.213C591.543 107.294 590.76 105.478 589.615 103.895C588.478 102.412 586.831 101.403 584.993 101.063C583.255 100.646 581.275 100.577 579.415 100.212C577.526 99.9189 575.793 98.9939 574.498 97.5879C573.399 96.1766 572.643 94.5287 572.291 92.7747C571.874 91.124 571.631 89.508 571.301 87.9963C570.983 86.5472 570.493 85.1414 569.841 83.8086C569.197 82.6045 568.416 81.4791 567.513 80.455C564.728 77.335 560.955 75.2675 556.826 74.5993C555.297 74.4389 553.757 74.404 552.222 74.495C553.745 74.1203 555.325 74.0378 556.878 74.2518C561.157 74.795 565.104 76.8393 568.017 80.0206C568.978 81.0734 569.807 82.2406 570.484 83.4959C571.191 84.8719 571.722 86.3313 572.065 87.8399C572.413 89.369 572.673 90.985 573.09 92.5662C573.429 94.1934 574.136 95.7212 575.158 97.0319C576.329 98.3061 577.909 99.13 579.624 99.3603C581.361 99.7078 583.29 99.76 585.219 100.194C587.283 100.569 589.138 101.688 590.432 103.339C591.655 105.027 592.497 106.959 592.899 109.004C593.803 113.053 593.664 117.101 595.141 120.559C595.813 122.245 596.96 123.7 598.442 124.747C599.923 125.743 601.493 126.598 603.134 127.301C604.736 128.008 606.248 128.907 607.634 129.977C608.941 131.068 609.912 132.509 610.432 134.13C611.196 137 611.302 140.005 610.744 142.922C610.322 145.266 610.176 147.651 610.31 150.029C610.441 151.805 611.041 153.513 612.048 154.981C612.9 156.234 614.139 157.174 615.575 157.657Z" fill="#455A64"/>
<path d="M459.207 88.5006C459.523 88.6417 459.816 88.8291 460.076 89.0566L462.509 90.7942C465.477 92.8443 468.695 94.5084 472.083 95.7464C477.079 97.6233 482.567 97.7337 487.635 96.0592C490.575 95.0322 493.156 93.1803 495.072 90.7247C497.025 87.987 498.729 85.0793 500.163 82.0367C501.685 78.8506 503.816 75.9935 506.436 73.6266C508.897 71.5237 511.724 69.892 514.776 68.8134C519.953 67.0328 525.503 66.6257 530.884 67.6318C534.483 68.2608 537.986 69.347 541.31 70.8638C542.491 71.3851 543.377 71.8368 543.968 72.167C544.283 72.313 544.58 72.4937 544.854 72.7057C544.522 72.6242 544.201 72.5016 543.899 72.3408C543.273 72.0627 542.37 71.6631 541.171 71.1766C537.817 69.8119 534.319 68.8326 530.745 68.2574C525.503 67.3798 520.124 67.8401 515.106 69.5953C512.162 70.6583 509.436 72.248 507.061 74.2869C504.569 76.5515 502.539 79.2777 501.084 82.3147C499.633 85.4336 497.887 88.4068 495.871 91.1939C493.82 93.7754 491.051 95.692 487.913 96.7021C482.667 98.4108 476.99 98.2388 471.857 96.2156C468.451 94.9175 465.236 93.1639 462.3 91.0028C461.258 90.2382 460.563 89.6127 459.972 89.2651C459.69 89.0386 459.434 88.7822 459.207 88.5006Z" fill="#455A64"/>
<path d="M451.875 114.304C451.979 114.182 453.317 115.364 455.715 116.841C458.868 118.751 462.305 120.147 465.897 120.976C469.494 121.778 473.196 121.995 476.862 121.619C479.677 121.324 481.38 120.837 481.432 120.994C481.484 121.15 481.032 121.22 480.268 121.48C479.184 121.825 478.074 122.081 476.949 122.245C473.205 122.83 469.384 122.7 465.689 121.863C461.999 121.025 458.498 119.504 455.367 117.38C454.426 116.739 453.537 116.024 452.709 115.242C452.118 114.686 451.823 114.356 451.875 114.304Z" fill="#455A64"/>
<path d="M468.208 130.551C468.312 130.307 471.266 131.524 475.159 132.149C479.051 132.775 482.109 132.636 482.213 132.897C477.449 133.878 472.491 133.041 468.312 130.551H468.208Z" fill="#455A64"/>
<path d="M515.732 234.929L459.955 250.29L399.764 293.73L415.819 321.185L699.589 321.671C699.589 321.671 689.164 283.739 685.845 272.097C680.719 254.53 673.768 249.508 667.426 243.148C664.472 240.518 661.03 238.493 657.296 237.188C646.071 234.738 594.133 223.079 584.02 223.287C584.02 223.287 572.361 247.388 547.93 247.145C523.499 246.902 515.732 234.929 515.732 234.929Z" fill="#455A64"/>
<path d="M630.745 279.465C630.919 279.465 631.44 277.171 633.091 273.748C635.296 269.306 638.2 265.246 641.692 261.723C645.221 258.206 648.989 254.938 652.969 251.941C654.663 250.746 656.272 249.434 657.782 248.014C655.944 248.967 654.199 250.09 652.569 251.367C648.416 254.209 644.541 257.438 640.997 261.011C637.415 264.601 634.523 268.818 632.465 273.452C631.849 274.852 631.366 276.306 631.023 277.796C630.829 278.331 630.734 278.896 630.745 279.465V279.465Z" fill="#263238"/>
<path d="M461.258 309.595C461.507 307.642 461.571 305.669 461.449 303.704C461.449 300.055 461.206 295.016 460.789 289.491C460.372 283.965 459.798 278.926 459.277 275.329C459.109 273.364 458.748 271.42 458.2 269.525C458.166 271.495 458.288 273.465 458.565 275.416C458.895 279.36 459.312 284.208 459.764 289.56C460.215 294.912 460.459 299.777 460.719 303.722C460.742 305.691 460.922 307.655 461.258 309.595V309.595Z" fill="#263238"/>
<g opacity="0.3">
<path opacity="0.3" d="M444.542 316.823C449.129 315.451 453.804 313.713 457.209 310.359C460.615 307.006 462.422 301.671 460.406 297.258C463.791 304.433 469.176 310.477 475.915 314.664C482.654 318.85 490.459 321 498.391 320.855L431.076 321.706C435.343 319.524 439.867 317.884 444.542 316.823Z" fill="black"/>
</g>
<path d="M762.005 321.584C762.005 321.584 755.193 312.323 751.822 310.568C748.451 308.813 743.847 308.83 741.814 310.672L739.781 312.496C739.781 312.496 729.181 307.753 724.142 311.402C724.142 311.402 714.064 306.641 709.251 312.097C709.251 312.097 701.483 307.04 698.199 311.454C694.915 315.867 695.245 323.304 696.827 327.092C698.408 330.88 701.397 343.999 703.777 344.225C703.777 344.225 709.963 344.885 710.728 341.532C711.492 338.178 711.909 336.58 711.909 336.58C711.909 336.58 714.272 348.413 717.122 349.004C719.972 349.594 725.41 349.282 725.584 344.086C725.584 344.086 728.225 347.996 730.797 346.866C733.369 345.737 736.566 343.826 736.288 340.611C736.01 337.396 735.958 334.182 735.958 334.182C735.958 334.182 737.383 338.873 739.711 337.848C742.039 336.823 744.403 337.049 745.723 333.087C747.044 329.125 750.293 321.532 750.293 321.532L762.005 321.584Z" fill="#FFBE9D"/>
<path d="M736.131 333.974C735.859 332.844 735.522 331.73 735.123 330.638C734.402 327.962 734.289 325.159 734.794 322.434C735.299 319.71 736.41 317.133 738.043 314.895C739.294 313.157 740.302 312.254 740.197 312.132C740.093 312.01 738.929 312.757 737.469 314.443C735.578 316.676 734.303 319.363 733.769 322.24C733.236 325.117 733.463 328.084 734.428 330.846C734.73 332.013 735.315 333.087 736.131 333.974Z" fill="#EB996E"/>
<path d="M723.43 311.472C722.745 312.947 722.288 314.517 722.074 316.128C720.595 323.878 721.134 331.879 723.638 339.36C724.071 340.926 724.733 342.419 725.602 343.791C725.932 343.687 722.96 336.841 722.387 327.771C721.814 318.7 723.76 311.524 723.43 311.472Z" fill="#EB996E"/>
<path d="M708.955 312.253C708.2 316.385 708.147 320.615 708.799 324.764C709.116 328.956 710.126 333.066 711.787 336.928C712.083 336.928 710.588 331.454 709.824 324.643C709.059 317.831 709.25 312.271 708.955 312.253Z" fill="#EB996E"/>
<path d="M667.269 314.912C667.523 314.373 667.896 313.9 668.359 313.526C668.823 313.153 669.365 312.89 669.945 312.757C671.296 312.454 672.7 312.483 674.037 312.84C675.374 313.197 676.605 313.872 677.625 314.808C679.838 316.827 681.73 319.17 683.238 321.758L668.225 321.654C668.364 319.325 666.435 317.049 667.269 314.912Z" fill="#FFBE9D"/>
<path d="M314.015 366.241C315.694 373.003 319.094 379.217 323.884 384.277C324.11 384.103 321.347 380.402 318.671 375.433C315.995 370.463 314.275 366.154 314.015 366.241Z" fill="#EB996E"/>
<path d="M300.078 364.537C299.766 364.659 300.86 367.074 302.737 369.611C303.731 371.253 305.015 372.701 306.525 373.885C305.782 372.123 304.768 370.487 303.519 369.038C302.497 367.446 301.346 365.941 300.078 364.537V364.537Z" fill="#EB996E"/>
<path d="M338.08 387.961C337.651 386.03 337.106 384.126 336.447 382.261C335.387 378.786 334.014 373.903 332.676 368.499C331.999 365.789 331.391 363.286 330.939 360.854C330.397 358.821 330.186 356.715 330.313 354.616C330.521 352.699 331.289 350.886 332.52 349.403C332.52 349.403 331.964 349.646 331.304 350.463C330.378 351.656 329.779 353.069 329.566 354.564C329.327 356.744 329.474 358.95 330.001 361.08C330.47 363.46 331.06 366.049 331.738 368.777C333.093 374.199 334.57 379.047 335.804 382.504C336.381 384.394 337.144 386.221 338.08 387.961Z" fill="#EB996E"/>
<path d="M331.808 353.312C331.686 353.417 332.677 354.546 333.823 356.614C335.313 359.285 336.197 362.251 336.413 365.302C336.385 367.05 336.531 368.796 336.847 370.515C337.193 371.964 337.954 373.28 339.036 374.303C339.923 375.293 341.039 376.051 342.286 376.51C342.39 376.371 341.104 375.554 339.54 373.834C338.635 372.857 338.006 371.658 337.716 370.359C337.463 368.68 337.352 366.982 337.386 365.285C337.167 362.083 336.145 358.987 334.414 356.284C333.772 355.115 332.883 354.101 331.808 353.312V353.312Z" fill="#EB996E"/>
<path d="M324.996 321.845C325.17 321.619 321.782 318.804 318.359 314.616C314.936 310.429 312.746 306.571 312.433 306.832C312.722 307.747 313.125 308.623 313.632 309.438C314.778 311.491 316.11 313.433 317.612 315.242C319.603 317.918 322.115 320.164 324.996 321.845V321.845Z" fill="#EB996E"/>
<g opacity="0.3">
<path opacity="0.3" d="M625.566 321.602L626.696 295.416L608.312 321.567L625.566 321.602Z" fill="black"/>
</g>
<path d="M625.549 321.584C625.397 316.414 625.536 311.239 625.966 306.085C626.105 300.915 626.54 295.757 627.269 290.637C627.443 295.807 627.31 300.983 626.87 306.137C626.744 311.308 626.303 316.467 625.549 321.584V321.584Z" fill="#263238"/>
<path d="M619.937 230.168C620.207 230.71 620.367 231.301 620.406 231.906C620.543 233.613 620.095 235.316 619.137 236.736C617.669 239.035 615.395 240.703 612.76 241.41C609.352 242.244 605.835 242.543 602.335 242.297C600.314 242.256 598.293 242.361 596.288 242.609C594.144 242.877 592.086 243.613 590.258 244.764C588.365 246.071 586.868 247.875 585.931 249.977C584.945 252.25 584.199 254.62 583.707 257.049C583.151 259.551 582.647 262.14 581.848 264.764C580.621 268.973 578.128 272.703 574.709 275.448C571.29 278.192 567.109 279.819 562.734 280.107C559.763 280.26 556.79 279.825 553.987 278.826C551.184 277.827 548.606 276.284 546.401 274.286C544.341 272.4 542.613 270.179 541.292 267.718C540.173 265.399 538.45 263.425 536.305 262.001C534.137 260.872 531.673 260.441 529.25 260.767C526.912 261.022 524.591 261.417 522.3 261.949C520.127 262.458 517.91 262.761 515.68 262.853C513.599 262.901 511.526 262.572 509.563 261.879C506.218 260.704 503.228 258.694 500.875 256.041C499.076 254.057 497.688 251.736 496.792 249.212C496.454 248.303 496.192 247.367 496.01 246.415C495.923 245.563 495.784 244.868 495.784 244.295V242.974C495.768 242.83 495.768 242.684 495.784 242.54C495.866 244.779 496.306 246.991 497.087 249.091C498.02 251.541 499.425 253.785 501.223 255.694C503.558 258.258 506.514 260.179 509.807 261.271C511.702 261.915 513.696 262.215 515.697 262.157C517.882 262.048 520.052 261.734 522.178 261.219C524.469 260.668 526.79 260.25 529.129 259.968C531.711 259.616 534.339 260.071 536.653 261.271C538.931 262.756 540.768 264.827 541.97 267.266C543.263 269.646 544.942 271.795 546.939 273.626C551.214 277.473 556.834 279.477 562.578 279.203C565.405 278.991 568.161 278.209 570.678 276.904C573.195 275.599 575.423 273.798 577.226 271.61C580.823 267.353 581.674 261.827 582.839 256.858C583.341 254.365 584.116 251.935 585.15 249.612C586.16 247.384 587.758 245.474 589.772 244.086C591.7 242.881 593.872 242.121 596.131 241.862C598.167 241.629 600.217 241.547 602.265 241.619C605.757 241.895 609.271 241.649 612.691 240.889C615.233 240.235 617.446 238.67 618.911 236.493C619.87 235.141 620.352 233.509 620.284 231.853C620.206 231.284 620.09 230.721 619.937 230.168V230.168Z" fill="white"/>
<path d="M535.436 319.708C535.271 319.329 535.149 318.932 535.071 318.526L534.116 315.051C533.02 310.832 531.26 306.814 528.903 303.148C528.101 301.969 527.175 300.88 526.14 299.899C525.008 298.857 523.74 297.974 522.369 297.275C519.279 295.833 515.862 295.233 512.465 295.537C508.669 295.875 504.908 296.532 501.223 297.501C497.21 298.571 493.073 299.108 488.92 299.1C484.649 299.173 480.508 297.628 477.33 294.773C474.616 291.873 472.994 288.12 472.743 284.156C472.489 280.681 472.571 277.19 472.986 273.73C473.325 270.748 473.4 267.742 473.212 264.747C473.105 262.588 472.571 260.472 471.641 258.522C470.71 256.571 469.402 254.824 467.791 253.383C466.54 252.406 465.112 251.68 463.586 251.246H463.899C464.211 251.277 464.52 251.341 464.82 251.437C465.976 251.781 467.06 252.334 468.017 253.07C469.72 254.506 471.115 256.271 472.118 258.26C473.121 260.249 473.712 262.42 473.855 264.643C474.09 267.675 474.049 270.723 473.734 273.748C473.357 277.17 473.305 280.62 473.577 284.052C473.603 286.02 474.031 287.962 474.834 289.759C475.638 291.556 476.8 293.169 478.25 294.5C479.7 295.832 481.407 296.852 483.266 297.5C485.125 298.147 487.096 298.408 489.059 298.265C493.165 298.284 497.255 297.758 501.223 296.702C504.954 295.735 508.762 295.09 512.604 294.773C516.147 294.493 519.701 295.152 522.908 296.684C524.334 297.432 525.649 298.374 526.818 299.482C527.872 300.541 528.815 301.706 529.633 302.957C531.954 306.705 533.628 310.817 534.585 315.12C534.967 316.615 535.21 317.796 535.367 318.596C535.424 318.963 535.447 319.336 535.436 319.708V319.708Z" fill="white"/>
<path d="M627.687 297.518C625.265 296.286 622.72 295.314 620.094 294.617C617.25 293.94 614.317 293.723 611.405 293.974C607.837 294.288 604.374 295.348 601.24 297.084C598.1 298.838 595.341 301.201 593.126 304.035C591.304 306.326 589.898 308.92 588.973 311.697C588.318 313.555 588.186 315.556 588.591 317.484C588.794 318.177 589.044 318.856 589.338 319.517C589.338 319.517 589.181 319.378 588.955 319.082C588.654 318.611 588.415 318.103 588.243 317.571C587.694 315.587 587.73 313.487 588.347 311.524C589.224 308.631 590.619 305.923 592.465 303.531C594.719 300.589 597.552 298.141 600.789 296.337C604.036 294.536 607.634 293.457 611.336 293.174C614.34 292.954 617.359 293.242 620.267 294.026C622.223 294.555 624.108 295.319 625.88 296.302C626.505 296.65 626.957 296.962 627.27 297.171C627.583 297.379 627.704 297.484 627.687 297.518Z" fill="white"/>
<path d="M646.418 250.638C646.331 250.638 645.792 249.925 645.358 248.483C644.822 246.6 644.738 244.618 645.115 242.697C645.491 240.768 646.312 238.953 647.513 237.397C648.451 236.233 649.25 235.659 649.25 235.798C647.588 237.845 646.455 240.269 645.952 242.857C645.449 245.445 645.591 248.117 646.366 250.638H646.418Z" fill="white"/>
<path d="M688.885 285.077C688.856 285.339 688.792 285.596 688.694 285.842C688.487 286.558 688.22 287.255 687.895 287.927C686.696 290.422 684.998 292.645 682.908 294.46C679.795 297.185 675.954 298.943 671.857 299.517C667.165 300.212 662.143 298.717 657.104 297.466C654.66 296.798 652.147 296.413 649.615 296.319C647.254 296.284 644.904 296.648 642.665 297.397C638.885 298.681 635.49 300.898 632.795 303.843C630.963 305.822 629.498 308.11 628.468 310.603C627.739 312.34 627.547 313.435 627.443 313.418C627.431 313.153 627.466 312.888 627.547 312.636C627.691 311.904 627.888 311.184 628.138 310.481C629.067 307.88 630.482 305.48 632.309 303.409C635.037 300.314 638.513 297.969 642.404 296.597C644.71 295.795 647.139 295.401 649.58 295.433C652.175 295.527 654.751 295.912 657.261 296.58C662.352 297.848 667.235 299.325 671.7 298.683C675.656 298.172 679.383 296.538 682.439 293.974C684.514 292.248 686.242 290.142 687.53 287.77C688.555 286.102 688.885 285.042 688.885 285.077Z" fill="white"/>
<path d="M456.566 316.823C456.364 316.848 456.16 316.848 455.958 316.823C455.38 316.879 454.798 316.879 454.22 316.823C452.05 316.683 449.927 316.129 447.965 315.19C445.029 313.8 442.511 311.661 440.667 308.987C439.593 307.391 438.789 305.63 438.286 303.774C437.817 301.799 437.474 299.797 437.261 297.779C436.792 293.713 436.132 289.751 433.786 287.093C431.668 284.816 428.836 283.332 425.758 282.888C423.674 282.521 421.566 282.306 419.451 282.245C418.661 282.256 417.871 282.209 417.087 282.106C417.863 281.938 418.657 281.868 419.451 281.897C421.6 281.814 423.753 281.937 425.88 282.262C429.139 282.647 432.159 284.167 434.411 286.554C435.653 288.048 436.549 289.799 437.035 291.68C437.542 293.642 437.896 295.641 438.095 297.657C438.306 299.633 438.637 301.594 439.086 303.53C439.544 305.299 440.296 306.979 441.31 308.5C443.066 311.095 445.459 313.195 448.26 314.599C450.852 315.889 453.676 316.645 456.566 316.823V316.823Z" fill="white"/>
<path d="M574.931 716.834C577.637 721.858 579.407 727.332 580.155 732.989H589.74L630.183 732.289L629.878 733.007C629.878 733.007 636.484 701.989 637.686 692.762C638.673 685.151 643.377 666.949 637.686 658.908C636.659 657.494 635.216 656.436 633.559 655.882C631.901 655.329 630.112 655.307 628.442 655.82C627.274 656.156 626.221 656.808 625.4 657.704C624.58 658.601 624.023 659.707 623.793 660.9C623.793 660.9 623.308 650.13 615.589 649.986C607.87 649.843 607.601 655.856 607.601 655.856C607.601 655.856 605.483 643.56 596.831 643.668C595.17 643.822 593.596 644.476 592.314 645.543C591.032 646.61 590.104 648.04 589.651 649.645V626.31C589.656 624.031 588.795 621.836 587.241 620.169C585.688 618.503 583.559 617.489 581.286 617.334C580.13 617.298 578.98 617.493 577.9 617.907C576.821 618.32 575.835 618.944 575 619.743C574.164 620.542 573.496 621.499 573.034 622.558C572.573 623.618 572.327 624.759 572.31 625.915L571.79 679.91L558.668 663.072C555.24 658.71 547.054 660.864 546.103 664.616C546.103 664.616 543.733 669.552 548.634 676.822C552.044 682.261 574.931 716.834 574.931 716.834Z" fill="#EBEBEB"/>
<path d="M574.931 716.834C574.931 716.834 574.698 716.547 574.303 715.972L572.508 713.387L565.777 703.353L555.132 687.413L548.49 677.433C547.191 675.629 546.202 673.621 545.564 671.491C544.811 669.212 544.811 666.751 545.564 664.472V664.472C546.101 663.118 547.135 662.02 548.454 661.403C549.771 660.738 551.217 660.37 552.691 660.326C554.219 660.237 555.74 660.592 557.071 661.349C557.403 661.554 557.721 661.782 558.022 662.031C558.309 662.3 558.578 662.605 558.83 662.893L560.23 664.688L571.951 679.676L571.251 679.91C571.431 664.831 571.628 648.299 571.826 630.707V627.404C571.781 626.263 571.859 625.119 572.059 623.994C572.58 621.658 573.99 619.618 575.99 618.304C576.998 617.649 578.128 617.203 579.311 616.992C580.495 616.782 581.709 616.812 582.881 617.08C584.053 617.348 585.159 617.848 586.134 618.552C587.109 619.255 587.932 620.148 588.556 621.176C589.206 622.212 589.651 623.364 589.866 624.568C590.033 625.757 590.093 626.959 590.046 628.158V649.573L589.13 649.448C589.762 647.295 591.177 645.457 593.097 644.296C593.914 643.825 594.798 643.48 595.718 643.273C596.189 643.166 596.673 643.129 597.154 643.165C597.624 643.191 598.091 643.245 598.554 643.327C600.391 643.728 602.059 644.687 603.329 646.073C605.663 648.82 607.219 652.142 607.835 655.694H606.919C607.031 654.502 607.46 653.36 608.16 652.389C608.861 651.417 609.808 650.649 610.904 650.166C611.968 649.714 613.106 649.459 614.261 649.412C614.858 649.352 615.459 649.352 616.056 649.412L616.918 649.52L617.743 649.771C618.818 650.165 619.8 650.779 620.625 651.573C621.45 652.368 622.101 653.325 622.536 654.384C623.44 656.385 623.981 658.53 624.134 660.721L623.236 660.631C623.478 659.476 624.001 658.398 624.759 657.493C625.516 656.588 626.485 655.884 627.58 655.443C629.748 654.599 632.163 654.651 634.294 655.587C635.346 656.034 636.298 656.687 637.094 657.508C637.814 658.344 638.418 659.274 638.889 660.272C639.746 662.266 640.297 664.378 640.522 666.537C641.294 675.063 639.463 683.159 638.225 690.824C636.986 698.489 635.604 705.956 634.222 712.975C632.84 719.993 631.386 726.635 630.075 732.918L629.429 732.72L629.716 732.002L630.039 732.469L589.597 733.061L589.812 732.828V733.061H589.74H580.101H579.939V732.9C579.389 728.744 578.303 724.678 576.708 720.801C576.17 719.473 575.703 718.485 575.362 717.821C575.021 717.157 574.895 716.816 574.895 716.816C575.651 718.072 576.317 719.379 576.888 720.729C578.568 724.601 579.716 728.683 580.298 732.864L580.119 732.702H589.758L589.525 732.936V732.72H589.74L630.165 731.894H630.686L630.488 732.379L630.201 733.097L629.555 732.9C630.835 726.617 632.187 719.963 633.611 712.939C634.976 705.92 636.484 698.578 637.543 690.824C638.602 683.069 640.558 675.063 639.786 666.752C639.572 664.692 639.046 662.676 638.225 660.774C637.749 659.85 637.145 658.998 636.43 658.243C635.716 657.496 634.87 656.888 633.935 656.448C632.016 655.624 629.85 655.585 627.903 656.341C626.935 656.717 626.078 657.332 625.412 658.13C624.747 658.927 624.295 659.88 624.098 660.9L623.451 664.006L623.2 660.81C623.05 658.745 622.539 656.722 621.692 654.833C621.307 653.886 620.73 653.029 619.998 652.316C619.266 651.603 618.394 651.048 617.438 650.686C615.426 650.131 613.286 650.257 611.353 651.045C610.415 651.459 609.604 652.114 609.001 652.943C608.399 653.772 608.028 654.747 607.924 655.766L607.637 658.8L606.991 655.82C606.395 652.452 604.922 649.3 602.719 646.683C601.637 645.394 600.136 644.526 598.479 644.231C596.822 643.936 595.114 644.232 593.654 645.068C591.918 646.098 590.636 647.746 590.064 649.681L589.148 652.517V628.122C589.201 626.984 589.153 625.842 589.004 624.712C588.797 623.623 588.389 622.583 587.802 621.642C587.228 620.711 586.475 619.902 585.588 619.261C584.701 618.621 583.697 618.161 582.632 617.909C580.51 617.46 578.296 617.865 576.471 619.038C574.646 620.211 573.358 622.056 572.885 624.173C572.693 625.233 572.621 626.311 572.669 627.387V630.707C572.436 648.281 572.203 664.813 571.987 679.91V681.041L571.305 680.143L559.727 665.172C558.957 663.941 557.958 662.868 556.783 662.013C555.565 661.326 554.178 660.996 552.78 661.062C551.415 661.111 550.076 661.447 548.849 662.049C547.669 662.584 546.743 663.556 546.264 664.759V664.759C545.564 666.893 545.564 669.195 546.264 671.329C546.876 673.399 547.829 675.353 549.083 677.109L555.67 687.126L566.171 703.156L572.759 713.28C573.495 714.429 574.052 715.308 574.465 715.918C574.877 716.529 574.931 716.834 574.931 716.834Z" fill="#263238"/>
<path d="M630.757 732.289H580.119C576.273 732.289 573.154 735.407 573.154 739.254V739.756C573.154 743.603 576.273 746.721 580.119 746.721H630.757C634.604 746.721 637.722 743.603 637.722 739.756V739.254C637.722 735.407 634.604 732.289 630.757 732.289Z" fill="#EBEBEB"/>
<path d="M630.775 746.722C630.775 746.722 631.278 746.722 632.211 746.47C633.591 746.135 634.841 745.398 635.801 744.352C636.464 743.61 636.96 742.735 637.255 741.785C637.569 740.615 637.637 739.392 637.453 738.195C637.224 736.781 636.549 735.477 635.524 734.475C634.5 733.474 633.182 732.827 631.763 732.63H580.191C579.022 732.64 577.876 732.959 576.871 733.555C575.865 734.151 575.035 735.003 574.465 736.023C573.936 737.037 573.665 738.165 573.675 739.308C573.606 740.978 574.177 742.612 575.271 743.876C576.365 745.14 577.9 745.939 579.562 746.111C581.77 746.111 584.068 746.111 586.222 746.111L609.432 746.219L625.085 746.363L629.339 746.452C629.838 746.432 630.337 746.462 630.829 746.542C630.337 746.622 629.838 746.652 629.339 746.632H625.085L609.432 746.775L586.222 746.883C584.032 746.883 581.842 746.883 579.473 746.883C578.233 746.76 577.044 746.329 576.012 745.63C574.981 744.931 574.141 743.986 573.567 742.88C572.946 741.721 572.633 740.421 572.658 739.106C572.683 737.791 573.045 736.505 573.71 735.37C574.375 734.235 575.32 733.29 576.455 732.625C577.589 731.959 578.876 731.597 580.191 731.571C600.367 731.571 618.551 731.571 631.852 731.805C633.399 732.025 634.832 732.743 635.933 733.851C637.035 734.959 637.745 736.396 637.955 737.944C638.127 739.188 638.035 740.453 637.686 741.659C637.348 742.667 636.79 743.586 636.053 744.352C635.057 745.413 633.749 746.13 632.319 746.398C631.825 746.588 631.304 746.698 630.775 746.722V746.722Z" fill="#263238"/>
<path d="M589.364 669.373C588.741 662.416 588.741 655.417 589.364 648.46C589.986 655.417 589.986 662.416 589.364 669.373V669.373Z" fill="#263238"/>
<path d="M607.368 667.954C606.746 663.831 606.746 659.638 607.368 655.515C607.99 659.638 607.99 663.831 607.368 667.954Z" fill="#263238"/>
<path d="M623.846 673.196C623.2 669.069 623.2 664.866 623.846 660.738C624.468 664.868 624.468 669.067 623.846 673.196V673.196Z" fill="#263238"/>
<path d="M568.702 616.455C565.29 615.235 561.987 613.728 558.83 611.949C555.526 610.431 552.361 608.629 549.37 606.564C556.082 609.301 562.55 612.604 568.702 616.437V616.455Z" fill="#263238"/>
<path d="M577.462 611.518C576.292 607.022 575.422 602.452 574.86 597.84C573.982 593.27 573.413 588.646 573.154 584C574.345 588.499 575.221 593.075 575.775 597.696C576.642 602.261 577.206 606.879 577.462 611.518V611.518Z" fill="#263238"/>
<path d="M588.358 612.775C590.137 609.447 592.178 606.265 594.461 603.261C596.496 600.086 598.79 597.084 601.319 594.286C597.522 600.805 593.187 606.996 588.358 612.793V612.775Z" fill="#263238"/>
<path d="M300.959 324.364C301.433 319.623 302.988 315.053 305.506 311.008C308.024 306.962 311.436 303.548 315.481 301.029V301.029C318.702 299.133 322.297 297.961 326.016 297.592C329.735 297.223 333.49 297.667 337.021 298.892L366.945 309.304C368.56 311.099 417.942 292 417.942 292L434.51 320.325L340.127 320.182C345.315 326.101 350.816 331.74 356.605 337.073L363.014 358.363L362.385 377.623C358.993 379.185 353.931 373.243 353.931 373.243L350.969 378.629L351.956 383.852C351.956 383.852 360.68 405.034 360.375 409.755C360.375 410.112 360.303 410.466 360.165 410.795C360.026 411.125 359.822 411.423 359.566 411.672C359.31 411.921 359.007 412.117 358.674 412.247C358.341 412.377 357.986 412.439 357.628 412.429C356.376 412.497 355.131 412.192 354.051 411.553C352.972 410.914 352.105 409.97 351.561 408.839L339.157 384.732C339.157 384.732 329.554 382.398 326.197 379.239C322.84 376.08 317.832 370.048 317.832 370.048L311.729 369.187C311.002 369.292 310.262 369.146 309.629 368.774C308.023 367.98 306.627 366.818 305.554 365.383C304.481 363.949 303.762 362.281 303.454 360.517L300.348 344.361C299.594 340.699 300.187 332.155 300.959 324.364Z" fill="#FFBE9D"/>
</svg>
