<?xml version="1.0" encoding="utf-8"?>
<!-- Generator: Adobe Illustrator 24.3.0, SVG Export Plug-In . SVG Version: 6.00 Build 0)  -->
<svg version="1.1" id="Layer_1" xmlns="http://www.w3.org/2000/svg" xmlns:xlink="http://www.w3.org/1999/xlink" x="0px" y="0px"
	 viewBox="0 0 750 645.7" style="enable-background:new 0 0 750 645.7;" xml:space="preserve">
<style type="text/css">
	.st0{fill:#FFFFFF;}
	.st1{display:none;}
	.st2{display:inline;fill:#EBEBEB;}
	.st3{fill:#E0E0E0;}
	.st4{fill:#EBEBEB;}
	.st5{fill:#FAFAFA;}
	.st6{fill:#F5F5F5;}
	.st7{fill:#E8505B;}
	.st8{fill:#263238;}
	.st9{fill:#455A64;}
	.st10{opacity:0.4;}
	.st11{font-family:'Impact';}
	.st12{font-size:150px;}
	.st13{fill:#FFBE9D;}
	.st14{fill:#EB996E;}
	.st15{opacity:0.3;}
</style>
<rect class="st0" width="750" height="645.7"/>
<g id="Background_Simple" class="st1">
	<path class="st2" d="M626,128.2l-2.7-4.2C600.8,88.3,559,66,514.2,67.2c-5.8,0.2-11.5,0.7-17.2,1.6c-40.9,6.7-77.2,33.5-92.9,68.7
		c-9.2,20.7-12.4,44.8-29.2,60.9c-22,21-58.2,20.7-90,18.8c-31.8-1.8-68-2.1-89.9,19c-13.7,13.2-27.6,38.1-28.8,56.3
		c-4.2,62.2,34.2,110.9,80.9,133.8c46.7,22.8,109.9,23.8,161.9,15.9c72.9-11.1,154.4-57.9,197.5-112.7
		C649.6,274.6,657.4,189.7,626,128.2z"/>
</g>
<g>
	<g id="Background_Complete">
		<g>
			<path class="st3" d="M578.6,183.6l1,3.5l-3.2,22.5l-5.9,1.6l3.1-21.5l-7.8,2.2l1.1,3.8L562,197l-2.3-8.3L578.6,183.6z"/>
			<path class="st3" d="M602.7,194.3c1.2,4.2-0.9,8.7-7.6,10.5c-3.3,0.9-7,1-9.7,0l1-4.8c2.2,0.9,4.8,0.9,7.3,0.3
				c2.7-0.8,4.1-2.4,3.6-4.3c-0.5-1.9-2.1-2.7-6.3-1.5l-6,1.7l-2.5-13.6l14.4-4l1.2,4.4l-9.8,2.7l0.9,4.6l1.9-0.5
				C597.9,187.7,601.6,190.1,602.7,194.3z"/>
			<path class="st3" d="M602.3,183.7c-1.1-3.8,0.4-7,3.5-7.9c3.1-0.9,6,1,7.1,4.9c1.1,3.9-0.4,7-3.5,7.9
				C606.2,189.5,603.4,187.5,602.3,183.7z M611.2,181.2c-0.9-3.1-2.8-4.5-5-3.9c-2.2,0.6-3.1,2.9-2.3,5.9s2.8,4.5,5,3.9
				C611.2,186.5,612.1,184.2,611.2,181.2z M620.2,172l2-0.6l-9.5,28.1l-2,0.6L620.2,172z M619.8,190.8c-1.1-3.8,0.4-7,3.5-7.9
				c3.2-0.9,6,1.1,7.1,4.9s-0.4,7-3.5,7.9C623.8,196.6,620.9,194.6,619.8,190.8z M628.8,188.3c-0.8-3-2.8-4.5-5-3.9
				c-2.2,0.6-3.1,2.8-2.3,5.9c0.9,3.1,2.8,4.5,5,3.9C628.7,193.6,629.6,191.3,628.8,188.3z"/>
		</g>
		<g>
			<g>
				
					<rect x="621" y="432.4" transform="matrix(7.806831e-03 -1 1 7.806831e-03 192.6282 1129.335)" class="st4" width="88.9" height="70.4"/>
			</g>
			<g>
				<polygon class="st5" points="673.5,426.1 672.2,512.2 661.1,512.1 663.5,426.1 				"/>
			</g>
			<g>
				<polygon class="st3" points="590.2,425.5 630.6,425.8 701,426.3 630.5,435.6 629.9,511.9 589.5,511.5 				"/>
			</g>
			<g>
				<polygon class="st5" points="612.2,425.7 610.6,511.7 598.6,511.6 600.5,425.6 				"/>
			</g>
			<g>
				<g>
					<g>
						<path class="st3" d="M644.1,399.5c0,0.2-1.2,0.4-3.4,0.6s-5.3,0.4-9.2,0.4c-3.9-0.1-8.6-0.3-13.8-1.8c-0.7-0.2-1.3-0.5-2-0.9
							s-1.3-1-1.8-1.7c-0.5-0.8-0.7-1.7-0.7-2.6s0.1-1.6,0.3-2.4c0.7-2.7,1.4-5.6,2.6-8.5c0.6-1.4,1.4-2.8,2.3-4.1
							c0.9-1.2,1.9-2.4,3.4-3.3c0.7-0.4,1.5-0.8,2.3-1s1.7-0.2,2.6,0c1.6,0.4,2.8,1.3,3.9,2.1c4.1,3.3,7.1,7.1,9.2,10.5
							c2.1,3.4,3.1,6.4,3.7,8.6c0.5,2.1,0.6,3.4,0.5,3.4c-0.4,0.1-1.4-4.7-5.7-11c-2.1-3.1-5.2-6.5-9.1-9.6c-1-0.7-2-1.4-3-1.6
							s-2,0-3,0.6s-1.8,1.6-2.6,2.7s-1.4,2.3-2,3.6c-1.1,2.6-1.8,5.4-2.5,8c-0.3,1.3-0.4,2.3,0.1,3c0.4,0.7,1.4,1.3,2.5,1.7
							c1.1,0.4,2.3,0.7,3.5,0.9c1.2,0.3,2.3,0.5,3.4,0.6c2.2,0.3,4.3,0.5,6.2,0.7c3.8,0.3,7,0.3,9.1,0.4
							C642.9,399.2,644.1,399.3,644.1,399.5z"/>
					</g>
				</g>
				<g>
					<g>
						<path class="st5" d="M642.7,400.1c0-0.2,1.3-0.6,3.7-1.1c2.4-0.6,5.8-1.2,10-2.3c4.2-1,9.2-2.4,14.4-4.5
							c1.3-0.5,2.6-1.1,3.6-1.9c0.5-0.4,0.9-0.8,1.2-1.3c0.2-0.4,0.3-0.9,0.2-1.5s-0.4-1.2-0.7-1.9c-0.3-0.7-0.7-1.4-1-2.2
							c-0.7-1.4-1.4-2.8-2.3-4.1c-0.9-1.3-1.8-2.5-3-3.5c-1.1-1-2.3-1.9-3.6-2.3c-1.3-0.5-2.5-0.5-3.7-0.2c-1.2,0.4-2.3,1.1-3.3,2
							c-4.2,3.7-7.4,7.7-9.6,11.3c-2.2,3.6-3.5,6.9-4.3,9.1c-0.8,2.3-1.1,3.6-1.3,3.6s-0.2-1.4,0.3-3.8s1.5-5.9,3.7-9.8
							c2.1-3.9,5.3-8.2,9.6-12.2c1.1-1,2.5-2,4.2-2.6s3.7-0.5,5.3,0.1c0.8,0.3,1.6,0.7,2.4,1.2c0.7,0.5,1.4,1,2.1,1.6
							c1.3,1.2,2.4,2.5,3.4,4s1.8,3,2.5,4.5c0.3,0.7,0.7,1.5,1,2.2s0.7,1.6,0.9,2.6s0,2.2-0.5,3.1s-1.2,1.6-1.9,2.1
							c-1.4,1-2.8,1.6-4.2,2.2c-5.5,2.1-10.6,3.3-14.9,4.1c-4.3,0.8-7.8,1.2-10.2,1.5C644.1,400.2,642.7,400.3,642.7,400.1z"/>
					</g>
				</g>
			</g>
			<g>
				
					<rect x="614.5" y="359.3" transform="matrix(7.807782e-03 -1 1 7.807782e-03 213.279 1036.9872)" class="st3" width="29.4" height="103.5"/>
			</g>
			<g>
				
					<rect x="647.6" y="364.5" transform="matrix(7.807239e-03 -1 1 7.807239e-03 245.8197 1070.4166)" class="st4" width="29.4" height="93.6"/>
			</g>
			<g>
				<polygon class="st5" points="680.5,396.8 679.8,426.3 668.9,426.1 669.7,396.7 				"/>
			</g>
			<g>
				<polygon class="st5" points="603,396.3 601.9,425.6 589.9,425.5 590.6,396.1 				"/>
			</g>
		</g>
		<g>
			<g>
				
					<rect x="679.5" y="476.6" transform="matrix(7.807117e-03 -1 1 7.807117e-03 201.6304 1188.6218)" class="st4" width="40.6" height="32.2"/>
			</g>
			<g>
				<polygon class="st5" points="703.5,473.7 702.9,513 697.9,513 699,473.7 				"/>
			</g>
			<g>
				<polygon class="st3" points="665.5,473.4 683.9,473.6 716.1,473.8 683.9,478.1 683.6,512.9 665.2,512.7 				"/>
			</g>
			<g>
				<polygon class="st5" points="675.5,473.5 674.8,512.8 669.3,512.8 670.2,473.5 				"/>
			</g>
			<g>
				<g>
					<g>
						<path class="st3" d="M690.1,461.6c0,0.3-2.1,0.8-5.8,1c-1.8,0-4,0-6.5-0.7c-0.6-0.2-1.5-0.5-2.1-1.5c-0.3-0.5-0.4-1-0.5-1.5
							c0-0.5,0.1-0.9,0.1-1.2c0.3-1.3,0.6-2.6,1.2-4c0.3-0.7,0.7-1.4,1.1-2c0.5-0.6,1-1.2,1.7-1.7s1.8-0.7,2.8-0.5
							c0.9,0.2,1.5,0.7,2,1.1c1.9,1.6,3.3,3.4,4.2,5c1.8,3.3,1.8,5.7,1.5,5.7c-0.4,0.1-1-2-3-4.7c-1-1.3-2.4-2.8-4.1-4.1
							c-0.4-0.3-0.8-0.5-1.1-0.6c-0.3,0-0.5,0-0.8,0.2s-0.7,0.6-1,1.1c-0.3,0.4-0.6,1-0.8,1.5c-0.5,1.1-0.8,2.3-1.1,3.5
							c-0.1,0.6-0.1,0.8-0.1,0.9s0.4,0.4,0.8,0.5c0.9,0.3,2,0.6,3,0.7c1,0.2,1.9,0.3,2.8,0.4C687.9,461,690.1,461.2,690.1,461.6z"/>
					</g>
				</g>
				<g>
					<g>
						<path class="st5" d="M689.5,461.8c-0.1-0.4,2.4-1,6.1-2c1.9-0.5,4.1-1.2,6.4-2.2c0.6-0.2,1.1-0.5,1.5-0.8
							c0.2-0.1,0.3-0.3,0.3-0.4s0-0.1,0-0.2c0-0.3-0.4-1-0.7-1.7c-0.3-0.6-0.6-1.2-1-1.8c-0.4-0.6-0.8-1.1-1.2-1.5
							c-0.5-0.4-1-0.8-1.4-0.9c-0.5-0.2-0.9-0.2-1.3-0.1c-0.4,0.1-0.8,0.4-1.3,0.8c-1.9,1.6-3.4,3.4-4.4,4.9c-2.1,3.2-2.6,5.6-3,5.6
							c-0.2,0-0.3-0.7-0.1-1.8c0.1-1.1,0.6-2.8,1.5-4.7c0.9-1.9,2.4-3.9,4.4-5.8c0.5-0.5,1.2-1,2.1-1.3c0.9-0.3,2-0.3,2.9,0.1
							c0.4,0.2,0.9,0.4,1.2,0.6c0.4,0.2,0.7,0.5,1,0.8c0.7,0.6,1.2,1.2,1.7,2c0.5,0.7,0.8,1.4,1.2,2.1c0.2,0.3,0.3,0.7,0.5,1
							c0.2,0.4,0.3,0.8,0.4,1.3c0.1,0.6,0,1.3-0.3,1.8s-0.7,0.9-1.1,1.2c-0.7,0.5-1.4,0.8-2.1,1.1c-2.6,1-5,1.5-6.9,1.8
							C692,462.2,689.5,462.2,689.5,461.8z"/>
					</g>
				</g>
			</g>
			<g>
				
					<rect x="676.5" y="443.2" transform="matrix(7.807298e-03 -1 1 7.807298e-03 211.0316 1146.4545)" class="st3" width="13.4" height="47.3"/>
			</g>
			<g>
				
					<rect x="691.8" y="445.6" transform="matrix(7.806521e-03 -1 1 7.806521e-03 226.1003 1161.715)" class="st4" width="13.4" height="42.7"/>
			</g>
			<g>
				<polygon class="st5" points="706.7,460.3 706.4,473.8 701.4,473.7 701.8,460.3 				"/>
			</g>
			<g>
				<polygon class="st5" points="671.3,460.1 670.8,473.5 665.4,473.4 665.6,460 				"/>
			</g>
		</g>
		<g>
			<g>
				
					<rect x="64.4" y="447.7" transform="matrix(7.808336e-03 -1 1 7.808336e-03 -376.546 573.6333)" class="st4" width="72.8" height="57.7"/>
			</g>
			<g>
				<polygon class="st5" points="107.4,442.5 106.4,513 97.3,512.9 99.2,442.4 				"/>
			</g>
			<g>
				<polygon class="st3" points="39.2,442 72.2,442.2 129.9,442.7 72.2,450.3 71.7,512.7 38.6,512.5 				"/>
			</g>
			<g>
				<polygon class="st5" points="57.2,442.1 55.9,512.6 46,512.5 47.6,442 				"/>
			</g>
			<g>
				<g>
					<g>
						<path class="st3" d="M83.4,420.7c0,0.4-1,0.7-2.7,1.1c-1.8,0.4-4.4,0.7-7.6,0.8c-1.6,0.1-3.4,0-5.4-0.1c-1-0.1-2-0.2-3-0.4
							c-1.1-0.2-2.1-0.3-3.3-0.7c-0.6-0.2-1.3-0.4-2-0.9c-0.7-0.4-1.4-1-2-1.9s-0.8-2-0.9-2.9c0-0.9,0.1-1.7,0.3-2.3
							c0.6-2.3,1.1-4.7,2.2-7.2c0.5-1.2,1.2-2.5,2-3.6c0.4-0.6,0.9-1.1,1.4-1.6s1.1-1,1.8-1.5c0.7-0.4,1.5-0.8,2.4-1
							s1.9-0.1,2.7,0.1c1.7,0.4,2.8,1.3,3.7,2.1c3.5,2.9,5.9,6.1,7.6,9.1c1.6,3,2.4,5.6,2.7,7.4c0.3,1.8,0.1,2.9-0.2,3
							c-0.8,0.2-2-3.6-5.6-8.4c-1.8-2.4-4.3-5-7.4-7.3c-0.7-0.6-1.4-0.9-1.9-1c-0.4-0.1-0.7,0-1.3,0.4c-0.3,0.2-0.6,0.4-0.8,0.7
							c-0.3,0.3-0.6,0.7-0.9,1.1c-0.6,0.8-1,1.7-1.5,2.6c-0.8,1.9-1.4,4.2-2,6.3c-0.1,0.5-0.2,0.8-0.2,1.1c0,0.2,0,0.3,0,0.3
							c0,0.1,0.5,0.5,1.3,0.8s1.8,0.6,2.6,0.8c0.9,0.2,1.8,0.4,2.7,0.6c1.8,0.3,3.4,0.6,5,0.7c3.1,0.4,5.6,0.6,7.4,0.8
							C82.4,420,83.3,420.3,83.4,420.7z"/>
					</g>
				</g>
				<g>
					<g>
						<path class="st5" d="M82.2,421.2c-0.1-0.7,4.2-1.9,11-3.8c3.4-1,7.4-2.2,11.5-4c1-0.4,2-0.9,2.6-1.4c0.3-0.2,0.5-0.5,0.5-0.6
							s0,0,0-0.2s-0.2-0.6-0.5-1.2s-0.6-1.1-0.8-1.7c-0.6-1.1-1.1-2.2-1.8-3.2c-0.7-1-1.4-1.9-2.2-2.6c-0.4-0.4-0.8-0.7-1.2-1
							c-0.4-0.3-0.8-0.5-1.2-0.6c-0.8-0.3-1.4-0.3-2.1-0.2c-0.7,0.2-1.4,0.7-2.2,1.3c-3.3,2.8-6,6-7.9,8.8c-3.8,5.6-4.7,10-5.5,9.9
							c-0.3,0-0.6-1.2-0.4-3.3c0.2-2.1,1-5.1,2.6-8.4c1.7-3.4,4.3-7.1,7.9-10.5c1-0.9,2.2-1.9,3.9-2.5c1.7-0.6,3.7-0.5,5.3,0.1
							c0.8,0.3,1.6,0.7,2.3,1.1c0.7,0.4,1.3,0.9,1.9,1.4c1.2,1,2.2,2.3,3,3.6c0.8,1.3,1.5,2.6,2.1,3.8c0.3,0.6,0.6,1.2,0.8,1.8
							c0.3,0.6,0.6,1.4,0.8,2.5c0.2,1,0,2.4-0.6,3.4s-1.3,1.7-2,2.2c-1.4,1-2.6,1.5-3.8,1.9c-4.6,1.7-8.9,2.6-12.5,3.1
							s-6.5,0.7-8.5,0.7C83.4,421.7,82.2,421.5,82.2,421.2z"/>
					</g>
				</g>
			</g>
			<g>
				
					<rect x="59" y="387.8" transform="matrix(7.807841e-03 -1 1 7.807841e-03 -359.6156 497.8797)" class="st3" width="24.1" height="84.8"/>
			</g>
			<g>
				
					<rect x="86.2" y="392.1" transform="matrix(7.806682e-03 -1 1 7.806682e-03 -332.8487 525.3051)" class="st4" width="24.1" height="76.6"/>
			</g>
			<g>
				<polygon class="st5" points="113.1,418.5 112.6,442.7 103.7,442.5 104.3,418.4 				"/>
			</g>
			<g>
				<polygon class="st5" points="49.6,418.1 48.8,442.1 39,442 39.5,417.9 				"/>
			</g>
		</g>
		<g>
			<path class="st3" d="M137.8,141.6l1,3.8l-15.3,3.9l-0.8-3l5.9-9.4c1.4-2.2,1.4-3.3,1.1-4.3c-0.4-1.6-1.7-2.2-3.9-1.7
				c-1.7,0.4-3,1.5-3.7,3.1l-4-1.3c1-2.7,3.4-4.9,7.1-5.8c4.5-1.2,8.1,0.4,9,4c0.5,2,0.4,3.9-1.7,7.2l-3.5,5.6L137.8,141.6z"/>
			<path class="st3" d="M138.1,134.8c-1.7-6.7,1-11.4,6-12.7c5-1.3,9.6,1.6,11.3,8.2c1.7,6.7-1,11.4-6,12.7
				C144.4,144.3,139.8,141.5,138.1,134.8z M150.7,131.6c-1.2-4.6-3.3-6.1-5.6-5.5s-3.4,2.9-2.3,7.5c1.2,4.6,3.3,6.1,5.6,5.5
				C150.7,138.5,151.8,136.2,150.7,131.6z"/>
			<path class="st3" d="M156.5,125c-0.8-3.3,0.4-6,3.1-6.6c2.7-0.7,5.1,1,6,4.3c0.9,3.3-0.5,6-3.1,6.6
				C159.8,130,157.4,128.3,156.5,125z M164.2,123c-0.7-2.6-2.3-3.9-4.2-3.4s-2.7,2.4-2,5s2.3,3.9,4.2,3.4
				C164,127.5,164.9,125.7,164.2,123z M171.9,115.4l1.7-0.4l-8.6,23.6l-1.7,0.4L171.9,115.4z M171.3,131.3c-0.8-3.3,0.5-6,3.1-6.6
				c2.7-0.7,5.1,1,6,4.3c0.8,3.3-0.4,6-3.1,6.6C174.6,136.3,172.2,134.6,171.3,131.3z M179,129.4c-0.7-2.6-2.3-3.9-4.2-3.4
				s-2.7,2.4-2,5c0.7,2.6,2.3,3.9,4.2,3.4S179.7,132,179,129.4z"/>
		</g>
		<g>
			<path class="st3" d="M327.2,204.8c0.1,4.1-3,8-10,8.1c-3.4,0.1-7-0.8-9.4-2.5l2.1-4.4c1.9,1.4,4.5,2.1,7,2.1
				c2.8,0,4.6-1.2,4.5-3.2c0-1.9-1.4-3-4.6-2.9h-2.6l-0.1-3.7l4.9-5.8l-10.4,0.2l-0.1-4.5l17.1-0.3l0.1,3.7l-5.4,6.4
				C324.9,198.5,327.2,201.2,327.2,204.8z"/>
			<path class="st3" d="M329.8,200c-0.1-8.1,4.3-12.7,10.3-12.8c6-0.1,10.6,4.4,10.7,12.5c0.1,8.1-4.2,12.7-10.3,12.8
				C334.5,212.6,329.9,208.1,329.8,200z M345,199.8c-0.1-5.6-2.1-7.8-4.9-7.8s-4.7,2.4-4.6,7.9c0.1,5.6,2.1,7.8,4.9,7.8
				C343.2,207.7,345.1,205.3,345,199.8z"/>
			<path class="st3" d="M353.5,193.8c-0.1-4,2.1-6.7,5.4-6.7c3.3-0.1,5.6,2.5,5.6,6.5c0.1,4-2.2,6.7-5.4,6.7
				C355.9,200.4,353.6,197.8,353.5,193.8z M362.8,193.7c-0.1-3.2-1.6-5-3.9-5s-3.7,2-3.7,5.1c0.1,3.1,1.6,5,3.9,5
				C361.4,198.8,362.9,196.9,362.8,193.7z M373.7,187h2.1l-16.3,24.8h-2.1L373.7,187z M368.7,205.1c-0.1-4,2.2-6.7,5.4-6.7
				c3.3-0.1,5.6,2.6,5.6,6.5c0.1,4-2.1,6.7-5.4,6.7C371.1,211.7,368.8,209.1,368.7,205.1z M378,205c-0.1-3.1-1.6-5-3.9-5
				s-3.7,2-3.7,5.1c0.1,3.2,1.6,5,3.9,5C376.6,210,378.1,208.1,378,205z"/>
		</g>
		<g>
			<path class="st6" d="M445.6,129.2c-0.5,3.1-3.2,5.5-8.2,4.7c-2.4-0.4-4.9-1.4-6.4-2.9l2.1-2.9c1.2,1.2,2.9,2.1,4.8,2.4
				c2,0.3,3.4-0.4,3.7-1.8c0.2-1.4-0.6-2.4-3.8-2.9l-4.5-0.7l2.4-9.8l10.8,1.6l-0.5,3.3l-7.4-1.1l-0.8,3.3l1.4,0.2
				C444.3,123.4,446.1,126.1,445.6,129.2z"/>
			<path class="st6" d="M447.7,126.2c0.9-5.8,4.6-8.6,9-8c4.4,0.7,7.1,4.5,6.2,10.3s-4.6,8.6-9,8C449.6,135.8,446.9,132,447.7,126.2
				z M458.8,127.9c0.6-4-0.5-5.9-2.6-6.2c-2-0.3-3.7,1.1-4.3,5.1c-0.6,4,0.5,5.9,2.6,6.2C456.5,133.3,458.1,131.9,458.8,127.9z"/>
			<path class="st6" d="M465.6,124.7c0.4-2.9,2.3-4.5,4.7-4.2c2.3,0.4,3.7,2.5,3.2,5.4c-0.4,2.9-2.4,4.5-4.7,4.2
				C466.5,129.7,465.1,127.5,465.6,124.7z M481,122.3l1.5,0.2l-14.7,15.8l-1.5-0.2L481,122.3z M472.3,125.7c0.4-2.3-0.5-3.8-2.2-4.1
				c-1.7-0.3-2.9,1-3.3,3.2c-0.3,2.3,0.5,3.8,2.2,4.1C470.6,129.2,471.9,128,472.3,125.7z M475.1,134.6c0.4-2.9,2.4-4.5,4.7-4.2
				c2.4,0.4,3.7,2.5,3.2,5.4c-0.4,2.9-2.3,4.5-4.7,4.2C476,139.7,474.7,137.5,475.1,134.6z M481.8,135.7c0.3-2.3-0.5-3.8-2.2-4.1
				c-1.6-0.2-2.9,0.9-3.3,3.2s0.5,3.8,2.2,4.1C480.2,139.2,481.5,137.9,481.8,135.7z"/>
		</g>
		<g>
			<path class="st6" d="M44.2,214.1l-3.7,15.6l-3.5-0.8l3-12.7l-3.1-0.7l0.7-2.9L44.2,214.1z"/>
			<path class="st6" d="M45.1,222.5c1.2-5.2,4.8-7.4,8.6-6.5c3.9,0.9,6,4.5,4.8,9.7s-4.7,7.4-8.6,6.5
				C46.1,231.3,43.9,227.7,45.1,222.5z M54.9,224.8c0.8-3.6-0.1-5.3-1.9-5.7c-1.8-0.4-3.4,0.8-4.2,4.3c-0.8,3.6,0.1,5.3,1.9,5.7
				C52.5,229.6,54.1,228.4,54.9,224.8z"/>
			<path class="st6" d="M75.2,221.3l1.3,0.3l-14.3,13.1l-1.3-0.3L75.2,221.3z M61.2,222.4c0.6-2.5,2.4-3.9,4.5-3.4
				c2.1,0.5,3.1,2.5,2.5,5.1s-2.4,3.9-4.5,3.4C61.7,227,60.6,225,61.2,222.4z M67.2,223.8c0.5-2-0.2-3.5-1.7-3.8s-2.7,0.7-3.2,2.7
				s0.2,3.5,1.7,3.8C65.4,226.8,66.7,225.9,67.2,223.8z M69.1,232c0.6-2.5,2.4-3.9,4.5-3.4s3.1,2.5,2.5,5.1
				c-0.6,2.5-2.4,3.9-4.5,3.4C69.5,236.6,68.5,234.6,69.1,232z M75,233.4c0.5-2-0.2-3.5-1.7-3.8s-2.7,0.6-3.2,2.7
				c-0.5,2,0.2,3.5,1.7,3.8S74.5,235.4,75,233.4z"/>
		</g>
	</g>
	<g id="Plant">
		<g>
			<g>
				<g>
					<path class="st7" d="M138.9,375.8c-17.4-17.8-44.7-25.3-68.7-18.9c20.9,14,44.4,21.5,69.6,21.7"/>
				</g>
			</g>
			<g>
				<g>
					<g>
						<path class="st7" d="M115.6,293.2c2.9-20.3-5-43-20.2-57.8C94.9,255.5,103.4,278.1,115.6,293.2"/>
					</g>
				</g>
				<g>
					<g>
						<path class="st7" d="M127.7,331.5C116.9,310.8,99.2,293.9,78,284c6.3,23.3,26.3,42.4,49.9,47.7"/>
					</g>
				</g>
				<g>
					<g>
						<path class="st7" d="M130.2,338.9c-12.2,0.3-24.6-0.1-36.4-3.2s-23.2-9.1-31-18.5c23.8,0,47.5,7.3,67.3,20.5"/>
					</g>
				</g>
				<g>
					<g>
						<path class="st7" d="M124,314.5c6.2-23.3,16.5-39.4,34.8-52.4c1.4,11.3-1.4,23.1-7.7,32.6S135,311.4,124,314.5"/>
					</g>
				</g>
				<g>
					<g>
						<path class="st7" d="M170.2,354.7c0.3-13.5-8.4-26.8-20.9-31.9C150.3,334.8,159.7,348.7,170.2,354.7"/>
					</g>
				</g>
				<g>
					<g>
						<path class="st7" d="M176,335.1c1.4-19.4,15.2-37.4,33.6-43.8C205.4,310.7,194.2,326.9,176,335.1"/>
					</g>
				</g>
				<g>
					<g>
						<path class="st7" d="M167.2,369.9c4.3-6.2,11.4-10,18.6-11.9c7.3-1.9,14.9-2.1,22.4-2.2c-10.2,11.2-25.4,17.5-40.5,16.9"/>
					</g>
				</g>
				<g>
					<g>
						<path class="st7" d="M158.5,419.5c13.6-4.2,28.7-3.1,41.5,3s23.3,17.1,28.6,30.3C203.2,447.9,178,436.6,158.5,419.5"/>
					</g>
				</g>
				<g>
					<g>
						<path class="st7" d="M130.5,402.2c4.2,12.5,3.4,27.6-6,38.4C120.7,427.8,123,413.3,130.5,402.2"/>
					</g>
				</g>
				<g>
					<g>
						<path class="st7" d="M114,395.3c-1.2,16.1-11.5,31.2-26,38.2c-0.7,0.3-1.6,0.7-2.3,0.4c-1.1-0.5-1.3-2-1.1-3.3
							C86.4,414.6,98.3,399.1,114,395.3"/>
					</g>
				</g>
				<g>
					<g>
						<path class="st7" d="M103.2,393.7c-7.2,7.7-17.6,12.3-28.1,12.4s-21-4.4-28.3-12.1C64.7,392,85.4,390.7,103.2,393.7"/>
					</g>
				</g>
				<g>
					<g>
						<g>
							<g>
								<path class="st8" d="M100.5,250.4c0,0,0,0.2,0.2,0.5c0.1,0.4,0.3,0.9,0.5,1.5c0.5,1.4,1.2,3.3,2.2,5.8
									c1,2.5,2.1,5.6,3.4,9.2c0.6,1.8,1.3,3.7,2.1,5.8c0.7,2,1.5,4.2,2.2,6.5c3.2,9.1,6.7,20,10.5,32.1
									c3.7,12.2,7.7,25.6,11.5,39.7c3.8,14.2,7.2,27.7,10.1,40.1c2.8,12.4,5.2,23.6,6.9,33.1c0.4,2.4,0.9,4.6,1.3,6.7
									c0.4,2.1,0.7,4.1,1,6c0.6,3.8,1.2,7,1.6,9.7c0.4,2.6,0.7,4.7,0.9,6.1c0.1,0.7,0.2,1.2,0.3,1.6s0.1,0.5,0.1,0.5s0-0.2,0-0.5
									c0-0.4-0.1-0.9-0.2-1.6c-0.2-1.4-0.5-3.5-0.8-6.1c-0.3-2.7-0.9-5.9-1.5-9.7c-0.3-1.9-0.6-3.9-1-6s-0.8-4.4-1.2-6.8
									c-1.7-9.5-4-20.7-6.8-33.1s-6.2-26-10-40.2c-3.9-14.2-7.8-27.6-11.6-39.7c-3.8-12.1-7.4-23-10.7-32.1
									c-0.8-2.3-1.6-4.4-2.3-6.5c-0.8-2-1.5-3.9-2.1-5.7c-1.3-3.6-2.5-6.7-3.5-9.2s-1.7-4.4-2.3-5.8c-0.3-0.6-0.5-1.1-0.6-1.5
									C100.6,250.5,100.5,250.4,100.5,250.4z"/>
							</g>
						</g>
					</g>
					<g>
						<g>
							<g>
								<path class="st8" d="M199,301.6c0,0-0.1,0.1-0.3,0.3c-0.2,0.2-0.5,0.5-0.9,0.9c-0.7,0.8-1.8,2-3.2,3.6
									c-2.7,3.1-6.5,7.8-10.6,14.1c-4,6.2-8.2,14.2-11,23.6c-3,9.4-4.8,20.1-6.6,31.2c-3.6,22.4-8.1,42.4-11.4,56.9
									c-1.6,7.2-3,13-3.9,17.1c-0.4,2-0.8,3.6-1,4.7c-0.1,0.5-0.2,0.9-0.3,1.2c-0.1,0.3-0.1,0.4-0.1,0.4s0.1-0.1,0.1-0.4
									c0.1-0.3,0.2-0.7,0.3-1.2c0.3-1.1,0.7-2.7,1.2-4.6c1-4.1,2.4-9.9,4.1-17.1c3.4-14.5,7.9-34.5,11.6-56.8
									c1.8-11.2,3.6-21.8,6.5-31.2c2.8-9.4,6.9-17.3,10.8-23.5c4-6.3,7.7-11,10.3-14.2c1.3-1.6,2.4-2.8,3.1-3.6
									c0.3-0.4,0.6-0.7,0.8-0.9C198.9,301.8,199,301.7,199,301.6z"/>
							</g>
						</g>
					</g>
					<g>
						<g>
							<g>
								<path class="st8" d="M97.8,392.9c0,0,0.2,0.1,0.6,0.1c0.5,0.1,1.1,0.1,1.9,0.2c0.4,0,0.9,0.1,1.3,0.1c0.5,0.1,1,0.2,1.6,0.2
									c1.1,0.2,2.4,0.3,3.8,0.6c0.7,0.1,1.5,0.3,2.2,0.4c0.8,0.2,1.6,0.4,2.4,0.6c1.7,0.4,3.4,1,5.2,1.5c3.6,1.3,7.5,2.9,11.4,5
									s7.3,4.6,10.2,7.1c1.4,1.3,2.8,2.5,3.9,3.7c1.2,1.2,2.2,2.4,3.1,3.6c1,1.1,1.6,2.2,2.3,3.2c0.7,0.9,1.2,1.8,1.6,2.5
									c0.4,0.6,0.7,1.2,1,1.6c0.2,0.4,0.4,0.6,0.4,0.5c0,0-0.1-0.2-0.3-0.6c-0.2-0.5-0.5-1-0.8-1.7c-0.4-0.7-0.8-1.6-1.5-2.6
									c-0.6-1-1.3-2.1-2.2-3.2c-0.9-1.2-1.9-2.4-3.1-3.7c-1.1-1.3-2.5-2.5-3.9-3.8c-2.9-2.5-6.4-5-10.3-7.2
									c-3.9-2.1-7.8-3.8-11.5-5c-1.8-0.5-3.6-1.1-5.3-1.5c-0.8-0.2-1.6-0.4-2.4-0.6c-0.8-0.1-1.5-0.3-2.2-0.4
									c-1.4-0.3-2.7-0.4-3.9-0.6c-0.6-0.1-1.1-0.1-1.6-0.2c-0.5,0-0.9-0.1-1.4-0.1c-0.7,0-1.4-0.1-1.9-0.1
									C98.1,392.9,97.8,392.9,97.8,392.9z"/>
							</g>
						</g>
					</g>
				</g>
				<g>
					<g>
						<g>
							<path class="st8" d="M92.7,302.1c0,0,0.4,0.5,1.3,1.2c1,0.8,2.2,1.9,3.7,3.2c3.1,2.7,7.5,6.3,12.3,10.4
								c4.8,4,9.3,7.6,12.5,10.2c1.5,1.2,2.8,2.2,3.8,3c0.9,0.7,1.4,1.1,1.5,1c0,0-0.4-0.5-1.3-1.2c-1-0.8-2.2-1.9-3.7-3.2
								c-3.1-2.7-7.5-6.3-12.3-10.4c-4.8-4-9.2-7.6-12.5-10.2c-1.5-1.2-2.8-2.2-3.8-3C93.3,302.4,92.8,302,92.7,302.1z"/>
						</g>
					</g>
				</g>
				<g>
					<g>
						<g>
							<path class="st8" d="M88.3,325.8c-0.1,0.2,9.4,3.1,21,6.6c11.7,3.4,21.2,6.1,21.2,5.9c0.1-0.2-9.4-3.1-21-6.6
								C97.9,328.3,88.4,325.6,88.3,325.8z"/>
						</g>
					</g>
				</g>
				<g>
					<g>
						<g>
							<path class="st8" d="M123.1,316.3c0,0,0.4-0.5,1-1.4c0.7-1,1.5-2.3,2.5-3.8c2.1-3.2,5.1-7.5,8.6-12.2
								c3.5-4.6,6.9-8.6,9.5-11.5c1.2-1.4,2.2-2.5,3-3.4c0.7-0.8,1.1-1.3,1-1.3c0,0-0.5,0.4-1.2,1.1c-0.8,0.7-1.8,1.9-3.1,3.3
								c-2.6,2.8-6.1,6.8-9.6,11.4c-3.5,4.6-6.5,9-8.5,12.3c-1,1.6-1.8,3-2.3,3.9C123.3,315.8,123,316.3,123.1,316.3z"/>
						</g>
					</g>
				</g>
				<g>
					<g>
						<g>
							<path class="st8" d="M155.8,329.5c-0.1,0.1,0.8,1.4,2.2,3.6s3.3,5.3,5.3,8.8s3.6,6.7,4.8,9s1.9,3.8,2,3.8s-0.5-1.6-1.6-4
								s-2.7-5.7-4.7-9.2s-4-6.5-5.5-8.7C156.9,330.7,155.8,329.5,155.8,329.5z"/>
						</g>
					</g>
				</g>
				<g>
					<g>
						<g>
							<path class="st8" d="M166.9,370.5c0,0.1,1.8-0.8,4.8-2.1c2.9-1.3,7-3.1,11.7-4.7c4.6-1.6,8.9-2.8,12-3.6
								c3.1-0.8,5.1-1.2,5.1-1.3c0,0-0.5,0-1.4,0.1s-2.2,0.4-3.8,0.7c-3.2,0.7-7.5,1.8-12.2,3.5c-4.7,1.6-8.8,3.4-11.7,4.9
								c-1.4,0.7-2.6,1.3-3.4,1.8C167.3,370.2,166.9,370.5,166.9,370.5z"/>
						</g>
					</g>
				</g>
				<g>
					<g>
						<g>
							<path class="st8" d="M158.1,419.6c0,0,0.2,0.1,0.6,0.2c0.5,0.1,1,0.3,1.7,0.4c1.6,0.4,3.7,0.9,6.3,1.4
								c5.3,1.2,12.6,2.8,20.4,5.4c7.8,2.7,14.5,6,19.1,9c2.3,1.5,4.1,2.7,5.3,3.7c1.2,0.9,1.9,1.4,1.9,1.4s-0.1-0.2-0.4-0.4
								c-0.3-0.3-0.7-0.7-1.3-1.2c-1.2-1-2.9-2.3-5.2-3.9c-4.5-3-11.2-6.5-19.1-9.2c-7.9-2.7-15.3-4.1-20.6-5.2
								c-2.6-0.5-4.7-0.9-6.3-1.2C159,419.7,158.2,419.5,158.1,419.6z"/>
						</g>
					</g>
				</g>
				<g>
					<g>
						<g>
							<path class="st8" d="M126.3,431.7c0.2,0,1.3-6.6,2.5-14.7c1.2-8.2,2-14.8,1.8-14.8s-1.3,6.6-2.5,14.7
								C126.9,425,126.1,431.6,126.3,431.7z"/>
						</g>
					</g>
				</g>
				<g>
					<g>
						<g>
							<path class="st8" d="M93.2,419.6c0.1,0.1,1.2-1.3,3-3.5s4.3-5.3,7.1-8.6c2.8-3.3,5.4-6.3,7.3-8.5c1.9-2.1,3.1-3.5,3-3.6
								c0,0-0.4,0.3-0.9,0.8c-0.6,0.6-1.4,1.4-2.4,2.4c-2,2.1-4.6,5-7.5,8.3c-2.8,3.3-5.2,6.5-6.9,8.8c-0.8,1.2-1.5,2.1-2,2.8
								C93.4,419.2,93.1,419.6,93.2,419.6z"/>
						</g>
					</g>
				</g>
			</g>
			<g>
				<g>
					<polygon class="st9" points="180.9,450.4 180.9,466.7 176.8,466.7 162.2,512.7 129.9,512.7 115.8,467.2 110.4,466.7 
						110.4,450.4 					"/>
				</g>
			</g>
			<g>
				<g>
					<g>
						<path class="st8" d="M113.1,467.2c0,0.2,14.3,0.3,31.8,0.3c17.6,0,31.8-0.2,31.8-0.3c0-0.2-14.3-0.3-31.8-0.3
							S113.1,467,113.1,467.2z"/>
					</g>
				</g>
			</g>
			<g>
				<g>
					<g>
						<path class="st8" d="M89.9,361.8c0,0,0.7,0.2,2.1,0.6c1.5,0.4,3.4,0.8,5.7,1.4c4.8,1.2,11.3,3,18.4,5.4s13.4,4.9,17.9,6.9
							c2.2,0.9,4,1.7,5.3,2.3c1.3,0.6,2,0.8,2,0.8s-0.6-0.4-1.9-1c-1.2-0.6-3-1.5-5.3-2.5c-4.5-2.1-10.8-4.7-17.9-7.1
							s-13.7-4.1-18.6-5.2c-2.4-0.5-4.4-0.9-5.7-1.2C90.7,361.9,89.9,361.8,89.9,361.8z"/>
					</g>
				</g>
			</g>
			<g>
				<g>
					<g>
						<path class="st5" d="M123.8,492.7c0,0.2,10,0.3,22.3,0.3s22.3-0.2,22.3-0.3s-10-0.3-22.3-0.3S123.8,492.5,123.8,492.7z"/>
					</g>
				</g>
			</g>
			<g>
				<g>
					<g>
						<path class="st5" d="M122.6,488.9c0,0.2,10.6,0.3,23.7,0.3s23.7-0.2,23.7-0.3c0-0.2-10.6-0.3-23.7-0.3
							C133.2,488.6,122.6,488.7,122.6,488.9z"/>
					</g>
				</g>
			</g>
		</g>
	</g>
	<g id="Label">
		<g>
			<g>
				<g>
					<path class="st7" d="M663.1,386.7l-66.7-74.9c-5.3-6-12.9-9.4-20.9-9.5L356,300.7c-15.7-0.1-28.5,12.6-28.4,28.3l0.4,155.4
						c0,15.6,12.7,28.2,28.3,28.2l218.7-0.9c8.2,0,16-3.6,21.3-9.8l67.1-78C672.7,413.1,672.5,397.2,663.1,386.7z M626.1,413.6
						c-4.8,11.9-18.4,17.6-30.3,12.8c-11.9-4.8-17.6-18.4-12.8-30.3s18.4-17.6,30.3-12.8C625.2,388.1,630.9,401.7,626.1,413.6z"/>
				</g>
				<g class="st10">
					<path d="M663.1,386.7l-66.7-74.9c-5.3-6-12.9-9.4-20.9-9.5L356,300.7c-15.7-0.1-28.5,12.6-28.4,28.3l0.4,155.4
						c0,15.6,12.7,28.2,28.3,28.2l218.7-0.9c8.2,0,16-3.6,21.3-9.8l67.1-78C672.7,413.1,672.5,397.2,663.1,386.7z M626.1,413.6
						c-4.8,11.9-18.4,17.6-30.3,12.8c-11.9-4.8-17.6-18.4-12.8-30.3s18.4-17.6,30.3-12.8C625.2,388.1,630.9,401.7,626.1,413.6z"/>
				</g>
			</g>
			<g>
				<path class="st7" d="M674.7,386.7L608,311.8c-5.3-6-12.9-9.4-20.9-9.5l-219.5-1.6c-15.7-0.1-28.5,12.6-28.4,28.3l0.4,155.4
					c0,15.6,12.7,28.2,28.3,28.2l218.7-0.9c8.2,0,16-3.6,21.3-9.8l67.1-78C684.2,413.1,684.1,397.2,674.7,386.7z M637.6,413.6
					c-4.8,11.9-18.4,17.6-30.3,12.8c-11.9-4.8-17.6-18.4-12.8-30.3s18.4-17.6,30.3-12.8C636.7,388.1,642.4,401.7,637.6,413.6z"/>
			</g>
			<g>
				<path class="st0" d="M489.1,387.2c0.1-14.2,8.9-23.1,21.2-23s20.7,9.1,20.6,23.4s-8.8,23.1-21,23
					C497.5,410.5,489,401.4,489.1,387.2z M518.8,387.5c0.1-9-3.4-13.4-8.7-13.4c-5.2,0-8.8,4.4-8.9,13.3s3.5,13.4,8.7,13.4
					C515.2,400.8,518.7,396.5,518.8,387.5z M560.4,365.6l14.3,0.1l-58.3,83.7l-14.3-0.1L560.4,365.6z M546,427.4
					c0.1-14.2,8.9-23.1,21-23c12.3,0.1,20.9,9.2,20.7,23.4c-0.1,14.2-8.9,23.1-21.2,23C554.4,450.7,545.9,441.6,546,427.4z
					 M575.6,427.7c0.1-8.9-3.4-13.4-8.7-13.4c-5.2,0-8.8,4.2-8.9,13.3c-0.1,9,3.5,13.4,8.7,13.4C572,441,575.5,436.6,575.6,427.7z"
					/>
			</g>
			<g>
				<g>
					<path class="st8" d="M667.4,432.9c0.1-0.1,0.8,0.5,2.2,1.6s3.4,2.7,5.9,4.9c2.5,2.2,5.6,4.8,9.1,8.1c3.5,3.2,7.3,7,11.3,11.5
						s8.2,9.6,11.9,15.6c0.5,0.8,0.9,1.5,1.4,2.3c0.4,0.8,0.9,1.6,1.3,2.4c0.9,1.6,1.8,3.3,2.5,5c1.5,3.5,2.8,7.3,2.9,11.5
						c0.1,2.1-0.2,4.2-0.9,6.3c-0.7,2.1-1.8,4-3.3,5.7c-2.9,3.3-7,5.6-11.4,6.5c-4.4,1-9.1,0.7-13.5-0.3c-4.5-1-8.7-2.7-12.9-4.7
						c-8.3-4.1-15.4-9.8-21.5-16c-3-3.1-5.8-6.4-8.3-9.7c-2.5-3.3-4.9-6.6-7.2-9.8c-9-13-16-25.5-20.4-36.7
						c-1.1-2.8-2.1-5.5-2.9-8.1c-0.4-1.3-0.8-2.6-1.1-3.8c-0.3-1.3-0.6-2.4-0.7-3.7c-0.3-2.5,0.3-5,1.6-6.7c1.3-1.8,3.1-2.8,4.7-3.3
						c0.8-0.3,1.6-0.4,2.4-0.6c0.8,0,1.5-0.1,2.1,0c1.3,0,2.4,0.4,3.3,0.7c0.8,0.4,1.4,0.7,1.7,1.1c0.3,0.3,0.5,0.5,0.5,0.5
						s-0.2-0.1-0.6-0.3c-0.4-0.3-1-0.5-1.8-0.8c-0.8-0.2-1.9-0.5-3.1-0.4c-0.6,0-1.3,0.1-2,0.2c-0.7,0.2-1.4,0.3-2.2,0.6
						c-1.5,0.6-3,1.5-4.1,3.1c-1.1,1.5-1.5,3.6-1.2,5.8c0.1,1.1,0.5,2.3,0.8,3.5s0.7,2.4,1.2,3.7c0.9,2.5,1.9,5.1,3,7.9
						c4.5,10.9,11.6,23.2,20.7,36c2.3,3.2,4.7,6.4,7.2,9.7c2.5,3.2,5.2,6.4,8.2,9.4c5.9,6,12.8,11.5,20.8,15.5c4,2,8.1,3.6,12.3,4.5
						c4.2,1,8.4,1.2,12.4,0.4c3.9-0.8,7.6-2.8,10.1-5.7c2.6-2.8,3.8-6.6,3.7-10.3c-0.1-3.7-1.2-7.3-2.6-10.7
						c-0.7-1.7-1.5-3.3-2.4-4.8c-0.4-0.8-0.9-1.6-1.3-2.3c-0.5-0.8-0.9-1.5-1.4-2.2c-3.6-5.9-7.6-11-11.5-15.5s-7.6-8.3-11-11.6
						c-3.4-3.3-6.3-6.1-8.7-8.4s-4.3-4-5.6-5.3C668,433.6,667.3,433,667.4,432.9z"/>
				</g>
			</g>
			<g>
				<g>
					<g>
						<path class="st8" d="M563.2,277.7c-0.1,0-2.9-19.6-6.3-43.7c-3.3-24.2-5.9-43.8-5.7-43.8c0.1,0,2.9,19.5,6.3,43.7
							C560.8,258.1,563.4,277.7,563.2,277.7z"/>
					</g>
				</g>
				<g>
					<g>
						<path class="st8" d="M645.7,170.7c0,0,0,0.1-0.1,0.3s-0.2,0.5-0.3,0.9c-0.3,0.8-0.7,1.9-1.3,3.3c-1.1,2.9-2.8,7.1-4.8,12.2
							c-4,10.3-9.5,24.6-15.3,40.5s-10.9,30.3-14.5,40.8c-1.8,5.2-3.2,9.4-4.3,12.4c-0.5,1.4-0.9,2.6-1.2,3.4
							c-0.1,0.4-0.2,0.6-0.3,0.9c-0.1,0.2-0.1,0.3-0.1,0.3s0-0.1,0.1-0.3c0.1-0.2,0.2-0.5,0.3-0.9c0.3-0.8,0.6-1.9,1.1-3.4
							c0.9-3,2.3-7.2,4.1-12.5c3.5-10.5,8.5-25,14.3-40.8c5.8-15.9,11.3-30.1,15.4-40.4c2.1-5.1,3.7-9.3,4.9-12.2
							c0.6-1.4,1-2.5,1.4-3.3c0.2-0.4,0.3-0.6,0.4-0.9C645.6,170.8,645.7,170.7,645.7,170.7z"/>
					</g>
				</g>
				<g>
					<g>
						<path class="st8" d="M704.8,247.6c0.1,0.1-14.2,11.3-32,25c-17.7,13.7-32.2,24.7-32.3,24.6c-0.1-0.1,14.2-11.3,32-25
							C690.2,258.5,704.7,247.5,704.8,247.6z"/>
					</g>
				</g>
				<g>
					<g>
						<path class="st8" d="M528.5,281.3c-0.1,0.1-5.6-7-12.4-15.8c-6.7-8.8-12.1-16-11.9-16.1s5.6,7,12.4,15.8
							C523.3,274.1,528.6,281.3,528.5,281.3z"/>
					</g>
				</g>
				<g>
					<g>
						<path class="st8" d="M698,336.5c0,0.1-8.8-2.3-19.6-5.4s-19.5-5.8-19.4-5.9c0-0.1,8.8,2.3,19.6,5.4
							C689.3,333.7,698,336.3,698,336.5z"/>
					</g>
				</g>
			</g>
			<text transform="matrix(1 0 0 1 347.7485 468.6074)" class="st0 st11 st12">10</text>
		</g>
		<g>
			<polygon class="st0" points="545,336.1 551.5,332.4 554.9,325.7 558.7,332.2 565.3,335.7 558.8,339.4 555.4,346.1 551.6,339.6 
							"/>
		</g>
		<g>
			<polygon class="st0" points="509.9,325.8 512.1,324.5 513.3,322.2 514.6,324.5 517,325.7 514.7,327 513.5,329.3 512.2,327 			"/>
		</g>
		<g>
			<polygon class="st0" points="532.3,371.8 536.7,369.2 539,364.7 541.6,369.1 546.1,371.4 541.7,374 539.3,378.5 536.8,374.1 			
				"/>
		</g>
	</g>
	<g id="Floor">
		<g>
			<g>
				<path class="st8" d="M716.8,512.7c0,0.1-154.2,0.3-344.5,0.3s-344.5-0.1-344.5-0.3c0-0.2,154.2-0.3,344.5-0.3
					S716.8,512.5,716.8,512.7z"/>
			</g>
		</g>
	</g>
	<g id="Character">
		<g>
			<g>
				<g>
					<g>
						<g>
							<g>
								<g>
									<g>
										<g>
											<path class="st9" d="M228.7,495c0,0-41.8,11.6-43.4,12.1c-2.5,0.9-2.1,10.1,1.8,10c1.9-0.1,32.1,1.1,35.9,0.9
												c3.8-0.2,14.1-4.3,14.1-4.3L228.7,495z"/>
										</g>
									</g>
								</g>
							</g>
						</g>
					</g>
					<g>
						<g>
							<g>
								<g>
									<g>
										<g>
											<g>
												<path class="st8" d="M211.3,510.9c-0.2,0-0.5-2.2-1.8-4.5s-3.1-3.7-3-3.8c0.1-0.2,2.1,1,3.6,3.5
													C211.5,508.5,211.5,510.9,211.3,510.9z"/>
											</g>
										</g>
									</g>
								</g>
							</g>
						</g>
					</g>
					<g>
						<g>
							<g>
								<g>
									<g>
										<g>
											<g>
												<path class="st8" d="M215.7,508.9c-0.2,0-0.6-1.9-1.7-4.1c-1.1-2.2-2.4-3.7-2.3-3.9c0.1-0.1,1.7,1.2,2.9,3.5
													C215.7,506.8,215.8,508.9,215.7,508.9z"/>
											</g>
										</g>
									</g>
								</g>
							</g>
						</g>
					</g>
					<g>
						<g>
							<g>
								<g>
									<g>
										<g>
											<g>
												<path class="st8" d="M219.8,507.8c-0.2,0-0.1-2.1-1-4.4s-2.4-3.8-2.3-3.9c0.1-0.2,2,1.1,2.9,3.7
													C220.4,505.7,219.9,507.9,219.8,507.8z"/>
											</g>
										</g>
									</g>
								</g>
							</g>
						</g>
					</g>
					<g>
						<g>
							<g>
								<g>
									<g>
										<g>
											<g>
												<path class="st8" d="M219,502.4c-0.1,0-0.4-1.1-0.4-3.1c0-1,0.1-2.1,0.4-3.4c0.2-0.6,0.4-1.3,0.6-1.9
													c0.1-0.3,0.3-0.7,0.7-1s1.1-0.3,1.4,0.1c0.4,0.3,0.5,0.8,0.6,1.2c0,0.4,0.1,0.7,0.1,1.1c0,0.7-0.1,1.4-0.3,2
													c-0.3,1.3-0.8,2.3-1.3,3.2c-1,1.7-1.8,2.6-1.9,2.5c-0.1-0.1,0.6-1,1.4-2.7c0.4-0.9,0.8-1.9,1.1-3.1
													c0.1-0.6,0.2-1.2,0.2-1.9c0-0.6,0-1.4-0.4-1.8c-0.2-0.2-0.4-0.2-0.6,0c-0.2,0.1-0.3,0.4-0.5,0.7
													c-0.3,0.6-0.5,1.2-0.6,1.8c-0.3,1.2-0.5,2.3-0.6,3.3C218.9,501.2,219.1,502.4,219,502.4z"/>
											</g>
										</g>
									</g>
								</g>
							</g>
						</g>
					</g>
					<g>
						<g>
							<g>
								<g>
									<g>
										<g>
											<g>
												<path class="st8" d="M219.1,502c0-0.1,1-0.4,2.7-0.4c0.8,0,1.9,0.1,3,0.4c0.5,0.1,1.1,0.3,1.7,0.6
													c0.6,0.3,1.2,1.1,0.9,1.9c-0.2,0.8-0.8,1.3-1.5,1.5s-1.3,0.1-1.9,0c-1.1-0.3-2-0.8-2.7-1.3c-1.3-1-2-1.9-1.9-1.9
													c0.1-0.1,0.9,0.6,2.2,1.5c0.7,0.4,1.5,0.9,2.6,1.1c0.5,0.1,1.1,0.1,1.5,0c0.5-0.1,0.9-0.5,1-1s-0.2-0.9-0.6-1.2
													c-0.4-0.3-1-0.4-1.5-0.6c-1-0.3-2-0.4-2.8-0.5C220.1,502,219.1,502.1,219.1,502z"/>
											</g>
										</g>
									</g>
								</g>
							</g>
						</g>
					</g>
					<g>
						<g>
							<g>
								<g>
									<g>
										<g>
											<g>
												<path class="st8" d="M204.9,511.3c-0.2,0,0-1.8-0.8-3.8s-2.2-3.1-2-3.3c0.1-0.2,1.8,0.8,2.7,3
													C205.6,509.5,205.1,511.4,204.9,511.3z"/>
											</g>
										</g>
									</g>
								</g>
							</g>
						</g>
					</g>
					<g>
						<g>
							<g>
								<g>
									<g>
										<g>
											<g>
												<path class="st8" d="M234,513.3c0,0-0.6,0.3-1.6,0.8c-1.1,0.4-2.6,1-4.6,1.4c-4,1-9.7,1.6-15.9,1.5
													c-6.3-0.1-11.9-0.4-16-0.5c-1.9-0.1-3.6-0.2-4.8-0.3c-1.1-0.1-1.8-0.1-1.8-0.2c0,0,0.6-0.1,1.8-0.1c1.3,0,2.9,0,4.8,0
													c4.2,0.1,9.8,0.2,16,0.3c6.2,0.1,11.9-0.4,15.8-1.3C231.7,514.2,234,513.1,234,513.3z"/>
											</g>
										</g>
									</g>
								</g>
							</g>
						</g>
					</g>
					<g>
						<g>
							<g>
								<g>
									<g>
										<g>
											<g>
												<path class="st8" d="M235.3,514.2c-0.1,0.1-1.2-0.6-3.1-1.4c-1.9-0.8-4.8-1.8-7.9-1.3c-3.1,0.5-5.4,2.6-6.8,4.1
													c-1.5,1.5-2.3,2.5-2.4,2.5c-0.1-0.1,0.6-1.2,2-2.8c0.7-0.8,1.6-1.7,2.8-2.6c1.2-0.9,2.6-1.6,4.3-1.8
													c3.4-0.5,6.3,0.6,8.2,1.6C234.3,513.3,235.3,514.2,235.3,514.2z"/>
											</g>
										</g>
									</g>
								</g>
							</g>
						</g>
					</g>
				</g>
				<g>
					<g>
						<g>
							<g>
								<path class="st8" d="M193.4,516c-0.1-0.1,0.3-0.6,0.6-1.6s0.6-2.4,0.3-3.9s-1-2.8-1.7-3.6c-0.7-0.8-1.2-1.2-1.1-1.3
									c0-0.1,0.7,0.2,1.4,1c0.8,0.8,1.6,2.1,1.9,3.7c0.3,1.7,0,3.2-0.5,4.2C193.9,515.6,193.4,516.1,193.4,516z"/>
							</g>
						</g>
					</g>
				</g>
			</g>
			<g>
				<g>
					<g>
						<g>
							<g>
								<g>
									<g>
										<path class="st9" d="M272.3,496.2c0,0,42.8,6.5,44.6,6.9c2.6,0.6,3.3,9.8-0.6,10.1c-1.8,0.2-31.7,4.9-35.5,5.1
											s-15.8-2.9-15.8-2.9L272.3,496.2z"/>
									</g>
								</g>
							</g>
						</g>
					</g>
				</g>
				<g>
					<g>
						<g>
							<g>
								<g>
									<g>
										<g>
											<path class="st8" d="M291.5,510c0.2,0,0.2-2.2,1.3-4.7c1-2.5,2.6-4,2.5-4.2s-2,1.3-3.1,3.9
												C291,507.6,291.3,510,291.5,510z"/>
										</g>
									</g>
								</g>
							</g>
						</g>
					</g>
				</g>
				<g>
					<g>
						<g>
							<g>
								<g>
									<g>
										<g>
											<path class="st8" d="M286.9,508.5c0.2,0,0.4-2,1.2-4.3c0.8-2.3,2-4,1.8-4.1c-0.1-0.1-1.6,1.4-2.5,3.9
												C286.6,506.4,286.7,508.5,286.9,508.5z"/>
										</g>
									</g>
								</g>
							</g>
						</g>
					</g>
				</g>
				<g>
					<g>
						<g>
							<g>
								<g>
									<g>
										<g>
											<path class="st8" d="M282.7,507.9c0.2,0-0.2-2.1,0.4-4.5s2-4,1.8-4.1c-0.1-0.1-1.8,1.4-2.5,4
												C281.8,505.8,282.5,508,282.7,507.9z"/>
										</g>
									</g>
								</g>
							</g>
						</g>
					</g>
				</g>
				<g>
					<g>
						<g>
							<g>
								<g>
									<g>
										<g>
											<path class="st8" d="M282.8,502.5c0.1,0,0.3-1.2,0.1-3.1c-0.1-1-0.4-2.1-0.8-3.3c-0.2-0.6-0.5-1.2-0.8-1.9
												c-0.2-0.3-0.4-0.7-0.8-0.9c-0.4-0.3-1.1-0.1-1.4,0.2c-0.3,0.4-0.4,0.9-0.4,1.2c0,0.4,0,0.7,0.1,1.1
												c0.1,0.7,0.3,1.4,0.5,2c0.5,1.2,1.1,2.2,1.7,3c1.2,1.6,2.1,2.3,2.2,2.3c0.1-0.1-0.7-1-1.8-2.6c-0.5-0.8-1.1-1.8-1.5-3
												c-0.2-0.6-0.3-1.2-0.4-1.9c-0.1-0.6-0.2-1.4,0.2-1.8c0.2-0.2,0.4-0.2,0.5-0.1c0.2,0.1,0.4,0.4,0.5,0.7
												c0.3,0.6,0.6,1.2,0.8,1.8c0.5,1.2,0.8,2.2,0.9,3.2C282.7,501.3,282.7,502.5,282.8,502.5z"/>
										</g>
									</g>
								</g>
							</g>
						</g>
					</g>
				</g>
				<g>
					<g>
						<g>
							<g>
								<g>
									<g>
										<g>
											<path class="st8" d="M282.7,502c0-0.1-1-0.3-2.7-0.1c-0.8,0.1-1.8,0.3-2.9,0.7c-0.5,0.2-1.1,0.4-1.6,0.8s-1,1.2-0.7,2
												c0.3,0.7,1,1.2,1.7,1.3c0.7,0.1,1.3,0,1.9-0.2c1.1-0.4,1.9-1.1,2.5-1.6c1.2-1.2,1.8-2.1,1.7-2.1c-0.1-0.1-0.8,0.7-2,1.8
												c-0.6,0.5-1.4,1.1-2.4,1.4c-0.5,0.2-1,0.3-1.5,0.2c-0.5-0.1-1-0.4-1.1-0.9c-0.2-0.4,0.1-0.9,0.5-1.2
												c0.4-0.3,0.9-0.6,1.4-0.8c1-0.4,1.9-0.7,2.7-0.8C281.7,502.1,282.7,502.2,282.7,502z"/>
										</g>
									</g>
								</g>
							</g>
						</g>
					</g>
				</g>
				<g>
					<g>
						<g>
							<g>
								<g>
									<g>
										<g>
											<path class="st8" d="M297.9,509.6c0.2,0-0.2-1.8,0.4-3.8c0.5-2.1,1.8-3.3,1.6-3.5c-0.1-0.2-1.7,1-2.3,3.3
												C296.9,507.9,297.7,509.7,297.9,509.6z"/>
										</g>
									</g>
								</g>
							</g>
						</g>
					</g>
				</g>
				<g>
					<g>
						<g>
							<g>
								<g>
									<g>
										<g>
											<path class="st8" d="M269.2,515c0,0,0.6,0.2,1.7,0.6c1.1,0.3,2.7,0.7,4.8,0.9c4.1,0.5,9.8,0.4,16-0.4s11.8-1.8,15.8-2.4
												c1.9-0.3,3.5-0.6,4.8-0.8c1.1-0.2,1.7-0.4,1.7-0.4s-0.6,0-1.8,0.1c-1.3,0.2-2.9,0.4-4.8,0.6c-4.2,0.6-9.7,1.4-15.8,2.2
												c-6.2,0.8-11.8,1-15.9,0.6C271.6,515.6,269.2,514.9,269.2,515z"/>
										</g>
									</g>
								</g>
							</g>
						</g>
					</g>
				</g>
				<g>
					<g>
						<g>
							<g>
								<g>
									<g>
										<g>
											<path class="st8" d="M268.1,516.1c0.1,0.1,1.1-0.7,2.9-1.8c1.8-1,4.5-2.4,7.7-2.2c3.2,0.1,5.6,1.9,7.3,3.2
												c1.6,1.3,2.6,2.2,2.7,2.2c0.1-0.1-0.8-1.1-2.4-2.5c-0.8-0.7-1.8-1.5-3.1-2.2c-1.2-0.7-2.8-1.2-4.5-1.3
												c-3.4-0.1-6.2,1.4-8,2.5C269,515.1,268,516,268.1,516.1z"/>
										</g>
									</g>
								</g>
							</g>
						</g>
					</g>
				</g>
			</g>
			<g>
				<g>
					<g>
						<g>
							<path class="st13" d="M405.5,320.2c-0.3-0.8-1.3-1.2-1.3-1.2l1-2c0,0-0.1-1.2-0.6-2.1c-0.5-0.9-2.2-0.8-2.2-0.8l0.3-0.6
								c0.4-0.8,0.3-1.8-0.2-2.5c-0.1-0.1-0.2-0.2-0.3-0.3c-0.7-0.9-2.2-1.1-2.2-1.1s1-1.9,0.6-2.7c-0.6-1.1-2.7-2.2-4.3-1.7
								c-1.7,0.6-5.3,2.3-7.8,3.7c-1,0.5-2.2,0.1-2.6-1c-0.7-2-2.1-5-3.8-7.1c-1.9-2.3-3.6-2.1-4.7-1.7c-0.5,0.2-0.7,0.8-0.4,1.2
								c0.8,1.3,2.3,3.9,2.7,5c0.5,1.3,1,11.2,1,11.2l-2.7,5.1l-27.3,43.1c0,0-41.1-27.7-41-28.4l-1.9,31.8l31,20.6
								c5.4,3.6,12.1,4.6,18.3,2.7c6.2-1.8,11.2-6.3,13.8-12.2l20.9-45.3l2.5-3.7l9.8-6.3C404.3,323.8,405.9,321,405.5,320.2z"/>
						</g>
					</g>
					<g>
						<g>
							<g>
								<path class="st14" d="M401,309.6c0,0-0.1,0.1-0.2,0.2c-0.2,0.1-0.4,0.3-0.6,0.5c-0.5,0.4-1.3,1-2.2,1.7
									c-0.9,0.7-2.1,1.6-3.3,2.5c-0.6,0.5-1.2,1-2,1.4c-0.7,0.4-1.7,0.7-2.6,0.3c-0.4-0.2-0.8-0.6-1-1s-0.3-0.9-0.2-1.3
									c0-0.9,0.5-1.7,1-2.2c0.5-0.6,1.1-1.1,1.6-1.5s1-0.9,1.5-1.2c0.9-0.7,1.6-1.3,2.2-1.8c0.2-0.2,0.4-0.3,0.6-0.5
									c0.1-0.1,0.2-0.2,0.2-0.2s-0.1,0.1-0.2,0.2c-0.1,0.1-0.3,0.3-0.6,0.5c-0.5,0.5-1.2,1.1-2.1,1.8c-0.4,0.4-0.9,0.8-1.5,1.3
									c-0.5,0.5-1.1,0.9-1.6,1.5s-0.9,1.3-1,2.1c-0.1,0.8,0.3,1.7,1.1,2.1c0.4,0.2,0.8,0.2,1.2,0.1c0.4-0.1,0.8-0.2,1.2-0.4
									c0.7-0.4,1.3-1,2-1.4c1.2-0.9,2.4-1.8,3.3-2.5c0.9-0.7,1.7-1.2,2.2-1.6c0.2-0.2,0.5-0.3,0.6-0.4
									C400.9,309.6,401,309.6,401,309.6z"/>
							</g>
						</g>
					</g>
					<g>
						<g>
							<g>
								<path class="st14" d="M403.2,314.2c0,0-0.2,0.1-0.5,0.4c-0.3,0.2-0.7,0.6-1.3,0.9c-1.1,0.8-2.7,1.8-4.5,2.9
									c-0.4,0.3-0.9,0.5-1.3,0.7c-0.5,0.2-1,0.3-1.4,0.3c-1-0.1-1.6-0.8-1.8-1.5c-0.2-0.7,0-1.3,0.1-1.6c0.1-0.2,0.2-0.3,0.2-0.4
									c0.1-0.1,0.1-0.1,0.1-0.1s-0.1,0.2-0.3,0.5c-0.1,0.3-0.3,0.9,0,1.5c0.2,0.6,0.8,1.2,1.7,1.3c0.4,0,0.9-0.1,1.3-0.3
									c0.4-0.2,0.9-0.5,1.3-0.7c1.8-1.1,3.4-2.1,4.5-2.8c0.5-0.3,1-0.6,1.3-0.9C403,314.3,403.2,314.2,403.2,314.2z"/>
							</g>
						</g>
					</g>
					<g>
						<g>
							<g>
								<path class="st14" d="M404.5,318.7c0,0-0.2,0.1-0.5,0.3c-0.4,0.2-0.8,0.4-1.3,0.7c-1.1,0.6-2.7,1.3-4.4,2.1
									c-0.4,0.2-0.9,0.4-1.3,0.6c-0.4,0.1-0.9,0.2-1.3,0.1s-0.8-0.4-1-0.7c-0.2-0.4-0.2-0.7-0.2-1.1c0.1-0.7,0.5-1.1,0.8-1.3
									c0.3-0.2,0.5-0.3,0.5-0.3s-0.1,0.1-0.4,0.4c-0.2,0.2-0.6,0.6-0.7,1.2c0,0.3,0,0.6,0.2,0.9c0.2,0.3,0.5,0.5,0.9,0.6
									s0.8,0,1.2-0.1c0.4-0.1,0.8-0.4,1.3-0.6c1.7-0.8,3.3-1.5,4.5-2.1c0.5-0.2,1-0.4,1.4-0.6
									C404.3,318.8,404.4,318.7,404.5,318.7z"/>
							</g>
						</g>
					</g>
					<g>
						<g>
							<g>
								<path class="st14" d="M405.2,322.9c0,0-0.6,0.2-1.6,0.4c-1,0.2-2.3,0.5-3.8,0.8c-0.4,0.1-0.7,0.1-1.1,0.2
									c-0.3,0.1-0.7,0.1-1.1,0.1c-0.3,0-0.7-0.1-0.9-0.3c-0.3-0.2-0.4-0.5-0.4-0.8c0-0.6,0.4-0.9,0.6-1c0.2-0.2,0.4-0.2,0.4-0.2
									s-0.1,0.1-0.3,0.3c-0.2,0.2-0.5,0.5-0.5,1c0,0.2,0.1,0.5,0.3,0.6c0.2,0.2,0.5,0.3,0.8,0.3s0.6-0.1,1-0.1
									c0.4-0.1,0.7-0.1,1.1-0.2c1.5-0.3,2.8-0.6,3.8-0.7C404.5,323,405.2,322.9,405.2,322.9z"/>
							</g>
						</g>
					</g>
					<g>
						<g>
							<g>
								<path class="st14" d="M394.5,320.9c0,0.1-1.2-0.4-2.8-0.3c-1.6,0.1-2.7,0.6-2.8,0.5c0,0,1.1-0.7,2.7-0.8
									C393.3,320.3,394.5,320.9,394.5,320.9z"/>
							</g>
						</g>
					</g>
				</g>
			</g>
			<g>
				<g>
					<path class="st8" d="M247.6,311.5c0,0-13.8-11.7-10.6-19.7s12.1-12,16.5-26.6c3.5-11.7,24.3-34.2,48.9-17.3
						c0,0,8.3-1.3,13.1,2.5s5.9,11.4,7.9,20.1c3.1,13.5,4.8,23.9-1.2,30.5s-8.2,8.4-7.9,15.9c0.4,9.8,4.7,8.5,1,15.6l-20.7-6.7
						l-0.2-5.7l-2.1,5.4l-12-4.3L247.6,311.5z"/>
				</g>
				<g>
					<g>
						<g>
							<g>
								<g>
									<g>
										<path class="st8" d="M316.4,262.3c-1.3,3.1-0.2,6.6,1,9.8c1.3,3.1,2.8,6.4,2.1,9.7c-1.1,5.9-8.4,9.1-9.2,15
											c-0.4,3.2,1.2,6.4,0.5,9.5c-0.6,3-3.1,5.3-5.8,6.8c-2.7,1.5-5.7,2.5-8.2,4.3c0,0-5.6,4.6-15.1-3"/>
									</g>
								</g>
								<g>
									<g>
										<g>
											<g>
												<g>
													<g>
														<g>
															<g>
																<g>
																	<g>
																		<g>
																			<g>
																				<g>
																					<g>
																						<g>
																							<path class="st13" d="M277.1,254.6c-2.6-0.6-5.2,0.9-6,3.4l0,0l-19.8,65.9c-2.6,7.7,7.1,15.9,15.4,18.6l0,0
																								c8.4,2.7,10-1.3,12.7-8.5c4.4-12.1,6-16.7,6-16.6c0,0,11.1,1.9,18-11c3.4-6.4,7-17.7,9.6-27
																								c2.3-8.4,0.4-20.3-8.1-22.3L277.1,254.6z"/>
																						</g>
																					</g>
																				</g>
																			</g>
																		</g>
																	</g>
																</g>
															</g>
															<g>
																<g>
																	<g>
																		<g>
																			<g>
																				<g>
																					<g>
																						<g>
																							<g>
																								<path class="st8" d="M305.9,286.3c-0.3,0.9-1.3,1.5-2.3,1.2c-1-0.3-1.5-1.3-1.3-2.2
																									c0.3-0.9,1.3-1.5,2.3-1.2C305.7,284.3,306.2,285.3,305.9,286.3z"/>
																							</g>
																						</g>
																					</g>
																				</g>
																			</g>
																		</g>
																	</g>
																</g>
																<g>
																	<g>
																		<g>
																			<g>
																				<g>
																					<g>
																						<g>
																							<g>
																								<g>
																									<path class="st8" d="M308.7,283.9c-0.3,0.2-1.3-1.3-3.2-1.9c-1.9-0.7-3.6-0.2-3.7-0.5
																										c-0.1-0.1,0.3-0.5,1.1-0.7c0.7-0.2,1.9-0.3,3.1,0.1c1.2,0.4,2,1.2,2.4,1.8
																										C308.8,283.3,308.8,283.8,308.7,283.9z"/>
																								</g>
																							</g>
																						</g>
																					</g>
																				</g>
																			</g>
																		</g>
																	</g>
																</g>
															</g>
															<g>
																<g>
																	<g>
																		<g>
																			<g>
																				<g>
																					<g>
																						<g>
																							<g>
																								<path class="st8" d="M287.2,280.3c-0.3,0.9-1.3,1.5-2.3,1.2c-1-0.3-1.5-1.3-1.3-2.2
																									c0.3-0.9,1.3-1.5,2.3-1.2C286.9,278.3,287.5,279.3,287.2,280.3z"/>
																							</g>
																						</g>
																					</g>
																				</g>
																			</g>
																		</g>
																	</g>
																</g>
																<g>
																	<g>
																		<g>
																			<g>
																				<g>
																					<g>
																						<g>
																							<g>
																								<g>
																									<path class="st8" d="M289.9,278.2c-0.3,0.2-1.3-1.3-3.2-1.9c-1.9-0.7-3.6-0.2-3.7-0.5
																										c-0.1-0.1,0.3-0.5,1.1-0.7c0.7-0.2,1.9-0.3,3.1,0.1s2,1.2,2.4,1.8C289.9,277.7,290,278.1,289.9,278.2z"/>
																								</g>
																							</g>
																						</g>
																					</g>
																				</g>
																			</g>
																		</g>
																	</g>
																</g>
															</g>
															<g>
																<g>
																	<g>
																		<g>
																			<g>
																				<g>
																					<g>
																						<g>
																							<g>
																								<path class="st8" d="M291.8,294.6c0-0.1,1.3,0.1,3.3,0.5c0.5,0.1,1,0.2,1.2-0.1c0.2-0.3,0.2-0.9,0.2-1.5
																									c0-1.3-0.1-2.7-0.1-4.2c-0.2-5.9-0.1-10.7,0.1-10.7s0.6,4.8,0.7,10.7c0,1.5,0.1,2.8,0.1,4.2
																									c0,0.6,0.1,1.3-0.4,2c-0.3,0.3-0.7,0.5-1,0.4c-0.3,0-0.6-0.1-0.9-0.2C293,295.1,291.8,294.7,291.8,294.6z"
																									/>
																							</g>
																						</g>
																					</g>
																				</g>
																			</g>
																		</g>
																	</g>
																</g>
															</g>
															<g>
																<g>
																	<g>
																		<g>
																			<g>
																				<g>
																					<g>
																						<g>
																							<path class="st14" d="M285.4,317.4c0,0-9.4-2.6-16.6-11.3c0,0,1.4,11,15.5,14.5L285.4,317.4z"/>
																						</g>
																					</g>
																				</g>
																			</g>
																		</g>
																	</g>
																</g>
															</g>
															<g>
																<g>
																	<g>
																		<g>
																			<g>
																				<g>
																					<g>
																						<g>
																							<path class="st14" d="M289.5,298.9c-0.4-1.1-1.4-2-2.6-2.3c-0.8-0.2-1.8-0.1-2.5,0.4s-1.2,1.4-0.9,2.2
																								c0.3,0.9,1.3,1.4,2.3,1.5s2-0.3,2.9-0.6c0.3-0.1,0.5-0.2,0.7-0.4C289.5,299.5,289.6,299.2,289.5,298.9"/>
																						</g>
																					</g>
																				</g>
																			</g>
																		</g>
																	</g>
																</g>
															</g>
														</g>
													</g>
												</g>
												<g>
													<g>
														<g>
															<g>
																<g>
																	<g>
																		<g>
																			<g>
																				<path class="st8" d="M291.3,272.8c-0.3,0.5-2.2-0.1-4.6-0.3c-2.4-0.2-4.3,0.1-4.6-0.4c-0.1-0.3,0.3-0.7,1.2-1.1
																					c0.8-0.4,2.1-0.6,3.5-0.5s2.6,0.6,3.4,1.1C291.1,272.1,291.4,272.6,291.3,272.8z"/>
																			</g>
																		</g>
																	</g>
																</g>
															</g>
														</g>
													</g>
												</g>
												<g>
													<g>
														<g>
															<g>
																<g>
																	<g>
																		<g>
																			<g>
																				<path class="st8" d="M311.4,277.6c-0.5,0.3-2-0.6-3.9-1.1c-1.9-0.6-3.6-0.7-3.9-1.3c-0.1-0.3,0.3-0.6,1.1-0.8
																					c0.8-0.2,2.1-0.2,3.4,0.2s2.3,1.1,2.9,1.8C311.5,276.9,311.6,277.4,311.4,277.6z"/>
																			</g>
																		</g>
																	</g>
																</g>
															</g>
														</g>
													</g>
												</g>
											</g>
										</g>
									</g>
								</g>
								<g>
									<g>
										<path class="st8" d="M254,297.9c3.7-12.5,7.4-24.9,11.2-37.4c0.8-2.6,1.6-5.3,3.8-6.9c2-1.5,4.7-1.7,7.2-1.8
											c10.9-0.2,21.8,0.9,32.4,3.2c0.5,2.5-1.7,4.9-4.1,5.8c-2.5,0.8-5.1,0.5-7.7,0.6c-2.6,0-5.4,0.5-7.2,2.4
											c-1.9,2-2,5.2-3.8,7.3c-3,3.6-9.4,2.9-12.4,6.5c-2.3,2.8-1.7,6.8-2.4,10.3c-0.9,4-0.9,4-4,9.8c-1.9,3.6,2.9,10.4-1.9,19.3
											l-9.3-2.6l4.1-13.7l-5.5,12.9L254,297.9z"/>
									</g>
								</g>
							</g>
						</g>
					</g>
					<g>
						<g>
							<path class="st8" d="M286.2,294.4c0.2,0.1,0.1,0.6,0.1,1.3c0,0.7,0.1,1.7,0.5,2.6c0.5,0.9,1.2,1.5,1.8,1.9
								c0.6,0.4,1.1,0.6,1,0.8c0,0.2-0.6,0.4-1.5,0.2c-0.9-0.2-2.1-0.9-2.8-2.2c-0.7-1.3-0.6-2.7-0.2-3.5
								C285.6,294.6,286.1,294.3,286.2,294.4z"/>
						</g>
					</g>
				</g>
				<g>
					<g>
						<path class="st8" d="M283.5,264.3c0,0-0.2,0.1-0.5,0.3c-0.4,0.2-0.8,0.4-1.5,0.8c-1.2,0.8-3,2-4.6,4.1c-1.6,2-3.1,4.9-3.6,8.3
							c-0.3,1.7-0.2,3.5,0,5.4s0.5,3.8,0.4,5.9c-0.1,1-0.3,2-0.6,3c-0.4,0.9-0.8,1.8-1.3,2.6c-1,1.6-1.9,3.2-2.1,4.9
							c-0.3,1.7-0.1,3.3,0.1,4.8s0.5,2.9,0.6,4.3c0.2,2.6-0.2,4.8-0.9,6.2c-0.3,0.7-0.7,1.1-1,1.4c-0.3,0.3-0.4,0.4-0.5,0.4
							s0.6-0.6,1.3-1.9c0.6-1.3,1-3.4,0.7-6c-0.1-1.3-0.4-2.7-0.6-4.2s-0.4-3.2-0.2-5c0.4-3.7,3.9-6.4,4-10.4c0.1-2-0.1-3.9-0.3-5.8
							c-0.2-1.9-0.3-3.8,0-5.5c0.5-3.5,2.1-6.4,3.8-8.4c1.7-2.1,3.5-3.3,4.8-4c0.6-0.4,1.2-0.6,1.5-0.7
							C283.3,264.4,283.5,264.3,283.5,264.3z"/>
					</g>
				</g>
				<g>
					<g>
						<path class="st8" d="M328.3,320.5c0,0-0.1,0.1-0.2,0.1c-0.1,0.1-0.3,0.2-0.5,0.4c-0.5,0.3-1.2,0.7-2.3,0.9
							c-1,0.3-2.4,0.4-3.9,0.1c-1.5-0.2-3.2-0.9-4.6-2.3c-1.4-1.3-2.5-3.3-2.8-5.6c-0.1-1.1-0.1-2.3,0.2-3.5
							c0.3-1.2,0.9-2.3,1.6-3.3c1.5-2.1,3.6-3.8,5.5-5.6c1-0.9,1.9-1.9,2.7-3.1c0.8-1.1,1.4-2.4,1.9-3.8c0.9-2.7,1.1-5.5,1.1-8.2
							c-0.1-2.7-0.4-5.3-0.8-7.8c-0.8-4.9-2.1-9.3-3.3-12.8c-1.3-3.6-2.6-6.3-3.5-8.2c-0.5-0.9-0.8-1.7-1.1-2.2
							c-0.3-0.5-0.4-0.8-0.4-0.8s0.2,0.2,0.5,0.7s0.7,1.2,1.2,2.1c1,1.9,2.4,4.6,3.7,8.2c1.3,3.6,2.6,7.9,3.5,12.9
							c0.4,2.5,0.8,5.1,0.8,7.9c0.1,2.7-0.1,5.6-1.1,8.4c-0.5,1.4-1.1,2.7-1.9,3.9c-0.8,1.2-1.8,2.2-2.8,3.1c-2,1.9-4,3.5-5.5,5.6
							c-0.7,1-1.3,2.1-1.6,3.2c-0.3,1.1-0.4,2.3-0.2,3.3c0.3,2.2,1.3,4.1,2.6,5.4c1.3,1.3,2.9,2,4.4,2.3s2.8,0.2,3.8-0.1
							C327.3,321.3,328.3,320.5,328.3,320.5z"/>
					</g>
				</g>
				<g>
					<g>
						<path class="st9" d="M243.2,307c0-0.1,1.4-0.1,3.2-1.6c1.8-1.4,3.8-4.4,4.3-8.6c0.3-2.1,0.2-4.4,0.2-6.8
							c0-2.5-0.1-5.2,0.6-7.9c0.3-1.4,0.9-2.7,1.6-4c0.8-1.3,1.8-2.4,3.2-3.2c2.7-1.7,6-1.6,9-2.6c1.5-0.5,2.8-1.4,3.8-2.5
							c1.1-1.1,1.9-2.4,2.7-3.7c1.6-2.5,3.1-5.2,5.6-6.7c1.2-0.8,2.6-1.2,3.9-1.4c1.3-0.2,2.6-0.2,3.9-0.2c2.5,0.1,4.8,0.3,6.8-0.1
							c4.1-0.6,7.2-2.3,9.1-3.6c1-0.7,1.6-1.3,2.1-1.7c0.2-0.2,0.4-0.4,0.5-0.5s0.2-0.2,0.2-0.2s-0.8,1.1-2.7,2.5
							c-1.9,1.4-4.9,3.2-9.1,3.8c-2.1,0.3-4.4,0.2-6.9,0.1c-2.4,0-5.2,0-7.5,1.5s-3.8,4.1-5.4,6.6c-0.8,1.3-1.7,2.6-2.8,3.7
							c-1.1,1.1-2.5,2.1-4,2.6c-3.1,1.1-6.4,1-8.9,2.6c-2.5,1.5-3.9,4.3-4.6,6.9c-0.7,2.7-0.7,5.3-0.6,7.8c0,2.5,0,4.8-0.2,6.9
							c-0.5,4.2-2.6,7.3-4.5,8.7c-1,0.7-1.8,1.1-2.4,1.2c-0.3,0.1-0.5,0.1-0.7,0.2C243.3,307,243.2,307,243.2,307z"/>
					</g>
				</g>
				<g>
					<g>
						<path class="st9" d="M253.2,265.5c0-0.1,0.7,0.3,2,0.5c1.3,0.2,3.3,0.1,5.4-0.9c2.2-1,4.3-2.8,6.5-5.1
							c1.1-1.1,2.2-2.3,3.5-3.4s2.8-2.2,4.5-2.9s3.5-0.9,5.3-1c1.7,0,3.4,0.1,4.9,0.3c1.6,0.1,3,0.3,4.4,0.3s2.7-0.1,3.8-0.3
							c2.3-0.4,4-1.3,5-2.2s1.4-1.5,1.4-1.5s-0.1,0.2-0.3,0.5c-0.1,0.2-0.2,0.3-0.4,0.5c-0.2,0.2-0.4,0.4-0.6,0.6
							c-1,0.9-2.7,1.9-5.1,2.4c-1.2,0.2-2.5,0.4-3.9,0.4s-2.9-0.1-4.5-0.3c-1.6-0.1-3.2-0.3-4.9-0.2c-1.7,0-3.4,0.3-5.1,0.9
							c-3.3,1.4-5.7,4-7.9,6.2c-2.2,2.2-4.4,4.1-6.7,5.1c-2.2,1-4.3,1-5.6,0.8c-0.7-0.1-1.2-0.3-1.5-0.5
							C253.4,265.7,253.2,265.6,253.2,265.5z"/>
					</g>
				</g>
				<g>
					<g>
						<path class="st9" d="M325.6,293.6c-0.1,0,0.4-0.6,0.5-1.9c0.2-1.3-0.2-3.1-1.4-5.1c-1.2-2-3.3-3.7-5.5-5.8
							c-1.1-1.1-2.2-2.3-2.9-3.8c-0.8-1.5-1.1-3.3-1.2-5c-0.2-3.6,0.4-6.9,0.3-9.9c0-3-0.7-5.7-2.2-7.5c-1.4-1.8-3.2-2.6-4.4-2.8
							c-1.3-0.2-2,0-2,0s0.2-0.1,0.5-0.1c0.3-0.1,0.8-0.1,1.5,0c1.3,0.1,3.1,1,4.6,2.8c1.6,1.8,2.4,4.6,2.4,7.7
							c0.1,3.1-0.5,6.4-0.3,9.9c0.1,1.7,0.5,3.4,1.2,4.8c0.7,1.5,1.7,2.7,2.8,3.7c2.1,2.1,4.3,3.9,5.5,6c1.2,2,1.5,4,1.3,5.3
							c-0.1,0.6-0.3,1.1-0.4,1.4C325.7,293.4,325.6,293.6,325.6,293.6z"/>
					</g>
				</g>
				<g>
					<g>
						<path class="st8" d="M237.1,299.6c0,0-0.2-0.1-0.6-0.4c-0.4-0.3-1-0.7-1.6-1.4c-1.2-1.4-2.4-4-1.9-7.3
							c0.2-0.8,0.4-1.6,0.9-2.4s1.1-1.5,1.8-2.2c1.4-1.3,3.3-2.3,5.2-3.2s3.9-1.9,5.6-3.5c1.6-1.6,2.5-3.9,3.1-6.2
							c0.6-2.4,1-4.8,1.8-7c0.8-2.2,1.8-4.3,2.9-6.1c2.3-3.7,5-6.5,7.6-8.4c2.6-2,4.9-3.2,6.6-3.9c0.8-0.4,1.5-0.6,2-0.7
							c0.5-0.1,0.7-0.2,0.7-0.2c0,0.1-0.9,0.4-2.6,1.1c-1.6,0.7-4,2-6.5,4s-5.2,4.8-7.4,8.4c-1.1,1.8-2.1,3.8-2.8,6
							c-0.8,2.2-1.2,4.5-1.8,7c-0.6,2.4-1.6,4.8-3.3,6.5c-1.7,1.7-3.8,2.7-5.7,3.6c-1.9,0.9-3.7,1.9-5.1,3.1
							c-0.7,0.6-1.3,1.3-1.7,2.1c-0.4,0.8-0.7,1.5-0.8,2.3c-0.3,1.6-0.1,3,0.2,4.2c0.4,1.2,0.9,2.2,1.5,2.9
							C236.2,299.1,237.2,299.5,237.1,299.6z"/>
					</g>
				</g>
				<g>
					<g>
						<path class="st8" d="M328.4,294.5c0,0,0.4-0.5,1.1-1.4c0.6-0.9,1.4-2.4,1.8-4.4s0.4-4.5-0.2-7.1s-1.9-5.3-3.6-7.9
							c-1.6-2.7-3.4-5.1-4.9-7.3c-1.5-2.3-2.7-4.4-3.5-6.3c-0.8-1.9-1.3-3.5-1.4-4.7c-0.1-0.6-0.2-1-0.2-1.3s0-0.5,0-0.5
							s0.1,0.6,0.4,1.7c0.2,1.1,0.7,2.7,1.6,4.6c0.9,1.9,2.1,4,3.6,6.2c1.5,2.2,3.3,4.6,5,7.3c1.7,2.7,3,5.4,3.6,8.1
							c0.6,2.7,0.6,5.2,0.1,7.2s-1.3,3.6-2,4.5c-0.4,0.5-0.7,0.8-0.9,1C328.6,294.4,328.4,294.5,328.4,294.5z"/>
					</g>
				</g>
			</g>
			<g>
				<g>
					<path class="st8" d="M224.6,433.9l-8.2,14.3c0,0-40.8-14.9-64.7-10.6c-9.1,1.7-18.8,22.3-5.6,35.5c12.9,12.9,36,31.2,79.3,37.1
						c1.1,0.1,18.8,4,17.7,3.8c-1.1-0.1,24.9,4,24.9,4l6.1-23.1l48.4,7.6c28.5-1.9,42.5-32.4,25.3-42.3c-16-9.2-46.1-9.9-46.1-9.9
						l-10.9-17.1L224.6,433.9z"/>
				</g>
				<g>
					<g>
						<path class="st9" d="M269,518.9c0.1-0.8,0.5-2.9,1.2-7.2c0.4-2.3,0.9-5.1,1.5-8.3c0.3-1.6,0.6-3.3,1.1-5.1
							c0.2-0.9,0.4-1.8,0.7-2.8c0.1-0.5,0.3-0.9,0.4-1.4c0.2-0.5,0.3-1,0.7-1.4l0.1,0.3c-10.3-3.7-23.2-8.5-36.9-14.3
							c-8.4-3.6-16.4-7.2-23.4-11c-3.5-1.9-6.8-3.8-9.6-6c-2.8-2.1-5.4-4.2-7.8-6c-4.7-3.7-9-6.1-12.2-7.1c-0.8-0.3-1.5-0.5-2.1-0.6
							c-0.6-0.2-1.2-0.3-1.6-0.3c-0.4-0.1-0.7-0.1-1-0.2c-0.2,0-0.3-0.1-0.3-0.1s0.1,0,0.3,0c0.3,0,0.6,0.1,1,0.1
							c0.4,0.1,1,0.1,1.6,0.3c0.6,0.1,1.4,0.3,2.2,0.6c1.6,0.5,3.5,1.3,5.6,2.5s4.3,2.7,6.7,4.5s4.9,3.9,7.8,6
							c2.8,2.1,6.1,4,9.6,5.9c7,3.7,15,7.3,23.4,10.9c13.7,5.8,26.6,10.6,36.8,14.4l0.3,0.1l-0.2,0.2c-0.3,0.3-0.5,0.8-0.6,1.3
							c-0.2,0.5-0.3,0.9-0.4,1.4c-0.3,0.9-0.5,1.9-0.7,2.7c-0.4,1.8-0.8,3.5-1.1,5.1c-0.6,3.2-1.1,6-1.6,8.3c-0.4,2.3-0.8,4.1-1,5.3
							c-0.1,0.6-0.2,1.1-0.3,1.4C269,518.7,269,518.9,269,518.9z"/>
					</g>
				</g>
				<g>
					<g>
						<path class="st9" d="M338.4,463.1c0,0-0.1,0-0.3,0c-0.2,0-0.4-0.1-0.8-0.1c-0.7-0.1-1.6-0.3-2.9-0.5
							c-2.5-0.4-6.2-0.6-10.7-0.4s-9.9,1.1-15.7,2.6c-2.9,0.8-5.9,1.7-9,2.8c-3.1,1.1-6.2,2.3-9.5,3.6c-3.2,1.3-6.5,2.3-9.7,3.2
							c-3.2,0.9-6.3,1.6-9.2,2.1c-5.9,1.2-11.3,1.9-15.8,2.4c-4.5,0.5-8.2,0.9-10.7,1.2c-1.2,0.1-2.2,0.2-2.9,0.3
							c-0.3,0-0.6,0-0.8,0.1c-0.2,0-0.3,0-0.3,0s0.1,0,0.3-0.1c0.2,0,0.4-0.1,0.8-0.1c0.7-0.1,1.7-0.2,2.9-0.4
							c2.6-0.3,6.2-0.8,10.7-1.3c4.5-0.6,9.9-1.3,15.8-2.5c2.9-0.6,6-1.3,9.2-2.2c3.1-0.9,6.4-1.9,9.6-3.2c3.2-1.3,6.4-2.5,9.5-3.6
							s6.1-2,9.1-2.7c5.8-1.5,11.2-2.3,15.8-2.5c4.6-0.2,8.3,0.1,10.8,0.5c1.3,0.2,2.2,0.4,2.9,0.6c0.3,0.1,0.5,0.1,0.7,0.2
							C338.3,463,338.4,463.1,338.4,463.1z"/>
					</g>
				</g>
				<g>
					<g>
						<path class="st8" d="M263.9,454.8c0,0.3-2.2,0.9-5.8,1.2c-3.6,0.3-8.7,0.4-14.2-0.2s-10.5-1.7-13.9-2.8
							c-3.5-1.1-5.5-2.1-5.4-2.4c0.2-0.7,8.8,1.6,19.6,2.7C254.9,454.4,263.8,454,263.9,454.8z"/>
					</g>
				</g>
				<g>
					<g>
						<path class="st9" d="M302.1,450.7c0,0-0.6,0.2-1.6,0.4c-0.5,0.1-1.1,0.3-1.9,0.5c-0.7,0.2-1.6,0.4-2.4,0.7
							c-1.8,0.6-3.9,1.4-6.2,2.5c-2.3,1.1-4.7,2.4-7.2,3.8c-5,3-9.2,6.2-12.1,8.5c-1.5,1.2-2.7,2.2-3.5,2.8c-0.8,0.7-1.3,1-1.3,1
							s0.4-0.4,1.2-1.2c0.8-0.7,1.9-1.8,3.4-3c2.9-2.4,7.1-5.7,12.1-8.7c2.5-1.5,5-2.8,7.3-3.8s4.4-1.8,6.3-2.4
							c0.9-0.3,1.7-0.5,2.5-0.7c0.7-0.2,1.4-0.3,1.9-0.4C301.5,450.8,302.1,450.7,302.1,450.7z"/>
					</g>
				</g>
				<g>
					<g>
						<path class="st9" d="M256.7,471.1c0,0.1-1.1-0.2-2.9-0.8c-1.7-0.6-4.1-1.7-6.5-3s-4.6-2.4-6.3-3.3c-1.6-0.8-2.6-1.3-2.6-1.4
							s1.1,0.3,2.8,1.1c1.7,0.8,3.9,1.9,6.4,3.2c2.5,1.3,4.8,2.4,6.4,3.1C255.7,470.6,256.8,471,256.7,471.1z"/>
					</g>
				</g>
				<g>
					<g>
						<path class="st9" d="M261.2,435.6c0.1,0-0.1,1.5-0.2,3.9c-0.2,2.4-0.3,5.7-0.2,9.4c0.1,3.7,0.3,7,0.6,9.4
							c0.2,2.4,0.4,3.9,0.4,3.9s-0.1-0.4-0.3-1c-0.1-0.7-0.3-1.6-0.5-2.8c-0.3-2.4-0.7-5.7-0.7-9.4c-0.1-3.7,0.1-7.1,0.4-9.5
							c0.1-1.2,0.2-2.2,0.4-2.8C261.1,436,261.1,435.6,261.2,435.6z"/>
					</g>
				</g>
				<g>
					<g>
						<path class="st9" d="M265.7,437.1c0,0-0.2,0.2-0.4,0.5c-0.3,0.3-0.5,0.8-0.6,1.5s0,1.5,0.6,2.2s1.7,0.9,2.6,0.5
							c1-0.4,1.7-1.2,1.7-2.1s-0.5-1.6-1-2.1s-1.1-0.6-1.4-0.7c-0.4-0.1-0.6,0-0.6-0.1c0,0,0.2-0.1,0.6-0.1s1.1,0.2,1.7,0.6
							c0.6,0.5,1.2,1.3,1.2,2.4s-0.8,2.2-2,2.6c-1.1,0.4-2.5,0.2-3.1-0.7c-0.7-0.8-0.8-1.8-0.6-2.6c0.2-0.8,0.5-1.3,0.9-1.6
							C265.5,437.1,265.7,437.1,265.7,437.1z"/>
					</g>
				</g>
				<g>
					<g>
						<path class="st8" d="M278.1,420.6c0,0-0.3,0.4-0.8,1s-1.3,1.5-2.4,2.5s-2.4,2.2-4,3.3c-1.6,1.1-3.4,2.3-5.4,3.3
							s-4,1.8-5.9,2.4s-3.6,1-5.1,1.2s-2.6,0.4-3.5,0.4c-0.8,0-1.3,0-1.3,0c0-0.1,1.8-0.2,4.7-0.8c1.4-0.3,3.1-0.7,5-1.3
							c1.8-0.6,3.8-1.4,5.8-2.4s3.8-2.1,5.4-3.2s2.9-2.2,4-3.2C276.9,422,278.1,420.6,278.1,420.6z"/>
					</g>
				</g>
				<g>
					<g>
						<path class="st8" d="M296.4,431.7c0,0.2-1.8,0.2-3.9,0.7s-3.7,1.3-3.8,1.2c-0.1-0.1,1.5-1.2,3.7-1.7
							C294.5,431.4,296.4,431.6,296.4,431.7z"/>
					</g>
				</g>
				<g class="st15">
					<g>
						<path d="M254.4,434.2c8.6-1.5,16.6-6.2,22.3-12.9c1.1,3.1,0.2,6.9-2.2,9.2c2.5,1.2,5.5,0.4,8.3,0s6.2,0,7.5,2.5
							c-12.4,1.2-24.9,1.5-37.4,1.1"/>
					</g>
				</g>
			</g>
			<g>
				<g>
					<path class="st8" d="M229.6,414.6c-0.1,0.1-1.3-1.6-4.3-2.8c-1.5-0.6-3.4-1-5.5-0.9s-4.4,0.6-6.5,1.8c-4.4,2.3-6.9,6.1-8.9,8.6
						c-0.9,1.3-1.5,2.5-2,3.3c-0.4,0.8-0.7,1.2-0.7,1.2s0.1-0.5,0.5-1.3s0.9-2,1.8-3.4c0.9-1.3,2.1-2.8,3.5-4.5
						c1.4-1.6,3.3-3.2,5.5-4.4c2.2-1.2,4.6-1.7,6.8-1.8c2.2,0,4.1,0.4,5.6,1.1c1.5,0.6,2.6,1.5,3.2,2.1c0.3,0.3,0.6,0.6,0.7,0.8
						C229.5,414.5,229.6,414.6,229.6,414.6z"/>
				</g>
			</g>
			<g>
				<g>
					<g>
						<polygon class="st13" points="255.8,318.7 241.8,321.7 248.8,347.8 273.5,353.1 290.5,341.1 292.8,326.7 278.2,321.2 						
							"/>
					</g>
					<g>
						<path class="st9" d="M245.9,320.6c0,0,9.4,27.4,26.9,24.9s16-20.3,16-20.3s18.2,5.6,23.9,11.5c5.6,5.9,2.3,18.8,2.3,18.8
							l-4.7,23.2L300,423.1c0,0,3.9,12.1-6.1,15.1l-3.2-5l-60.3,1.7c0,0-12.9,14.9-16.9,9.7c-4-5.1-7.9-15.1-7.9-15.1l27.7-105.6
							L245.9,320.6z"/>
					</g>
					<g>
						<path class="st9" d="M307.9,333.2c0.5,0.3,42.8,31,42.8,31s-3.3,25.3,17,21.3c0,0-8.2,21.1-19.3,16.7
							c-3.2-1.3-42.1-25.9-42.1-25.9l-8.3-17.7L307.9,333.2z"/>
					</g>
					<g>
						<path class="st9" d="M245.9,322c0,0-1,0-2.6,0.2c-8.3,0.8-38.8,7.1-41.7,28.7c-1.5,11.3-1.9,44.3-3.5,58.1
							c0,0,2.6,19.2,3.5,22.8c1.7,6.3,32.3-3.8,32.3-3.8l0.1-61l10.9-44.9"/>
					</g>
					<g>
						<g>
							<path class="st8" d="M226.6,377.4c0,0,0,0.2,0,0.5s0,0.8,0.1,1.4c0.1,1.2,0.5,3,1.3,5c0.8,2.1,2,4.4,3.2,7.1
								c0.6,1.3,1.2,2.8,1.6,4.3c0.4,1.6,0.7,3.2,0.8,4.9c0.3,3.4,0,6.6-0.2,9.5c-0.3,2.9-0.5,5.5-0.9,7.7s-0.8,3.9-1.2,5.1
								c-0.2,0.6-0.4,1-0.5,1.3s-0.2,0.5-0.2,0.4c0,0,0.2-0.7,0.5-1.8c0.3-1.2,0.7-2.9,1-5.1s0.5-4.8,0.7-7.7
								c0.2-2.9,0.5-6.1,0.2-9.5c-0.1-1.7-0.4-3.3-0.8-4.8c-0.4-1.5-1-2.9-1.5-4.3c-1.2-2.7-2.3-5-3.1-7.1s-1.1-3.9-1.1-5.1
								c0-0.6,0-1.1,0-1.4C226.6,377.5,226.6,377.4,226.6,377.4z"/>
						</g>
					</g>
					<g>
						<g>
							<path class="st8" d="M228,369.7c0.1,0,0.2,1.6,0.5,4c0.3,2.5,1,5.9,2.2,9.5c0.3,0.9,0.6,1.8,1,2.6c0.1,0.2,0.2,0.5,0.2,0.6
								c0.1,0.2,0.2,0.4,0.4,0.6c0.2,0.4,0.5,0.7,0.6,1.1c0.8,1.5,1.1,3,1.1,4.3s-0.3,2.3-0.6,3c-0.3,0.6-0.5,1-0.6,1
								s0.8-1.4,0.8-3.9c0-1.2-0.4-2.7-1.2-4.1c-0.2-0.4-0.4-0.7-0.6-1.1c-0.1-0.2-0.2-0.4-0.4-0.5c-0.2-0.3-0.2-0.4-0.3-0.7
								c-0.3-0.8-0.7-1.7-1-2.6c-1.2-3.7-1.9-7.1-2.1-9.6c-0.1-1.3-0.2-2.3-0.2-3C227.9,370.1,227.9,369.7,228,369.7z"/>
						</g>
					</g>
					<g>
						<g>
							<path class="st8" d="M229.2,360.5c-0.1,0-0.5-1.2-1.4-3.2s-2.3-4.6-4.2-7.3c-1.9-2.7-4-4.9-5.5-6.4c-1.6-1.5-2.6-2.3-2.6-2.4
								c0,0,0.3,0.2,0.8,0.5c0.5,0.4,1.2,0.9,2,1.6c1.7,1.4,3.8,3.6,5.7,6.4c1.9,2.7,3.3,5.5,4.1,7.5c0.4,1,0.7,1.9,0.9,2.4
								C229.2,360.2,229.3,360.5,229.2,360.5z"/>
						</g>
					</g>
					<g>
						<g>
							<path class="st8" d="M315.9,342.6c0.1,0,0,0.9-0.2,2.4s-0.4,3.5-0.7,5.8c-0.2,2.3-0.4,4.3-0.5,5.8s-0.2,2.4-0.3,2.4
								c-0.1,0-0.1-0.9-0.1-2.4s0.2-3.6,0.4-5.9c0.2-2.3,0.5-4.3,0.8-5.8C315.6,343.5,315.8,342.6,315.9,342.6z"/>
						</g>
					</g>
					<g>
						<g>
							<path class="st8" d="M324.6,368.3c0,0.1-1.3,0.2-3.4,0.8c-2,0.6-4.8,1.8-7,4.1c-1.1,1.2-2,2.4-2.7,3.7
								c-0.7,1.2-1.2,2.4-1.5,3.4c-0.2,0.5-0.3,0.9-0.5,1.4c-0.1,0.4-0.2,0.7-0.3,1c-0.2,0.6-0.3,0.9-0.3,0.9s0-0.3,0.1-0.9
								c0.1-0.3,0.1-0.7,0.2-1.1s0.3-0.9,0.4-1.4c0.3-1,0.8-2.2,1.5-3.5s1.6-2.6,2.7-3.8c2.3-2.4,5.2-3.6,7.3-4.1
								c0.5-0.1,1-0.2,1.4-0.3c0.4-0.1,0.8-0.1,1.1-0.1C324.3,368.2,324.6,368.2,324.6,368.3z"/>
						</g>
					</g>
					<g>
						<g>
							<path class="st8" d="M352.6,396.1c0,0-0.3-0.4-0.7-1.1c-0.2-0.4-0.5-0.8-0.7-1.4c-0.2-0.5-0.6-1.2-0.8-1.9
								c-0.6-1.4-1.1-3.1-1.6-5.1c-0.5-1.9-0.8-4.1-1-6.4c-0.1-2.3-0.1-4.5,0.1-6.5s0.5-3.8,0.9-5.2c0.2-0.7,0.4-1.4,0.6-2
								s0.3-1.1,0.5-1.5c0.3-0.8,0.5-1.2,0.5-1.2c0.1,0-0.6,1.8-1.2,4.7c-0.3,1.5-0.6,3.2-0.8,5.2c-0.2,2-0.2,4.1-0.1,6.4
								c0.2,2.3,0.5,4.4,0.9,6.3c0.5,1.9,1,3.6,1.5,5C351.8,394.4,352.7,396.1,352.6,396.1z"/>
						</g>
					</g>
					<g>
						<g>
							<path class="st8" d="M341.6,388.6c0,0-0.2-0.4-0.4-1.1c-0.2-0.7-0.5-1.7-0.6-3c-0.4-2.6-0.3-6.3,0.9-10.2
								c1.2-3.9,3.3-6.9,5.1-8.8c0.9-0.9,2-1.5,2.7-1.5c0.4,0,0.7,0.1,0.9,0.2c0.2,0.1,0.3,0.2,0.2,0.2c0,0.1-0.4-0.2-1.1-0.1
								s-1.6,0.6-2.5,1.5c-1.7,1.9-3.7,5-4.9,8.7c-1.2,3.8-1.3,7.4-1.1,10C341.2,387,341.7,388.6,341.6,388.6z"/>
						</g>
					</g>
					<g>
						<g>
							<path class="st8" d="M272.8,383.6c0,0-0.1,0.4-0.2,1.2c-0.1,0.4-0.2,0.8-0.4,1.4c-0.2,0.5-0.4,1.1-0.7,1.8
								c-0.5,1.3-1.3,2.8-2.3,4.3s-2.3,3.2-3.7,4.7c-1.5,1.5-3.1,2.8-4.6,3.9c-1.5,1-3,1.8-4.3,2.4c-0.6,0.3-1.2,0.5-1.7,0.7
								s-1,0.3-1.4,0.4c-0.8,0.2-1.2,0.3-1.2,0.3c0-0.1,1.6-0.6,4.1-1.8c1.2-0.6,2.7-1.4,4.2-2.4c1.5-1.1,3-2.3,4.5-3.8
								s2.7-3.1,3.7-4.6s1.8-3,2.3-4.2C272.3,385.3,272.7,383.6,272.8,383.6z"/>
						</g>
					</g>
					<g class="st15">
						<g>
							<path d="M238.2,393.5c-1.9-7-3.8-14-5.8-21c-0.3-1-0.7-2.2-1.8-2.4c-1-0.2-1.9,0.7-2,1.7c-0.2,1-0.1,2.1-0.1,3.1
								c0.5,4.6,0.8,7.7,2.9,11.2c4.1,6.9,1.4,10.2,1.4,10.2c0.3,8.4-0.4,19.9-3,28.5l2.5,10.4c2.3-7.7,7.7-14.2,8.6-22.2
								C241.7,406.4,240,399.9,238.2,393.5z"/>
						</g>
					</g>
					<g class="st15">
						<g>
							<path d="M310.3,378.8c6.8,3.6,12.9,8.5,19.6,12.3c-2.6-5.4-7-10.8-12.3-13.7c-1.4-0.8-3-1.5-4.6-1.2
								c-1.6,0.2-2.8,1.1-2.5,2.7"/>
						</g>
					</g>
					<g class="st15">
						<g>
							<path d="M349.6,363.7c-2.3-0.1-4.1,2.1-5.3,4.1c-3.2,5.8-4.6,12.5-3.8,19.1c0.1,1.2,0.6,2.6,1.7,2.8c0.8,0.2,1.7-0.5,2.1-1.2
								c0.4-0.8,0.4-1.7,0.4-2.5c0-4-0.3-8,0.3-12s2.1-8,5-10.7"/>
						</g>
					</g>
					<g>
						<g>
							<path class="st0" d="M243.8,371.2c0,0,0.1,0,0.2,0c0.2,0,0.4,0,0.7,0c0.6,0,1.5-0.1,2.7-0.1c2.4-0.1,5.9-0.3,10.2-0.5
								c8.8-0.4,21.4-0.9,36.3-1.5h0.2v0.2c0.3,12.2,0.6,26.2,1,41.1c0,0.5,0,1,0,1.5v0.3h-0.3c-16.4,0.2-31.8,1.5-44.7,3.3h-0.2
								l-0.1-0.2c-3.6-13.1-4.9-24.3-5.3-32.2c-0.2-3.9-0.3-7-0.3-9.1c0-1.1,0-1.9,0-2.4c0-0.3,0-0.5,0-0.6s0-0.2,0-0.2s0,0.1,0,0.2
								c0,0.2,0,0.4,0,0.6c0,0.6,0,1.4,0,2.4c0,2.1,0.1,5.2,0.4,9.1c0.5,7.8,1.9,19.1,5.5,32.1l-0.2-0.2c12.9-1.8,28.3-3.2,44.7-3.4
								l-0.3,0.3c0-0.5,0-1,0-1.5c-0.3-14.9-0.7-28.9-0.9-41.1l0.2,0.2c-14.9,0.6-27.4,1-36.3,1.4c-4.4,0.1-7.9,0.3-10.2,0.3
								c-1.2,0-2.1,0.1-2.7,0.1C244.1,371.3,243.9,371.3,243.8,371.2C243.9,371.2,243.8,371.2,243.8,371.2z"/>
						</g>
					</g>
					<g>
						<g>
							<path class="st0" d="M257,401.5c-0.1,0-1.4-6.7-2.8-15.1c-1.4-8.4-2.4-15.2-2.3-15.2c0.1,0,1.4,6.7,2.8,15.1
								S257.1,401.5,257,401.5z"/>
						</g>
					</g>
					<g>
						<g>
							<path class="st0" d="M258.5,414.4c-0.1,0-0.6-2.4-1.1-5.5c-0.5-3-0.7-5.5-0.6-5.5s0.6,2.4,1.1,5.5
								C258.3,411.9,258.6,414.4,258.5,414.4z"/>
						</g>
					</g>
					<g>
						<g>
							<path class="st0" d="M267.1,394.8c0,0-0.1-0.3-0.3-0.9c-0.1-0.6-0.3-1.5-0.5-2.6c-0.4-2.2-0.9-5.2-1.2-8.6
								c-0.3-3.4-0.5-6.5-0.5-8.7c0-1.1,0-2,0-2.6s0.1-1,0.1-1c0.1,0,0.1,1.4,0.3,3.6c0.1,2.2,0.3,5.3,0.6,8.6
								c0.3,3.4,0.8,6.4,1.1,8.6C266.9,393.5,267.2,394.8,267.1,394.8z"/>
						</g>
					</g>
					<g>
						<g>
							<path class="st0" d="M265.9,413.1c-0.1,0-0.7-3.1-1.1-7.1c-0.5-3.9-0.8-7.1-0.6-7.1c0.1,0,0.7,3.1,1.1,7.1
								C265.8,409.9,266.1,413.1,265.9,413.1z"/>
						</g>
					</g>
					<g>
						<g>
							<path class="st0" d="M277.2,412.3c0,0-0.1-0.6-0.2-1.6c-0.1-1.2-0.2-2.7-0.4-4.5c-0.3-3.8-0.8-9-1.5-14.8s-1.4-11-1.9-14.8
								c-0.3-1.8-0.5-3.3-0.6-4.5c-0.1-1.1-0.2-1.6-0.2-1.6s0.2,0.6,0.4,1.6c0.2,1,0.5,2.6,0.8,4.4c0.6,3.8,1.4,9,2.1,14.8
								s1.1,11,1.3,14.8c0.1,1.9,0.2,3.4,0.2,4.5C277.3,411.7,277.3,412.3,277.2,412.3z"/>
						</g>
					</g>
					<g>
						<g>
							<path class="st0" d="M286.9,412.8c0,0-0.1-0.6-0.1-1.7c0-1.2,0-2.7,0-4.6c0-3.9-0.1-9.2-0.4-15.1s-0.7-11.2-1-15.1
								c-0.2-1.9-0.3-3.4-0.4-4.6c-0.1-1.1-0.1-1.7-0.1-1.7s0.1,0.6,0.3,1.7c0.2,1.1,0.3,2.6,0.6,4.5c0.4,3.8,0.9,9.2,1.2,15.1
								c0.3,5.9,0.3,11.2,0.3,15.1c0,1.9-0.1,3.5-0.1,4.6C286.9,412.2,286.9,412.8,286.9,412.8z"/>
						</g>
					</g>
				</g>
				<g class="st15">
					<g>
						<path d="M253.1,404.7c1.5,1,3.4,1.4,5.3,1.3c1.8-0.1,3.6-0.7,5.3-1.4c2.3-0.9,4.4-2.2,6.1-4c1.7-2,2.6-4.5,3.1-7.1
							c0.4-2.6,0.3-5.2,0.3-7.8c0-0.1,0-0.2-0.1-0.3c-0.1-0.2-0.4-0.2-0.6,0c-0.2,0.1-0.2,0.3-0.3,0.6c-3,8.7-10.4,15.8-19.3,18.2"
							/>
					</g>
				</g>
			</g>
			<g>
				<g>
					<path class="st13" d="M246.9,488.5l-6.1-11.5L227,412.7c0,0-12.6-7.3-23,8.7c-0.4,0.6,14.2,46.7,18.3,59.5l0.6,12.3
						c0,0-0.7,14.5,0,15.8s2.5,2,2.5,2s-0.5,3.6,3.6,4c0,0,0.4,4,3.4,3.4c3.1-0.5,4.2-2.5,4.2-2.5s0,5.1,2.7,4.5
						c2.7-0.5,3.2-2.7,3.7-3.4c0.5-0.7,1.1-8.2,1.1-8.2v-12.3l7.1,5.7c2,1,5,2.3,6.7,0.8L246.9,488.5z"/>
				</g>
				<g>
					<g>
						<path class="st14" d="M244.2,495.8c0.1,0,0.6,3,0.4,6.6c-0.1,1.7-0.2,3.2-0.2,4.7c-0.1,1.2-0.1,1.9-0.2,1.9
							c-0.2,0-0.3-3-0.1-6.6C244.2,498.8,244,495.8,244.2,495.8z"/>
					</g>
				</g>
				<g>
					<g>
						<path class="st14" d="M236.4,504.4c0.1,0,0.3,2.7,0.3,6.1c0,3.4,0,6.1-0.2,6.1c-0.1,0-0.3-2.7-0.3-6.1
							C236.1,507.1,236.2,504.4,236.4,504.4z"/>
					</g>
				</g>
				<g>
					<g>
						<path class="st14" d="M229.8,506.6c0.1,0,0.4,1.9,0.1,4.3c-0.2,2.4-0.8,4.2-0.9,4.2c-0.1,0,0.2-1.9,0.4-4.2
							C229.7,508.5,229.7,506.6,229.8,506.6z"/>
					</g>
				</g>
				<g>
					<g>
						<path class="st14" d="M225.6,505.2c0.1,0,0.1,1.2,0,2.8c-0.1,1.5-0.4,2.7-0.5,2.7s-0.1-1.2,0-2.8
							C225.2,506.4,225.5,505.2,225.6,505.2z"/>
					</g>
				</g>
			</g>
		</g>
		<g id="jVbGhw.tif">
		</g>
	</g>
	<g id="Speech_Bubble">
		<g>
			<g>
				<g>
					<g>
						<path class="st0" d="M239.3,254.6l-9.2-16.2c4.1-6.6,6.4-14.4,6.4-22.7c0-24-19.4-43.4-43.4-43.4s-43.4,19.4-43.4,43.4
							s19.4,43.4,43.4,43.4c10,0,19.2-3.4,26.5-9.1l0,0L239.3,254.6z"/>
					</g>
					<g>
						<g>
							<path class="st8" d="M239.3,254.6c-0.9-0.2-7.1-1.6-19.7-4.5c-0.1,0-0.1-0.1-0.1-0.2c0,0,0,0,0-0.1l0,0l0.2,0.2
								c-2.5,1.9-5.4,3.8-8.9,5.4c-3.5,1.5-7.5,2.8-11.9,3.4c-2.2,0.3-4.5,0.5-6.9,0.3c-1.2-0.1-2.4-0.1-3.6-0.2
								c-1.2-0.2-2.4-0.4-3.7-0.6c-4.9-1-9.9-2.8-14.6-5.7c-4.7-2.9-9-6.8-12.5-11.7c-3.5-4.8-6.1-10.5-7.3-16.8
								c-1.2-6.2-1.1-12.9,0.5-19.3c1.6-6.4,4.7-12.7,9.3-17.8l1.8-1.9c0.6-0.7,1.3-1.2,1.9-1.8c0.7-0.6,1.3-1.2,2-1.7l2.1-1.6
								c0.7-0.5,1.4-1,2.2-1.4c0.7-0.4,1.5-0.9,2.2-1.3c0.8-0.4,1.5-0.7,2.3-1.1c0.8-0.4,1.5-0.8,2.3-1c6.3-2.5,13-3.5,19.4-3
								s12.6,2.3,17.8,5.3c5.3,2.9,9.8,6.9,13.2,11.3c3.5,4.4,5.9,9.2,7.4,14.1c1.5,4.8,1.9,9.7,1.9,14.1c-0.1,4.5-0.9,8.6-2.1,12.2
								c-1.2,3.6-2.7,6.7-4.4,9.3v-0.1C236.1,248.8,238.9,253.9,239.3,254.6c-0.4-0.8-3.4-5.8-9.3-16.2v-0.1
								c1.6-2.6,3.1-5.7,4.3-9.3s1.9-7.7,2.1-12.1c0-4.4-0.4-9.2-1.9-14s-3.9-9.6-7.4-13.9c-3.4-4.3-7.8-8.2-13.1-11.1
								c-5.2-2.9-11.3-4.7-17.7-5.2s-13,0.5-19.2,3c-0.8,0.3-1.5,0.7-2.3,1c-0.8,0.4-1.5,0.7-2.3,1.1c-0.7,0.4-1.4,0.9-2.2,1.3
								c-0.7,0.4-1.5,0.9-2.1,1.4l-2.1,1.5c-0.7,0.5-1.3,1.1-1.9,1.7c-0.6,0.6-1.3,1.1-1.9,1.8l-1.8,1.9c-4.5,5.1-7.6,11.3-9.2,17.6
								c-1.6,6.4-1.7,12.9-0.5,19.1c1.2,6.1,3.8,11.8,7.2,16.6s7.7,8.7,12.3,11.6c4.6,2.9,9.6,4.7,14.5,5.7c1.2,0.2,2.4,0.4,3.6,0.6
								c1.2,0.1,2.4,0.1,3.6,0.2c2.3,0.1,4.6-0.1,6.8-0.3c4.4-0.6,8.3-1.8,11.8-3.3c3.5-1.5,6.4-3.4,8.9-5.3c0.1,0,0.1,0,0.2,0
								c0,0,0,0.1,0,0.2l0,0l-0.1-0.2C232.2,252.9,238.4,254.4,239.3,254.6z"/>
						</g>
					</g>
				</g>
			</g>
		</g>
		<g>
			<g>
				<g>
					<path class="st7" d="M180.5,207.4c-0.6-0.3-1.4-0.5-2.2-0.6c-2.3-0.3-4.3,0.4-6,2.2c4.7,2.7,11.1,6.3,15.7,8.9l5.8-3.3
						C189.6,212.4,184.4,209.5,180.5,207.4z"/>
				</g>
				<g class="st15">
					<path d="M180.5,207.4c-0.6-0.3-1.4-0.5-2.2-0.6c-2.3-0.3-4.3,0.4-6,2.2c4.7,2.7,11.1,6.3,15.7,8.9l5.8-3.3
						C189.6,212.4,184.4,209.5,180.5,207.4z"/>
				</g>
			</g>
			<g>
				<g>
					<path class="st7" d="M198.1,224.1c-0.1-0.1-0.2-0.2-0.2-0.2c-1.4-0.8-3-2.4-4.4-2.4c-0.6,0-1.2,0.5-2.6,1.3
						c-2.4,1.3-6.4,3.7-8.8,5c-2,1.1-4.5,2-6.9,1.2c-1.1-0.4-2-1-3.2-2c8.9-5.2,17.5-10.1,26.1-15.1c-0.1-0.4-0.3-0.8-0.4-1.1
						c-1.1-3.1,0.1-6.6,2.8-8.5s6.4-1.8,9,0.3c2.5,2.1,3.4,5.6,2.1,8.7c-1.3,3.1-4.4,4.9-7.7,4.5c-0.6-0.1-1.2,0.1-1.7,0.4
						c-1,0.5-1.9,1.1-3.1,1.8c2,0.9,3.4,2.3,5.7,2.1c3.2-0.3,6.1,2,7.1,5.2c1,3.1-0.2,6.4-2.8,8.3c-2.6,1.9-6.2,1.8-8.8-0.1
						c-2.6-1.9-3.6-5.3-2.6-8.3C197.8,224.8,198,224.5,198.1,224.1z M204.8,212.1c2,0,3.6-1.6,3.6-3.6c0-1.9-1.6-3.6-3.6-3.6
						s-3.7,1.7-3.6,3.7C201.2,210.5,202.8,212.1,204.8,212.1z M204.7,231.2c1.9,0,3.6-1.6,3.6-3.5c0.1-2-1.5-3.7-3.5-3.7
						s-3.6,1.5-3.7,3.5C201.1,229.4,202.8,231.1,204.7,231.2z"/>
				</g>
			</g>
			<g>
				<g>
					<path class="st8" d="M195.1,217.9c-0.1,0-0.1-0.7-0.8-1.2c-0.3-0.2-0.9-0.4-1.4-0.2s-0.9,0.7-0.9,1.4c0,0.6,0.4,1.2,0.9,1.4
						s1.1,0.1,1.4-0.2C195,218.6,195,217.9,195.1,217.9c0,0,0.1,0.2,0,0.4c0,0.3-0.2,0.7-0.6,1.1c-0.4,0.3-1.1,0.6-1.8,0.3
						c-0.7-0.2-1.3-1-1.3-1.8c0-0.9,0.6-1.6,1.3-1.8s1.4,0,1.8,0.3c0.4,0.3,0.6,0.8,0.6,1.1C195.2,217.7,195.1,217.9,195.1,217.9z"
						/>
				</g>
			</g>
			<g>
				<g>
					<path class="st8" d="M201.5,216.6c0,0-0.2,0.1-0.5,0.4c-0.5,0.3-0.9,0.6-1.5,0.9c-1.4,0.8-3.1,1.8-4.9,2.9
						c-1.8,1.1-3.5,2-5,2.8c-0.5,0.3-1,0.6-1.5,0.8c-0.4,0.2-0.6,0.3-0.6,0.3s0.2-0.1,0.5-0.4c0.5-0.3,0.9-0.6,1.5-0.9
						c1.4-0.8,3.1-1.8,4.9-2.9c1.8-1.1,3.5-2,5-2.8c0.5-0.3,1-0.6,1.5-0.8C201.2,216.7,201.4,216.6,201.5,216.6z"/>
				</g>
			</g>
			<g>
				<g>
					<path class="st8" d="M197.1,212.6c0,0-0.1,0.1-0.2,0.2c-0.2,0.1-0.5,0.3-0.7,0.4c-0.7,0.4-1.6,1-2.7,1.6
						c-2.2,1.4-5.4,3.2-8.8,5.2c-3.4,1.9-6.5,3.7-8.9,5.1c-1.1,0.6-2,1.1-2.7,1.5c-0.3,0.1-0.5,0.3-0.7,0.4
						c-0.2,0.1-0.3,0.1-0.3,0.1s0.1-0.1,0.2-0.2c0.2-0.1,0.5-0.3,0.7-0.4c0.7-0.4,1.6-1,2.7-1.6c2.4-1.4,5.5-3.1,8.9-5.1
						c3.5-2,6.6-3.8,8.9-5.1c1.1-0.6,2-1.1,2.7-1.6c0.3-0.2,0.5-0.3,0.7-0.4C197,212.7,197.1,212.6,197.1,212.6z"/>
				</g>
			</g>
		</g>
	</g>
	<g id="Stars">
		<g>
			<polygon class="st7" points="362.3,267.1 364.2,270.6 367.7,272.5 364.2,274.3 362.3,277.8 360.4,274.3 357,272.5 360.4,270.6 
							"/>
		</g>
		<g>
			<polygon class="st7" points="375,219.6 377,219.4 378.6,218.3 378.7,220.2 379.9,221.8 377.9,221.9 376.3,223.1 376.2,221.1 			
				"/>
		</g>
		<g>
			<polygon class="st7" points="694.9,377.4 696.8,377.2 698.4,376.1 698.6,378 699.7,379.6 697.8,379.7 696.2,380.9 696,378.9 			
				"/>
		</g>
		<g>
			<polygon class="st7" points="469.6,278.6 471.5,278.5 473.1,277.3 473.2,279.3 474.4,280.9 472.4,281 470.9,282.2 470.7,280.2 
							"/>
		</g>
		<g>
			<polygon class="st7" points="481.6,194.1 483.5,194 485.1,192.8 485.3,194.8 486.4,196.4 484.5,196.5 482.9,197.7 482.7,195.7 
							"/>
		</g>
		<g>
			<polygon class="st7" points="421,246.6 424,244.8 425.6,241.8 427.3,244.8 430.4,246.4 427.4,248.1 425.8,251.2 424.1,248.2 			
				"/>
		</g>
		<g>
			<polygon class="st7" points="673.1,417.1 676.1,415.4 677.7,412.3 679.4,415.3 682.5,416.9 679.5,418.6 677.9,421.7 676.1,418.7 
							"/>
		</g>
		<g>
			<polygon class="st7" points="658,362.2 661,360.5 662.6,357.4 664.3,360.4 667.4,362 664.4,363.8 662.8,366.8 661.1,363.8 			"/>
		</g>
	</g>
</g>
</svg>
