<svg width="664" height="703" viewBox="0 0 664 703" fill="none" xmlns="http://www.w3.org/2000/svg">
<path d="M332.014 702.461C514.831 702.461 663.033 616.893 663.033 511.339C663.033 405.785 514.831 320.217 332.014 320.217C149.197 320.217 0.994507 405.785 0.994507 511.339C0.994507 616.893 149.197 702.461 332.014 702.461Z" fill="#F5F5F5"/>
<path d="M119.675 558.259L39.0188 511.703L119.675 465.131L200.331 511.703L119.675 558.259Z" fill="#E0E0E0"/>
<path d="M190.237 569.641L130.329 535.072L190.237 500.488L250.13 535.072L190.237 569.641Z" fill="#E0E0E0"/>
<path d="M323.769 660.997C372.349 660.997 411.73 638.26 411.73 610.212C411.73 582.164 372.349 559.427 323.769 559.427C275.19 559.427 235.809 582.164 235.809 610.212C235.809 638.26 275.19 660.997 323.769 660.997Z" fill="#E0E0E0"/>
<path d="M569.344 580.174L227.625 383.475L273.5 356.999L615.203 553.698L569.344 580.174Z" fill="#E0E0E0"/>
<path d="M567.116 526.131L587.667 538.073C587.667 538.073 577.301 504.974 583.12 471.678C585.287 459.114 589.849 452.87 591.471 449.521C593.092 446.172 605.474 425.409 594.502 415.831C583.529 406.253 558.008 425.303 559.16 476.573C559.715 493.361 562.388 510.012 567.116 526.131Z" fill="#215481"/>
<path opacity="0.3" d="M567.116 526.131L587.667 538.073C587.667 538.073 577.301 504.974 583.12 471.678C585.287 459.114 589.849 452.87 591.471 449.521C593.092 446.172 605.474 425.409 594.502 415.831C583.529 406.253 558.008 425.303 559.16 476.573C559.715 493.361 562.388 510.012 567.116 526.131Z" fill="black"/>
<path d="M576.664 532.435C576.511 532.432 576.362 532.382 576.238 532.293C576.113 532.204 576.019 532.079 575.967 531.935C575.891 531.723 568.132 510.187 568.541 475.618C568.95 441.049 587.197 422.378 587.379 422.242C587.519 422.103 587.709 422.026 587.907 422.027C588.104 422.029 588.293 422.109 588.432 422.249C588.571 422.39 588.648 422.58 588.646 422.778C588.645 422.975 588.565 423.164 588.424 423.303C588.243 423.469 570.435 441.595 570.041 475.679C569.647 509.763 577.3 531.268 577.376 531.465C577.41 531.558 577.425 531.656 577.42 531.754C577.415 531.852 577.391 531.949 577.349 532.038C577.306 532.126 577.247 532.206 577.173 532.272C577.1 532.337 577.015 532.388 576.922 532.42C576.839 532.447 576.75 532.453 576.664 532.435Z" fill="white"/>
<path d="M572.981 529.223L606.929 549.197C606.929 549.197 622.463 546.894 621.281 532.269C620.099 517.644 613.794 514.189 621.66 507.763C629.525 501.337 631.556 500.913 631.177 494.608C630.798 488.304 626.555 485.515 624.57 483.06C622.584 480.605 616.992 475.331 620.917 467.738C624.842 460.145 630.131 452.795 622.266 449.309C617.568 447.233 609.672 449.84 604.428 455.372C599.185 460.903 594.881 464.919 589.91 466.208C584.939 467.496 574.603 467.602 574.951 476.149C575.3 484.697 577.528 487.652 575.452 491.456C571.466 498.624 554.795 502.474 572.981 529.223Z" fill="#215481"/>
<path d="M586.727 538.103C586.541 538.1 586.363 538.029 586.226 537.903C586.089 537.777 586.003 537.606 585.984 537.421C585.984 536.905 582.256 486.393 617.356 453.218C617.501 453.103 617.685 453.047 617.87 453.061C618.055 453.074 618.229 453.157 618.356 453.292C618.483 453.427 618.556 453.604 618.558 453.79C618.561 453.976 618.494 454.156 618.371 454.294C583.802 486.969 587.424 536.799 587.47 537.299C587.482 537.496 587.418 537.689 587.291 537.839C587.164 537.989 586.983 538.083 586.788 538.103H586.727Z" fill="white"/>
<path d="M592.804 494.729C592.619 494.729 592.44 494.659 592.305 494.532C592.17 494.405 592.088 494.232 592.077 494.047C591.799 490.141 590.735 486.331 588.948 482.847C587.162 479.362 584.69 476.274 581.68 473.769C581.601 473.713 581.533 473.642 581.481 473.56C581.429 473.477 581.395 473.385 581.379 473.289C581.364 473.193 581.367 473.095 581.391 473C581.414 472.905 581.456 472.817 581.514 472.738C581.627 472.578 581.798 472.469 581.991 472.435C582.185 472.401 582.383 472.445 582.544 472.557C585.759 475.171 588.397 478.424 590.291 482.11C592.185 485.796 593.294 489.835 593.547 493.971C593.555 494.068 593.544 494.167 593.514 494.26C593.484 494.353 593.436 494.44 593.373 494.514C593.31 494.589 593.232 494.65 593.145 494.695C593.058 494.74 592.963 494.766 592.865 494.774L592.804 494.729Z" fill="white"/>
<path d="M590.304 503.368C590.118 503.368 589.939 503.298 589.804 503.171C589.666 503.032 589.588 502.844 589.588 502.648C589.588 502.452 589.666 502.264 589.804 502.125C590.167 501.716 598.897 492.229 619.311 495.017C619.506 495.043 619.682 495.146 619.801 495.302C619.921 495.459 619.973 495.656 619.947 495.851C619.936 495.948 619.905 496.042 619.857 496.127C619.809 496.212 619.744 496.287 619.666 496.346C619.588 496.406 619.499 496.449 619.404 496.473C619.309 496.497 619.21 496.502 619.114 496.487C599.594 493.805 590.986 503.034 590.91 503.125C590.832 503.207 590.738 503.27 590.633 503.312C590.528 503.354 590.416 503.373 590.304 503.368Z" fill="white"/>
<path d="M577.528 269.568L416.125 7.3079C414.065 3.94744 410.789 1.51102 406.978 0.506003C403.166 -0.499013 399.115 0.00484486 395.666 1.91265L251.464 81.25L577.528 269.568Z" fill="#215481"/>
<path d="M577.528 269.568L251.464 81.25V365.152C251.466 369.93 252.728 374.623 255.123 378.758C257.518 382.893 260.96 386.323 265.104 388.703L554.795 555.94C557.11 557.245 559.726 557.923 562.383 557.905C565.04 557.887 567.647 557.175 569.944 555.84C572.242 554.504 574.15 552.592 575.48 550.291C576.81 547.991 577.516 545.383 577.528 542.725V269.568Z" fill="#215481"/>
<g opacity="0.3">
<path opacity="0.3" d="M577.528 269.568L416.125 7.3079C414.065 3.94744 410.789 1.51102 406.978 0.506003C403.166 -0.499013 399.115 0.00484486 395.666 1.91265L251.464 81.25L577.528 269.568Z" fill="white"/>
<path opacity="0.3" d="M577.528 269.568L251.464 81.25V365.152C251.466 369.93 252.728 374.623 255.123 378.758C257.518 382.893 260.96 386.323 265.104 388.703L554.795 555.94C557.11 557.245 559.726 557.923 562.383 557.905C565.04 557.887 567.647 557.175 569.944 555.84C572.242 554.504 574.15 552.592 575.48 550.291C576.81 547.991 577.516 545.383 577.528 542.725V269.568Z" fill="white"/>
</g>
<path d="M569.95 272.63L408.457 10.354C406.398 7.01735 403.138 4.59764 399.348 3.5938C395.559 2.58997 391.528 3.07854 388.088 4.95878L243.796 84.281L569.95 272.63Z" fill="#215481"/>
<path opacity="0.5" d="M569.95 272.63L408.457 10.354C406.398 7.01735 403.138 4.59764 399.348 3.5938C395.559 2.58997 391.528 3.07854 388.088 4.95878L243.796 84.281L569.95 272.63Z" fill="white"/>
<path d="M569.95 272.63L243.796 84.2812V368.198C243.806 372.977 245.071 377.669 247.465 381.805C249.859 385.941 253.297 389.375 257.435 391.765L547.051 558.987C549.369 560.324 551.999 561.027 554.675 561.027C557.352 561.027 559.981 560.323 562.299 558.986C564.618 557.648 566.543 555.725 567.884 553.408C569.224 551.091 569.931 548.463 569.935 545.787L569.95 272.63Z" fill="#215481"/>
<path opacity="0.5" d="M569.95 272.63L243.796 84.2812V368.198C243.806 372.977 245.071 377.669 247.465 381.805C249.859 385.941 253.297 389.375 257.435 391.765L547.051 558.987C549.369 560.324 551.999 561.027 554.675 561.027C557.352 561.027 559.981 560.323 562.299 558.986C564.618 557.648 566.543 555.725 567.884 553.408C569.224 551.091 569.931 548.463 569.935 545.787L569.95 272.63Z" fill="white"/>
<path d="M257.405 391.765L547.051 558.987C549.28 560.294 551.808 561.003 554.392 561.045C556.975 561.088 559.526 560.462 561.797 559.23L388.922 298.939L243.796 368.199C243.803 372.974 245.063 377.664 247.452 381.8C249.84 385.936 253.272 389.372 257.405 391.765Z" fill="#215481"/>
<path opacity="0.7" d="M257.405 391.765L547.051 558.987C549.28 560.294 551.808 561.003 554.392 561.045C556.975 561.088 559.526 560.462 561.797 559.23L388.922 298.939L243.796 368.199C243.803 372.974 245.063 377.664 247.452 381.8C249.84 385.936 253.272 389.372 257.405 391.765Z" fill="white"/>
<path d="M243.796 84.3267L385.012 325.052L569.935 272.63L243.796 84.3267Z" fill="#215481"/>
<path opacity="0.3" d="M243.796 84.3267L385.012 325.052L569.935 272.63L243.796 84.3267Z" fill="white"/>
<path d="M534.154 168.817V282.768L385.012 325.036L280.426 146.751V22.3115L534.154 168.817Z" fill="#F0F0F0"/>
<path d="M119.675 549.712L56.1896 513.052V426.016L119.675 462.676V549.712Z" fill="#215481"/>
<path d="M119.675 549.712V462.676L183.16 426.016V513.052L119.675 549.712Z" fill="#215481"/>
<path opacity="0.5" d="M119.675 549.712L56.1896 513.052V426.016L119.675 462.676V549.712Z" fill="black"/>
<path opacity="0.7" d="M119.675 549.712V462.676L183.16 426.016V513.052L119.675 549.712Z" fill="black"/>
<path d="M119.675 459.129L51.2642 419.619L119.675 380.125L188.085 419.619L119.675 459.129Z" fill="#215481"/>
<path opacity="0.1" d="M119.675 459.129L51.2642 419.619L119.675 380.125L188.085 419.619L119.675 459.129Z" fill="black"/>
<path d="M81.0139 402.449L149.424 441.943L158.336 436.805L89.9251 397.296L81.0139 402.449Z" fill="#215481"/>
<path opacity="0.3" d="M81.0139 402.449L149.424 441.943L158.336 436.805L89.9251 397.296L81.0139 402.449Z" fill="white"/>
<path d="M119.675 472.784L51.2642 433.289V419.619L119.675 459.129V472.784Z" fill="#215481"/>
<path d="M119.675 472.784V459.129L188.085 419.619V433.289L119.675 472.784Z" fill="#215481"/>
<path opacity="0.3" d="M119.675 472.784L51.2642 433.289V419.619L119.675 459.129V472.784Z" fill="black"/>
<path opacity="0.5" d="M119.675 472.784V459.129L188.085 419.619V433.289L119.675 472.784Z" fill="black"/>
<path d="M89.9251 532.586L81.0139 527.479V436.806L89.9251 441.943V532.586Z" fill="#215481"/>
<path d="M149.424 532.586L158.336 527.479V436.806L149.424 441.943V532.586Z" fill="#215481"/>
<path opacity="0.2" d="M89.9251 532.586L81.0139 527.479V436.806L89.9251 441.943V532.586Z" fill="black"/>
<path opacity="0.4" d="M149.424 532.586L158.336 527.479V436.806L149.424 441.943V532.586Z" fill="black"/>
<path d="M158.336 402.449L89.9251 441.943L81.0139 436.805L149.424 397.296L158.336 402.449Z" fill="#215481"/>
<path opacity="0.3" d="M158.336 402.449L89.9251 441.943L81.0139 436.805L149.424 397.296L158.336 402.449Z" fill="white"/>
<path d="M190.237 562.564L143.847 535.785V472.193L190.237 498.973V562.564Z" fill="#215481"/>
<path d="M190.237 562.564V498.973L236.612 472.193V535.785L190.237 562.564Z" fill="#215481"/>
<path opacity="0.5" d="M190.237 562.564L143.847 535.785V472.193L190.237 498.973V562.564Z" fill="black"/>
<path opacity="0.7" d="M190.237 562.564V498.973L236.612 472.193V535.785L190.237 562.564Z" fill="black"/>
<path d="M190.237 496.381L140.24 467.525L190.237 438.67L240.219 467.525L190.237 496.381Z" fill="#215481"/>
<path opacity="0.1" d="M190.237 496.381L140.24 467.525L190.237 438.67L240.219 467.525L190.237 496.381Z" fill="black"/>
<path d="M161.988 454.976L211.97 483.832L218.486 480.073L168.49 451.218L161.988 454.976Z" fill="#215481"/>
<path opacity="0.3" d="M161.988 454.976L211.97 483.832L218.486 480.073L168.49 451.218L161.988 454.976Z" fill="white"/>
<path d="M190.237 506.368L140.24 477.497V467.525L190.237 496.381V506.368Z" fill="#215481"/>
<path d="M190.237 506.368V496.381L240.219 467.525V477.497L190.237 506.368Z" fill="#215481"/>
<path opacity="0.3" d="M190.237 506.368L140.24 477.497V467.525L190.237 496.381V506.368Z" fill="black"/>
<path opacity="0.5" d="M190.237 506.368V496.381L240.219 467.525V477.497L190.237 506.368Z" fill="black"/>
<path d="M168.49 550.045L161.988 546.317V480.073L168.49 483.832V550.045Z" fill="#215481"/>
<path d="M211.97 550.045L218.486 546.317V480.073L211.97 483.832V550.045Z" fill="#215481"/>
<path d="M218.486 454.976L168.49 483.832L161.988 480.073L211.97 451.218L218.486 454.976Z" fill="#215481"/>
<path opacity="0.3" d="M218.486 454.976L168.49 483.832L161.988 480.073L211.97 451.218L218.486 454.976Z" fill="white"/>
<path d="M241.568 243.138L268.847 289.346L299.855 272.751C305.93 269.491 312.589 267.462 319.45 266.78L300.34 305.077L269.787 319.975C266.901 321.407 263.618 321.827 260.465 321.168C257.312 320.508 254.473 318.806 252.404 316.337C248.948 312.139 245.129 305.274 241.568 294.15C231.429 262.446 226.701 245.896 226.701 245.896L232.46 237L241.568 243.138Z" fill="#FFA8A7"/>
<path d="M311.479 552.667C311.57 551.924 311.645 551.152 311.736 550.53C313.252 538.088 322.072 497.487 320.829 479.301L347.76 376.867L303.462 369.426C303.462 369.426 285.275 435.108 283.032 470.965C281.805 490.667 283.381 525.418 285.033 552.652C293.562 555.822 302.946 555.828 311.479 552.667Z" fill="#455A64"/>
<path d="M296.339 602.785L308.463 584.948C308.463 584.948 309.978 565.322 311.418 552.667C302.896 555.857 293.512 555.884 284.972 552.743C286.336 575.006 287.746 592.283 287.746 592.283L296.339 602.785Z" fill="#FFA8A7"/>
<path d="M318.086 371.911L310.751 372.76C304.689 400.039 323.694 412.724 323.694 412.724C323.694 412.724 310.585 454.719 304.719 485.605C301.87 500.624 308.827 509.308 317.783 514.127C319.814 501.079 321.42 487.803 320.814 479.27L347.745 376.837L318.086 371.911Z" fill="#37474F"/>
<path d="M308.872 587.902C305.493 590.032 302.926 593.234 301.582 596.995C300.562 599.473 298.707 601.516 296.339 602.77C296.339 602.77 297.566 597.435 295.414 595.783C293.262 594.131 285.685 588.205 284.881 596.586C284.624 599.208 284.381 601.83 284.381 601.83C284.381 601.83 274.318 612.742 269.423 615.121C264.528 617.5 250.615 617.197 254.025 629.897C257.435 642.597 281.381 636.429 289.246 629.549C297.112 622.668 316.434 624.184 316.162 615C315.889 605.816 309.478 595.268 308.872 587.902Z" fill="#263238"/>
<path d="M308.523 584.947C305.121 587.093 302.542 590.323 301.203 594.116C300.167 596.615 298.291 598.673 295.899 599.936C295.899 599.936 297.142 594.571 294.975 592.889C292.808 591.206 285.184 585.311 284.366 593.707L283.866 598.996C283.866 598.996 273.742 609.969 268.817 612.363C263.891 614.758 249.873 614.454 253.313 627.245C256.753 640.036 280.85 633.823 288.776 626.897C296.702 619.971 316.146 621.486 315.859 612.242C315.571 602.997 309.145 592.358 308.523 584.947Z" fill="#37474F"/>
<path d="M291.747 608.649C291.593 608.646 291.444 608.595 291.322 608.502C291.199 608.41 291.109 608.281 291.065 608.134C290.568 606.252 289.64 604.513 288.353 603.053C287.067 601.592 285.458 600.452 283.654 599.723C283.561 599.697 283.474 599.653 283.399 599.592C283.324 599.532 283.262 599.457 283.217 599.372C283.171 599.287 283.144 599.194 283.136 599.098C283.127 599.002 283.139 598.905 283.169 598.814C283.228 598.631 283.357 598.48 283.527 598.392C283.697 598.304 283.895 598.287 284.078 598.344C286.108 599.137 287.923 600.397 289.376 602.021C290.829 603.646 291.88 605.589 292.444 607.694C292.474 607.785 292.486 607.881 292.479 607.976C292.472 608.071 292.445 608.164 292.402 608.249C292.358 608.334 292.297 608.409 292.224 608.47C292.15 608.531 292.065 608.576 291.974 608.604L291.747 608.649Z" fill="#F0F0F0"/>
<path d="M287.367 612.726C287.21 612.729 287.057 612.68 286.931 612.587C286.805 612.494 286.713 612.361 286.67 612.211C286.174 610.331 285.246 608.592 283.959 607.134C282.673 605.677 281.063 604.54 279.259 603.815C279.076 603.755 278.923 603.628 278.833 603.458C278.742 603.288 278.721 603.09 278.774 602.906C278.801 602.814 278.847 602.729 278.908 602.655C278.969 602.581 279.043 602.519 279.128 602.474C279.212 602.429 279.305 602.401 279.4 602.392C279.495 602.383 279.592 602.393 279.683 602.421C281.716 603.213 283.533 604.475 284.987 606.102C286.441 607.73 287.49 609.677 288.049 611.786C288.106 611.969 288.089 612.167 288.001 612.338C287.913 612.508 287.761 612.637 287.579 612.696L287.367 612.726Z" fill="#F0F0F0"/>
<path d="M283.032 617.091C282.877 617.089 282.726 617.038 282.601 616.946C282.476 616.854 282.383 616.724 282.335 616.576C281.845 614.693 280.919 612.952 279.632 611.494C278.345 610.035 276.732 608.9 274.924 608.18C274.742 608.121 274.591 607.992 274.503 607.822C274.415 607.652 274.397 607.454 274.455 607.271C274.482 607.179 274.528 607.094 274.589 607.02C274.649 606.946 274.724 606.885 274.809 606.839C274.893 606.794 274.986 606.767 275.081 606.757C275.176 606.748 275.272 606.758 275.364 606.786C277.395 607.582 279.21 608.844 280.664 610.471C282.117 612.098 283.167 614.044 283.73 616.152C283.758 616.243 283.767 616.339 283.758 616.435C283.749 616.53 283.721 616.623 283.676 616.707C283.631 616.792 283.57 616.866 283.496 616.927C283.422 616.988 283.336 617.033 283.245 617.061L283.032 617.091Z" fill="#F0F0F0"/>
<path d="M268.817 612.363C263.891 614.758 249.873 614.455 253.313 627.246C255.541 635.49 266.347 635.839 275.864 633.186C276.472 629.413 276.302 625.555 275.364 621.85C273.439 614.712 268.817 612.363 268.817 612.363Z" fill="#FAFAFA"/>
<path d="M405.213 495.561C406.39 499.38 408.819 502.69 412.109 504.957C414.234 506.595 415.723 508.92 416.322 511.535C416.322 511.535 411.488 508.958 409.32 510.61C407.153 512.262 399.545 518.052 407.381 520.992L412.306 522.841C412.306 522.841 420.217 535.374 421.248 540.724C422.278 546.073 418.368 559.425 431.523 559.425C444.677 559.425 444.935 534.707 440.343 525.326C435.751 515.945 442.222 497.683 433.281 495.561C424.339 493.44 412.473 496.88 405.213 495.561Z" fill="#263238"/>
<path d="M384.86 491.439C382.238 490.742 379.525 489.924 376.797 489.06C368.174 486.29 359.361 484.147 350.427 482.649C350.427 482.649 371.129 431.94 375.676 405.04C380.223 378.139 369.478 359.923 369.478 359.923L309.69 370.531C305.144 398.053 328.286 412.132 328.286 412.132C327.376 411.905 315.055 452.445 310.281 483.528C305.508 514.612 332.802 515.612 345.881 515.354C352.125 515.263 368.144 515.248 383.163 515.279C388.088 504.337 386.467 495.895 384.86 491.439Z" fill="#455A64"/>
<path d="M403.243 495.275C397.062 494.322 390.936 493.043 384.89 491.44C386.497 495.896 388.043 504.337 383.193 515.264L414.822 515.34C414.792 499.821 403.243 495.275 403.243 495.275Z" fill="#FFA8A7"/>
<path d="M402.258 495.123C403.452 498.965 405.902 502.296 409.214 504.58C411.352 506.231 412.851 508.571 413.458 511.202C413.458 511.202 408.593 508.611 406.411 510.278C404.228 511.945 396.56 517.765 404.441 520.72L409.411 522.584C409.411 522.584 417.383 535.208 418.414 540.588C419.444 545.968 415.519 559.426 428.765 559.426C442.01 559.426 442.268 534.541 437.63 525.1C432.993 515.658 439.525 497.26 430.523 495.123C421.52 492.986 409.578 496.502 402.258 495.123Z" fill="#37474F"/>
<path d="M409.411 523.31C409.277 523.313 409.146 523.276 409.033 523.204C408.951 523.155 408.879 523.089 408.823 523.012C408.767 522.934 408.728 522.846 408.706 522.753C408.685 522.659 408.683 522.562 408.7 522.468C408.717 522.374 408.753 522.284 408.805 522.204C410.095 520.446 411.781 519.018 413.728 518.035C415.674 517.053 417.825 516.545 420.005 516.551C420.101 516.545 420.197 516.558 420.288 516.591C420.379 516.623 420.462 516.673 420.533 516.738C420.604 516.803 420.66 516.882 420.7 516.97C420.74 517.057 420.761 517.152 420.763 517.248C420.767 517.344 420.752 517.439 420.719 517.529C420.686 517.619 420.636 517.701 420.571 517.772C420.506 517.842 420.428 517.899 420.342 517.939C420.255 517.98 420.161 518.002 420.066 518.006C418.121 517.991 416.2 518.433 414.457 519.296C412.714 520.16 411.199 521.42 410.033 522.977C409.965 523.08 409.873 523.164 409.764 523.222C409.656 523.28 409.535 523.311 409.411 523.31Z" fill="#F0F0F0"/>
<path d="M412.336 528.631C412.196 528.628 412.06 528.586 411.942 528.51C411.78 528.407 411.665 528.244 411.622 528.056C411.58 527.869 411.613 527.672 411.715 527.509C413.011 525.755 414.701 524.329 416.649 523.347C418.597 522.365 420.748 521.855 422.93 521.856C423.12 521.856 423.303 521.931 423.439 522.064C423.575 522.197 423.653 522.378 423.657 522.569C423.662 522.759 423.591 522.944 423.46 523.082C423.33 523.221 423.151 523.303 422.96 523.311C421.016 523.311 419.098 523.76 417.355 524.622C415.612 525.484 414.092 526.737 412.912 528.282C412.854 528.384 412.77 528.47 412.669 528.531C412.569 528.592 412.454 528.626 412.336 528.631Z" fill="#F0F0F0"/>
<path d="M415.367 533.935C415.236 533.94 415.106 533.909 414.992 533.845C414.877 533.781 414.782 533.686 414.718 533.572C414.654 533.457 414.622 533.327 414.627 533.196C414.632 533.065 414.673 532.937 414.746 532.828C416.04 531.071 417.729 529.643 419.678 528.661C421.626 527.679 423.779 527.17 425.961 527.175C426.057 527.169 426.153 527.183 426.244 527.215C426.335 527.247 426.418 527.297 426.489 527.362C426.56 527.427 426.617 527.506 426.656 527.594C426.696 527.681 426.717 527.776 426.719 527.872C426.723 528.064 426.653 528.25 426.523 528.392C426.393 528.533 426.213 528.619 426.022 528.63C424.075 528.62 422.154 529.063 420.409 529.926C418.665 530.789 417.146 532.048 415.974 533.601C415.909 533.704 415.82 533.788 415.714 533.846C415.608 533.905 415.489 533.935 415.367 533.935Z" fill="#F0F0F0"/>
<path d="M418.398 540.588C419.444 545.968 415.504 559.426 428.749 559.426C437.297 559.426 440.419 549.075 440.328 539.194C436.85 537.618 433.083 536.777 429.265 536.724C421.839 536.724 418.398 540.588 418.398 540.588Z" fill="#FAFAFA"/>
<path d="M372.933 201.733C372.933 201.733 373.206 187.927 377.07 187.654C380.935 187.381 378.131 197.171 378.131 197.171C378.131 197.171 382.162 194.489 383.693 196.899C385.224 199.308 376.237 203.249 376.237 203.249L372.933 201.733Z" fill="#263238"/>
<path d="M292.035 228.785C292.035 228.785 294.778 251.655 329.483 236.211C329.483 236.211 296.551 296.938 355.611 296.938C381.541 296.938 399.06 284.253 395.544 262.869C395.544 262.869 410.063 262.551 410.7 250.912C410.7 250.912 392.923 258.687 385.193 241.107C377.464 223.527 388.073 206.144 374.903 199.112C374.903 199.112 367.553 175.757 322.83 188.215C320.883 186.879 318.633 186.052 316.284 185.811C313.936 185.57 311.564 185.923 309.387 186.836C301.491 189.867 299.476 203.795 301.491 214.343C303.507 224.891 301.325 233.226 292.035 228.785Z" fill="#263238"/>
<path d="M364.173 271.432L371.19 273.341V319.701L364.173 342.055C367.429 350.683 370.053 359.537 372.024 368.546C361.242 375.22 348.831 378.796 336.151 378.882C315.328 378.882 303.462 369.456 303.462 369.456L300.825 338.6C300.825 338.6 285.381 328.734 292.959 309.032C300.537 289.33 319.496 266.779 319.496 266.779H326.316C326.316 266.779 342.122 276.297 364.173 271.432Z" fill="#215481"/>
<path opacity="0.6" d="M364.173 271.432L371.19 273.341V319.701L364.173 342.055C367.429 350.683 370.053 359.537 372.024 368.546C361.242 375.22 348.831 378.796 336.151 378.882C315.328 378.882 303.462 369.456 303.462 369.456L300.825 338.6C300.825 338.6 285.381 328.734 292.959 309.032C300.537 289.33 319.496 266.779 319.496 266.779H326.316C326.316 266.779 342.122 276.297 364.173 271.432Z" fill="black"/>
<path d="M353.762 268.75L364.173 271.432C364.173 271.432 353.368 278.055 349.321 299.484C349.194 300.157 348.928 300.796 348.539 301.36C348.15 301.924 347.648 302.401 347.064 302.759C346.481 303.117 345.828 303.349 345.149 303.44C344.471 303.532 343.78 303.48 343.123 303.288L315.146 295.059C314.445 294.845 313.801 294.477 313.261 293.981C312.721 293.485 312.299 292.873 312.027 292.193C311.755 291.512 311.64 290.779 311.689 290.047C311.738 289.316 311.951 288.604 312.312 287.966C315.768 281.813 321.633 271.917 326.376 266.749H335.697L353.762 268.75Z" fill="#FFA8A7"/>
<path d="M353.762 268.75L329.483 266.931V236.212H353.762V268.75Z" fill="#FFA8A7"/>
<path d="M329.483 265.598C334.445 263.757 338.981 260.927 342.816 257.28C346.651 253.633 349.705 249.244 351.791 244.381V236.212H329.483V265.598Z" fill="#F28F8F"/>
<path d="M323.815 196.429C323.815 196.429 301.613 197.733 304.356 235.711C305.629 253.261 309.736 262.354 323.254 261.687C338.576 260.945 360.324 250.412 358.899 220.359C357.475 190.306 323.815 196.429 323.815 196.429Z" fill="#FFA8A7"/>
<path d="M353.762 236.212C353.762 236.212 347.7 237.819 347.7 229.089C347.7 229.089 320.648 227.255 314.676 200.416C314.676 200.416 317.344 192.368 334.227 192.368C351.109 192.368 365.325 207.311 360.915 227.846L353.762 236.212Z" fill="#263238"/>
<path d="M320.632 228.059V241.107L312.994 238.773L320.632 228.059Z" fill="#F28F8F"/>
<path d="M329.483 232.104C330.956 232.104 332.15 230.91 332.15 229.437C332.15 227.964 330.956 226.77 329.483 226.77C328.01 226.77 326.816 227.964 326.816 229.437C326.816 230.91 328.01 232.104 329.483 232.104Z" fill="#263238"/>
<path d="M314.646 227.588C314.649 228.116 314.495 228.633 314.204 229.074C313.913 229.514 313.497 229.859 313.01 230.063C312.523 230.267 311.986 230.322 311.468 230.221C310.949 230.12 310.473 229.867 310.098 229.494C309.724 229.122 309.468 228.647 309.364 228.129C309.26 227.611 309.312 227.074 309.513 226.586C309.715 226.097 310.056 225.68 310.495 225.386C310.934 225.092 311.451 224.936 311.979 224.936C312.684 224.936 313.36 225.214 313.86 225.711C314.359 226.208 314.642 226.883 314.646 227.588Z" fill="#263238"/>
<path d="M308.736 222.057L313.949 219.026C313.949 219.026 311.949 216.95 309.963 218.192C309.4 218.643 308.982 219.251 308.764 219.939C308.545 220.626 308.536 221.363 308.736 222.057Z" fill="#263238"/>
<path d="M321.299 245.441C324.33 245.648 327.344 244.838 329.862 243.138C329.862 243.138 330.438 247.684 326.664 248.518C322.891 249.351 321.299 245.441 321.299 245.441Z" fill="#F28F8F"/>
<path d="M351.61 237.197C351.517 234.987 351.926 232.785 352.807 230.756C353.822 228.497 355.611 226.209 358.717 226.133C365.537 225.936 366.462 232.514 366.371 234.847C366.128 240.985 361.157 247.623 351.898 247.881L351.61 237.197Z" fill="#FFA8A7"/>
<path d="M368.871 272.705C368.871 272.705 355.914 284.268 361.915 300.833C367.917 317.398 380.101 337.978 383.542 345.329C383.542 345.329 354.474 348.633 347.169 349.36L351.307 368.41C351.307 368.41 392.695 369.244 401.591 365.97C410.488 362.697 414.625 354.846 409.972 342.631C406.487 333.538 391.316 300.575 383.981 284.738C382.724 282.021 380.906 279.601 378.646 277.637C376.387 275.673 373.737 274.209 370.872 273.342L368.871 272.705Z" fill="#FFA8A7"/>
<path d="M148.348 203.915V343.616C148.348 346.323 149.061 348.982 150.416 351.326C151.77 353.67 153.717 355.615 156.062 356.968L329.21 456.749C330.269 457.357 331.469 457.675 332.689 457.671C333.91 457.666 335.108 457.34 336.162 456.726C337.216 456.111 338.09 455.229 338.695 454.169C339.3 453.109 339.614 451.908 339.607 450.687V311.214C339.607 307.81 338.711 304.466 337.008 301.518C335.305 298.57 332.856 296.123 329.907 294.422L160.579 196.853C159.339 196.137 157.933 195.761 156.502 195.761C155.07 195.761 153.664 196.138 152.425 196.853C151.185 197.569 150.156 198.599 149.44 199.838C148.725 201.078 148.348 202.484 148.348 203.915Z" fill="#215481"/>
<path opacity="0.3" d="M148.348 203.915V343.616C148.348 346.323 149.061 348.982 150.416 351.326C151.77 353.67 153.717 355.615 156.062 356.968L329.21 456.749C330.269 457.357 331.469 457.675 332.689 457.671C333.91 457.666 335.108 457.34 336.162 456.726C337.216 456.111 338.09 455.229 338.695 454.169C339.3 453.109 339.614 451.908 339.607 450.687V311.214C339.607 307.81 338.711 304.466 337.008 301.518C335.305 298.57 332.856 296.123 329.907 294.422L160.579 196.853C159.339 196.137 157.933 195.761 156.502 195.761C155.07 195.761 153.664 196.138 152.425 196.853C151.185 197.569 150.156 198.599 149.44 199.838C148.725 201.078 148.348 202.484 148.348 203.915Z" fill="black"/>
<path d="M144.575 205.325V345.026C144.577 347.728 145.29 350.382 146.641 352.723C147.992 355.064 149.935 357.008 152.273 358.362L325.437 458.144C326.494 458.756 327.695 459.078 328.918 459.076C330.14 459.074 331.34 458.749 332.396 458.133C333.452 457.518 334.326 456.634 334.93 455.571C335.534 454.508 335.845 453.304 335.833 452.082V312.609C335.832 309.205 334.935 305.861 333.232 302.914C331.53 299.966 329.082 297.519 326.134 295.817L156.805 198.248C155.564 197.531 154.157 197.155 152.724 197.155C151.291 197.156 149.884 197.534 148.644 198.252C147.404 198.969 146.375 200.001 145.661 201.243C144.946 202.484 144.572 203.892 144.575 205.325Z" fill="#215481"/>
<path d="M211.182 229.588L214.47 227.906L221.124 231.741L218.183 233.62L211.182 229.588Z" fill="#215481"/>
<path d="M211.182 392.31L218.183 396.341V233.62L211.182 229.589V392.31Z" fill="#215481"/>
<path opacity="0.4" d="M211.182 392.31L218.183 396.341V233.62L211.182 229.589V392.31Z" fill="white"/>
<path d="M244.523 245.213L237.537 241.182C237.537 241.182 236.188 243.182 235.203 252.973C234.384 261.141 204.71 243.88 217.198 228.194C225.064 218.358 248.66 237.348 244.523 245.213Z" fill="#FFA8A7"/>
<path d="M347.169 349.361C343.388 349.57 339.599 349.57 335.818 349.361C333.605 348.951 326.497 342.056 324.603 341.783C322.709 341.51 317.874 344.556 321.572 356.135C325.27 367.714 330.665 372.972 339.091 371.73C347.518 370.487 351.216 368.426 351.216 368.426L347.169 349.361Z" fill="#FFA8A7"/>
<path d="M347.169 349.36C344.763 347.444 342.232 345.693 339.592 344.116V352.527L347.169 349.36Z" fill="#FFA8A7"/>
<path d="M144.575 278.434L335.833 388.855V380.019L144.575 269.599V278.434Z" fill="#215481"/>
<path opacity="0.4" d="M144.575 278.434L335.833 388.855V380.019L144.575 269.599V278.434Z" fill="white"/>
<path d="M213.44 309.654C213.44 309.654 205.499 282.844 211.682 280.722C216.668 279.01 221.73 283.572 219.911 293.528C218.83 299.925 218.092 306.376 217.698 312.851C218.129 313.103 218.61 313.257 219.107 313.302C219.604 313.347 220.105 313.281 220.574 313.111C221.042 312.94 221.468 312.668 221.82 312.314C222.171 311.96 222.441 311.533 222.609 311.063C225.64 302.682 232.323 289.588 228.337 279.586C225.503 272.463 213.546 262.824 204.589 266.734C195.632 270.644 198.967 290.103 208.56 309.047C208.56 309.047 210.333 313.321 213.44 309.654Z" fill="#215481"/>
<path opacity="0.6" d="M213.44 309.654C213.44 309.654 205.499 282.844 211.682 280.722C216.668 279.01 221.73 283.572 219.911 293.528C218.83 299.925 218.092 306.376 217.698 312.851C218.129 313.103 218.61 313.257 219.107 313.302C219.604 313.347 220.105 313.281 220.574 313.111C221.042 312.94 221.468 312.668 221.82 312.314C222.171 311.96 222.441 311.533 222.609 311.063C225.64 302.682 232.323 289.588 228.337 279.586C225.503 272.463 213.546 262.824 204.589 266.734C195.632 270.644 198.967 290.103 208.56 309.047C208.56 309.047 210.333 313.321 213.44 309.654Z" fill="white"/>
<path d="M215.486 322.369C215.486 322.369 223.427 349.178 217.244 351.3C212.258 353.013 207.196 348.451 209.015 338.494C210.095 332.102 210.833 325.657 211.227 319.186C210.795 318.935 210.314 318.781 209.816 318.738C209.318 318.694 208.817 318.76 208.348 318.933C207.879 319.105 207.454 319.379 207.102 319.734C206.751 320.09 206.483 320.518 206.317 320.99C203.286 329.37 196.602 342.449 200.588 352.452C203.422 359.575 215.38 369.213 224.336 365.303C233.293 361.393 229.959 341.934 220.366 322.99C220.366 322.975 218.593 318.701 215.486 322.369Z" fill="#215481"/>
<path opacity="0.6" d="M215.486 322.369C215.486 322.369 223.427 349.178 217.244 351.3C212.258 353.013 207.196 348.451 209.015 338.494C210.095 332.102 210.833 325.657 211.227 319.186C210.795 318.935 210.314 318.781 209.816 318.738C209.318 318.694 208.817 318.76 208.348 318.933C207.879 319.105 207.454 319.379 207.102 319.734C206.751 320.09 206.483 320.518 206.317 320.99C203.286 329.37 196.602 342.449 200.588 352.452C203.422 359.575 215.38 369.213 224.336 365.303C233.293 361.393 229.959 341.934 220.366 322.99C220.366 322.975 218.593 318.701 215.486 322.369Z" fill="white"/>
<path d="M218.502 328.385L209.499 323.187C208.28 322.484 207.266 321.473 206.561 320.254C205.856 319.036 205.484 317.653 205.483 316.246V306.91C205.482 306.172 205.676 305.447 206.045 304.807C206.413 304.168 206.944 303.637 207.584 303.268C208.223 302.899 208.948 302.705 209.686 302.706C210.425 302.707 211.149 302.902 211.788 303.273L219.487 307.713C220.817 308.483 221.922 309.587 222.693 310.917C223.464 312.246 223.874 313.754 223.882 315.291V325.248C223.886 325.88 223.723 326.501 223.41 327.05C223.097 327.598 222.645 328.055 222.099 328.373C221.554 328.691 220.934 328.86 220.302 328.862C219.67 328.864 219.049 328.7 218.502 328.385Z" fill="#215481"/>
<path opacity="0.6" d="M218.502 328.385L209.499 323.187C208.28 322.484 207.266 321.473 206.561 320.254C205.856 319.036 205.484 317.653 205.483 316.246V306.91C205.482 306.172 205.676 305.447 206.045 304.807C206.413 304.168 206.944 303.637 207.584 303.268C208.223 302.899 208.948 302.705 209.686 302.706C210.425 302.707 211.149 302.902 211.788 303.273L219.487 307.713C220.817 308.483 221.922 309.587 222.693 310.917C223.464 312.246 223.874 313.754 223.882 315.291V325.248C223.886 325.88 223.723 326.501 223.41 327.05C223.097 327.598 222.645 328.055 222.099 328.373C221.554 328.691 220.934 328.86 220.302 328.862C219.67 328.864 219.049 328.7 218.502 328.385Z" fill="white"/>
<path d="M335.833 388.854L339.607 386.611V377.503L335.833 380.019V388.854Z" fill="#215481"/>
</svg>
